<svg width="240" height="240" viewBox="0 0 240 240" fill="none" xmlns="http://www.w3.org/2000/svg">
<circle cx="120" cy="120" r="120" fill="#D3D9ED"/>
<path fill-rule="evenodd" clip-rule="evenodd" d="M41.3652 69.6591C41.0659 69.9038 40.5489 69.8222 39.8686 69.8222C40.2495 72.1609 31.7052 66.831 34.9705 76.6206C35.5964 78.4969 30.8344 79.8838 28.1677 78.9864C23.5145 77.382 24.9022 80.0469 25.1471 87.2804C26.5077 89.9997 21.8818 87.8514 19.2423 89.2111C16.6028 90.5708 17.3647 92.6647 18.2355 92.2296C19.1063 91.7945 24.3037 97.9674 23.188 99.599C21.0111 102.808 25.7459 103.161 23.188 105.255C23.188 107.621 19.8138 105.255 19.2695 107.648C18.9974 109.008 18.2083 108.246 15.3238 110.911C13.5279 112.625 15.0517 110.068 11.5687 111.319C8.08558 112.57 10.9972 116.214 7.16041 114.039C3.32359 111.863 6.1808 115.29 3.59571 114.039C1.446 113.032 -0.349919 116.459 0.0582533 121.734C0.384791 126.384 5.14674 119.532 4.16713 124.454C3.65011 127.173 6.09918 126.765 6.75225 128.587C7.40533 130.409 6.99711 130.98 6.45288 131.442C5.90865 131.905 3.97666 132.149 5.11955 133.292C5.36188 133.531 5.61617 133.758 5.88146 133.971C7.18761 134.923 5.88148 132.177 11.6775 135.413C16.0041 137.806 15.5143 137.806 15.1333 138.866C13.3918 143.679 19.7321 140.335 21.011 141.45C24.0043 144.169 25.0384 138.186 32.4399 151.239C29.5555 154.502 32.7392 153.36 35.3243 159.615C38.0454 166.331 30.8344 160.131 34.0726 164.21C36.3039 166.93 34.4807 166.223 36.3855 170.084C38.2903 173.946 41.4469 172.151 42.4537 173.538C44.0864 175.74 46.3993 174.598 48.6307 177.671C48.9833 178.2 49.4477 178.646 49.9912 178.976C51.76 179.928 53.6104 178.732 55.4335 180.254C58.1547 182.566 57.1207 178.378 61.6106 182.076C67.6515 187.08 68.1141 184.306 69.393 186.89C70.672 189.473 71.8965 185.639 73.7196 189.609C74.3727 190.996 76.8762 187.298 84.6042 190.833C84.4682 188.467 84.6043 188.249 86.1825 188.113C87.7608 187.977 87.6519 187.352 87.6247 192.682C88.9309 187.243 89.856 187.542 92.8493 187.243C93.776 187.038 94.7398 187.073 95.6492 187.344C96.5587 187.616 97.3839 188.114 98.0467 188.793C98.3188 189.092 98.6454 189.12 99.1624 189.011C100.305 188.766 102.128 187.651 105.122 186.291C109.476 184.469 107.435 183.817 109.748 182.648C112.061 181.478 112.061 184.279 116.578 182.376C122.428 179.901 116.768 184.388 120.823 183.599C118.319 187.27 120.823 184.66 122.347 185.53C123.87 186.4 124.088 185.53 124.768 185.204C125.449 184.877 126.564 184.796 129.803 187.162C134.211 190.452 131.326 191.676 133.258 190.153C135.19 188.63 133.748 194.096 136.524 199.942C138.646 204.375 135.517 201.764 135.381 202.254C134.211 206.088 131.571 205.735 132.66 208.889C133.476 211.418 131.762 209.215 131.326 211.092C130.537 214.464 133.721 214.273 133.639 215.307C133.558 216.34 130.265 216.177 130.456 217.809C130.592 218.869 130.646 218.543 133.639 217.809C135.544 217.319 137.585 216.095 136.143 218.57C134.292 221.752 136.687 220.256 136.605 221.561C136.415 224.634 139.082 221.915 139.027 223.002C138.973 224.09 141.531 223.383 140.878 224.09C140.225 224.797 137.857 228.088 136.986 229.148C136.116 230.209 137.476 231.079 142.918 230.317C144.116 235.049 148.361 233.037 149.041 234.804C149.422 235.974 152.606 236.844 151.762 233.662C150.919 230.481 148.878 230.29 148.878 228.468C148.878 227.272 150.483 226.864 152.061 226.619C152.905 226.483 153.749 226.402 154.347 226.266C156.034 225.858 156.388 228.577 157.449 227.897C158.075 227.489 156.089 225.966 157.449 224.716C158.81 223.465 158.429 227.217 160.824 225.967C163.218 224.716 162.075 227.598 163.898 225.967C165.722 224.335 167.273 227.299 166.211 224.036C165.885 223.002 168.143 222.431 169.776 221.643C172.497 220.392 169.096 224.362 174.593 224.906C178.157 225.232 178.729 226.048 176.334 227.408C173.94 228.767 174.892 228.468 175.926 229.61C176.96 230.753 176.144 231.242 177.586 230.372C179.028 229.502 179.382 232.928 182.239 232.493C182.644 232.416 183.037 232.288 183.409 232.112C185.559 231.16 183.6 230.372 184.579 229.91C185.559 229.447 185.831 233.173 188.715 230.943C187.736 232.683 189.096 232.874 190.729 231.541C191.3 232.493 190.538 232.792 189.777 233.853C189.015 234.913 190.43 237.388 191.219 237.959C191.219 237.959 191.219 240.896 193.94 239.699C195.845 238.829 196.443 237.687 195.954 236.137C195.464 234.587 194.402 236.137 194.811 234.995C195.219 233.853 193.287 234.342 192.879 233.744C191.709 232.003 196.824 232.683 193.967 230.073C195.11 230.073 196.906 232.792 197.505 230.753C198.103 228.713 199.409 230.562 200.852 229.039C202.294 227.517 207.301 227.788 206.049 225.395C207.301 225.966 208.471 226.538 208.362 221.915C210.675 226.347 209.532 221.643 211.083 223.764C212.634 225.885 213.178 220.283 214.049 222.295C214.92 224.308 216.553 220.473 218.784 220.963C221.015 221.452 219.736 219.522 222.24 219.331C224.743 219.141 222.43 218.461 223.791 217.809C226.104 216.639 223.111 215.225 225.315 215.089C227.519 214.953 225.805 212.778 227.138 212.37C229.859 211.636 226.675 208.916 229.641 209.65C232.607 210.385 228.988 208.1 230.893 205.599C232.798 203.097 230.893 204.457 230.24 203.886C227.519 201.846 232.417 203.886 232.335 201.166C232.254 198.447 233.777 199.453 233.587 197.25C232.934 189.092 235.329 192.437 234.458 190.126C233.587 187.814 237.642 188.113 235.029 185.911C232.417 183.708 236.58 186.482 235.519 183.681C234.676 181.478 234.839 183.681 233.124 183.219C234.077 182.838 234.458 182.729 234.948 181.206C231.383 181.587 230.948 177.236 228.689 178.487C225.968 180.01 227.056 177.046 223.9 179.738C226.322 176.366 228.009 179.167 227.546 177.508C227.247 176.556 229.859 176.665 229.451 175.496C229.043 174.326 231.383 174.163 231.301 173.592C230.866 171.09 226.403 169.731 226.866 170.329C225.315 168.289 223.002 172.042 221.151 168.888C221.151 168.888 222.784 170.465 223.873 169.35C226.186 167.256 227.709 170.71 229.641 170.139C229.641 170.139 230.784 168.697 228.58 168.017C226.376 167.338 228.09 165.624 226.267 165.896C224.444 166.168 222.43 163.694 221.832 160.811C221.233 157.929 219.927 159.941 219.437 157.63C218.947 155.318 218.485 156.596 217.505 155.237C214.212 150.614 210.784 152.272 209.995 150.532C209.206 148.792 214.24 147.65 210.974 146.589C209.369 146.072 214.43 146.97 213.287 144.278C212.716 142.972 214.131 143.815 214.349 142.456C214.566 141.096 215.301 143.435 215.872 140.933C216.444 138.431 218.594 141.123 218.594 139.492C218.594 138.54 219.247 138.621 219.056 138.241C218.866 137.86 220.417 136.99 217.423 136.5C214.43 136.011 214.349 137.751 213.478 136.31C212.607 134.869 208.852 134.488 209.07 135.848C209.07 136.337 206.729 137.343 206.838 136.99C206.158 139.192 200.09 137.942 201.151 136.228C202.865 133.509 198.838 131.606 194.702 133.047C193.369 128.07 189.613 129.892 189.994 125.269C190.375 120.647 196.634 126.52 197.124 121.816C197.505 118.063 201.831 119.695 201.831 116.812C201.831 113.93 205.015 117.383 203.709 113.93C205.913 118.145 212.036 114.61 207.029 120.946C202.403 126.82 208.825 123.665 207.328 124.59C205.831 125.514 207.927 125.351 206.757 126.031C204.253 127.472 206.076 127.88 207.6 127.391C209.124 126.901 206.757 126.33 208.661 125.759C210.566 125.188 211.845 120.32 215.791 120.32C218.077 120.32 217.723 119.749 218.893 118.743C219.078 118.579 219.278 118.433 219.491 118.308C223.219 115.888 221.804 114.936 223.056 113.223C224.852 110.748 224.172 108.138 229.505 109.089C232.036 109.552 234.158 108.464 232.39 107.458C229.669 105.908 236.335 106.696 234.893 104.738C233.451 102.781 236.145 103.787 235.846 101.557C235.682 100.306 239.301 106.044 239.818 103.188C238.622 101.705 237.867 99.9142 237.642 98.0217C236.635 93.0997 230.485 92.5831 233.369 90.598C240.308 85.6216 235.573 85.4856 238.186 83.5005C243.764 79.2855 234.431 79.2855 237.261 75.8048C240.091 72.324 234.539 67.9459 230.866 70.638C227.192 73.3302 224.988 75.4241 218.321 70.4477C211.655 65.4713 206.566 67.7283 198.022 58.7817C189.477 49.8351 182.157 47.0342 173.885 47.0342C165.613 47.0342 169.694 48.5298 164.198 48.9105C158.701 49.2912 159.817 52.2825 163.681 51.9018C168.688 51.4123 165.531 54.6211 164.47 57.7484C163.409 60.8756 165.286 69.3327 154.266 65.9064C152.198 65.2809 150.402 64.7643 148.823 64.3836C141.313 68.7889 149.721 68.7617 145.367 71.5354C142.782 73.1942 142.401 75.832 149.449 74.2548C160.198 71.8346 156.225 77.4092 161.449 72.4056C164.987 69.0336 165.885 70.8012 172.933 75.1249C176.361 77.246 175.218 80.7268 172.715 80.5636C169.314 80.3189 172.252 81.4338 168.987 81.5154C164.824 81.5154 166.865 81.0259 164.688 84.2347C161.694 88.6944 160.17 84.2347 159.082 88.0146C157.395 93.7796 154.048 87.0628 153.041 90.1901C152.361 92.2568 153.177 92.5287 156.279 93.2085C159.381 93.8883 157.721 100.224 154.429 100.007C152.47 99.8709 153.667 104.167 147.789 103.624C135.435 102.509 138.374 109.062 126.292 106.044C113.394 102.971 119.898 101.666 114.319 101.557C110.782 101.557 109.584 99.7078 106.455 101.067C103.326 102.427 100.713 100.197 98.2916 100.931C95.8698 101.666 95.1895 99.4086 92.033 102.59C89.6928 104.902 91.8425 98.8919 89.584 97.5595C87.3254 96.227 88.9853 93.8884 87.4886 94.2147C85.992 94.541 87.271 90.9515 85.9648 92.8822C84.6586 94.8129 76.468 90.8155 76.4136 90.7611C72.9578 88.7488 70.9713 90.1357 65.012 90.7611C59.0527 91.3866 65.012 90.2173 62.8895 87.4163C61.1208 85.0505 64.3045 85.404 61.5561 83.6092C57.2295 80.8899 59.7057 77.6267 56.1138 76.267C53.3927 75.2065 54.6172 75.2609 54.0458 74.6898C51.3246 72.1608 51.6784 77.5724 48.6035 74.2548C45.5286 70.9372 43.9775 73.6565 41.7462 69.9854L41.6101 69.6863L41.3652 69.6591Z" fill="#CE2B37"/>
<path d="M40.1406 101.067L43.1067 110.259H52.7939L44.9571 115.942L47.9503 125.133L40.1406 119.45L32.3037 125.133L35.297 115.942L27.4873 110.259H37.1473L40.1406 101.067Z" fill="#FFCC00"/>
<path d="M62.6187 131.743L59.6526 130.221L57.3124 132.559L57.8294 129.296L54.8906 127.8L58.156 127.284L58.673 124.021L60.1697 126.957L63.4622 126.441L61.122 128.779L62.6187 131.743Z" fill="#FFCC00"/>
<path d="M68.9307 120.784L65.638 120.947L64.7673 124.156L63.5971 121.056L60.2773 121.246L62.8625 119.152L61.6652 116.052L64.4407 117.874L67.0258 115.78L66.155 118.989L68.9307 120.784Z" fill="#FFCC00"/>
<path d="M68.9307 108.14L66.155 109.934L67.0258 113.143L64.4407 111.049L61.6652 112.844L62.8625 109.771L60.2773 107.677L63.5971 107.868L64.7673 104.768L65.638 107.949L68.9307 108.14Z" fill="#FFCC00"/>
<path d="M62.6187 97.1819L61.122 100.146L63.4622 102.485L60.1697 101.968L58.673 104.905L58.156 101.642L54.8906 101.125L57.8294 99.6021L57.3124 96.3389L59.6526 98.6775L62.6187 97.1819Z" fill="#FFCC00"/>
<path d="M173.778 97.6151C169.614 96.3098 156.798 93.7264 145.777 83.3113C134.756 72.8963 132.498 65.7988 132.498 65.7988H115.191C115.191 65.7988 112.634 73.141 101.912 83.3113C91.1909 93.4816 78.075 96.3098 73.9116 97.6151C69.7483 98.9203 71.517 101.558 73.9116 101.558H173.778C176.172 101.558 177.914 98.8388 173.778 97.6151Z" fill="#15416E"/>
<path d="M132.66 63.8154H115.027C114.701 63.8154 114.429 64.2505 114.429 64.7944C114.429 65.3383 114.701 65.8006 115.027 65.8006H132.66C132.987 65.8006 133.259 65.3383 133.259 64.7944C133.259 64.2505 132.987 63.8154 132.66 63.8154Z" fill="#002451"/>
<path d="M127.601 50.4336H120.09C119.927 50.4336 119.601 50.7871 119.601 51.2222C119.601 51.6573 119.927 52.0108 120.09 52.0108H127.601C127.764 52.0108 128.091 51.6573 128.091 51.2222C128.091 50.7871 127.764 50.4336 127.601 50.4336Z" fill="#15416E"/>
<path d="M128.769 57.3701H118.919C114.674 57.3701 114.157 63.8149 115.028 63.8149H132.661C133.531 63.8149 133.014 57.3701 128.769 57.3701Z" fill="#15416E"/>
<path d="M127.599 52.0117H120.088C120.088 56.2267 116.905 57.4504 118.701 57.4504H128.986C130.782 57.3688 127.599 56.2267 127.599 52.0117Z" fill="#F5AF59"/>
<path d="M123.844 39.0146C120.442 39.0146 117.612 40.6463 117.612 43.284C118.009 45.8382 118.847 48.3041 120.089 50.5718H127.599C128.84 48.3041 129.678 45.8382 130.075 43.284C130.075 40.5103 127.245 39.0146 123.844 39.0146Z" fill="#F5AF59"/>
<path d="M168.633 101.56H79.0801V106.046H168.633V101.56Z" fill="#37857F"/>
<path d="M160.117 108.249H87.5439V111.322H160.117V108.249Z" fill="#165CA3"/>
<path d="M162.049 111.295H85.6387V119.725H162.049V111.295Z" fill="#37857F"/>
<path d="M164.227 120.975H83.4365V124.428H164.227V120.975Z" fill="#002451"/>
<path d="M162.05 119.723H85.6398L83.4629 120.974H164.254L162.05 119.723Z" fill="#15416E"/>
<path d="M182.433 158.229H65.2871V160.949H182.433V158.229Z" fill="#002451"/>
<path d="M178.977 157.006H68.7158L65.2871 158.23H182.405L178.977 157.006Z" fill="#15416E"/>
<path d="M160.143 108.248L168.606 106.045H79.0801L87.5429 108.248H160.143Z" fill="#006C62"/>
<path d="M190.296 136.911C188.336 135.851 164.254 124.43 164.254 124.43H83.4362C83.4362 124.43 59.354 135.851 57.3948 136.911C55.4356 137.972 54.9186 139.631 56.5785 139.631H191.112C192.772 139.631 192.282 137.945 190.296 136.911Z" fill="#15416E"/>
<path d="M157.395 111.295H152.878V119.725H157.395V111.295Z" fill="#165CA3"/>
<path d="M156.417 115.51C156.417 116.896 155.846 118.039 155.138 118.039C154.431 118.039 153.859 116.896 153.859 115.51C153.859 114.123 154.431 113.008 155.138 113.008C155.846 113.008 156.417 114.123 156.417 115.51ZM155.138 113.524C154.703 113.524 154.349 114.422 154.349 115.51C154.349 116.597 154.703 117.495 155.138 117.495C155.574 117.495 155.927 116.597 155.927 115.51C155.927 114.422 155.465 113.524 155.138 113.524Z" fill="#F5AF59"/>
<path d="M157.395 111.784H152.878V112.219H157.395V111.784Z" fill="#F5AF59"/>
<path d="M157.395 118.799H152.878V119.234H157.395V118.799Z" fill="#F5AF59"/>
<path d="M144.879 111.295H140.362V119.725H144.879V111.295Z" fill="#165CA3"/>
<path d="M143.899 115.51C143.899 116.896 143.327 118.039 142.62 118.039C141.912 118.039 141.341 116.896 141.341 115.51C141.341 114.123 141.912 113.008 142.62 113.008C143.327 113.008 143.899 114.123 143.899 115.51ZM142.62 113.524C142.184 113.524 141.831 114.422 141.831 115.51C141.831 116.597 142.184 117.495 142.62 117.495C143.055 117.495 143.409 116.597 143.409 115.51C143.409 114.422 143.055 113.524 142.62 113.524Z" fill="#F5AF59"/>
<path d="M144.879 111.784H140.362V112.219H144.879V111.784Z" fill="#F5AF59"/>
<path d="M144.879 118.799H140.362V119.234H144.879V118.799Z" fill="#F5AF59"/>
<path d="M132.361 111.295H127.844V119.725H132.361V111.295Z" fill="#165CA3"/>
<path d="M131.382 115.51C131.382 116.896 130.811 118.039 130.103 118.039C129.396 118.039 128.824 116.896 128.824 115.51C128.824 114.123 129.396 113.008 130.103 113.008C130.811 113.008 131.382 114.123 131.382 115.51ZM130.103 113.524C129.668 113.524 129.314 114.422 129.314 115.51C129.314 116.597 129.668 117.495 130.103 117.495C130.539 117.495 130.892 116.597 130.892 115.51C130.892 114.422 130.539 113.524 130.103 113.524Z" fill="#F5AF59"/>
<path d="M132.361 111.784H127.844V112.219H132.361V111.784Z" fill="#F5AF59"/>
<path d="M132.361 118.799H127.844V119.234H132.361V118.799Z" fill="#F5AF59"/>
<path d="M119.844 111.295H115.327V119.725H119.844V111.295Z" fill="#165CA3"/>
<path d="M118.866 115.51C118.866 116.896 118.294 118.039 117.587 118.039C116.879 118.039 116.308 116.896 116.308 115.51C116.308 114.123 116.879 113.008 117.587 113.008C118.294 113.008 118.866 114.123 118.866 115.51ZM117.587 113.524C117.151 113.524 116.797 114.422 116.797 115.51C116.797 116.597 117.151 117.495 117.587 117.495C118.022 117.495 118.376 116.597 118.376 115.51C118.376 114.422 118.022 113.524 117.587 113.524Z" fill="#F5AF59"/>
<path d="M119.844 111.784H115.327V112.219H119.844V111.784Z" fill="#F5AF59"/>
<path d="M119.844 118.799H115.327V119.234H119.844V118.799Z" fill="#F5AF59"/>
<path d="M107.328 111.295H102.811V119.725H107.328V111.295Z" fill="#165CA3"/>
<path d="M106.483 115.51C106.483 116.896 105.911 118.039 105.204 118.039C104.496 118.039 103.925 116.896 103.925 115.51C103.925 114.123 104.496 113.008 105.204 113.008C105.911 113.008 106.483 114.123 106.483 115.51ZM105.204 113.524C104.768 113.524 104.415 114.422 104.415 115.51C104.415 116.597 104.768 117.495 105.204 117.495C105.639 117.495 105.993 116.597 105.993 115.51C105.993 114.422 105.503 113.524 105.068 113.524H105.204Z" fill="#F5AF59"/>
<path d="M107.328 111.784H102.811V112.219H107.328V111.784Z" fill="#F5AF59"/>
<path d="M107.328 118.799H102.811V119.234H107.328V118.799Z" fill="#F5AF59"/>
<path d="M94.8091 111.295H90.292V119.725H94.8091V111.295Z" fill="#165CA3"/>
<path d="M93.8303 115.51C93.8303 116.896 93.2589 118.039 92.5514 118.039C91.8439 118.039 91.2725 116.896 91.2725 115.51C91.2725 114.123 91.8439 113.008 92.5514 113.008C93.2589 113.008 93.8303 114.123 93.8303 115.51ZM92.5514 113.524C92.116 113.524 91.7622 114.422 91.7622 115.51C91.7622 116.597 92.116 117.495 92.5514 117.495C92.9868 117.495 93.3406 116.597 93.3406 115.51C93.3406 114.422 92.8779 113.524 92.5514 113.524Z" fill="#F5AF59"/>
<path d="M94.8091 111.784H90.292V112.219H94.8091V111.784Z" fill="#F5AF59"/>
<path d="M94.8091 118.799H90.292V119.234H94.8091V118.799Z" fill="#F5AF59"/>
<path d="M160.334 115.509C160.71 116.329 161.028 117.174 161.287 118.038C161.287 118.334 161.169 118.618 160.96 118.827C160.751 119.036 160.467 119.153 160.171 119.153C159.875 119.153 159.591 119.036 159.382 118.827C159.173 118.618 159.055 118.334 159.055 118.038C159.314 117.174 159.632 116.329 160.008 115.509C159.636 114.697 159.318 113.861 159.055 113.008C159.055 112.712 159.173 112.428 159.382 112.219C159.591 112.01 159.875 111.893 160.171 111.893C160.467 111.893 160.751 112.01 160.96 112.219C161.169 112.428 161.287 112.712 161.287 113.008C161.024 113.861 160.706 114.697 160.334 115.509ZM161.096 118.038C160.848 117.21 160.539 116.401 160.171 115.618C159.808 116.4 159.508 117.209 159.273 118.038C159.273 118.283 159.273 118.854 160.171 118.854C161.069 118.854 161.096 118.283 161.096 118.038ZM161.096 113.008C161.101 112.888 161.08 112.769 161.034 112.659C160.988 112.549 160.919 112.45 160.83 112.37C160.742 112.29 160.637 112.23 160.523 112.194C160.41 112.159 160.289 112.148 160.171 112.164C160.054 112.148 159.934 112.158 159.822 112.193C159.709 112.229 159.605 112.29 159.519 112.37C159.433 112.451 159.366 112.551 159.323 112.661C159.281 112.771 159.264 112.89 159.273 113.008C159.517 113.834 159.817 114.642 160.171 115.428C160.53 114.641 160.839 113.833 161.096 113.008ZM161.804 114.558V116.461C161.659 116.496 161.51 116.497 161.365 116.466C161.22 116.434 161.084 116.37 160.968 116.278C160.852 116.187 160.758 116.07 160.693 115.937C160.628 115.803 160.595 115.657 160.595 115.509C160.595 115.361 160.628 115.215 160.693 115.082C160.758 114.949 160.852 114.832 160.968 114.74C161.084 114.649 161.22 114.585 161.365 114.553C161.51 114.521 161.659 114.523 161.804 114.558ZM161.586 115.156C161.524 115.12 161.453 115.101 161.382 115.101C161.31 115.101 161.24 115.12 161.178 115.156C161.116 115.192 161.064 115.243 161.029 115.305C160.993 115.367 160.974 115.438 160.974 115.509C160.974 115.581 160.993 115.651 161.029 115.713C161.064 115.775 161.116 115.827 161.178 115.862C161.24 115.898 161.31 115.917 161.382 115.917C161.453 115.917 161.524 115.898 161.586 115.863V115.156ZM159.708 115.509C159.461 115.577 159.231 115.697 159.034 115.861C158.836 116.026 158.677 116.23 158.565 116.461V114.558C158.677 114.789 158.836 114.993 159.034 115.157C159.231 115.321 159.461 115.441 159.708 115.509ZM158.756 115.863C158.945 115.713 159.156 115.594 159.382 115.509C159.156 115.424 158.945 115.305 158.756 115.156V115.863Z" fill="#F5AF59"/>
<path d="M148.961 115.509C149.337 116.329 149.655 117.174 149.913 118.038C149.913 118.334 149.796 118.618 149.587 118.827C149.377 119.036 149.094 119.153 148.798 119.153C148.502 119.153 148.218 119.036 148.009 118.827C147.8 118.618 147.682 118.334 147.682 118.038C147.94 117.174 148.259 116.329 148.634 115.509C148.263 114.697 147.945 113.861 147.682 113.008C147.682 112.712 147.8 112.428 148.009 112.219C148.218 112.01 148.502 111.893 148.798 111.893C149.094 111.893 149.377 112.01 149.587 112.219C149.796 112.428 149.913 112.712 149.913 113.008C149.651 113.861 149.333 114.697 148.961 115.509ZM149.696 118.038C149.461 117.209 149.16 116.4 148.798 115.618C148.43 116.401 148.12 117.21 147.872 118.038C147.872 118.283 147.872 118.854 148.798 118.854C149.723 118.854 149.696 118.283 149.696 118.038ZM149.696 113.008C149.705 112.89 149.688 112.771 149.645 112.661C149.602 112.551 149.536 112.451 149.449 112.37C149.363 112.29 149.26 112.229 149.147 112.193C149.034 112.158 148.915 112.148 148.798 112.164C147.954 112.164 147.872 112.736 147.872 113.008C148.13 113.833 148.439 114.641 148.798 115.428C149.151 114.642 149.452 113.834 149.696 113.008ZM150.403 114.558V116.461C150.259 116.496 150.109 116.497 149.964 116.466C149.82 116.434 149.684 116.37 149.568 116.278C149.451 116.187 149.357 116.07 149.293 115.937C149.228 115.803 149.194 115.657 149.194 115.509C149.194 115.361 149.228 115.215 149.293 115.082C149.357 114.949 149.451 114.832 149.568 114.74C149.684 114.649 149.82 114.585 149.964 114.553C150.109 114.521 150.259 114.523 150.403 114.558ZM150.213 115.156C150.024 115.305 149.812 115.424 149.587 115.509C149.812 115.594 150.024 115.713 150.213 115.863V115.156ZM148.308 115.509C148.063 115.582 147.835 115.704 147.638 115.867C147.442 116.031 147.281 116.233 147.165 116.461V114.558C147.281 114.786 147.442 114.988 147.638 115.151C147.835 115.315 148.063 115.437 148.308 115.509ZM147.383 115.863C147.445 115.898 147.515 115.917 147.587 115.917C147.658 115.917 147.729 115.898 147.791 115.862C147.853 115.827 147.904 115.775 147.94 115.713C147.976 115.651 147.994 115.581 147.994 115.509C147.994 115.438 147.976 115.367 147.94 115.305C147.904 115.243 147.853 115.192 147.791 115.156C147.729 115.12 147.658 115.101 147.587 115.101C147.515 115.101 147.445 115.12 147.383 115.156V115.863Z" fill="#F5AF59"/>
<path d="M136.415 115.509C136.791 116.329 137.109 117.174 137.368 118.038C137.368 118.334 137.25 118.618 137.041 118.827C136.832 119.036 136.548 119.153 136.252 119.153C135.956 119.153 135.672 119.036 135.463 118.827C135.254 118.618 135.136 118.334 135.136 118.038C135.395 117.174 135.713 116.329 136.089 115.509C135.717 114.697 135.399 113.861 135.136 113.008C135.136 112.712 135.254 112.428 135.463 112.219C135.672 112.01 135.956 111.893 136.252 111.893C136.548 111.893 136.832 112.01 137.041 112.219C137.25 112.428 137.368 112.712 137.368 113.008C137.105 113.861 136.787 114.697 136.415 115.509ZM137.177 118.038C136.929 117.21 136.62 116.401 136.252 115.618C135.884 116.401 135.575 117.21 135.327 118.038C135.327 118.283 135.327 118.854 136.252 118.854C137.177 118.854 137.096 118.283 137.096 118.038H137.177ZM137.177 113.008C137.177 112.762 137.08 112.527 136.906 112.354C136.733 112.18 136.497 112.083 136.252 112.083C136.007 112.083 135.771 112.18 135.598 112.354C135.424 112.527 135.327 112.762 135.327 113.008C135.584 113.833 135.893 114.641 136.252 115.428C136.583 114.639 136.865 113.831 137.096 113.008H137.177ZM137.885 114.558V116.461C137.741 116.496 137.591 116.497 137.446 116.466C137.301 116.434 137.165 116.37 137.049 116.278C136.933 116.187 136.839 116.07 136.774 115.937C136.709 115.803 136.676 115.657 136.676 115.509C136.676 115.361 136.709 115.215 136.774 115.082C136.839 114.949 136.933 114.832 137.049 114.74C137.165 114.649 137.301 114.585 137.446 114.553C137.591 114.521 137.741 114.523 137.885 114.558ZM137.667 115.156C137.483 115.299 137.282 115.418 137.068 115.509C137.282 115.601 137.483 115.72 137.667 115.863V115.156ZM135.789 115.509C135.542 115.577 135.312 115.697 135.115 115.861C134.918 116.026 134.758 116.23 134.646 116.461V114.558C134.749 114.78 134.896 114.979 135.079 115.143C135.261 115.307 135.475 115.431 135.708 115.509H135.789ZM134.837 115.863C135.026 115.713 135.237 115.594 135.463 115.509C135.237 115.424 135.026 115.305 134.837 115.156V115.863Z" fill="#F5AF59"/>
<path d="M123.873 115.508C124.239 116.329 124.548 117.174 124.798 118.037C124.804 118.177 124.778 118.316 124.724 118.445C124.67 118.573 124.588 118.688 124.484 118.782C124.38 118.875 124.257 118.945 124.123 118.985C123.989 119.026 123.848 119.036 123.71 119.016C123.57 119.036 123.428 119.025 123.293 118.985C123.158 118.944 123.033 118.875 122.927 118.782C122.821 118.689 122.737 118.575 122.679 118.446C122.622 118.318 122.593 118.178 122.594 118.037C122.845 117.174 123.154 116.329 123.519 115.508C123.158 114.695 122.849 113.859 122.594 113.006C122.589 112.863 122.615 112.721 122.671 112.589C122.726 112.457 122.81 112.339 122.917 112.243C123.023 112.147 123.149 112.076 123.286 112.034C123.423 111.992 123.568 111.98 123.71 112C123.85 111.98 123.994 111.991 124.13 112.033C124.266 112.075 124.39 112.147 124.495 112.243C124.599 112.34 124.681 112.458 124.733 112.591C124.786 112.723 124.808 112.865 124.798 113.006C124.544 113.859 124.235 114.695 123.873 115.508ZM124.608 118.037C124.373 117.208 124.073 116.399 123.71 115.617C123.342 116.4 123.032 117.209 122.785 118.037C122.785 118.282 122.785 118.853 123.71 118.853C124.635 118.853 124.608 118.282 124.608 118.037ZM124.608 113.006C124.617 112.889 124.6 112.77 124.557 112.66C124.515 112.55 124.448 112.45 124.361 112.369C124.275 112.289 124.172 112.228 124.059 112.192C123.946 112.157 123.827 112.147 123.71 112.163C122.866 112.163 122.785 112.735 122.785 113.006C123.042 113.832 123.351 114.64 123.71 115.427C124.064 114.641 124.364 113.833 124.608 113.006ZM125.315 114.556V116.46C125.171 116.495 125.021 116.496 124.877 116.465C124.732 116.433 124.596 116.369 124.48 116.277C124.363 116.186 124.269 116.069 124.205 115.936C124.14 115.802 124.106 115.656 124.106 115.508C124.106 115.36 124.14 115.214 124.205 115.081C124.269 114.948 124.363 114.831 124.48 114.739C124.596 114.648 124.732 114.584 124.877 114.552C125.021 114.52 125.171 114.522 125.315 114.556ZM125.125 115.155C124.933 115.3 124.722 115.419 124.499 115.508C124.722 115.598 124.933 115.717 125.125 115.862V115.155ZM123.22 115.508C122.972 115.576 122.742 115.696 122.545 115.86C122.348 116.024 122.189 116.229 122.077 116.46V114.556C122.189 114.788 122.348 114.992 122.545 115.156C122.742 115.32 122.972 115.44 123.22 115.508ZM122.268 115.862C122.46 115.717 122.67 115.598 122.893 115.508C122.67 115.419 122.46 115.3 122.268 115.155V115.862Z" fill="#F5AF59"/>
<path d="M185.369 139.548H62.3184V144.742H185.369V139.548Z" fill="#37857F"/>
<path d="M178.949 147.271H68.7148V157.006H178.949V147.271Z" fill="#37857F"/>
<path d="M178.974 147.271L185.369 144.742H62.3184L68.7131 147.271H178.974Z" fill="#006C62"/>
<path d="M162.647 147.271H157.423V157.006H162.647V147.271Z" fill="#165CA3"/>
<path d="M161.505 152.137C161.505 153.742 160.852 155.047 160.036 155.047C159.219 155.047 158.539 153.742 158.539 152.137C158.539 150.533 159.219 149.228 160.036 149.228C160.852 149.228 161.505 150.506 161.505 152.137ZM160.036 149.826C159.519 149.826 159.11 150.859 159.11 152.137C159.11 153.415 159.519 154.421 160.036 154.421C160.553 154.421 160.934 153.388 160.934 152.137C160.934 150.886 160.525 149.826 160.036 149.826Z" fill="#F5AF59"/>
<path d="M162.647 147.814H157.423V148.331H162.647V147.814Z" fill="#F5AF59"/>
<path d="M162.647 155.947H157.423V156.464H162.647V155.947Z" fill="#F5AF59"/>
<path d="M148.173 147.271H142.948V157.006H148.173V147.271Z" fill="#165CA3"/>
<path d="M147.027 152.137C147.027 153.742 146.373 155.047 145.557 155.047C144.741 155.047 144.061 153.742 144.061 152.137C144.061 150.533 144.741 149.228 145.557 149.228C146.373 149.228 147.027 150.506 147.027 152.137ZM145.557 149.826C145.04 149.826 144.632 150.859 144.632 152.137C144.632 153.415 145.04 154.421 145.557 154.421C146.074 154.421 146.455 153.388 146.455 152.137C146.455 150.886 146.047 149.826 145.557 149.826Z" fill="#F5AF59"/>
<path d="M148.173 147.814H142.948V148.331H148.173V147.814Z" fill="#F5AF59"/>
<path d="M148.173 155.947H142.948V156.464H148.173V155.947Z" fill="#F5AF59"/>
<path d="M177.098 147.271H171.873V157.006H177.098V147.271Z" fill="#165CA3"/>
<path d="M175.982 152.137C175.982 153.742 175.329 155.047 174.512 155.047C173.696 155.047 173.016 153.742 173.016 152.137C173.016 150.533 173.696 149.228 174.512 149.228C175.329 149.228 175.982 150.506 175.982 152.137ZM174.512 149.826C173.995 149.826 173.587 150.859 173.587 152.137C173.587 153.415 173.995 154.421 174.512 154.421C175.029 154.421 175.41 153.388 175.41 152.137C175.41 150.886 175.002 149.826 174.512 149.826Z" fill="#F5AF59"/>
<path d="M177.098 147.814H171.873V148.331H177.098V147.814Z" fill="#F5AF59"/>
<path d="M177.098 155.947H171.873V156.464H177.098V155.947Z" fill="#F5AF59"/>
<path d="M133.695 147.271H128.471V157.006H133.695V147.271Z" fill="#165CA3"/>
<path d="M132.551 152.137C132.551 153.742 131.898 155.047 131.082 155.047C130.265 155.047 129.612 153.742 129.612 152.137C129.612 150.533 130.265 149.228 131.082 149.228C131.898 149.228 132.551 150.506 132.551 152.137ZM131.082 149.826C130.592 149.826 130.184 150.859 130.184 152.137C130.184 153.415 130.592 154.421 131.082 154.421C131.572 154.421 131.98 153.388 131.98 152.137C131.98 150.886 131.572 149.826 130.973 149.826H131.082Z" fill="#F5AF59"/>
<path d="M133.695 147.814H128.471V148.331H133.695V147.814Z" fill="#F5AF59"/>
<path d="M133.695 155.947H128.471V156.464H133.695V155.947Z" fill="#F5AF59"/>
<path d="M119.218 147.271H113.993V157.006H119.218V147.271Z" fill="#165CA3"/>
<path d="M118.075 152.137C118.075 153.742 117.422 155.047 116.605 155.047C115.789 155.047 115.136 153.742 115.136 152.137C115.136 150.533 115.789 149.228 116.605 149.228C117.422 149.228 118.075 150.506 118.075 152.137ZM116.605 149.826C116.115 149.826 115.707 150.859 115.707 152.137C115.707 153.415 116.115 154.421 116.605 154.421C117.095 154.421 117.53 153.388 117.53 152.137C117.53 150.886 117.122 149.826 116.605 149.826Z" fill="#F5AF59"/>
<path d="M119.218 147.814H113.993V148.331H119.218V147.814Z" fill="#F5AF59"/>
<path d="M119.218 155.947H113.993V156.464H119.218V155.947Z" fill="#F5AF59"/>
<path d="M104.742 147.271H99.5176V157.006H104.742V147.271Z" fill="#165CA3"/>
<path d="M103.762 152.137C103.762 153.742 103.082 155.047 102.265 155.047C101.449 155.047 100.796 153.742 100.796 152.137C100.796 150.533 101.449 149.228 102.265 149.228C103.082 149.228 103.762 150.506 103.762 152.137ZM102.265 149.826C101.776 149.826 101.367 150.859 101.367 152.137C101.367 153.415 101.776 154.421 102.265 154.421C102.755 154.421 103.191 153.388 103.191 152.137C103.191 150.886 102.646 149.826 102.129 149.826H102.265Z" fill="#F5AF59"/>
<path d="M104.742 147.814H99.5176V148.331H104.742V147.814Z" fill="#F5AF59"/>
<path d="M104.742 155.947H99.5176V156.464H104.742V155.947Z" fill="#F5AF59"/>
<path d="M90.2393 147.271H85.0146V157.006H90.2393V147.271Z" fill="#165CA3"/>
<path d="M89.096 152.137C89.096 153.742 88.443 155.047 87.6267 155.047C86.8103 155.047 86.1572 153.742 86.1572 152.137C86.1572 150.533 86.8103 149.228 87.6267 149.228C88.443 149.228 89.096 150.506 89.096 152.137ZM87.6267 149.826C87.1369 149.826 86.7286 150.859 86.7286 152.137C86.7286 153.415 87.1369 154.421 87.6267 154.421C88.1165 154.421 88.5518 153.388 88.5518 152.137C88.5518 150.886 88.1437 149.826 87.6267 149.826Z" fill="#F5AF59"/>
<path d="M90.2393 147.814H85.0146V148.331H90.2393V147.814Z" fill="#F5AF59"/>
<path d="M90.2393 155.947H85.0146V156.464H90.2393V155.947Z" fill="#F5AF59"/>
<path d="M75.7354 147.271H70.5107V157.006H75.7354V147.271Z" fill="#165CA3"/>
<path d="M74.5921 152.137C74.5921 153.742 73.939 155.047 73.1227 155.047C72.3063 155.047 71.6533 153.742 71.6533 152.137C71.6533 150.533 72.3063 149.228 73.1227 149.228C73.939 149.228 74.5921 150.506 74.5921 152.137ZM73.1227 149.826C72.6057 149.826 72.1975 150.859 72.1975 152.137C72.1975 153.415 72.6057 154.421 73.1227 154.421C73.6397 154.421 74.0207 153.388 74.0207 152.137C74.0207 150.886 73.6125 149.826 73.1227 149.826Z" fill="#F5AF59"/>
<path d="M75.7354 147.814H70.5107V148.331H75.7354V147.814Z" fill="#F5AF59"/>
<path d="M75.7354 155.947H70.5107V156.464H75.7354V155.947Z" fill="#F5AF59"/>
<path d="M167.356 152.139C167.786 153.083 168.15 154.055 168.445 155.049C168.399 155.359 168.244 155.643 168.007 155.848C167.769 156.054 167.466 156.166 167.152 156.166C166.838 156.166 166.535 156.054 166.298 155.848C166.06 155.643 165.905 155.359 165.86 155.049C166.154 154.055 166.518 153.083 166.948 152.139C166.523 151.194 166.159 150.222 165.86 149.23C165.905 148.919 166.06 148.636 166.298 148.43C166.535 148.225 166.838 148.112 167.152 148.112C167.466 148.112 167.769 148.225 168.007 148.43C168.244 148.636 168.399 148.919 168.445 149.23C168.145 150.222 167.782 151.194 167.356 152.139ZM168.2 155.049C167.922 154.115 167.567 153.205 167.139 152.33C166.727 153.209 166.381 154.118 166.104 155.049C166.104 155.321 166.104 156.001 167.139 156.001C168.173 156.001 168.2 155.321 168.2 155.049ZM168.2 149.23C168.2 148.931 168.2 148.278 167.139 148.278C166.077 148.278 166.104 148.931 166.104 149.23C166.385 150.159 166.731 151.068 167.139 151.949C167.563 151.072 167.918 150.163 168.2 149.23ZM169.016 151.024V153.227C168.889 152.963 168.707 152.729 168.482 152.541C168.256 152.353 167.993 152.216 167.71 152.139C168.002 152.058 168.274 151.917 168.508 151.725C168.742 151.533 168.934 151.295 169.071 151.024H169.016ZM168.798 151.704C168.586 151.885 168.348 152.031 168.091 152.139C168.341 152.249 168.578 152.385 168.798 152.547V151.704ZM166.594 152.139C166.311 152.216 166.048 152.353 165.822 152.541C165.597 152.729 165.415 152.963 165.288 153.227V151.024C165.419 151.289 165.602 151.524 165.827 151.716C166.051 151.908 166.312 152.052 166.594 152.139ZM165.506 152.547C165.726 152.385 165.963 152.249 166.213 152.139C165.957 152.031 165.718 151.885 165.506 151.704V152.547Z" fill="#F5AF59"/>
<path d="M152.879 152.138C153.309 153.081 153.672 154.054 153.967 155.048C153.967 155.387 153.833 155.712 153.593 155.951C153.353 156.191 153.028 156.326 152.688 156.326C152.349 156.326 152.024 156.191 151.784 155.951C151.544 155.712 151.409 155.387 151.409 155.048C151.704 154.054 152.068 153.081 152.498 152.138C152.072 151.193 151.709 150.221 151.409 149.228C151.409 148.889 151.544 148.564 151.784 148.325C152.024 148.085 152.349 147.95 152.688 147.95C153.028 147.95 153.353 148.085 153.593 148.325C153.833 148.564 153.967 148.889 153.967 149.228C153.668 150.221 153.304 151.193 152.879 152.138ZM153.75 155.048C153.472 154.113 153.117 153.204 152.688 152.328C152.271 153.209 151.917 154.117 151.627 155.048C151.627 155.329 151.739 155.599 151.938 155.798C152.137 155.996 152.407 156.108 152.688 156.108C152.97 156.108 153.24 155.996 153.439 155.798C153.638 155.599 153.75 155.329 153.75 155.048ZM153.75 149.228C153.75 148.929 153.75 148.277 152.688 148.277C151.627 148.277 151.627 148.929 151.627 149.228C151.921 150.157 152.275 151.065 152.688 151.948C153.113 151.07 153.468 150.161 153.75 149.228ZM154.566 151.023V153.226C154.439 152.961 154.257 152.727 154.032 152.539C153.806 152.352 153.543 152.215 153.26 152.138C153.542 152.05 153.803 151.906 154.027 151.715C154.252 151.523 154.435 151.288 154.566 151.023ZM154.348 151.703C154.13 151.889 153.882 152.036 153.614 152.138C153.875 152.241 154.122 152.378 154.348 152.546V151.703ZM152.144 152.138C151.858 152.208 151.591 152.342 151.365 152.531C151.138 152.719 150.958 152.957 150.838 153.226V151.023C150.961 151.293 151.142 151.532 151.368 151.725C151.593 151.917 151.858 152.058 152.144 152.138ZM151.056 152.546C151.276 152.384 151.513 152.247 151.763 152.138C151.506 152.03 151.268 151.883 151.056 151.703V152.546Z" fill="#F5AF59"/>
<path d="M138.293 152.138C138.723 153.081 139.086 154.054 139.381 155.048C139.381 155.387 139.246 155.712 139.007 155.951C138.767 156.191 138.441 156.326 138.102 156.326C137.763 156.326 137.438 156.191 137.198 155.951C136.958 155.712 136.823 155.387 136.823 155.048C137.118 154.054 137.482 153.081 137.912 152.138C137.486 151.193 137.123 150.221 136.823 149.228C136.823 148.889 136.958 148.564 137.198 148.325C137.438 148.085 137.763 147.95 138.102 147.95C138.441 147.95 138.767 148.085 139.007 148.325C139.246 148.564 139.381 148.889 139.381 149.228C139.082 150.221 138.718 151.193 138.293 152.138ZM139.163 155.048C138.874 154.117 138.519 153.209 138.102 152.328C137.685 153.209 137.331 154.117 137.041 155.048C137.041 155.329 137.153 155.599 137.352 155.798C137.551 155.996 137.821 156.108 138.102 156.108C138.384 156.108 138.654 155.996 138.853 155.798C139.052 155.599 139.163 155.329 139.163 155.048ZM139.163 149.228C139.163 148.929 139.163 148.277 138.102 148.277C137.041 148.277 137.041 148.929 137.041 149.228C137.335 150.157 137.689 151.065 138.102 151.948C138.506 151.065 138.851 150.156 139.136 149.228H139.163ZM139.98 151.023V153.226C139.85 152.958 139.664 152.722 139.433 152.535C139.203 152.347 138.935 152.211 138.646 152.138C138.934 152.055 139.201 151.913 139.431 151.721C139.661 151.529 139.847 151.291 139.98 151.023ZM139.735 151.703C139.531 151.894 139.29 152.042 139.027 152.138C139.284 152.235 139.523 152.373 139.735 152.546V151.703ZM137.558 152.138C137.27 152.211 137.001 152.347 136.771 152.535C136.541 152.722 136.354 152.958 136.225 153.226V151.023C136.357 151.291 136.544 151.529 136.774 151.721C137.003 151.913 137.27 152.055 137.558 152.138ZM136.47 152.546C136.686 152.378 136.924 152.241 137.177 152.138C136.917 152.036 136.678 151.888 136.47 151.703V152.546Z" fill="#F5AF59"/>
<path d="M123.872 152.138C124.302 153.081 124.665 154.054 124.96 155.048C124.96 155.387 124.825 155.712 124.586 155.951C124.346 156.191 124.021 156.326 123.681 156.326C123.342 156.326 123.017 156.191 122.777 155.951C122.537 155.712 122.402 155.387 122.402 155.048C122.697 154.054 123.061 153.081 123.491 152.138C123.065 151.193 122.702 150.221 122.402 149.228C122.402 148.889 122.537 148.564 122.777 148.325C123.017 148.085 123.342 147.95 123.681 147.95C124.021 147.95 124.346 148.085 124.586 148.325C124.825 148.564 124.96 148.889 124.96 149.228C124.661 150.221 124.297 151.193 123.872 152.138ZM124.743 155.048C124.453 154.117 124.098 153.209 123.681 152.328C123.252 153.204 122.897 154.113 122.62 155.048C122.62 155.329 122.732 155.599 122.931 155.798C123.13 155.996 123.4 156.108 123.681 156.108C123.963 156.108 124.233 155.996 124.432 155.798C124.631 155.599 124.743 155.329 124.743 155.048ZM124.743 149.228C124.743 148.929 124.743 148.277 123.681 148.277C122.62 148.277 122.62 148.929 122.62 149.228C122.902 150.161 123.257 151.07 123.681 151.948C124.094 151.065 124.449 150.157 124.743 149.228ZM125.559 151.023V153.226C125.429 152.958 125.243 152.722 125.013 152.535C124.782 152.347 124.514 152.211 124.225 152.138C124.508 152.052 124.77 151.908 124.995 151.717C125.22 151.525 125.402 151.289 125.532 151.023H125.559ZM125.314 151.703C125.102 151.883 124.863 152.03 124.606 152.138C124.857 152.247 125.094 152.384 125.314 152.546V151.703ZM123.11 152.138C122.827 152.215 122.563 152.352 122.338 152.539C122.113 152.727 121.93 152.961 121.804 153.226V151.023C121.934 151.288 122.118 151.523 122.342 151.715C122.567 151.906 122.828 152.05 123.11 152.138ZM122.021 152.546C122.247 152.378 122.494 152.241 122.756 152.138C122.488 152.036 122.24 151.889 122.021 151.703V152.546Z" fill="#F5AF59"/>
<path d="M109.695 152.138C110.125 153.081 110.489 154.054 110.783 155.048C110.783 155.387 110.649 155.712 110.409 155.951C110.169 156.191 109.844 156.326 109.504 156.326C109.165 156.326 108.84 156.191 108.6 155.951C108.36 155.712 108.226 155.387 108.226 155.048C108.52 154.054 108.884 153.081 109.314 152.138C108.889 151.193 108.525 150.221 108.226 149.228C108.226 148.889 108.36 148.564 108.6 148.325C108.84 148.085 109.165 147.95 109.504 147.95C109.844 147.95 110.169 148.085 110.409 148.325C110.649 148.564 110.783 148.889 110.783 149.228C110.484 150.221 110.12 151.193 109.695 152.138ZM110.566 155.048C110.288 154.113 109.933 153.204 109.504 152.328C109.087 153.209 108.733 154.117 108.443 155.048C108.443 155.329 108.555 155.599 108.754 155.798C108.953 155.996 109.223 156.108 109.504 156.108C109.786 156.108 110.056 155.996 110.255 155.798C110.454 155.599 110.566 155.329 110.566 155.048ZM110.566 149.228C110.566 148.929 110.566 148.277 109.504 148.277C108.443 148.277 108.443 148.929 108.443 149.228C108.737 150.157 109.092 151.065 109.504 151.948C109.929 151.07 110.284 150.161 110.566 149.228ZM111.382 151.023V153.226C111.255 152.961 111.073 152.727 110.848 152.539C110.622 152.352 110.359 152.215 110.076 152.138C110.358 152.05 110.619 151.906 110.844 151.715C111.068 151.523 111.251 151.288 111.382 151.023ZM111.164 151.703C110.946 151.889 110.698 152.036 110.43 152.138C110.692 152.241 110.939 152.378 111.164 152.546V151.703ZM108.96 152.138C108.672 152.211 108.404 152.347 108.173 152.535C107.943 152.722 107.757 152.958 107.627 153.226V151.023C107.759 151.291 107.946 151.529 108.176 151.721C108.405 151.913 108.673 152.055 108.96 152.138ZM107.872 152.546C108.092 152.384 108.329 152.247 108.579 152.138C108.323 152.03 108.084 151.883 107.872 151.703V152.546Z" fill="#F5AF59"/>
<path d="M94.8367 152.14C95.2666 153.084 95.6302 154.056 95.9251 155.05C95.9309 155.213 95.9006 155.376 95.8364 155.526C95.7722 155.677 95.6756 155.811 95.5536 155.92C95.4315 156.029 95.2869 156.11 95.1301 156.157C94.9733 156.204 94.8081 156.216 94.6462 156.192C94.483 156.215 94.3166 156.203 94.1585 156.157C94.0004 156.11 93.8544 156.03 93.7303 155.921C93.6062 155.813 93.5071 155.679 93.4397 155.528C93.3723 155.378 93.3384 155.215 93.3401 155.05C93.6349 154.056 93.9986 153.084 94.4285 152.14C94.0031 151.195 93.6396 150.223 93.3401 149.23C93.3343 149.063 93.3653 148.897 93.4309 148.743C93.4965 148.59 93.5951 148.452 93.7196 148.341C93.8442 148.229 93.9917 148.146 94.1518 148.098C94.3119 148.05 94.4807 148.037 94.6462 148.061C94.8104 148.037 94.9781 148.049 95.137 148.097C95.2959 148.146 95.442 148.229 95.5645 148.341C95.6871 148.453 95.7831 148.591 95.8455 148.745C95.9078 148.899 95.935 149.065 95.9251 149.23C95.6256 150.223 95.262 151.195 94.8367 152.14ZM95.6802 155.05C95.4034 154.119 95.0577 153.21 94.6462 152.33C94.2173 153.206 93.8624 154.115 93.5849 155.05C93.5794 155.186 93.604 155.321 93.657 155.447C93.71 155.572 93.79 155.684 93.8914 155.775C93.9928 155.866 94.113 155.934 94.2435 155.973C94.3739 156.012 94.5114 156.022 94.6462 156.002C95.5986 155.947 95.5986 155.322 95.5986 155.05H95.6802ZM95.6802 149.23C95.6802 148.931 95.6802 148.279 94.6462 148.279C93.6121 148.279 93.5849 148.931 93.5849 149.23C93.8668 150.163 94.2216 151.073 94.6462 151.95C95.0259 151.066 95.3441 150.158 95.5986 149.23H95.6802ZM96.4965 151.025V153.228C96.3729 152.961 96.1917 152.725 95.9658 152.537C95.7399 152.349 95.4751 152.214 95.1904 152.14C95.4739 152.056 95.7365 151.913 95.9614 151.721C96.1863 151.529 96.3686 151.292 96.4965 151.025ZM96.2789 151.705C96.0667 151.885 95.8281 152.032 95.5713 152.14C95.8216 152.249 96.0589 152.386 96.2789 152.548V151.705ZM94.0747 152.14C93.7916 152.217 93.5283 152.354 93.3029 152.542C93.0775 152.729 92.8952 152.963 92.7686 153.228V151.025C92.8992 151.29 93.0824 151.525 93.3069 151.717C93.5315 151.909 93.7927 152.053 94.0747 152.14ZM92.9863 152.548C93.2121 152.38 93.4591 152.243 93.721 152.14C93.4529 152.038 93.2045 151.891 92.9863 151.705V152.548Z" fill="#F5AF59"/>
<path d="M80.115 152.138C80.5449 153.081 80.9086 154.054 81.2034 155.048C81.2034 155.387 81.0687 155.712 80.8288 155.951C80.589 156.191 80.2637 156.326 79.9245 156.326C79.5853 156.326 79.26 156.191 79.0201 155.951C78.7803 155.712 78.6455 155.387 78.6455 155.048C78.9404 154.054 79.3042 153.081 79.7341 152.138C79.3087 151.193 78.9451 150.221 78.6455 149.228C78.6455 148.889 78.7803 148.564 79.0201 148.325C79.26 148.085 79.5853 147.95 79.9245 147.95C80.2637 147.95 80.589 148.085 80.8288 148.325C81.0687 148.564 81.2034 148.889 81.2034 149.228C80.9039 150.221 80.5403 151.193 80.115 152.138ZM80.9858 155.048C80.6962 154.117 80.3416 153.209 79.9245 152.328C79.4956 153.204 79.1407 154.113 78.8633 155.048C78.8633 155.329 78.9751 155.599 79.1741 155.798C79.3731 155.996 79.643 156.108 79.9245 156.108C80.2059 156.108 80.4759 155.996 80.6749 155.798C80.874 155.599 80.9858 155.329 80.9858 155.048ZM80.9858 149.228C80.9858 148.929 80.9857 148.277 79.9245 148.277C78.8632 148.277 78.8633 148.929 78.8633 149.228C79.1451 150.161 79.4999 151.07 79.9245 151.948C80.3373 151.065 80.6919 150.157 80.9858 149.228ZM81.7749 151.023V153.226C81.6546 152.957 81.4744 152.719 81.248 152.531C81.0216 152.342 80.755 152.208 80.4687 152.138C80.7545 152.058 81.0194 151.917 81.2449 151.725C81.4705 151.532 81.6514 151.293 81.7749 151.023ZM81.5572 151.703C81.345 151.883 81.1064 152.03 80.8497 152.138C81.0999 152.247 81.3373 152.384 81.5572 152.546V151.703ZM79.3531 152.138C79.0699 152.215 78.8067 152.352 78.5813 152.539C78.3559 152.727 78.1736 152.961 78.0469 153.226V151.023C78.2921 151.541 78.7322 151.942 79.2714 152.138H79.3531ZM78.2646 152.546C78.4904 152.378 78.7374 152.241 78.9993 152.138C78.7313 152.036 78.4828 151.889 78.2646 151.703V152.546Z" fill="#F5AF59"/>
<path d="M191.356 173.839H56.333V184.635H191.356V173.839Z" fill="#37857F"/>
<path d="M57.8025 171.064L50.1289 173.865H197.561L189.887 171.064H57.8025Z" fill="#006C62"/>
<path d="M166.812 173.839H161.016V184.635H166.812V173.839Z" fill="#165CA3"/>
<path d="M165.559 179.251C165.559 181.018 164.824 182.459 163.899 182.459C162.974 182.459 162.267 181.018 162.267 179.251C162.267 177.483 163.001 176.015 163.899 176.015C164.797 176.015 165.559 177.456 165.559 179.251ZM163.899 176.694C163.355 176.694 162.892 177.837 162.892 179.251C162.892 180.665 163.355 181.78 163.899 181.78C164.444 181.78 164.906 180.638 164.906 179.251C164.906 177.864 164.471 176.694 163.899 176.694Z" fill="#F5AF59"/>
<path d="M166.812 174.464H161.016V175.035H166.812V174.464Z" fill="#F5AF59"/>
<path d="M166.812 183.467H161.016V184.038H166.812V183.467Z" fill="#F5AF59"/>
<path d="M150.785 173.839H144.989V184.635H150.785V173.839Z" fill="#165CA3"/>
<path d="M149.533 179.251C149.533 181.018 148.798 182.459 147.873 182.459C146.948 182.459 146.24 181.018 146.24 179.251C146.24 177.483 146.975 176.015 147.873 176.015C148.771 176.015 149.533 177.456 149.533 179.251ZM147.873 176.694C147.329 176.694 146.866 177.837 146.866 179.251C146.866 180.665 147.329 181.78 147.873 181.78C148.417 181.78 148.88 180.638 148.88 179.251C148.88 177.864 148.444 176.694 147.873 176.694Z" fill="#F5AF59"/>
<path d="M150.785 174.464H144.989V175.035H150.785V174.464Z" fill="#F5AF59"/>
<path d="M150.785 183.467H144.989V184.038H150.785V183.467Z" fill="#F5AF59"/>
<path d="M182.838 173.839H177.042V184.635H182.838V173.839Z" fill="#165CA3"/>
<path d="M181.558 179.251C181.558 181.018 180.851 182.459 179.926 182.459C179 182.459 178.293 181.018 178.293 179.251C178.293 177.483 179.028 176.015 179.926 176.015C180.824 176.015 181.558 177.456 181.558 179.251ZM179.926 176.694C179.381 176.694 178.919 177.837 178.919 179.251C178.919 180.665 179.381 181.78 179.926 181.78C180.47 181.78 180.932 180.638 180.932 179.251C180.932 177.864 180.497 176.694 179.953 176.694H179.926Z" fill="#F5AF59"/>
<path d="M182.838 174.464H177.042V175.035H182.838V174.464Z" fill="#F5AF59"/>
<path d="M182.838 183.467H177.042V184.038H182.838V183.467Z" fill="#F5AF59"/>
<path d="M134.755 173.839H128.959V184.635H134.755V173.839Z" fill="#165CA3"/>
<path d="M133.504 179.251C133.504 181.018 132.769 182.459 131.844 182.459C130.918 182.459 130.211 181.018 130.211 179.251C130.211 177.483 130.946 176.015 131.844 176.015C132.742 176.015 133.504 177.456 133.504 179.251ZM131.844 176.694C131.299 176.694 130.837 177.837 130.837 179.251C130.837 180.665 131.299 181.78 131.844 181.78C132.388 181.78 132.878 180.638 132.878 179.251C132.878 177.864 132.415 176.694 131.844 176.694Z" fill="#F5AF59"/>
<path d="M134.755 174.464H128.959V175.035H134.755V174.464Z" fill="#F5AF59"/>
<path d="M134.755 183.467H128.959V184.038H134.755V183.467Z" fill="#F5AF59"/>
<path d="M118.729 173.839H112.933V184.635H118.729V173.839Z" fill="#165CA3"/>
<path d="M117.369 179.251C117.369 181.018 116.634 182.459 115.736 182.459C114.838 182.459 114.076 181.018 114.076 179.251C114.076 177.483 114.811 176.015 115.736 176.015C116.661 176.015 117.369 177.456 117.369 179.251ZM115.736 176.694C115.165 176.694 114.729 177.837 114.729 179.251C114.729 180.665 115.165 181.78 115.736 181.78C116.307 181.78 116.743 180.638 116.743 179.251C116.743 177.864 116.389 176.694 115.845 176.694H115.736Z" fill="#F5AF59"/>
<path d="M118.729 174.464H112.933V175.035H118.729V174.464Z" fill="#F5AF59"/>
<path d="M118.729 183.467H112.933V184.038H118.729V183.467Z" fill="#F5AF59"/>
<path d="M102.702 173.839H96.9062V184.635H102.702V173.839Z" fill="#165CA3"/>
<path d="M101.451 179.251C101.451 181.018 100.716 182.459 99.8181 182.459C98.9201 182.459 98.1582 181.018 98.1582 179.251C98.1582 177.483 98.8929 176.015 99.8181 176.015C100.743 176.015 101.451 177.456 101.451 179.251ZM99.8181 176.694C99.2466 176.694 98.8113 177.837 98.8113 179.251C98.8113 180.665 99.2466 181.78 99.8181 181.78C100.39 181.78 100.825 180.638 100.825 179.251C100.825 177.864 100.362 176.694 99.8181 176.694Z" fill="#F5AF59"/>
<path d="M102.702 174.464H96.9062V175.035H102.702V174.464Z" fill="#F5AF59"/>
<path d="M102.702 183.467H96.9062V184.038H102.702V183.467Z" fill="#F5AF59"/>
<path d="M86.6457 173.839H80.8496V184.635H86.6457V173.839Z" fill="#165CA3"/>
<path d="M85.3941 179.251C85.3941 181.018 84.6595 182.459 83.7343 182.459C82.8091 182.459 82.1016 181.018 82.1016 179.251C82.1016 177.483 82.8363 176.015 83.7343 176.015C84.6322 176.015 85.3941 177.456 85.3941 179.251ZM83.7343 176.694C83.19 176.694 82.7274 177.837 82.7274 179.251C82.7274 180.665 83.19 181.78 83.7343 181.78C84.2785 181.78 84.7411 180.638 84.7411 179.251C84.7411 177.864 84.3057 176.694 83.7343 176.694Z" fill="#F5AF59"/>
<path d="M86.6457 174.464H80.8496V175.035H86.6457V174.464Z" fill="#F5AF59"/>
<path d="M86.6457 183.467H80.8496V184.038H86.6457V183.467Z" fill="#F5AF59"/>
<path d="M70.591 173.839H64.7949V184.635H70.591V173.839Z" fill="#165CA3"/>
<path d="M69.3112 179.251C69.3112 181.018 68.5765 182.459 67.6785 182.459C66.7805 182.459 66.0459 181.018 66.0459 179.251C66.0459 177.483 66.7805 176.015 67.6785 176.015C68.5765 176.015 69.3112 177.456 69.3112 179.251ZM67.6785 176.694C67.1343 176.694 66.6717 177.837 66.6717 179.251C66.6717 180.665 67.1343 181.78 67.6785 181.78C68.2227 181.78 68.6853 180.638 68.6853 179.251C68.6853 177.864 68.386 176.694 67.6785 176.694Z" fill="#F5AF59"/>
<path d="M70.591 174.464H64.7949V175.035H70.591V174.464Z" fill="#F5AF59"/>
<path d="M70.591 183.467H64.7949V184.038H70.591V183.467Z" fill="#F5AF59"/>
<path d="M172.008 179.252C172.479 180.293 172.879 181.365 173.206 182.461C173.121 182.756 172.943 183.016 172.697 183.201C172.452 183.386 172.153 183.486 171.845 183.486C171.538 183.486 171.239 183.386 170.993 183.201C170.748 183.016 170.569 182.756 170.485 182.461C170.811 181.365 171.211 180.293 171.682 179.252C171.207 178.203 170.807 177.121 170.485 176.016C170.569 175.72 170.748 175.46 170.993 175.275C171.239 175.09 171.538 174.99 171.845 174.99C172.153 174.99 172.452 175.09 172.697 175.275C172.943 175.46 173.121 175.72 173.206 176.016C172.883 177.121 172.483 178.203 172.008 179.252ZM172.961 182.461C172.646 181.401 172.255 180.365 171.791 179.361C171.327 180.365 170.936 181.401 170.621 182.461C170.621 182.787 170.621 183.521 171.791 183.521C172.961 183.521 172.961 182.787 172.961 182.461ZM172.961 176.016C172.961 175.717 172.961 174.982 171.791 174.982C170.621 174.982 170.621 175.717 170.621 176.016C170.936 177.076 171.327 178.112 171.791 179.116C172.255 178.112 172.646 177.076 172.961 176.016ZM173.859 178.028V180.421C173.72 180.129 173.519 179.871 173.27 179.664C173.021 179.458 172.729 179.308 172.417 179.225C172.726 179.134 173.013 178.981 173.261 178.775C173.509 178.569 173.713 178.315 173.859 178.028ZM173.614 178.789C173.367 178.969 173.103 179.124 172.825 179.252C173.108 179.369 173.374 179.524 173.614 179.714V178.789ZM171.192 179.252C170.876 179.335 170.581 179.484 170.327 179.691C170.074 179.897 169.868 180.155 169.723 180.448V178.028C169.872 178.321 170.079 178.581 170.331 178.791C170.584 179.001 170.877 179.158 171.192 179.252ZM169.968 179.714C170.208 179.524 170.474 179.369 170.757 179.252C170.479 179.124 170.215 178.969 169.968 178.789V179.714Z" fill="#F5AF59"/>
<path d="M187.22 179.249C187.701 180.29 188.11 181.362 188.445 182.458C188.397 182.803 188.226 183.119 187.964 183.347C187.701 183.576 187.365 183.702 187.016 183.702C186.668 183.702 186.332 183.576 186.069 183.347C185.806 183.119 185.635 182.803 185.588 182.458C185.922 181.362 186.331 180.29 186.812 179.249C186.327 178.201 185.918 177.12 185.588 176.013C185.635 175.669 185.806 175.353 186.069 175.124C186.332 174.895 186.668 174.77 187.016 174.77C187.365 174.77 187.701 174.895 187.964 175.124C188.226 175.353 188.397 175.669 188.445 176.013C188.114 177.12 187.705 178.201 187.22 179.249ZM188.2 182.458C187.885 181.398 187.494 180.362 187.03 179.358C186.554 180.357 186.162 181.394 185.86 182.458C185.86 182.784 185.86 183.519 187.03 183.519C187.173 183.526 187.315 183.504 187.449 183.454C187.583 183.404 187.704 183.326 187.807 183.227C187.909 183.127 187.989 183.007 188.043 182.875C188.097 182.743 188.122 182.601 188.118 182.458H188.2ZM188.2 176.013C188.206 175.864 188.179 175.715 188.12 175.578C188.061 175.44 187.973 175.318 187.861 175.219C187.749 175.12 187.616 175.047 187.472 175.006C187.329 174.964 187.177 174.956 187.03 174.98C185.969 174.98 185.86 175.714 185.86 176.013C186.162 177.078 186.554 178.115 187.03 179.113C187.466 178.107 187.83 177.071 188.118 176.013H188.2ZM189.098 178.026V180.419C188.953 180.126 188.747 179.867 188.493 179.661C188.24 179.455 187.945 179.305 187.629 179.222C187.941 179.132 188.233 178.979 188.485 178.773C188.738 178.568 188.946 178.314 189.098 178.026ZM188.826 178.787C188.586 178.978 188.321 179.134 188.037 179.249C188.326 179.354 188.593 179.51 188.826 179.712V178.787ZM186.404 179.249C186.088 179.332 185.793 179.482 185.539 179.688C185.286 179.895 185.08 180.153 184.935 180.446V178.026C185.084 178.319 185.291 178.578 185.543 178.789C185.796 178.999 186.089 179.156 186.404 179.249ZM185.207 179.712C185.439 179.51 185.707 179.354 185.996 179.249C185.712 179.134 185.446 178.978 185.207 178.787V179.712Z" fill="#F5AF59"/>
<path d="M156.009 179.252C156.48 180.293 156.88 181.365 157.207 182.461C157.122 182.756 156.944 183.016 156.698 183.201C156.453 183.386 156.154 183.486 155.846 183.486C155.539 183.486 155.24 183.386 154.994 183.201C154.749 183.016 154.57 182.756 154.486 182.461C154.812 181.365 155.212 180.293 155.683 179.252C155.208 178.203 154.808 177.121 154.486 176.016C154.57 175.72 154.749 175.46 154.994 175.275C155.24 175.09 155.539 174.99 155.846 174.99C156.154 174.99 156.453 175.09 156.698 175.275C156.944 175.46 157.122 175.72 157.207 176.016C156.884 177.121 156.484 178.203 156.009 179.252ZM156.962 182.461C156.647 181.401 156.256 180.365 155.792 179.361C155.328 180.365 154.937 181.401 154.622 182.461C154.622 182.787 154.622 183.521 155.792 183.521C156.962 183.521 156.962 182.787 156.962 182.461ZM156.962 176.016C156.962 175.717 156.962 174.982 155.792 174.982C154.622 174.982 154.622 175.717 154.622 176.016C154.937 177.076 155.328 178.112 155.792 179.116C156.256 178.112 156.647 177.076 156.962 176.016ZM157.86 178.028V180.421C157.716 180.132 157.514 179.876 157.265 179.67C157.017 179.464 156.728 179.312 156.418 179.225C156.725 179.13 157.01 178.975 157.258 178.77C157.505 178.564 157.71 178.312 157.86 178.028ZM157.615 178.789C157.368 178.969 157.104 179.124 156.826 179.252C157.109 179.369 157.374 179.524 157.615 179.714V178.789ZM155.193 179.252C154.877 179.335 154.582 179.484 154.328 179.691C154.075 179.897 153.869 180.155 153.724 180.448V178.028C153.873 178.321 154.08 178.581 154.332 178.791C154.585 179.001 154.878 179.158 155.193 179.252ZM153.969 179.714C154.209 179.524 154.475 179.369 154.758 179.252C154.48 179.124 154.216 178.969 153.969 178.789V179.714Z" fill="#F5AF59"/>
<path d="M139.844 179.252C140.315 180.293 140.715 181.365 141.042 182.461C140.957 182.756 140.779 183.016 140.533 183.201C140.288 183.386 139.989 183.486 139.681 183.486C139.374 183.486 139.074 183.386 138.829 183.201C138.583 183.016 138.405 182.756 138.321 182.461C138.647 181.365 139.047 180.293 139.518 179.252C139.043 178.203 138.643 177.121 138.321 176.016C138.405 175.72 138.583 175.46 138.829 175.275C139.074 175.09 139.374 174.99 139.681 174.99C139.989 174.99 140.288 175.09 140.533 175.275C140.779 175.46 140.957 175.72 141.042 176.016C140.719 177.121 140.319 178.203 139.844 179.252ZM140.797 182.461C140.481 181.401 140.09 180.365 139.627 179.361C139.163 180.365 138.772 181.401 138.457 182.461C138.457 182.787 138.457 183.521 139.627 183.521C140.797 183.521 140.797 182.787 140.797 182.461ZM140.797 176.016C140.797 175.717 140.797 174.982 139.627 174.982C138.457 174.982 138.457 175.717 138.457 176.016C138.772 177.076 139.163 178.112 139.627 179.116C140.09 178.112 140.481 177.076 140.797 176.016ZM141.695 178.028V180.421C141.556 180.129 141.354 179.871 141.105 179.664C140.856 179.458 140.565 179.308 140.253 179.225C140.562 179.134 140.849 178.981 141.097 178.775C141.345 178.569 141.548 178.315 141.695 178.028ZM141.45 178.789C141.207 178.975 140.942 179.13 140.661 179.252C140.947 179.363 141.213 179.519 141.45 179.714V178.789ZM139.028 179.252C138.712 179.335 138.417 179.484 138.163 179.691C137.91 179.897 137.704 180.155 137.559 180.448V178.028C137.719 178.332 137.943 178.599 138.216 178.81C138.488 179.021 138.802 179.172 139.137 179.252H139.028ZM137.803 179.714C138.05 179.518 138.325 179.362 138.62 179.252C138.33 179.13 138.056 178.975 137.803 178.789V179.714Z" fill="#F5AF59"/>
<path d="M123.871 179.252C124.341 180.293 124.741 181.365 125.068 182.461C124.984 182.756 124.805 183.016 124.56 183.201C124.314 183.386 124.015 183.486 123.707 183.486C123.4 183.486 123.101 183.386 122.855 183.201C122.61 183.016 122.431 182.756 122.347 182.461C122.674 181.365 123.074 180.293 123.544 179.252C123.069 178.203 122.669 177.121 122.347 176.016C122.431 175.72 122.61 175.46 122.855 175.275C123.101 175.09 123.4 174.99 123.707 174.99C124.015 174.99 124.314 175.09 124.56 175.275C124.805 175.46 124.984 175.72 125.068 176.016C124.746 177.121 124.346 178.203 123.871 179.252ZM124.823 182.461C124.508 181.401 124.117 180.365 123.653 179.361C123.189 180.365 122.798 181.401 122.483 182.461C122.483 182.787 122.483 183.521 123.653 183.521C124.823 183.521 124.823 182.787 124.823 182.461ZM124.823 176.016C124.823 175.717 124.823 174.982 123.653 174.982C122.483 174.982 122.483 175.717 122.483 176.016C122.798 177.076 123.189 178.112 123.653 179.116C124.117 178.112 124.508 177.076 124.823 176.016ZM125.721 178.028V180.421C125.578 180.132 125.375 179.876 125.127 179.67C124.878 179.464 124.59 179.312 124.279 179.225C124.586 179.13 124.872 178.975 125.119 178.77C125.367 178.564 125.571 178.312 125.721 178.028ZM125.476 178.789C125.229 178.969 124.965 179.124 124.687 179.252C124.97 179.369 125.236 179.524 125.476 179.714V178.789ZM123.054 179.252C122.738 179.335 122.443 179.484 122.19 179.691C121.936 179.897 121.73 180.155 121.585 180.448V178.028C121.734 178.321 121.941 178.581 122.194 178.791C122.446 179.001 122.739 179.158 123.054 179.252ZM121.83 179.714C122.07 179.524 122.336 179.369 122.619 179.252C122.341 179.124 122.077 178.969 121.83 178.789V179.714Z" fill="#F5AF59"/>
<path d="M108.198 179.249C108.668 180.291 109.068 181.363 109.395 182.458C109.347 182.803 109.176 183.119 108.914 183.347C108.651 183.576 108.315 183.702 107.967 183.702C107.618 183.702 107.282 183.576 107.019 183.347C106.757 183.119 106.586 182.803 106.538 182.458C106.873 181.362 107.282 180.29 107.762 179.249C107.278 178.201 106.868 177.12 106.538 176.013C106.586 175.669 106.757 175.353 107.019 175.124C107.282 174.895 107.618 174.77 107.967 174.77C108.315 174.77 108.651 174.895 108.914 175.124C109.176 175.353 109.347 175.669 109.395 176.013C109.073 177.119 108.673 178.2 108.198 179.249ZM109.15 182.458C108.835 181.398 108.444 180.362 107.98 179.358C107.516 180.362 107.125 181.398 106.81 182.458C106.81 182.784 106.81 183.519 107.98 183.519C109.15 183.519 109.205 182.784 109.205 182.458H109.15ZM109.15 176.013C109.15 175.714 109.15 174.98 107.98 174.98C106.81 174.98 106.81 175.714 106.81 176.013C107.125 177.073 107.516 178.109 107.98 179.113C108.462 178.111 108.872 177.075 109.205 176.013H109.15ZM110.048 178.026V180.419C109.903 180.126 109.697 179.867 109.444 179.661C109.19 179.455 108.895 179.305 108.579 179.222C108.892 179.132 109.183 178.979 109.436 178.773C109.688 178.568 109.896 178.314 110.048 178.026ZM109.803 178.787C109.55 178.973 109.276 179.128 108.987 179.249C109.282 179.36 109.557 179.516 109.803 179.712V178.787ZM107.354 179.249C107.041 179.332 106.75 179.482 106.501 179.689C106.252 179.895 106.051 180.154 105.912 180.446V178.026C106.055 178.318 106.257 178.577 106.506 178.788C106.754 178.998 107.043 179.155 107.354 179.249ZM106.157 179.712C106.393 179.516 106.66 179.36 106.946 179.249C106.665 179.128 106.4 178.973 106.157 178.787V179.712Z" fill="#F5AF59"/>
<path d="M91.7086 179.251C92.1894 180.291 92.5984 181.363 92.9331 182.459C92.834 182.741 92.65 182.985 92.4062 183.157C92.1625 183.33 91.8712 183.423 91.5725 183.423C91.2738 183.423 90.9825 183.33 90.7388 183.157C90.4951 182.985 90.311 182.741 90.2119 182.459C90.5466 181.363 90.9557 180.291 91.4365 179.251C90.9517 178.202 90.5424 177.121 90.2119 176.015C90.311 175.733 90.4951 175.489 90.7388 175.317C90.9825 175.144 91.2738 175.051 91.5725 175.051C91.8712 175.051 92.1625 175.144 92.4062 175.317C92.65 175.489 92.834 175.733 92.9331 176.015C92.6026 177.121 92.1934 178.202 91.7086 179.251ZM92.661 182.459C92.3586 181.395 91.9671 180.358 91.4909 179.359C91.027 180.363 90.636 181.399 90.3208 182.459C90.3155 182.61 90.3431 182.759 90.4016 182.898C90.4601 183.036 90.5481 183.16 90.6595 183.261C90.7709 183.362 90.903 183.438 91.0466 183.482C91.1902 183.527 91.3418 183.54 91.4909 183.52C92.5521 183.52 92.661 182.786 92.661 182.459ZM92.661 176.015C92.661 175.715 92.661 174.981 91.4909 174.981C91.3433 174.957 91.1923 174.966 91.0486 175.007C90.9049 175.048 90.7722 175.121 90.6601 175.22C90.5481 175.319 90.4595 175.442 90.4008 175.579C90.3421 175.716 90.3148 175.865 90.3208 176.015C90.636 177.075 91.027 178.111 91.4909 179.115C91.9671 178.116 92.3586 177.079 92.661 176.015ZM93.5862 178.027V180.42C93.4412 180.127 93.2349 179.869 92.9814 179.662C92.7279 179.456 92.4331 179.306 92.1168 179.223C92.4296 179.133 92.721 178.98 92.9734 178.775C93.2259 178.569 93.4344 178.315 93.5862 178.027ZM93.3141 178.788C93.0747 178.98 92.8089 179.135 92.5249 179.251C92.8141 179.355 93.0817 179.512 93.3141 179.713V178.788ZM90.8922 179.251C90.5759 179.333 90.2811 179.483 90.0276 179.689C89.7741 179.896 89.5679 180.154 89.4229 180.447V178.027C89.5718 178.32 89.7789 178.579 90.0316 178.79C90.2842 179 90.577 179.157 90.8922 179.251ZM89.6949 179.713C89.9273 179.512 90.1948 179.355 90.4841 179.251C90.2001 179.135 89.9343 178.98 89.6949 178.788V179.713Z" fill="#F5AF59"/>
<path d="M75.4352 179.251C75.9057 180.292 76.3057 181.364 76.6325 182.459C76.5334 182.741 76.3493 182.985 76.1056 183.157C75.8619 183.33 75.5706 183.423 75.2719 183.423C74.9732 183.423 74.682 183.33 74.4382 183.157C74.1945 182.985 74.0104 182.741 73.9113 182.459C74.246 181.363 74.6551 180.291 75.1359 179.251C74.6511 178.202 74.2418 177.121 73.9113 176.015C74.0104 175.733 74.1945 175.489 74.4382 175.317C74.682 175.144 74.9732 175.051 75.2719 175.051C75.5706 175.051 75.8619 175.144 76.1056 175.317C76.3493 175.489 76.5334 175.733 76.6325 176.015C76.3101 177.12 75.9099 178.201 75.4352 179.251ZM76.3876 182.459C76.0724 181.399 75.6813 180.363 75.2175 179.359C74.7537 180.363 74.3626 181.399 74.0474 182.459C74.0474 182.786 74.0474 183.52 75.2175 183.52C75.3666 183.54 75.5182 183.527 75.6618 183.482C75.8054 183.438 75.9375 183.362 76.0489 183.261C76.1603 183.16 76.2483 183.036 76.3068 182.898C76.3653 182.759 76.3929 182.61 76.3876 182.459ZM76.3876 176.015C76.3936 175.865 76.3663 175.716 76.3076 175.579C76.2489 175.442 76.1603 175.319 76.0483 175.22C75.9362 175.121 75.8035 175.048 75.6598 175.007C75.5161 174.966 75.365 174.957 75.2175 174.981C74.1563 174.981 74.0474 175.715 74.0474 176.015C74.3626 177.075 74.7537 178.111 75.2175 179.115C75.6813 178.111 76.0724 177.075 76.3876 176.015ZM77.2855 178.027V180.42C77.1405 180.127 76.9343 179.869 76.6808 179.662C76.4273 179.456 76.1325 179.306 75.8162 179.223C76.129 179.133 76.4204 178.98 76.6728 178.775C76.9253 178.569 77.1337 178.315 77.2855 178.027ZM77.0406 178.788C76.7877 178.974 76.5138 179.129 76.2243 179.251C76.5189 179.361 76.7943 179.517 77.0406 179.713V178.788ZM74.5916 179.251C74.2788 179.334 73.9877 179.484 73.7387 179.69C73.4896 179.897 73.2886 180.155 73.1494 180.447V178.027C73.2927 178.319 73.4947 178.578 73.7428 178.789C73.991 178.999 74.28 179.157 74.5916 179.251ZM73.3943 179.713C73.6308 179.517 73.8973 179.361 74.1835 179.251C73.9026 179.129 73.6375 178.974 73.3943 178.788V179.713Z" fill="#F5AF59"/>
<path d="M60.6315 179.252C61.102 180.293 61.502 181.365 61.8288 182.461C61.7443 182.756 61.5659 183.016 61.3204 183.201C61.0749 183.386 60.7757 183.486 60.4682 183.486C60.1607 183.486 59.8616 183.386 59.6161 183.201C59.3706 183.016 59.1921 182.756 59.1076 182.461C59.4344 181.365 59.8344 180.293 60.3049 179.252C59.8302 178.203 59.43 177.121 59.1076 176.016C59.1921 175.72 59.3706 175.46 59.6161 175.275C59.8616 175.09 60.1607 174.99 60.4682 174.99C60.7757 174.99 61.0749 175.09 61.3204 175.275C61.5659 175.46 61.7443 175.72 61.8288 176.016C61.5063 177.121 61.1062 178.203 60.6315 179.252ZM61.5839 182.461C61.2686 181.401 60.8776 180.365 60.4138 179.361C59.95 180.365 59.559 181.401 59.2437 182.461C59.2437 182.787 59.2437 183.521 60.4138 183.521C61.5839 183.521 61.5839 182.787 61.5839 182.461ZM61.5839 176.016C61.5839 175.717 61.5839 174.982 60.4138 174.982C59.2437 174.982 59.2437 175.717 59.2437 176.016C59.559 177.076 59.95 178.112 60.4138 179.116C60.8776 178.112 61.2686 177.076 61.5839 176.016ZM62.4818 178.028V180.421C62.3426 180.129 62.1416 179.871 61.8925 179.664C61.6435 179.458 61.3525 179.308 61.0396 179.225C61.3488 179.134 61.6363 178.981 61.8843 178.775C62.1323 178.569 62.3356 178.315 62.4818 178.028ZM62.2369 178.789C61.9937 178.975 61.7288 179.13 61.4479 179.252C61.734 179.363 62.0004 179.519 62.2369 179.714V178.789ZM59.8151 179.252C59.4988 179.335 59.204 179.484 58.9505 179.691C58.697 179.897 58.4907 180.155 58.3457 180.448V178.028C58.4947 178.321 58.7018 178.581 58.9544 178.791C59.207 179.001 59.4999 179.158 59.8151 179.252ZM58.5906 179.714C58.837 179.518 59.1124 179.362 59.407 179.252C59.1176 179.13 58.8435 178.975 58.5906 178.789V179.714Z" fill="#F5AF59"/>
<path d="M111.926 115.508C112.291 116.329 112.601 117.174 112.851 118.037C112.856 118.177 112.831 118.316 112.777 118.445C112.722 118.573 112.64 118.688 112.536 118.782C112.433 118.875 112.309 118.945 112.176 118.985C112.042 119.026 111.901 119.036 111.763 119.016C111.623 119.036 111.481 119.025 111.346 118.985C111.211 118.944 111.086 118.875 110.98 118.782C110.874 118.689 110.79 118.575 110.732 118.446C110.675 118.318 110.646 118.178 110.647 118.037C110.897 117.174 111.207 116.329 111.572 115.508C111.211 114.695 110.902 113.859 110.647 113.006C110.642 112.863 110.668 112.721 110.723 112.589C110.779 112.457 110.863 112.339 110.97 112.243C111.076 112.147 111.202 112.076 111.339 112.034C111.476 111.992 111.621 111.98 111.763 112C111.903 111.98 112.047 111.991 112.183 112.033C112.318 112.075 112.443 112.147 112.548 112.243C112.652 112.34 112.733 112.458 112.786 112.591C112.838 112.723 112.861 112.865 112.851 113.006C112.596 113.859 112.287 114.695 111.926 115.508ZM112.661 118.037C112.426 117.208 112.125 116.399 111.763 115.617C111.382 116.394 111.072 117.204 110.837 118.037C110.837 118.282 110.837 118.853 111.763 118.853C112.688 118.853 112.715 118.282 112.715 118.037H112.661ZM112.661 113.006C112.67 112.889 112.653 112.77 112.61 112.66C112.567 112.55 112.5 112.45 112.414 112.369C112.328 112.289 112.225 112.228 112.112 112.192C111.999 112.157 111.88 112.147 111.763 112.163C110.919 112.163 110.837 112.735 110.837 113.006C111.082 113.836 111.391 114.646 111.763 115.427C112.135 114.643 112.453 113.834 112.715 113.006H112.661ZM113.368 114.556V116.46C113.224 116.495 113.074 116.496 112.929 116.465C112.785 116.433 112.649 116.369 112.533 116.277C112.416 116.186 112.322 116.069 112.257 115.936C112.193 115.802 112.159 115.656 112.159 115.508C112.159 115.36 112.193 115.214 112.257 115.081C112.322 114.948 112.416 114.831 112.533 114.739C112.649 114.648 112.785 114.584 112.929 114.552C113.074 114.52 113.224 114.522 113.368 114.556ZM113.178 115.155C112.985 115.3 112.775 115.419 112.552 115.508C112.775 115.598 112.985 115.717 113.178 115.862V115.155ZM111.273 115.508C111.025 115.576 110.795 115.696 110.598 115.86C110.401 116.024 110.241 116.229 110.13 116.46V114.556C110.247 114.793 110.415 115.002 110.622 115.166C110.829 115.331 111.07 115.448 111.327 115.508H111.273ZM110.32 115.862C110.512 115.717 110.723 115.598 110.946 115.508C110.723 115.419 110.512 115.3 110.32 115.155V115.862Z" fill="#F5AF59"/>
<path d="M99.2736 115.509C99.6495 116.329 99.9677 117.174 100.226 118.038C100.226 118.334 100.108 118.618 99.8993 118.827C99.69 119.036 99.4062 119.153 99.1103 119.153C98.8145 119.153 98.5307 119.036 98.3214 118.827C98.1122 118.618 97.9947 118.334 97.9947 118.038C98.253 117.174 98.5712 116.329 98.9471 115.509C98.5753 114.697 98.2571 113.861 97.9947 113.008C97.9947 112.712 98.1122 112.428 98.3214 112.219C98.5307 112.01 98.8145 111.893 99.1103 111.893C99.4062 111.893 99.69 112.01 99.8993 112.219C100.108 112.428 100.226 112.712 100.226 113.008C99.9636 113.861 99.6454 114.697 99.2736 115.509ZM100.036 118.038C99.7877 117.21 99.4785 116.401 99.1103 115.618C98.7475 116.4 98.4472 117.209 98.2123 118.038C98.2123 118.283 98.2124 118.854 99.1103 118.854C100.008 118.854 100.036 118.283 100.036 118.038ZM100.036 113.008C100.041 112.888 100.019 112.769 99.9735 112.659C99.9276 112.549 99.8582 112.45 99.77 112.37C99.6817 112.29 99.5769 112.23 99.4629 112.194C99.349 112.159 99.2286 112.148 99.1103 112.164C98.9932 112.148 98.8739 112.158 98.7611 112.193C98.6483 112.229 98.5449 112.29 98.4587 112.37C98.3725 112.451 98.3056 112.551 98.263 112.661C98.2203 112.771 98.203 112.89 98.2123 113.008C98.4565 113.834 98.7566 114.642 99.1103 115.428C99.4694 114.641 99.7784 113.833 100.036 113.008ZM100.743 114.558V116.461C100.599 116.496 100.449 116.497 100.304 116.466C100.16 116.434 100.024 116.37 99.9075 116.278C99.7911 116.187 99.697 116.07 99.6324 115.937C99.5677 115.803 99.5341 115.657 99.5341 115.509C99.5341 115.361 99.5677 115.215 99.6324 115.082C99.697 114.949 99.7911 114.832 99.9075 114.74C100.024 114.649 100.16 114.585 100.304 114.553C100.449 114.521 100.599 114.523 100.743 114.558ZM100.525 115.156C100.342 115.299 100.141 115.418 99.9267 115.509C100.141 115.601 100.342 115.72 100.525 115.863V115.156ZM98.6477 115.509C98.4002 115.577 98.1702 115.697 97.9731 115.861C97.7759 116.026 97.6163 116.23 97.5049 116.461V114.558C97.6163 114.789 97.7759 114.993 97.9731 115.157C98.1702 115.321 98.4002 115.441 98.6477 115.509ZM97.6953 115.863C97.8845 115.713 98.0956 115.594 98.3212 115.509C98.0956 115.424 97.8845 115.305 97.6953 115.156V115.863Z" fill="#F5AF59"/>
<path d="M87.7902 115.508C88.1661 116.328 88.4843 117.173 88.7426 118.037C88.744 118.178 88.7149 118.318 88.6574 118.446C88.5999 118.575 88.5153 118.689 88.4094 118.782C88.3035 118.875 88.1788 118.944 88.0437 118.985C87.9087 119.025 87.7665 119.036 87.627 119.016C87.4886 119.036 87.3476 119.026 87.2138 118.985C87.0801 118.945 86.9569 118.875 86.853 118.782C86.7491 118.688 86.6671 118.573 86.6127 118.445C86.5584 118.316 86.5331 118.177 86.5385 118.037C86.789 117.174 87.0981 116.329 87.4637 115.508C87.1021 114.695 86.7931 113.859 86.5385 113.006C86.5289 112.865 86.5511 112.723 86.6036 112.591C86.6561 112.458 86.7376 112.34 86.8419 112.243C86.9463 112.147 87.071 112.075 87.2068 112.033C87.3427 111.991 87.4863 111.98 87.627 112C87.7689 111.98 87.9134 111.992 88.0504 112.034C88.1874 112.076 88.3136 112.147 88.42 112.243C88.5264 112.339 88.6104 112.457 88.6661 112.589C88.7219 112.721 88.748 112.863 88.7426 113.006C88.4802 113.86 88.162 114.696 87.7902 115.508ZM88.5521 118.037C88.3043 117.209 87.9951 116.4 87.627 115.617C87.2641 116.399 86.9638 117.208 86.7289 118.037C86.7289 118.282 86.729 118.853 87.627 118.853C88.5249 118.853 88.5521 118.282 88.5521 118.037ZM88.5521 113.006C88.5521 112.735 88.5521 112.163 87.627 112.163C87.5098 112.147 87.3905 112.157 87.2777 112.192C87.1649 112.228 87.0615 112.289 86.9753 112.369C86.8891 112.45 86.8222 112.55 86.7796 112.66C86.7369 112.77 86.7196 112.889 86.7289 113.006C86.9731 113.833 87.2732 114.641 87.627 115.427C87.986 114.64 88.295 113.832 88.5521 113.006ZM89.2597 114.556V116.46C89.1156 116.495 88.9656 116.496 88.8209 116.465C88.6761 116.433 88.5405 116.369 88.4241 116.277C88.3077 116.186 88.2136 116.069 88.149 115.936C88.0843 115.802 88.0507 115.656 88.0507 115.508C88.0507 115.36 88.0843 115.214 88.149 115.081C88.2136 114.948 88.3077 114.831 88.4241 114.739C88.5405 114.648 88.6761 114.584 88.8209 114.552C88.9656 114.52 89.1156 114.522 89.2597 114.556ZM89.0692 115.155C88.8771 115.3 88.6666 115.419 88.4433 115.508C88.6666 115.598 88.8771 115.717 89.0692 115.862V115.155ZM87.1643 115.508C86.9168 115.576 86.6868 115.696 86.4897 115.86C86.2925 116.024 86.1329 116.229 86.0215 116.46V114.556C86.1329 114.788 86.2925 114.992 86.4897 115.156C86.6868 115.32 86.9168 115.44 87.1643 115.508ZM86.2119 115.862C86.404 115.717 86.6144 115.598 86.8378 115.508C86.6144 115.419 86.404 115.3 86.2119 115.155V115.862Z" fill="#F5AF59"/>
<path d="M200.199 167.965C197.016 166.687 182.403 160.977 182.403 160.977H64.9312C64.9312 160.977 50.3186 166.687 47.1349 167.965C44.5498 168.999 43.4885 171.065 46.9716 171.065H200.363C203.873 171.065 202.784 168.999 200.199 167.965Z" fill="#15416E"/>
<path d="M109.07 184.634H104.308V210.522H109.07V184.634Z" fill="#780000"/>
<path d="M108.362 184.634H104.987V210.522H108.362V184.634Z" fill="#A22012"/>
<path d="M138.295 210.521H143.057V184.633H138.295V210.521Z" fill="#780000"/>
<path d="M139.002 210.521H142.376V184.633H139.002V210.521Z" fill="#A22012"/>
<path d="M138.293 184.634H109.068V210.522H138.293V184.634Z" fill="#920000"/>
<path d="M128.96 194.044H118.402V210.523H128.96V194.044Z" fill="#3D464D"/>
<path d="M127.519 187.081H119.818V191.894H127.519V187.081Z" fill="#780000"/>
<path d="M122.403 187.652H120.417V188.903H119.818V187.081H122.54L122.403 187.652ZM124.934 187.652H126.948V188.903H127.519V187.081H124.798L124.934 187.652ZM122.403 191.323H120.417V190.1H119.818V191.894H122.54L122.403 191.323ZM124.934 191.894H127.655V190.1H127.084V191.296H125.07L124.934 191.894Z" fill="#F5AF59"/>
<path d="M137.34 187.081H129.64V191.894H137.34V187.081Z" fill="#780000"/>
<path d="M132.225 187.652H130.211V188.903H129.64V187.081H132.225V187.652ZM134.755 187.652H136.769V188.903H137.34V187.081H134.755V187.652ZM132.225 191.323H130.211V190.1H129.64V191.894H132.225V191.323ZM134.755 191.894H137.34V190.1H136.769V191.296H134.755V191.894Z" fill="#F5AF59"/>
<path d="M110.021 191.896H117.722V187.082H110.021V191.896Z" fill="#780000"/>
<path d="M115.109 187.081H117.83V188.903H117.231V187.652H115.218L115.109 187.081ZM112.578 187.081H109.993V188.903H110.592V187.652H112.578V187.081ZM115.109 191.894H117.83V190.1H117.231V191.296H115.218L115.109 191.894ZM112.578 191.323H110.592V190.1H109.993V191.894H112.578V191.323Z" fill="#F5AF59"/>
<path d="M135.927 209.435V194.044H131.11V209.435H135.927Z" fill="#780000"/>
<path d="M135.327 196.737V194.752H134.103V194.018H135.899V196.737H135.327ZM135.327 206.962V208.947H134.103V209.545H135.899V206.962H135.327ZM131.654 196.737V194.752H132.906V194.018H130.974V196.737H131.654ZM131.083 206.962V209.545H132.906V208.947H131.654V206.962H131.083Z" fill="#F5AF59"/>
<path d="M135.897 198.34H135.326V205.138H135.897V198.34Z" fill="#F5AF59"/>
<path d="M131.083 205.138H131.654V198.339H131.083V205.138Z" fill="#F5AF59"/>
<path d="M116.278 209.435V194.044H111.462V209.435H116.278Z" fill="#780000"/>
<path d="M111.437 196.737V194.018H113.26V194.616H111.926V196.737H111.437ZM111.437 206.962V209.545H113.26V208.947H111.926V206.962H111.437ZM116.28 196.737V194.018H114.457V194.616H115.682V196.737H116.28ZM115.682 206.962V208.947H114.457V209.545H116.28V206.962H115.682Z" fill="#F5AF59"/>
<path d="M111.463 205.138H112.034V198.339H111.463V205.138Z" fill="#F5AF59"/>
<path d="M116.252 198.34H115.681V205.138H116.252V198.34Z" fill="#F5AF59"/>
<path d="M172.28 210.521H177.042V184.633H172.28V210.521Z" fill="#780000"/>
<path d="M172.961 210.521H176.335V184.633H172.961V210.521Z" fill="#A22012"/>
<path d="M172.253 184.634H143.027V210.522H172.253V184.634Z" fill="#920000"/>
<path d="M162.921 194.044H152.363V210.523H162.921V194.044Z" fill="#3D464D"/>
<path d="M161.504 187.081H153.803V191.894H161.504V187.081Z" fill="#780000"/>
<path d="M156.388 187.652H154.374V188.903H153.803V187.081H156.388V187.652ZM158.918 187.652H160.905V188.903H161.476V187.081H158.755L158.918 187.652ZM156.388 191.323H154.374V190.1H153.803V191.894H156.388V191.323ZM158.918 191.894H161.64V190.1H160.905V191.296H158.891L158.918 191.894Z" fill="#F5AF59"/>
<path d="M171.328 187.081H163.627V191.894H171.328V187.081Z" fill="#780000"/>
<path d="M166.348 187.652H164.334V188.903H163.627V187.081H166.348V187.652ZM168.879 187.652H170.892V188.903H171.464V187.081H168.879V187.652ZM166.348 191.296H164.334V190.072H163.627V191.867H166.348V191.296ZM168.879 191.867H171.464V190.072H170.892V191.296H168.879V191.867Z" fill="#F5AF59"/>
<path d="M143.983 191.896H151.684V187.082H143.983V191.896Z" fill="#780000"/>
<path d="M149.097 187.081H151.683V188.903H151.111V187.652H149.097V187.081ZM146.567 187.081H143.846V188.903H144.58V187.652H146.594L146.567 187.081ZM149.097 191.894H151.683V190.1H151.111V191.296H149.097V191.894ZM146.567 191.323H144.58V190.1H144.009V191.894H146.73L146.567 191.323Z" fill="#F5AF59"/>
<path d="M169.886 209.435V194.044H165.069V209.435H169.886Z" fill="#780000"/>
<path d="M169.315 196.737V194.752H168.064V194.018H169.887V196.737H169.315ZM169.315 206.962V208.947H168.064V209.545H169.887V206.962H169.315ZM165.642 196.737V194.752H166.866V194.018H165.07V196.737H165.642ZM165.07 206.962V209.545H166.866V208.947H165.642V206.962H165.07Z" fill="#F5AF59"/>
<path d="M169.885 198.34H169.314V205.138H169.885V198.34Z" fill="#F5AF59"/>
<path d="M165.071 205.138H165.642V198.339H165.071V205.138Z" fill="#F5AF59"/>
<path d="M150.24 209.435V194.044H145.424V209.435H150.24Z" fill="#780000"/>
<path d="M145.422 196.737V194.018H147.299V194.616H146.075V196.737H145.422ZM145.422 206.962V209.545H147.299V208.947H146.075V206.962H145.422ZM150.238 196.737V194.018H148.415V194.616H149.667V196.737H150.238ZM149.667 206.962V208.947H148.415V209.545H150.238V206.962H149.667Z" fill="#F5AF59"/>
<path d="M145.422 205.138H145.993V198.339H145.422V205.138Z" fill="#F5AF59"/>
<path d="M150.24 198.34H149.669V205.138H150.24V198.34Z" fill="#F5AF59"/>
<path d="M191.356 184.634H177.016V210.522H191.356V184.634Z" fill="#920000"/>
<path d="M191.355 194.044H186.348V210.523H191.355V194.044Z" fill="#3D464D"/>
<path d="M191.357 187.081H187.765V191.894H191.357V187.081Z" fill="#780000"/>
<path d="M190.35 187.652H188.363V188.903H187.765V187.652V187.081H188.363H190.35V187.652Z" fill="#F5AF59"/>
<path d="M190.35 191.323H188.363V190.1H187.765V191.323V191.894H188.363H190.35V191.323Z" fill="#F5AF59"/>
<path d="M177.967 191.896H185.668V187.082H177.967V191.896Z" fill="#780000"/>
<path d="M183.057 187.081H185.778V188.903H185.179V187.652H183.165L183.057 187.081ZM180.553 187.081H177.832V188.903H178.431V187.652H180.444L180.553 187.081ZM183.057 191.894H185.778V190.1H185.179V191.296H183.165L183.057 191.894ZM180.553 191.323H178.54V190.1H177.941V191.894H180.662L180.553 191.323Z" fill="#F5AF59"/>
<path d="M184.228 209.435V194.044H179.411V209.435H184.228Z" fill="#780000"/>
<path d="M179.383 196.737V194.018H181.206V194.616H179.954V196.737H179.383ZM179.383 206.962V209.545H181.206V208.947H179.954V206.962H179.383ZM184.226 196.737V194.018H182.403V194.616H183.628V196.737H184.226ZM183.628 206.962V208.947H182.403V209.545H184.226V206.962H183.628Z" fill="#F5AF59"/>
<path d="M179.41 205.138H179.981V198.339H179.41V205.138Z" fill="#F5AF59"/>
<path d="M184.198 198.34H183.627V205.138H184.198V198.34Z" fill="#F5AF59"/>
<path d="M75.0813 184.634H70.3193V210.522H75.0813V184.634Z" fill="#780000"/>
<path d="M74.4006 184.634H71.0264V210.522H74.4006V184.634Z" fill="#A22012"/>
<path d="M75.0824 210.521H104.308V184.633H75.0824V210.521Z" fill="#920000"/>
<path d="M84.4137 210.521H94.9717V194.042H84.4137V210.521Z" fill="#3D464D"/>
<path d="M85.8578 191.896H93.5586V187.082H85.8578V191.896Z" fill="#780000"/>
<path d="M90.9725 187.081H93.5576V188.903H92.8773V187.652H90.8909L90.9725 187.081ZM88.4418 187.081H85.7207V188.903H86.3194V187.652H88.333L88.4418 187.081ZM90.9725 191.894H93.5576V190.1H92.8773V191.296H90.8909L90.9725 191.894ZM88.4418 191.323H86.4282V190.1H85.8296V191.894H88.5507L88.4418 191.323Z" fill="#F5AF59"/>
<path d="M76.0335 191.896H83.7344V187.082H76.0335V191.896Z" fill="#780000"/>
<path d="M81.1487 187.081H83.7338V188.903H83.1351V187.652H81.1487V187.081ZM78.618 187.081H76.0329V188.903H76.5499V187.652H78.5636L78.618 187.081ZM81.1487 191.894H83.7338V190.1H83.1351V191.296H81.1487V191.894ZM78.618 191.323H76.5499V190.1H75.9785V191.894H78.5636L78.618 191.323Z" fill="#F5AF59"/>
<path d="M103.353 187.081H95.6523V191.894H103.353V187.081Z" fill="#780000"/>
<path d="M98.3198 187.652H96.3062V188.903H95.5986V187.081H98.3198V187.652ZM100.85 187.652H102.837V188.903H103.436V187.081H100.85V187.652ZM98.3198 191.296H96.3062V190.072H95.5986V191.867H98.3198V191.296ZM100.85 191.867H103.436V190.072H102.837V191.296H100.85V191.867Z" fill="#F5AF59"/>
<path d="M82.293 209.435V194.044H77.4765V209.435H82.293Z" fill="#780000"/>
<path d="M77.4756 196.737V194.018H79.2716V194.616H78.047V196.737H77.4756ZM77.4756 206.962V209.545H79.2716V208.947H78.047V206.962H77.4756ZM82.292 196.737V194.018H80.4689V194.616H81.7206V196.737H82.292ZM81.7206 206.962V208.947H80.4689V209.545H82.292V206.962H81.7206Z" fill="#F5AF59"/>
<path d="M77.4495 205.138H78.0205V198.339H77.4495V205.138Z" fill="#F5AF59"/>
<path d="M82.2927 198.34H81.7217V205.138H82.2927V198.34Z" fill="#F5AF59"/>
<path d="M101.939 209.435V194.044H97.123V209.435H101.939Z" fill="#780000"/>
<path d="M101.34 196.737V194.752H100.115V194.018H101.938V196.737H101.34ZM101.34 206.962V208.947H100.115V209.545H101.938V206.962H101.34ZM97.6934 196.737V194.752H98.9179V194.018H97.0947V196.737H97.6934ZM97.0947 206.962V209.545H98.9179V208.947H97.6934V206.962H97.0947Z" fill="#F5AF59"/>
<path d="M101.912 198.34H101.341V205.138H101.912V198.34Z" fill="#F5AF59"/>
<path d="M97.1213 205.138H97.6924V198.339H97.1213V205.138Z" fill="#F5AF59"/>
<path d="M55.9789 210.521H70.3193V184.633H55.9789V210.521Z" fill="#920000"/>
<path d="M55.9804 210.521H60.9873V194.042H55.9804V210.521Z" fill="#3D464D"/>
<path d="M55.9785 191.896H59.5703V187.082H55.9785V191.896Z" fill="#780000"/>
<path d="M56.9844 187.081H58.998H59.5695V187.652V188.903H58.998V187.652H56.9844V187.081Z" fill="#F5AF59"/>
<path d="M56.9844 191.894H58.998H59.5695V191.323V190.1H58.998V191.323H56.9844V191.894Z" fill="#F5AF59"/>
<path d="M69.3942 187.081H61.6934V191.894H69.3942V187.081Z" fill="#780000"/>
<path d="M64.2784 187.652H62.2648V188.903H61.6934V187.081H64.2784V187.652ZM66.8091 187.652H68.8228V188.903H69.3942V187.081H66.8091V187.652ZM64.2784 191.323H62.2648V190.1H61.6934V191.894H64.2784V191.323ZM66.8091 191.894H69.3942V190.1H68.8228V191.296H66.8091V191.894Z" fill="#F5AF59"/>
<path d="M67.9775 209.435V194.044H63.1611V209.435H67.9775Z" fill="#780000"/>
<path d="M67.3817 196.737V194.752H66.1572V194.018H67.9531V196.737H67.3817ZM67.3817 206.962V208.947H66.1572V209.545H67.9531V206.962H67.3817ZM63.7081 196.737V194.752H64.9598V194.018H63.1367V196.737H63.7081ZM63.1367 206.962V209.545H64.9598V208.947H63.7081V206.962H63.1367Z" fill="#F5AF59"/>
<path d="M67.9509 198.34H67.3799V205.138H67.9509V198.34Z" fill="#F5AF59"/>
<path d="M63.137 205.138H63.708V198.339H63.137V205.138Z" fill="#F5AF59"/>
<path d="M132.716 101.504H114.974V124.428H132.716V101.504Z" fill="#F5AF59"/>
<path d="M131.274 103.246H116.417V122.689H131.274V103.246Z" fill="#165CA3"/>
<path d="M126.048 106.317C125.588 106.395 125.125 106.449 124.66 106.48L125.531 105.692C125.531 105.692 125.531 105.338 125.15 105.392C124.747 105.712 124.381 106.077 124.061 106.48C123.98 107.203 123.98 107.933 124.061 108.656C124.061 108.656 124.279 108.656 124.361 108.656C124.484 108.147 124.557 107.628 124.578 107.106C124.693 107.645 124.857 108.173 125.068 108.683C125.258 108.846 125.313 108.683 125.34 108.112C125.257 107.735 125.129 107.37 124.959 107.024H125.884C126.075 106.997 126.32 106.235 126.048 106.317Z" fill="#F5AF59"/>
<path d="M123.599 106.182C123.599 106.182 124.388 105.774 124.388 105.393C124.388 105.012 123.408 105.393 123.408 105.665C123.408 105.937 123.517 106.182 123.599 106.182Z" fill="#F5AF59"/>
<path d="M122.458 107.433C122.755 107.323 123.046 107.196 123.328 107.052L122.431 108.14C122.431 108.14 122.648 108.547 122.811 108.547C122.974 108.547 123.518 107.487 123.518 107.487C123.518 107.487 123.518 108.847 123.518 108.792C123.653 108.046 123.653 107.281 123.518 106.535C122.987 106.632 122.49 106.867 122.077 107.215C122.077 107.215 122.24 107.487 122.458 107.433Z" fill="#F5AF59"/>
<path d="M123.029 111.782C123.76 111.891 124.502 111.891 125.233 111.782C125.451 111.782 125.233 111.021 125.07 110.967C124.692 111.047 124.327 111.175 123.981 111.347C123.901 111.113 123.801 110.885 123.682 110.667C123.662 110.644 123.636 110.626 123.608 110.613C123.58 110.6 123.55 110.594 123.519 110.594C123.488 110.594 123.457 110.6 123.429 110.613C123.401 110.626 123.376 110.644 123.356 110.667V111.293V111.51C123.356 111.51 122.811 111.619 123.029 111.782Z" fill="#F5AF59"/>
<path d="M122.511 114.039C122.674 114.039 123.463 113.359 123.327 113.223C122.805 113.148 122.272 113.204 121.776 113.386C121.937 113.683 122.197 113.914 122.511 114.039Z" fill="#F5AF59"/>
<path d="M123.979 112.953V112.654L124.959 112.436C125.176 112.436 124.959 112.11 124.822 112.11L123.979 112.3V112.001H123.707V112.355L122.727 112.599C122.537 112.599 122.727 112.953 122.727 112.953L123.652 112.762C123.652 113.279 123.462 113.932 123.462 114.04C123.462 114.149 124.033 114.72 124.033 114.557V113.415H125.258C125.557 113.415 125.584 112.953 125.448 112.953H123.979Z" fill="#F5AF59"/>
<path d="M124.034 119.289C124.034 119.289 124.959 118.419 125.04 118.337C125.122 118.256 124.904 117.794 124.714 117.467C124.887 117.344 125.043 117.197 125.176 117.032C124.938 116.918 124.679 116.853 124.415 116.842C124.415 116.842 124.251 116.842 124.088 117.087H122.292C122.047 117.087 121.557 119.806 121.503 119.806H123.87C123.87 119.806 124.415 120.323 124.632 120.622C124.85 120.921 125.176 119.996 125.176 119.86C125.176 119.724 124.034 119.316 124.034 119.289ZM124.36 117.739L124.496 118.201H123.789L124.36 117.739ZM122.564 117.549C122.899 117.514 123.236 117.514 123.571 117.549L122.972 118.147H122.238C122.319 117.875 122.455 117.576 122.564 117.549ZM121.993 119.208C121.993 119.208 121.993 118.8 122.183 118.365H122.809L122.02 119.208H121.993ZM123.408 119.208H122.483C122.782 118.99 123.19 118.691 123.571 118.365H124.36L123.408 119.208Z" fill="#F5AF59"/>
<path d="M203.872 210.521H43.4873V212.153H203.872V210.521Z" fill="#F5AF59"/>
<path d="M205.479 212.181H41.8564V213.812H205.479V212.181Z" fill="#D68828"/>
<path d="M207.14 213.811H40.2246V215.442H207.14V213.811Z" fill="#F5AF59"/>
<path d="M208.742 215.444H38.6162V217.076H208.742V215.444Z" fill="#D68828"/>
<path d="M210.459 217.104H36.877V218.736H210.459V217.104Z" fill="#F5AF59"/>
<path d="M212.064 218.735H35.2979V220.367H212.064V218.735Z" fill="#D68828"/>
<path d="M213.696 220.365H33.6924V221.997H213.696V220.365Z" fill="#F5AF59"/>
<path d="M215.33 222.024H32.0059V223.656H215.33V222.024Z" fill="#D68828"/>
<path d="M216.99 223.631H30.374V225.262H216.99V223.631Z" fill="#F5AF59"/>
<path d="M218.594 225.263H28.7393V226.894H218.594V225.263Z" fill="#D68828"/>
<path d="M220.255 226.92H27.0811V228.551H220.255V226.92Z" fill="#F5AF59"/>
<path d="M221.889 228.551H25.4766V230.182H221.889V228.551Z" fill="#D68828"/>
<path d="M223.601 230.184H23.7598V231.815H223.601V230.184Z" fill="#F5AF59"/>
<path d="M225.126 231.844H22.21V233.475H225.126V231.844Z" fill="#D68828"/>
<path d="M226.814 233.475H20.5234V235.106H226.814V233.475Z" fill="#F5AF59"/>
<path d="M228.444 235.104H18.8887V236.736H228.444V235.104Z" fill="#D68828"/>
<path d="M230.078 236.765H17.2842V238.396H230.078V236.765Z" fill="#F5AF59"/>
<path d="M231.764 238.368H15.5957V240H231.764V238.368Z" fill="#D68828"/>
</svg>
