<svg width="1920" height="1018" viewBox="0 0 1920 1018" fill="none" xmlns="http://www.w3.org/2000/svg">
<path d="M1920 0H0V919H1920V0Z" fill="url(#paint0_linear)"/>
<path d="M589.17 629.255C589.17 629.255 734.729 606.282 787.235 564.288C827.992 529.328 842.686 545.647 849.86 550.983C857.034 556.319 874.605 577.282 899.35 576.277C924.096 575.272 1036.25 669.897 1053.57 670.175C1070.9 670.452 797.112 743.491 739.616 726.825C682.12 710.159 589.17 629.255 589.17 629.255Z" fill="url(#paint1_linear)"/>
<path d="M883.755 607.807C876.823 604.342 873.358 587.017 869.892 587.017C839.428 583.552 848.613 553.824 826.432 542.736C817.144 543.845 804.563 549.424 787.235 564.288C734.729 606.282 589.17 629.254 589.17 629.254C589.17 629.254 682.363 710.193 739.755 726.859C770.946 735.868 865.768 718.544 943.261 700.769C926.175 668.338 912.312 634.001 883.755 607.807Z" fill="url(#paint2_linear)"/>
<path d="M1053.57 670.173C1036.25 669.861 923.991 575.235 899.211 576.24C874.432 577.245 856.999 556.248 849.721 550.947C845.528 547.863 838.908 541.176 826.293 542.7C848.473 553.788 839.289 583.586 869.753 586.981C873.219 586.981 876.684 604.306 883.616 607.771C912.173 633.965 926.036 668.302 943.122 700.733C1008.52 685.73 1061.72 670.381 1053.57 670.173Z" fill="url(#paint3_linear)"/>
<path d="M1919.86 543.777C1919.86 531.5 1919.86 548 1919.86 537C1919.86 529.5 1919.86 532.5 1919.86 522C1919.86 511.5 1920 465 1920 450C1920 442 1885.49 483.238 1865.5 502.5C1849.78 517.612 1824.25 570.366 1801 575C1782.89 578.458 1777.65 574.098 1762.17 564.519C1738.26 549.752 1716.61 533.949 1694.44 517.107C1674.03 501.615 1662.17 485.258 1645.86 465.477C1636.8 454.446 1623.27 439.126 1609.08 434.354C1586.73 426.746 1595.89 436.291 1579.27 440.613C1544.57 449.708 1547.66 407.761 1516.29 406.032C1492.7 404.752 1471.63 442.204 1459.56 459.668C1440.82 486.814 1415.42 509.742 1391.44 532.877C1372.33 551.274 1349.01 564.795 1325.24 575.93C1288.18 593.221 1244.18 620.886 1204 627.353L1340.47 754.128C1428.5 754.128 1520.35 762.67 1607.66 750.29C1688.37 738.844 1768.1 723.04 1848.4 707.962C1916.27 695.236 1853.2 682.372 1920 666.084L1919.86 543.777Z" fill="url(#paint4_linear)"/>
<path d="M1761.86 564.53C1737.98 549.735 1716.36 533.9 1694.21 517.026C1673.83 501.504 1661.98 485.115 1645.69 465.296C1636.65 454.243 1623.13 438.894 1608.95 434.112C1593.6 428.88 1593.15 431.756 1588.96 435.464C1606.08 441.631 1615.09 461.623 1620.15 479.675C1640.94 538.578 1675.6 583.621 1706.79 635.594C1727.59 669.307 1759.95 691.378 1782.2 720.691L1847.85 708.287C1860.29 705.966 1872.66 703.609 1885.07 701.357L1816.83 591.798C1799.15 591.729 1776.21 573.4 1761.86 564.53Z" fill="url(#paint5_linear)"/>
<path d="M563.159 550.827C519.266 527.045 475.788 494.644 433.663 467.366C411.751 453.173 399.824 448.223 374.237 456.358C338.769 467.574 341.993 458.539 315.574 435.069C290.75 413.018 277.194 417.587 249.492 433.269C224.532 447.393 200.576 463.216 177.792 480.624C150.298 501.706 113.651 510.256 82.4473 526.076C52.353 541.411 30.0943 559.412 0 566.439V770.194C121.799 770.54 243.702 771.821 365.466 770.194C450.167 768.982 534.867 760.951 620.227 760.951H810.536C830.541 760.951 936.668 775.075 947 754.028C879.184 712.003 808.317 682.163 737.727 642.181C680.138 609.364 621.961 582.675 563.159 550.827Z" fill="url(#paint6_linear)"/>
<path d="M738.195 642.454C680.63 609.711 622.475 582.997 563.697 551.121C519.821 527.317 476.361 494.886 434.253 467.583C412.35 453.377 400.428 448.422 374.851 456.564C363.379 460.029 355.997 461.692 350.313 461.277C353.225 462.074 355.373 463.667 353.502 469.246C370.83 469.246 388.159 465.781 402.022 472.711C429.747 486.57 419.35 528.148 440.145 548.938C498.264 616.745 562.415 675.509 596.101 761.715C604.28 761.715 612.494 761.438 620.742 761.438H810.975C830.972 761.438 937.057 775.574 947.385 754.508C879.596 712.306 808.653 682.439 738.195 642.454Z" fill="url(#paint7_linear)"/>
<path d="M1919.2 544.607C1918.3 544.953 1917.37 545.334 1916.46 545.612C1899.14 551.259 1883.47 551.225 1865.35 551.225C1825 551.225 1785.39 551.987 1746.09 546.651C1723.49 543.602 1686.72 537.816 1665.89 547.621C1653.31 553.581 1648.36 564.946 1633.46 569.796C1623.34 573.088 1609.78 572.949 1599.01 574.301C1581.38 576.134 1563.66 576.909 1545.95 576.622C1523.45 576.622 1516.9 582.201 1497.25 592.734C1465.09 609.408 1431.63 623.463 1397.2 634.763C1335.65 655.552 1289.76 616.295 1233.34 601.535C1186.69 589.338 1155.74 554.863 1105.11 558.154C1055.83 561.342 1030.77 598.589 989.112 619.933C957.331 636.218 920.006 642.697 886.146 652.953C852.286 663.209 819.57 676.895 785.918 688.78C750.949 701.115 716.153 713.692 680.144 725.022C652.419 733.754 624.104 739.644 595.962 747.544C582.62 751.286 563.731 753.157 554.374 763.517C579.292 785.796 625.456 789.226 656.924 796.26C699.656 805.754 741.765 817.049 784.497 826.751C866.495 845.149 949.811 848.545 1032.68 861.192C1096.38 870.893 1159 885.446 1223.29 893.138C1302.34 902.77 1380.32 902.319 1459.93 902.319C1613.39 902.319 1766.23 907.759 1919.48 908.972L1919.2 544.607Z" fill="url(#paint8_linear)"/>
<path d="M1341.23 742.935C1313.5 718.681 1299.64 680.568 1268.45 663.243C1240.72 645.919 1209.53 642.454 1178.34 635.524C1157.54 632.059 1154.08 604.341 1143.68 583.551C1137.65 568.479 1118.49 563.906 1102.09 558.396C1054.65 562.797 1029.73 599.005 988.869 619.932C957.088 636.217 919.763 642.697 885.903 652.953C852.043 663.209 819.327 676.895 785.675 688.779C750.706 701.114 715.91 713.692 679.901 725.022C652.176 733.753 623.861 739.643 595.719 747.543C582.376 751.285 563.488 753.156 554.131 763.516C579.049 785.796 625.212 789.226 656.681 796.259C699.413 805.753 741.521 817.049 784.254 826.75C866.252 845.149 949.568 848.544 1032.43 861.191C1096.13 870.893 1158.76 885.445 1223.05 893.137C1302.1 902.769 1380.08 902.319 1459.68 902.319C1479.05 902.319 1498.42 902.4 1517.8 902.561C1513.33 898.854 1508.79 895.389 1504.11 891.924C1438.27 850.346 1400.14 791.443 1341.23 742.935Z" fill="url(#paint9_linear)"/>
<path d="M1920 905V544.451C1919.1 544.798 1918.16 545.18 1917.26 545.457C1899.89 551.113 1884.19 551.078 1866.03 551.078C1825.61 551.078 1785.91 551.842 1746.53 546.498C1723.89 543.445 1687.04 537.65 1666.17 547.47C1653.56 553.438 1648.6 564.819 1633.66 569.677C1623.52 572.973 1609.94 572.834 1599.14 574.187C1581.48 576.023 1563.73 576.8 1545.97 576.512C1523.44 576.512 1516.87 582.099 1497.18 592.647C1464.95 609.345 1431.42 623.421 1396.92 634.736C1361.39 646.776 1331.11 638.796 1301 627.068C1306.45 632.288 1312.92 636.338 1320 638.969C1530.1 706.873 1737.4 785.812 1920 905Z" fill="url(#paint10_linear)"/>
<path d="M1320.43 638.989C1313.37 636.362 1306.92 632.318 1301.47 627.105C1279.33 618.477 1257.29 607.806 1233.34 601.534C1186.69 589.338 1155.74 554.862 1105.11 558.154C1104.17 558.154 1103.27 558.154 1102.33 558.397C1118.62 563.906 1137.79 568.479 1143.92 583.551C1154.32 604.341 1157.79 632.06 1178.58 635.524C1209.77 642.454 1240.96 645.919 1268.69 663.243C1299.88 680.568 1313.74 718.681 1341.47 742.935C1400.39 791.443 1438.51 850.346 1504.36 891.924C1509.04 895.389 1513.58 898.854 1518.01 902.562C1651.96 903.636 1785.53 907.897 1919.44 908.972V904.64C1736.97 785.622 1530.11 706.797 1320.43 638.989Z" fill="url(#paint11_linear)"/>
<path d="M0 1012L1927 1017.5L1920 627.126C1844.42 611.97 1635.9 576.559 1507.11 617.588C1347.63 668.398 1174.3 770.19 1010.18 749.381C846.062 728.571 806.818 728.363 718.97 675.3C631.121 622.236 453.206 577.01 393.093 598.444C344.558 615.785 94.603 676.617 1 699.23L0 1012Z" fill="url(#paint12_linear)"/>
<defs>
<linearGradient id="paint0_linear" x1="960" y1="1059.97" x2="960" y2="49.5" gradientUnits="userSpaceOnUse">
<stop stop-color="#DFC5EB"/>
<stop offset="1" stop-color="#BBD2F5"/>
</linearGradient>
<linearGradient id="paint1_linear" x1="821.857" y1="729.32" x2="821.857" y2="542.494" gradientUnits="userSpaceOnUse">
<stop stop-color="#AFAAAF"/>
<stop offset="0.27" stop-color="#CFC7CC"/>
<stop offset="0.54" stop-color="#E6DCE0"/>
<stop offset="0.79" stop-color="#F4E9ED"/>
<stop offset="1" stop-color="#F9EDF1"/>
</linearGradient>
<linearGradient id="paint2_linear" x1="766.233" y1="729.319" x2="766.233" y2="542.736" gradientUnits="userSpaceOnUse">
<stop stop-color="#91AAEC"/>
<stop offset="1" stop-color="#70A0F3"/>
</linearGradient>
<linearGradient id="paint3_linear" x1="940.488" y1="700.767" x2="940.488" y2="542.527" gradientUnits="userSpaceOnUse">
<stop stop-color="#C1B8E2"/>
<stop offset="0.87" stop-color="#A5AFE8"/>
</linearGradient>
<linearGradient id="paint4_linear" x1="1626.91" y1="756.86" x2="1626.91" y2="405.859" gradientUnits="userSpaceOnUse">
<stop stop-color="#C2B8E2"/>
<stop offset="0.87" stop-color="#71A0F3"/>
</linearGradient>
<linearGradient id="paint5_linear" x1="1737.01" y1="720.622" x2="1737.01" y2="431.202" gradientUnits="userSpaceOnUse">
<stop offset="0.08" stop-color="#BCB6E3"/>
<stop offset="0.755208" stop-color="#9CADEA"/>
</linearGradient>
<linearGradient id="paint6_linear" x1="473.5" y1="771.059" x2="473.5" y2="420.01" gradientUnits="userSpaceOnUse">
<stop stop-color="#9EADEA"/>
<stop offset="0.87" stop-color="#7EA4F0"/>
</linearGradient>
<linearGradient id="paint7_linear" x1="116911" y1="85914.2" x2="116911" y2="57563.9" gradientUnits="userSpaceOnUse">
<stop stop-color="#BFB7E3"/>
<stop offset="0.87" stop-color="#A1AEE9"/>
</linearGradient>
<linearGradient id="paint8_linear" x1="1236.63" y1="908.972" x2="1236.63" y2="542.181" gradientUnits="userSpaceOnUse">
<stop stop-color="#A1AAAF"/>
<stop offset="0.22" stop-color="#A9AAAF"/>
<stop offset="0.55" stop-color="#BEAAAF"/>
<stop offset="0.96" stop-color="#E2AAAF"/>
<stop offset="1" stop-color="#E5AAAF"/>
</linearGradient>
<linearGradient id="paint9_linear" x1="296306" y1="107962" x2="296306" y2="73776.1" gradientUnits="userSpaceOnUse">
<stop stop-color="#A7B0E8"/>
<stop offset="1" stop-color="#6C9FF4"/>
</linearGradient>
<linearGradient id="paint10_linear" x1="1610.5" y1="905" x2="1610.5" y2="542.022" gradientUnits="userSpaceOnUse">
<stop offset="0.37" stop-color="#8AA1E3"/>
<stop offset="1" stop-color="#5E92E7"/>
</linearGradient>
<linearGradient id="paint11_linear" x1="1510.7" y1="908.972" x2="1510.7" y2="557.911" gradientUnits="userSpaceOnUse">
<stop stop-color="#C1B8E2"/>
<stop offset="1" stop-color="#9EADE9"/>
</linearGradient>
<linearGradient id="paint12_linear" x1="960.5" y1="916.896" x2="960.5" y2="559.669" gradientUnits="userSpaceOnUse">
<stop stop-color="#5571CF"/>
<stop offset="1" stop-color="#3665D7"/>
</linearGradient>
</defs>
</svg>
