<svg width="1920" height="1018" viewBox="0 0 1920 1018" fill="none" xmlns="http://www.w3.org/2000/svg">
<path d="M547.54 36.349C545.282 31.2888 541.557 27.0235 536.846 24.1064C532.135 21.1892 526.656 19.7548 521.12 19.989C513.47 20.459 506.21 24.159 498.56 23.989C488.87 23.759 480.56 17.469 472.4 12.229C464.24 6.98905 455.72 2.64904 446.4 0.839045C437.08 -0.970955 426.87 0.0190454 418.76 5.06905C411.68 9.48905 406.27 16.839 398.25 19.129C392.81 20.679 387.03 19.629 381.38 19.379C370.87 18.929 360.11 21.469 351.69 27.699C351.251 27.94 350.871 28.2761 350.579 28.6827C350.287 29.0893 350.089 29.5562 350 30.049C350 31.609 351.81 32.419 353.33 32.769C357.81 33.769 362.33 34.469 366.91 35.059C424.56 42.529 489.41 36.649 547.54 36.349Z" fill="url(#paint0_linear)"/>
<path d="M-33 126.637C-25.6877 117.733 -12.8114 115.862 -1.22729 116.073C10.3568 116.284 22.4274 117.673 33.069 113.145C39.6972 110.338 45.1548 105.418 50.658 100.816C60.9651 92.1834 72.1996 84.2152 85.0911 80.3065C97.9826 76.3979 112.942 77.1374 123.796 84.9999C128.995 88.7275 133.145 93.8887 138.74 97.073C150.278 103.472 164.493 99.6687 177.658 98.5821C189.515 97.5278 201.464 98.8099 212.821 102.355C221.942 105.252 230.546 109.584 239.728 112.285C251.89 115.877 264.797 116.495 277.354 118.563C289.911 120.63 302.757 124.433 312 133.126C301.495 136.31 290.306 136.144 279.346 135.858L197.345 134.077C120.923 132.402 43.0113 134.469 -33 126.637Z" fill="url(#paint1_linear)"/>
<path d="M1374 129.645C1378.8 125.296 1384.78 122.467 1391.19 121.515C1398.52 120.445 1406.12 121.875 1413.31 120.095C1420.31 118.365 1426.31 113.735 1432.73 110.455C1439.15 107.175 1447.32 105.305 1453.46 109.135C1456.97 111.325 1459.33 115.085 1462.98 117.045C1465.98 118.665 1469.53 118.865 1472.98 119.045L1489.9 119.895C1493.96 120.105 1498.32 120.415 1501.5 122.895C1502.72 123.895 1503.73 125.125 1505.16 125.725C1506.78 126.232 1508.5 126.301 1510.16 125.925C1517.77 124.99 1525.48 124.99 1533.09 125.925C1537.34 126.435 1542.02 127.535 1544.39 131.105C1536.18 135.105 1526.63 134.855 1517.51 134.545C1479.89 133.258 1442.26 132.258 1404.63 131.545" fill="url(#paint2_linear)"/>
<path d="M1521.97 41.4651C1512.37 33.6351 1577.08 27.4651 1594.18 28.4651C1617.86 29.8277 1641.61 29.1586 1665.18 26.4651C1667.59 26.1951 1670.18 25.8351 1672 24.2351C1673.82 22.6351 1674.65 19.8251 1675.89 17.5351C1679.6 10.6451 1688.21 7.89508 1696.04 7.82508C1703.87 7.75508 1711.64 9.68508 1719.46 9.29508C1738.46 8.35508 1758.02 -5.93492 1774.9 2.83508C1779.74 5.34508 1783.52 9.48508 1788.1 12.4351C1808.22 25.3551 1834.91 11.6951 1858.53 15.3851C1869.16 17.0451 1878.94 22.2451 1889.46 24.4751C1904.25 27.6151 1919.85 24.7851 1934.56 28.2651C1943.86 30.4551 1952.43 35.0951 1961.72 37.3251C1972.81 39.9951 1984.41 39.1151 1995.82 39.2351C2021.82 39.5251 2047.37 45.0951 2072.75 50.6251C2066.84 54.4351 2059.28 53.2251 2052.26 53.6251C1909.2 61.3751 1793.73 62.7251 1615.61 53.9151C1586.36 52.4151 1549.78 50.5751 1521.97 41.4651Z" fill="url(#paint3_linear)"/>
<path d="M1698 816.31C1563.02 794.239 1452.54 786.284 1348.48 846.927C1244.42 907.571 1140.6 864.413 1007 867.071C938.87 868.426 900.276 860.58 832.5 867.071C748.249 875.139 705.327 901.927 621.5 913.098C379.704 945.322 108 902.283 0.000121117 846.927C0.000520509 928.807 0.000110799 684.873 0 743.164L0 903C0 903 145.838 968.394 248 990.09C343.224 1010.31 399.236 1014.21 497 1016.77C681.364 1021.6 782.014 975.943 965.5 957.335C1081.12 945.61 1145.26 943.602 1262 932C1386.42 919.635 1470.1 916.047 1582 921.63C1715.81 928.305 1920 980.335 1920 980.335V892.658C1920 892.658 1789.18 831.219 1698 816.31Z" fill="url(#paint4_linear)"/>
<defs>
<linearGradient id="paint0_linear" x1="448.27" y1="68.435" x2="451.11" y2="-0.601747" gradientUnits="userSpaceOnUse">
<stop stop-color="#C4C6F7"/>
<stop offset="0.46" stop-color="#B6C4FA"/>
<stop offset="1" stop-color="#9FBAFF"/>
</linearGradient>
<linearGradient id="paint1_linear" x1="138.626" y1="180.219" x2="142.256" y2="77.0544" gradientUnits="userSpaceOnUse">
<stop stop-color="#C4C6F7"/>
<stop offset="0.46" stop-color="#B6C4FA"/>
<stop offset="1" stop-color="#9FBAFF"/>
</linearGradient>
<linearGradient id="paint2_linear" x1="1458.76" y1="155.82" x2="1460.44" y2="106.544" gradientUnits="userSpaceOnUse">
<stop stop-color="#C4C6F7"/>
<stop offset="0.46" stop-color="#B6C4FA"/>
<stop offset="1" stop-color="#9FBAFF"/>
</linearGradient>
<linearGradient id="paint3_linear" x1="1795.48" y1="105.735" x2="1797.91" y2="-1.05492" gradientUnits="userSpaceOnUse">
<stop stop-color="#C4C6F7"/>
<stop offset="0.46" stop-color="#B6C4FA"/>
<stop offset="1" stop-color="#9FBAFF"/>
</linearGradient>
<linearGradient id="paint4_linear" x1="957.011" y1="950.04" x2="957.011" y2="711.836" gradientUnits="userSpaceOnUse">
<stop stop-color="#5571CF"/>
<stop offset="1" stop-color="#3665D7"/>
</linearGradient>
</defs>
</svg>
