<svg width="204" height="166" viewBox="0 0 204 166" fill="none" xmlns="http://www.w3.org/2000/svg">
<path d="M140.584 140.967C140.484 141.012 140.374 141.047 140.274 141.082C137.14 142.236 133.735 142.191 130.69 141.581C126.606 140.757 123.191 138.894 121.916 137.485C121.316 136.815 121.211 136.251 121.746 135.941C124.296 134.472 141.694 135.442 141.694 135.442C142.254 135.467 142.784 135.507 143.284 135.567C147.239 136.041 148.893 137.68 140.584 140.967Z" fill="#ABDAF7"/>
<path d="M192.984 148.921C191.659 150.644 176.735 150.889 170.671 151.129C164.607 151.368 162.912 154.246 159.487 155.864C156.063 157.483 134.49 158.522 113.307 158.987C95.4039 159.371 102.163 161.485 109.912 161.984C117.662 162.484 120.611 164.797 113.467 165.251C106.798 165.676 79.8755 166.091 70.2615 165.386C60.6475 164.682 60.7625 158.467 52.6283 158.023C44.4942 157.578 22.1315 156.409 12.6325 154.695C1.80863 152.752 8.66292 150.699 27.156 148.521C32.1555 147.926 35.7801 147.332 38.0899 146.812C42.0244 145.923 42.1844 145.214 39.0897 144.974C34.7852 144.634 32.6204 143.081 38.2148 142.151C39.0381 142.018 40.038 141.897 41.2145 141.787C45.1241 141.447 52.2134 141.167 59.0427 140.967L65.077 140.798C68.2817 140.713 71.1564 140.658 73.2962 140.613L77.0708 140.538C85.6599 140.243 82.6852 137.75 95.6989 137.57C100.518 137.51 104.738 137.426 108.418 137.51C112.887 137.615 116.567 137.975 119.551 138.919C120.705 139.276 121.813 139.767 122.851 140.383C125.726 142.116 132.255 142.881 139.424 143.25C145.924 143.605 152.923 143.665 158.232 143.905C173.486 144.619 195.228 146.008 192.984 148.921Z" fill="#ABDAF7"/>
<g style="mix-blend-mode:multiply" opacity="0.74">
<path d="M117.056 147.247C117.056 145.099 109.622 143.36 100.453 143.36C91.2838 143.36 83.8446 145.099 83.8446 147.247C83.8483 147.349 83.8668 147.45 83.8996 147.547C75.5904 147.826 69.2461 149.325 69.2461 151.139C69.2461 153.137 77.0553 154.78 86.6893 154.78C96.3233 154.78 104.137 153.147 104.137 151.139C104.137 151.109 104.137 151.074 104.137 151.044C111.527 150.649 117.056 149.1 117.056 147.247Z" fill="#ABDAF7"/>
</g>
<g style="mix-blend-mode:multiply" opacity="0.74">
<path d="M64.787 149.545C64.787 151.468 58.8276 153.041 51.4734 153.041C44.1192 153.041 38.1648 151.478 38.1648 149.545C38.1648 148.685 39.3547 147.896 41.3195 147.286C40.1696 147.167 39.0947 147.017 38.1098 146.847C42.0444 145.958 42.2044 145.248 39.1097 145.008C34.8051 144.669 32.6404 143.115 38.2348 142.186C39.058 142.053 40.0579 141.931 41.2345 141.821C45.1441 141.482 52.2333 141.202 59.0626 141.002C62.6922 141.691 65.002 142.72 65.002 143.879C65.002 145.038 62.7872 146.028 59.2876 146.717C62.6122 147.371 64.787 148.371 64.787 149.545Z" fill="#ABDAF7"/>
</g>
<g style="mix-blend-mode:multiply" opacity="0.74">
<path d="M135.97 152.097C143.825 152.097 150.193 150.744 150.193 149.075C150.193 147.406 143.825 146.053 135.97 146.053C128.114 146.053 121.746 147.406 121.746 149.075C121.746 150.744 128.114 152.097 135.97 152.097Z" fill="#ABDAF7"/>
</g>
<g style="mix-blend-mode:multiply" opacity="0.74">
<path d="M139.514 139.039C139.514 140.358 135.65 141.442 130.69 141.577C126.606 140.753 123.191 138.889 121.916 137.481C123.711 136.876 126.526 136.481 129.685 136.481C135.115 136.486 139.514 137.63 139.514 139.039Z" fill="#ABDAF7"/>
</g>
<path d="M57.5474 162.414C55.6825 161.015 52.3829 160.985 46.3185 160.72C40.2542 160.455 29.4753 162.144 34.2898 163.568C38.9193 164.941 64.0667 167.289 57.5474 162.414Z" fill="#ABDAF7"/>
<path d="M31.5961 159.636C31.916 159.676 31.4611 161.809 28.3414 162.014C25.2217 162.219 20.7672 158.302 31.5961 159.636Z" fill="#ABDAF7"/>
<path d="M128.195 163.053C126.225 162.689 123.47 162.159 121.956 163.943C120.441 165.726 127.485 165.486 129.71 165.291C131.935 165.097 130.955 163.558 128.195 163.053Z" fill="#ABDAF7"/>
<path d="M166.986 148.716C166.986 148.716 167.656 142.256 165.246 138.115C165.246 138.115 167.476 139.673 168.366 147.422C168.366 147.422 168.101 137.585 170.776 135.802C170.776 135.802 169.126 136.601 169.436 148.716H166.986Z" fill="#70B2DD"/>
<path d="M179.615 147.022C179.615 147.022 179.15 135.267 183.16 134.798C183.16 134.798 179.75 135.797 180.73 147.022H179.615Z" fill="#70B2DD"/>
<path d="M21.5006 152.277C21.5006 152.277 22.2905 142.845 20.4307 141.002C20.4307 141.002 22.4605 141.412 22.5704 150.049C22.5704 150.049 22.9954 141.846 25.5351 141.312C25.5351 141.312 23.1254 143.335 23.6603 152.277H21.5006Z" fill="#70B2DD"/>
<path d="M65.4575 159.446C65.4575 159.446 65.5925 155.37 64.0977 154.605C64.0977 154.605 65.5475 154.605 66.0974 157.773C66.0974 157.773 65.8775 151.473 67.2573 150.074C67.2573 150.074 66.3874 150.928 66.8774 158.137L66.9924 159.446H65.4575Z" fill="#70B2DD"/>
<path d="M68.666 159.446C68.666 159.446 68.831 153.261 70.1659 153.031C70.1659 153.031 69.016 153.471 69.4059 159.446H68.666Z" fill="#70B2DD"/>
<path d="M185.454 71.5776C185.454 72.7266 185.454 73.8507 185.409 74.9397C184.939 87.5437 178.76 99.1736 167.521 103.295C167.186 103.42 166.846 103.535 166.521 103.645C163.656 104.537 160.663 104.952 157.662 104.874C157.222 104.874 156.782 104.844 156.337 104.819C153.005 104.591 149.713 103.95 146.538 102.91C143.108 101.789 139.752 100.455 136.489 98.9139C135.844 98.6191 135.23 98.3294 134.625 98.0646C126.93 94.6176 122.156 93.5235 105.888 102.86L104.773 103.515C102.018 105.123 98.9483 107.012 95.4937 109.24C94.3738 109.959 93.2339 110.624 92.084 111.238C91.729 111.423 91.3741 111.608 91.0141 111.783C88.5076 113.012 85.8872 113.994 83.1899 114.715C82.84 114.805 82.48 114.9 82.12 114.985C78.2429 115.905 74.2583 116.293 70.2763 116.139C69.9163 116.139 69.5564 116.109 69.1914 116.089C65.2773 115.849 61.4029 115.167 57.6426 114.056L56.4177 113.681C35.4599 107.027 17.0018 88.0833 11.2974 68.2156C11.0225 67.2714 10.7975 66.3272 10.5725 65.373C10.5075 65.0833 10.4425 64.7885 10.3825 64.4938C6.88288 47.3287 9.24764 36.0535 15.642 28.9897C16.2023 28.3614 16.8018 27.7691 17.4368 27.2162C23.5511 21.756 32.5602 19.3081 43.3341 18.7836C64.6869 17.7544 90.0892 36.0186 103.328 33.4258C103.884 33.3204 104.431 33.17 104.963 32.9762C106.179 32.5373 107.285 31.8383 108.202 30.928C108.867 30.2586 109.552 29.5542 110.247 28.8148C110.557 28.4901 110.857 28.1704 111.162 27.8157C116.212 22.3804 121.991 15.5414 128.71 10.9254C128.985 10.7455 129.26 10.5557 129.535 10.3809C133.665 7.6882 138.134 5.88477 142.989 5.75488C143.354 5.75488 143.724 5.75488 144.089 5.75488C148.823 5.87977 153.913 7.63825 159.387 11.7497C160.904 12.8905 162.356 14.1147 163.737 15.4165C164.052 15.7112 164.361 16.011 164.671 16.3157C172.096 23.6593 177.215 33.0212 180.52 42.6678C180.66 43.0824 180.8 43.4871 180.925 43.8967C182.374 48.3431 183.479 52.8942 184.229 57.5099C184.304 57.9445 184.369 58.3791 184.434 58.8037C185.019 62.6648 185.353 66.5595 185.434 70.4636C185.449 70.8433 185.454 71.213 185.454 71.5776Z" fill="#E6F5FC"/>
<path opacity="0.63" d="M185.455 71.5765C177.726 73.8396 171.456 74.9486 166.282 74.9486C161.657 74.9486 157.903 74.0644 154.783 72.3059C144.539 66.5659 141.185 51.4441 136.11 28.549L135.63 26.4758C134.453 20.8622 132.094 15.5629 128.711 10.9293C128.986 10.7494 129.261 10.5596 129.536 10.3848C133.024 15.1012 135.46 20.5097 136.68 26.246L137.14 28.3242C142.14 50.9395 145.459 65.8765 155.288 71.3767C161.722 74.9736 170.952 74.7438 185.445 70.4725C185.45 70.8422 185.455 71.2119 185.455 71.5765Z" fill="white"/>
<path opacity="0.63" d="M184.435 58.8087C180.435 62.3057 176.176 64.9884 171.936 66.0325C169.598 66.6716 167.191 67.0288 164.767 67.0965C162.713 67.1762 160.683 66.629 158.948 65.5279C152.628 61.3465 150.563 48.4028 146.019 20.0375C145.261 15.2267 144.25 10.4592 142.989 5.75488C143.354 5.75488 143.724 5.75488 144.089 5.75488C145.333 10.4023 146.334 15.1112 147.089 19.8626C151.443 47.064 153.628 60.7171 159.548 64.6337C162.182 66.3772 165.702 66.4821 171.696 64.9984C175.921 63.9493 180.195 61.1367 184.25 57.5049C184.305 57.9495 184.37 58.3841 184.435 58.8087Z" fill="white"/>
<path opacity="0.63" d="M180.925 43.9021C177.22 48.578 172.886 52.8943 169.131 53.4438C168.857 53.4872 168.579 53.5089 168.301 53.5088C167.669 53.5104 167.044 53.3867 166.46 53.1448C165.876 52.903 165.347 52.5479 164.901 52.1C158.692 46.1701 161.877 25.0785 163.737 15.4219C164.052 15.7166 164.362 16.0164 164.671 16.3211C162.847 26.0926 160.007 45.9453 165.641 51.3306C166.068 51.7659 166.596 52.0899 167.177 52.2746C167.758 52.4592 168.376 52.4987 168.976 52.3897C172.556 51.8602 176.855 47.3941 180.52 42.6732C180.66 43.0878 180.8 43.4925 180.925 43.9021Z" fill="white"/>
<path opacity="0.63" d="M111.687 27.9757C109.461 34.2589 105.905 39.989 101.264 44.7761C94.2643 51.87 81.7106 59.2286 61.5827 53.9931C39.31 48.2032 22.9767 49.4421 15.5875 57.4901C13.0178 60.2827 11.5879 63.9045 11.3079 68.2158C11.033 67.2716 10.808 66.3274 10.583 65.3732C11.1509 62.1645 12.6135 59.181 14.8026 56.7657C22.4668 48.408 39.175 47.0542 61.8477 52.954C77.601 57.0505 90.5947 54.0531 100.469 44.0518C104.713 39.6698 108.038 34.4843 110.248 28.8C110.518 28.0906 110.648 27.681 110.653 27.666L111.153 27.8209L111.687 27.9757Z" fill="white"/>
<path opacity="0.63" d="M105.027 32.9962C104.892 33.191 101.783 37.822 94.2384 40.5396C87.3441 43.0375 75.2404 44.2764 56.8623 36.1085C37.4143 27.476 24.5607 25.228 15.6416 28.9747C16.202 28.3464 16.8014 27.7541 17.4364 27.2012C26.5105 24.5136 39.0842 27.0514 57.2923 35.1393C75.2904 43.1324 87.0892 41.9634 93.7885 39.5705C97.4168 38.3357 100.681 36.219 103.287 33.4108C103.576 33.0955 103.843 32.7618 104.087 32.4117L104.962 32.9712L105.027 32.9962Z" fill="white"/>
<path opacity="0.63" d="M167.521 103.295C167.186 103.42 166.846 103.535 166.521 103.645C165.251 97.935 162.856 93.8286 159.277 91.1559C151.503 85.4159 138.959 87.599 128.905 90.1568C119.701 92.4797 110.757 88.5781 102.103 84.7964C90.9289 79.9157 79.3751 74.8651 66.4565 82.2986C53.9578 89.5173 54.5277 102.916 57.6374 114.001L56.4125 113.626C53.3678 102.336 53.0229 88.8129 65.9115 81.3694C79.2951 73.6561 91.1039 78.8116 102.523 83.8023C111.397 87.6739 119.781 91.3407 128.63 89.1027C138.919 86.4999 151.768 84.2819 159.902 90.2966C163.661 93.1042 166.191 97.3855 167.521 103.295Z" fill="white"/>
<path opacity="0.63" d="M105.868 102.84L104.753 103.495C97.3689 99.4032 87.6649 95.3068 78.9158 95.6915C75.6662 95.8313 73.2214 97.0353 71.6566 99.2634C69.8968 101.761 68.4919 106.652 70.2567 116.109C69.8968 116.109 69.5368 116.079 69.1718 116.059C67.412 106.382 68.9169 101.297 70.7767 98.6489C72.5415 96.1511 75.2762 94.7773 78.8708 94.6224C88.1849 94.2128 98.3238 98.5889 105.868 102.84Z" fill="white"/>
<path opacity="0.63" d="M157.637 104.873C157.197 104.873 156.757 104.843 156.312 104.818C154.907 102.833 152.992 101.264 150.768 100.277C146.573 98.3637 141.379 98.2787 136.474 98.8932C135.829 98.5985 135.214 98.3087 134.609 98.0439C140.139 97.1447 146.263 97.0448 151.213 99.3029C153.862 100.478 156.099 102.418 157.637 104.873Z" fill="white"/>
<path opacity="0.63" d="M92.0595 111.208C91.7045 111.393 91.3496 111.578 90.9896 111.752C87.225 109.045 85.3802 109.01 84.4903 109.579C83.3054 110.329 83.0504 112.457 83.1754 114.685C82.8255 114.775 82.4655 114.87 82.1055 114.955C81.9405 112.417 82.2355 109.739 83.9203 108.675C85.6052 107.611 88.3149 108.405 92.0595 111.208Z" fill="white"/>
<path d="M102.898 25.4775C101.936 25.745 100.925 25.7894 99.9433 25.6073C99.5434 25.5624 99.1234 25.4974 98.6735 25.4125C97.9635 25.2826 97.1736 25.1128 96.3987 24.9129C96.0487 24.823 95.6888 24.7181 95.3238 24.6082C88.0246 22.4451 78.8255 17.4794 80.7853 13.2031C82.0352 10.4555 88.4945 7.99266 95.5838 6.54392L96.6537 6.3341C99.5319 5.78514 102.443 5.42303 105.368 5.25004L106.483 5.20009C111.482 5.03523 115.417 5.69965 116.257 7.47811C118.751 12.8235 113.607 21.1962 102.898 25.4775Z" fill="#E6F5FC"/>
<path d="M110.491 97.0752C104.944 97.1008 99.5685 95.1528 95.3275 91.58C91.0729 88.083 86.4634 76.628 81.1239 63.3446C76.9644 52.9936 72.2449 41.2588 66.8154 31.0476L67.2904 30.7979C72.7298 41.029 77.4543 52.7787 81.6189 63.1447C86.9333 76.3582 91.5179 87.7733 95.6674 91.1704C109.591 102.58 125.424 92.3293 125.584 92.2244L125.879 92.6691C125.749 92.729 119.035 97.0752 110.491 97.0752Z" fill="#70B2DD"/>
<path d="M192.25 23.098L186.039 26.0195L186.267 26.5032L192.477 23.5816L192.25 23.098Z" fill="#70B2DD"/>
<path d="M186.889 111.613C184.771 111.582 182.668 111.266 180.635 110.674C171.756 108.176 162.492 101.182 158.872 90.4565C148.788 90.3286 138.713 91.0791 128.76 92.6995L128.665 92.175C137.568 90.7113 146.57 89.9347 155.592 89.852C156.637 89.852 157.672 89.852 158.682 89.852C157.971 87.5801 157.53 85.2328 157.367 82.8581C155.057 49.9367 171.566 34.5001 181.615 28.2256L181.894 28.6802C171.951 34.8898 155.607 50.1615 157.897 82.8181C158.059 85.2088 158.513 87.5708 159.247 89.852C176.135 90.2616 187.154 93.9984 192.038 100.967C195.038 105.229 194.503 107.741 193.538 109.1C192.388 110.769 189.984 111.613 186.889 111.613ZM159.442 90.4665C163.046 100.892 172.101 107.726 180.78 110.159C186.464 111.748 191.413 111.218 193.103 108.83C194.348 107.087 193.828 104.484 191.603 101.337C186.014 93.329 172.485 90.8261 159.442 90.4665Z" fill="#70B2DD"/>
<path d="M63.8719 25.8267C56.2577 12.9878 48.6585 5.99391 40.6443 4.49521C34.6449 3.38118 28.2956 5.4294 21.7763 10.5799L21.4463 10.1603C28.0906 4.91984 34.5799 2.83166 40.7393 3.99565C48.9134 5.49434 56.6326 12.5682 64.3318 25.5669L63.8719 25.8267Z" fill="#70B2DD"/>
<path d="M49.8639 16.8109C46.6292 12.4547 42.8196 9.99184 38.545 9.49228C31.2708 8.663 25.0464 13.8535 24.9914 13.9034L24.6465 13.4988C24.7115 13.4438 31.1008 8.09849 38.605 8.95774C43.0346 9.49228 46.9692 12.0151 50.2938 16.4862L49.8639 16.8109Z" fill="#70B2DD"/>
<path d="M21.4558 122.574C21.3808 122.519 19.536 121.19 18.2861 117.713L18.7861 117.533C19.971 120.835 21.7408 122.124 21.7858 122.139L21.4558 122.574Z" fill="#70B2DD"/>
<path d="M17.4018 114.061C16.6869 109 17.6318 102.806 20.2015 95.6519C20.4385 94.9878 20.6371 94.3106 20.7964 93.6237C8.30273 88.3783 1.50344 80.615 1.00349 71.0883C0.793511 66.5922 2.19337 64.9586 3.41324 64.3841C5.45803 63.425 8.52271 64.589 11.8224 67.5813C18.1767 73.3563 23.3212 83.9221 21.4014 93.254C32.0203 97.6302 42.9641 98.7493 43.1741 98.7493L43.1241 99.2788C36.0904 98.4595 29.1812 96.7956 22.5462 94.3231C22.1163 94.1582 21.6913 93.9934 21.2764 93.8235C21.117 94.5006 20.9184 95.1678 20.6814 95.8218C18.1417 102.891 17.2118 109 17.9117 113.976L17.4018 114.061ZM5.00307 64.5939C4.54819 64.5868 4.0974 64.6807 3.68321 64.8687C2.15337 65.5881 1.42345 67.7312 1.58343 71.0633C2.11337 82.1936 11.3224 88.9777 20.9464 93.0442C22.7162 83.9271 17.7018 73.6261 11.5024 67.976C9.06265 65.7829 6.74289 64.5939 5.00307 64.5939Z" fill="#70B2DD"/>
<path d="M53.8574 99.2727C52.2476 99.2727 51.3177 99.2027 51.2627 99.2027L51.3077 98.6682C51.5977 98.6932 80.2647 100.806 98.5478 80.4141L98.9477 80.7687C83.7243 97.744 61.3966 99.2727 53.8574 99.2727Z" fill="#70B2DD"/>
<path d="M51.7079 104.554C48.3382 104.546 44.9722 104.331 41.6289 103.91L41.6939 103.38C55.8174 105.133 65.1165 102.666 65.1914 102.641L65.3364 103.14C65.2814 103.185 60.132 104.554 51.7079 104.554Z" fill="#70B2DD"/>
<path d="M191.278 108.905L190.813 108.65C193.468 103.779 184.379 97.7595 184.289 97.6995L184.579 97.2549C184.984 97.4847 194.173 103.584 191.278 108.905Z" fill="#70B2DD"/>
<path d="M203.837 19.4375C203.993 19.1215 204.025 18.759 203.927 18.4208C203.829 18.0827 203.608 17.7932 203.308 17.6091C202.614 17.1439 201.809 16.8734 200.975 16.8259C200.141 16.7784 199.31 16.9558 198.568 17.3394C197.634 17.8182 196.613 18.1039 195.566 18.1795C194.519 18.255 193.467 18.1188 192.474 17.779C192.474 17.779 196.548 22.7247 199.783 22.6297C201.943 22.5698 203.228 20.6814 203.837 19.4375Z" fill="#ABDAF7"/>
<path d="M106.813 0.854089C106.673 0.531088 106.418 0.271724 106.097 0.126683C105.777 -0.0183569 105.413 -0.0386494 105.078 0.0697715C104.273 0.293319 103.543 0.729578 102.965 1.33265C102.387 1.93573 101.982 2.68333 101.794 3.49679C101.551 4.51687 101.105 5.47757 100.482 6.32137C99.8594 7.16516 99.0726 7.87471 98.1689 8.40752C98.1689 8.40752 104.583 8.52242 106.608 6.00961C107.963 4.32607 107.363 2.12299 106.813 0.854089Z" fill="#ABDAF7"/>
<path d="M73.9657 128.228C74.1429 127.924 74.2006 127.565 74.1276 127.22C74.0546 126.876 73.8561 126.571 73.5707 126.365C72.9142 125.849 72.1311 125.52 71.3034 125.411C70.4757 125.302 69.6339 125.417 68.8662 125.745C67.9003 126.156 66.8613 126.368 65.8115 126.368C64.7617 126.368 63.7228 126.156 62.7568 125.745C62.7568 125.745 66.4514 130.981 69.6811 131.126C71.8459 131.211 73.2657 129.422 73.9657 128.228Z" fill="#ABDAF7"/>
<path d="M10.5735 12.4544C10.5821 12.0266 10.7496 11.6174 11.0435 11.3062C11.3373 10.995 11.7365 10.8042 12.1633 10.7708C13.1707 10.6498 14.192 10.8021 15.1201 11.2118C16.0482 11.6214 16.8488 12.2732 17.4378 13.0988C18.1819 14.1326 19.1275 15.0053 20.2177 15.6646C21.308 16.324 22.5204 16.7562 23.7821 16.9355C23.7821 16.9355 16.6378 20.0378 13.1932 18.1494C10.8934 16.8855 10.5485 14.1379 10.5735 12.4544Z" fill="#ABDAF7"/>
<path d="M99.2783 49.3467C99.2783 49.3467 100.613 46.8489 106.363 50.5807C112.112 54.3124 117.121 52.7538 117.121 52.7538L115.252 56.6704L106.628 58.9984L99.2783 49.3467Z" fill="url(#paint0_linear)"/>
<path d="M68.7562 63.1395L51.0381 68.5598L48.5283 64.9629L66.1665 56.1006L68.7562 63.1395Z" fill="#FEB19E"/>
<path d="M135.26 139.838C135.249 139.874 135.235 139.909 135.22 139.943C134.72 141.487 132.625 141.027 128.72 140.268C126.821 139.903 126.101 139.269 125.991 138.469C125.871 137.57 126.491 136.421 127.071 135.092C127.771 133.424 128.31 131.693 128.68 129.922L134.13 130.976C133.49 136.766 135.725 138.155 135.26 139.838Z" fill="#1C4F99"/>
<path d="M135.219 139.943C134.719 141.487 132.625 141.028 128.72 140.268C126.82 139.904 126.1 139.269 125.99 138.47C127.6 137.001 131.85 134.069 135.219 139.943Z" fill="#D7E3F4"/>
<path d="M150.073 86.1104C150.073 86.1104 151.413 95.1975 145.134 113.452C143.549 118.058 136.135 132.33 136.135 132.33L133.175 89.6423L150.073 86.1104Z" fill="#1B3151"/>
<path d="M140.114 150.429C140.116 150.468 140.116 150.506 140.114 150.544C139.904 152.158 137.769 152.098 133.779 152.098C131.844 152.098 131.02 151.628 130.78 150.849C130.49 149.99 130.88 148.741 131.194 147.352C131.567 145.582 131.768 143.78 131.794 141.972H137.344C137.774 147.757 140.254 148.691 140.114 150.429Z" fill="#2256B2"/>
<path d="M140.099 150.543C139.889 152.157 137.754 152.097 133.764 152.097C131.83 152.097 131.005 151.627 130.765 150.848C132.055 149.099 135.669 145.413 140.099 150.543Z" fill="white"/>
<path d="M140.585 91.056C140.585 91.056 137.775 96.6661 137.51 97.0508C137.245 97.4354 138.845 141.932 138.845 141.932H129.891C126.681 122.449 123.892 85.2061 123.892 85.2061L140.585 91.056Z" fill="#23406D"/>
<path d="M106.298 149.106C106.292 149.248 106.275 149.39 106.248 149.53C105.848 151.404 99.6985 151.663 99.0285 150.195C98.9167 149.903 98.8493 149.597 98.8286 149.285C98.6536 147.287 99.2835 140.973 99.2835 140.973H105.323C105.323 140.973 106.403 147.132 106.298 149.106Z" fill="#3EA9EA"/>
<path d="M106.297 149.105C106.292 149.247 106.275 149.389 106.247 149.529C105.847 151.403 99.698 151.662 99.0281 150.194C98.9163 149.902 98.8489 149.596 98.8281 149.284C99.0311 149.43 99.2812 149.494 99.5291 149.464C99.7771 149.435 100.005 149.314 100.168 149.125C101.003 148.355 101.103 147.326 103.043 147.326C104.983 147.326 105.492 149.869 106.297 149.105Z" fill="#D7E3F4"/>
<path d="M104.322 143.875C104.281 143.875 104.239 143.865 104.203 143.845C102.203 142.811 101.038 143.765 100.988 143.805C100.962 143.828 100.931 143.846 100.898 143.857C100.865 143.868 100.83 143.873 100.795 143.87C100.76 143.868 100.726 143.859 100.695 143.843C100.664 143.828 100.636 143.806 100.613 143.78C100.588 143.755 100.569 143.726 100.555 143.694C100.542 143.662 100.535 143.627 100.535 143.593C100.535 143.558 100.542 143.523 100.555 143.491C100.569 143.459 100.588 143.43 100.613 143.405C100.673 143.35 102.083 142.166 104.422 143.37C104.485 143.403 104.532 143.459 104.553 143.527C104.575 143.594 104.569 143.667 104.537 143.73C104.516 143.77 104.485 143.804 104.448 143.829C104.41 143.854 104.367 143.87 104.322 143.875Z" fill="#F5FAFC"/>
<path d="M104.308 145.418C104.266 145.418 104.225 145.408 104.188 145.388C102.188 144.354 101.023 145.308 100.973 145.348C100.947 145.371 100.916 145.388 100.883 145.399C100.849 145.41 100.814 145.414 100.779 145.411C100.745 145.409 100.711 145.399 100.679 145.383C100.648 145.367 100.621 145.345 100.598 145.318C100.55 145.268 100.522 145.201 100.522 145.131C100.522 145.061 100.55 144.994 100.598 144.944C100.658 144.894 102.068 143.705 104.408 144.914C104.47 144.947 104.517 145.003 104.539 145.07C104.56 145.137 104.555 145.21 104.523 145.273C104.501 145.313 104.471 145.347 104.433 145.372C104.396 145.397 104.353 145.413 104.308 145.418Z" fill="#F5FAFC"/>
<path d="M95.4941 118.897L98.3988 141.942H106.083L107.133 118.497C106.473 117.785 105.899 116.999 105.423 116.154L98.9238 105.059L95.4941 118.897Z" fill="#1C4F99"/>
<path d="M105.493 81.8594L107.128 117.998C107.142 118.779 107 119.554 106.71 120.279C106.42 121.004 105.987 121.663 105.438 122.218C104.889 122.773 104.233 123.213 103.511 123.511C102.789 123.809 102.014 123.959 101.233 123.953C99.8278 123.941 98.4737 123.424 97.4194 122.495C96.3651 121.566 95.6814 120.289 95.4938 118.897L91.4092 86.925L105.493 81.8594Z" fill="#2256B2"/>
<path d="M90.3496 153.652C90.3096 153.952 90.2196 154.151 90.0546 154.231C88.7798 154.831 82.4354 154.971 81.7005 154.231C81.5678 154.018 81.5065 153.768 81.5255 153.517C81.4005 151.364 82.6304 145.419 82.6304 145.419H88.3548C88.3548 145.419 90.6046 151.644 90.3496 153.652Z" fill="#3EA9EA"/>
<path d="M90.3488 153.302C90.3088 153.696 90.3488 154.041 90.1639 154.151C88.889 154.94 82.4347 155.205 81.6997 154.231C81.5691 153.876 81.5096 153.499 81.5248 153.122C82.4047 152.093 83.9595 150.714 85.9393 150.714C87.9191 150.714 89.4189 152.143 90.3488 153.302Z" fill="white"/>
<path d="M88.1483 149.959C88.1169 149.964 88.0848 149.964 88.0534 149.959C86.5159 149.463 84.8613 149.463 83.3238 149.959C83.291 149.971 83.2562 149.976 83.2213 149.975C83.1864 149.973 83.1522 149.965 83.1206 149.95C83.089 149.935 83.0607 149.914 83.0372 149.888C83.0137 149.862 82.9956 149.832 82.9839 149.799C82.9596 149.732 82.9629 149.659 82.9928 149.594C83.0228 149.529 83.0771 149.479 83.1439 149.455C84.7978 148.907 86.5844 148.907 88.2383 149.455C88.2893 149.48 88.3306 149.522 88.3561 149.573C88.3816 149.624 88.3899 149.682 88.3798 149.738C88.3697 149.794 88.3417 149.845 88.3 149.884C88.2583 149.923 88.2051 149.948 88.1483 149.954V149.959Z" fill="#F5FAFC"/>
<path d="M87.4936 148.555C87.4638 148.56 87.4334 148.56 87.4036 148.555C86.4076 148.201 85.3199 148.201 84.3239 148.555C84.2911 148.569 84.2558 148.577 84.2201 148.577C84.1844 148.578 84.1489 148.571 84.1157 148.558C84.0825 148.545 84.0522 148.525 84.0266 148.5C84.001 148.475 83.9806 148.445 83.9665 148.413C83.9524 148.38 83.9448 148.345 83.9444 148.309C83.9439 148.273 83.9504 148.238 83.9637 148.205C83.9769 148.171 83.9965 148.141 84.0215 148.116C84.0464 148.09 84.0761 148.07 84.1089 148.055C85.2291 147.646 86.4584 147.646 87.5786 148.055C87.6121 148.067 87.643 148.086 87.6694 148.109C87.6959 148.133 87.7174 148.162 87.7327 148.194C87.748 148.226 87.7569 148.26 87.7587 148.296C87.7606 148.331 87.7555 148.367 87.7436 148.4C87.7224 148.448 87.6872 148.489 87.6426 148.516C87.598 148.544 87.546 148.557 87.4936 148.555Z" fill="#F5FAFC"/>
<path d="M83.5342 145.653C83.5342 145.653 83.8691 147.057 85.689 147.057C87.5088 147.057 88.0787 145.059 88.0787 145.059L83.5342 145.653Z" fill="#FEB19E"/>
<path d="M99.8182 88.2773C99.8182 88.2773 94.8638 95.3262 92.859 97.7341L90.6592 146.222H80.8302L77.7555 97.5992L76.8906 89.5462L99.8182 88.2773Z" fill="#3471EA"/>
<path d="M128.75 50.8449C127.03 52.4935 114.712 64.0534 109.957 61.8354L111.172 53.9122L127.515 47.5078C127.847 48.648 128.26 49.7632 128.75 50.8449Z" fill="#FEB19E"/>
<path d="M170.921 52.2442L171.506 51.5698C171.641 50.3379 171.88 49.1197 172.221 47.928C172.646 46.789 172.851 46.5342 173.116 48.1728C173.212 48.9728 173.412 49.757 173.711 50.5057C173.711 50.5057 175.53 48.0928 175.665 46.6891C175.8 45.2853 176.065 44.5609 176.455 44.5809C176.845 44.6009 177.625 46.8739 175.895 50.3758C175.895 50.3758 177.315 48.0529 177.475 46.4593C177.635 44.8656 178.215 43.8665 178.67 44.8157C179.125 45.7649 178.945 48.7573 176.975 51.0852C176.975 51.0852 179.405 48.6873 179.31 46.9089C179.215 45.1304 180.355 45.8298 180.465 47.908C180.575 49.9862 177.87 52.529 177.87 52.529C177.87 52.529 180.135 50.4608 180.7 49.1819C181.265 47.903 181.85 49.5166 181.32 50.6806C180.79 51.8446 180.05 53.4382 177.07 54.747C176.9 54.822 175.545 55.3565 175.545 55.3565L174.241 56.3557L170.921 52.2442Z" fill="#D6806A"/>
<path d="M174.67 56.6709C174.196 57.543 173.672 58.387 173.1 59.1987C170.448 63.0287 167.131 66.3533 163.306 69.0151C155.702 74.2556 148.963 70.2391 148.703 70.0842C148.634 72.4143 148.783 74.7457 149.148 77.0481C149.689 80.6506 150.46 84.2148 151.457 87.7189C151.457 87.7189 141.748 93.7736 133.634 92.17C131.257 91.6927 129.02 90.6833 127.09 89.2175C125.159 87.7517 123.587 85.8678 122.49 83.7074C127.28 78.9165 126.31 67.8761 125.885 64.4791C125.805 63.8446 125.74 63.4799 125.74 63.4799H125.7C119.571 65.0536 114.201 61.4817 114.201 61.4817C114.776 61.2471 115.338 60.9837 115.886 60.6924C120.845 58.0447 127.195 52.3047 127.195 52.3047C128.835 52.6394 129.67 52.0699 131.869 51.1856L132.134 51.0857C133.343 50.6084 134.578 50.2014 135.834 49.8668C137.077 49.5633 138.379 49.5995 139.604 49.9717C140.348 50.1665 141.053 50.4013 141.723 50.5712C146.198 51.7302 148.028 54.0681 150.897 57.3802C155.032 62.1211 157.167 62.7756 157.167 62.7756L168.95 53.1239L170.95 51.7102L174.67 56.6709Z" fill="url(#paint1_linear)"/>
<path d="M174.671 56.6705C174.197 57.5427 173.673 58.3867 173.101 59.1983L168.941 53.1286L170.941 51.7148L174.671 56.6705Z" fill="#6ECEF4"/>
<path d="M141.714 50.5758C141.769 54.3176 137.004 58.6488 133.215 58.5939C128.63 58.5339 131.515 51.7148 131.515 51.7148L131.935 51.2852C132 51.2253 132.07 51.1653 132.145 51.0904C133.353 50.6131 134.589 50.2061 135.844 49.8714C136.982 49.538 138.159 49.3582 139.344 49.3369C139.419 49.5517 139.504 49.7615 139.594 49.9764C140.339 50.1712 141.044 50.406 141.714 50.5758Z" fill="#6ECEF4"/>
<path d="M149.144 77.0431C144.729 72.7569 143.614 66.7021 143.614 66.7021L148.699 70.0792C148.63 72.4093 148.779 74.7407 149.144 77.0431Z" fill="#2986CC"/>
<path d="M125.706 63.4798C119.576 65.0534 114.207 61.4815 114.207 61.4815C114.782 61.247 115.344 60.9835 115.892 60.6922C122.256 62.4257 124.826 58.4941 124.826 58.4941L125.706 63.4798Z" fill="#2986CC"/>
<path d="M38.1851 123.648C38.1851 123.648 37.7851 132.775 40.3248 134.468C42.8646 136.162 45.9842 134.688 45.9842 134.688L48.349 126.051L45.5343 122.554L38.1851 123.648Z" fill="#F2D7F1"/>
<path d="M38.6991 124.341C38.6991 124.341 39.2991 134.422 41.6638 133.708C44.0286 132.993 44.0236 132.239 45.2735 133.173C46.5233 134.107 46.8933 130.101 46.8933 130.101L45.4984 122.353H37.9492L38.6991 124.341Z" fill="#1E394C"/>
<path d="M45.0389 127.089L41.3593 127.464C41.3244 127.469 41.2888 127.467 41.2547 127.457C41.2207 127.448 41.1889 127.432 41.1613 127.41C41.1337 127.388 41.1109 127.361 41.0942 127.329C41.0775 127.298 41.0674 127.264 41.0643 127.229C41.0602 127.194 41.0631 127.158 41.073 127.124C41.0829 127.09 41.0996 127.059 41.1219 127.031C41.1443 127.004 41.172 126.981 41.2033 126.964C41.2346 126.948 41.269 126.937 41.3043 126.934L44.9839 126.555C45.0513 126.554 45.1166 126.578 45.1669 126.623C45.2172 126.668 45.249 126.73 45.2559 126.797C45.2628 126.864 45.2443 126.931 45.2042 126.985C45.164 127.039 45.1051 127.076 45.0389 127.089Z" fill="white"/>
<path d="M45.1197 128.738L41.62 129.097C41.5526 129.098 41.4874 129.074 41.437 129.029C41.3867 128.984 41.355 128.922 41.3481 128.855C41.3412 128.788 41.3596 128.721 41.3998 128.667C41.4399 128.613 41.4989 128.576 41.565 128.563L45.0647 128.203C45.1321 128.202 45.1974 128.227 45.2477 128.271C45.298 128.316 45.3297 128.378 45.3366 128.445C45.3435 128.512 45.3251 128.579 45.2849 128.634C45.2448 128.688 45.1858 128.725 45.1197 128.738Z" fill="white"/>
<path d="M31.5 94.7472L34.7697 119.671C34.931 120.901 35.4925 122.045 36.3678 122.926C37.243 123.807 38.3836 124.376 39.6142 124.546C40.3875 124.653 41.1745 124.599 41.9261 124.388C42.6776 124.177 43.3775 123.813 43.9819 123.319C44.5863 122.826 45.0822 122.212 45.4387 121.518C45.7951 120.824 46.0044 120.064 46.0535 119.286L47.6283 94.3076L42.1289 91.3701L31.5 94.7472Z" fill="#1E394C"/>
<path d="M41.665 86.3795L44.3348 142.83L53.1588 143.375L55.3886 84.5161C55.3886 84.5161 46.5945 79.3706 41.665 86.3795Z" fill="#1E394C"/>
<path d="M53.6037 152.542C53.3426 152.684 53.058 152.777 52.7638 152.817C50.4698 153.107 48.1485 153.107 45.8545 152.817C45.506 152.798 45.1654 152.706 44.8546 152.547C44.2797 152.013 46.0595 145.054 46.0595 145.054V142.936L51.9839 143.28L52.1188 144.434C52.1188 144.434 54.6736 151.788 53.6037 152.542Z" fill="#1E394C"/>
<path d="M52.7628 152.817C50.4688 153.107 48.1475 153.107 45.8535 152.817C46.5184 151.608 47.9733 149.43 49.3082 149.32C50.643 149.21 52.0779 151.538 52.7628 152.817Z" fill="white"/>
<path d="M50.9978 145.509H47.3232C47.285 145.514 47.2462 145.511 47.2092 145.5C47.1723 145.489 47.1382 145.47 47.1091 145.445C47.0801 145.419 47.0568 145.388 47.0408 145.353C47.0249 145.318 47.0166 145.28 47.0166 145.241C47.0166 145.203 47.0249 145.165 47.0408 145.13C47.0568 145.095 47.0801 145.063 47.1091 145.038C47.1382 145.013 47.1723 144.994 47.2092 144.983C47.2462 144.972 47.285 144.969 47.3232 144.974H50.9978C51.036 144.969 51.0749 144.972 51.1118 144.983C51.1488 144.994 51.1829 145.013 51.212 145.038C51.241 145.063 51.2643 145.095 51.2803 145.13C51.2962 145.165 51.3045 145.203 51.3045 145.241C51.3045 145.28 51.2962 145.318 51.2803 145.353C51.2643 145.388 51.241 145.419 51.212 145.445C51.1829 145.47 51.1488 145.489 51.1118 145.5C51.0749 145.511 51.036 145.514 50.9978 145.509Z" fill="white"/>
<path d="M50.9283 147.156H47.4286C47.364 147.147 47.3047 147.115 47.2618 147.066C47.2189 147.017 47.1953 146.954 47.1953 146.889C47.1953 146.824 47.2189 146.761 47.2618 146.712C47.3047 146.662 47.364 146.63 47.4286 146.622H50.9283C50.9665 146.616 51.0053 146.619 51.0423 146.63C51.0792 146.641 51.1133 146.66 51.1424 146.686C51.1714 146.711 51.1947 146.742 51.2107 146.777C51.2266 146.812 51.2349 146.85 51.2349 146.889C51.2349 146.927 51.2266 146.966 51.2107 147.001C51.1947 147.036 51.1714 147.067 51.1424 147.092C51.1133 147.118 51.0792 147.136 51.0423 147.147C51.0053 147.158 50.9665 147.161 50.9283 147.156Z" fill="white"/>
<path d="M51.2886 64.5639C51.2876 64.5822 51.2876 64.6006 51.2886 64.6189C51.2886 64.7338 51.3186 65.0435 51.3636 65.5131C51.4235 66.1326 51.5185 67.0418 51.6685 68.1458C51.7185 68.5505 51.7785 68.9851 51.8485 69.4397C51.9185 69.8943 51.9935 70.3839 52.0785 70.8834C52.2051 71.6128 52.3451 72.3721 52.4984 73.1614C53.2081 77.0004 54.3572 80.7451 55.9231 84.3217C56.2135 84.9563 56.3017 85.6647 56.1756 86.351C56.0495 87.0374 55.7152 87.6683 55.2182 88.1584C52.7184 90.6562 46.719 94.5428 33.1754 95.1523C32.5698 95.1816 31.9674 95.0494 31.4297 94.7694C30.8921 94.4893 30.4386 94.0715 30.1158 93.5587C29.7154 92.9394 29.5309 92.2054 29.5908 91.4705C29.6308 90.921 29.6708 90.3865 29.7008 89.8619C29.8858 86.8645 29.9358 84.3667 29.8958 82.1087V82.0137C29.8506 79.4982 29.672 76.9869 29.3608 74.4903L26.5361 57.2653C26.5361 57.2653 32.9455 49.9566 41.7546 49.8717C50.5636 49.7868 61.8075 58.729 61.8075 58.729L68.7567 63.1352L75.4411 62.0711L76.8959 70.5287C72.448 71.3954 67.8669 71.312 63.4536 70.284C59.0402 69.2559 54.8944 67.3066 51.2886 64.5639Z" fill="#CEE5ED"/>
<path opacity="0.67" d="M30.3904 60.7773C30.8903 66.6772 32.7051 69.7196 34.345 73.5562L43.204 71.0934L29.8304 81.3694L26.0908 78.0973L30.3904 60.7773Z" fill="#7DBFD6"/>
<path opacity="0.67" d="M51.8524 69.4394C49.1476 67.1015 48.3027 62.6953 48.3027 62.6953L51.3024 64.6186C51.3024 64.7335 51.3324 65.0433 51.3774 65.5129C51.4374 66.1323 51.5324 67.0415 51.6824 68.1456C51.7224 68.5502 51.7824 68.9848 51.8524 69.4394Z" fill="#7DBFD6"/>
<path opacity="0.67" d="M46.1985 75.5195C42.6488 81.7891 37.0294 87.594 29.7002 89.8621C29.8852 86.8647 29.9352 84.3668 29.8952 82.1088V82.0139L46.1985 75.5195Z" fill="#7DBFD6"/>
<path d="M43.7744 71.2833L44.6043 70.8836L45.5392 68.0811C45.5392 68.0811 45.9392 65.6731 46.0092 65.0837C46.0792 64.4942 47.379 66.4225 47.0441 68.2909C47.0441 68.2909 48.4789 67.022 49.0839 67.1569C49.6888 67.2917 49.5138 68.5706 49.5138 68.5706C50.0302 68.8799 50.4463 69.3314 50.7123 69.871C50.9783 70.4106 51.083 71.0155 51.0137 71.613C50.8087 73.7411 46.9391 74.4006 46.9391 74.4006L45.8692 74.9351L43.7744 71.2833Z" fill="#FC9F9F"/>
<path d="M46.1989 75.5139L43.5642 70.9079L32.1254 76.7978C30.9215 70.8942 30.6181 64.8426 31.2255 58.8484C31.0853 58.3404 30.9184 57.8401 30.7255 57.3497C29.8506 55.4663 26.181 55.851 24.3862 60.5519C20.5516 70.5732 23.7212 83.7167 29.7356 84.8058C36.4999 86.0098 46.1989 75.5139 46.1989 75.5139Z" fill="#CEE5ED"/>
<path d="M100.638 64.4789C100.428 72.1222 102.528 75.4244 102.528 75.4244C102.528 75.4244 104.933 77.1179 104.933 78.097C104.925 78.5207 104.858 78.9412 104.733 79.346C104.666 79.5575 104.586 79.7644 104.493 79.9654C104.749 80.6344 105.084 81.2701 105.493 81.8588C105.914 82.4846 106.389 83.073 106.912 83.6172C93.0089 97.0656 75.5407 89.7619 75.5407 89.7619L75.5907 89.642L76.7006 86.9144C76.7006 86.9144 74.2008 85.7554 76.0756 82.9978C77.9504 80.2402 75.4557 62.071 75.4557 62.071L68.7714 63.1351L66.1816 56.1012C68.5676 54.0577 71.0717 52.1561 73.6809 50.4061C78.0454 47.4687 85.9796 48.7126 85.9796 48.7126C95.4236 47.3738 101.478 50.9407 104.693 51.74C107.907 52.5393 111.192 53.4685 111.192 53.4685L109.492 65.0983L105.173 64.4789L100.673 63.8294C100.653 64.0493 100.648 64.2641 100.638 64.4789Z" fill="url(#paint2_linear)"/>
<path opacity="0.53" d="M82.5693 61.8011C82.5693 61.8011 84.0692 76.5833 83.2793 81.8387C83.2793 81.8387 91.3134 84.8661 98.7477 80.5898C98.7477 80.5898 96.2929 67.681 95.843 61.2666C95.843 61.2666 91.5684 64.0292 82.5693 61.8011Z" fill="#F4D65B"/>
<path opacity="0.5" d="M68.7559 63.1392L76.0601 57.9287L75.4352 62.0701L68.7559 63.1392Z" fill="#F6613A"/>
<path opacity="0.5" d="M105.157 64.4792L100.658 63.8297C100.658 64.0495 100.658 64.2644 100.633 64.4792V58.4844C100.633 58.4844 102.663 62.9455 105.157 64.4792Z" fill="#F6613A"/>
<path opacity="0.5" d="M105.493 81.8584C100.718 85.2205 94.1689 85.2205 94.1689 85.2205C102.813 83.2622 104.743 79.3506 104.743 79.3506C104.677 79.5621 104.596 79.7691 104.503 79.9701C104.756 80.6368 105.088 81.2708 105.493 81.8584Z" fill="#F6613A"/>
<path opacity="0.5" d="M82.2055 87.8932C82.2055 87.8932 78.7058 89.6467 75.5762 89.6417L76.6861 86.9141L82.2055 87.8932Z" fill="#F6613A"/>
<path opacity="0.5" d="M83.37 47.2939C83.37 47.2939 82.7901 59.4883 89.8293 58.5591C96.0937 57.7399 92.0241 50.0965 92.0241 50.0965L83.37 47.2939Z" fill="#F6613A"/>
<path d="M84.4945 50.0963C82.0784 48.3024 80.2399 45.8419 79.205 43.0175C77.6452 38.4764 80.5449 37.7671 80.5449 37.7671C80.5449 37.7671 78.6251 36.6081 79.045 35.8937C79.465 35.1793 80.6049 35.8937 80.6049 35.8937C80.6049 35.8937 82.2097 32.1569 84.1295 31.4426C86.0493 30.7282 84.7045 33.5357 84.7045 33.5357C84.7045 33.5357 87.2892 31.1778 90.3189 32.2419C93.3485 33.3059 94.2735 35.2393 96.4232 36.3833C97.9231 37.1876 97.8981 39.1009 93.5285 38.3016C93.5285 38.3016 96.2733 38.7112 96.5282 39.5555C96.7832 40.3998 91.2038 40.7145 91.2038 40.7145L84.4945 50.0963Z" fill="url(#paint3_linear)"/>
<path d="M91.9139 55.0462C91.679 56.2202 90.979 57.3942 89.1192 57.3942C85.4046 57.3942 84.4697 49.541 84.4697 49.541L91.9239 52.7133C92.0545 53.4857 92.0511 54.2749 91.9139 55.0462Z" fill="#FEB19E"/>
<path d="M91.9139 55.047C90.5391 55.1819 86.0946 55.1569 84.4697 49.5518L91.9239 52.724C92.0533 53.4932 92.0499 54.2789 91.9139 55.047Z" fill="#FF856A"/>
<path d="M93.5734 40.4339C93.5734 40.4339 94.8533 46.4287 93.6034 50.5801C93.3826 51.3192 92.9145 51.96 92.2775 52.3956C91.6405 52.8312 90.8731 53.035 90.1038 52.973C87.864 52.8032 84.6443 51.7341 83.3645 47.293C83.3645 47.293 81.7946 46.134 82.2946 44.4304C82.7945 42.7269 84.3344 43.831 84.2644 45.4695C84.2644 45.4695 86.0692 43.851 85.0693 40.4339C85.0693 40.4339 87.809 41.6928 88.7439 41.2932C89.6788 40.8935 87.709 39.5547 87.709 39.5547C89.5141 40.4833 91.575 40.7923 93.5734 40.4339Z" fill="#FEB19E"/>
<path d="M100.992 49.3466C100.992 49.3466 99.6722 47.9029 98.7273 49.1718C98.7273 49.1718 97.9374 47.8629 97.2625 48.8421C96.5875 49.8212 96.6825 52.9835 99.2623 52.9835C99.8757 52.996 100.484 52.8674 101.039 52.6075C101.595 52.3476 102.084 51.9634 102.467 51.4848C102.508 51.3902 102.578 51.3106 102.666 51.2571C102.754 51.2036 102.857 51.1787 102.96 51.1858C103.063 51.1929 103.161 51.2317 103.241 51.2969C103.321 51.362 103.379 51.4503 103.407 51.5497C103.602 51.9943 103.552 52.8785 103.737 52.8985C104.097 52.9435 105.342 52.4339 104.737 50.2558C104.602 49.7563 103.137 49.8812 103.137 49.8812C103.137 49.8812 102.307 48.2875 100.992 49.3466Z" fill="#D6806A"/>
<path d="M45.3242 41.9981C45.3242 41.9981 48.6039 41.3037 49.0638 37.9317C49.3238 36.0033 46.994 37.537 46.994 37.537C47.3734 36.8984 47.614 36.1872 47.7001 35.4496C47.7863 34.7119 47.716 33.9644 47.494 33.2557C46.7041 30.9777 46.0941 31.6172 44.4943 33.2557C44.0502 33.7269 43.5036 34.0895 42.8967 34.3156C42.2898 34.5418 41.639 34.6252 40.9946 34.5596C40.9946 34.5596 41.8446 33.8003 41.5696 32.981C41.2946 32.1617 38.2599 34.0151 35.6152 34.3498C32.9705 34.6845 29.2009 37.2572 31.0857 42.0281C31.0857 42.0281 28.8959 46.8889 36.9301 51.8546C44.9642 56.8202 45.3242 41.9981 45.3242 41.9981Z" fill="url(#paint4_linear)"/>
<path d="M45.0592 56.3659C44.8142 57.6148 44.1493 58.7688 42.6395 59.1735C39.3848 60.0527 36.8451 53.2636 36.2001 51.3453C36.0902 51.0305 36.0352 50.8457 36.0352 50.8457L44.8692 52.4043C45.2 53.6984 45.2646 55.0461 45.0592 56.3659Z" fill="#FC9F9F"/>
<path d="M45.0592 56.3663C43.6444 56.8659 39.9797 57.3105 36.2001 51.3707C36.0902 51.0559 36.0352 50.8711 36.0352 50.8711L44.8692 52.4297C45.1966 53.7158 45.2612 55.0547 45.0592 56.3663Z" fill="#F97575"/>
<path d="M45.3234 41.9976C45.3234 41.9976 46.7282 48.0423 44.7834 52.6683C44.5653 53.1835 44.1869 53.6148 43.7042 53.8983C43.2215 54.1817 42.6603 54.3022 42.1037 54.2419C39.8239 54.0071 36.1043 52.8831 35.1044 48.1322C35.1044 48.1322 33.7046 46.9783 33.7646 45.5845C33.8246 44.1907 36.1943 44.7952 36.4993 47.0832C36.4993 47.0832 38.4991 45.8642 37.0492 42.5271C37.0492 42.5271 39.629 43.6511 40.3289 43.0716C41.0288 42.4922 39.7839 41.2832 39.7839 41.2832C41.4796 42.1942 43.4518 42.4486 45.3234 41.9976Z" fill="#FC9F9F"/>
<path d="M139.32 48.4128C139.32 48.4128 143.924 42.2981 140.849 37.6222C140.849 37.6222 142.229 36.8229 141.909 36.1535C141.589 35.484 139.58 36.1535 139.58 36.1535C139.58 36.1535 138.81 31.2128 134.62 30.948C130.43 30.6832 131.49 32.0121 131.49 32.0121C131.49 32.0121 130.221 31.8822 127.146 33.1511C124.071 34.42 122.066 38.6912 124.071 38.4265C124.071 38.4265 122.116 42.8426 126.801 45.6452L139.32 48.4128Z" fill="url(#paint5_linear)"/>
<path d="M140.149 51.0855C139.82 52.1321 139.288 53.1037 138.583 53.9446C137.877 54.7855 137.013 55.4792 136.04 55.9862C133.67 57.2201 132.425 56.6207 132.125 55.5116C132.007 55.0046 132.044 54.474 132.23 53.9879C132.379 53.5419 132.428 53.0686 132.373 52.6016C132.319 52.1347 132.162 51.6853 131.915 51.2853C131.9 51.2536 131.881 51.2235 131.86 51.1954C131.753 51.0184 131.631 50.8512 131.495 50.6958L137.569 45.6552L138.489 44.8809C138.544 46.4013 138.832 47.9043 139.344 49.337C139.419 49.5518 139.504 49.7616 139.594 49.9764C139.755 50.3577 139.94 50.7282 140.149 51.0855Z" fill="#D6806A"/>
<path d="M132.125 55.5109C132.007 55.0039 132.044 54.4734 132.23 53.9873C132.875 52.1639 131.495 50.6851 131.495 50.6851L137.569 45.6445C137.638 45.9284 137.683 46.2175 137.704 46.5088C138.149 51.5544 134.24 54.3719 132.125 55.5109Z" fill="#C15C48"/>
<path d="M126.236 41.9635C126.729 45.3071 127.695 48.5635 129.106 51.6351C129.408 52.2621 129.941 52.7481 130.593 52.9912C131.246 53.2342 131.967 53.2155 132.606 52.939C135.105 51.8599 138.71 49.507 138.505 44.901C138.505 44.901 140.33 45.2607 140.155 42.9876C139.98 40.7146 138.015 39.7355 137.925 43.4323C137.925 43.4323 136.5 43.3873 136.055 39.4707C136.055 39.4707 133.201 41.0293 132.266 40.0052C132.266 40.0052 130.441 42.2733 129.326 42.2283C128.211 42.1833 129.016 40.4049 129.016 40.4049C129.016 40.4049 128.376 41.409 126.236 41.9635Z" fill="#D6806A"/>
<defs>
<linearGradient id="paint0_linear" x1="109.052" y1="56.8602" x2="108.074" y2="50.1808" gradientUnits="userSpaceOnUse">
<stop stop-color="#359DE6"/>
<stop offset="1" stop-color="#49B8EF"/>
</linearGradient>
<linearGradient id="paint1_linear" x1="16816.3" y1="7767.53" x2="17235" y2="4321.25" gradientUnits="userSpaceOnUse">
<stop stop-color="#359DE6"/>
<stop offset="1" stop-color="#49B8EF"/>
</linearGradient>
<linearGradient id="paint2_linear" x1="93.6988" y1="81.2543" x2="86.4003" y2="42.7807" gradientUnits="userSpaceOnUse">
<stop stop-color="#F79239"/>
<stop offset="1" stop-color="#F7C759"/>
</linearGradient>
<linearGradient id="paint3_linear" x1="78.7201" y1="40.7145" x2="97.2831" y2="40.7145" gradientUnits="userSpaceOnUse">
<stop stop-color="#3F2323"/>
<stop offset="1" stop-color="#5E3434"/>
</linearGradient>
<linearGradient id="paint4_linear" x1="40.3097" y1="49.3767" x2="39.6857" y2="35.4837" gradientUnits="userSpaceOnUse">
<stop stop-color="#1B3151"/>
<stop offset="1" stop-color="#23406D"/>
</linearGradient>
<linearGradient id="paint5_linear" x1="137.315" y1="47.1339" x2="127.772" y2="30.1574" gradientUnits="userSpaceOnUse">
<stop stop-color="#382E2C"/>
<stop offset="1" stop-color="#534143"/>
</linearGradient>
</defs>
</svg>
