<svg width="203" height="195" viewBox="0 0 203 195" fill="none" xmlns="http://www.w3.org/2000/svg">
<g clip-path="url(#clip0)">
<path opacity="0.42" d="M43.0737 190.201H159.926C185.972 172.27 203 142.694 203 109.22C203 54.505 157.561 2.29688 101.506 2.29688C45.4513 2.29688 0 54.505 0 109.22C0 142.694 17.0277 172.27 43.0737 190.201Z" fill="url(#paint0_linear)"/>
<path opacity="0.43" d="M99.2607 194.71C145.811 194.71 183.547 192.825 183.547 190.5C183.547 188.175 145.811 186.29 99.2607 186.29C52.7108 186.29 14.9746 188.175 14.9746 190.5C14.9746 192.825 52.7108 194.71 99.2607 194.71Z" fill="#CEE5ED"/>
<path d="M61.2989 175.703L60.7411 179.018L63.4012 182.284L70.3088 179.239L71.1025 176.204L62.5646 174.892L61.2989 175.703Z" fill="#F2BF75"/>
<path d="M66.8099 187.594L67.5884 186.69C67.6227 186.653 67.6643 186.624 67.7106 186.605C67.7569 186.585 67.8069 186.575 67.8574 186.575C67.9079 186.575 67.9579 186.585 68.0042 186.605C68.0505 186.624 68.0921 186.653 68.1264 186.69L68.8705 187.572C69.0207 187.747 69.2081 187.887 69.4197 187.984C69.6313 188.08 69.8619 188.13 70.0954 188.131L87.1183 188.108C87.2027 188.026 87.2698 187.929 87.3155 187.821C87.3612 187.714 87.3848 187.599 87.3848 187.483C87.3848 187.366 87.3612 187.251 87.3155 187.144C87.2698 187.037 87.2027 186.939 87.1183 186.857C84.657 184.366 71.286 179.931 70.622 179.574C69.9581 179.216 65.814 182.266 60.4106 179.328C59.8878 181.582 59.5055 183.865 59.2659 186.165C59.247 186.424 59.2831 186.685 59.3717 186.93C59.4603 187.175 59.5996 187.4 59.781 187.591C59.9624 187.781 60.182 187.934 60.4262 188.038C60.6704 188.142 60.9339 188.197 61.2005 188.198H65.5278C65.7755 188.206 66.0216 188.155 66.2449 188.05C66.4682 187.945 66.6621 187.789 66.8099 187.594Z" fill="#1E394C"/>
<path d="M31.7876 175.864L31.1379 179.837L34.178 183.762L42.0724 180.101L42.9795 176.476L33.2341 174.892L31.7876 175.864Z" fill="#F2BF75"/>
<path d="M37.9991 187.584L38.8469 186.679C38.8824 186.64 38.9276 186.608 38.9791 186.586C39.0306 186.564 39.087 186.552 39.1442 186.552C39.2014 186.552 39.2578 186.564 39.3093 186.586C39.3608 186.608 39.406 186.64 39.4415 186.679L40.2767 187.55C40.4402 187.728 40.6466 187.872 40.8808 187.97C41.115 188.069 41.3711 188.12 41.6305 188.12H60.4456C60.6349 187.953 60.7412 187.726 60.7412 187.489C60.7412 187.252 60.6349 187.025 60.4456 186.858C57.7252 184.367 42.9464 179.943 42.2126 179.574C41.4787 179.205 36.8983 182.266 30.926 179.328C30.3474 181.586 29.9249 183.873 29.6607 186.176C29.6435 186.436 29.6864 186.695 29.7866 186.939C29.8868 187.183 30.0423 187.407 30.2436 187.596C30.4449 187.785 30.6878 187.936 30.9574 188.04C31.227 188.143 31.5177 188.197 31.8118 188.198H36.6705C36.9301 188.191 37.1845 188.132 37.4146 188.026C37.6447 187.919 37.8445 187.768 37.9991 187.584Z" fill="#1E394C"/>
<path d="M73.1096 46.2734L78.6833 66.8658L93.8415 57.0639L100.707 62.34L80.9102 80.2764L66.6625 67.497L73.1096 46.2734Z" fill="#BBD5DE"/>
<path d="M93.3056 57.2232L97.7841 48.7148C97.8986 48.4986 98.0581 48.3075 98.2527 48.1533C98.4473 47.9991 98.6727 47.8852 98.915 47.8186C99.1573 47.7521 99.4112 47.7344 99.661 47.7666C99.9107 47.7988 100.151 47.8802 100.366 48.0058C101.576 48.6952 102.531 49.7326 103.098 50.9721C103.664 52.2115 103.812 53.5907 103.523 54.9158C102.911 57.6318 101.888 60.8404 100.242 62.5349L93.3056 57.2232Z" fill="#F2BF75"/>
<path d="M98.9089 40.7371L104.059 40.3594C104.804 40.3594 105.274 40.7371 105.117 41.3272L101.523 54.3698C101.401 54.6899 101.18 54.9716 100.886 55.1809C100.591 55.3903 100.236 55.5185 99.863 55.5501L94.7264 55.9279C93.5239 56.0223 92.8442 57.9344 93.6677 54.9718L97.2751 41.9056C97.3941 41.5895 97.6115 41.3112 97.9013 41.1039C98.1911 40.8966 98.5409 40.7693 98.9089 40.7371Z" fill="#1E394C"/>
<path d="M93.4843 56.6216L92.1096 53.9006C91.8285 53.5668 91.7535 53.1813 91.8984 52.8159C92.0433 52.4505 92.3984 52.1301 92.8976 51.9141L95.1943 50.8795C95.5277 50.7436 95.9287 50.6855 96.3252 50.7159C96.7217 50.7462 97.0876 50.863 97.357 51.0451C97.4998 51.1505 97.6071 51.2725 97.6727 51.4038C97.7383 51.5352 97.7608 51.6733 97.739 51.81C97.7171 51.9468 97.6513 52.0795 97.5455 52.2004C97.4396 52.3213 97.2957 52.428 97.1223 52.5142L96.0661 53.0108L94.9932 53.5178L97.5749 55.9491L93.4843 56.6216Z" fill="#F2BF75"/>
<path d="M31.1374 176.37C31.1374 171.722 36.5111 94.3078 36.5111 94.3078C36.5111 94.3078 47.3542 83.6993 53.2665 84.8192C59.1668 83.6993 72.583 91.5623 72.583 91.5623C72.583 91.5623 72.2958 171.722 72.2958 176.37H59.5019C59.5019 176.37 59.4181 139.463 54.4394 112.815C54.3712 112.574 54.2297 112.36 54.0346 112.203C53.8395 112.046 53.6005 111.955 53.3512 111.941C53.1018 111.928 52.8546 111.994 52.6441 112.129C52.4337 112.264 52.2705 112.462 52.1774 112.695C47.1627 139.403 43.9194 176.37 43.9194 176.37H31.1374Z" fill="#1E394C"/>
<path d="M52.7491 34.4453C52.7491 34.4453 37.3525 38.105 35.2141 40.5052C33.0757 42.9053 25.0842 57.7935 25.2186 62.8078C25.3897 68.7488 35.7518 81.2249 35.5441 80.4882V98.2281C35.5441 98.2281 59.1399 105.357 73.4245 96.6359C73.4245 96.6359 75.0619 51.1752 73.0945 46.1135C72.4958 44.5569 64.7364 37.9862 62.4391 37.1901C60.1419 36.394 52.7491 34.4453 52.7491 34.4453Z" fill="#CEE5ED"/>
<path d="M25.2191 62.6288C25.3872 67.8335 34.1166 78.302 35.8495 79.9897L36.134 80.1785L41.6561 84.7105L48.2904 79.2462C48.2904 79.2462 36.0564 71.2915 37.6988 61.0827C38.8886 53.907 47.0619 41.0191 47.0619 41.0191C50.0423 39.2933 52.6685 37.1044 54.8213 34.5515L54.3687 34.4453C54.3687 34.4453 38.0739 38.0804 35.8107 40.4526C33.5475 42.8248 25.0768 57.6837 25.2191 62.6288Z" fill="#CEE5ED"/>
<path d="M53.341 25.5742V36.3077C53.341 36.3077 56.7112 47.0412 64.4901 38.5975L65.1826 29.9749L53.341 25.5742Z" fill="#EA9249"/>
<path d="M73.407 15.9692C73.407 15.9692 87.2091 13.1463 78.6857 1.80805C78.6857 1.80805 77.2208 7.82714 69.7507 2.67126C65.9491 0.0349896 60.3072 -0.618244 54.0115 2.67126C47.2678 6.17072 44.9191 16.9841 50.682 22.6182L61.9658 20.4252L73.407 15.9692Z" fill="#1E394C"/>
<path d="M73.9996 16.8376C73.9996 16.8376 75.5704 35.6113 63.1374 34.3872C53.3956 33.4297 53.7487 26.0972 53.7487 26.0972C53.7487 26.0972 50.5705 25.4427 50.4 22.6067C50.2295 19.7706 51.1428 17.4073 54.0532 19.2737C54.0532 19.2737 59.1189 16.0256 59.4477 13.7471C63.984 15.9096 68.9715 16.9689 73.9996 16.8376Z" fill="#F2BF75"/>
<path d="M57.622 96.1174C57.9436 96.5379 58.0657 97.0545 57.9617 97.5548C57.8578 98.055 57.5362 98.4985 57.067 98.7888L54.7279 100.448C54.3116 100.797 53.7571 100.986 53.1852 100.973C52.6134 100.96 52.0706 100.746 51.6752 100.377L44.4597 92.3752L51.358 87.668L58.8642 92.3752C58.9869 92.451 59.0871 92.5522 59.1563 92.67C59.2256 92.7879 59.2617 92.9189 59.2617 93.0518C59.2617 93.1848 59.2256 93.3158 59.1563 93.4337C59.0871 93.5515 58.9869 93.6527 58.8642 93.7285C58.4718 93.9503 57.9991 94.0302 57.5427 93.9521C56.7758 93.8879 56.0661 93.5634 55.5604 93.046L57.622 96.1174Z" fill="#F6BA8E"/>
<path d="M53.3408 87.8201L45.7933 93.5805C45.7933 93.5805 25.3037 72.0758 25.217 63.8634C25.217 59.241 31.0942 48.1074 34.7937 42.1006C34.7937 42.1006 38.3688 41.5073 40.5129 42.1006C42.5076 42.6526 45.0555 44.7277 45.0555 44.7277C45.0555 44.7277 38.6046 55.6276 35.7093 62.1154C35.4501 62.7238 35.3561 63.3843 35.4361 64.0362C35.5161 64.688 35.7674 65.3104 36.1671 65.8461C39.6192 70.6445 49.8393 84.6173 53.3408 87.8201Z" fill="url(#paint1_linear)"/>
<path d="M33.9482 41.8369C33.9482 41.8369 27.0557 59.7173 27.0895 63.3359C27.0895 70.4079 42.0815 87.3454 45.9395 91.9422L43.9766 93.5805C43.9766 93.5805 25.2959 71.9755 25.2169 63.7248C25.1718 59.0573 30.5752 47.8717 33.9482 41.8369Z" fill="#B4CCD3"/>
<path d="M37.0587 57.296L37.4283 57.4312L40.1795 58.1006L40.8443 57.296L39.7243 56.5413C39.7243 56.5413 43.5099 45.9758 42.9163 46.2799C42.3227 46.584 37.0587 57.296 37.0587 57.296Z" fill="#B4CCD3"/>
<path d="M68.0388 31.6396C68.9929 30.5115 69.5662 29.1497 69.6876 27.7236C70.3007 27.7436 70.9138 27.6821 71.5079 27.5412C71.7057 27.3466 71.0066 22.1414 71.1386 21.2292C71.2177 20.5847 71.587 18.0793 71.7981 16.7051C72.7214 16.7051 72.9984 16.7902 73.9877 16.778C73.9877 16.778 75.7552 35.6165 62.2219 34.3882C65.5195 34.4368 66.6011 33.0504 68.0388 31.6396Z" fill="#EA9249"/>
<path d="M176.85 9.19531H91.2503C90.6617 9.19531 90.1846 9.67188 90.1846 10.2598V162.194C90.1846 162.782 90.6617 163.258 91.2503 163.258H176.85C177.439 163.258 177.916 162.782 177.916 162.194V10.2598C177.916 9.67188 177.439 9.19531 176.85 9.19531Z" fill="url(#paint2_linear)"/>
<path d="M172.32 20.2236H95.7786C95.19 20.2236 94.7129 20.7002 94.7129 21.2881V150.204C94.7129 150.792 95.19 151.268 95.7786 151.268H172.32C172.908 151.268 173.385 150.792 173.385 150.204V21.2881C173.385 20.7002 172.908 20.2236 172.32 20.2236Z" fill="#62BDF4"/>
<path d="M138.586 157.152C138.589 158.051 138.325 158.93 137.827 159.679C137.329 160.428 136.619 161.012 135.788 161.357C134.957 161.702 134.042 161.793 133.159 161.619C132.276 161.444 131.465 161.012 130.829 160.376C130.193 159.74 129.76 158.93 129.585 158.048C129.41 157.167 129.501 156.253 129.847 155.423C130.193 154.593 130.777 153.884 131.527 153.387C132.276 152.889 133.157 152.625 134.057 152.628C135.258 152.628 136.41 153.105 137.26 153.953C138.109 154.801 138.586 155.952 138.586 157.152Z" fill="black"/>
<path d="M134.946 12.5062C134.946 12.7414 134.853 12.9671 134.686 13.1334C134.519 13.2998 134.294 13.3932 134.058 13.3932C133.822 13.3932 133.597 13.2998 133.43 13.1334C133.263 12.9671 133.17 12.7414 133.17 12.5062C133.17 12.2709 133.263 12.0453 133.43 11.8789C133.597 11.7126 133.822 11.6191 134.058 11.6191C134.294 11.6191 134.519 11.7126 134.686 11.8789C134.853 12.0453 134.946 12.2709 134.946 12.5062Z" fill="black"/>
<path d="M144.759 16.7051H123.341C123.306 16.7051 123.271 16.6982 123.239 16.6848C123.206 16.6714 123.177 16.6518 123.152 16.6271C123.128 16.6024 123.108 16.5731 123.095 16.5408C123.081 16.5085 123.074 16.4739 123.074 16.439C123.074 16.404 123.081 16.3694 123.095 16.3371C123.108 16.3048 123.128 16.2755 123.152 16.2508C123.177 16.2261 123.206 16.2065 123.239 16.1931C123.271 16.1797 123.306 16.1729 123.341 16.1729H144.759C144.83 16.1729 144.898 16.2009 144.948 16.2508C144.997 16.3007 145.026 16.3684 145.026 16.439C145.026 16.5095 144.997 16.5772 144.948 16.6271C144.898 16.677 144.83 16.7051 144.759 16.7051Z" fill="black"/>
<path d="M72.9248 186.572C72.9248 186.218 73.058 185.937 73.058 185.922L72.9248 186.572Z" fill="#182142"/>
<path d="M154.395 74.7472H118.959C118.959 74.7472 117.39 87.5796 104.868 89.398C92.3452 91.2164 83.7748 86.6778 84.885 74.3628V71.2878C90.328 71.7686 95.7926 71.961 101.256 71.8643C107.177 71.5391 110.552 71.1991 111.455 70.0607C112.357 68.9223 114.829 58.9432 111.455 53.4288C108.08 47.9144 103.95 48.491 100.161 48.491C96.3713 48.491 80.474 47.4118 75.1897 49.3041C69.9054 51.1964 62.2231 58.3666 61.0982 71.1991C59.9732 84.0315 63.5701 97.2187 72.6437 106.193C81.7174 115.166 92.0047 120.755 110.226 119.942C128.447 119.128 141.71 109.149 147.305 99.3624C152.9 89.5754 154.721 80.0102 154.395 74.7472ZM89.1183 54.4933C90.3291 57.4402 90.5878 60.6913 89.8584 63.7923C89.8584 63.7923 87.7122 61.9887 89.1183 58.3666H85.8175C86.0183 57.5048 86.4227 56.7034 86.9969 56.0295C87.5712 55.3557 88.2986 54.8289 89.1183 54.4933Z" fill="url(#paint3_linear)"/>
<path d="M157.236 74.3617C157.229 74.4841 157.197 74.6038 157.143 74.714C157.089 74.8241 157.014 74.9225 156.922 75.0036C156.829 75.0846 156.722 75.1467 156.606 75.1862C156.49 75.2258 156.367 75.242 156.244 75.234H115.509C115.387 75.242 115.264 75.2258 115.148 75.1862C115.031 75.1467 114.924 75.0846 114.832 75.0036C114.74 74.9225 114.665 74.8241 114.611 74.714C114.557 74.6038 114.525 74.4841 114.518 74.3617V71.9963C114.525 71.8739 114.557 71.7542 114.611 71.6441C114.665 71.5339 114.74 71.4355 114.832 71.3545C114.924 71.2734 115.031 71.2113 115.148 71.1718C115.264 71.1323 115.387 71.116 115.509 71.1241H156.244C156.367 71.116 156.49 71.1323 156.606 71.1718C156.722 71.2113 156.829 71.2734 156.922 71.3545C157.014 71.4355 157.089 71.5339 157.143 71.6441C157.197 71.7542 157.229 71.8739 157.236 71.9963V74.3617Z" fill="#1E394C"/>
<path d="M71.3106 89.8276C71.254 89.8216 71.2014 89.7953 71.1626 89.7537C71.146 89.7372 71.1329 89.7177 71.1239 89.6961C71.115 89.6745 71.1104 89.6514 71.1104 89.6281C71.1104 89.6047 71.115 89.5816 71.1239 89.56C71.1329 89.5385 71.146 89.5189 71.1626 89.5024C74.031 87.3357 77.0592 85.3885 80.2214 83.6775C80.2428 83.6677 80.2659 83.6621 80.2894 83.6613C80.3129 83.6604 80.3364 83.6642 80.3584 83.6724C80.3804 83.6807 80.4006 83.6932 80.4178 83.7093C80.4349 83.7254 80.4487 83.7448 80.4582 83.7663C80.4788 83.8115 80.4811 83.8629 80.4645 83.9098C80.448 83.9566 80.4139 83.9953 80.3694 84.0176C77.2349 85.7189 74.2317 87.651 71.3846 89.7981L71.3106 89.8276Z" fill="#36477F"/>
<path d="M86.8985 99.5828C86.8605 99.5828 86.8234 99.5716 86.7918 99.5505C86.7602 99.5295 86.7355 99.4996 86.7209 99.4645C86.7042 99.4249 86.7025 99.3806 86.7161 99.3398C86.7298 99.299 86.7577 99.2645 86.7949 99.2428C87.6607 96.6193 88.3772 93.949 88.9412 91.2447C88.9445 91.2197 88.9532 91.1957 88.9665 91.1743C88.9799 91.1529 88.9977 91.1346 89.0187 91.1206C89.0397 91.1066 89.0635 91.0973 89.0884 91.0932C89.1133 91.0891 89.1388 91.0903 89.1632 91.0969C89.1869 91.102 89.2093 91.1119 89.229 91.1261C89.2487 91.1402 89.2654 91.1582 89.2778 91.179C89.2903 91.1997 89.2984 91.2229 89.3016 91.2469C89.3048 91.2709 89.303 91.2953 89.2964 91.3186C87.387 99.4941 87.0761 99.4941 86.9577 99.568L86.8985 99.5828Z" fill="#36477F"/>
<path d="M107.679 98.3563C107.641 98.3563 107.604 98.345 107.572 98.324C107.541 98.3029 107.516 98.273 107.501 98.238L105.266 93.0489C105.254 93.027 105.247 93.0027 105.246 92.9777C105.245 92.9528 105.25 92.9279 105.26 92.905C105.27 92.8822 105.285 92.8619 105.304 92.8458C105.323 92.8298 105.346 92.8183 105.37 92.8123C105.391 92.8024 105.414 92.7969 105.438 92.796C105.462 92.7951 105.485 92.7989 105.507 92.8072C105.529 92.8154 105.549 92.828 105.566 92.8441C105.583 92.8602 105.597 92.8796 105.607 92.901L107.842 98.0902C107.863 98.1354 107.865 98.1868 107.848 98.2337C107.832 98.2806 107.798 98.3192 107.753 98.3415L107.679 98.3563Z" fill="#36477F"/>
<path d="M112.12 108.233C112.082 108.233 112.045 108.221 112.013 108.2C111.982 108.179 111.957 108.149 111.942 108.114C111.479 107.053 111.102 105.955 110.817 104.832C110.817 104.808 110.822 104.783 110.832 104.761C110.842 104.738 110.856 104.718 110.875 104.701C110.893 104.685 110.914 104.672 110.937 104.664C110.961 104.656 110.985 104.653 111.01 104.655C111.057 104.655 111.102 104.674 111.135 104.707C111.169 104.74 111.187 104.785 111.187 104.832C111.475 105.907 111.841 106.96 112.283 107.981C112.292 108.004 112.297 108.028 112.297 108.052C112.297 108.076 112.292 108.1 112.282 108.122C112.272 108.144 112.258 108.164 112.241 108.18C112.223 108.197 112.202 108.21 112.179 108.218L112.12 108.233Z" fill="#36477F"/>
<path d="M115.51 116.127C115.47 116.126 115.432 116.112 115.4 116.089C115.368 116.065 115.344 116.032 115.332 115.994L114.281 112.801C114.275 112.777 114.273 112.753 114.276 112.729C114.279 112.705 114.287 112.682 114.3 112.661C114.312 112.64 114.329 112.622 114.349 112.608C114.368 112.594 114.391 112.584 114.414 112.579C114.437 112.57 114.461 112.565 114.485 112.567C114.509 112.568 114.532 112.574 114.553 112.586C114.575 112.597 114.593 112.613 114.607 112.632C114.622 112.651 114.632 112.674 114.636 112.697L115.628 115.905C115.642 115.952 115.638 116.003 115.616 116.047C115.594 116.091 115.556 116.125 115.51 116.142V116.127Z" fill="#36477F"/>
<path d="M127.205 95.7554C127.161 95.7681 127.115 95.7681 127.071 95.7554C127.071 95.7554 121.639 91.0541 121.017 90.581C120.983 90.5452 120.964 90.4975 120.964 90.4479C120.964 90.3983 120.983 90.3507 121.017 90.3149C121.034 90.2983 121.054 90.2852 121.075 90.2763C121.097 90.2673 121.12 90.2627 121.143 90.2627C121.167 90.2627 121.19 90.2673 121.211 90.2763C121.233 90.2852 121.253 90.2983 121.269 90.3149C121.891 90.8027 127.19 95.3118 127.338 95.504C127.372 95.5398 127.391 95.5875 127.391 95.6371C127.391 95.6867 127.372 95.7344 127.338 95.7701C127.316 95.7773 127.293 95.7796 127.27 95.7771C127.247 95.7745 127.225 95.7671 127.205 95.7554Z" fill="#36477F"/>
<path d="M134.057 83.0264L126.656 80.6905C126.61 80.6737 126.572 80.6399 126.55 80.5958C126.528 80.5518 126.523 80.5011 126.538 80.454C126.544 80.4299 126.556 80.4075 126.572 80.3882C126.587 80.3689 126.607 80.3531 126.63 80.342C126.652 80.3308 126.676 80.3245 126.701 80.3234C126.726 80.3223 126.751 80.3265 126.774 80.3357L134.175 82.6716C134.223 82.6716 134.268 82.6903 134.301 82.7235C134.334 82.7568 134.353 82.8019 134.353 82.849C134.353 82.896 134.334 82.9412 134.301 82.9744C134.268 83.0077 134.223 83.0264 134.175 83.0264H134.057Z" fill="#36477F"/>
<path d="M110.138 65.6255H95.1727C95.1256 65.6255 95.0805 65.6068 95.0471 65.5735C95.0138 65.5402 94.9951 65.4951 94.9951 65.4481C94.995 65.3995 95.0132 65.3528 95.0462 65.3171C95.0791 65.2815 95.1243 65.2596 95.1727 65.2559H110.138C110.189 65.2559 110.238 65.2761 110.274 65.3121C110.31 65.3482 110.33 65.3971 110.33 65.4481C110.33 65.4726 110.325 65.497 110.315 65.5195C110.305 65.5421 110.291 65.5623 110.273 65.579C110.255 65.5957 110.233 65.6085 110.21 65.6164C110.187 65.6244 110.162 65.6275 110.138 65.6255Z" fill="#36477F"/>
<path d="M108.908 58.8403H100.027C100.002 58.8404 99.9779 58.8354 99.9553 58.8255C99.9327 58.8157 99.9124 58.8013 99.8957 58.7832C99.879 58.7652 99.8663 58.7438 99.8583 58.7205C99.8503 58.6973 99.8472 58.6726 99.8493 58.6481C99.8493 58.6011 99.868 58.5559 99.9013 58.5227C99.9346 58.4894 99.9798 58.4707 100.027 58.4707H108.908C108.955 58.4707 109 58.4894 109.034 58.5227C109.067 58.5559 109.086 58.6011 109.086 58.6481C109.086 58.6966 109.068 58.7434 109.035 58.779C109.002 58.8147 108.956 58.8366 108.908 58.8403Z" fill="#36477F"/>
<path d="M92.5818 52.91C92.5372 52.9102 92.4941 52.8935 92.4612 52.8634C92.4283 52.8333 92.4079 52.7918 92.4042 52.7474C92.4 52.7241 92.4005 52.7001 92.4057 52.677C92.4109 52.6539 92.4207 52.632 92.4345 52.6127C92.4483 52.5934 92.4658 52.5771 92.486 52.5646C92.5062 52.5522 92.5288 52.544 92.5522 52.5404L97.126 51.9195C97.1547 51.9113 97.1848 51.9099 97.2141 51.9154C97.2434 51.9208 97.271 51.933 97.2948 51.9509C97.3186 51.9688 97.3378 51.992 97.3511 52.0186C97.3644 52.0452 97.3713 52.0746 97.3713 52.1043C97.3713 52.134 97.3644 52.1634 97.3511 52.19C97.3378 52.2166 97.3186 52.2398 97.2948 52.2577C97.271 52.2756 97.2434 52.2878 97.2141 52.2932C97.1848 52.2987 97.1547 52.2973 97.126 52.2891L92.567 52.91H92.5818Z" fill="#36477F"/>
<path d="M82.2806 70.6514C80.3422 70.6436 78.4734 69.9286 77.0259 68.6408C74.4503 66.2902 74.1691 62.6238 76.2266 58.573C76.2408 58.5419 76.2638 58.5156 76.2927 58.4972C76.3216 58.4789 76.3552 58.4692 76.3894 58.4695L89.1635 58.1738C89.2271 58.1816 89.2854 58.2133 89.3263 58.2625C89.3408 58.2925 89.3483 58.3254 89.3483 58.3586C89.3483 58.3919 89.3408 58.4247 89.3263 58.4547C88.8572 59.3651 88.711 60.4075 88.9119 61.4115C88.9211 61.4347 88.9253 61.4596 88.9242 61.4845C88.9231 61.5095 88.9168 61.5339 88.9056 61.5562C88.8945 61.5785 88.8787 61.5983 88.8594 61.6141C88.84 61.6299 88.8176 61.6415 88.7935 61.648C88.7701 61.6547 88.7457 61.6564 88.7216 61.6532C88.6976 61.65 88.6744 61.642 88.6536 61.6295C88.6328 61.617 88.6148 61.6004 88.6007 61.5807C88.5865 61.561 88.5766 61.5387 88.5714 61.515C88.3268 60.5247 88.4313 59.4805 88.8675 58.5582L76.5078 58.8391C74.5836 62.6977 74.8648 66.2311 77.2627 68.3599C78.3739 69.3777 79.7751 70.0242 81.2713 70.2097C82.7675 70.3952 84.2844 70.1103 85.611 69.3948C86.9459 68.5292 88.0485 67.3505 88.8225 65.9615C89.5965 64.5726 90.0185 63.0155 90.0516 61.4263C90.0496 61.4018 90.0527 61.3771 90.0607 61.3538C90.0687 61.3306 90.0814 61.3092 90.0981 61.2912C90.1148 61.2731 90.1351 61.2587 90.1577 61.2489C90.1803 61.239 90.2046 61.234 90.2293 61.2341C90.2538 61.232 90.2785 61.2351 90.3018 61.2431C90.3251 61.2511 90.3464 61.2638 90.3645 61.2805C90.3826 61.2972 90.3971 61.3175 90.4069 61.34C90.4167 61.3626 90.4218 61.3869 90.4217 61.4115C90.3906 63.0646 89.9564 64.6852 89.1569 66.1329C88.3573 67.5807 87.2164 68.8119 85.8331 69.7201C84.7606 70.3591 83.529 70.682 82.2806 70.6514Z" fill="#36477F"/>
<path d="M90.1539 61.4121C90.1292 61.4122 90.1049 61.4071 90.0823 61.3973C90.0597 61.3875 90.0394 61.3731 90.0227 61.355C90.006 61.3369 89.9933 61.3156 89.9853 61.2923C89.9773 61.2691 89.9742 61.2444 89.9762 61.2199C90.0449 58.9347 89.6159 56.662 88.7188 54.5587C87.8218 52.4554 86.4781 50.5717 84.7808 49.0379C84.7642 49.0215 84.7511 49.0019 84.7421 48.9803C84.7331 48.9588 84.7285 48.9356 84.7285 48.9123C84.7285 48.8889 84.7331 48.8658 84.7421 48.8443C84.7511 48.8227 84.7642 48.8031 84.7808 48.7866C84.7974 48.7677 84.8179 48.7526 84.8409 48.7423C84.8639 48.7319 84.8888 48.7266 84.914 48.7266C84.9392 48.7266 84.9641 48.7319 84.9871 48.7423C85.01 48.7526 85.0305 48.7677 85.0472 48.7866C86.7797 50.3581 88.1506 52.286 89.0654 54.4375C89.9802 56.589 90.4172 58.913 90.3463 61.2494C90.3467 61.2735 90.3417 61.2974 90.3318 61.3194C90.3218 61.3413 90.3071 61.3607 90.2887 61.3763C90.2703 61.3919 90.2486 61.4031 90.2253 61.4093C90.202 61.4155 90.1776 61.4165 90.1539 61.4121Z" fill="#36477F"/>
<path d="M155.846 42.355V44.6465C155.846 46.2148 155.222 47.719 154.112 48.828C153.002 49.937 151.496 50.56 149.925 50.56H118.131C116.56 50.56 115.054 49.937 113.944 48.828C112.834 47.719 112.21 46.2148 112.21 44.6465V42.355C112.21 40.7866 112.834 39.2825 113.944 38.1734C115.054 37.0644 116.56 36.4414 118.131 36.4414H149.925C151.496 36.4414 153.002 37.0644 154.112 38.1734C155.222 39.2825 155.846 40.7866 155.846 42.355Z" fill="url(#paint4_linear)"/>
<path d="M177.531 136.695C181.326 132.689 182.262 127.436 179.633 124.953C177.003 122.471 171.791 123.754 168.009 127.712C164.226 131.67 161.524 138.842 164.154 141.325C166.784 143.807 173.749 140.701 177.531 136.695Z" fill="#34648C"/>
<path opacity="0.26" d="M179.632 124.954C178.777 124.211 177.691 123.788 176.558 123.755C176.687 123.845 176.807 123.945 176.919 124.055C179.548 126.525 178.612 131.791 174.829 135.796C171.983 138.807 167.336 141.314 164.094 141.302V141.385C166.724 143.868 173.7 140.762 177.471 136.756C181.242 132.75 182.262 127.437 179.632 124.954Z" fill="#0F2A3F"/>
<path d="M158.282 121.271C158.798 115.874 156.492 111.233 153.154 110.921C149.816 110.609 146.706 114.735 146.201 120.144C145.697 125.553 147.702 132.701 151.089 133.025C154.475 133.349 157.777 126.68 158.282 121.271Z" fill="#67B8EF"/>
<path opacity="0.25" d="M153.155 110.921C152.533 110.863 151.907 110.958 151.33 111.197C154.068 112.288 155.833 116.474 155.388 121.271C154.968 125.745 152.591 131.058 149.889 132.581C150.251 132.814 150.662 132.962 151.09 133.013C154.428 133.325 157.778 126.68 158.294 121.271C158.811 115.862 156.493 111.233 153.155 110.921Z" fill="#34648C"/>
<path d="M142.034 117.122C139.717 112.576 135.562 110.033 132.752 111.461C129.942 112.888 129.534 117.733 131.851 122.255C134.169 126.776 139.405 131.454 142.215 130.027C145.024 128.599 144.352 121.679 142.034 117.122Z" fill="#34648C"/>
<path opacity="0.26" d="M142.034 117.122C139.717 112.576 135.562 110.033 132.752 111.461C132.203 111.767 131.727 112.188 131.356 112.695C130.985 113.203 130.728 113.784 130.603 114.399C130.86 114.151 131.151 113.941 131.467 113.775C134.277 112.348 138.432 114.891 140.75 119.436C142.371 122.639 143.151 127.016 142.551 129.835C144.952 128.024 144.244 121.475 142.034 117.122Z" fill="#0F2A3F"/>
<path d="M137.567 136.143C133.1 134.152 128.549 134.62 127.384 137.199C126.219 139.777 128.909 143.495 133.388 145.486C137.867 147.477 144.484 147.885 145.636 145.355C146.789 142.824 142.022 138.146 137.567 136.143Z" fill="#67B8EF"/>
<path opacity="0.25" d="M137.566 136.143C133.099 134.152 128.548 134.62 127.383 137.199C127.127 137.817 127.06 138.498 127.191 139.154C128.392 136.671 132.907 136.239 137.302 138.206C140.905 139.813 144.675 143.124 145.408 145.702C145.494 145.596 145.566 145.479 145.624 145.354C146.777 142.776 142.022 138.146 137.566 136.143Z" fill="#34648C"/>
<path d="M178.757 151.879C183.212 150.296 185.962 146.638 184.941 143.723C183.92 140.809 179.441 139.729 174.986 141.324C170.531 142.92 165.692 147.321 166.737 150.212C167.781 153.102 174.302 153.414 178.757 151.879Z" fill="#34648C"/>
<path opacity="0.26" d="M184.928 143.723C184.667 143.086 184.266 142.514 183.755 142.052C183.243 141.589 182.635 141.246 181.974 141.049C182.509 141.485 182.922 142.05 183.175 142.692C184.22 145.618 181.446 149.264 176.991 150.848C173.924 151.94 170.596 152.065 167.456 151.207C169.497 153.174 174.925 153.258 178.792 151.879C183.211 150.296 185.985 146.638 184.928 143.723Z" fill="#0F2A3F"/>
<path d="M155.58 167.914C156.565 155.359 162.214 143.624 171.419 135.016C171.779 134.668 171.239 134.128 170.867 134.464C161.524 143.224 155.798 155.154 154.812 167.914C154.812 168.406 155.544 168.406 155.58 167.914Z" fill="#1E394C"/>
<path d="M152.769 166.116C153.122 150.592 148.138 135.417 138.647 123.119C138.359 122.735 137.686 123.119 137.987 123.514C147.398 135.697 152.344 150.733 152 166.116C152 166.217 152.041 166.315 152.113 166.387C152.185 166.459 152.283 166.499 152.385 166.499C152.486 166.499 152.584 166.459 152.656 166.387C152.728 166.315 152.769 166.217 152.769 166.116Z" fill="#1E394C"/>
<path d="M149.504 143.436C151.617 136.732 152.146 129.608 152.41 122.615C152.41 122.513 152.369 122.416 152.297 122.344C152.225 122.272 152.128 122.231 152.026 122.231C151.924 122.231 151.826 122.272 151.754 122.344C151.682 122.416 151.641 122.513 151.641 122.615C151.377 129.548 150.849 136.588 148.759 143.232C148.603 143.712 149.36 143.916 149.504 143.436Z" fill="#1E394C"/>
<path d="M137.495 142.141C141.352 144.428 145.427 146.328 149.659 147.814C150.116 147.994 150.32 147.25 149.863 147.07C145.689 145.599 141.668 143.727 137.855 141.481C137.435 141.217 137.051 141.877 137.471 142.141H137.495Z" fill="#1E394C"/>
<path d="M170.421 148.161C166.704 149.708 162.879 150.983 158.977 151.975C158.879 152.002 158.795 152.067 158.744 152.156C158.693 152.245 158.68 152.35 158.707 152.449C158.734 152.548 158.799 152.631 158.888 152.682C158.977 152.733 159.083 152.746 159.181 152.719C163.084 151.726 166.908 150.452 170.625 148.905C171.082 148.713 170.878 147.969 170.421 148.161Z" fill="#1E394C"/>
<path d="M139.813 164.329L142.214 185.57C142.354 186.853 142.963 188.039 143.925 188.9C144.887 189.761 146.134 190.237 147.426 190.235H160.911C162.202 190.232 163.446 189.754 164.407 188.894C165.368 188.034 165.979 186.851 166.123 185.57L168.525 164.329C168.553 164.056 168.524 163.78 168.439 163.519C168.355 163.258 168.216 163.018 168.033 162.813C167.85 162.609 167.626 162.445 167.376 162.332C167.125 162.219 166.854 162.16 166.579 162.158H141.758C141.483 162.158 141.211 162.216 140.959 162.328C140.708 162.441 140.483 162.605 140.3 162.809C140.116 163.014 139.978 163.255 139.894 163.517C139.81 163.779 139.782 164.056 139.813 164.329Z" fill="#CEE5ED"/>
<path d="M166.554 162.158H157.956C158.231 162.158 158.503 162.216 158.754 162.328C159.004 162.441 159.229 162.605 159.411 162.81C159.594 163.015 159.731 163.256 159.813 163.518C159.896 163.78 159.922 164.056 159.89 164.329L157.488 185.57C157.344 186.851 156.733 188.034 155.772 188.894C154.811 189.754 153.567 190.232 152.276 190.235H160.91C162.201 190.232 163.445 189.754 164.406 188.894C165.367 188.034 165.978 186.851 166.122 185.57L168.524 164.329C168.552 164.054 168.523 163.776 168.437 163.514C168.351 163.251 168.21 163.009 168.024 162.804C167.838 162.6 167.611 162.436 167.358 162.325C167.105 162.214 166.831 162.157 166.554 162.158Z" fill="#AAC6CE"/>
</g>
<defs>
<linearGradient id="paint0_linear" x1="101.506" y1="175.808" x2="101.506" y2="-32.8804" gradientUnits="userSpaceOnUse">
<stop stop-color="white"/>
<stop offset="0.13" stop-color="#F8FCFE"/>
<stop offset="0.31" stop-color="#E6F3FC"/>
<stop offset="0.52" stop-color="#C7E5F9"/>
<stop offset="0.75" stop-color="#9CD1F5"/>
<stop offset="1" stop-color="#67B8EF"/>
</linearGradient>
<linearGradient id="paint1_linear" x1="53.7166" y1="50.5935" x2="23.347" y2="84.4702" gradientUnits="userSpaceOnUse">
<stop stop-color="#C5DDE6"/>
<stop offset="1" stop-color="#CEE5ED"/>
</linearGradient>
<linearGradient id="paint2_linear" x1="90.1846" y1="86.2342" x2="177.916" y2="86.2342" gradientUnits="userSpaceOnUse">
<stop stop-color="#1E394C"/>
<stop offset="1" stop-color="#1E394C"/>
</linearGradient>
<linearGradient id="paint3_linear" x1="78.7274" y1="44.455" x2="134.148" y2="118.454" gradientUnits="userSpaceOnUse">
<stop stop-color="white"/>
<stop offset="0.99" stop-color="#E1F0FF"/>
</linearGradient>
<linearGradient id="paint4_linear" x1="2676.71" y1="447.576" x2="3963.11" y2="447.576" gradientUnits="userSpaceOnUse">
<stop offset="0.01" stop-color="#1E394C"/>
<stop offset="1" stop-color="#23173B"/>
</linearGradient>
<clipPath id="clip0">
<rect width="203" height="195" fill="white"/>
</clipPath>
</defs>
</svg>
