<svg width="203" height="188" viewBox="0 0 203 188" fill="none" xmlns="http://www.w3.org/2000/svg">
<path opacity="0.42" d="M46.0665 183.731H156.944C181.658 166.749 197.815 138.749 197.815 107.045C197.815 55.2254 154.699 5.7793 101.5 5.7793C48.2998 5.7793 5.19531 55.2254 5.19531 107.045C5.19531 138.749 21.3524 166.783 46.0665 183.731Z" fill="url(#paint0_linear)"/>
<path opacity="0.43" d="M101.5 187.999C157.557 187.999 203 186.214 203 184.012C203 181.81 157.557 180.025 101.5 180.025C45.4431 180.025 0 181.81 0 184.012C0 186.214 45.4431 187.999 101.5 187.999Z" fill="#CEE5ED"/>
<path d="M68.3754 136.021H63.7607V180.049H68.3754V136.021Z" fill="#AAC6CE"/>
<path d="M68.3754 136.021H63.7607V142.212H68.3754V136.021Z" fill="#85B0BA"/>
<path d="M47.4462 180.062H86.1867C86.891 180.058 87.5681 180.332 88.0715 180.823C88.5748 181.314 88.8637 181.983 88.8757 182.685V184.06H44.7686V182.685C44.7805 181.985 45.0679 181.318 45.5688 180.827C46.0696 180.336 46.7439 180.061 47.4462 180.062Z" fill="#AAC6CE"/>
<path d="M55.1274 136.112H87.1225C75.4889 131.944 79.9897 92.6752 82.1432 77.7948C82.2444 77.0887 82.1923 76.3692 81.9901 75.6849C81.788 75.0007 81.4407 74.3678 80.9717 73.8292C80.5027 73.2905 79.923 72.8587 79.2719 72.563C78.6208 72.2673 77.9135 72.1146 77.1981 72.1152H55.8338C53.7235 72.1126 51.6838 72.8733 50.0933 74.2562C48.5029 75.6391 47.4698 77.5502 47.1856 79.635C45.317 93.1523 42.3658 121.209 48.1997 132.057C48.8763 133.296 49.8786 134.329 51.0991 135.043C52.3195 135.758 53.7122 136.127 55.1274 136.112Z" fill="#AAC6CE"/>
<path d="M42.3053 48.5336C54.3975 45.839 62.0091 33.8821 59.3061 21.8272C56.6032 9.77227 44.6093 2.18422 32.517 4.87881C20.4248 7.57341 12.8132 19.5303 15.5162 31.5852C18.2191 43.6401 30.213 51.2282 42.3053 48.5336Z" fill="#3E8CCC"/>
<path d="M37.4072 44.968C47.5199 44.968 55.7178 36.7954 55.7178 26.714C55.7178 16.6326 47.5199 8.45996 37.4072 8.45996C27.2946 8.45996 19.0967 16.6326 19.0967 26.714C19.0967 36.7954 27.2946 44.968 37.4072 44.968Z" fill="#CEE5ED"/>
<path d="M32.2134 32.9363C31.9871 32.9376 31.7655 32.8717 31.5769 32.7469C31.3883 32.6222 31.2413 32.4443 31.1545 32.236C31.0677 32.0276 31.0451 31.7982 31.0896 31.577C31.1342 31.3557 31.2438 31.1527 31.4044 30.9939L36.1786 26.2344V13.7394C36.1786 13.4382 36.2987 13.1492 36.5124 12.9362C36.726 12.7232 37.0159 12.6035 37.3181 12.6035C37.6203 12.6035 37.9101 12.7232 38.1238 12.9362C38.3374 13.1492 38.4575 13.4382 38.4575 13.7394V26.7115C38.4562 27.0095 38.3375 27.2951 38.127 27.5066L33.0452 32.6069C32.9361 32.7149 32.8061 32.7998 32.6631 32.8564C32.5202 32.913 32.3672 32.9402 32.2134 32.9363Z" fill="#3E8CCC"/>
<path d="M39.7892 26.3717C39.7869 25.8555 39.6313 25.3515 39.342 24.9234C39.0527 24.4952 38.6426 24.1621 38.1635 23.9661C37.6845 23.7701 37.1579 23.72 36.6503 23.8221C36.1427 23.9242 35.6768 24.1739 35.3114 24.5397C34.946 24.9056 34.6976 25.3711 34.5974 25.8776C34.4972 26.384 34.5497 26.9088 34.7484 27.3855C34.9471 27.8622 35.283 28.2696 35.7137 28.5562C36.1444 28.8427 36.6507 28.9957 37.1685 28.9957C37.5136 28.9957 37.8553 28.9277 38.174 28.7957C38.4927 28.6637 38.7821 28.4703 39.0256 28.2265C39.2691 27.9827 39.4619 27.6933 39.593 27.375C39.724 27.0567 39.7907 26.7158 39.7892 26.3717Z" fill="#1E394C"/>
<path d="M165.127 47.5117H126.854C126.387 47.5102 125.924 47.6009 125.492 47.7785C125.06 47.956 124.667 48.217 124.337 48.5464C124.006 48.8758 123.745 49.2671 123.566 49.6978C123.388 50.1284 123.297 50.5899 123.299 51.0558V68.2534C123.297 68.7192 123.388 69.1808 123.566 69.6114C123.745 70.0421 124.006 70.4334 124.337 70.7628C124.667 71.0922 125.06 71.3532 125.492 71.5307C125.924 71.7083 126.387 71.799 126.854 71.7975H129.52V75.9094C129.516 76.0425 129.553 76.1737 129.624 76.2862C129.696 76.3986 129.799 76.4874 129.921 76.541C130.044 76.5946 130.179 76.6107 130.311 76.5872C130.442 76.5638 130.564 76.5018 130.66 76.4092L135.833 71.752H165.15C166.073 71.7344 166.953 71.3594 167.604 70.7065C168.255 70.0535 168.625 69.1738 168.637 68.2534V51.0671C168.64 50.133 168.273 49.2355 167.616 48.5697C166.958 47.9039 166.064 47.5237 165.127 47.5117Z" fill="#62BDF4"/>
<path d="M136.686 61.4708C137.548 61.4708 138.247 60.7741 138.247 59.9146C138.247 59.0551 137.548 58.3584 136.686 58.3584C135.824 58.3584 135.125 59.0551 135.125 59.9146C135.125 60.7741 135.824 61.4708 136.686 61.4708Z" fill="#34648C"/>
<path d="M146.314 61.4708C147.176 61.4708 147.875 60.7741 147.875 59.9146C147.875 59.0551 147.176 58.3584 146.314 58.3584C145.452 58.3584 144.753 59.0551 144.753 59.9146C144.753 60.7741 145.452 61.4708 146.314 61.4708Z" fill="#34648C"/>
<path d="M155.291 61.4708C156.154 61.4708 156.852 60.7741 156.852 59.9146C156.852 59.0551 156.154 58.3584 155.291 58.3584C154.429 58.3584 153.73 59.0551 153.73 59.9146C153.73 60.7741 154.429 61.4708 155.291 61.4708Z" fill="#34648C"/>
<path d="M39.7896 93.7091C39.7896 89.5062 36.8043 85.292 33.124 85.292C29.4436 85.292 26.4697 89.5403 26.4697 93.7091C26.4697 97.8779 29.4436 101.331 33.124 101.331C36.8043 101.331 39.7896 97.9233 39.7896 93.7091Z" fill="#67B8EF"/>
<path opacity="0.25" d="M33.1222 85.292C32.5379 85.2943 31.9589 85.4021 31.4131 85.61C34.2616 86.6551 36.3696 90.1537 36.3696 93.7091C36.4322 95.3012 35.986 96.8721 35.0951 98.195C34.2043 99.518 32.9149 100.525 31.4131 101.07C31.9661 101.243 32.5425 101.331 33.1222 101.331C36.8026 101.331 39.7879 97.9233 39.7879 93.7091C39.7879 89.4948 36.8026 85.292 33.1222 85.292Z" fill="#34648C"/>
<path d="M25.5328 98.6945L26.7292 109.463C26.7995 110.113 27.1085 110.713 27.5965 111.15C28.0845 111.586 28.7172 111.827 29.3727 111.826H36.2092C36.8647 111.827 37.4973 111.586 37.9854 111.15C38.4734 110.713 38.7824 110.113 38.8527 109.463L40.0491 98.6945C40.0704 98.5539 40.061 98.4103 40.0216 98.2736C39.9821 98.1369 39.9135 98.0103 39.8205 97.9025C39.7275 97.7946 39.6122 97.7081 39.4825 97.6487C39.3528 97.5894 39.2119 97.5586 39.0692 97.5586H26.5241C26.381 97.5589 26.2397 97.5897 26.1096 97.6489C25.9795 97.7082 25.8636 97.7945 25.7697 97.9021C25.6758 98.0097 25.606 98.1361 25.5652 98.2727C25.5243 98.4094 25.5133 98.5532 25.5328 98.6945Z" fill="#CEE5ED"/>
<path d="M26.5241 99.2057H39.1261C39.3069 99.2081 39.4834 99.2603 39.6363 99.3565C39.7891 99.4527 39.9123 99.5892 39.9921 99.7509L40.1061 98.6945C40.1274 98.5539 40.118 98.4103 40.0785 98.2736C40.0391 98.1369 39.9705 98.0103 39.8775 97.9025C39.7844 97.7946 39.6691 97.7081 39.5395 97.6487C39.4098 97.5894 39.2688 97.5586 39.1261 97.5586H26.5241C26.381 97.5589 26.2397 97.5897 26.1096 97.6489C25.9795 97.7082 25.8636 97.7945 25.7697 97.9021C25.6758 98.0097 25.606 98.1361 25.5652 98.2727C25.5243 98.4094 25.5133 98.5532 25.5328 98.6945L25.6581 99.7509C25.7369 99.5884 25.8598 99.4512 26.0129 99.3548C26.166 99.2584 26.3431 99.2068 26.5241 99.2057Z" fill="#AAC6CE"/>
<path d="M39.1273 97.5938H34.7519C34.8949 97.594 35.0363 97.6248 35.1664 97.6841C35.2965 97.7433 35.4124 97.8297 35.5063 97.9372C35.6002 98.0448 35.6699 98.1712 35.7108 98.3079C35.7516 98.4446 35.7627 98.5884 35.7432 98.7297L34.5468 109.498C34.4687 110.142 34.1563 110.734 33.6691 111.163C33.1818 111.593 32.5535 111.829 31.9033 111.827H36.2673C36.9228 111.828 37.5554 111.587 38.0435 111.151C38.5315 110.714 38.8405 110.114 38.9108 109.464L40.1072 98.6956C40.1232 98.5575 40.1098 98.4177 40.068 98.2851C40.0261 98.1526 39.9567 98.0304 39.8642 97.9264C39.7717 97.8224 39.6583 97.739 39.5313 97.6817C39.4043 97.6244 39.2667 97.5944 39.1273 97.5938Z" fill="#AAC6CE"/>
<path d="M94.2995 173.552L93.8438 176.664L96.2251 179.697L102.253 176.755L102.902 173.904L95.4048 172.779L94.2995 173.552Z" fill="#F2BF75"/>
<path d="M99.1288 183.569L99.7441 182.797C99.773 182.765 99.8081 182.74 99.8474 182.723C99.8866 182.705 99.9291 182.696 99.972 182.696C100.015 182.696 100.057 182.705 100.097 182.723C100.136 182.74 100.171 182.765 100.2 182.797L100.815 183.524C100.94 183.67 101.096 183.786 101.271 183.865C101.446 183.943 101.637 183.982 101.829 183.978L115.833 183.74C115.903 183.671 115.96 183.589 115.998 183.498C116.036 183.407 116.056 183.31 116.056 183.212C116.056 183.113 116.036 183.016 115.998 182.925C115.96 182.834 115.903 182.752 115.833 182.683C113.782 180.627 102.741 177.004 102.16 176.754C101.579 176.504 98.2287 179.026 93.7507 176.663C93.36 178.564 93.0861 180.488 92.9303 182.422C92.9179 182.639 92.9503 182.857 93.0255 183.061C93.1008 183.266 93.2174 183.452 93.368 183.61C93.5186 183.768 93.7 183.893 93.9011 183.978C94.1022 184.062 94.3186 184.105 94.5369 184.103L98.0919 184.047C98.2898 184.051 98.4861 184.01 98.6658 183.928C98.8455 183.845 99.0039 183.722 99.1288 183.569Z" fill="#1E394C"/>
<path d="M68.604 120.947C68.604 120.947 62.7929 127.354 73.4351 134.317C80.9098 139.202 86.7892 137.725 91.4722 140.667C92.0272 140.972 92.5003 141.406 92.8514 141.932C93.2025 142.458 93.4212 143.06 93.489 143.688L93.7283 173.597L94.298 173.881C95.6882 174.572 97.2177 174.94 98.7711 174.955C100.325 174.971 101.861 174.635 103.265 173.972L107.515 139.804C107.663 137.452 106.376 135.464 104.917 133.602C96.782 123.287 82.3682 119.789 78.7107 119.187C73.9821 118.46 68.604 120.947 68.604 120.947Z" fill="#1E394C"/>
<path d="M71.1472 173.553L70.6572 176.654L72.9931 179.721L79.0548 176.859L79.7499 174.019L72.2638 172.792L71.1472 173.553Z" fill="#F2BF75"/>
<path d="M75.8744 183.626L76.5125 182.865C76.5403 182.834 76.5745 182.809 76.6128 182.791C76.6511 182.774 76.6927 182.765 76.7347 182.765C76.7767 182.765 76.8183 182.774 76.8566 182.791C76.8949 182.809 76.9291 182.834 76.9569 182.865L77.5722 183.604C77.6918 183.754 77.8444 183.875 78.0181 183.958C78.1919 184.04 78.3823 184.082 78.5749 184.081H92.5784C92.7182 183.94 92.7967 183.75 92.7967 183.552C92.7967 183.355 92.7182 183.165 92.5784 183.024C90.5616 180.934 79.5662 177.208 79.0192 176.902C78.4723 176.595 75.0654 179.174 70.6217 176.697C70.2 178.593 69.8956 180.512 69.7101 182.445C69.6945 182.663 69.7241 182.882 69.7972 183.088C69.8703 183.295 69.9854 183.484 70.1351 183.644C70.2848 183.804 70.466 183.931 70.6674 184.018C70.8687 184.105 71.0859 184.149 71.3053 184.149H74.8603C75.0586 184.147 75.2537 184.099 75.4299 184.008C75.606 183.917 75.7583 183.787 75.8744 183.626Z" fill="#1E394C"/>
<path d="M50.9336 115.359C50.9336 115.359 43.892 123.186 54.0784 132.034C61.2226 138.236 67.6376 135.578 72.1383 139.361C72.6667 139.757 73.0938 140.273 73.3848 140.865C73.6758 141.457 73.8226 142.109 73.8133 142.769L70.6457 173.29L70.8849 173.449C72.2666 174.342 73.8539 174.869 75.4967 174.981C77.1395 175.092 78.7836 174.784 80.2738 174.086L88.2498 141.985C88.7511 139.531 87.6915 137.259 86.4267 135.101C79.3509 123.083 68.2643 115.927 64.5156 114.78C59.5818 113.292 50.9336 115.359 50.9336 115.359Z" fill="#1E394C"/>
<path d="M89.7979 139.817C89.2634 139.594 88.7154 139.404 88.1572 139.249C87.7902 137.78 87.186 136.379 86.3683 135.103C83.1691 129.739 79.0771 124.956 74.2676 120.961C76.8199 120.529 78.1188 119.984 78.8253 119.269C81.4269 119.75 83.9842 120.445 86.4708 121.347C89.9347 127.106 89.9233 136.478 89.7979 139.817Z" fill="#0F2A3F"/>
<path d="M69.9044 73.943C69.9044 73.943 59.7407 72.5913 55.5135 80.4518C51.2862 88.3123 44.9966 119.277 50.5 120.209C52.9498 120.629 59.4559 122.253 66.6685 121.731C76.5815 121.004 78.735 120.095 79.4528 118.221L85.7766 89.3914C85.8592 87.4286 85.4663 85.4748 84.6314 83.6954C83.7964 81.9159 82.5438 80.3631 80.9796 79.1682C77.6302 76.7817 73.8793 75.012 69.9044 73.943Z" fill="#CEE5ED"/>
<path d="M85.731 86.9043C85.731 86.9043 85.8677 104.306 91.3369 105.317C96.8062 106.328 111.391 106.044 111.391 106.044V111.565H80.125L85.731 86.9043Z" fill="#AAC6CE"/>
<path d="M78.1635 79.0219L79.3941 72.888L71.4181 66.8223L69.8799 74.058C69.8799 74.058 72.3866 85.1104 78.1635 79.0219Z" fill="#EA9249"/>
<path d="M88.3517 61.1426C88.3517 61.1426 84.17 63.1645 78.0969 59.4501C76.6987 61.5006 74.7959 63.159 72.5707 64.2663C72.5707 64.2663 70.3944 60.745 69.1638 63.4144C68.8319 64.0963 68.6419 64.8382 68.6055 65.5954C64.7542 60.6428 67.4661 54.1227 71.0553 50.6127C74.4735 47.2732 81.8 48.6022 86.3919 50.4423C91.2687 52.3961 92.1574 48.9997 92.1574 48.9997C98.3217 57.644 88.3517 61.1426 88.3517 61.1426Z" fill="#1E394C"/>
<path d="M72.524 64.3119C72.524 64.3119 70.3933 60.7451 69.1627 63.4145C67.6701 66.6519 69.3564 68.6851 71.3732 68.6851C71.3732 68.6851 72.9684 77.1136 80.7393 76.5115C88.5102 75.9095 89.6154 63.494 88.3506 61.1427C88.3506 61.1427 84.169 63.176 78.0958 59.4502C76.6921 61.5244 74.7722 63.1996 72.524 64.3119Z" fill="#F2BF75"/>
<path d="M139.818 84.0078H107.413C106.641 84.0183 105.896 84.289 105.298 84.7758C104.7 85.2625 104.285 85.9367 104.12 86.6886L99.8018 107.782H139.078L143.123 88.0289C143.212 87.5424 143.194 87.0423 143.07 86.5634C142.946 86.0844 142.719 85.6382 142.405 85.2555C142.09 84.8729 141.696 84.5631 141.249 84.3476C140.803 84.1322 140.314 84.0162 139.818 84.0078Z" fill="#CEE5ED"/>
<path d="M138.963 107.782H85.3872C84.5062 107.782 83.792 108.494 83.792 109.372V109.895C83.792 110.773 84.5062 111.485 85.3872 111.485H138.963C139.844 111.485 140.558 110.773 140.558 109.895V109.372C140.558 108.494 139.844 107.782 138.963 107.782Z" fill="#80A9B2"/>
<path d="M139.009 107.782H99.3799C99.803 107.782 100.209 107.95 100.508 108.248C100.807 108.546 100.975 108.951 100.975 109.372V109.895C100.975 110.317 100.807 110.721 100.508 111.02C100.209 111.318 99.803 111.485 99.3799 111.485H139.009C139.432 111.485 139.838 111.318 140.137 111.02C140.436 110.721 140.604 110.317 140.604 109.895V109.372C140.604 108.951 140.436 108.546 140.137 108.248C139.838 107.95 139.432 107.782 139.009 107.782Z" fill="#AAC6CE"/>
<path d="M87.1211 106.647C80.8087 105.92 63.102 104.114 60.0712 103.807C56.2427 103.41 64.5605 88.0181 65.4834 82.7588C66.4064 77.4996 62.3842 77.3065 62.3842 77.3065C61.0541 77.0558 59.6785 77.2279 58.4518 77.7986C57.2252 78.3693 56.2093 79.3097 55.5476 80.487C51.2292 87.0071 46.4322 106.079 48.9618 110.782C49.1069 111.053 49.3236 111.281 49.5886 111.439C49.8537 111.597 50.1569 111.68 50.4658 111.679H87.1553L87.1211 106.647Z" fill="#CEE5ED"/>
<path d="M87.1205 106.647C87.1205 106.647 64.332 105.09 59.4097 104.375C55.604 103.864 63.5458 88.0973 64.4687 82.7926C65.3916 77.4879 61.3011 77.7492 61.3011 77.7492C60.1059 77.6395 58.9006 77.7511 57.7461 78.0786C59.1297 77.224 60.781 76.9085 62.3836 77.1926C62.3836 77.1926 66.4057 77.397 65.4828 82.6563C64.5599 87.9156 57.4271 103.08 59.8426 103.671C62.8051 104.398 80.8081 105.92 87.1205 106.647Z" fill="#AAC6CE"/>
<path d="M87.1201 111.758H95.6202C95.7641 111.756 95.9049 111.716 96.028 111.642C96.1511 111.568 96.2521 111.462 96.3206 111.336C96.3891 111.21 96.4226 111.068 96.4177 110.924C96.4127 110.781 96.3695 110.641 96.2925 110.52C95.4949 109.305 94.2415 107.578 93.3186 107.294C91.252 107.178 89.1795 107.223 87.1201 107.431V111.758Z" fill="#F2BF75"/>
<path opacity="0.67" d="M88.3516 61.1426C87.7386 61.4027 87.0891 61.5675 86.426 61.631C86.3234 62.199 86.1411 63.3008 86.0385 64.3458C85.8904 65.8339 86.6424 70.457 86.1753 70.4911C85.7008 70.5149 85.2255 70.5149 84.751 70.4911C84.751 70.4911 84.0446 77.1589 77.3447 76.0911H77.1738C78.3162 76.4954 79.5333 76.6466 80.7402 76.5341C88.4997 75.9094 89.6163 63.4939 88.3516 61.1426Z" fill="#EA9249"/>
<path d="M185.806 158.147C185.806 158.147 196.482 152.865 193.577 144.857C190.671 136.849 188.882 136.52 194.431 131.999C199.98 127.478 208.013 116.164 197.849 115.312C187.686 114.46 188.198 127.921 179.744 129.784C171.289 131.647 166.663 166.916 185.806 158.147Z" fill="#67B8EF"/>
<path opacity="0.25" d="M177.397 158.942C179.448 159.885 182.206 159.794 185.806 158.147C185.806 158.147 196.483 152.865 193.577 144.857C190.672 136.849 188.883 136.52 194.432 131.999C199.981 127.478 208.014 116.164 197.85 115.312C196.944 115.231 196.03 115.281 195.138 115.46C197.998 116.596 200.835 118.993 197.166 123.343C191.048 130.579 187.766 133.135 188.484 137.826C189.202 142.517 188.78 152.763 177.397 158.942Z" fill="#34648C"/>
<path d="M167.69 157.887C167.69 157.887 158.301 157.557 158.814 150.822C159.327 144.086 159.589 143.836 153.687 141.734C143.261 137.986 151.511 118.028 160.011 130.58C165.901 139.292 168.465 137.327 172.305 138.008C176.145 138.69 184.52 160.874 167.69 157.887Z" fill="#67B8EF"/>
<path opacity="0.29" d="M172.303 137.986C168.463 137.304 165.9 139.269 160.009 130.557C155.565 123.991 151.19 126.331 149.515 130.557C152.021 129.796 155.816 129.33 156.294 133.385C156.898 138.656 169.261 147.3 168.999 158.035H169.489C171.278 153.309 173.659 147.175 175.687 141.962C174.593 139.792 173.306 138.168 172.303 137.986Z" fill="#34648C"/>
<path d="M169.879 157.591C169.879 157.591 158.211 146.232 162.188 144.312C166.164 142.392 173.969 148.651 169.617 141.881C165.264 135.111 160.194 124.57 166.198 126.228C172.203 127.887 172.659 129.716 171.896 121.833C170.927 111.609 176.636 106.373 182.014 109.69C187.392 113.006 177.399 135.497 181.114 133.067C184.828 130.636 187.95 128.603 188.679 131.533C189.409 134.464 178.037 146.005 182.264 144.028C187.528 141.609 188.292 145.948 186.628 148.629C184.965 151.309 178.071 167.303 169.879 157.591Z" fill="#34648C"/>
<path opacity="0.48" d="M186.66 148.606C188.324 145.925 187.56 141.586 182.296 144.006C178.069 145.959 189.474 134.43 188.711 131.511C187.948 128.591 184.86 130.613 181.145 133.044C177.431 135.475 187.424 112.995 182.045 109.667C180.993 108.931 179.715 108.586 178.434 108.694C177.153 108.802 175.951 109.356 175.038 110.258C177.83 110.939 180.051 113.166 178.456 119.197C175.175 131.976 173.181 142.631 179.163 139.507C184.86 136.565 172.622 150.117 172.497 159.954C179.55 163.895 185.179 151.037 186.66 148.606Z" fill="#1E394C"/>
<path d="M161.799 158.931L164.078 179.275C164.215 180.505 164.802 181.641 165.727 182.467C166.652 183.292 167.85 183.749 169.091 183.75H182.115C183.356 183.747 184.552 183.289 185.476 182.464C186.401 181.639 186.989 180.504 187.128 179.275L189.407 158.908C189.436 158.646 189.409 158.381 189.328 158.13C189.248 157.88 189.115 157.649 188.939 157.452C188.762 157.256 188.546 157.099 188.305 156.992C188.064 156.885 187.803 156.829 187.539 156.829H163.668C163.401 156.829 163.138 156.885 162.895 156.994C162.652 157.102 162.435 157.261 162.258 157.46C162.082 157.659 161.949 157.893 161.87 158.146C161.791 158.4 161.767 158.667 161.799 158.931Z" fill="#CEE5ED"/>
<path d="M187.493 156.855H179.232C179.496 156.855 179.758 156.91 179.999 157.018C180.24 157.125 180.456 157.282 180.632 157.478C180.808 157.674 180.941 157.905 181.022 158.156C181.103 158.407 181.13 158.672 181.101 158.933L178.89 179.278C178.751 180.507 178.163 181.642 177.238 182.467C176.314 183.292 175.118 183.75 173.877 183.753H182.138C183.379 183.75 184.575 183.292 185.499 182.467C186.424 181.642 187.012 180.507 187.151 179.278L189.43 158.911C189.456 158.645 189.425 158.377 189.339 158.124C189.252 157.871 189.113 157.639 188.929 157.445C188.746 157.25 188.523 157.097 188.275 156.995C188.028 156.893 187.761 156.845 187.493 156.855Z" fill="#AAC6CE"/>
<path d="M162.164 111.691H22.5159C20.949 111.691 19.6787 112.958 19.6787 114.52V115.44C19.6787 117.002 20.949 118.268 22.5159 118.268H162.164C163.731 118.268 165.001 117.002 165.001 115.44V114.52C165.001 112.958 163.731 111.691 162.164 111.691Z" fill="#3E8CCC"/>
<path d="M162.164 111.691H22.5159C22.1424 111.691 21.7725 111.765 21.4275 111.908C21.0826 112.051 20.7693 112.26 20.5057 112.524C20.2421 112.788 20.0333 113.101 19.8914 113.445C19.7495 113.79 19.6772 114.159 19.6787 114.531V115.451C19.6807 115.745 19.7307 116.037 19.8269 116.315C20.0061 115.743 20.3635 115.243 20.847 114.888C21.3306 114.532 21.9151 114.34 22.5159 114.338H162.164C162.765 114.34 163.349 114.532 163.833 114.888C164.316 115.243 164.674 115.743 164.853 116.315C164.949 116.037 164.999 115.745 165.001 115.451V114.531C165.001 113.78 164.702 113.059 164.171 112.527C163.639 111.995 162.917 111.694 162.164 111.691Z" fill="#2173AA"/>
<path d="M66.657 183.865H61.9853L29.5117 118.301H34.1834L66.657 183.865Z" fill="#34648C"/>
<path d="M15.2695 183.865H19.9298L52.4034 118.301H47.7431L15.2695 183.865Z" fill="#34648C"/>
<path d="M167.187 183.865H162.516L130.042 118.301H134.714L167.187 183.865Z" fill="#34648C"/>
<path d="M115.8 183.865H120.46L152.934 118.301H148.273L115.8 183.865Z" fill="#34648C"/>
<path d="M35.4709 120.902L34.1834 118.301H29.5117L30.7993 120.902H35.4709Z" fill="#1A3651"/>
<path d="M51.1143 120.902L52.4019 118.301H47.7417L46.4541 120.902H51.1143Z" fill="#1A3651"/>
<path d="M136.001 120.902L134.714 118.301H130.042L131.33 120.902H136.001Z" fill="#1A3651"/>
<path d="M151.647 120.902L152.934 118.301H148.274L146.986 120.902H151.647Z" fill="#1A3651"/>
<defs>
<linearGradient id="paint0_linear" x1="101.5" y1="170.1" x2="101.5" y2="-27.5482" gradientUnits="userSpaceOnUse">
<stop stop-color="white"/>
<stop offset="0.13" stop-color="#F8FCFE"/>
<stop offset="0.31" stop-color="#E6F3FC"/>
<stop offset="0.52" stop-color="#C7E5F9"/>
<stop offset="0.75" stop-color="#9CD1F5"/>
<stop offset="1" stop-color="#67B8EF"/>
</linearGradient>
</defs>
</svg>
