<svg width="203" height="193" viewBox="0 0 203 193" fill="none" xmlns="http://www.w3.org/2000/svg">
<g clip-path="url(#clip0)">
<path opacity="0.42" d="M43.0737 187.926H159.926C185.972 169.996 203 140.42 203 106.945C203 52.2306 157.561 0.0224609 101.506 0.0224609C45.4513 0.0224609 0 52.2306 0 106.945C0 140.42 17.0277 169.996 43.0737 187.926Z" fill="url(#paint0_linear)"/>
<path opacity="0.43" d="M99.2607 192.436C145.811 192.436 183.547 190.551 183.547 188.226C183.547 185.901 145.811 184.017 99.2607 184.017C52.7108 184.017 14.9746 185.901 14.9746 188.226C14.9746 190.551 52.7108 192.436 99.2607 192.436Z" fill="#CEE5ED"/>
<path d="M177.531 134.423C181.326 130.417 182.262 125.164 179.633 122.681C177.003 120.198 171.791 121.481 168.009 125.439C164.226 129.397 161.524 136.569 164.154 139.052C166.784 141.535 173.749 138.428 177.531 134.423Z" fill="#34648C"/>
<path opacity="0.26" d="M179.631 122.681C178.776 121.938 177.69 121.514 176.557 121.481C176.686 121.571 176.806 121.671 176.918 121.781C179.547 124.252 178.611 129.517 174.828 133.523C171.982 136.533 167.335 139.04 164.093 139.028V139.112C166.723 141.595 173.699 138.488 177.47 134.483C181.241 130.477 182.261 125.163 179.631 122.681Z" fill="#0F2A3F"/>
<path d="M158.282 118.999C158.798 113.602 156.492 108.96 153.154 108.648C149.816 108.337 146.706 112.462 146.201 117.871C145.697 123.281 147.702 130.429 151.089 130.753C154.475 131.076 157.777 124.408 158.282 118.999Z" fill="#67B8EF"/>
<path opacity="0.25" d="M153.153 108.648C152.531 108.591 151.905 108.685 151.328 108.924C154.066 110.015 155.831 114.201 155.387 118.999C154.966 123.472 152.589 128.785 149.887 130.309C150.249 130.542 150.66 130.689 151.088 130.74C154.426 131.052 157.776 124.408 158.293 118.999C158.809 113.59 156.491 108.96 153.153 108.648Z" fill="#34648C"/>
<path d="M142.033 114.849C139.716 110.304 135.561 107.761 132.751 109.188C129.941 110.615 129.533 115.461 131.85 119.982C134.168 124.504 139.404 129.181 142.214 127.754C145.024 126.327 144.351 119.407 142.033 114.849Z" fill="#34648C"/>
<path opacity="0.26" d="M142.034 114.849C139.717 110.304 135.562 107.761 132.752 109.188C132.203 109.495 131.727 109.916 131.356 110.423C130.985 110.93 130.728 111.511 130.603 112.127C130.86 111.879 131.151 111.669 131.467 111.503C134.277 110.076 138.432 112.618 140.75 117.164C142.371 120.366 143.151 124.744 142.551 127.562C144.952 125.751 144.244 119.203 142.034 114.849Z" fill="#0F2A3F"/>
<path d="M137.567 133.871C133.1 131.88 128.549 132.348 127.384 134.926C126.219 137.505 128.909 141.223 133.388 143.214C137.867 145.205 144.484 145.613 145.636 143.082C146.789 140.551 142.022 135.874 137.567 133.871Z" fill="#67B8EF"/>
<path opacity="0.25" d="M137.566 133.871C133.099 131.88 128.548 132.348 127.383 134.926C127.127 135.545 127.06 136.225 127.191 136.881C128.392 134.399 132.907 133.967 137.302 135.934C140.905 137.541 144.675 140.851 145.408 143.43C145.494 143.323 145.566 143.206 145.624 143.082C146.777 140.503 142.022 135.874 137.566 133.871Z" fill="#34648C"/>
<path d="M178.755 149.607C183.21 148.024 185.96 144.366 184.939 141.452C183.919 138.537 179.439 137.458 174.984 139.053C170.529 140.648 165.69 145.05 166.735 147.94C167.779 150.831 174.3 151.142 178.755 149.607Z" fill="#34648C"/>
<path opacity="0.26" d="M184.927 141.451C184.666 140.813 184.265 140.242 183.754 139.779C183.242 139.316 182.634 138.974 181.973 138.776C182.508 139.212 182.921 139.778 183.174 140.419C184.219 143.346 181.445 146.992 176.99 148.575C173.923 149.667 170.595 149.793 167.455 148.935C169.496 150.902 174.924 150.986 178.791 149.607C183.21 148.023 185.984 144.365 184.927 141.451Z" fill="#0F2A3F"/>
<path d="M155.58 165.642C156.565 153.086 162.214 141.352 171.419 132.744C171.779 132.396 171.239 131.856 170.867 132.192C161.524 140.951 155.798 152.882 154.812 165.642C154.812 166.134 155.544 166.134 155.58 165.642Z" fill="#1E394C"/>
<path d="M152.769 163.843C153.122 148.32 148.138 133.145 138.647 120.846C138.359 120.462 137.686 120.846 137.987 121.242C147.398 133.424 152.344 148.46 152 163.843C152 163.945 152.041 164.043 152.113 164.115C152.185 164.187 152.283 164.227 152.385 164.227C152.487 164.227 152.584 164.187 152.656 164.115C152.728 164.043 152.769 163.945 152.769 163.843Z" fill="#1E394C"/>
<path d="M149.504 141.164C151.617 134.459 152.146 127.335 152.41 120.343C152.41 120.241 152.369 120.143 152.297 120.071C152.225 119.999 152.128 119.959 152.026 119.959C151.924 119.959 151.826 119.999 151.754 120.071C151.682 120.143 151.641 120.241 151.641 120.343C151.377 127.275 150.849 134.315 148.759 140.96C148.603 141.44 149.36 141.643 149.504 141.164Z" fill="#1E394C"/>
<path d="M137.495 139.868C141.352 142.155 145.427 144.056 149.659 145.541C150.116 145.721 150.32 144.978 149.863 144.798C145.689 143.327 141.668 141.455 137.855 139.209C137.435 138.945 137.051 139.604 137.471 139.868H137.495Z" fill="#1E394C"/>
<path d="M170.421 145.889C166.704 147.435 162.879 148.71 158.977 149.703C158.879 149.73 158.795 149.795 158.744 149.884C158.693 149.973 158.68 150.078 158.707 150.176C158.734 150.275 158.799 150.359 158.888 150.41C158.977 150.46 159.083 150.473 159.181 150.446C163.084 149.454 166.908 148.179 170.625 146.632C171.082 146.44 170.877 145.697 170.421 145.889Z" fill="#1E394C"/>
<path d="M139.813 162.056L142.214 183.296C142.354 184.579 142.963 185.765 143.925 186.627C144.887 187.488 146.134 187.963 147.426 187.962H160.911C162.202 187.958 163.446 187.481 164.407 186.62C165.368 185.76 165.979 184.577 166.123 183.296L168.525 162.056C168.553 161.783 168.524 161.507 168.439 161.246C168.355 160.985 168.216 160.744 168.033 160.54C167.85 160.335 167.626 160.172 167.376 160.059C167.125 159.946 166.854 159.887 166.579 159.885H141.758C141.483 159.885 141.211 159.943 140.959 160.055C140.708 160.167 140.483 160.331 140.3 160.536C140.116 160.741 139.978 160.982 139.894 161.244C139.81 161.506 139.782 161.782 139.813 162.056Z" fill="#CEE5ED"/>
<path d="M166.555 159.885H157.957C158.232 159.885 158.504 159.943 158.755 160.055C159.005 160.167 159.23 160.331 159.412 160.536C159.595 160.742 159.732 160.983 159.814 161.245C159.897 161.507 159.923 161.783 159.891 162.056L157.489 183.296C157.345 184.577 156.734 185.76 155.773 186.62C154.812 187.481 153.568 187.958 152.277 187.962H160.911C162.202 187.958 163.446 187.481 164.407 186.62C165.368 185.76 165.979 184.577 166.123 183.296L168.525 162.056C168.553 161.781 168.524 161.503 168.438 161.24C168.352 160.977 168.211 160.736 168.025 160.531C167.839 160.326 167.612 160.163 167.359 160.051C167.106 159.94 166.832 159.883 166.555 159.885Z" fill="#AAC6CE"/>
<path d="M80.7497 153.36L80.2743 156.186L82.5413 158.968L88.4281 156.374L89.1045 153.787L81.8283 152.669L80.7497 153.36Z" fill="#F2BF75"/>
<path d="M85.4463 163.494L86.1097 162.723C86.1389 162.692 86.1744 162.667 86.2138 162.65C86.2533 162.634 86.2959 162.625 86.3389 162.625C86.382 162.625 86.4246 162.634 86.4641 162.65C86.5035 162.667 86.539 162.692 86.5682 162.723L87.2023 163.475C87.3303 163.624 87.49 163.743 87.6703 163.826C87.8506 163.908 88.0472 163.951 88.2462 163.951L102.753 163.932C102.825 163.862 102.882 163.779 102.921 163.687C102.96 163.596 102.98 163.498 102.98 163.399C102.98 163.3 102.96 163.202 102.921 163.11C102.882 163.019 102.825 162.935 102.753 162.866C100.656 160.743 89.2608 156.963 88.695 156.659C88.1292 156.354 84.5975 158.953 79.9927 156.449C79.5471 158.37 79.2213 160.316 79.0171 162.275C79.001 162.496 79.0317 162.718 79.1072 162.928C79.1828 163.137 79.3015 163.328 79.4561 163.491C79.6107 163.653 79.7978 163.783 80.0059 163.872C80.214 163.961 80.4386 164.007 80.6658 164.008H84.3536C84.5647 164.015 84.7744 163.972 84.9647 163.882C85.155 163.793 85.3203 163.659 85.4463 163.494Z" fill="#1E394C"/>
<path d="M55.5998 153.498L55.0461 156.883L57.6369 160.228L64.3646 157.108L65.1377 154.019L56.8325 152.669L55.5998 153.498Z" fill="#F2BF75"/>
<path d="M60.8932 163.485L61.6157 162.714C61.646 162.68 61.6845 162.653 61.7284 162.634C61.7722 162.615 61.8203 162.606 61.8691 162.606C61.9178 162.606 61.9659 162.615 62.0098 162.634C62.0537 162.653 62.0922 162.68 62.1225 162.714L62.8342 163.456C62.9736 163.608 63.1494 163.73 63.349 163.814C63.5486 163.898 63.7669 163.942 63.988 163.942H80.0225C80.1838 163.799 80.2744 163.606 80.2744 163.404C80.2744 163.202 80.1838 163.009 80.0225 162.866C77.7041 160.743 65.1094 156.973 64.484 156.659C63.8586 156.344 59.9551 158.953 54.8654 156.449C54.3723 158.374 54.0122 160.323 53.7871 162.285C53.7725 162.506 53.809 162.727 53.8944 162.935C53.9798 163.143 54.1123 163.334 54.2838 163.495C54.4554 163.656 54.6624 163.785 54.8922 163.873C55.1219 163.962 55.3697 164.008 55.6203 164.009H59.761C59.9822 164.002 60.199 163.952 60.3951 163.861C60.5912 163.771 60.7615 163.642 60.8932 163.485Z" fill="#1E394C"/>
<path d="M90.815 43.0576L95.565 60.6068L108.483 52.2534L114.334 56.7498L97.4628 72.0355L85.3206 61.1447L90.815 43.0576Z" fill="#BBD5DE"/>
<path d="M55.0456 153.929C55.0456 149.968 59.6251 83.9939 59.6251 83.9939C59.6251 83.9939 68.8658 74.9532 73.9043 75.9075C78.9327 74.9532 90.3662 81.6542 90.3662 81.6542C90.3662 81.6542 90.1214 149.968 90.1214 153.929H79.2182C79.2182 153.929 79.1468 122.476 74.9039 99.7664C74.8458 99.5605 74.7252 99.3779 74.5589 99.2444C74.3926 99.1108 74.189 99.0329 73.9765 99.0216C73.764 99.0103 73.5533 99.0661 73.374 99.1813C73.1946 99.2964 73.0555 99.4652 72.9762 99.6638C68.7026 122.425 65.9386 153.929 65.9386 153.929H55.0456Z" fill="#1E394C"/>
<path d="M73.4634 32.9775C73.4634 32.9775 60.3422 36.0964 58.5199 38.1418C56.6975 40.1873 49.8869 52.8753 50.0015 57.1485C50.1473 62.2115 58.9781 72.8439 58.801 72.2161V87.3343C58.801 87.3343 78.9098 93.41 91.0833 85.9774C91.0833 85.9774 92.4788 47.2351 90.8022 42.9213C90.2919 41.5948 83.6792 35.9951 81.7215 35.3167C79.7637 34.6382 73.4634 32.9775 73.4634 32.9775Z" fill="#CEE5ED"/>
<path d="M50.001 56.996C50.1443 61.4315 57.5836 70.3529 59.0604 71.7912L59.3029 71.9522L64.0089 75.8144L69.6628 71.1576C69.6628 71.1576 59.2368 64.3785 60.6365 55.6784C61.6504 49.5631 68.6158 38.5798 68.6158 38.5798C71.1558 37.1091 73.3939 35.2436 75.2285 33.0681L74.8428 32.9775C74.8428 32.9775 60.9561 36.0754 59.0274 38.097C57.0987 40.1187 49.8798 52.7817 50.001 56.996Z" fill="#CEE5ED"/>
<path d="M73.967 25.418V34.5652C73.967 34.5652 76.8391 43.7125 83.4684 36.5166L84.0586 29.1683L73.967 25.418Z" fill="#EA9249"/>
<path d="M129.621 40.6544C129.597 40.476 129.087 40.4333 128.51 40.571C128.151 40.6137 127.818 40.7756 127.562 41.0307C127.548 41.1585 127.565 41.2879 127.613 41.4074C127.633 41.556 127.952 41.6041 128.35 41.561L128.74 42.5177L129.146 42.4633L129.093 41.4615C129.479 41.3292 129.728 41.1546 129.699 41.0171C129.671 40.8797 129.685 40.6861 129.621 40.6544Z" fill="#2D197D"/>
<path d="M125.422 41.4687C125.072 41.5627 124.765 41.7748 124.554 42.0691C124.57 42.1947 124.611 42.316 124.672 42.4266C124.691 42.5653 125.045 42.5685 125.436 42.4758L125.932 43.3174L126.325 43.1639L126.133 42.1807C126.491 41.9915 126.715 41.78 126.666 41.6452C126.618 41.5104 126.627 41.3478 126.555 41.3373C126.48 41.2362 125.98 41.2629 125.422 41.4687Z" fill="#2D197D"/>
<path d="M122.386 51.5807L86.8578 64.7395L85.5336 59.3677L115.976 48.9174L122.386 51.5807Z" fill="#1C2251"/>
<path d="M133.505 47.5906L131.515 43.4277C131.303 42.8205 130.407 42.0828 129.8 42.2952L120.252 46.3374L115.898 48.9379L121.207 52.0412C121.207 52.0412 123.854 52.9782 133.807 48.6398L133.505 47.5906Z" fill="#1C2251"/>
<path d="M70.9729 50.3085C68.0777 51.2912 68.9133 56.1028 66.1341 56.5958C60.8223 57.5387 56.1837 54.3155 50.6866 56.2114C40.7925 59.5533 34.3208 68.4907 38.0749 79.4294C42.903 93.4933 57.6387 97.9077 67.34 89.204C70.3124 86.5362 72.4395 82.3773 76.7794 81.6351C78.2531 81.5057 79.7354 81.5066 81.2089 81.6376C86.2107 81.6946 90.4396 77.0325 91.7565 72.5482C95.0783 61.2578 83.1807 45.7086 71.007 49.6582C70.9442 49.717 71.0509 50.2879 70.9729 50.3085Z" fill="#1C2251"/>
<path d="M121.381 50.7768L88.1121 62.6545L86.379 57.6199L119.763 46.0798L121.381 50.7768Z" fill="#62BDF4"/>
<path d="M133.506 47.5908L131.276 41.1093L123.125 43.9051C121.836 44.3418 120.675 45.0898 119.744 46.0828L121.381 50.7772L121.441 50.7692C122.734 50.9451 124.05 50.8173 125.285 50.396L133.506 47.5908Z" fill="#62BDF4"/>
<path d="M69.6829 49.8656C67.6494 50.8036 65.9836 52.3785 63.9917 53.4017C61.7803 54.5084 59.2782 54.8961 56.8356 54.5107C54.5118 53.9932 52.1445 53.6952 49.765 53.6207C46.9906 53.8106 44.318 54.7419 42.0265 56.3175C39.7349 57.8931 37.9085 60.0552 36.738 62.5778C33.2804 70.3652 36.7902 81.7402 42.7205 87.454C44.4298 89.1546 46.5359 90.4024 48.8485 91.0846C51.1611 91.7669 53.6072 91.8621 55.9658 91.3617C61.0582 90.1354 64.3375 85.3885 68.051 82.0766C69.3969 80.7369 71.1141 79.8322 72.9802 79.4799C76.1519 79.0554 78.921 79.6938 81.8834 78.1573C84.4687 76.7668 86.5101 74.5459 87.6784 71.8529C90.9893 64.1759 87.4158 53.6065 79.6555 50.1251C77.0453 48.936 74.1152 48.6435 71.3215 49.2932C70.7584 49.4316 70.2097 49.6232 69.6829 49.8656Z" fill="#62BDF4"/>
<path d="M74.0153 64.6723C74.4761 66.0134 74.5289 67.4611 74.167 68.8322C73.8051 70.2033 73.0447 71.4363 71.982 72.3753C70.9193 73.3143 69.6021 73.9171 68.1968 74.1074C66.7915 74.2977 65.3614 74.0671 64.0872 73.4446C62.813 72.8222 61.7521 71.8359 61.0384 70.6104C60.3248 69.385 59.9906 67.9754 60.0781 66.56C60.1656 65.1446 60.6708 63.787 61.5299 62.6587C62.389 61.5304 63.5633 60.6823 64.9044 60.2214C65.7949 59.9155 66.7369 59.7879 67.6767 59.8459C68.6165 59.904 69.5356 60.1466 70.3817 60.5599C71.2277 60.9732 71.984 61.5491 72.6075 62.2547C73.2309 62.9603 73.7093 63.7818 74.0153 64.6723Z" fill="#1C2251"/>
<path d="M119.972 46.6759L52.0078 70.1074L52.0828 70.3249L120.047 46.8934L119.972 46.6759Z" fill="#E6EEFF"/>
<path d="M120.361 47.8053L52.3525 71.292L52.4276 71.5094L120.436 48.0227L120.361 47.8053Z" fill="#E6EEFF"/>
<path d="M52.818 72.6649L52.7479 72.4422L120.719 48.848L120.788 49.0607L52.818 72.6649Z" fill="#E6EEFF"/>
<path d="M53.2829 73.8025L53.2041 73.5911L121.036 49.7835L121.116 50.0048L53.2829 73.8025Z" fill="#E6EEFF"/>
<path d="M51.6673 69.1345L48.7256 70.1436L50.6982 75.8946L53.64 74.8856L51.6673 69.1345Z" fill="#1C2251"/>
<path d="M125.743 50.6574L126.386 50.7126L126.724 52.1807L125.891 52.3629L125.743 50.6574Z" fill="#1C2251"/>
<path d="M125.285 52.5048C125.261 52.3264 125.682 52.0784 126.219 51.946C126.756 51.8135 127.297 51.8622 127.331 52.0393C127.365 52.2163 127.468 52.3841 127.387 52.4555C127.305 52.5269 126.752 52.5404 126.396 52.5882C126.039 52.6359 125.539 52.8946 125.357 52.818C125.175 52.7414 125.29 52.5444 125.285 52.5048Z" fill="#412354"/>
<path d="M125.328 52.8314C125.304 52.653 125.715 52.4063 126.263 52.2824C126.812 52.1586 127.34 52.1887 127.374 52.3658C127.408 52.5429 126.989 52.8008 126.44 52.9247C125.892 53.0485 125.352 53.0098 125.328 52.8314Z" fill="#1C2251"/>
<path d="M131.266 49.1012L131.849 48.781L132.658 50.0752L131.878 50.4318L131.266 49.1012Z" fill="#1C2251"/>
<path d="M131.298 50.701C131.274 50.5226 131.594 50.1973 132.126 49.9545C132.659 49.7118 133.164 49.6441 133.236 49.806C133.308 49.9678 133.44 50.1218 133.38 50.2004C133.32 50.2791 132.77 50.393 132.418 50.5511C132.066 50.7092 131.645 51.0379 131.469 51.0009C131.293 50.964 131.323 50.738 131.298 50.701Z" fill="#412354"/>
<path d="M131.439 51.0047C131.415 50.8263 131.735 50.501 132.268 50.2582C132.8 50.0155 133.296 49.9492 133.378 50.1097C133.46 50.2702 133.082 50.6134 132.549 50.8562C132.017 51.0989 131.511 51.1666 131.439 51.0047Z" fill="#1C2251"/>
<path d="M128.49 50.1482L129.062 49.8195L129.707 51.2465L128.899 51.5463L128.49 50.1482Z" fill="#1C2251"/>
<path d="M128.313 51.7661C128.291 51.5976 128.643 51.2882 129.23 51.0784C129.818 50.8686 130.278 50.8373 130.341 51.0105C130.405 51.1836 130.526 51.3388 130.456 51.4188C130.386 51.4988 129.83 51.5631 129.485 51.7001C129.14 51.8371 128.685 52.13 128.526 52.0706C128.366 52.0112 128.33 51.8143 128.313 51.7661Z" fill="#412354"/>
<path d="M128.426 52.0834C128.402 51.905 128.756 51.6055 129.342 51.3858C129.928 51.1661 130.4 51.1533 130.464 51.3264C130.527 51.4995 130.134 51.8044 129.547 52.0141C128.959 52.2239 128.49 52.2565 128.426 52.0834Z" fill="#1C2251"/>
<path d="M131.204 44.1155L121.925 47.4558L121.439 45.9368L130.667 42.5932L131.204 44.1155Z" fill="#1C2251"/>
<path d="M132.077 46.4198L122.606 49.5335L122.085 48.0495L131.662 44.8307L132.077 46.4198Z" fill="#1C2251"/>
<path d="M101.5 60.5L105 57.5L108.483 52.2539L114.334 56.7503L97.4628 72.036L93.5 65L101.5 60.5Z" fill="#BBD5DE"/>
<path d="M108.026 52.3897L111.843 45.1388C111.941 44.9545 112.076 44.7916 112.242 44.6602C112.408 44.5288 112.6 44.4317 112.807 44.375C113.013 44.3184 113.23 44.3032 113.442 44.3307C113.655 44.3581 113.86 44.4275 114.044 44.5345C115.075 45.1221 115.889 46.0062 116.371 47.0625C116.854 48.1187 116.98 49.2941 116.733 50.4234C116.212 52.7379 115.341 55.4724 113.937 56.9165L108.026 52.3897Z" fill="#F2BF75"/>
<path d="M108.178 51.8765L107.006 49.5577C106.767 49.2732 106.703 48.9447 106.826 48.6333C106.95 48.3219 107.252 48.0488 107.678 47.8648L109.635 46.9831C109.919 46.8672 110.261 46.8178 110.599 46.8436C110.937 46.8695 111.249 46.969 111.478 47.1242C111.6 47.214 111.691 47.318 111.747 47.4299C111.803 47.5418 111.822 47.6595 111.804 47.7761C111.785 47.8926 111.729 48.0057 111.639 48.1088C111.548 48.2118 111.426 48.3027 111.278 48.3762L110.378 48.7994L109.464 49.2314L111.664 51.3034L108.178 51.8765Z" fill="#F2BF75"/>
<path d="M91.0676 17.2322C91.0676 17.2322 102.83 14.8265 95.5662 5.16385C95.5662 5.16385 94.3177 10.2934 87.9516 5.89948C84.7118 3.65281 79.9037 3.09612 74.5384 5.89948C68.7913 8.88179 66.7896 18.0971 71.7009 22.8986L81.3172 21.0297L91.0676 17.2322Z" fill="#1E394C"/>
<path d="M91.5735 17.9727C91.5735 17.9727 92.9122 33.9719 82.3166 32.9287C74.0144 32.1127 74.3154 25.8638 74.3154 25.8638C74.3154 25.8638 71.6068 25.3061 71.4615 22.8892C71.3162 20.4722 72.0945 18.4581 74.5748 20.0488C74.5748 20.0488 78.8919 17.2807 79.1721 15.3389C83.038 17.1818 87.2884 18.0846 91.5735 17.9727Z" fill="#F2BF75"/>
<path d="M71.6153 78.5357C71.8893 78.8941 71.9934 79.3343 71.9048 79.7607C71.8162 80.187 71.5422 80.5649 71.1423 80.8123L69.1489 82.2264C68.7941 82.5241 68.3215 82.6849 67.8342 82.6736C67.3469 82.6623 66.8843 82.4799 66.5473 82.1662L60.3982 75.3465L66.277 71.335L72.674 75.3465C72.7785 75.4112 72.8639 75.4974 72.9229 75.5978C72.9819 75.6982 73.0127 75.8099 73.0127 75.9232C73.0127 76.0365 72.9819 76.1482 72.9229 76.2486C72.8639 76.349 72.7785 76.4352 72.674 76.4999C72.3395 76.6888 71.9367 76.757 71.5477 76.6904C70.8942 76.6357 70.2893 76.3592 69.8584 75.9182L71.6153 78.5357Z" fill="#F6BA8E"/>
<path d="M66.9062 71.5L60.4741 76.4091C60.4741 76.4091 43.8641 58.3515 43.7903 51.3528C43.7903 47.4135 52.732 39 58.5 38.5C58.5 38.5 61.2076 38.9964 63.0347 39.5021C64.7347 39.9725 66.9061 41.7409 66.9061 41.7409C66.9061 41.7409 55.1994 44.3341 52.732 49.8631C52.511 50.3816 52.431 50.9445 52.4991 51.5C52.5673 52.0555 52.7815 52.5859 53.1221 53.0425C56.064 57.1318 63.9222 68.7705 66.9062 71.5Z" fill="url(#paint1_linear)"/>
<path d="M56 39C56 39 45.5671 48.238 45.5959 51.3218C45.5959 57.3487 58.3723 71.7831 61.6602 75.7005L59.9874 77.0968C59.9874 77.0968 43.5673 57.5314 43.5 50.5C44 46 48 43 56 39Z" fill="#B4CCD3"/>
<path d="M60.0919 52.4512L60.4069 52.5664L62.7515 53.1369L63.3181 52.4512L62.3636 51.8081C62.3636 51.8081 65.5897 42.8039 65.0839 43.0631C64.578 43.3223 60.0919 52.4512 60.0919 52.4512Z" fill="#B4CCD3"/>
<path d="M86.4936 30.5869C87.3067 29.6255 87.7953 28.4649 87.8987 27.2495C88.4212 27.2666 88.9437 27.2142 89.45 27.0941C89.6186 26.9282 89.0229 22.4923 89.1353 21.7149C89.2027 21.1656 89.5175 19.0306 89.6973 17.8594C90.4842 17.8594 90.7202 17.9319 91.5633 17.9216C91.5633 17.9216 93.0696 33.976 81.5363 32.9292C84.3466 32.9707 85.2683 31.7891 86.4936 30.5869Z" fill="#EA9249"/>
</g>
<defs>
<linearGradient id="paint0_linear" x1="101.506" y1="173.534" x2="101.506" y2="-35.1548" gradientUnits="userSpaceOnUse">
<stop stop-color="white"/>
<stop offset="0.13" stop-color="#F8FCFE"/>
<stop offset="0.31" stop-color="#E6F3FC"/>
<stop offset="0.52" stop-color="#C7E5F9"/>
<stop offset="0.75" stop-color="#9CD1F5"/>
<stop offset="1" stop-color="#67B8EF"/>
</linearGradient>
<linearGradient id="paint1_linear" x1="74.288" y1="46.7399" x2="48.4065" y2="75.6102" gradientUnits="userSpaceOnUse">
<stop stop-color="#C5DDE6"/>
<stop offset="1" stop-color="#CEE5ED"/>
</linearGradient>
<clipPath id="clip0">
<rect width="203" height="193" fill="white"/>
</clipPath>
</defs>
</svg>
