<svg width="203" height="194" viewBox="0 0 203 194" fill="none" xmlns="http://www.w3.org/2000/svg">
<path opacity="0.42" d="M43.0737 189.104H159.926C185.972 171.174 203 141.597 203 108.123C203 53.4084 157.561 1.2002 101.506 1.2002C45.4513 1.2002 0 53.4084 0 108.123C0 141.597 17.0277 171.174 43.0737 189.104Z" fill="url(#paint0_linear)"/>
<path opacity="0.43" d="M99.2607 193.613C145.811 193.613 183.547 191.728 183.547 189.403C183.547 187.078 145.811 185.193 99.2607 185.193C52.7108 185.193 14.9746 187.078 14.9746 189.403C14.9746 191.728 52.7108 193.613 99.2607 193.613Z" fill="#CEE5ED"/>
<path d="M87.372 173.669L87.9965 177.639L85.0184 181.549L77.2851 177.902L76.3965 174.268L85.9551 172.697L87.372 173.669Z" fill="#F2BF75"/>
<path d="M81.3449 186.549L80.5283 185.578C80.4924 185.539 80.4487 185.508 80.4002 185.486C80.3516 185.465 80.2992 185.454 80.2461 185.454C80.1931 185.454 80.1407 185.465 80.0921 185.486C80.0436 185.508 79.9999 185.539 79.9639 185.578L79.1834 186.525C79.0259 186.713 78.8293 186.863 78.6074 186.967C78.3854 187.07 78.1435 187.124 77.8985 187.125L60.0422 187.101C59.9536 187.013 59.8833 186.908 59.8354 186.793C59.7874 186.678 59.7627 186.554 59.7627 186.429C59.7627 186.304 59.7874 186.181 59.8354 186.065C59.8833 185.95 59.9536 185.846 60.0422 185.758C62.624 183.083 76.6497 178.321 77.3462 177.938C78.0426 177.554 82.3896 180.828 88.0575 177.674C88.606 180.094 89.007 182.545 89.2584 185.014C89.2781 185.293 89.2403 185.572 89.1474 185.836C89.0544 186.099 88.9083 186.341 88.718 186.545C88.5277 186.75 88.2973 186.913 88.0412 187.025C87.7851 187.137 87.5086 187.196 87.229 187.197H82.6898C82.4299 187.205 82.1718 187.151 81.9376 187.038C81.7034 186.925 81.5 186.758 81.3449 186.549Z" fill="#1E394C"/>
<path d="M115.988 173.825L116.624 177.795L113.646 181.717L105.913 178.059L105.024 174.437L114.571 172.854L115.988 173.825Z" fill="#F2BF75"/>
<path d="M109.96 186.718L109.156 185.746C109.122 185.704 109.079 185.67 109.03 185.646C108.981 185.622 108.928 185.61 108.873 185.61C108.819 185.61 108.766 185.622 108.717 185.646C108.668 185.67 108.625 185.704 108.591 185.746L107.799 186.682C107.643 186.873 107.448 187.027 107.225 187.132C107.003 187.238 106.76 187.293 106.514 187.293H88.6575C88.4779 187.114 88.377 186.87 88.377 186.616C88.377 186.362 88.4779 186.118 88.6575 185.938C91.2393 183.264 105.265 178.514 105.961 178.118C106.658 177.723 111.005 181.009 116.673 177.854C117.222 180.279 117.623 182.734 117.874 185.207C117.89 185.485 117.849 185.763 117.754 186.026C117.659 186.288 117.512 186.527 117.321 186.731C117.129 186.934 116.899 187.096 116.643 187.207C116.387 187.318 116.111 187.376 115.832 187.377H111.221C110.975 187.37 110.733 187.306 110.515 187.192C110.297 187.078 110.107 186.916 109.96 186.718Z" fill="#1E394C"/>
<path d="M74.8008 45.2891L69.361 66.026L54.5668 56.1553L47.8662 61.4684L67.1875 79.5308L81.0931 66.6617L74.8008 45.2891Z" fill="#BBD5DE"/>
<path d="M54.5411 56.1663L50.2302 47.6748C50.12 47.459 49.9664 47.2683 49.7791 47.1144C49.5918 46.9605 49.3748 46.8468 49.1416 46.7804C48.9083 46.714 48.6639 46.6963 48.4235 46.7285C48.1832 46.7606 47.952 46.8419 47.7444 46.9672C46.5799 47.6553 45.6605 48.6906 45.1155 49.9276C44.5706 51.1646 44.4275 52.5411 44.7064 53.8635C45.2948 56.5741 46.2794 59.7764 47.8645 61.4675L54.5411 56.1663Z" fill="#F2BF75"/>
<path d="M49.2336 39.7725L44.5023 39.3887C43.8178 39.3887 43.3855 39.7725 43.5296 40.3721L46.8319 53.6251C46.9436 53.9503 47.1469 54.2365 47.4175 54.4493C47.688 54.662 48.0142 54.7923 48.357 54.8244L53.0762 55.2082C54.181 55.3042 54.8054 57.2471 54.0489 54.2367L50.7346 40.9598C50.6253 40.6387 50.4255 40.3558 50.1593 40.1452C49.893 39.9346 49.5716 39.8052 49.2336 39.7725Z" fill="#1E394C"/>
<path d="M54.565 56.203L55.5497 53.0486C55.751 52.6617 55.8048 52.2149 55.701 51.7913C55.5972 51.3677 55.3428 50.9962 54.9853 50.7459L53.3402 49.5465C53.1014 49.3889 52.8142 49.3216 52.5302 49.3568C52.2462 49.392 51.9841 49.5273 51.7911 49.7384C51.6888 49.8607 51.6119 50.002 51.565 50.1543C51.518 50.3065 51.5019 50.4666 51.5175 50.6252C51.5332 50.7837 51.5803 50.9376 51.6561 51.0777C51.732 51.2179 51.835 51.3415 51.9592 51.4415L52.7158 52.0172L53.4843 52.6049L51.635 55.4234L54.565 56.203Z" fill="#F2BF75"/>
<path d="M116.949 174.748C116.949 170.119 111.557 93.0119 111.557 93.0119C111.557 93.0119 100.678 82.4455 94.7456 83.5609C88.8255 82.4455 75.3643 90.2773 75.3643 90.2773C75.3643 90.2773 75.6525 170.119 75.6525 174.748H88.4893C88.4893 174.748 88.5734 137.988 93.5688 111.446C93.6372 111.205 93.7792 110.992 93.9749 110.836C94.1707 110.68 94.4105 110.589 94.6607 110.576C94.9108 110.562 95.1589 110.628 95.3701 110.762C95.5812 110.897 95.745 111.094 95.8384 111.326C100.87 137.928 104.124 174.748 104.124 174.748H116.949Z" fill="#1E394C"/>
<path d="M95.0095 32.7676C95.0095 32.7676 110.14 36.4616 112.241 38.8843C114.343 41.307 122.196 56.335 122.064 61.3963C121.896 67.3931 111.713 79.9864 111.917 79.2428V97.1492C111.917 97.1492 88.7291 104.345 74.6914 95.5421C74.6914 95.5421 73.0823 49.6546 75.0157 44.5453C75.6041 42.9741 83.2293 36.3417 85.4869 35.5381C87.7445 34.7345 95.0095 32.7676 95.0095 32.7676Z" fill="#CEE5ED"/>
<path d="M122.063 61.3956C121.907 66.6848 113.801 77.3231 112.192 79.0382L111.928 79.2301L106.801 83.8356L100.64 78.2826C100.64 78.2826 112 70.1989 110.475 59.8244C109.37 52.5323 101.781 39.4353 101.781 39.4353C99.0136 37.6815 96.5751 35.4571 94.5762 32.8628L94.9965 32.7549C94.9965 32.7549 110.127 36.4489 112.228 38.8596C114.33 41.2703 122.195 56.3703 122.063 61.3956Z" fill="#CEE5ED"/>
<path d="M119.939 57.5098H69.997C66.9794 57.5098 64.5332 59.953 64.5332 62.9669V85.6707C64.5332 88.6846 66.9794 91.1278 69.997 91.1278H119.939C122.957 91.1278 125.403 88.6846 125.403 85.6707V62.9669C125.403 59.953 122.957 57.5098 119.939 57.5098Z" fill="#87D3F9"/>
<path opacity="0.25" d="M119.939 57.5703H113.479C114.928 57.5703 116.317 58.1453 117.342 59.1687C118.367 60.1921 118.942 61.5801 118.942 63.0274V85.6713C118.945 86.39 118.806 87.1022 118.533 87.767C118.26 88.4319 117.858 89.0363 117.35 89.5456C116.843 90.0549 116.239 90.459 115.575 90.7347C114.911 91.0105 114.198 91.1524 113.479 91.1524H119.939C121.388 91.1524 122.778 90.5775 123.802 89.5541C124.827 88.5307 125.403 87.1426 125.403 85.6953V62.9674C125.387 61.5305 124.804 60.1579 123.781 59.1474C122.758 58.1369 121.378 57.5702 119.939 57.5703Z" fill="#34648C"/>
<path d="M125.403 68.376H64.5332V76.1838H125.403V68.376Z" fill="#1E394C"/>
<path d="M82.2929 81.4492H70.3086V83.1043H82.2929V81.4492Z" fill="#1E394C"/>
<path d="M76.1086 85.1436H70.3086V86.7987H76.1086V85.1436Z" fill="#1E394C"/>
<path d="M95.8146 24.3594V35.1536C95.8146 35.1536 92.3082 45.9479 84.2146 37.4564L83.4941 28.785L95.8146 24.3594Z" fill="#EA9249"/>
<path d="M74.7997 15.9644C74.7997 15.9644 61.1102 13.0619 69.564 1.40415C69.564 1.40415 71.017 7.59285 78.4262 2.29168C82.1968 -0.418873 87.7926 -1.09052 94.0369 2.29168C100.726 5.88976 103.055 17.0078 97.3392 22.8007L86.1475 20.5459L74.7997 15.9644Z" fill="#1E394C"/>
<path d="M74.7994 15.9646C74.7994 15.9646 73.2503 34.5427 85.5107 33.3314C95.1174 32.3839 94.7691 25.1277 94.7691 25.1277C94.7691 25.1277 97.9033 24.4801 98.0714 21.6736C98.2395 18.8671 97.3389 16.5283 94.4689 18.3753C94.4689 18.3753 89.4735 15.161 89.1493 12.9062C84.6759 15.0463 79.7577 16.0945 74.7994 15.9646Z" fill="#F2BF75"/>
<path d="M91.0349 95.7813C90.7427 96.2099 90.6318 96.7364 90.7262 97.2462C90.8207 97.7561 91.1129 98.2081 91.5392 98.5039L93.6647 100.195C94.043 100.551 94.5469 100.743 95.0665 100.73C95.5861 100.716 96.0793 100.498 96.4386 100.123L102.995 91.9674L96.7268 87.1699L89.9061 91.9674C89.7946 92.0447 89.7036 92.1478 89.6407 92.2679C89.5778 92.3879 89.5449 92.5215 89.5449 92.657C89.5449 92.7925 89.5778 92.926 89.6407 93.0461C89.7036 93.1662 89.7946 93.2693 89.9061 93.3466C90.2627 93.5726 90.6922 93.6541 91.1069 93.5745C91.8038 93.5091 92.4487 93.1784 92.9082 92.651L91.0349 95.7813Z" fill="#F6BA8E"/>
<path d="M95.502 87.2313L102.827 93.1201C102.827 93.1201 122.713 71.1358 122.797 62.7403C122.797 58.0148 117.093 46.6329 113.502 40.4922H100.605C100.605 40.4922 109.804 54.3208 112.614 60.9533C112.865 61.5753 112.957 62.2505 112.879 62.9169C112.801 63.5833 112.557 64.2195 112.169 64.7672C108.819 69.6726 98.9003 83.957 95.502 87.2313Z" fill="#CEE5ED"/>
<path d="M113.502 40.4922C113.502 40.4922 120.839 58.6865 120.803 62.3685C120.803 69.5647 104.844 86.7995 100.737 91.477L102.827 93.1441C102.827 93.1441 122.712 71.1598 122.797 62.7643C122.845 58.0148 117.093 46.6329 113.502 40.4922Z" fill="#B4CCD3"/>
<path d="M110.668 57.3665L110.272 57.5104H77.0332L76.5889 57.3665L107.81 56.5629C107.81 56.5629 103.752 45.3129 104.388 45.6367C105.024 45.9606 110.668 57.3665 110.668 57.3665Z" fill="#B4CCD3"/>
<path d="M80.2152 30.6207C79.3467 29.5082 78.8247 28.1652 78.7142 26.7588C78.156 26.7785 77.5979 26.7179 77.057 26.5789C76.8769 26.387 77.5134 21.2537 77.3933 20.3542C77.3212 19.7185 76.985 17.2479 76.7929 15.8926C75.9523 15.8926 75.7001 15.9765 74.7995 15.9645C74.7995 15.9645 73.1904 34.5426 85.5109 33.3313C82.5088 33.3793 81.5241 32.012 80.2152 30.6207Z" fill="#EA9249"/>
<path d="M54.8893 22.3452C54.5236 20.3241 53.5695 18.4556 52.1463 16.9732C50.7231 15.4908 48.894 14.4603 46.8877 14.0105C44.8813 13.5607 42.7867 13.7115 40.8657 14.4442C38.9447 15.1768 37.2825 16.4588 36.087 18.1298C34.8915 19.8008 34.2157 21.7867 34.144 23.8393C34.0724 25.8918 34.6081 27.9199 35.6842 29.67C36.7603 31.4201 38.329 32.8146 40.1942 33.6791C42.0595 34.5436 44.1385 34.8398 46.1713 34.5307L48.3088 37.0013L48.7531 33.7871C50.9167 32.8489 52.6997 31.2086 53.8134 29.1319C54.9272 27.0553 55.3063 24.6639 54.8893 22.3452ZM39.2546 25.1876C38.9976 25.19 38.7456 25.1161 38.5308 24.9752C38.316 24.8343 38.1479 24.6329 38.0479 24.3964C37.9479 24.1599 37.9205 23.8991 37.9691 23.6471C38.0178 23.395 38.1404 23.1631 38.3213 22.9807C38.5021 22.7984 38.7332 22.6738 38.9851 22.6229C39.237 22.5719 39.4984 22.5968 39.736 22.6945C39.9737 22.7922 40.177 22.9582 40.32 23.1715C40.4631 23.3847 40.5394 23.6356 40.5394 23.8923C40.541 24.0619 40.509 24.23 40.4451 24.3871C40.3812 24.5442 40.2869 24.6871 40.1674 24.8075C40.0479 24.928 39.9057 25.0236 39.7491 25.0888C39.5924 25.1541 39.4243 25.1877 39.2546 25.1876ZM44.4301 25.1876C44.1736 25.1876 43.9229 25.1117 43.7096 24.9693C43.4963 24.827 43.3301 24.6247 43.2319 24.388C43.1338 24.1513 43.1081 23.8909 43.1581 23.6396C43.2082 23.3884 43.3317 23.1576 43.5131 22.9764C43.6945 22.7953 43.9255 22.6719 44.1771 22.6219C44.4287 22.5719 44.6895 22.5976 44.9264 22.6956C45.1634 22.7937 45.3659 22.9597 45.5085 23.1727C45.651 23.3857 45.727 23.6361 45.727 23.8923C45.7286 24.0629 45.6962 24.232 45.6316 24.3899C45.567 24.5478 45.4715 24.6912 45.3507 24.8118C45.23 24.9324 45.0864 25.0278 44.9283 25.0923C44.7702 25.1568 44.6009 25.1892 44.4301 25.1876ZM49.5577 25.1876C49.3012 25.1876 49.0504 25.1117 48.8371 24.9693C48.6239 24.827 48.4576 24.6247 48.3595 24.388C48.2613 24.1513 48.2356 23.8909 48.2857 23.6396C48.3357 23.3884 48.4592 23.1576 48.6406 22.9764C48.822 22.7953 49.0531 22.6719 49.3046 22.6219C49.5562 22.5719 49.817 22.5976 50.054 22.6956C50.2909 22.7937 50.4935 22.9597 50.636 23.1727C50.7785 23.3857 50.8546 23.6361 50.8546 23.8923C50.8561 24.0619 50.8241 24.23 50.7602 24.3871C50.6964 24.5442 50.602 24.6871 50.4825 24.8075C50.363 24.928 50.2208 25.0236 50.0642 25.0888C49.9075 25.1541 49.7394 25.1877 49.5697 25.1876H49.5577Z" fill="#0E5C77"/>
<path d="M177.531 135.6C181.326 131.594 182.262 126.341 179.633 123.859C177.003 121.376 171.791 122.659 168.009 126.617C164.226 130.575 161.524 137.747 164.154 140.23C166.784 142.713 173.749 139.606 177.531 135.6Z" fill="#34648C"/>
<path opacity="0.26" d="M179.631 123.859C178.776 123.116 177.69 122.692 176.557 122.659C176.686 122.749 176.806 122.849 176.918 122.959C179.547 125.43 178.611 130.695 174.828 134.701C171.982 137.711 167.335 140.218 164.093 140.206V140.29C166.723 142.772 173.699 139.666 177.47 135.66C181.241 131.654 182.261 126.341 179.631 123.859Z" fill="#0F2A3F"/>
<path d="M158.282 120.178C158.798 114.78 156.492 110.139 153.154 109.827C149.816 109.515 146.706 113.641 146.201 119.05C145.697 124.459 147.702 131.608 151.089 131.931C154.475 132.255 157.777 125.587 158.282 120.178Z" fill="#67B8EF"/>
<path opacity="0.25" d="M153.153 109.827C152.531 109.769 151.905 109.864 151.328 110.103C154.066 111.194 155.831 115.38 155.387 120.177C154.966 124.651 152.589 129.964 149.887 131.487C150.249 131.72 150.66 131.868 151.088 131.919C154.426 132.231 157.776 125.587 158.293 120.177C158.809 114.768 156.491 110.139 153.153 109.827Z" fill="#34648C"/>
<path d="M142.033 116.028C139.716 111.482 135.561 108.94 132.751 110.367C129.941 111.794 129.533 116.639 131.85 121.161C134.168 125.683 139.404 130.36 142.214 128.933C145.024 127.506 144.351 120.585 142.033 116.028Z" fill="#34648C"/>
<path opacity="0.26" d="M142.034 116.028C139.717 111.482 135.562 108.94 132.752 110.367C132.203 110.673 131.727 111.095 131.356 111.602C130.985 112.109 130.728 112.69 130.603 113.305C130.86 113.058 131.151 112.848 131.467 112.682C134.277 111.254 138.432 113.797 140.75 118.343C142.371 121.545 143.151 125.923 142.551 128.741C144.952 126.93 144.244 120.381 142.034 116.028Z" fill="#0F2A3F"/>
<path d="M137.567 135.049C133.1 133.058 128.549 133.526 127.384 136.104C126.219 138.683 128.909 142.401 133.388 144.392C137.867 146.383 144.484 146.79 145.636 144.26C146.789 141.729 142.022 137.052 137.567 135.049Z" fill="#67B8EF"/>
<path opacity="0.25" d="M137.566 135.049C133.099 133.058 128.548 133.526 127.383 136.104C127.127 136.722 127.06 137.403 127.191 138.059C128.392 135.576 132.907 135.145 137.302 137.112C140.905 138.719 144.675 142.029 145.408 144.608C145.494 144.501 145.566 144.384 145.624 144.26C146.777 141.681 142.022 137.052 137.566 135.049Z" fill="#34648C"/>
<path d="M178.755 150.784C183.21 149.201 185.96 145.543 184.939 142.628C183.919 139.714 179.439 138.635 174.984 140.23C170.529 141.825 165.69 146.227 166.735 149.117C167.779 152.007 174.3 152.319 178.755 150.784Z" fill="#34648C"/>
<path opacity="0.26" d="M184.927 142.629C184.666 141.991 184.265 141.42 183.754 140.957C183.242 140.494 182.634 140.152 181.973 139.954C182.508 140.39 182.921 140.956 183.174 141.597C184.219 144.524 181.445 148.17 176.99 149.753C173.923 150.845 170.595 150.971 167.455 150.113C169.496 152.08 174.924 152.164 178.791 150.784C183.21 149.201 185.984 145.543 184.927 142.629Z" fill="#0F2A3F"/>
<path d="M155.58 166.82C156.565 154.264 162.214 142.529 171.419 133.921C171.779 133.573 171.239 133.034 170.867 133.37C161.524 142.129 155.798 154.06 154.812 166.82C154.812 167.311 155.544 167.311 155.58 166.82Z" fill="#1E394C"/>
<path d="M152.769 165.021C153.122 149.498 148.138 134.322 138.647 122.024C138.359 121.64 137.686 122.024 137.987 122.42C147.398 134.602 152.344 149.638 152 165.021C152 165.123 152.041 165.22 152.113 165.292C152.185 165.364 152.283 165.405 152.385 165.405C152.487 165.405 152.584 165.364 152.656 165.292C152.728 165.22 152.769 165.123 152.769 165.021Z" fill="#1E394C"/>
<path d="M149.504 142.341C151.617 135.637 152.146 128.513 152.41 121.521C152.41 121.419 152.369 121.321 152.297 121.249C152.225 121.177 152.128 121.137 152.026 121.137C151.924 121.137 151.826 121.177 151.754 121.249C151.682 121.321 151.641 121.419 151.641 121.521C151.377 128.453 150.849 135.493 148.759 142.138C148.603 142.617 149.36 142.821 149.504 142.341Z" fill="#1E394C"/>
<path d="M137.495 141.045C141.352 143.332 145.427 145.232 149.659 146.718C150.116 146.898 150.32 146.154 149.863 145.974C145.689 144.504 141.668 142.632 137.855 140.385C137.435 140.121 137.051 140.781 137.471 141.045H137.495Z" fill="#1E394C"/>
<path d="M170.421 147.067C166.704 148.613 162.879 149.888 158.977 150.88C158.879 150.908 158.795 150.973 158.744 151.061C158.693 151.15 158.68 151.256 158.707 151.354C158.734 151.453 158.799 151.537 158.888 151.587C158.977 151.638 159.083 151.651 159.181 151.624C163.084 150.631 166.908 149.357 170.625 147.81C171.082 147.618 170.877 146.875 170.421 147.067Z" fill="#1E394C"/>
<path d="M139.813 163.234L142.214 184.475C142.354 185.758 142.963 186.944 143.925 187.805C144.887 188.667 146.134 189.142 147.426 189.14H160.911C162.202 189.137 163.446 188.659 164.407 187.799C165.368 186.939 165.979 185.756 166.123 184.475L168.525 163.234C168.553 162.961 168.524 162.686 168.439 162.425C168.355 162.164 168.216 161.923 168.033 161.719C167.85 161.514 167.626 161.35 167.376 161.237C167.125 161.125 166.854 161.065 166.579 161.063H141.758C141.483 161.063 141.211 161.121 140.959 161.234C140.708 161.346 140.483 161.51 140.3 161.715C140.116 161.92 139.978 162.161 139.894 162.423C139.81 162.684 139.782 162.961 139.813 163.234Z" fill="#CEE5ED"/>
<path d="M166.555 161.064H157.957C158.232 161.063 158.504 161.121 158.755 161.234C159.005 161.346 159.23 161.51 159.412 161.715C159.595 161.92 159.732 162.162 159.814 162.424C159.897 162.685 159.923 162.962 159.891 163.234L157.489 184.475C157.345 185.756 156.734 186.939 155.773 187.799C154.812 188.659 153.568 189.137 152.277 189.141H160.911C162.202 189.137 163.446 188.659 164.407 187.799C165.368 186.939 165.979 185.756 166.123 184.475L168.525 163.234C168.553 162.959 168.524 162.682 168.438 162.419C168.352 162.156 168.211 161.915 168.025 161.71C167.839 161.505 167.612 161.341 167.359 161.23C167.106 161.119 166.832 161.062 166.555 161.064Z" fill="#AAC6CE"/>
<defs>
<linearGradient id="paint0_linear" x1="101.506" y1="174.712" x2="101.506" y2="-33.977" gradientUnits="userSpaceOnUse">
<stop stop-color="white"/>
<stop offset="0.13" stop-color="#F8FCFE"/>
<stop offset="0.31" stop-color="#E6F3FC"/>
<stop offset="0.52" stop-color="#C7E5F9"/>
<stop offset="0.75" stop-color="#9CD1F5"/>
<stop offset="1" stop-color="#67B8EF"/>
</linearGradient>
</defs>
</svg>
