<svg width="203" height="225" viewBox="0 0 203 225" fill="none" xmlns="http://www.w3.org/2000/svg">
<path opacity="0.42" d="M43.0737 220.052H159.926C185.972 202.139 203 172.59 203 139.146C203 84.4942 157.561 32.3223 101.506 32.3223C45.4513 32.3223 0 84.4942 0 139.146C0 172.59 17.0277 202.139 43.0737 220.052Z" fill="url(#paint0_linear)"/>
<path opacity="0.43" d="M172.736 217.767C172.736 214.053 140.143 211.072 99.938 211.11C59.7326 211.148 27.1396 214.189 27.1396 217.904C27.1396 221.618 59.7326 224.598 99.938 224.561C140.143 224.523 172.736 221.481 172.736 217.767Z" fill="#CEE5ED"/>
<path d="M122.569 143.22C115.832 140.824 110.368 133.347 110.368 126.66V13.2219C110.368 6.53562 115.832 3.09664 122.569 5.54107L171.947 23.5148C178.671 25.9114 184.147 33.3884 184.147 40.0747V153.513C184.147 160.199 178.671 163.65 171.947 161.194L122.569 143.22Z" fill="#17161C"/>
<path d="M123.361 146.971C116.265 144.395 110.477 136.558 110.477 129.513V9.93894C110.477 2.88124 116.241 -0.749468 123.337 1.82677L175.393 20.7592C182.478 23.3474 188.242 31.172 188.242 38.2177V157.803C188.242 164.849 182.478 168.492 175.393 165.903L123.361 146.971Z" fill="#1E394C"/>
<path d="M122.568 138.619C118.39 137.098 114.991 132.496 114.991 128.35V14.9119C114.991 10.7659 118.39 8.62106 122.568 10.1189L171.947 28.0926C176.113 29.6144 179.512 34.2157 179.512 38.3617V151.8C179.512 155.946 176.113 158.091 171.947 156.593L122.568 138.619Z" fill="#62BDF4"/>
<path opacity="0.25" d="M171.946 28.1042L122.568 10.1304C119.614 9.05199 117.056 9.81887 115.808 11.8319C116.59 11.4904 117.434 11.3141 118.287 11.3141C119.141 11.3141 119.985 11.4904 120.767 11.8319L170.145 29.8057C174.312 31.3155 177.71 35.9288 177.71 40.0747V153.513C177.733 154.592 177.45 155.655 176.894 156.581C177.737 156.126 178.432 155.44 178.896 154.603C179.36 153.766 179.574 152.814 179.512 151.86V38.3732C179.512 34.2273 176.113 29.626 171.946 28.1042Z" fill="#34648C"/>
<path d="M165.618 24.8937L128.885 11.5332L130.518 15.9068C130.893 16.8989 131.472 17.8023 132.216 18.5593C132.96 19.3164 133.854 19.9107 134.841 20.3044L159.71 29.3392C161.595 30.0222 163.313 29.531 164.033 28.141L165.618 24.8937Z" fill="#1E394C"/>
<path d="M169.941 43.6929L124.574 27.193C122.172 26.3063 120.167 27.5525 120.167 29.9729V50.3432C120.257 51.6561 120.718 52.9165 121.499 53.9773C122.279 55.0382 123.346 55.8557 124.574 56.3345L169.941 72.8943C172.343 73.769 174.348 72.5348 174.348 70.1144V49.7441C174.266 48.4219 173.807 47.1506 173.027 46.079C172.246 45.0074 171.176 44.1797 169.941 43.6929Z" fill="#87D3F9"/>
<path d="M169.941 79.5806L124.574 63.0807C122.172 62.194 120.167 63.4401 120.167 65.8606V86.2309C120.257 87.5438 120.718 88.8042 121.499 89.865C122.279 90.9259 123.346 91.7434 124.574 92.2222L169.941 108.722C172.343 109.609 174.348 108.363 174.348 105.954V85.5838C174.258 84.2697 173.796 83.008 173.016 81.9454C172.236 80.8827 171.17 80.0627 169.941 79.5806Z" fill="#87D3F9"/>
<path d="M169.941 115.853L124.574 99.3527C122.172 98.4659 120.167 99.7001 120.167 102.121V122.491C120.258 123.803 120.72 125.063 121.501 126.124C122.281 127.184 123.346 128.002 124.574 128.482L169.941 144.982C172.343 145.869 174.348 144.623 174.348 142.202V121.832C174.254 120.522 173.79 119.265 173.01 118.207C172.23 117.149 171.166 116.333 169.941 115.853Z" fill="#87D3F9"/>
<path d="M155.399 47.1087L139.788 41.405C139.686 41.3487 139.571 41.3209 139.454 41.3245C139.338 41.3282 139.224 41.3631 139.126 41.4257C139.028 41.4882 138.948 41.5761 138.896 41.68C138.843 41.7839 138.82 41.9 138.828 42.0161C138.848 42.302 138.949 42.5763 139.119 42.8073C139.289 43.0384 139.521 43.2169 139.788 43.3222L155.399 49.0259C155.501 49.0822 155.617 49.11 155.733 49.1064C155.85 49.1028 155.963 49.0678 156.061 49.0053C156.16 48.9427 156.239 48.8548 156.292 48.7509C156.344 48.647 156.368 48.5309 156.36 48.4148C156.339 48.1289 156.238 47.8546 156.068 47.6236C155.898 47.3925 155.666 47.214 155.399 47.1087Z" fill="#1E394C"/>
<path d="M155.399 57.845L139.788 52.1413C139.686 52.085 139.571 52.0572 139.454 52.0609C139.338 52.0645 139.224 52.0994 139.126 52.162C139.028 52.2245 138.948 52.3124 138.896 52.4163C138.843 52.5202 138.82 52.6364 138.828 52.7525C138.851 53.0362 138.953 53.3079 139.122 53.5367C139.292 53.7655 139.523 53.9421 139.788 54.0466L155.399 59.7503C155.5 59.8059 155.615 59.8336 155.73 59.8304C155.845 59.8272 155.958 59.7934 156.056 59.7323C156.154 59.6712 156.234 59.5851 156.287 59.483C156.34 59.3808 156.366 59.2662 156.36 59.1511C156.339 58.8652 156.238 58.591 156.068 58.3599C155.898 58.1288 155.666 57.9504 155.399 57.845Z" fill="#1E394C"/>
<path d="M160.227 54.2984L134.277 44.8681C133.749 44.6764 133.316 44.94 133.316 45.4673C133.337 45.7531 133.438 46.0274 133.608 46.2585C133.778 46.4895 134.01 46.668 134.277 46.7733L160.227 56.2156C160.329 56.2719 160.444 56.2997 160.561 56.2961C160.678 56.2924 160.791 56.2575 160.889 56.1949C160.988 56.1324 161.067 56.0445 161.12 55.9406C161.172 55.8367 161.196 55.7206 161.188 55.6045C161.164 55.3194 161.062 55.0464 160.893 54.8158C160.723 54.5852 160.493 54.4061 160.227 54.2984Z" fill="#1E394C"/>
<path d="M155.4 85.5842L139.789 79.8925C139.26 79.7008 138.828 79.9644 138.828 80.4917C138.849 80.7776 138.95 81.0518 139.12 81.2829C139.29 81.514 139.522 81.6924 139.789 81.7978L155.4 87.5014C155.502 87.5578 155.617 87.5855 155.734 87.5819C155.85 87.5783 155.964 87.5434 156.062 87.4808C156.16 87.4182 156.24 87.3304 156.292 87.2265C156.345 87.1225 156.368 87.0064 156.36 86.8903C156.34 86.6044 156.238 86.3302 156.069 86.0991C155.899 85.868 155.667 85.6896 155.4 85.5842Z" fill="#1E394C"/>
<path d="M160.227 92.7857L134.277 83.3435C134.175 83.2872 134.059 83.2594 133.943 83.263C133.826 83.2666 133.713 83.3016 133.614 83.3641C133.516 83.4267 133.436 83.5146 133.384 83.6185C133.331 83.7224 133.308 83.8385 133.316 83.9546C133.339 84.2384 133.441 84.5101 133.611 84.7389C133.781 84.9676 134.011 85.1443 134.277 85.2487L160.227 94.691C160.328 94.7466 160.442 94.7743 160.557 94.7711C160.673 94.7679 160.785 94.7341 160.883 94.673C160.981 94.6119 161.061 94.5258 161.114 94.4237C161.168 94.3215 161.193 94.2069 161.187 94.0918C161.167 93.8059 161.066 93.5317 160.896 93.3006C160.726 93.0695 160.494 92.8911 160.227 92.7857Z" fill="#1E394C"/>
<path d="M155.399 119.231L139.788 113.527C139.686 113.471 139.571 113.443 139.454 113.447C139.338 113.45 139.224 113.485 139.126 113.548C139.028 113.61 138.948 113.698 138.896 113.802C138.843 113.906 138.82 114.022 138.828 114.138C138.848 114.424 138.949 114.698 139.119 114.929C139.289 115.16 139.521 115.339 139.788 115.444L155.399 121.148C155.501 121.204 155.617 121.232 155.733 121.228C155.85 121.225 155.963 121.19 156.061 121.127C156.16 121.065 156.239 120.977 156.292 120.873C156.344 120.769 156.368 120.653 156.36 120.537C156.339 120.251 156.238 119.977 156.068 119.746C155.898 119.515 155.666 119.336 155.399 119.231Z" fill="#1E394C"/>
<path d="M155.399 129.873L139.789 124.169C139.687 124.114 139.573 124.086 139.458 124.089C139.342 124.092 139.23 124.126 139.132 124.187C139.034 124.248 138.954 124.334 138.901 124.437C138.847 124.539 138.822 124.653 138.828 124.768C138.849 125.054 138.95 125.329 139.12 125.56C139.29 125.791 139.521 125.969 139.789 126.074L155.399 131.778C155.501 131.834 155.615 131.861 155.73 131.858C155.846 131.855 155.958 131.821 156.056 131.76C156.154 131.699 156.234 131.613 156.287 131.511C156.341 131.409 156.366 131.294 156.36 131.179C156.339 130.893 156.238 130.619 156.068 130.388C155.898 130.157 155.667 129.978 155.399 129.873Z" fill="#1E394C"/>
<path d="M160.227 126.433L134.277 116.991C133.749 116.799 133.316 117.063 133.316 117.59C133.337 117.876 133.438 118.15 133.608 118.382C133.778 118.613 134.01 118.791 134.277 118.896L160.227 128.339C160.329 128.395 160.444 128.423 160.561 128.419C160.678 128.415 160.791 128.381 160.889 128.318C160.988 128.255 161.067 128.168 161.12 128.064C161.172 127.96 161.196 127.844 161.188 127.728C161.165 127.444 161.063 127.172 160.893 126.943C160.723 126.714 160.492 126.538 160.227 126.433Z" fill="#1E394C"/>
<path d="M110.705 208.07C110.705 208.07 108.303 207.219 108.039 202.019H101.134L100.474 209.208L105.673 213.45L110.164 211.209L110.705 208.07Z" fill="#F2BF75"/>
<path d="M100.473 209.16C100.473 209.16 108.53 211.82 110.704 208.069C110.704 208.069 125.606 213.605 125.498 215.259C125.33 217.871 113.009 218.41 110.284 217.739L107.882 215.343L106.873 218.111H100.101C100.101 218.111 100.161 209.579 100.473 209.16Z" fill="#1E394C"/>
<path d="M84.9233 208.13C84.9233 208.13 82.6057 207.171 82.5217 201.959L75.6529 201.647L74.6562 208.741L79.6037 213.27L84.1908 211.245L84.9233 208.13Z" fill="#F2BF75"/>
<path d="M74.6427 208.741C74.6427 208.741 82.5802 211.773 84.9218 208.13C84.9218 208.13 97.9628 212.815 98.7073 214.96C99.4518 217.105 86.699 218.555 84.0572 217.776L81.7997 215.307L80.5988 217.98L73.8262 217.668C73.8262 217.668 74.3185 209.148 74.6427 208.741Z" fill="#1E394C"/>
<path d="M69.9844 126.434C69.9844 126.434 74.4755 144.575 75.5562 147.607C76.637 150.638 78.9546 165.377 79.0746 165.868C79.1947 166.359 73.9831 204.32 73.9831 204.32C73.9831 204.32 81.02 205.89 83.8059 204.08L91.4432 165.736L88.1649 128.015L69.9844 126.434Z" fill="#1E394C"/>
<path d="M70.957 125.475C70.957 125.475 77.8618 137.266 84.0461 142.526C90.2303 147.786 97.8676 161.938 97.8676 161.938L98.7682 204.02C100.225 204.904 101.888 205.392 103.592 205.436C105.296 205.48 106.982 205.079 108.483 204.272L108.951 204.02C108.951 204.02 110.044 160.296 109.864 157.396C109.684 154.497 94.2531 121.113 94.2531 121.113L70.957 125.475Z" fill="#1E394C"/>
<path d="M97.6756 48.1868C97.6756 48.1868 92.2719 67.251 83.5899 66.6878C75.9886 66.2085 74.5717 58.3 76.3849 48.6421C78.2942 38.5768 86.628 39.9068 91.4793 39.8469C91.4793 39.8469 97.4835 39.8469 98.4801 35.2217C98.4801 35.2217 105.469 44.8077 97.6516 48.1868" fill="#1E394C"/>
<path d="M83.8892 71.4217C83.8892 71.4217 73.3099 69.5524 68.4465 92.0676C66.3931 101.534 77.1766 116.38 77.1766 116.38L88.4403 94.7277L83.8892 71.4217Z" fill="#AAC6CE"/>
<path d="M128.309 58.6236C128.309 58.6236 132.307 47.6476 132.307 44.652C132.307 41.6564 134.589 44.2925 134.493 46.5572C134.401 48.1685 134.188 49.7707 133.856 51.3502C133.856 51.3502 136.943 51.6258 136.943 53.0757C136.943 54.5256 135.946 59.6062 134.541 60.421L128.309 58.6236Z" fill="#F2BF75"/>
<path d="M89.7748 72.9541C96.7996 76.5489 111.858 86.0151 115.316 82.9236C118.775 79.8321 128.309 58.623 128.309 58.623L134.494 60.4324C134.494 60.4324 121.284 95.8048 117.37 95.7209C113.455 95.6371 100.162 93.0608 100.162 93.0608C100.162 93.0608 98.9611 118.032 95.3586 124.922C95.3586 124.922 77.4423 131.369 68.1719 126.121C73.0256 119.034 75.0395 110.388 73.8158 101.892C71.6783 86.782 75.7251 65.7047 89.7748 72.9541Z" fill="#CEE5ED"/>
<path d="M97.6756 48.1865C97.9845 49.8907 98.5386 51.5414 99.3207 53.0874C100.219 54.2555 101.292 55.2781 102.503 56.119L100.774 58.2998C100.948 59.3455 100.909 60.4157 100.657 61.4457C100.405 62.4756 99.9466 63.4439 99.309 64.2919C98.6713 65.1399 97.8679 65.8499 96.9473 66.3791C96.0267 66.9083 95.008 67.2456 93.953 67.3705L93.1364 74.8956L83.9501 71.816L83.5898 66.6396C84.4362 65.7366 84.9925 64.6015 85.1869 63.3804C84.6889 62.8821 84.3195 62.2708 84.1104 61.5987C83.9012 60.9267 83.8586 60.2141 83.9861 59.522C84.5865 57.437 86.3878 55.8553 87.3124 56.6222C87.8801 57.2648 88.2143 58.0795 88.2611 58.9348H89.4619C89.4619 58.9348 89.2457 55.4839 89.9542 54.034C90.738 52.5579 91.8348 51.27 93.1683 50.2601C94.5018 49.2502 96.0399 48.5426 97.6756 48.1865Z" fill="#EA9249"/>
<path d="M93.1359 74.9445L93.9525 67.4195C95.0075 67.2945 96.0262 66.9573 96.9468 66.4281C97.8674 65.8989 98.6708 65.1888 99.3085 64.3409C99.9461 63.4929 100.405 62.5246 100.656 61.4946C100.908 60.4647 100.948 59.3945 100.773 58.3488L102.502 56.12C101.288 55.2646 100.214 54.2257 99.3202 53.0405C98.5381 51.4945 97.984 49.8438 97.6751 48.1396C97.3148 48.2235 96.9786 48.3433 96.6303 48.4512C97.4433 50.5996 97.98 52.8423 98.2275 55.1255C98.5277 59.0198 97.9032 63.4174 92.4515 66.7245C90.5902 67.8509 89.9297 70.9064 89.7256 73.7583L93.1359 74.9445Z" fill="#F2BF75"/>
<path d="M90.0619 150.447C84.0577 149.081 78.3057 145.474 73.8987 141.963C72.4577 136.523 70.6084 129.094 70.0801 127.009C70.7869 127.261 71.5088 127.469 72.2416 127.632C74.5351 131.227 79.4465 138.668 83.9977 142.514C86.2467 144.584 88.2603 146.894 90.0018 149.404L90.0619 150.447Z" fill="#0F2A3F"/>
<path opacity="0.43" d="M175.573 191.318C175.477 188.454 161.367 183.518 144.039 180.294C126.711 177.071 112.722 176.771 112.818 179.635C112.914 182.499 127.024 187.436 144.352 190.659C161.68 193.882 175.657 194.182 175.573 191.318Z" fill="#CEE5ED"/>
<path d="M40.456 144.406C40.456 144.406 44.6949 107.428 29.3603 113.192C13.5574 119.147 33.3711 143.592 40.456 144.406Z" fill="#34648C"/>
<path d="M36.2648 166.718C36.2648 166.718 31.6055 129.716 18.1202 139.997C5.90782 149.236 27.2345 163.962 36.2648 166.718Z" fill="#67B8EF"/>
<path d="M26.2864 152.831C32.4226 161.374 38.4268 170.05 40.3601 180.606C40.4682 181.17 41.3208 180.93 41.2127 180.379C39.2914 169.75 33.2632 160.991 27.0549 152.388C26.7187 151.92 25.9502 152.388 26.2864 152.831Z" fill="#1E394C"/>
<path d="M48.0324 136.511C48.0324 136.511 42.4846 109.31 56.5223 111.791C70.56 114.271 51.5388 135.205 48.0324 136.511Z" fill="#67B8EF"/>
<path d="M49.3058 162.765C48.5853 163.232 47.8888 139.794 57.7956 140.621C67.7025 141.448 63.1033 153.586 49.3058 162.765Z" fill="#34648C"/>
<path d="M44.9717 160.882C43.8909 147.09 49.6309 131.561 54.9746 119.003C55.2028 118.488 54.4342 118.033 54.2061 118.56C48.7663 131.321 42.9783 146.815 44.0831 160.882C44.0831 161.445 45.0077 161.445 44.9717 160.882Z" fill="#1E394C"/>
<path d="M46.2325 178.342C45.512 162.177 44.0831 145.761 35.0048 131.862C34.7046 131.382 33.9241 131.862 34.2483 132.305C43.2425 146.085 44.6354 162.261 45.3439 178.342C45.3439 178.917 46.2566 178.917 46.2325 178.342Z" fill="#1E394C"/>
<path d="M48.3085 177.671C48.6808 169.163 49.2452 160.668 53.9404 153.286C54.2406 152.807 53.4721 152.364 53.1719 152.843C48.3686 160.332 47.7922 169.031 47.4199 177.671C47.4199 178.246 48.2845 178.246 48.3085 177.671Z" fill="#1E394C"/>
<path d="M32.6865 175.945L34.9921 196.783C35.131 198.04 35.7296 199.202 36.6734 200.047C37.6172 200.891 38.84 201.359 40.1077 201.36H53.4248C54.6946 201.362 55.9203 200.896 56.8666 200.051C57.8129 199.206 58.4133 198.042 58.5524 196.783L60.858 175.945C60.8865 175.677 60.8584 175.407 60.7757 175.15C60.6929 174.894 60.5572 174.657 60.3773 174.456C60.1974 174.256 59.9774 174.094 59.7313 173.983C59.4853 173.873 59.2186 173.814 58.9486 173.813H34.5838C34.3137 173.812 34.0466 173.869 33.8002 173.98C33.5537 174.09 33.3336 174.251 33.1542 174.453C32.9749 174.655 32.8405 174.892 32.7599 175.149C32.6793 175.406 32.6543 175.678 32.6865 175.945Z" fill="#CEE5ED"/>
<path d="M58.949 173.775H50.5432C50.8138 173.78 51.0803 173.841 51.3252 173.956C51.5702 174.071 51.7878 174.236 51.9638 174.441C52.1398 174.646 52.2701 174.886 52.3461 175.145C52.4221 175.405 52.442 175.677 52.4045 175.944L50.0989 196.782C49.9626 198.04 49.3647 199.204 48.4204 200.049C47.476 200.894 46.2518 201.361 44.9834 201.359H53.3892C54.659 201.361 55.8846 200.895 56.831 200.05C57.7773 199.205 58.3776 198.041 58.5167 196.782L60.8583 175.944C60.8923 175.674 60.8684 175.399 60.7881 175.138C60.7077 174.877 60.5729 174.636 60.3925 174.431C60.212 174.226 59.9901 174.062 59.7413 173.949C59.4925 173.836 59.2224 173.777 58.949 173.775Z" fill="#AAC6CE"/>
<path opacity="0.26" d="M35.2328 141.556C36.7003 142.937 38.499 143.919 40.4564 144.407C40.4564 144.407 44.6713 107.645 29.5049 113.157C33.5517 118.214 42.1976 131.095 35.2328 141.556Z" fill="#0F2A3F"/>
<path opacity="0.26" d="M58.6482 140.74C58.9964 145.401 58.9484 157.707 49.0415 156.965C48.8734 160.38 49.1136 162.956 49.3537 162.776C62.695 153.861 67.4262 142.19 58.6482 140.74Z" fill="#0F2A3F"/>
<path opacity="0.42" d="M57.1716 111.946C57.4838 116.739 57.4118 130.136 47.0967 129.597C47.2709 131.916 47.5756 134.225 48.0093 136.51C51.4797 135.204 69.8644 114.99 57.1716 111.946Z" fill="#34648C"/>
<path opacity="0.42" d="M36.2653 166.718C36.2653 166.718 31.6061 129.716 18.1208 139.997C17.6994 140.302 17.2983 140.635 16.9199 140.992C21.1348 142.441 35.0284 148.517 30.4893 164.25C32.3305 165.256 34.2648 166.083 36.2653 166.718Z" fill="#34648C"/>
<defs>
<linearGradient id="paint0_linear" x1="101.506" y1="205.673" x2="101.506" y2="-2.82248" gradientUnits="userSpaceOnUse">
<stop stop-color="white"/>
<stop offset="0.13" stop-color="#F8FCFE"/>
<stop offset="0.31" stop-color="#E6F3FC"/>
<stop offset="0.52" stop-color="#C7E5F9"/>
<stop offset="0.75" stop-color="#9CD1F5"/>
<stop offset="1" stop-color="#67B8EF"/>
</linearGradient>
</defs>
</svg>
