<svg width="241" height="240" viewBox="0 0 241 240" fill="none" xmlns="http://www.w3.org/2000/svg">
<circle cx="109.5" cy="108.5" r="101.5" fill="#D3D9ED"/>
<path fill-rule="evenodd" clip-rule="evenodd" d="M29.8093 46.5127C31.1127 46.8456 32.3596 47.3718 33.5088 48.0742C35.9862 49.6025 40.2803 44.7519 43.4183 47.443C46.5563 50.134 44.0459 51.164 46.7214 52.061C49.397 52.958 48.5712 54.5195 44.2441 57.9415C39.9169 61.3635 39.95 70.8654 36.2835 69.3372C32.617 67.8089 36.9111 70.5664 36.9111 74.2542C36.9111 77.942 39.0581 80.4006 36.5808 82.2611C34.1034 84.1216 38.4305 83.4903 36.9111 88.9057C35.3916 94.3212 38.4305 100.002 34.1364 100.933C29.8423 101.863 24.6234 100.002 26.4731 102.76C28.3229 105.517 30.1396 112.926 31.6921 115.086C33.2446 117.245 33.2115 124.023 31.3948 125.584C29.5781 127.146 25.8786 133.591 28.9175 137.578C31.9564 141.565 34.1364 138.807 32.2206 143.758C31.9849 144.454 31.6748 145.122 31.2957 145.751H167.055C168.872 143.924 163.983 144.522 165.833 142.993C166.543 142.337 167.08 141.514 167.397 140.598C167.714 139.682 167.801 138.702 167.65 137.744C170.953 137.744 166.725 131.598 169.202 131.897C171.679 132.196 171.052 123.292 172.505 122.96C173.959 122.627 179.112 118.973 175.808 117.411C172.505 115.85 170.92 116.182 168.74 113.092C166.56 110.003 163.851 105.385 169.367 96.7797C171.246 93.7079 173.772 91.0881 176.766 89.1051C184.76 82.8591 188.393 74.6197 187.799 77.0782C187.204 79.5368 189.351 79.869 191.102 76.1812C192.853 72.4934 189.88 72.1612 192.027 69.5365C194.174 66.9119 209.798 60.1343 214.521 58.307C219.245 56.4797 218.485 57.3767 220.962 53.988C222.292 52.4021 223.931 51.1066 225.777 50.181C227.623 49.2554 229.638 48.7194 231.698 48.6058C232.363 48.5346 233.004 48.3159 233.575 47.9654C234.147 47.615 234.633 47.1415 235.001 46.5791L29.8093 46.5127Z" fill="#FFCC00"/>
<path d="M237.216 44.7519C238.438 45.3499 235.994 34.2533 238.438 34.7849C240.882 35.3165 232.624 31.6951 237.216 31.4626C241.807 31.23 240.156 27.5754 236.357 27.21C233.681 25.4159 233.979 23.8876 230.147 26.8445C227.075 29.303 223.541 26.18 220.238 29.004C216.934 31.828 211.947 23.4557 208.28 28.0738C204.614 32.6918 201.938 29.9011 202.533 26.5787C202.07 29.0705 190.641 20.1334 190.278 22.5587C189.65 26.5787 188.131 29.0373 184.134 25.881C180.137 22.7248 178.915 25.582 173.729 21.562C168.543 17.542 166.33 16.6117 162.366 17.2429C154.703 18.4722 157.775 12.6249 151.929 12.6249C146.082 12.6249 151.631 7.70783 146.115 7.70783C144.562 7.70783 144.298 9.66801 142.614 6.21278C141.746 6.40317 140.859 6.49236 139.971 6.47857C136.272 6.47857 136.305 5.21608 133.365 6.77758C130.469 7.65649 127.394 7.75955 124.446 7.07658C121.064 6.79006 117.733 6.06418 114.537 4.91706C111.234 3.38879 111.234 8.63808 108.096 7.40882C105.743 6.74185 103.513 5.6986 101.489 4.31904C99.0451 2.45853 93.2316 6.77757 85.8326 5.84732C78.4335 4.91706 68.3589 4.91706 64.9897 4.31904C61.6205 3.72102 60.101 4.31904 60.6956 3.38879C61.2902 2.45853 58.8459 2.15952 56.1042 3.6878C53.3626 5.21608 42.5944 5.21607 38.3333 4.91706C34.0723 4.61805 26.6732 1.86051 27.5981 0.930257C28.523 2.27731e-06 24.2949 1.22927 24.7904 0H23.1058C21.5007 0.488071 19.9919 1.25246 18.6466 2.25919C16.7968 3.78747 14.9801 4.41871 18.019 5.31574C21.0579 6.21278 17.4244 7.50849 15.8719 7.17625C14.3194 6.84402 10.686 10.266 8.83621 9.33577C6.98645 8.40552 5.53307 11.1963 1.4702 13.3558C-2.59267 15.5153 3.28692 15.8143 1.13988 17.0436C-1.00717 18.2729 8.53893 17.6748 4.24484 22.8909C1.86657 25.7814 5.43397 23.7547 6.06157 27.21C6.68916 30.6652 4.54212 34.2865 8.83621 33.6885C13.1303 33.0905 9.13349 35.2168 5.76428 36.7783C3.71633 37.7086 5.76429 40.1006 6.95342 42.3931C10.5538 39.5026 11.2805 41.0973 15.8719 40.4661C20.4633 39.8349 22.9406 41.3964 21.3882 44.4529C21.0195 45.1262 20.7628 45.8557 20.6284 46.6124H24.394C26.1128 46.1373 27.9272 46.1373 29.646 46.6124H235.036C235.928 45.4828 236.588 44.4197 237.216 44.7519Z" fill="#CE2B37"/>
<path d="M25.5501 154.721C23.1057 160.901 20.3311 159.04 24.9225 165.519C25.5488 166.537 26.4842 167.326 27.5906 167.769C28.6969 168.212 29.9155 168.285 31.0663 167.977C35.0631 167.379 40.5794 168.276 43.0567 167.047C45.5341 165.818 43.6513 169.838 45.5011 169.506C49.2356 169.927 52.654 171.813 55.0141 174.755C57.1281 177.845 57.4584 177.845 59.3082 176.283C61.158 174.722 57.1281 177.512 60.2001 180.635C61.191 181.599 63.5032 182.463 61.7525 183.094C60.0019 183.725 61.158 188.941 62.9747 189.539C64.7914 190.137 66.0466 193.227 69.581 192.33C71.4638 191.799 71.4308 192.33 71.695 192.596H74.0403C78.995 191.267 76.4185 188.908 83.9497 185.951C91.4809 182.994 98.6817 180.403 100.201 181.333C101.721 182.263 102.976 181.964 109.384 178.542C113.247 176.324 117.539 174.964 121.969 174.556C125.235 173.947 128.562 173.735 131.878 173.924C133.992 173.924 137.395 170.237 139.542 172.396C141.689 174.556 145.95 165.319 145.355 160.668C147.78 157.433 150.866 154.76 154.406 152.827C157.18 150.967 157.709 147.877 161.012 148.209C162.125 148.429 163.277 148.326 164.335 147.915C165.393 147.503 166.314 146.799 166.991 145.884H31.4297C29.679 148.94 27.598 149.505 25.5501 154.721Z" fill="#CE2B37"/>
<path fill-rule="evenodd" clip-rule="evenodd" d="M84.625 106.703C84.8801 106.594 85.1424 106.503 85.41 106.43H81.9678C81.8168 107.553 82.6321 107.705 84.625 106.703Z" fill="#FFCC00"/>
<path d="M119.985 110.562L104.012 111.322V113.934L119.985 113.174L135.958 113.934V111.322L119.985 110.562Z" fill="#D68828"/>
<path d="M119.985 112.899L104.012 113.932V122.496C108.85 119.428 114.306 117.478 119.985 116.787C125.664 117.478 131.119 119.428 135.958 122.496V113.932L119.985 112.899Z" fill="#783300"/>
<path d="M168.87 93.6736L152.686 87.4782V82.042L168.87 88.2374V93.6736Z" fill="#783300"/>
<path d="M156.308 128.147L134.96 120.281V239.911H156.308V128.147Z" fill="#F5AF59"/>
<path d="M134.96 120.281V121.982L156.308 129.878V128.147L134.96 120.281Z" fill="#D68828"/>
<path d="M134.96 123.955V125.686L156.308 133.582V131.851L134.96 123.955Z" fill="#D68828"/>
<path d="M134.96 120.279L156.308 128.145C156.268 105.298 154.522 82.4863 151.084 59.9023H140.184C137.083 79.8855 135.338 100.058 134.96 120.279Z" fill="#F5AF59"/>
<path d="M142.571 129.875C141.846 129.875 141.242 130.3 141.242 130.816V152.288H143.9V130.816C143.9 130.3 143.326 129.875 142.571 129.875Z" fill="#783300"/>
<path d="M148.701 132.73C147.976 132.73 147.372 133.156 147.372 133.672V155.143H150.03V133.702C150.03 133.156 149.426 132.73 148.701 132.73Z" fill="#783300"/>
<path d="M141.242 142.873V145.789L143.931 146.76V143.845L141.242 142.873Z" fill="#D68828"/>
<path d="M147.372 145.244V148.19L150.03 149.162V146.246L147.372 145.244Z" fill="#D68828"/>
<path d="M154.226 134.767C154.095 134.763 153.965 134.785 153.842 134.832C153.72 134.878 153.608 134.949 153.512 135.039C153.417 135.129 153.34 135.238 153.287 135.358C153.233 135.478 153.203 135.607 153.199 135.739V157.18H155.253V135.739C155.249 135.607 155.22 135.478 155.166 135.358C155.112 135.238 155.035 135.129 154.94 135.039C154.845 134.949 154.733 134.878 154.61 134.832C154.488 134.785 154.357 134.763 154.226 134.767Z" fill="#783300"/>
<path d="M136.985 127.782C136.726 127.773 136.473 127.867 136.281 128.043C136.09 128.219 135.974 128.463 135.958 128.723V150.195H138.012V128.723C137.996 128.463 137.88 128.219 137.689 128.043C137.497 127.867 137.244 127.773 136.985 127.782Z" fill="#783300"/>
<path d="M142.571 156.968C141.846 156.968 141.242 157.393 141.242 157.909V160.46H143.9V158C143.9 157.393 143.326 156.968 142.571 156.968Z" fill="#783300"/>
<path d="M148.701 159.821C147.976 159.821 147.372 160.246 147.372 160.763V163.314H150.03V160.763C150.03 160.246 149.426 159.821 148.701 159.821Z" fill="#783300"/>
<path d="M154.226 161.886C153.967 161.878 153.714 161.972 153.523 162.147C153.331 162.323 153.215 162.567 153.199 162.828V165.379H155.253V162.828C155.238 162.567 155.122 162.323 154.93 162.147C154.738 161.972 154.486 161.878 154.226 161.886Z" fill="#783300"/>
<path d="M136.985 154.964C136.726 154.956 136.473 155.05 136.281 155.225C136.09 155.401 135.974 155.645 135.958 155.906V158.457H138.012V155.906C137.996 155.645 137.88 155.401 137.689 155.225C137.497 155.05 137.244 154.956 136.985 154.964Z" fill="#783300"/>
<path d="M151.688 73.9961L152.232 79.0375L152.957 79.3108C152.776 77.6101 152.595 75.9094 152.413 74.2694L151.688 73.9961Z" fill="#783300"/>
<path d="M140.548 110.682C140.548 109.103 140.548 107.493 140.548 105.914L139.128 105.397L138.947 110.166L140.548 110.682Z" fill="#783300"/>
<path d="M146.496 108.009L144.805 107.401L144.774 112.2L146.526 112.838L146.496 108.009Z" fill="#783300"/>
<path d="M141.724 87.1763C141.724 85.5971 141.905 84.1394 142.026 82.469L140.787 82.0742L140.425 86.7815L141.724 87.1763Z" fill="#783300"/>
<path d="M142.088 81.3445C142.088 79.7653 142.3 78.3075 142.42 76.6068L141.212 76.1816C141.212 77.7609 140.971 79.2186 140.88 80.8889L142.088 81.3445Z" fill="#783300"/>
<path d="M141.331 93.036C141.331 91.4568 141.543 89.999 141.633 88.2983L140.364 87.8428C140.364 89.422 140.123 90.8797 140.032 92.5501L141.331 93.036Z" fill="#783300"/>
<path d="M141.001 98.8974L141.273 94.2205L140.004 93.6738C140.004 95.2531 139.823 96.7108 139.702 98.4115L141.001 98.8974Z" fill="#783300"/>
<path d="M152.957 86.415C153.108 88.0246 153.229 89.695 153.35 91.3957L154.195 91.6994C154.034 89.9987 153.883 88.3283 153.742 86.6884L152.957 86.415Z" fill="#783300"/>
<path d="M152.352 80.2207C152.533 81.8607 152.684 83.531 152.835 85.2317L153.62 85.505L153.077 80.4637L152.352 80.2207Z" fill="#783300"/>
<path d="M153.44 92.5811C153.44 94.1906 153.682 95.8306 153.773 97.5313L154.679 97.835C154.679 96.1647 154.437 94.5247 154.286 92.8848L153.44 92.5811Z" fill="#783300"/>
<path d="M155.101 105.154L154.074 104.789C154.074 106.368 154.074 108.008 154.074 109.679L155.162 110.073C155.313 108.433 155.252 106.793 155.101 105.154Z" fill="#783300"/>
<path d="M153.834 98.6855C153.834 100.295 154.015 101.935 154.076 103.605L155.103 103.97C155.103 102.33 154.891 100.66 154.77 99.05L153.834 98.6855Z" fill="#783300"/>
<path d="M150.451 103.334C150.451 104.974 150.451 106.614 150.663 108.254L152.143 108.77C152.143 107.13 151.992 105.49 151.931 103.881L150.451 103.334Z" fill="#783300"/>
<path d="M152.082 110.076L150.571 109.529C150.571 111.169 150.571 112.779 150.571 114.419L152.112 114.965C152.293 113.326 152.263 111.716 152.082 110.076Z" fill="#783300"/>
<path d="M146.405 94.8579L146.375 89.9987L144.925 89.4824L144.895 94.3112L146.405 94.8579Z" fill="#783300"/>
<path d="M146.374 88.845L146.344 84.0162L144.954 83.5303L144.924 88.3287L146.374 88.845Z" fill="#783300"/>
<path d="M144.983 77.5488L144.953 82.3776L146.312 82.8635L146.282 78.0044L144.983 77.5488Z" fill="#783300"/>
<path d="M146.497 106.857L146.467 102.028L144.836 101.421L144.806 106.25L146.497 106.857Z" fill="#783300"/>
<path d="M141.301 75.0558L142.479 75.481C142.479 73.9322 142.72 72.444 142.811 70.7737L141.663 70.3789L141.301 75.0558Z" fill="#783300"/>
<path d="M155.582 117.274L154.404 116.849V121.556L155.643 122.011C155.643 120.493 155.613 118.883 155.582 117.274Z" fill="#783300"/>
<path d="M144.864 95.4668L144.834 100.265L146.435 100.842L146.405 96.0135L144.864 95.4668Z" fill="#783300"/>
<path d="M151.57 97.8975L150.181 97.2598C150.181 98.8997 150.332 100.54 150.422 102.18L151.872 102.696C151.782 101.177 151.691 99.5375 151.57 97.8975Z" fill="#783300"/>
<path d="M149.062 79.0371C149.062 80.6771 149.274 82.3474 149.395 83.9874L150.724 84.4733C150.724 82.803 150.482 81.163 150.331 79.4927L149.062 79.0371Z" fill="#783300"/>
<path d="M145.016 76.3941L146.284 76.8497L146.254 72.0209L145.046 71.5957L145.016 76.3941Z" fill="#783300"/>
<path d="M148.607 72.9629C148.607 74.6029 148.819 76.2732 148.94 77.9131L150.208 78.3687L149.846 73.4184L148.607 72.9629Z" fill="#783300"/>
<path d="M149.453 85.1104C149.453 86.7503 149.634 88.3903 149.755 90.0606L151.114 90.5465C151.114 88.9066 150.903 87.2362 150.782 85.5963L149.453 85.1104Z" fill="#783300"/>
<path d="M149.815 91.1846C149.815 92.8245 150.027 94.4645 150.117 96.1045L151.507 96.6207C151.507 94.9504 151.296 93.3104 151.205 91.6705L149.815 91.1846Z" fill="#783300"/>
<path d="M140.759 104.791C140.759 103.181 140.759 101.602 140.97 100.023L139.581 99.5371C139.581 101.116 139.581 102.574 139.339 104.275L140.759 104.791Z" fill="#783300"/>
<path d="M143.265 63.8523C143.265 62.5464 143.446 61.2405 143.507 59.9346H142.48L142.208 63.4575L143.265 63.8523Z" fill="#783300"/>
<path d="M150.812 60.5398V59.9023H150.208V60.3273L150.812 60.5398Z" fill="#783300"/>
<path d="M146.193 64.8526L146.163 60.0238L145.83 59.9023H145.136L145.075 64.4578L146.193 64.8526Z" fill="#783300"/>
<path d="M154.317 110.835C154.317 112.414 154.317 114.024 154.317 115.694L155.495 116.119C155.495 114.479 155.495 112.87 155.495 111.23L154.317 110.835Z" fill="#783300"/>
<path d="M152.474 120.98V116.121L150.843 115.483C150.843 117.093 150.843 118.703 150.843 120.312L152.474 120.98Z" fill="#783300"/>
<path d="M150.993 67.7363C151.174 69.437 151.386 71.1074 151.567 72.7777L152.262 73.051C152.05 71.32 151.869 69.6496 151.688 67.9793L150.993 67.7363Z" fill="#783300"/>
<path d="M136.983 115.48C136.983 113.84 136.983 112.231 136.983 110.682L135.896 110.287C135.896 111.866 135.896 113.324 135.896 115.055L136.983 115.48Z" fill="#783300"/>
<path d="M146.524 114.023L144.742 113.354L144.712 118.183L146.585 118.851L146.524 114.023Z" fill="#783300"/>
<path d="M140.849 62.9393C140.849 61.9371 141.061 60.9045 141.182 59.9023H140.547C140.547 60.8134 140.336 61.7549 140.245 62.6964L140.849 62.9393Z" fill="#783300"/>
<path d="M144.714 119.337L144.684 123.862L146.617 124.561L146.587 120.005L144.714 119.337Z" fill="#783300"/>
<path d="M154.404 122.832C154.404 124.351 154.404 125.869 154.404 127.418L155.643 127.873C155.643 126.355 155.643 124.836 155.643 123.288L154.404 122.832Z" fill="#783300"/>
<path d="M150.873 121.555C150.873 123.104 150.873 124.592 150.873 126.141L152.534 126.748C152.534 125.229 152.534 123.711 152.534 122.132L150.873 121.555Z" fill="#783300"/>
<path d="M138.855 117.211V121.675L140.456 122.252C140.456 120.764 140.456 119.215 140.456 117.788L138.855 117.211Z" fill="#783300"/>
<path d="M135.716 116.09C135.716 117.548 135.716 119.127 135.716 120.524L136.924 120.979C136.924 119.461 136.924 117.942 136.924 116.515L135.716 116.09Z" fill="#783300"/>
<path d="M140.515 111.84L139.035 111.293C139.035 112.903 139.035 114.482 139.035 116.091L140.545 116.638C140.425 115.028 140.455 113.419 140.515 111.84Z" fill="#783300"/>
<path d="M149.755 72.1407C149.755 70.4703 149.483 68.8304 149.363 67.16L148.215 66.8867C148.215 68.5571 148.426 70.197 148.517 71.837L149.755 72.1407Z" fill="#783300"/>
<path d="M145.046 70.4421L146.254 70.8672L146.194 66.0081L145.076 65.6133L145.046 70.4421Z" fill="#783300"/>
<path d="M141.755 69.2561L142.903 69.6509C142.903 68.0717 143.084 66.614 143.205 64.9436L142.117 64.5488L141.755 69.2561Z" fill="#783300"/>
<path d="M139.549 68.4354L140.183 68.6784C140.364 67.1295 140.546 65.6414 140.697 64.0318L140.002 63.8496C140.002 65.3074 139.73 66.8866 139.549 68.4354Z" fill="#783300"/>
<path d="M148.127 65.5517L149.275 65.9769L149.064 60.9963L147.976 60.6318C147.916 62.2718 148.006 63.851 148.127 65.5517Z" fill="#783300"/>
<path d="M150.301 61.5107L150.844 66.5521L151.539 66.7951C151.328 65.064 151.147 63.3937 150.935 61.7537L150.301 61.5107Z" fill="#783300"/>
<path d="M137.891 91.7922C137.891 90.1826 138.132 88.7552 138.283 87.0849L137.558 86.8115L136.984 91.4885L137.891 91.7922Z" fill="#783300"/>
<path d="M137.496 97.6214C137.496 96.0118 137.708 94.4325 137.798 92.914L137.013 92.6104L136.65 97.2569L137.496 97.6214Z" fill="#783300"/>
<path d="M136.985 109.407C136.985 107.797 136.985 106.188 137.136 104.639L136.169 104.274C136.169 105.854 135.988 107.311 135.928 109.042L136.985 109.407Z" fill="#783300"/>
<path d="M137.194 103.483C137.194 101.873 137.194 100.294 137.436 98.7451L136.56 98.4414C136.56 99.9903 136.348 101.478 136.258 103.149L137.194 103.483Z" fill="#783300"/>
<path d="M138.372 85.9619C138.513 84.3827 138.664 82.8338 138.826 81.3153L138.131 81.042C137.98 82.5908 137.798 84.079 137.647 85.7189L138.372 85.9619Z" fill="#783300"/>
<path d="M138.916 80.1903C139.098 78.6111 139.249 77.1533 139.43 75.5437L138.765 75.3008C138.584 76.8193 138.433 78.3377 138.252 79.9473L138.916 80.1903Z" fill="#783300"/>
<path d="M139.549 74.4187C139.549 72.8699 139.882 71.3818 140.063 69.7722L139.428 69.5596L138.885 74.1758L139.549 74.4187Z" fill="#783300"/>
<path d="M146.374 23.7601C146.374 22.6668 145.921 22.4238 145.65 22.4238C145.378 22.4238 145.046 22.6668 144.925 23.7601C144.925 24.3371 142.751 43.7737 142.751 43.7737H145.77H148.79L146.374 23.7601Z" fill="#F5AF59"/>
<path d="M148.517 43.7748C147.599 43.2522 146.55 43.0095 145.498 43.0763C144.446 43.0197 143.399 43.2618 142.478 43.7748C140.873 51.5416 139.673 59.3877 138.885 67.2809C140.937 66.4197 143.138 65.9763 145.362 65.9763C147.585 65.9763 149.787 66.4197 151.838 67.2809C151.155 59.3909 150.046 51.544 148.517 43.7748Z" fill="#D68828"/>
<path d="M148.367 33.0538C148.367 35.453 147.159 37.427 145.649 37.427C144.14 37.427 143.022 35.453 143.022 33.0538C143.022 30.6546 144.23 28.7109 145.74 28.7109C147.25 28.7109 148.367 30.6546 148.367 33.0538Z" fill="#D68828"/>
<path d="M145.65 35.8183C146.551 35.8183 147.281 34.581 147.281 33.0547C147.281 31.5283 146.551 30.291 145.65 30.291C144.75 30.291 144.02 31.5283 144.02 33.0547C144.02 34.581 144.75 35.8183 145.65 35.8183Z" fill="#783300"/>
<path d="M149.546 19.9941L145.658 16.0859L141.771 19.9941L145.658 23.9022L149.546 19.9941Z" fill="#B4440D"/>
<path d="M146.467 16.0774C146.471 16.1876 146.453 16.2974 146.414 16.4004C146.375 16.5033 146.315 16.5973 146.239 16.6767C146.163 16.756 146.072 16.8191 145.971 16.8622C145.87 16.9052 145.761 16.9274 145.651 16.9273C145.427 16.9273 145.212 16.8378 145.053 16.6784C144.895 16.519 144.806 16.3028 144.806 16.0774C144.813 15.8573 144.906 15.6488 145.064 15.4959C145.222 15.343 145.432 15.2577 145.651 15.2578C145.868 15.2578 146.075 15.3442 146.228 15.4979C146.381 15.6516 146.467 15.86 146.467 16.0774Z" fill="#DBA97F"/>
<path d="M150.36 19.9937C150.383 20.1167 150.38 20.2433 150.349 20.3645C150.318 20.4858 150.261 20.5987 150.181 20.6952C150.102 20.7916 150.002 20.8693 149.89 20.9226C149.777 20.9759 149.654 21.0036 149.529 21.0036C149.405 21.0036 149.282 20.9759 149.169 20.9226C149.056 20.8693 148.957 20.7916 148.877 20.6952C148.798 20.5987 148.741 20.4858 148.71 20.3645C148.679 20.2433 148.675 20.1167 148.699 19.9937C148.736 19.7996 148.839 19.6245 148.991 19.4986C149.142 19.3726 149.333 19.3037 149.529 19.3037C149.726 19.3037 149.917 19.3726 150.068 19.4986C150.22 19.6245 150.323 19.7996 150.36 19.9937Z" fill="#DBA97F"/>
<path d="M142.57 19.9963C142.57 20.2137 142.484 20.4222 142.331 20.5759C142.178 20.7296 141.97 20.8159 141.754 20.8159C141.538 20.8159 141.33 20.7296 141.177 20.5759C141.024 20.4222 140.938 20.2137 140.938 19.9963C140.938 19.779 141.024 19.5705 141.177 19.4168C141.33 19.2631 141.538 19.1768 141.754 19.1768C141.97 19.1768 142.178 19.2631 142.331 19.4168C142.484 19.5705 142.57 19.779 142.57 19.9963Z" fill="#DBA97F"/>
<path d="M143.93 17.7759C143.93 17.8839 143.898 17.9896 143.839 18.0794C143.779 18.1693 143.694 18.2393 143.595 18.2807C143.495 18.322 143.386 18.3329 143.28 18.3118C143.175 18.2907 143.078 18.2386 143.002 18.1622C142.926 18.0858 142.874 17.9885 142.853 17.8825C142.832 17.7765 142.843 17.6666 142.884 17.5668C142.925 17.4669 142.995 17.3816 143.084 17.3216C143.174 17.2615 143.279 17.2295 143.386 17.2295C143.531 17.2295 143.669 17.2871 143.771 17.3895C143.873 17.492 143.93 17.631 143.93 17.7759Z" fill="#DBA97F"/>
<path d="M144.807 16.8657C144.807 16.9738 144.775 17.0794 144.716 17.1693C144.656 17.2591 144.571 17.3292 144.472 17.3705C144.372 17.4119 144.263 17.4227 144.157 17.4016C144.052 17.3805 143.955 17.3285 143.879 17.2521C143.803 17.1757 143.751 17.0783 143.73 16.9723C143.709 16.8663 143.72 16.7565 143.761 16.6566C143.802 16.5568 143.872 16.4715 143.961 16.4114C144.051 16.3514 144.156 16.3193 144.263 16.3193C144.408 16.3193 144.546 16.3769 144.648 16.4794C144.75 16.5818 144.807 16.7208 144.807 16.8657Z" fill="#DBA97F"/>
<path d="M143.022 18.6284C143.022 18.7365 142.99 18.8421 142.93 18.932C142.871 19.0218 142.786 19.0919 142.686 19.1332C142.587 19.1746 142.478 19.1854 142.372 19.1643C142.267 19.1432 142.17 19.0912 142.094 19.0148C142.018 18.9384 141.966 18.841 141.945 18.735C141.924 18.629 141.935 18.5192 141.976 18.4193C142.017 18.3195 142.087 18.2342 142.176 18.1741C142.266 18.1141 142.371 18.082 142.478 18.082C142.622 18.082 142.761 18.1396 142.863 18.2421C142.965 18.3445 143.022 18.4835 143.022 18.6284Z" fill="#DBA97F"/>
<path d="M147.372 17.7759C147.372 17.8839 147.404 17.9896 147.464 18.0794C147.523 18.1693 147.608 18.2393 147.708 18.2807C147.807 18.322 147.916 18.3329 148.022 18.3118C148.127 18.2907 148.224 18.2386 148.3 18.1622C148.376 18.0858 148.428 17.9885 148.449 17.8825C148.47 17.7765 148.459 17.6666 148.418 17.5668C148.377 17.4669 148.307 17.3816 148.218 17.3216C148.128 17.2615 148.023 17.2295 147.916 17.2295C147.772 17.2295 147.633 17.2871 147.531 17.3895C147.429 17.492 147.372 17.631 147.372 17.7759Z" fill="#DBA97F"/>
<path d="M146.465 16.8657C146.465 16.9738 146.497 17.0794 146.556 17.1693C146.616 17.2591 146.701 17.3292 146.8 17.3705C146.9 17.4119 147.009 17.4227 147.115 17.4016C147.22 17.3805 147.317 17.3285 147.393 17.2521C147.469 17.1757 147.521 17.0783 147.542 16.9723C147.563 16.8663 147.552 16.7565 147.511 16.6566C147.47 16.5568 147.4 16.4715 147.311 16.4114C147.221 16.3514 147.116 16.3193 147.009 16.3193C146.864 16.3193 146.726 16.3769 146.624 16.4794C146.522 16.5818 146.465 16.7208 146.465 16.8657Z" fill="#DBA97F"/>
<path d="M148.215 18.6284C148.215 18.7365 148.247 18.8421 148.306 18.932C148.366 19.0218 148.451 19.0919 148.55 19.1332C148.65 19.1746 148.759 19.1854 148.865 19.1643C148.97 19.1432 149.067 19.0912 149.143 19.0148C149.219 18.9384 149.271 18.841 149.292 18.735C149.313 18.629 149.302 18.5192 149.261 18.4193C149.22 18.3195 149.15 18.2342 149.061 18.1741C148.971 18.1141 148.866 18.082 148.759 18.082C148.614 18.082 148.476 18.1396 148.374 18.2421C148.272 18.3445 148.215 18.4835 148.215 18.6284Z" fill="#DBA97F"/>
<path d="M143.93 22.2446C143.93 22.1366 143.898 22.0309 143.839 21.9411C143.779 21.8512 143.694 21.7812 143.595 21.7398C143.495 21.6985 143.386 21.6877 143.28 21.7087C143.175 21.7298 143.078 21.7819 143.002 21.8583C142.926 21.9347 142.874 22.032 142.853 22.138C142.832 22.244 142.843 22.3539 142.884 22.4537C142.925 22.5536 142.995 22.6389 143.084 22.6989C143.174 22.759 143.279 22.791 143.386 22.791C143.531 22.791 143.669 22.7335 143.771 22.631C143.873 22.5285 143.93 22.3895 143.93 22.2446Z" fill="#DBA97F"/>
<path d="M144.263 23.6699C144.564 23.6699 144.807 23.4253 144.807 23.1235C144.807 22.8218 144.564 22.5771 144.263 22.5771C143.963 22.5771 143.72 22.8218 143.72 23.1235C143.72 23.4253 143.963 23.6699 144.263 23.6699Z" fill="#DBA97F"/>
<path d="M143.022 21.3306C143.022 21.2588 143.008 21.1878 142.981 21.1215C142.953 21.0552 142.913 20.995 142.863 20.9442C142.812 20.8935 142.752 20.8532 142.686 20.8258C142.62 20.7983 142.55 20.7842 142.478 20.7842C142.407 20.7842 142.336 20.7983 142.27 20.8258C142.204 20.8532 142.144 20.8935 142.094 20.9442C142.043 20.995 142.003 21.0552 141.976 21.1215C141.949 21.1878 141.935 21.2588 141.935 21.3306C141.935 21.4755 141.992 21.6145 142.094 21.7169C142.196 21.8194 142.334 21.877 142.478 21.877C142.622 21.877 142.761 21.8194 142.863 21.7169C142.965 21.6145 143.022 21.4755 143.022 21.3306Z" fill="#DBA97F"/>
<path d="M147.372 22.2446C147.372 22.1366 147.404 22.0309 147.464 21.9411C147.523 21.8512 147.608 21.7812 147.708 21.7398C147.807 21.6985 147.916 21.6877 148.022 21.7087C148.127 21.7298 148.224 21.7819 148.3 21.8583C148.376 21.9347 148.428 22.032 148.449 22.138C148.47 22.244 148.459 22.3539 148.418 22.4537C148.377 22.5536 148.307 22.6389 148.218 22.6989C148.128 22.759 148.023 22.791 147.916 22.791C147.772 22.791 147.633 22.7335 147.531 22.631C147.429 22.5285 147.372 22.3895 147.372 22.2446Z" fill="#DBA97F"/>
<path d="M147.009 23.6699C147.309 23.6699 147.552 23.4253 147.552 23.1235C147.552 22.8218 147.309 22.5771 147.009 22.5771C146.708 22.5771 146.465 22.8218 146.465 23.1235C146.465 23.4253 146.708 23.6699 147.009 23.6699Z" fill="#DBA97F"/>
<path d="M148.215 21.3306C148.215 21.1857 148.272 21.0467 148.374 20.9442C148.476 20.8417 148.614 20.7842 148.759 20.7842C148.903 20.7842 149.041 20.8417 149.143 20.9442C149.245 21.0467 149.302 21.1857 149.302 21.3306C149.302 21.4755 149.245 21.6145 149.143 21.7169C149.041 21.8194 148.903 21.877 148.759 21.877C148.614 21.877 148.476 21.8194 148.374 21.7169C148.272 21.6145 148.215 21.4755 148.215 21.3306Z" fill="#DBA97F"/>
<path d="M145.953 19.6894L146.466 17.2295H145.651H144.806L145.349 19.6894L142.873 19.1732V19.9931V20.8435L145.349 20.2968L144.806 22.7871H145.651H146.466L145.953 20.2968L148.399 20.8435V19.9931V19.1732L145.953 19.6894Z" fill="#DBA97F"/>
<path d="M185.537 142.846L164.189 134.949V239.91H185.537V142.846Z" fill="#F5AF59"/>
<path d="M164.189 134.949V136.68L185.537 144.576V142.845L164.189 134.949Z" fill="#D68828"/>
<path d="M164.189 138.653V140.384L185.537 148.281V146.549L164.189 138.653Z" fill="#D68828"/>
<path d="M164.159 134.947L185.537 142.813C185.498 119.966 183.752 97.1542 180.314 74.5703H169.413C166.303 94.5528 164.547 114.725 164.159 134.947Z" fill="#F5AF59"/>
<path d="M171.799 144.578C171.074 144.578 170.47 145.003 170.47 145.52V167.112H173.218V145.52C173.218 145.003 172.524 144.578 171.799 144.578Z" fill="#783300"/>
<path d="M177.929 147.431C177.174 147.431 176.6 147.856 176.6 148.372V169.843H179.258V148.372C179.258 147.856 178.654 147.431 177.929 147.431Z" fill="#783300"/>
<path d="M170.47 157.543V160.489L173.128 161.461V158.545L170.47 157.543Z" fill="#D68828"/>
<path d="M176.6 159.942V162.858L179.258 163.86V160.945L176.6 159.942Z" fill="#D68828"/>
<path d="M183.424 149.465C183.294 149.461 183.163 149.483 183.041 149.53C182.918 149.577 182.806 149.647 182.711 149.737C182.615 149.827 182.539 149.936 182.485 150.056C182.431 150.176 182.401 150.306 182.397 150.437V171.878H184.451V150.437C184.448 150.306 184.418 150.176 184.364 150.056C184.31 149.936 184.234 149.827 184.138 149.737C184.043 149.647 183.931 149.577 183.808 149.53C183.686 149.483 183.555 149.461 183.424 149.465Z" fill="#783300"/>
<path d="M166.091 142.449C165.961 142.445 165.83 142.467 165.708 142.514C165.585 142.561 165.473 142.631 165.378 142.721C165.282 142.812 165.206 142.92 165.152 143.04C165.098 143.16 165.068 143.29 165.064 143.421V164.862H167.179V143.421C167.175 143.284 167.144 143.149 167.086 143.025C167.029 142.901 166.947 142.79 166.845 142.698C166.743 142.607 166.623 142.538 166.494 142.495C166.364 142.453 166.227 142.437 166.091 142.449Z" fill="#783300"/>
<path d="M171.799 171.667C171.074 171.667 170.47 172.092 170.47 172.608V175.16H173.218V172.608C173.218 172.092 172.524 171.667 171.799 171.667Z" fill="#783300"/>
<path d="M177.929 174.52C177.174 174.52 176.6 174.945 176.6 175.461V178.012H179.258V175.461C179.258 174.945 178.654 174.52 177.929 174.52Z" fill="#783300"/>
<path d="M183.424 176.555C183.294 176.551 183.163 176.573 183.041 176.62C182.918 176.666 182.806 176.737 182.711 176.827C182.615 176.917 182.539 177.026 182.485 177.146C182.431 177.266 182.401 177.395 182.397 177.527V180.078H184.451V177.527C184.448 177.395 184.418 177.266 184.364 177.146C184.31 177.026 184.234 176.917 184.138 176.827C184.043 176.737 183.931 176.666 183.808 176.62C183.686 176.573 183.555 176.551 183.424 176.555Z" fill="#783300"/>
<path d="M166.091 169.572C165.832 169.563 165.58 169.657 165.388 169.833C165.196 170.009 165.08 170.253 165.064 170.513V173.186H167.179V170.635C167.188 170.49 167.166 170.345 167.115 170.21C167.063 170.074 166.982 169.952 166.879 169.851C166.776 169.75 166.652 169.673 166.516 169.624C166.38 169.576 166.235 169.558 166.091 169.572Z" fill="#783300"/>
<path d="M180.917 88.6934C181.098 90.3333 181.279 92.034 181.431 93.7044L182.186 93.9777C181.974 92.277 181.793 90.5763 181.612 88.9363L180.917 88.6934Z" fill="#783300"/>
<path d="M169.746 125.381C169.746 123.802 169.746 122.344 169.746 120.613L168.357 120.097C168.357 121.676 168.357 123.134 168.146 124.865L169.746 125.381Z" fill="#783300"/>
<path d="M175.725 122.709L174.003 122.102L173.973 126.9L175.755 127.538L175.725 122.709Z" fill="#783300"/>
<path d="M170.925 101.873C170.925 100.294 171.136 98.8358 171.227 97.1351L169.989 96.71C169.989 98.2588 169.777 99.7469 169.656 101.417L170.925 101.873Z" fill="#783300"/>
<path d="M171.317 96.0133C171.317 94.4645 171.528 92.9764 171.619 91.306L170.441 90.8809L170.199 95.5882L171.317 96.0133Z" fill="#783300"/>
<path d="M170.561 107.733C170.561 106.154 170.742 104.696 170.863 102.996L169.564 102.54C169.564 104.089 169.352 105.577 169.231 107.247L170.561 107.733Z" fill="#783300"/>
<path d="M170.198 113.6L170.47 108.862L169.141 108.376C169.141 109.955 168.929 111.413 168.839 113.083L170.198 113.6Z" fill="#783300"/>
<path d="M182.276 101.114C182.276 102.724 182.578 104.394 182.699 106.095L183.515 106.368L183.062 101.388L182.276 101.114Z" fill="#783300"/>
<path d="M181.581 94.9199C181.581 96.5599 181.913 98.2302 182.064 99.9006L182.82 100.174C182.638 98.5035 182.487 96.8332 182.306 95.1629L181.581 94.9199Z" fill="#783300"/>
<path d="M182.669 107.281C182.669 108.891 182.88 110.531 183.001 112.232L183.907 112.535C183.907 110.865 183.636 109.225 183.515 107.585L182.669 107.281Z" fill="#783300"/>
<path d="M184.358 119.854L183.331 119.489C183.331 121.068 183.331 122.708 183.331 124.379L184.449 124.774C184.539 123.103 184.449 121.554 184.358 119.854Z" fill="#783300"/>
<path d="M183.061 113.386C183.061 114.995 183.212 116.635 183.302 118.306L184.299 118.67C184.299 117 184.088 115.36 183.997 113.72L183.061 113.386Z" fill="#783300"/>
<path d="M179.679 118.154L179.86 123.044L181.37 123.59C181.37 121.95 181.219 120.311 181.129 118.671L179.679 118.154Z" fill="#783300"/>
<path d="M181.399 124.774L179.919 124.228C179.919 125.837 179.919 127.477 179.919 129.087L181.459 129.664C181.52 128.024 181.49 126.384 181.399 124.774Z" fill="#783300"/>
<path d="M175.633 109.556L175.573 104.697L174.123 104.181L174.093 109.009L175.633 109.556Z" fill="#783300"/>
<path d="M175.573 103.543L175.543 98.7144L174.153 98.2285L174.123 103.027L175.573 103.543Z" fill="#783300"/>
<path d="M174.216 92.2461L174.186 97.0749L175.545 97.5608L175.515 92.7016L174.216 92.2461Z" fill="#783300"/>
<path d="M175.694 121.556L175.663 116.697L174.032 116.12L174.002 120.949L175.694 121.556Z" fill="#783300"/>
<path d="M170.53 89.7569L171.708 90.1821C171.708 88.6029 171.92 87.1451 172.041 85.4748L170.893 85.1104L170.53 89.7569Z" fill="#783300"/>
<path d="M184.815 131.972L183.606 131.547C183.606 133.126 183.606 134.736 183.606 136.376L184.845 136.831C184.845 135.191 184.845 133.703 184.815 131.972Z" fill="#783300"/>
<path d="M174.096 110.167L174.065 114.965L175.666 115.542L175.636 110.714L174.096 110.167Z" fill="#783300"/>
<path d="M180.797 112.444L179.257 112.079C179.257 113.719 179.438 115.359 179.498 116.999L180.948 117.515L180.797 112.444Z" fill="#783300"/>
<path d="M178.232 93.7061C178.232 95.346 178.474 97.0163 178.565 98.6563L179.894 99.1422L179.531 94.2223L178.232 93.7061Z" fill="#783300"/>
<path d="M174.214 91.0934L175.483 91.549L175.452 86.7202L174.244 86.2646L174.214 91.0934Z" fill="#783300"/>
<path d="M177.839 87.5693C177.839 89.2093 178.05 90.8796 178.171 92.5196L179.44 92.9751C179.44 91.3352 179.168 89.6648 179.047 88.0249L177.839 87.5693Z" fill="#783300"/>
<path d="M178.653 99.8398C178.653 101.48 178.865 103.12 178.955 104.79L180.315 105.276C180.315 103.606 180.103 101.966 179.982 100.326L178.653 99.8398Z" fill="#783300"/>
<path d="M179.045 105.944L179.256 110.895L180.676 111.411C180.676 109.741 180.465 108.101 180.344 106.461L179.045 105.944Z" fill="#783300"/>
<path d="M169.957 119.46C169.957 117.881 169.957 116.423 170.168 114.722L168.809 114.236C168.809 115.816 168.628 117.273 168.567 118.974L169.957 119.46Z" fill="#783300"/>
<path d="M172.495 78.4899C172.495 77.184 172.646 75.9084 172.736 74.6025H171.679L171.407 78.1254L172.495 78.4899Z" fill="#783300"/>
<path d="M180.012 75.24C179.997 75.0278 179.997 74.8148 180.012 74.6025H179.257V74.9972L180.012 75.24Z" fill="#783300"/>
<path d="M175.423 79.5528L175.393 74.724L175.031 74.6025H174.336L174.306 79.158L175.423 79.5528Z" fill="#783300"/>
<path d="M183.515 125.532C183.515 127.111 183.515 128.569 183.515 130.391L184.693 130.817C184.693 129.177 184.693 127.537 184.693 125.927L183.515 125.532Z" fill="#783300"/>
<path d="M181.704 135.678C181.704 134.069 181.704 132.429 181.704 130.819L180.163 130.272C180.163 131.882 180.163 133.492 180.163 135.101L181.704 135.678Z" fill="#783300"/>
<path d="M180.192 82.4385C180.404 84.1392 180.585 85.8095 180.766 87.4798L181.461 87.7228C181.28 86.0221 181.068 84.3214 180.887 82.6814L180.192 82.4385Z" fill="#783300"/>
<path d="M166.123 130.059C166.123 128.419 166.123 126.81 166.123 125.261L165.066 124.866L164.885 129.634L166.123 130.059Z" fill="#783300"/>
<path d="M175.755 128.692L173.973 128.055L173.942 132.883L175.785 133.552L175.755 128.692Z" fill="#783300"/>
<path d="M170.199 77.6073C170.199 76.6051 170.41 75.6029 170.531 74.5703H169.927C169.927 75.4814 169.716 76.4229 169.595 77.3643L170.199 77.6073Z" fill="#783300"/>
<path d="M173.912 134.035L173.882 138.53L175.815 139.259L175.785 134.703L173.912 134.035Z" fill="#783300"/>
<path d="M183.606 137.531C183.606 139.019 183.606 140.568 183.606 142.117L184.845 142.573C184.845 141.024 184.845 139.536 184.845 137.987L183.606 137.531Z" fill="#783300"/>
<path d="M180.102 136.253V140.839L181.733 141.446C181.733 139.897 181.733 138.409 181.733 136.83L180.102 136.253Z" fill="#783300"/>
<path d="M168.083 131.913C168.083 133.401 168.083 134.95 168.083 136.377L169.684 136.954C169.684 135.466 169.684 133.917 169.684 132.46L168.083 131.913Z" fill="#783300"/>
<path d="M164.915 130.667C164.915 132.125 164.915 133.704 164.915 135.101L166.153 135.557V131.214L164.915 130.667Z" fill="#783300"/>
<path d="M169.714 126.536L168.234 125.989C168.234 127.599 168.234 129.026 168.234 130.757L169.745 131.334L169.714 126.536Z" fill="#783300"/>
<path d="M178.955 86.812C178.955 85.172 178.713 83.5017 178.562 81.8617L177.414 81.4365C177.414 83.0765 177.626 84.7468 177.746 86.3868L178.955 86.812Z" fill="#783300"/>
<path d="M174.243 85.1109L175.451 85.5665L175.421 80.7073L174.304 80.3125L174.243 85.1109Z" fill="#783300"/>
<path d="M170.981 83.925L172.099 84.3502C172.099 82.7709 172.311 81.3132 172.401 79.6125L171.344 79.248L170.981 83.925Z" fill="#783300"/>
<path d="M168.779 83.1367L169.414 83.3797C169.414 81.8308 169.746 80.3427 169.927 78.7331L169.323 78.5205C169.142 80.0086 168.961 81.5575 168.779 83.1367Z" fill="#783300"/>
<path d="M177.324 80.251L178.471 80.6762L178.109 75.6956L177.021 75.3008C177.112 76.9711 177.233 78.6111 177.324 80.251Z" fill="#783300"/>
<path d="M179.5 76.2109C179.681 77.9116 179.893 79.582 180.074 81.2523L180.738 81.4953C180.557 79.7642 180.346 78.0939 180.165 76.4539L179.5 76.2109Z" fill="#783300"/>
<path d="M167.18 106.371C167.18 104.792 167.422 103.334 167.542 101.694L166.817 101.421C166.817 102.97 166.515 104.458 166.395 106.098L167.18 106.371Z" fill="#783300"/>
<path d="M166.725 112.443C166.725 110.833 166.906 109.254 167.027 107.705L166.241 107.432C166.241 108.98 165.969 110.469 165.849 112.139L166.725 112.443Z" fill="#783300"/>
<path d="M166.213 124.104C166.213 122.464 166.213 120.885 166.213 119.336L165.247 118.972C165.247 120.551 165.065 122.009 165.005 123.709L166.213 124.104Z" fill="#783300"/>
<path d="M166.424 118.184C166.424 116.574 166.424 115.147 166.635 113.446L165.759 113.143C165.759 114.691 165.548 116.18 165.457 117.85L166.424 118.184Z" fill="#783300"/>
<path d="M167.574 100.66L168.027 95.9832L167.362 95.7402C167.181 97.2587 167.181 98.8379 166.879 100.296L167.574 100.66Z" fill="#783300"/>
<path d="M168.144 94.8885C168.144 93.3093 168.476 91.8516 168.627 90.242L167.963 89.999C167.963 91.5175 167.63 93.036 167.449 94.6456L168.144 94.8885Z" fill="#783300"/>
<path d="M168.748 89.117C168.929 87.5681 169.11 86.08 169.261 84.4704L168.627 84.2578C168.627 85.7459 168.295 87.2948 168.113 88.874L168.748 89.117Z" fill="#783300"/>
<path d="M175.573 38.4622C175.573 37.3689 175.12 37.126 174.848 37.126C174.576 37.126 174.244 37.3689 174.123 38.4622L171.979 58.4759H174.848H177.868C177.868 58.4759 175.663 39.0393 175.573 38.4622Z" fill="#F5AF59"/>
<path d="M177.748 58.4741C176.827 57.9611 175.78 57.7191 174.729 57.7756C173.727 57.7379 172.734 57.9796 171.86 58.4741C170.276 66.2704 169.117 74.1479 168.388 82.0714C172.54 80.3715 177.189 80.3715 181.341 82.0714C180.557 74.1475 179.358 66.2708 177.748 58.4741Z" fill="#D68828"/>
<path d="M174.847 52.1264C176.348 52.1264 177.565 50.1684 177.565 47.7531C177.565 45.3378 176.348 43.3799 174.847 43.3799C173.347 43.3799 172.13 45.3378 172.13 47.7531C172.13 50.1684 173.347 52.1264 174.847 52.1264Z" fill="#D68828"/>
<path d="M174.849 50.5175C175.75 50.5175 176.48 49.2802 176.48 47.7539C176.48 46.2276 175.75 44.9902 174.849 44.9902C173.949 44.9902 173.219 46.2276 173.219 47.7539C173.219 49.2802 173.949 50.5175 174.849 50.5175Z" fill="#783300"/>
<path d="M178.729 34.6933L174.843 30.7842L170.956 34.6933L174.843 38.6024L178.729 34.6933Z" fill="#B4440D"/>
<path d="M175.693 30.7776C175.685 31.0006 175.594 31.2124 175.437 31.3702C175.28 31.528 175.069 31.62 174.847 31.6275C174.628 31.6197 174.42 31.5267 174.268 31.3681C174.116 31.2096 174.031 30.9978 174.031 30.7776C174.031 30.5602 174.117 30.3518 174.27 30.1981C174.423 30.0444 174.631 29.958 174.847 29.958C175.066 29.9579 175.277 30.0432 175.434 30.1961C175.592 30.349 175.685 30.5575 175.693 30.7776Z" fill="#DBA97F"/>
<path d="M179.558 34.6926C179.558 34.91 179.472 35.1185 179.319 35.2722C179.166 35.4259 178.959 35.5122 178.742 35.5122C178.526 35.5122 178.319 35.4259 178.166 35.2722C178.013 35.1185 177.927 34.91 177.927 34.6926C177.927 34.4753 178.013 34.2668 178.166 34.1131C178.319 33.9594 178.526 33.873 178.742 33.873C178.959 33.873 179.166 33.9594 179.319 34.1131C179.472 34.2668 179.558 34.4753 179.558 34.6926Z" fill="#DBA97F"/>
<path d="M171.799 34.6949C171.823 34.8178 171.819 34.9445 171.788 35.0657C171.757 35.187 171.7 35.2999 171.621 35.3963C171.541 35.4928 171.442 35.5705 171.329 35.6238C171.216 35.6771 171.093 35.7048 170.969 35.7048C170.844 35.7048 170.721 35.6771 170.609 35.6238C170.496 35.5705 170.396 35.4928 170.317 35.3963C170.238 35.2999 170.18 35.187 170.149 35.0657C170.119 34.9445 170.115 34.8178 170.138 34.6949C170.175 34.5008 170.278 34.3257 170.43 34.1997C170.582 34.0738 170.772 34.0049 170.969 34.0049C171.166 34.0049 171.356 34.0738 171.508 34.1997C171.659 34.3257 171.762 34.5008 171.799 34.6949Z" fill="#DBA97F"/>
<path d="M173.217 32.4751C173.217 32.62 173.16 32.759 173.058 32.8615C172.956 32.9639 172.818 33.0215 172.674 33.0215C172.529 33.0215 172.391 32.9639 172.289 32.8615C172.187 32.759 172.13 32.62 172.13 32.4751C172.13 32.3302 172.187 32.1912 172.289 32.0887C172.391 31.9863 172.529 31.9287 172.674 31.9287C172.818 31.9287 172.956 31.9863 173.058 32.0887C173.16 32.1912 173.217 32.3302 173.217 32.4751Z" fill="#DBA97F"/>
<path d="M174.035 31.5649C174.035 31.673 174.003 31.7786 173.943 31.8685C173.883 31.9584 173.798 32.0284 173.699 32.0697C173.6 32.1111 173.49 32.1219 173.385 32.1008C173.279 32.0797 173.183 32.0277 173.107 31.9513C173.03 31.8749 172.979 31.7775 172.958 31.6715C172.937 31.5655 172.947 31.4557 172.989 31.3558C173.03 31.256 173.099 31.1707 173.189 31.1106C173.278 31.0506 173.383 31.0186 173.491 31.0186C173.635 31.0186 173.773 31.0761 173.875 31.1786C173.977 31.2811 174.035 31.42 174.035 31.5649Z" fill="#DBA97F"/>
<path d="M172.282 33.478C172.282 33.5861 172.25 33.6917 172.19 33.7816C172.13 33.8714 172.045 33.9415 171.946 33.9828C171.847 34.0242 171.737 34.035 171.632 34.0139C171.527 33.9928 171.43 33.9408 171.354 33.8644C171.278 33.788 171.226 33.6906 171.205 33.5846C171.184 33.4786 171.195 33.3688 171.236 33.2689C171.277 33.1691 171.347 33.0838 171.436 33.0237C171.525 32.9637 171.631 32.9316 171.738 32.9316C171.882 32.9316 172.021 32.9892 172.123 33.0917C172.224 33.1941 172.282 33.3331 172.282 33.478Z" fill="#DBA97F"/>
<path d="M176.57 32.4751C176.57 32.62 176.628 32.759 176.73 32.8615C176.832 32.9639 176.97 33.0215 177.114 33.0215C177.258 33.0215 177.397 32.9639 177.498 32.8615C177.6 32.759 177.658 32.62 177.658 32.4751C177.658 32.3302 177.6 32.1912 177.498 32.0887C177.397 31.9863 177.258 31.9287 177.114 31.9287C176.97 31.9287 176.832 31.9863 176.73 32.0887C176.628 32.1912 176.57 32.3302 176.57 32.4751Z" fill="#DBA97F"/>
<path d="M175.695 31.5649C175.695 31.673 175.727 31.7786 175.787 31.8685C175.847 31.9584 175.932 32.0284 176.031 32.0697C176.13 32.1111 176.24 32.1219 176.345 32.1008C176.451 32.0797 176.547 32.0277 176.623 31.9513C176.7 31.8749 176.751 31.7775 176.772 31.6715C176.793 31.5655 176.782 31.4557 176.741 31.3558C176.7 31.256 176.631 31.1707 176.541 31.1106C176.452 31.0506 176.347 31.0186 176.239 31.0186C176.095 31.0186 175.957 31.0761 175.855 31.1786C175.753 31.2811 175.695 31.42 175.695 31.5649Z" fill="#DBA97F"/>
<path d="M177.99 33.874C178.29 33.874 178.534 33.6294 178.534 33.3276C178.534 33.0259 178.29 32.7812 177.99 32.7812C177.69 32.7812 177.446 33.0259 177.446 33.3276C177.446 33.6294 177.69 33.874 177.99 33.874Z" fill="#DBA97F"/>
<path d="M173.217 36.9409C173.217 36.8329 173.185 36.7272 173.126 36.6374C173.066 36.5475 172.981 36.4775 172.882 36.4361C172.782 36.3948 172.673 36.3839 172.568 36.405C172.462 36.4261 172.365 36.4782 172.289 36.5546C172.213 36.631 172.161 36.7283 172.14 36.8343C172.119 36.9403 172.13 37.0502 172.171 37.15C172.212 37.2499 172.282 37.3352 172.372 37.3952C172.461 37.4553 172.566 37.4873 172.674 37.4873C172.818 37.4873 172.956 37.4297 173.058 37.3273C173.16 37.2248 173.217 37.0858 173.217 36.9409Z" fill="#DBA97F"/>
<path d="M174.035 37.8228C174.035 37.7147 174.003 37.6091 173.943 37.5192C173.883 37.4293 173.798 37.3593 173.699 37.318C173.6 37.2766 173.49 37.2658 173.385 37.2869C173.279 37.3079 173.183 37.36 173.107 37.4364C173.03 37.5128 172.979 37.6102 172.958 37.7162C172.937 37.8221 172.947 37.932 172.989 38.0319C173.03 38.1317 173.099 38.217 173.189 38.2771C173.278 38.3371 173.383 38.3691 173.491 38.3691C173.635 38.3691 173.773 38.3116 173.875 38.2091C173.977 38.1066 174.035 37.9677 174.035 37.8228Z" fill="#DBA97F"/>
<path d="M172.282 36.0601C172.282 35.9151 172.224 35.7762 172.123 35.6737C172.021 35.5712 171.882 35.5137 171.738 35.5137C171.594 35.5137 171.456 35.5712 171.354 35.6737C171.252 35.7762 171.194 35.9151 171.194 36.0601C171.194 36.205 171.252 36.3439 171.354 36.4464C171.456 36.5489 171.594 36.6064 171.738 36.6064C171.882 36.6064 172.021 36.5489 172.123 36.4464C172.224 36.3439 172.282 36.205 172.282 36.0601Z" fill="#DBA97F"/>
<path d="M176.57 36.9409C176.57 36.8329 176.602 36.7272 176.662 36.6374C176.722 36.5475 176.807 36.4775 176.906 36.4361C177.005 36.3948 177.115 36.3839 177.22 36.405C177.326 36.4261 177.422 36.4782 177.498 36.5546C177.575 36.631 177.626 36.7283 177.647 36.8343C177.668 36.9403 177.657 37.0502 177.616 37.15C177.575 37.2499 177.506 37.3352 177.416 37.3952C177.327 37.4553 177.222 37.4873 177.114 37.4873C176.97 37.4873 176.832 37.4297 176.73 37.3273C176.628 37.2248 176.57 37.0858 176.57 36.9409Z" fill="#DBA97F"/>
<path d="M175.695 37.8228C175.695 37.7147 175.727 37.6091 175.787 37.5192C175.847 37.4293 175.932 37.3593 176.031 37.318C176.13 37.2766 176.24 37.2658 176.345 37.2869C176.451 37.3079 176.547 37.36 176.623 37.4364C176.7 37.5128 176.751 37.6102 176.772 37.7162C176.793 37.8221 176.782 37.932 176.741 38.0319C176.7 38.1317 176.631 38.217 176.541 38.2771C176.452 38.3371 176.347 38.3691 176.239 38.3691C176.095 38.3691 175.957 38.3116 175.855 38.2091C175.753 38.1066 175.695 37.9677 175.695 37.8228Z" fill="#DBA97F"/>
<path d="M177.446 36.0601C177.446 35.9151 177.504 35.7762 177.606 35.6737C177.707 35.5712 177.846 35.5137 177.99 35.5137C178.134 35.5137 178.272 35.5712 178.374 35.6737C178.476 35.7762 178.534 35.9151 178.534 36.0601C178.534 36.205 178.476 36.3439 178.374 36.4464C178.272 36.5489 178.134 36.6064 177.99 36.6064C177.846 36.6064 177.707 36.5489 177.606 36.4464C177.504 36.3439 177.446 36.205 177.446 36.0601Z" fill="#DBA97F"/>
<path d="M175.15 34.3887L175.694 31.9287H174.848H174.033L174.546 34.3887L172.101 33.8724V34.6924V35.5427L174.546 34.9961L174.033 37.4864H174.848H175.694L175.15 34.9961L177.626 35.5427V34.6924V33.8724L175.15 34.3887Z" fill="#DBA97F"/>
<path d="M71.0967 93.6736L87.2813 87.4782V82.042L71.0967 88.2374V93.6736Z" fill="#783300"/>
<path d="M83.6582 128.147L105.006 120.281V239.911H83.6582V128.147Z" fill="#F5AF59"/>
<path d="M105.006 120.281V121.982L83.6582 129.878V128.147L105.006 120.281Z" fill="#D68828"/>
<path d="M105.006 123.955V125.686L83.6582 133.582V131.851L105.006 123.955Z" fill="#D68828"/>
<path d="M105.006 120.279L83.6582 128.145C83.6978 105.298 85.444 82.4863 88.882 59.9023H99.7824C102.883 79.8855 104.628 100.058 105.006 120.279Z" fill="#F5AF59"/>
<path d="M97.3984 129.875C98.1234 129.875 98.7275 130.3 98.7275 130.816V152.288H96.0693V130.816C96.0693 130.3 96.6432 129.875 97.3984 129.875Z" fill="#783300"/>
<path d="M91.2685 132.73C91.9935 132.73 92.5976 133.156 92.5976 133.672V155.143H89.9395V133.702C89.9395 133.156 90.5436 132.73 91.2685 132.73Z" fill="#783300"/>
<path d="M98.7275 142.873V145.789L96.0693 146.76V143.845L98.7275 142.873Z" fill="#D68828"/>
<path d="M92.5976 145.244V148.19L89.9395 149.162V146.246L92.5976 145.244Z" fill="#D68828"/>
<path d="M85.653 134.767C85.7839 134.763 85.9143 134.785 86.0368 134.832C86.1593 134.878 86.2714 134.949 86.3668 135.039C86.4622 135.129 86.5389 135.238 86.5927 135.358C86.6464 135.478 86.6761 135.607 86.68 135.739V157.18H84.626V135.739C84.6299 135.607 84.6596 135.478 84.7133 135.358C84.767 135.238 84.8438 135.129 84.9392 135.039C85.0345 134.949 85.1467 134.878 85.2692 134.832C85.3916 134.785 85.5221 134.763 85.653 134.767Z" fill="#783300"/>
<path d="M103.074 127.782C103.333 127.773 103.586 127.867 103.777 128.043C103.969 128.219 104.085 128.463 104.101 128.723V150.195H102.047V128.723C102.062 128.463 102.178 128.219 102.37 128.043C102.562 127.867 102.814 127.773 103.074 127.782Z" fill="#783300"/>
<path d="M97.3984 156.968C98.1234 156.968 98.7275 157.393 98.7275 157.909V160.46H96.0693V158C96.0693 157.393 96.6432 156.968 97.3984 156.968Z" fill="#783300"/>
<path d="M91.2685 159.821C91.9935 159.821 92.5976 160.246 92.5976 160.763V163.314H89.9395V160.763C89.9395 160.246 90.5436 159.821 91.2685 159.821Z" fill="#783300"/>
<path d="M85.653 161.886C85.9124 161.878 86.1648 161.972 86.3566 162.147C86.5484 162.323 86.6644 162.567 86.68 162.828V165.379H84.626V162.828C84.6416 162.567 84.7576 162.323 84.9494 162.147C85.1412 161.972 85.3936 161.878 85.653 161.886Z" fill="#783300"/>
<path d="M103.074 154.964C103.333 154.956 103.586 155.05 103.777 155.225C103.969 155.401 104.085 155.645 104.101 155.906V158.457H102.047V155.906C102.062 155.645 102.178 155.401 102.37 155.225C102.562 155.05 102.814 154.956 103.074 154.964Z" fill="#783300"/>
<path d="M88.2804 73.9961L87.7367 79.0375L87.0117 79.3108C87.193 77.6101 87.3742 75.9094 87.5856 74.2694L88.2804 73.9961Z" fill="#783300"/>
<path d="M99.4206 110.682C99.4206 109.103 99.4206 107.493 99.2695 105.914L100.689 105.397C100.689 106.977 100.84 108.586 100.901 110.166L99.4206 110.682Z" fill="#783300"/>
<path d="M93.4726 108.009L95.1943 107.401L95.2245 112.2L93.4424 112.838L93.4726 108.009Z" fill="#783300"/>
<path d="M98.2747 87.1755C98.2747 85.5963 98.0632 84.1386 97.9424 82.4682L99.1808 82.0127L99.5433 86.72L98.2747 87.1755Z" fill="#783300"/>
<path d="M97.8831 81.3445C97.8831 79.7653 97.6716 78.3075 97.5508 76.6068L98.759 76.1816L99.1215 80.8889L97.8831 81.3445Z" fill="#783300"/>
<path d="M98.636 93.036C98.636 91.4568 98.4246 89.999 98.334 88.2983L99.6026 87.8428C99.6026 89.422 99.8443 90.8797 99.9349 92.5501L98.636 93.036Z" fill="#783300"/>
<path d="M98.9691 98.8972L98.6973 94.2203L100.026 93.7344C100.026 95.3136 100.238 96.7713 100.328 98.472L98.9691 98.8972Z" fill="#783300"/>
<path d="M87.0109 86.415C87.0109 88.0246 86.7391 89.695 86.6182 91.3957L85.7725 91.6994C85.9235 89.9987 86.0745 88.3283 86.2558 86.6884L87.0109 86.415Z" fill="#783300"/>
<path d="M87.6164 80.2207C87.4351 81.8607 87.2841 83.531 87.1331 85.2317L86.3779 85.505C86.529 83.8043 86.7102 82.134 86.8914 80.4637L87.6164 80.2207Z" fill="#783300"/>
<path d="M86.5275 92.5811C86.5275 94.1906 86.2859 95.8306 86.1953 97.5313L85.2891 97.835C85.2891 96.1647 85.5307 94.5247 85.6817 92.8848L86.5275 92.5811Z" fill="#783300"/>
<path d="M84.8074 105.154L85.8344 104.789C85.8344 106.368 85.8344 108.008 85.8344 109.679L84.747 110.073C84.6564 108.433 84.7168 106.793 84.8074 105.154Z" fill="#783300"/>
<path d="M86.1368 98.6855C86.1368 100.295 85.9556 101.935 85.8952 103.605L84.8682 103.97C84.8682 102.33 85.0796 100.66 85.2004 99.05L86.1368 98.6855Z" fill="#783300"/>
<path d="M89.5167 103.334C89.5167 104.974 89.3657 106.614 89.3053 108.254L87.8252 108.77C87.8252 107.13 87.9762 105.49 88.0668 103.881L89.5167 103.334Z" fill="#783300"/>
<path d="M87.7653 110.076L89.2756 109.529C89.2756 111.169 89.2756 112.779 89.2756 114.419L87.7351 114.965C87.6747 113.326 87.7049 111.716 87.7653 110.076Z" fill="#783300"/>
<path d="M93.5635 94.8579L93.5937 89.9987L95.0436 89.4824L95.104 94.3112L93.5635 94.8579Z" fill="#783300"/>
<path d="M93.5938 88.845L93.624 84.0162L95.0134 83.5303L95.0437 88.3287L93.5938 88.845Z" fill="#783300"/>
<path d="M94.9843 77.5488L95.0145 82.3776L93.6553 82.8635L93.6855 78.0044L94.9843 77.5488Z" fill="#783300"/>
<path d="M93.4727 106.857L93.5029 102.028L95.134 101.421L95.1642 106.25L93.4727 106.857Z" fill="#783300"/>
<path d="M98.6656 75.0558L97.4875 75.481C97.4875 73.9322 97.2761 72.444 97.1553 70.7737L98.3031 70.3789L98.6656 75.0558Z" fill="#783300"/>
<path d="M84.3827 117.274L85.5607 116.849V121.556L84.3223 122.011C84.3223 120.493 84.3525 118.883 84.3827 117.274Z" fill="#783300"/>
<path d="M95.1059 95.4668L95.1361 100.265L93.5352 100.842L93.5654 96.0135L95.1059 95.4668Z" fill="#783300"/>
<path d="M88.3997 97.8962L89.8194 97.3799L89.5476 102.3L88.0977 102.816C88.1883 101.176 88.2789 99.5361 88.3997 97.8962Z" fill="#783300"/>
<path d="M90.9377 79.0371C90.9377 80.6771 90.7263 82.3474 90.6054 83.9874L89.2764 84.4733C89.2764 82.803 89.5482 81.163 89.669 79.4927L90.9377 79.0371Z" fill="#783300"/>
<path d="M94.9532 76.3941L93.6846 76.8497L93.7148 72.0209L94.923 71.5957L94.9532 76.3941Z" fill="#783300"/>
<path d="M91.3597 72.9629C91.3597 74.6029 91.1483 76.2732 91.0274 77.9131L89.7588 78.3687L90.1213 73.4184L91.3597 72.9629Z" fill="#783300"/>
<path d="M90.5431 85.1104C90.5431 86.7503 90.3317 88.3903 90.2108 90.0606L88.8516 90.5465L89.214 85.5963L90.5431 85.1104Z" fill="#783300"/>
<path d="M90.1496 91.1846L89.8777 96.1045L88.458 96.6207C88.458 94.9504 88.6695 93.3104 88.7601 91.6705L90.1496 91.1846Z" fill="#783300"/>
<path d="M99.2397 104.791C99.2397 103.181 99.2397 101.602 98.998 100.023L100.388 99.5371C100.388 101.116 100.388 102.574 100.629 104.275L99.2397 104.791Z" fill="#783300"/>
<path d="M96.7045 63.8523C96.7045 62.5464 96.5233 61.2405 96.4629 59.9346H97.4899L97.7315 63.4271L96.7045 63.8523Z" fill="#783300"/>
<path d="M89.1543 60.5398V59.9023H89.7584V60.3273L89.1543 60.5398Z" fill="#783300"/>
<path d="M93.7764 64.8526L93.8066 60.0238L94.1388 59.9023H94.8638L94.894 64.4578L93.7764 64.8526Z" fill="#783300"/>
<path d="M85.6536 110.835C85.6536 112.414 85.6536 114.024 85.6536 115.694L84.4756 116.119C84.4756 114.479 84.4756 112.87 84.4756 111.23L85.6536 110.835Z" fill="#783300"/>
<path d="M87.4961 120.977V116.118L89.0366 115.571C89.0366 117.181 89.0366 118.79 89.0366 120.4L87.4961 120.977Z" fill="#783300"/>
<path d="M88.9728 67.7363C88.7915 69.437 88.6103 71.1074 88.3988 72.7777L87.7041 73.051C87.9155 71.32 88.0968 69.6496 88.3082 67.9793L88.9728 67.7363Z" fill="#783300"/>
<path d="M103.074 115.48C103.074 113.84 103.074 112.231 103.074 110.682L104.162 110.287C104.162 111.866 104.162 113.324 104.162 115.055L103.074 115.48Z" fill="#783300"/>
<path d="M93.4433 114.023L95.2255 113.354L95.2557 118.183L93.4131 118.851L93.4433 114.023Z" fill="#783300"/>
<path d="M99.1476 62.9393L98.7852 59.9023H99.4195C99.4195 60.8134 99.6309 61.7549 99.7518 62.6964L99.1476 62.9393Z" fill="#783300"/>
<path d="M95.2546 119.337L95.2848 123.862L93.3516 124.561L93.3818 120.005L95.2546 119.337Z" fill="#783300"/>
<path d="M85.6525 122.832C85.6525 124.351 85.6525 125.869 85.6525 127.418L84.4141 127.873C84.4141 126.355 84.4141 124.836 84.4141 123.288L85.6525 122.832Z" fill="#783300"/>
<path d="M89.0949 121.555C89.0949 123.104 89.0949 124.592 89.0949 126.141L87.4336 126.748C87.4336 125.229 87.4336 123.711 87.4336 122.132L89.0949 121.555Z" fill="#783300"/>
<path d="M101.111 117.211V121.675L99.54 122.252C99.54 120.764 99.54 119.215 99.54 117.788L101.111 117.211Z" fill="#783300"/>
<path d="M104.252 116.09C104.252 117.548 104.252 119.127 104.252 120.524L103.044 120.979C103.044 119.461 103.044 117.942 103.044 116.515L104.252 116.09Z" fill="#783300"/>
<path d="M99.4501 111.84L100.93 111.293C100.93 112.903 100.93 114.482 100.93 116.091L99.4199 116.638C99.5407 115.028 99.5105 113.419 99.4501 111.84Z" fill="#783300"/>
<path d="M90.21 72.1407C90.21 70.4703 90.4818 68.8304 90.6026 67.16L91.6901 66.8867C91.6901 68.5571 91.4484 70.197 91.3578 71.837L90.21 72.1407Z" fill="#783300"/>
<path d="M94.9222 70.4421L93.7441 70.8672L93.7743 66.0081L94.892 65.6133L94.9222 70.4421Z" fill="#783300"/>
<path d="M98.2116 69.2561L97.0638 69.6509C97.0638 68.0717 96.8825 66.614 96.7617 64.9436L97.8491 64.5488L98.2116 69.2561Z" fill="#783300"/>
<path d="M100.417 68.4336L99.783 68.6765C99.6018 67.1277 99.4206 65.6396 99.2695 64.03L99.8737 63.8174C100.055 65.3055 100.236 66.8847 100.417 68.4336Z" fill="#783300"/>
<path d="M91.8431 65.5517L90.6953 65.9769C90.6953 64.3066 90.9672 62.6666 91.088 60.9963L92.1754 60.6318C92.0546 62.2718 91.964 63.851 91.8431 65.5517Z" fill="#783300"/>
<path d="M89.6681 61.5107L89.1244 66.5521L88.4297 66.7951C88.6411 65.064 88.8526 63.3937 89.0338 61.7537L89.6681 61.5107Z" fill="#783300"/>
<path d="M102.077 91.7922C102.077 90.1826 101.836 88.7552 101.685 87.0849L102.41 86.8115L102.863 91.4885L102.077 91.7922Z" fill="#783300"/>
<path d="M102.47 97.6214C102.47 96.0118 102.259 94.4325 102.168 92.914L102.953 92.6104L103.316 97.2569L102.47 97.6214Z" fill="#783300"/>
<path d="M102.957 109.407C102.957 107.797 102.957 106.188 102.957 104.639L103.954 104.274C103.954 105.854 104.105 107.311 104.165 109.042L102.957 109.407Z" fill="#783300"/>
<path d="M102.773 103.483C102.773 101.873 102.622 100.294 102.531 98.7451L103.407 98.4414C103.407 99.9903 103.619 101.478 103.709 103.149L102.773 103.483Z" fill="#783300"/>
<path d="M101.594 85.9619L101.141 81.3153L101.835 81.042C101.835 82.5908 102.168 84.079 102.319 85.7189L101.594 85.9619Z" fill="#783300"/>
<path d="M101.052 80.1903C100.87 78.6111 100.719 77.1533 100.538 75.5437L101.203 75.3008C101.384 76.8193 101.535 78.3377 101.716 79.9473L101.052 80.1903Z" fill="#783300"/>
<path d="M100.417 74.4187C100.417 72.8699 100.085 71.3818 99.9033 69.7722L100.538 69.5596L101.081 74.1758L100.417 74.4187Z" fill="#783300"/>
<path d="M93.5918 23.7601C93.5918 22.6668 94.0447 22.4238 94.3165 22.4238C94.5882 22.4238 94.9204 22.6668 95.0412 23.7601C95.0412 24.3371 97.2152 43.7737 97.2152 43.7737H94.1957H91.3271L93.5918 23.7601Z" fill="#F5AF59"/>
<path d="M91.4495 43.7759C92.3245 43.2843 93.3164 43.0428 94.3181 43.0774C95.3698 43.0209 96.4161 43.2629 97.3376 43.7759C98.8822 51.546 100.021 59.3921 100.75 67.282C98.6976 66.4208 96.4962 65.9774 94.2728 65.9774C92.0493 65.9774 89.8479 66.4208 87.7959 67.282C88.5894 59.3858 89.8091 51.5389 91.4495 43.7759Z" fill="#D68828"/>
<path d="M91.6895 33.0538C91.6895 35.453 92.9275 37.427 94.407 37.427C95.8866 37.427 97.1548 35.453 97.1548 33.0538C97.1548 30.6546 95.9168 28.7109 94.407 28.7109C92.8973 28.7109 91.6895 30.6546 91.6895 33.0538Z" fill="#D68828"/>
<path d="M92.6885 33.0542C92.6885 34.5727 93.4132 35.8178 94.319 35.8178C95.2249 35.8178 95.9797 34.5727 95.9797 33.0542C95.9797 31.5357 95.2249 30.4424 94.319 30.4424C93.4132 30.4424 92.6885 31.5357 92.6885 33.0542Z" fill="#783300"/>
<path d="M94.3507 23.911L98.2373 20.002L94.3507 16.0929L90.464 20.002L94.3507 23.911Z" fill="#B4440D"/>
<path d="M93.5024 16.0758C93.479 16.1987 93.4828 16.3253 93.5138 16.4466C93.5447 16.5678 93.6018 16.6807 93.6812 16.7772C93.7605 16.8737 93.8601 16.9513 93.9728 17.0047C94.0855 17.058 94.2085 17.0856 94.3331 17.0856C94.4576 17.0856 94.5806 17.058 94.6933 17.0047C94.806 16.9513 94.9056 16.8737 94.985 16.7772C95.0643 16.6807 95.1215 16.5678 95.1524 16.4466C95.1833 16.3253 95.1872 16.1987 95.1638 16.0758C95.1267 15.8816 95.0235 15.7065 94.8719 15.5806C94.7203 15.4546 94.5298 15.3857 94.3331 15.3857C94.1364 15.3857 93.9458 15.4546 93.7942 15.5806C93.6426 15.7065 93.5394 15.8816 93.5024 16.0758Z" fill="#DBA97F"/>
<path d="M89.6059 19.9937C89.5825 20.1167 89.5864 20.2433 89.6173 20.3645C89.6482 20.4858 89.7054 20.5987 89.7847 20.6952C89.8641 20.7916 89.9636 20.8693 90.0763 20.9226C90.189 20.9759 90.312 21.0036 90.4366 21.0036C90.5611 21.0036 90.6842 20.9759 90.7969 20.9226C90.9095 20.8693 91.0091 20.7916 91.0885 20.6952C91.1678 20.5987 91.225 20.4858 91.2559 20.3645C91.2868 20.2433 91.2907 20.1167 91.2673 19.9937C91.2303 19.7996 91.1271 19.6245 90.9755 19.4986C90.8238 19.3726 90.6333 19.3037 90.4366 19.3037C90.2399 19.3037 90.0493 19.3726 89.8977 19.4986C89.7461 19.6245 89.6429 19.7996 89.6059 19.9937Z" fill="#DBA97F"/>
<path d="M97.3965 19.9963C97.3963 20.2166 97.4813 20.4283 97.6334 20.5869C97.7856 20.7454 97.993 20.8384 98.2121 20.8463C98.434 20.8387 98.6448 20.7467 98.8018 20.589C98.9588 20.4312 99.0503 20.2194 99.0578 19.9963C99.05 19.7762 98.9575 19.5678 98.7997 19.4149C98.6419 19.262 98.4312 19.1766 98.2121 19.1768C97.9958 19.1768 97.7883 19.2631 97.6354 19.4168C97.4824 19.5705 97.3965 19.779 97.3965 19.9963Z" fill="#DBA97F"/>
<path d="M96.04 17.7759C96.04 17.8839 96.0719 17.9896 96.1317 18.0794C96.1914 18.1693 96.2763 18.2393 96.3757 18.2807C96.475 18.322 96.5844 18.3329 96.6898 18.3118C96.7953 18.2907 96.8922 18.2386 96.9682 18.1622C97.0443 18.0858 97.096 17.9885 97.117 17.8825C97.138 17.7765 97.1272 17.6666 97.0861 17.5668C97.0449 17.4669 96.9752 17.3816 96.8858 17.3216C96.7964 17.2615 96.6913 17.2295 96.5838 17.2295C96.4396 17.2295 96.3013 17.2871 96.1993 17.3895C96.0973 17.492 96.04 17.631 96.04 17.7759Z" fill="#DBA97F"/>
<path d="M95.1641 16.8657C95.1641 16.9738 95.1959 17.0794 95.2557 17.1693C95.3154 17.2591 95.4003 17.3292 95.4997 17.3705C95.599 17.4119 95.7084 17.4227 95.8138 17.4016C95.9193 17.3805 96.0162 17.3285 96.0922 17.2521C96.1683 17.1757 96.2201 17.0783 96.241 16.9723C96.262 16.8663 96.2512 16.7565 96.2101 16.6566C96.1689 16.5568 96.0993 16.4715 96.0098 16.4114C95.9204 16.3514 95.8153 16.3193 95.7078 16.3193C95.5636 16.3193 95.4253 16.3769 95.3233 16.4794C95.2213 16.5818 95.1641 16.7208 95.1641 16.8657Z" fill="#DBA97F"/>
<path d="M96.917 18.6284C96.917 18.7365 96.9489 18.8421 97.0086 18.932C97.0684 19.0218 97.1533 19.0919 97.2526 19.1332C97.352 19.1746 97.4613 19.1854 97.5668 19.1643C97.6723 19.1432 97.7691 19.0912 97.8452 19.0148C97.9212 18.9384 97.973 18.841 97.994 18.735C98.0149 18.629 98.0042 18.5192 97.963 18.4193C97.9219 18.3195 97.8522 18.2342 97.7628 18.1741C97.6734 18.1141 97.5682 18.082 97.4607 18.082C97.3165 18.082 97.1782 18.1396 97.0762 18.2421C96.9743 18.3445 96.917 18.4835 96.917 18.6284Z" fill="#DBA97F"/>
<path d="M92.6274 17.7759C92.6196 17.9235 92.5558 18.0625 92.449 18.1642C92.3422 18.2659 92.2006 18.3225 92.0535 18.3223C91.9093 18.3223 91.771 18.2647 91.669 18.1622C91.5671 18.0598 91.5098 17.9208 91.5098 17.7759C91.5098 17.631 91.5671 17.492 91.669 17.3895C91.771 17.2871 91.9093 17.2295 92.0535 17.2295C92.2006 17.2293 92.3422 17.2859 92.449 17.3875C92.5558 17.4892 92.6196 17.6282 92.6274 17.7759Z" fill="#DBA97F"/>
<path d="M93.5034 16.8657C93.5034 16.9738 93.4716 17.0794 93.4118 17.1693C93.3521 17.2591 93.2671 17.3292 93.1678 17.3705C93.0684 17.4119 92.9591 17.4227 92.8537 17.4016C92.7482 17.3805 92.6513 17.3285 92.5753 17.2521C92.4992 17.1757 92.4474 17.0783 92.4265 16.9723C92.4055 16.8663 92.4163 16.7565 92.4574 16.6566C92.4986 16.5568 92.5682 16.4715 92.6577 16.4114C92.7471 16.3514 92.8522 16.3193 92.9597 16.3193C93.1039 16.3193 93.2422 16.3769 93.3442 16.4794C93.4462 16.5818 93.5034 16.7208 93.5034 16.8657Z" fill="#DBA97F"/>
<path d="M91.6909 18.6284C91.6909 18.7365 91.659 18.8421 91.5993 18.932C91.5396 19.0218 91.4546 19.0919 91.3553 19.1332C91.2559 19.1746 91.1466 19.1854 91.0412 19.1643C90.9357 19.1432 90.8388 19.0912 90.7628 19.0148C90.6867 18.9384 90.6349 18.841 90.614 18.735C90.593 18.629 90.6037 18.5192 90.6449 18.4193C90.6861 18.3195 90.7557 18.2342 90.8452 18.1741C90.9346 18.1141 91.0397 18.082 91.1472 18.082C91.2914 18.082 91.4297 18.1396 91.5317 18.2421C91.6337 18.3445 91.6909 18.4835 91.6909 18.6284Z" fill="#DBA97F"/>
<path d="M96.04 22.2446C96.04 22.1366 96.0719 22.0309 96.1317 21.9411C96.1914 21.8512 96.2763 21.7812 96.3757 21.7398C96.475 21.6985 96.5844 21.6877 96.6898 21.7087C96.7953 21.7298 96.8922 21.7819 96.9682 21.8583C97.0443 21.9347 97.096 22.032 97.117 22.138C97.138 22.244 97.1272 22.3539 97.0861 22.4537C97.0449 22.5536 96.9752 22.6389 96.8858 22.6989C96.7964 22.759 96.6913 22.791 96.5838 22.791C96.4396 22.791 96.3013 22.7335 96.1993 22.631C96.0973 22.5285 96.04 22.3895 96.04 22.2446Z" fill="#DBA97F"/>
<path d="M95.1641 23.1235C95.1641 22.9786 95.2213 22.8396 95.3233 22.7372C95.4253 22.6347 95.5636 22.5771 95.7078 22.5771C95.852 22.5771 95.9903 22.6347 96.0922 22.7372C96.1942 22.8396 96.2515 22.9786 96.2515 23.1235C96.2515 23.2684 96.1942 23.4074 96.0922 23.5099C95.9903 23.6124 95.852 23.6699 95.7078 23.6699C95.5636 23.6699 95.4253 23.6124 95.3233 23.5099C95.2213 23.4074 95.1641 23.2684 95.1641 23.1235Z" fill="#DBA97F"/>
<path d="M96.917 21.3306C96.917 21.1857 96.9743 21.0467 97.0762 20.9442C97.1782 20.8417 97.3165 20.7842 97.4607 20.7842C97.6049 20.7842 97.7432 20.8417 97.8452 20.9442C97.9471 21.0467 98.0044 21.1857 98.0044 21.3306C98.0044 21.4755 97.9471 21.6145 97.8452 21.7169C97.7432 21.8194 97.6049 21.877 97.4607 21.877C97.3165 21.877 97.1782 21.8194 97.0762 21.7169C96.9743 21.6145 96.917 21.4755 96.917 21.3306Z" fill="#DBA97F"/>
<path d="M92.6274 22.2446C92.6196 22.097 92.5558 21.958 92.449 21.8563C92.3422 21.7546 92.2006 21.698 92.0535 21.6982C91.9093 21.6982 91.771 21.7558 91.669 21.8583C91.5671 21.9607 91.5098 22.0997 91.5098 22.2446C91.5098 22.3895 91.5671 22.5285 91.669 22.631C91.771 22.7335 91.9093 22.791 92.0535 22.791C92.2006 22.7912 92.3422 22.7346 92.449 22.633C92.5558 22.5313 92.6196 22.3923 92.6274 22.2446Z" fill="#DBA97F"/>
<path d="M93.5034 23.1235C93.5034 22.9786 93.4462 22.8396 93.3442 22.7372C93.2422 22.6347 93.1039 22.5771 92.9597 22.5771C92.8155 22.5771 92.6772 22.6347 92.5753 22.7372C92.4733 22.8396 92.416 22.9786 92.416 23.1235C92.416 23.2684 92.4733 23.4074 92.5753 23.5099C92.6772 23.6124 92.8155 23.6699 92.9597 23.6699C93.1039 23.6699 93.2422 23.6124 93.3442 23.5099C93.4462 23.4074 93.5034 23.2684 93.5034 23.1235Z" fill="#DBA97F"/>
<path d="M91.6909 21.3306C91.6909 21.1857 91.6337 21.0467 91.5317 20.9442C91.4297 20.8417 91.2914 20.7842 91.1472 20.7842C91.003 20.7842 90.8647 20.8417 90.7628 20.9442C90.6608 21.0467 90.6035 21.1857 90.6035 21.3306C90.6035 21.4755 90.6608 21.6145 90.7628 21.7169C90.8647 21.8194 91.003 21.877 91.1472 21.877C91.2914 21.877 91.4297 21.8194 91.5317 21.7169C91.6337 21.6145 91.6909 21.4755 91.6909 21.3306Z" fill="#DBA97F"/>
<path d="M94.0161 19.6894L93.5028 17.2295H94.3181H95.1635L94.62 19.6894L97.096 19.1732V19.9931V20.8435L94.62 20.2968L95.1635 22.7871H94.3181H93.5028L94.0161 20.2968L91.5703 20.8435V19.9931V19.1732L94.0161 19.6894Z" fill="#DBA97F"/>
<path d="M54.4307 142.846L75.7787 134.949V239.91H54.4307V142.846Z" fill="#F5AF59"/>
<path d="M75.7787 134.949V136.68L54.4307 144.576V142.845L75.7787 134.949Z" fill="#D68828"/>
<path d="M75.7787 138.653V140.384L54.4307 148.281V146.549L75.7787 138.653Z" fill="#D68828"/>
<path d="M75.7787 134.947L54.4307 142.813C54.4703 119.966 56.2164 97.1542 59.6544 74.5703H70.5549C73.6554 94.5535 75.4007 114.726 75.7787 134.947Z" fill="#F5AF59"/>
<path d="M68.167 144.578C68.9221 144.578 69.496 145.003 69.496 145.52V167.112H66.8379V145.52C66.8379 145.003 67.5326 144.578 68.167 144.578Z" fill="#783300"/>
<path d="M62.0703 147.431C62.7952 147.431 63.3994 147.856 63.3994 148.372V169.843H60.7412V148.372C60.7412 147.856 61.3151 147.431 62.0703 147.431Z" fill="#783300"/>
<path d="M69.496 157.543V160.489L66.8379 161.461V158.545L69.496 157.543Z" fill="#D68828"/>
<path d="M63.3994 159.942V162.858L60.7412 163.86V160.945L63.3994 159.942Z" fill="#D68828"/>
<path d="M56.5445 149.464C56.6754 149.46 56.8058 149.482 56.9283 149.529C57.0508 149.575 57.1629 149.646 57.2583 149.736C57.3537 149.826 57.4304 149.935 57.4841 150.055C57.5379 150.175 57.5676 150.304 57.5715 150.436V171.877H55.457V150.436C55.4606 150.299 55.4921 150.164 55.5496 150.04C55.6071 149.915 55.6893 149.804 55.7913 149.713C55.8932 149.622 56.0126 149.553 56.1422 149.51C56.2717 149.467 56.4086 149.452 56.5445 149.464Z" fill="#783300"/>
<path d="M73.8756 142.452C74.0066 142.448 74.137 142.47 74.2595 142.516C74.382 142.563 74.4941 142.633 74.5895 142.724C74.6848 142.814 74.7616 142.922 74.8153 143.042C74.8691 143.162 74.8987 143.292 74.9027 143.423V164.864H72.8486V143.423C72.8525 143.292 72.8822 143.162 72.9359 143.042C72.9897 142.922 73.0664 142.814 73.1618 142.724C73.2572 142.633 73.3693 142.563 73.4918 142.516C73.6143 142.47 73.7447 142.448 73.8756 142.452Z" fill="#783300"/>
<path d="M68.167 171.667C68.9221 171.667 69.496 172.092 69.496 172.608V175.16H66.8379V172.608C66.8379 172.092 67.5326 171.667 68.167 171.667Z" fill="#783300"/>
<path d="M62.0703 174.52C62.7952 174.52 63.3994 174.945 63.3994 175.461V178.012H60.7412V175.461C60.7412 174.945 61.3151 174.52 62.0703 174.52Z" fill="#783300"/>
<path d="M56.5445 176.555C56.6754 176.551 56.8058 176.573 56.9283 176.62C57.0508 176.666 57.1629 176.737 57.2583 176.827C57.3537 176.917 57.4304 177.025 57.4841 177.146C57.5379 177.266 57.5676 177.395 57.5715 177.527V180.078H55.457V177.527C55.4606 177.39 55.4921 177.255 55.5496 177.131C55.6071 177.006 55.6893 176.895 55.7913 176.804C55.8932 176.713 56.0126 176.644 56.1422 176.601C56.2717 176.558 56.4086 176.542 56.5445 176.555Z" fill="#783300"/>
<path d="M73.8775 169.57C74.1369 169.561 74.3893 169.655 74.5811 169.831C74.7729 170.007 74.8889 170.251 74.9045 170.511V173.184H72.8505V170.633C72.842 170.494 72.8625 170.354 72.9107 170.223C72.9589 170.093 73.0338 169.973 73.1304 169.873C73.2271 169.773 73.3435 169.694 73.4721 169.642C73.6008 169.59 73.7388 169.565 73.8775 169.57Z" fill="#783300"/>
<path d="M59.0821 88.6934C58.8707 90.3333 58.6895 92.034 58.5384 93.7044L57.8135 93.9777C57.9947 92.277 58.1759 90.5763 58.3572 88.9363L59.0821 88.6934Z" fill="#783300"/>
<path d="M70.2213 125.381C70.2213 123.802 70.2213 122.344 70.0703 120.613L71.49 120.097L71.6712 124.865L70.2213 125.381Z" fill="#783300"/>
<path d="M64.2743 122.709L65.9659 122.102L65.9961 126.9L64.2441 127.538L64.2743 122.709Z" fill="#783300"/>
<path d="M69.0462 101.873C69.0462 100.294 68.8348 98.8358 68.7441 97.1351L69.9826 96.71C69.9826 98.2588 70.2242 99.7469 70.3149 101.417L69.0462 101.873Z" fill="#783300"/>
<path d="M68.6507 96.0133C68.6507 94.4645 68.4393 92.9764 68.3486 91.306L69.5267 90.8809L69.8891 95.5882L68.6507 96.0133Z" fill="#783300"/>
<path d="M69.4086 107.733L69.1367 102.996L70.4054 102.54C70.4054 104.089 70.6168 105.577 70.7376 107.247L69.4086 107.733Z" fill="#783300"/>
<path d="M69.7377 113.6C69.7377 112.02 69.5564 110.563 69.4658 108.862L70.7949 108.376C70.7949 109.955 71.0063 111.413 71.097 113.083L69.7377 113.6Z" fill="#783300"/>
<path d="M57.8127 101.114C57.6616 102.724 57.5408 104.394 57.3898 106.095L56.5742 106.368L57.0273 101.388L57.8127 101.114Z" fill="#783300"/>
<path d="M58.4757 94.9199C58.2945 96.5599 58.1434 98.2302 57.9622 99.9006L57.207 100.174C57.3883 98.5035 57.5393 96.8332 57.7205 95.1629L58.4757 94.9199Z" fill="#783300"/>
<path d="M57.3 107.281C57.3 108.891 57.0885 110.531 56.9979 112.232L56.0615 112.535C56.2126 110.865 56.3334 109.225 56.4844 107.585L57.3 107.281Z" fill="#783300"/>
<path d="M55.6079 119.854L56.6349 119.489C56.6349 121.068 56.6349 122.708 56.4838 124.379L55.3662 124.774C55.4568 123.103 55.4568 121.554 55.6079 119.854Z" fill="#783300"/>
<path d="M56.9084 113.386C56.9084 114.995 56.7573 116.635 56.6667 118.306L55.6699 118.67C55.6699 117 55.8814 115.36 56.0022 113.72L56.9084 113.386Z" fill="#783300"/>
<path d="M60.2882 118.154L60.107 123.044L58.5967 123.59C58.5967 121.95 58.7477 120.311 58.8383 118.671L60.2882 118.154Z" fill="#783300"/>
<path d="M58.4784 124.774L59.9585 124.228V129.087L58.418 129.664C58.4784 128.024 58.4784 126.384 58.4784 124.774Z" fill="#783300"/>
<path d="M64.3652 109.556L64.3954 104.697L65.8453 104.181L65.8755 109.009L64.3652 109.556Z" fill="#783300"/>
<path d="M64.3945 103.543L64.4247 98.7144L65.8142 98.2285L65.8444 103.027L64.3945 103.543Z" fill="#783300"/>
<path d="M65.7539 92.2461L65.7841 97.0749L64.4248 97.5608L64.455 92.7016L65.7539 92.2461Z" fill="#783300"/>
<path d="M64.2734 121.556L64.3036 116.697L65.9348 116.12L65.965 120.949L64.2734 121.556Z" fill="#783300"/>
<path d="M69.4362 89.7561L68.2581 90.1813C68.2581 88.6021 68.0467 87.1443 67.9561 85.474L69.0737 85.0488L69.4362 89.7561Z" fill="#783300"/>
<path d="M55.1542 131.972L56.3625 131.547C56.3625 133.126 56.3625 134.736 56.3625 136.376L55.124 136.831C55.124 135.191 55.124 133.703 55.1542 131.972Z" fill="#783300"/>
<path d="M65.8735 110.167L65.9037 114.965L64.3027 115.542L64.3329 110.714L65.8735 110.167Z" fill="#783300"/>
<path d="M59.1693 112.445L60.589 111.959C60.589 113.599 60.4078 115.239 60.3474 116.879L58.8975 117.395L59.1693 112.445Z" fill="#783300"/>
<path d="M61.7385 93.7061C61.7385 95.346 61.4968 97.0163 61.4062 98.6563L60.0771 99.1422L60.4396 94.2223L61.7385 93.7061Z" fill="#783300"/>
<path d="M65.754 91.0934L64.4854 91.549L64.5156 86.7202L65.7238 86.2646L65.754 91.0934Z" fill="#783300"/>
<path d="M62.1595 87.5693L61.797 92.5196L60.5283 92.9751C60.6794 91.3352 60.8002 89.6648 60.921 88.0249L62.1595 87.5693Z" fill="#783300"/>
<path d="M61.3147 99.8398C61.3147 101.48 61.1032 103.12 61.0126 104.79L59.6533 105.276C59.6533 103.606 59.8648 101.966 59.9856 100.326L61.3147 99.8398Z" fill="#783300"/>
<path d="M60.9221 105.944L60.6502 110.895L59.2607 111.411C59.2607 109.741 59.442 108.101 59.5628 106.461L60.9221 105.944Z" fill="#783300"/>
<path d="M70.0103 119.46C70.0103 117.881 70.0103 116.423 69.7988 114.722L71.1581 114.236L71.43 118.974L70.0103 119.46Z" fill="#783300"/>
<path d="M67.5346 78.4899C67.5346 77.184 67.3836 75.9084 67.293 74.6025H68.3502L68.622 78.1254L67.5346 78.4899Z" fill="#783300"/>
<path d="M59.9561 75.24V74.6025H60.5904V74.9972L59.9561 75.24Z" fill="#783300"/>
<path d="M64.5752 79.5528L64.6054 74.724L64.9377 74.6025H65.6324L65.6626 79.158L64.5752 79.5528Z" fill="#783300"/>
<path d="M56.4544 125.532C56.4544 127.111 56.4544 128.569 56.4544 130.391L55.2764 130.817C55.2764 129.177 55.2764 127.537 55.4274 125.927L56.4544 125.532Z" fill="#783300"/>
<path d="M58.2959 135.678C58.2959 134.069 58.2959 132.429 58.2959 130.819L59.8364 130.272C59.8364 131.882 59.8364 133.492 59.8364 135.101L58.2959 135.678Z" fill="#783300"/>
<path d="M59.7745 82.4385C59.5631 84.1392 59.3818 85.8095 59.2006 87.4798L58.5059 87.7228C58.6871 86.0221 58.8985 84.3214 59.0798 82.6814L59.7745 82.4385Z" fill="#783300"/>
<path d="M73.874 130.059C73.874 128.419 73.874 126.81 73.874 125.261L74.9312 124.866C74.9312 126.445 74.9312 127.903 75.1125 129.634L73.874 130.059Z" fill="#783300"/>
<path d="M64.2118 128.692L66.0242 128.055L66.0544 132.883L64.1816 133.552L64.2118 128.692Z" fill="#783300"/>
<path d="M69.9192 77.6073C69.9192 76.6051 69.7077 75.6029 69.5869 74.5703H70.191C70.191 75.4814 70.4025 76.4229 70.5233 77.3643L69.9192 77.6073Z" fill="#783300"/>
<path d="M66.0553 134.035L66.0855 138.53L64.1523 139.259L64.1826 134.703L66.0553 134.035Z" fill="#783300"/>
<path d="M56.3625 137.531C56.3625 139.019 56.3625 140.568 56.3625 142.117L55.124 142.573C55.124 141.024 55.124 139.536 55.124 137.987L56.3625 137.531Z" fill="#783300"/>
<path d="M59.8665 136.253V140.839L58.2354 141.446C58.2354 139.897 58.2354 138.409 58.2354 136.83L59.8665 136.253Z" fill="#783300"/>
<path d="M71.8841 131.913C71.8841 133.401 71.8841 134.95 71.8841 136.377L70.2832 136.954C70.2832 135.466 70.2832 133.917 70.2832 132.46L71.8841 131.913Z" fill="#783300"/>
<path d="M75.0539 130.667C75.0539 132.125 75.0539 133.704 75.0539 135.101L73.8154 135.557C73.8154 134.008 73.8154 132.52 73.8154 131.092L75.0539 130.667Z" fill="#783300"/>
<path d="M70.2539 126.536L71.734 125.989C71.734 127.599 71.734 129.026 71.885 130.757L70.3445 131.334C70.3445 129.725 70.2841 128.115 70.2539 126.536Z" fill="#783300"/>
<path d="M61.0137 86.812C61.0137 85.172 61.2553 83.5017 61.4063 81.8617L62.5542 81.4365C62.5542 83.0765 62.3427 84.7468 62.2219 86.3868L61.0137 86.812Z" fill="#783300"/>
<path d="M65.7239 85.1109L64.5156 85.5665L64.5458 80.7073L65.6937 80.3125L65.7239 85.1109Z" fill="#783300"/>
<path d="M68.9851 83.925L67.8675 84.3502C67.8675 82.7709 67.656 81.3132 67.5654 79.6125L68.6529 79.248C68.7737 80.7969 68.8643 82.3761 68.9851 83.925Z" fill="#783300"/>
<path d="M71.1888 83.1367L70.5847 83.3797L70.041 78.7331L70.6451 78.5205C70.8264 80.0086 71.0076 81.5575 71.1888 83.1367Z" fill="#783300"/>
<path d="M62.6439 80.251L61.4961 80.6762L61.8586 75.6956L62.946 75.3008C62.8554 76.9711 62.7345 78.6111 62.6439 80.251Z" fill="#783300"/>
<path d="M60.4689 76.2109C60.2877 77.9116 60.0762 79.582 59.895 81.2523L59.2305 81.4953C59.4419 79.7642 59.6232 78.0939 59.8044 76.4539L60.4689 76.2109Z" fill="#783300"/>
<path d="M72.8771 106.371C72.8771 104.792 72.6052 103.334 72.4844 101.694L73.2093 101.421C73.3604 102.97 73.5114 104.458 73.6322 106.098L72.8771 106.371Z" fill="#783300"/>
<path d="M73.2707 112.443C73.2707 110.833 73.0593 109.254 72.9385 107.705L73.7238 107.432C73.8749 108.98 73.9957 110.469 74.1165 112.139L73.2707 112.443Z" fill="#783300"/>
<path d="M73.7539 124.104C73.7539 122.464 73.7539 120.885 73.7539 119.336L74.7205 118.972C74.7205 120.551 74.9017 122.009 74.9622 123.709L73.7539 124.104Z" fill="#783300"/>
<path d="M73.5737 118.184C73.5737 116.574 73.5737 115.147 73.3623 113.446L74.2383 113.143C74.2383 114.691 74.4497 116.18 74.5403 117.85L73.5737 118.184Z" fill="#783300"/>
<path d="M72.3974 100.66L71.9443 95.9832L72.6391 95.7402L73.0922 100.296L72.3974 100.66Z" fill="#783300"/>
<path d="M71.8231 94.8885C71.6721 93.3093 71.4909 91.8516 71.3398 90.242L72.0044 89.999C72.1554 91.5175 72.3366 93.036 72.5179 94.6456L71.8231 94.8885Z" fill="#783300"/>
<path d="M71.2186 89.117C71.0373 87.5681 70.8863 86.08 70.7051 84.4704L71.3394 84.2578C71.5206 85.7459 71.7019 87.2948 71.8529 88.874L71.2186 89.117Z" fill="#783300"/>
<path d="M64.5165 38.4622C64.5165 37.3689 64.9694 37.126 65.2412 37.126C65.513 37.126 65.8451 37.3689 65.9659 38.4622L68.1097 58.4759H65.2412H62.2217L64.5165 38.4622Z" fill="#F5AF59"/>
<path d="M62.2202 58.4741C63.1417 57.9611 64.188 57.7191 65.2397 57.7756C66.2416 57.7379 67.2344 57.9796 68.1082 58.4741C69.7026 66.2698 70.8718 74.1473 71.6109 82.0714C69.5524 81.2174 67.3456 80.7838 65.1189 80.7959C62.8918 80.7789 60.684 81.2127 58.627 82.0714C59.4111 74.1475 60.6105 66.2708 62.2202 58.4741Z" fill="#D68828"/>
<path d="M65.1199 52.1264C66.6208 52.1264 67.8375 50.1684 67.8375 47.7531C67.8375 45.3378 66.6208 43.3799 65.1199 43.3799C63.619 43.3799 62.4023 45.3378 62.4023 47.7531C62.4023 50.1684 63.619 52.1264 65.1199 52.1264Z" fill="#D68828"/>
<path d="M63.4893 47.7539C63.4893 49.2724 64.2139 50.5175 65.1198 50.5175C66.0257 50.5175 66.7503 49.2724 66.7503 47.7539C66.7503 46.2354 66.0257 44.9902 65.1198 44.9902C64.2139 44.9902 63.4893 46.2354 63.4893 47.7539Z" fill="#783300"/>
<path d="M65.1085 38.6122L68.9951 34.7031L65.1085 30.794L61.2219 34.7031L65.1085 38.6122Z" fill="#B4440D"/>
<path d="M64.2734 30.7776C64.281 31.0006 64.3725 31.2124 64.5295 31.3702C64.6865 31.528 64.8973 31.62 65.1192 31.6275C65.3382 31.6197 65.5457 31.5267 65.6978 31.3681C65.85 31.2096 65.9349 30.9978 65.9348 30.7776C65.9348 30.5602 65.8489 30.3518 65.6959 30.1981C65.543 30.0444 65.3355 29.958 65.1192 29.958C64.9 29.9579 64.6894 30.0432 64.5316 30.1961C64.3738 30.349 64.2813 30.5575 64.2734 30.7776Z" fill="#DBA97F"/>
<path d="M60.4082 34.6926C60.4081 34.9129 60.493 35.1246 60.6452 35.2831C60.7973 35.4417 61.0047 35.5347 61.2238 35.5426C61.4457 35.535 61.6565 35.443 61.8135 35.2852C61.9705 35.1275 62.062 34.9156 62.0695 34.6926C62.0617 34.4725 61.9692 34.264 61.8114 34.1112C61.6536 33.9583 61.4429 33.8729 61.2238 33.873C61.0075 33.873 60.8 33.9594 60.6471 34.1131C60.4941 34.2668 60.4082 34.4753 60.4082 34.6926Z" fill="#DBA97F"/>
<path d="M68.168 34.6926C68.1755 34.9156 68.267 35.1275 68.424 35.2852C68.581 35.443 68.7918 35.535 69.0137 35.5426C69.2328 35.5347 69.4402 35.4417 69.5924 35.2831C69.7445 35.1246 69.8295 34.9129 69.8293 34.6926C69.8293 34.4753 69.7434 34.2668 69.5904 34.1131C69.4375 33.9594 69.23 33.873 69.0137 33.873C68.7946 33.8729 68.5839 33.9583 68.4261 34.1112C68.2684 34.264 68.1758 34.4725 68.168 34.6926Z" fill="#DBA97F"/>
<path d="M66.8379 32.4751C66.8379 32.62 66.8952 32.759 66.9971 32.8615C67.0991 32.9639 67.2374 33.0215 67.3816 33.0215C67.5258 33.0215 67.6641 32.9639 67.7661 32.8615C67.868 32.759 67.9253 32.62 67.9253 32.4751C67.9253 32.3302 67.868 32.1912 67.7661 32.0887C67.6641 31.9863 67.5258 31.9287 67.3816 31.9287C67.2374 31.9287 67.0991 31.9863 66.9971 32.0887C66.8952 32.1912 66.8379 32.3302 66.8379 32.4751Z" fill="#DBA97F"/>
<path d="M65.9346 31.5649C65.9346 31.7099 65.9919 31.8488 66.0938 31.9513C66.1958 32.0538 66.3341 32.1113 66.4783 32.1113C66.6225 32.1113 66.7608 32.0538 66.8627 31.9513C66.9647 31.8488 67.022 31.7099 67.022 31.5649C67.022 31.42 66.9647 31.2811 66.8627 31.1786C66.7608 31.0761 66.6225 31.0186 66.4783 31.0186C66.4069 31.0186 66.3362 31.0327 66.2702 31.0601C66.2043 31.0876 66.1443 31.1279 66.0938 31.1786C66.0433 31.2293 66.0033 31.2896 65.976 31.3558C65.9486 31.4221 65.9346 31.4932 65.9346 31.5649Z" fill="#DBA97F"/>
<path d="M67.6846 33.478C67.6846 33.5861 67.7165 33.6917 67.7762 33.7816C67.8359 33.8714 67.9209 33.9415 68.0202 33.9828C68.1196 34.0242 68.2289 34.035 68.3344 34.0139C68.4398 33.9928 68.5367 33.9408 68.6127 33.8644C68.6888 33.788 68.7406 33.6906 68.7615 33.5846C68.7825 33.4786 68.7718 33.3688 68.7306 33.2689C68.6895 33.1691 68.6198 33.0838 68.5304 33.0237C68.4409 32.9637 68.3358 32.9316 68.2283 32.9316C68.0841 32.9316 67.9458 32.9892 67.8438 33.0917C67.7419 33.1941 67.6846 33.3331 67.6846 33.478Z" fill="#DBA97F"/>
<path d="M63.396 32.4751C63.396 32.62 63.3387 32.759 63.2368 32.8615C63.1348 32.9639 62.9965 33.0215 62.8523 33.0215C62.7081 33.0215 62.5698 32.9639 62.4678 32.8615C62.3659 32.759 62.3086 32.62 62.3086 32.4751C62.3086 32.3302 62.3659 32.1912 62.4678 32.0887C62.5698 31.9863 62.7081 31.9287 62.8523 31.9287C62.9965 31.9287 63.1348 31.9863 63.2368 32.0887C63.3387 32.1912 63.396 32.3302 63.396 32.4751Z" fill="#DBA97F"/>
<path d="M64.273 31.5649C64.273 31.673 64.2411 31.7786 64.1813 31.8685C64.1216 31.9584 64.0367 32.0284 63.9373 32.0697C63.838 32.1111 63.7287 32.1219 63.6232 32.1008C63.5177 32.0797 63.4208 32.0277 63.3448 31.9513C63.2688 31.8749 63.217 31.7775 63.196 31.6715C63.175 31.5655 63.1858 31.4557 63.2269 31.3558C63.2681 31.256 63.3378 31.1707 63.4272 31.1106C63.5166 31.0506 63.6217 31.0186 63.7293 31.0186C63.8735 31.0186 64.0118 31.0761 64.1137 31.1786C64.2157 31.2811 64.273 31.42 64.273 31.5649Z" fill="#DBA97F"/>
<path d="M62.5532 33.478C62.5454 33.6257 62.4816 33.7647 62.3748 33.8664C62.268 33.968 62.1264 34.0246 61.9793 34.0244C61.8351 34.0244 61.6968 33.9669 61.5948 33.8644C61.4928 33.7619 61.4355 33.6229 61.4355 33.478C61.4355 33.3331 61.4928 33.1941 61.5948 33.0917C61.6968 32.9892 61.8351 32.9316 61.9793 32.9316C62.1264 32.9314 62.268 32.988 62.3748 33.0897C62.4816 33.1914 62.5454 33.3304 62.5532 33.478Z" fill="#DBA97F"/>
<path d="M66.8379 36.9409C66.8379 36.8329 66.8698 36.7272 66.9295 36.6374C66.9893 36.5475 67.0742 36.4775 67.1735 36.4361C67.2729 36.3948 67.3822 36.3839 67.4877 36.405C67.5931 36.4261 67.69 36.4782 67.7661 36.5546C67.8421 36.631 67.8939 36.7283 67.9149 36.8343C67.9358 36.9403 67.9251 37.0502 67.8839 37.15C67.8428 37.2499 67.7731 37.3352 67.6837 37.3952C67.5943 37.4553 67.4891 37.4873 67.3816 37.4873C67.2374 37.4873 67.0991 37.4297 66.9971 37.3273C66.8952 37.2248 66.8379 37.0858 66.8379 36.9409Z" fill="#DBA97F"/>
<path d="M65.9346 37.8228C65.9346 37.6778 65.9919 37.5389 66.0938 37.4364C66.1958 37.3339 66.3341 37.2764 66.4783 37.2764C66.6225 37.2764 66.7608 37.3339 66.8627 37.4364C66.9647 37.5389 67.022 37.6778 67.022 37.8228C67.022 37.9677 66.9647 38.1066 66.8627 38.2091C66.7608 38.3116 66.6225 38.3691 66.4783 38.3691C66.3341 38.3691 66.1958 38.3116 66.0938 38.2091C65.9919 38.1066 65.9346 37.9677 65.9346 37.8228Z" fill="#DBA97F"/>
<path d="M67.6846 36.0601C67.6846 35.9151 67.7419 35.7762 67.8438 35.6737C67.9458 35.5712 68.0841 35.5137 68.2283 35.5137C68.3725 35.5137 68.5108 35.5712 68.6127 35.6737C68.7147 35.7762 68.772 35.9151 68.772 36.0601C68.772 36.205 68.7147 36.3439 68.6127 36.4464C68.5108 36.5489 68.3725 36.6064 68.2283 36.6064C68.0841 36.6064 67.9458 36.5489 67.8438 36.4464C67.7419 36.3439 67.6846 36.205 67.6846 36.0601Z" fill="#DBA97F"/>
<path d="M63.396 36.9409C63.396 36.8329 63.3641 36.7272 63.3044 36.6374C63.2446 36.5475 63.1597 36.4775 63.0604 36.4361C62.961 36.3948 62.8517 36.3839 62.7462 36.405C62.6408 36.4261 62.5439 36.4782 62.4678 36.5546C62.3918 36.631 62.34 36.7283 62.319 36.8343C62.2981 36.9403 62.3088 37.0502 62.35 37.15C62.3911 37.2499 62.4608 37.3352 62.5502 37.3952C62.6396 37.4553 62.7448 37.4873 62.8523 37.4873C62.9965 37.4873 63.1348 37.4297 63.2368 37.3273C63.3387 37.2248 63.396 37.0858 63.396 36.9409Z" fill="#DBA97F"/>
<path d="M64.273 37.8228C64.273 37.7147 64.2411 37.6091 64.1813 37.5192C64.1216 37.4293 64.0367 37.3593 63.9373 37.318C63.838 37.2766 63.7287 37.2658 63.6232 37.2869C63.5177 37.3079 63.4208 37.36 63.3448 37.4364C63.2688 37.5128 63.217 37.6102 63.196 37.7162C63.175 37.8221 63.1858 37.932 63.2269 38.0319C63.2681 38.1317 63.3378 38.217 63.4272 38.2771C63.5166 38.3371 63.6217 38.3691 63.7293 38.3691C63.8735 38.3691 64.0118 38.3116 64.1137 38.2091C64.2157 38.1066 64.273 37.9677 64.273 37.8228Z" fill="#DBA97F"/>
<path d="M62.5532 36.0601C62.5454 35.9124 62.4816 35.7734 62.3748 35.6717C62.268 35.57 62.1264 35.5135 61.9793 35.5137C61.8351 35.5137 61.6968 35.5712 61.5948 35.6737C61.4928 35.7762 61.4355 35.9151 61.4355 36.0601C61.4353 36.2079 61.4916 36.3502 61.5928 36.4575C61.694 36.5648 61.8323 36.629 61.9793 36.6368C62.1291 36.6294 62.2709 36.5663 62.377 36.4597C62.483 36.3531 62.5459 36.2106 62.5532 36.0601Z" fill="#DBA97F"/>
<path d="M64.8178 34.3887L64.2743 31.9287H65.1198H65.935L65.4217 34.3887L67.8675 33.8724V34.6924V35.5427L65.4217 34.9961L65.935 37.4864H65.1198H64.2743L64.8178 34.9961L62.3418 35.5427V34.6924V33.8724L64.8178 34.3887Z" fill="#DBA97F"/>
<path d="M134.96 145.975H105.007V179.047H134.96V145.975Z" fill="#D68828"/>
<path d="M134.96 145.851H105.007V123.985C109.616 121.393 114.825 120.073 120.104 120.158C125.412 119.808 130.694 121.147 135.202 123.985L134.96 145.851Z" fill="#356344"/>
<path d="M126.716 145.973L122.217 131.486H117.748L113.249 145.973H117.748L119.983 138.745L122.217 145.973H126.716Z" fill="#73886F"/>
<path d="M119.984 163.041C119.456 163.017 118.94 162.874 118.475 162.622C118.009 162.369 117.607 162.014 117.297 161.583C115.525 158.899 114.755 155.672 115.123 152.472C115.371 151.361 115.987 150.368 116.871 149.657C117.754 148.945 118.853 148.558 119.984 148.558C121.116 148.558 122.215 148.945 123.098 149.657C123.982 150.368 124.598 151.361 124.846 152.472C125.23 155.673 124.459 158.906 122.672 161.583C122.364 162.016 121.962 162.372 121.496 162.625C121.03 162.877 120.513 163.02 119.984 163.041Z" fill="#783300"/>
<path d="M123.85 152.415C123.658 151.528 123.17 150.733 122.466 150.164C121.763 149.594 120.888 149.283 119.985 149.283C119.082 149.283 118.206 149.594 117.503 150.164C116.8 150.733 116.312 151.528 116.12 152.415C115.546 155.452 117.207 162.255 119.985 162.255C122.763 162.255 124.423 155.3 123.85 152.415Z" fill="#96D5FE"/>
<path d="M197.616 239.909H42.3525L65.6934 197.573L119.984 172.426L175.936 198.332L197.616 239.909Z" fill="#D68828"/>
<path d="M119.985 163.042L52.9814 200.398V203.435L119.985 172.427L186.988 203.435V200.398L119.985 163.042Z" fill="#356344"/>
<path d="M175.484 206.442L190.31 239.91H195.715L182.882 214.004L183.546 212.911L178.594 203.405L119.985 173.429L62.8259 202.736L56.8472 213.609L57.0888 214.004L44.2559 239.91H49.6608L64.4866 206.442L69.9218 204.133L71.8543 207.292L58.659 239.91H63.4902L79.2219 203.465L84.3249 197.33L95.2253 193.686L93.9873 207.292L82.5132 239.91H87.7973L104.163 192.501L119.985 177.832L135.808 192.501L152.173 239.91H157.458L145.983 207.292L144.745 193.686L155.646 197.33L160.749 203.465L176.481 239.91H181.312L168.117 207.292L170.049 204.133L175.484 206.442Z" fill="#783300"/>
<path d="M175.483 202.614L192 239.909H197.616L182.881 210.176L186.987 203.434L119.984 172.426L52.9812 203.434L57.0878 210.176L42.3525 239.909H47.9688L64.4856 202.614L69.9207 200.276L71.8532 203.434L57.0878 239.909H61.8284L79.2209 199.608L84.3238 193.473L95.2243 189.828L93.9863 203.434L81.1534 239.909H86.4677L104.162 188.644L119.984 173.975L135.807 188.644L153.501 239.909H158.815L145.982 203.434L144.744 189.828L155.645 193.473L160.748 199.608L178.14 239.909H182.881L168.115 203.434L170.048 200.276L175.483 202.614Z" fill="#F5AF59"/>
<path d="M119.983 219.682C115.378 219.85 110.822 220.689 106.456 222.172V239.999H133.632V222.172C129.227 220.677 124.629 219.838 119.983 219.682Z" fill="#783300"/>
<path d="M164.16 221.443C162.371 221.55 160.624 222.026 159.026 222.84V239.999H169.293V222.84C167.693 222.031 165.947 221.556 164.16 221.443Z" fill="#783300"/>
<path d="M75.8383 221.443C77.6357 221.552 79.3924 222.028 81.0016 222.84V239.999H70.7051V222.84C72.3047 222.031 74.0509 221.556 75.8383 221.443Z" fill="#783300"/>
<path d="M119.983 197.118C115.402 197.26 110.857 197.985 106.456 199.274V214.733H133.632V199.274C129.192 197.975 124.606 197.25 119.983 197.118Z" fill="#783300"/>
<path d="M119.984 219.682C119.138 219.682 118.293 219.682 117.447 219.682V239.999H122.52V219.803C121.675 219.742 120.829 219.682 119.984 219.682Z" fill="#F5AF59"/>
<path d="M124.484 181.264C123.79 181.264 119.985 185.91 119.985 185.91C119.985 185.91 116.181 181.264 115.486 181.264C114.792 181.264 118.234 185.728 118.234 186.366V197.117H121.887V186.366C121.887 185.728 125.179 181.264 124.484 181.264Z" fill="#F5AF59"/>
<path d="M119.984 184.665C120.568 184.665 121.041 184.135 121.041 183.481C121.041 182.827 120.568 182.297 119.984 182.297C119.4 182.297 118.927 182.827 118.927 183.481C118.927 184.135 119.4 184.665 119.984 184.665Z" fill="#F5AF59"/>
</svg>
