<svg width="631" height="294" viewBox="0 0 631 294" fill="none" xmlns="http://www.w3.org/2000/svg">
<path d="M44.6817 106.445C44.6817 106.445 45.2136 110.536 42.6167 112.257C40.0198 113.978 38.1883 115.816 39.0508 118.826C39.9134 121.836 38.1883 123.182 36.3568 125.148C34.5253 127.114 35.6631 136.478 41.5645 137.337C47.466 138.196 55.5689 120.547 54.852 116.133C54.1351 111.719 44.6817 106.445 44.6817 106.445Z" fill="#2B478B"/>
<path d="M603.897 291.609C603.897 291.609 662.301 195.099 587.601 123.199C512.902 51.2988 448.655 91.1338 416.058 89.1358C383.462 87.1378 373.009 24.1654 276.577 5.1718C180.145 -13.8218 90.2874 21.0864 99.9974 83.7332C114.49 177.248 -66.2203 130.953 26.6737 293.381L603.897 291.609Z" fill="#EBF2F9"/>
<path d="M80.9683 197.725H143.687C145.175 197.725 146.381 198.929 146.381 200.416V281.372C146.381 282.858 145.175 284.063 143.687 284.063H80.9683C79.4804 284.063 78.2743 282.858 78.2743 281.372V200.416C78.2743 198.929 79.4804 197.725 80.9683 197.725Z" fill="#9FC1F4"/>
<path d="M146.378 287.557C146.347 284.883 148.491 282.69 151.167 282.659C153.844 282.627 156.04 284.769 156.071 287.442C156.103 290.116 153.959 292.309 151.282 292.341C148.606 292.372 146.41 290.231 146.378 287.557Z" fill="#9FC1F4"/>
<path d="M151.208 290.87C149.349 290.87 147.843 289.365 147.843 287.509C147.843 285.653 149.349 284.148 151.208 284.148C153.066 284.148 154.572 285.653 154.572 287.509C154.572 289.365 153.066 290.87 151.208 290.87Z" fill="#88ADE5"/>
<path d="M86.2728 290.933C84.38 289.042 84.38 285.977 86.2728 284.086C88.1657 282.196 91.2346 282.196 93.1274 284.086C95.0202 285.977 95.0202 289.042 93.1274 290.933C91.2346 292.824 88.1657 292.824 86.2728 290.933Z" fill="#9FC1F4"/>
<path d="M93.0635 287.509C93.0635 286.845 92.8661 286.195 92.4964 285.642C92.1267 285.089 91.6012 284.659 90.9864 284.404C90.3716 284.15 89.695 284.083 89.0423 284.213C88.3897 284.343 87.7902 284.663 87.3196 285.133C86.849 285.603 86.5286 286.202 86.3988 286.854C86.2689 287.505 86.3355 288.181 86.5902 288.795C86.8449 289.409 87.2761 289.934 87.8295 290.304C88.3828 290.673 89.0333 290.87 89.6988 290.87C90.5911 290.87 91.447 290.516 92.078 289.886C92.709 289.255 93.0635 288.401 93.0635 287.509Z" fill="#88ADE5"/>
<path d="M130.432 191.087H135.956C135.901 191.091 135.845 191.083 135.792 191.065C135.74 191.047 135.691 191.018 135.651 190.98C135.61 190.942 135.577 190.896 135.555 190.845C135.533 190.794 135.521 190.739 135.521 190.684C135.521 190.628 135.533 190.573 135.555 190.522C135.577 190.471 135.61 190.425 135.651 190.387C135.691 190.349 135.74 190.32 135.792 190.302C135.845 190.284 135.901 190.276 135.956 190.28H139.943C139.999 190.276 140.054 190.284 140.107 190.302C140.16 190.32 140.208 190.349 140.249 190.387C140.29 190.425 140.322 190.471 140.344 190.522C140.367 190.573 140.378 190.628 140.378 190.684C140.378 190.739 140.367 190.794 140.344 190.845C140.322 190.896 140.29 190.942 140.249 190.98C140.208 191.018 140.16 191.047 140.107 191.065C140.054 191.083 139.999 191.091 139.943 191.087H139.915C140.601 191.088 141.258 191.36 141.743 191.844C142.228 192.328 142.501 192.984 142.503 193.669V207.447C142.501 208.132 142.228 208.788 141.743 209.273C141.258 209.757 140.601 210.03 139.915 210.032H130.434C129.749 210.029 129.092 209.756 128.608 209.272C128.124 208.788 127.851 208.132 127.849 207.447V193.669C127.851 192.985 128.123 192.33 128.607 191.846C129.091 191.362 129.747 191.089 130.432 191.087Z" fill="#9FC1F4"/>
<path d="M117.864 187.984H121.305C121.207 187.984 121.112 187.945 121.043 187.876C120.974 187.806 120.935 187.712 120.935 187.614V187.383C120.935 187.285 120.974 187.191 121.043 187.122C121.112 187.053 121.207 187.014 121.305 187.014H123.95C124.048 187.014 124.142 187.053 124.212 187.122C124.281 187.191 124.32 187.285 124.32 187.383V187.614C124.32 187.712 124.281 187.806 124.212 187.876C124.142 187.945 124.048 187.984 123.95 187.984H123.476C124.103 187.986 124.704 188.235 125.147 188.678C125.59 189.121 125.84 189.721 125.842 190.347V208.091C125.84 208.717 125.59 209.317 125.147 209.76C124.704 210.202 124.103 210.452 123.476 210.454H117.864C117.237 210.452 116.635 210.203 116.192 209.76C115.748 209.318 115.498 208.717 115.496 208.091V190.347C115.498 189.72 115.748 189.12 116.192 188.677C116.635 188.234 117.237 187.985 117.864 187.984Z" fill="#9FC1F4"/>
<path d="M108.279 197.976H112.374L113.109 191.68H107.83L108.279 197.976Z" fill="#9FC1F4"/>
<path d="M107.793 191.41H113.098C113.146 191.41 113.186 191.449 113.186 191.498V191.593C113.186 191.641 113.146 191.68 113.098 191.68H107.793C107.744 191.68 107.705 191.641 107.705 191.593V191.498C107.705 191.449 107.744 191.41 107.793 191.41Z" fill="#AFCDFB"/>
<path d="M108.279 198.841H112.374L113.109 192.542H107.83L108.279 198.841Z" fill="#9FC1F4"/>
<path d="M107.793 192.271H113.098C113.146 192.271 113.186 192.311 113.186 192.359V192.454C113.186 192.502 113.146 192.542 113.098 192.542H107.793C107.744 192.542 107.705 192.502 107.705 192.454V192.359C107.705 192.311 107.744 192.271 107.793 192.271Z" fill="#AFCDFB"/>
<path d="M108.279 199.771H112.374L113.109 193.475H107.83L108.279 199.771Z" fill="#9FC1F4"/>
<path d="M107.793 193.204H113.098C113.146 193.204 113.186 193.243 113.186 193.292V193.387C113.186 193.435 113.146 193.474 113.098 193.474H107.793C107.744 193.474 107.705 193.435 107.705 193.387V193.292C107.705 193.243 107.744 193.204 107.793 193.204Z" fill="#AFCDFB"/>
<path d="M108.279 200.991H112.374L113.109 194.694H107.83L108.279 200.991Z" fill="#9FC1F4"/>
<path d="M107.793 194.424H113.098C113.146 194.424 113.186 194.463 113.186 194.512V194.606C113.186 194.655 113.146 194.694 113.098 194.694H107.793C107.744 194.694 107.705 194.655 107.705 194.606V194.512C107.705 194.463 107.744 194.424 107.793 194.424Z" fill="#AFCDFB"/>
<path d="M108.279 201.889H112.374L113.109 195.593H107.83L108.279 201.889Z" fill="#9FC1F4"/>
<path d="M107.793 195.32H113.098C113.146 195.32 113.186 195.36 113.186 195.408V195.503C113.186 195.551 113.146 195.591 113.098 195.591H107.793C107.744 195.591 107.705 195.551 107.705 195.503V195.408C107.705 195.36 107.744 195.32 107.793 195.32Z" fill="#AFCDFB"/>
<path d="M155.712 167.778H156.005C156.005 167.628 156.065 167.485 156.17 167.378C156.276 167.272 156.42 167.213 156.569 167.212H157.083C157.233 167.213 157.376 167.272 157.482 167.378C157.588 167.485 157.647 167.628 157.647 167.778H157.941C158.265 167.779 158.576 167.908 158.805 168.138C159.034 168.367 159.163 168.678 159.164 169.002V179.87C159.163 180.194 159.034 180.504 158.805 180.733C158.576 180.962 158.265 181.091 157.941 181.092H155.712C155.387 181.091 155.076 180.962 154.846 180.733C154.617 180.504 154.487 180.194 154.486 179.87V169.002C154.487 168.678 154.617 168.367 154.846 168.138C155.076 167.908 155.387 167.779 155.712 167.778Z" fill="#9FC1F4"/>
<path d="M150.007 167.778H150.301C150.301 167.628 150.36 167.485 150.466 167.378C150.572 167.272 150.715 167.213 150.865 167.212H151.378C151.528 167.213 151.672 167.272 151.778 167.378C151.883 167.485 151.943 167.628 151.943 167.778H152.236C152.561 167.779 152.872 167.908 153.102 168.138C153.331 168.367 153.461 168.678 153.462 169.002V179.87C153.461 180.194 153.331 180.504 153.101 180.733C152.872 180.962 152.561 181.091 152.236 181.092H150.007C149.683 181.091 149.372 180.962 149.142 180.733C148.912 180.504 148.783 180.194 148.782 179.87V169.002C148.783 168.678 148.912 168.367 149.142 168.138C149.371 167.908 149.682 167.779 150.007 167.778Z" fill="#9FC1F4"/>
<path d="M143.764 167.778H144.058C144.058 167.628 144.117 167.485 144.223 167.378C144.329 167.272 144.472 167.213 144.622 167.212H145.135C145.285 167.213 145.429 167.272 145.534 167.378C145.64 167.485 145.7 167.628 145.7 167.778H145.993C146.318 167.779 146.629 167.908 146.858 168.138C147.088 168.367 147.218 168.678 147.219 169.002V179.87C147.218 180.194 147.088 180.504 146.858 180.733C146.629 180.962 146.318 181.091 145.993 181.092H143.764C143.439 181.091 143.128 180.962 142.899 180.733C142.669 180.504 142.54 180.194 142.538 179.87V169.002C142.54 168.678 142.669 168.367 142.899 168.138C143.128 167.908 143.439 167.779 143.764 167.778Z" fill="#9FC1F4"/>
<path d="M131.031 160.435H134.472C134.374 160.434 134.28 160.395 134.212 160.326C134.143 160.257 134.104 160.163 134.104 160.065V159.834C134.104 159.737 134.143 159.643 134.212 159.574C134.28 159.505 134.374 159.465 134.472 159.465H137.117C137.215 159.465 137.309 159.504 137.379 159.573C137.448 159.642 137.487 159.736 137.487 159.834V160.065C137.487 160.163 137.448 160.257 137.379 160.327C137.309 160.396 137.215 160.435 137.117 160.435H136.643C137.27 160.437 137.871 160.686 138.314 161.129C138.757 161.572 139.007 162.172 139.009 162.798V180.542C139.008 181.168 138.758 181.769 138.315 182.212C137.871 182.655 137.27 182.905 136.643 182.907H131.031C130.403 182.905 129.802 182.655 129.359 182.212C128.916 181.769 128.666 181.168 128.665 180.542V162.798C128.667 162.172 128.917 161.572 129.36 161.129C129.803 160.686 130.404 160.437 131.031 160.435Z" fill="#9FC1F4"/>
<path d="M108.279 170.427H112.374L113.109 164.131H107.83L108.279 170.427Z" fill="#9FC1F4"/>
<path d="M107.793 163.86H113.098C113.146 163.86 113.186 163.9 113.186 163.948V164.043C113.186 164.091 113.146 164.131 113.098 164.131H107.793C107.744 164.131 107.705 164.091 107.705 164.043V163.948C107.705 163.9 107.744 163.86 107.793 163.86Z" fill="#AFCDFB"/>
<path d="M108.279 171.291H112.374L113.109 164.992H107.83L108.279 171.291Z" fill="#9FC1F4"/>
<path d="M107.793 164.722H113.098C113.146 164.722 113.186 164.761 113.186 164.809V164.904C113.186 164.953 113.146 164.992 113.098 164.992H107.793C107.744 164.992 107.705 164.953 107.705 164.904V164.809C107.705 164.761 107.744 164.722 107.793 164.722Z" fill="#AFCDFB"/>
<path d="M108.279 172.225H112.374L113.109 165.926H107.83L108.279 172.225Z" fill="#9FC1F4"/>
<path d="M107.793 165.655H113.098C113.146 165.655 113.186 165.695 113.186 165.743V165.838C113.186 165.886 113.146 165.926 113.098 165.926H107.793C107.744 165.926 107.705 165.886 107.705 165.838V165.743C107.705 165.695 107.744 165.655 107.793 165.655Z" fill="#AFCDFB"/>
<path d="M108.279 173.444H112.374L113.109 167.146H107.83L108.279 173.444Z" fill="#9FC1F4"/>
<path d="M107.793 166.875H113.098C113.146 166.875 113.186 166.914 113.186 166.963V167.057C113.186 167.106 113.146 167.145 113.098 167.145H107.793C107.744 167.145 107.705 167.106 107.705 167.057V166.963C107.705 166.914 107.744 166.875 107.793 166.875Z" fill="#AFCDFB"/>
<path d="M108.279 174.341H112.374L113.109 168.044H107.83L108.279 174.341Z" fill="#9FC1F4"/>
<path d="M107.793 167.771H113.098C113.146 167.771 113.186 167.811 113.186 167.859V167.954C113.186 168.002 113.146 168.042 113.098 168.042H107.793C107.744 168.042 107.705 168.002 107.705 167.954V167.859C107.705 167.811 107.744 167.771 107.793 167.771Z" fill="#AFCDFB"/>
<path d="M115.755 170.427H119.851L120.586 164.131H115.307L115.755 170.427Z" fill="#9FC1F4"/>
<path d="M115.27 163.86H120.574C120.623 163.86 120.662 163.9 120.662 163.948V164.043C120.662 164.091 120.623 164.131 120.574 164.131H115.27C115.221 164.131 115.182 164.091 115.182 164.043V163.948C115.182 163.9 115.221 163.86 115.27 163.86Z" fill="#AFCDFB"/>
<path d="M115.755 171.291H119.851L120.586 164.992H115.307L115.755 171.291Z" fill="#9FC1F4"/>
<path d="M115.27 164.722H120.574C120.623 164.722 120.662 164.761 120.662 164.809V164.904C120.662 164.953 120.623 164.992 120.574 164.992H115.27C115.221 164.992 115.182 164.953 115.182 164.904V164.809C115.182 164.761 115.221 164.722 115.27 164.722Z" fill="#AFCDFB"/>
<path d="M115.755 172.225H119.851L120.586 165.926H115.307L115.755 172.225Z" fill="#9FC1F4"/>
<path d="M115.27 165.655H120.574C120.623 165.655 120.662 165.695 120.662 165.743V165.838C120.662 165.886 120.623 165.926 120.574 165.926H115.27C115.221 165.926 115.182 165.886 115.182 165.838V165.743C115.182 165.695 115.221 165.655 115.27 165.655Z" fill="#AFCDFB"/>
<path d="M115.755 173.444H119.851L120.586 167.146H115.307L115.755 173.444Z" fill="#9FC1F4"/>
<path d="M115.27 166.875H120.574C120.623 166.875 120.662 166.914 120.662 166.963V167.057C120.662 167.106 120.623 167.145 120.574 167.145H115.27C115.221 167.145 115.182 167.106 115.182 167.057V166.963C115.182 166.914 115.221 166.875 115.27 166.875Z" fill="#AFCDFB"/>
<path d="M120.586 168.044L119.851 174.341H115.755L115.307 168.044H120.586Z" fill="#9FC1F4"/>
<path d="M115.27 167.771H120.574C120.623 167.771 120.662 167.811 120.662 167.859V167.954C120.662 168.002 120.623 168.042 120.574 168.042H115.27C115.221 168.042 115.182 168.002 115.182 167.954V167.859C115.182 167.811 115.221 167.771 115.27 167.771Z" fill="#AFCDFB"/>
<path d="M100.572 170.427H104.667L105.402 164.131H100.123L100.572 170.427Z" fill="#9FC1F4"/>
<path d="M100.086 163.86H105.391C105.439 163.86 105.479 163.9 105.479 163.948V164.043C105.479 164.091 105.439 164.131 105.391 164.131H100.086C100.037 164.131 99.998 164.091 99.998 164.043V163.948C99.998 163.9 100.037 163.86 100.086 163.86Z" fill="#AFCDFB"/>
<path d="M100.572 171.291H104.667L105.402 164.992H100.123L100.572 171.291Z" fill="#9FC1F4"/>
<path d="M100.086 164.722H105.391C105.439 164.722 105.479 164.761 105.479 164.809V164.904C105.479 164.953 105.439 164.992 105.391 164.992H100.086C100.037 164.992 99.998 164.953 99.998 164.904V164.809C99.998 164.761 100.037 164.722 100.086 164.722Z" fill="#AFCDFB"/>
<path d="M100.572 172.225H104.667L105.402 165.926H100.123L100.572 172.225Z" fill="#9FC1F4"/>
<path d="M100.086 165.655H105.391C105.439 165.655 105.479 165.695 105.479 165.743V165.838C105.479 165.886 105.439 165.926 105.391 165.926H100.086C100.037 165.926 99.998 165.886 99.998 165.838V165.743C99.998 165.695 100.037 165.655 100.086 165.655Z" fill="#AFCDFB"/>
<path d="M100.572 173.444H104.667L105.402 167.146H100.123L100.572 173.444Z" fill="#9FC1F4"/>
<path d="M100.086 166.875H105.391C105.439 166.875 105.479 166.914 105.479 166.963V167.057C105.479 167.106 105.439 167.145 105.391 167.145H100.086C100.037 167.145 99.998 167.106 99.998 167.057V166.963C99.998 166.914 100.037 166.875 100.086 166.875Z" fill="#AFCDFB"/>
<path d="M100.572 174.341H104.667L105.402 168.044H100.123L100.572 174.341Z" fill="#9FC1F4"/>
<path d="M100.086 167.771H105.391C105.439 167.771 105.479 167.811 105.479 167.859V167.954C105.479 168.002 105.439 168.042 105.391 168.042H100.086C100.037 168.042 99.998 168.002 99.998 167.954V167.859C99.998 167.811 100.037 167.771 100.086 167.771Z" fill="#AFCDFB"/>
<path d="M101.601 197.976H105.696L106.432 191.68H101.152L101.601 197.976Z" fill="#9FC1F4"/>
<path d="M101.115 191.41H106.42C106.468 191.41 106.508 191.449 106.508 191.498V191.593C106.508 191.641 106.468 191.68 106.42 191.68H101.115C101.067 191.68 101.027 191.641 101.027 191.593V191.498C101.027 191.449 101.067 191.41 101.115 191.41Z" fill="#AFCDFB"/>
<path d="M101.601 198.841H105.696L106.432 192.542H101.152L101.601 198.841Z" fill="#9FC1F4"/>
<path d="M101.115 192.271H106.42C106.468 192.271 106.508 192.311 106.508 192.359V192.454C106.508 192.502 106.468 192.542 106.42 192.542H101.115C101.067 192.542 101.027 192.502 101.027 192.454V192.359C101.027 192.311 101.067 192.271 101.115 192.271Z" fill="#AFCDFB"/>
<path d="M101.601 199.771H105.696L106.432 193.475H101.152L101.601 199.771Z" fill="#9FC1F4"/>
<path d="M101.115 193.204H106.42C106.468 193.204 106.508 193.243 106.508 193.292V193.387C106.508 193.435 106.468 193.474 106.42 193.474H101.115C101.067 193.474 101.027 193.435 101.027 193.387V193.292C101.027 193.243 101.067 193.204 101.115 193.204Z" fill="#AFCDFB"/>
<path d="M101.601 200.991H105.696L106.432 194.694H101.152L101.601 200.991Z" fill="#9FC1F4"/>
<path d="M101.115 194.424H106.42C106.468 194.424 106.508 194.463 106.508 194.512V194.606C106.508 194.655 106.468 194.694 106.42 194.694H101.115C101.067 194.694 101.027 194.655 101.027 194.606V194.512C101.027 194.463 101.067 194.424 101.115 194.424Z" fill="#AFCDFB"/>
<path d="M101.601 201.889H105.696L106.432 195.593H101.152L101.601 201.889Z" fill="#9FC1F4"/>
<path d="M101.115 195.32H106.42C106.468 195.32 106.508 195.36 106.508 195.408V195.503C106.508 195.551 106.468 195.591 106.42 195.591H101.115C101.067 195.591 101.027 195.551 101.027 195.503V195.408C101.027 195.36 101.067 195.32 101.115 195.32Z" fill="#AFCDFB"/>
<path d="M83.8708 182.044C84.2897 182.045 84.691 182.212 84.987 182.508C85.283 182.804 85.4496 183.205 85.4502 183.624V197.162C85.4496 197.58 85.283 197.981 84.987 198.277C84.691 198.573 84.2897 198.74 83.8708 198.742C83.4516 198.74 83.05 198.574 82.7536 198.277C82.4573 197.981 82.2902 197.58 82.289 197.162V183.631C82.2884 183.211 82.4546 182.808 82.7512 182.51C83.0478 182.213 83.4504 182.045 83.8708 182.044Z" fill="#9FC1F4"/>
<path d="M94.1167 182.044C94.5356 182.045 94.937 182.212 95.233 182.508C95.529 182.804 95.6955 183.205 95.6961 183.624V197.162C95.7042 197.374 95.6694 197.586 95.5936 197.785C95.5179 197.983 95.4028 198.165 95.2552 198.318C95.1076 198.471 94.9306 198.593 94.7348 198.676C94.539 198.759 94.3283 198.802 94.1155 198.802C93.9027 198.802 93.6921 198.759 93.4963 198.676C93.3005 198.593 93.1235 198.471 92.9759 198.318C92.8283 198.165 92.7132 197.983 92.6374 197.785C92.5617 197.586 92.5268 197.374 92.535 197.162V183.631C92.5344 183.211 92.7006 182.808 92.9972 182.51C93.2938 182.213 93.6964 182.045 94.1167 182.044Z" fill="#9FC1F4"/>
<path d="M146.456 182.044C146.874 182.045 147.276 182.212 147.572 182.508C147.868 182.804 148.034 183.205 148.035 183.624V197.162C148.043 197.374 148.008 197.586 147.933 197.785C147.857 197.983 147.742 198.165 147.594 198.318C147.446 198.471 147.269 198.593 147.074 198.676C146.878 198.759 146.667 198.802 146.454 198.802C146.242 198.802 146.031 198.759 145.835 198.676C145.639 198.593 145.462 198.471 145.315 198.318C145.167 198.165 145.052 197.983 144.976 197.785C144.901 197.586 144.866 197.374 144.874 197.162V183.631C144.873 183.211 145.039 182.808 145.336 182.51C145.633 182.213 146.035 182.045 146.456 182.044Z" fill="#9FC1F4"/>
<path d="M156.693 182.044C157.112 182.046 157.513 182.213 157.809 182.509C158.105 182.805 158.271 183.206 158.272 183.624V197.162C158.271 197.58 158.105 197.981 157.809 198.277C157.513 198.573 157.112 198.74 156.693 198.742C156.274 198.74 155.872 198.574 155.576 198.277C155.28 197.981 155.113 197.58 155.111 197.162V183.631C155.111 183.211 155.277 182.808 155.573 182.51C155.87 182.213 156.273 182.045 156.693 182.044Z" fill="#9FC1F4"/>
<path d="M79.3195 171.817H145.336C145.913 171.817 146.381 172.285 146.381 172.861V183.791C146.381 184.368 145.913 184.835 145.336 184.835H79.3195C78.7422 184.835 78.2743 184.368 78.2743 183.791V172.861C78.2743 172.285 78.7422 171.817 79.3195 171.817Z" fill="#9FC1F4"/>
<path d="M97.8888 171.817H163.905C164.482 171.817 164.95 172.285 164.95 172.861V183.791C164.95 184.368 164.482 184.835 163.905 184.835H97.8888C97.3115 184.835 96.8436 184.368 96.8436 183.791V172.861C96.8436 172.285 97.3115 171.817 97.8888 171.817Z" fill="#AFCDFB"/>
<path d="M99.5376 197.725H162.256C163.744 197.725 164.95 198.929 164.95 200.416V281.372C164.95 282.858 163.744 284.063 162.256 284.063H99.5376C98.0497 284.063 96.8436 282.858 96.8436 281.372V200.416C96.8436 198.929 98.0497 197.725 99.5376 197.725Z" fill="#AFCDFB"/>
<path d="M54.5025 123.247C54.5025 123.247 47.0055 123.697 45.5579 131.366C44.1102 139.035 56.7271 161.65 58.0452 163.048C59.3633 164.445 73.1086 174.777 82.0948 173.576C82.0948 173.576 85.5843 173.774 84.8836 171.67C84.8836 171.67 66.71 158.927 65.1629 157.185C63.6159 155.444 59.0811 132.992 58.1769 130.133C57.2728 127.273 54.5025 123.247 54.5025 123.247Z" fill="#A53934"/>
<path d="M51.4713 124.566L56.6582 136.692L66.7451 136.101C66.7451 136.101 61.4473 126.778 61.3525 125.82C61.2785 125.078 61.3663 123.224 61.475 121.5C61.5698 120.011 61.6855 118.618 61.7248 118.144C61.7248 118.117 61.7248 118.091 61.7248 118.068C61.7502 117.775 61.778 117.541 61.7988 117.375C61.8196 117.209 61.8358 117.128 61.8358 117.128L61.7248 117.093L52.7686 114.368L52.5374 114.301C52.4056 117.213 52.2344 119.382 52.0564 120.974C51.9511 122.184 51.7555 123.385 51.4713 124.566Z" fill="#FFB07B"/>
<path d="M65.2344 102.905C65.2344 102.905 64.2054 88.2512 45.1529 93.7994C40.8309 95.0582 41.3929 108.097 51.8591 113.061L65.2344 102.905Z" fill="#2B478B"/>
<path d="M40.4769 189.83C41.7603 198.746 50.365 221.923 50.1129 229.933C49.9164 236.246 50.0204 250.83 50.8552 260.517C51.0153 262.712 51.2971 264.896 51.6993 267.059C52.4392 270.632 53.3874 274.746 53.8984 277.34C55.0361 283.163 54.4419 286.558 55.3692 289.683C56.3913 293.1 68.1247 292.476 64.589 290.402C63.3264 289.663 61.4926 288.092 60.5838 286.059C57.2885 278.684 61.9088 246.88 63.2847 234.62C63.4628 233.088 63.5877 231.871 63.6409 231.037C64.0987 223.463 69.3018 173.005 69.3018 173.005C56.6641 165.993 39.2051 180.912 40.4769 189.83Z" fill="#FFB07B"/>
<path d="M40.4771 189.83C41.7606 198.745 50.3652 221.922 50.1132 229.933C49.9166 236.245 50.0207 250.829 50.8555 260.517L63.2896 234.619C63.4677 233.088 63.5925 231.871 63.6457 231.037C64.1082 223.463 69.4385 172.993 69.4385 172.993C56.7939 165.974 39.2053 180.911 40.4771 189.83Z" fill="#EA8E50"/>
<path d="M67.8984 174.652C67.8984 174.652 57.0437 224.493 55.8112 231.977C54.5786 239.46 44.6905 274.694 46.8458 283.525C48.1176 288.731 50.333 290.274 50.333 290.274C50.8556 291.228 42.2694 293.124 41.5757 289.47C40.6946 284.83 40.5096 278.316 39.2192 267.275C36.9993 248.263 41.4045 237.444 42.4706 229.5C43.5366 221.557 38.8862 196.299 41.4693 187.667C45.9878 172.564 56.0517 166.371 67.8984 174.652Z" fill="#FFB07B"/>
<path d="M38.9301 220.454C38.9301 220.454 41.7559 220.89 45.9183 221.181L48.1799 212.12L48.9731 221.359C55.6585 221.629 64.3857 221.297 70.8213 218.64L69.4338 173.003C69.4338 173.003 60.1146 175.461 48.9038 171.155C48.9038 171.158 34.3237 182.52 38.9301 220.454Z" fill="#B64C41"/>
<path d="M37.3714 282.666C37.9079 285.715 38.0004 291.298 38.012 292.34H38.9369L39.0086 285.262C39.0757 285.346 39.1382 285.419 39.1937 285.493C40.0516 286.445 41.1846 291.231 41.9894 292.358H52.0162C52.1003 292.202 52.1378 292.026 52.1243 291.849C52.1107 291.673 52.0467 291.504 51.9399 291.363C51.4774 290.63 50.3211 290.069 50.3211 290.069C50.3211 290.069 47.0629 290.573 43.8232 289.76C42.4635 289.418 40.2319 277.252 40.2319 277.252C40.2319 277.252 36.9575 279.305 36.6014 280.197C36.4326 280.606 36.8234 281.62 37.3714 282.666Z" fill="#AA413E"/>
<path d="M51.4103 283.229C51.778 285.749 51.9029 289.466 51.9445 291.344C51.9445 291.806 51.9584 292.147 51.9607 292.339H52.8857L52.969 285.514C53.82 286.539 54.9392 291.224 55.744 292.339H65.7708C66.4183 291.184 64.0711 290.05 64.0711 290.05C64.0711 290.05 60.8129 290.554 57.5731 289.741C56.2134 289.399 53.9148 277.337 53.9148 277.337C53.9148 277.337 50.7074 279.286 50.3513 280.178C50.1316 280.684 50.7097 282.003 51.4103 283.229Z" fill="#AA413E"/>
<path d="M53.5563 116.135C54.5576 117.809 56.8932 120.627 61.4742 121.5C61.569 120.011 61.6847 118.618 61.724 118.144C61.724 118.117 61.724 118.091 61.724 118.068C61.7494 117.775 61.7772 117.541 61.798 117.375C61.8188 117.209 61.835 117.128 61.835 117.128L61.724 117.093L53.5563 116.135Z" fill="#EA8E50"/>
<path d="M64.2652 117.768C64.2652 117.768 53.1469 119.997 51.8634 113.061C50.58 106.125 48.2791 101.743 55.3322 100.02C62.3852 98.2967 64.2513 100.694 65.2434 102.905C66.2354 105.115 67.1258 117.008 64.2652 117.768Z" fill="#FFB07B"/>
<path d="M61.3519 99.9989C61.3519 99.9989 65.9329 100.56 66.2081 105.843C66.2081 105.843 68.2129 97.4696 60.9541 97.6383C53.6953 97.8069 61.3519 99.9989 61.3519 99.9989Z" fill="#2B478B"/>
<path d="M60.4914 98.4814C60.4914 98.4814 63.6364 102.408 57.8991 106.011C52.1619 109.615 52.0324 114.112 53.5563 116.135C53.5563 116.135 42.7108 107.698 48.0064 101.066C53.3019 94.4346 60.4914 98.4814 60.4914 98.4814Z" fill="#2B478B"/>
<path d="M42.337 178.318C42.337 178.318 51.6956 182.178 58.3254 182.037C64.9553 181.896 66.1878 179.309 66.1878 179.309C67.3255 180.464 70.8127 179.309 70.8127 179.309C70.8127 179.309 70.9237 174.172 70.9746 168.901C70.9746 167.924 70.9885 166.94 70.9908 165.984C71.0047 163.505 70.9908 161.209 70.933 159.657C70.9227 159.078 70.8826 158.5 70.8127 157.925C70.3988 155.342 72.7205 144.976 70.9954 139.589C70.3364 137.534 62.2427 127.28 61.5883 126.493C63.5955 130.586 65.2258 134.96 65.2258 134.96C62.0994 134.244 51.7187 123.397 51.7187 123.397L44.9062 131.713L43.6181 133.283C43.6181 133.283 44.9317 155.633 45.2184 159.793C45.5052 163.953 42.337 178.318 42.337 178.318Z" fill="#B64C41"/>
<path d="M42.336 178.318C42.336 178.318 51.6946 182.177 58.3244 182.036C64.9543 181.896 66.1868 179.309 66.1868 179.309C67.3246 180.464 70.8118 179.309 70.8118 179.309C70.8118 179.309 70.9228 174.172 70.9736 168.901C67.4309 166.963 62.6487 165.216 60.5005 163.851C58.0446 162.292 49.3104 142.139 44.9052 131.708L43.6171 133.279C43.6171 133.279 44.9306 155.628 45.2174 159.788C45.5041 163.948 42.336 178.318 42.336 178.318Z" fill="#A53934"/>
<path d="M49.6467 131.722C49.7207 132.059 54.5792 153.773 54.933 154.247C55.2869 154.72 70.1953 164.858 70.1953 164.858L49.6467 131.722Z" fill="#A53934"/>
<path d="M81.6416 171.511C81.6416 171.511 86.6133 171.479 87.1429 172.366C87.6724 173.252 86.8168 176.403 84.0187 176.475C81.2206 176.546 78.2816 173.98 78.2816 173.98L81.6416 171.511Z" fill="#FFB07B"/>
<path d="M51.7274 123.406C49.6485 124.231 47.8144 125.571 46.3982 127.3C44.982 129.03 44.0306 131.091 43.6338 133.29C42.1862 140.959 54.8007 163.574 56.1211 164.971C57.4415 166.369 71.1822 176.701 80.1708 175.5C80.1708 175.5 83.5123 173.208 82.8116 171.111C82.8116 171.111 64.7883 160.858 63.2389 159.116C61.6896 157.374 57.1571 134.923 56.253 132.063C55.3488 129.204 51.7274 123.406 51.7274 123.406Z" fill="#B64C41"/>
<path d="M357.251 103.496H386.031C398.415 103.496 408.453 113.523 408.453 125.892V191.338C408.453 203.707 398.415 213.734 386.031 213.734H357.251C344.867 213.734 334.829 203.707 334.829 191.338V125.892C334.829 113.523 344.867 103.496 357.251 103.496Z" fill="#DAE6EF"/>
<path d="M217.192 103.496H245.973C258.356 103.496 268.395 113.523 268.395 125.892V191.338C268.395 203.707 258.356 213.734 245.973 213.734H217.192C204.809 213.734 194.77 203.707 194.77 191.338V125.892C194.77 113.523 204.809 103.496 217.192 103.496Z" fill="#DAE6EF"/>
<path d="M489.274 103.496H518.055C530.438 103.496 540.477 113.523 540.477 125.892V191.338C540.477 203.707 530.438 213.734 518.055 213.734H489.274C476.891 213.734 466.852 203.707 466.852 191.338V125.892C466.852 113.523 476.891 103.496 489.274 103.496Z" fill="#DAE6EF"/>
<path d="M482.036 142.054V175.659C482.036 182.893 487.669 188.811 494.555 188.811H510.655C517.541 188.811 523.177 182.893 523.177 175.659V142.054C523.186 138.595 521.861 135.265 519.477 132.757C518.347 131.547 516.982 130.58 515.465 129.915C513.948 129.249 512.311 128.9 510.655 128.888H494.565C492.907 128.897 491.269 129.244 489.75 129.907C488.232 130.569 486.864 131.534 485.731 132.743C483.346 135.256 482.022 138.591 482.036 142.054Z" fill="#95BEF9"/>
<path d="M485.722 144.363V173.342C485.731 176.162 486.856 178.864 488.852 180.857C490.848 182.851 493.553 183.975 496.376 183.984H508.835C511.658 183.975 514.363 182.851 516.36 180.858C518.356 178.864 519.482 176.162 519.491 173.342V144.363C519.478 141.546 518.351 138.848 516.355 136.858C514.359 134.868 511.656 133.746 508.835 133.738H496.376C493.556 133.746 490.853 134.868 488.857 136.858C486.861 138.848 485.734 141.546 485.722 144.363Z" fill="#B6D7FF"/>
<path d="M485.721 132.752C487.34 139.702 494.278 144.925 502.602 144.925C510.927 144.925 517.865 139.702 519.483 132.752C518.352 131.542 516.986 130.575 515.468 129.911C513.95 129.247 512.312 128.898 510.654 128.888H494.564C492.905 128.897 491.264 129.245 489.744 129.909C488.223 130.574 486.855 131.541 485.721 132.752Z" fill="#95BEF9"/>
<path d="M485.722 163.17V173.333C485.731 176.153 486.856 178.854 488.852 180.848C490.848 182.842 493.553 183.966 496.376 183.974H508.835C511.658 183.966 514.363 182.842 516.36 180.848C518.356 178.855 519.482 176.153 519.491 173.333V163.343C515.028 163.299 510.151 163.343 506.662 163.634C498.411 164.327 495.58 163.634 490.65 163.329C488.812 163.216 487.205 163.156 485.722 163.17Z" fill="#C3E0FF"/>
<path d="M485.722 164.276V173.342C485.731 176.162 486.856 178.864 488.852 180.858C490.848 182.851 493.553 183.975 496.376 183.984H508.835C511.568 183.974 514.193 182.919 516.171 181.036C518.149 179.154 519.331 176.586 519.472 173.86C519.472 173.689 519.486 173.516 519.486 173.342V165.697C516.402 165.136 513.256 164.988 510.132 165.256C501.745 165.935 496.026 163.782 492.37 164.429C489.896 164.865 488.016 164.459 485.722 164.276Z" fill="#D5EAFF"/>
<path d="M485.722 173.236V173.333C485.731 176.153 486.856 178.854 488.852 180.848C490.848 182.842 493.553 183.966 496.376 183.974H508.835C511.568 183.964 514.193 182.91 516.171 181.027C518.149 179.144 519.331 176.576 519.473 173.85C517.149 173.229 513.282 172.388 510.584 172.816C506.488 173.462 502.823 173.338 497.759 172.7C492.694 172.063 491.48 172.07 488.599 172.7C487.628 172.922 486.663 173.093 485.722 173.236Z" fill="#E2F1FF"/>
<path d="M351.802 142.054V175.659C351.802 182.893 357.435 188.811 364.322 188.811H380.421C387.308 188.811 392.943 182.893 392.943 175.659V142.054C392.953 138.595 391.628 135.265 389.243 132.757C388.113 131.547 386.748 130.58 385.231 129.915C383.714 129.249 382.078 128.9 380.421 128.888H364.322C362.664 128.897 361.026 129.243 359.506 129.906C357.987 130.569 356.619 131.534 355.486 132.743C353.105 135.258 351.786 138.592 351.802 142.054Z" fill="#95BEF9"/>
<path d="M366.14 133.727H378.601C384.485 133.727 389.255 138.491 389.255 144.368V173.34C389.255 179.217 384.485 183.981 378.601 183.981H366.14C360.256 183.981 355.486 179.217 355.486 173.34V144.368C355.486 138.491 360.256 133.727 366.14 133.727Z" fill="#B6D7FF"/>
<path d="M355.486 164.445V173.509C355.494 176.329 356.62 179.03 358.616 181.024C360.612 183.018 363.317 184.142 366.139 184.15H378.599C381.331 184.14 383.956 183.086 385.934 181.204C387.912 179.321 389.094 176.754 389.236 174.029C389.236 173.856 389.236 173.685 389.236 173.509V165.866C386.152 165.303 383.006 165.155 379.882 165.425C371.497 166.104 365.776 163.951 362.12 164.598C359.662 165.034 357.78 164.621 355.486 164.445Z" fill="#D5EAFF"/>
<path d="M355.486 173.412V173.509C355.494 176.328 356.62 179.03 358.616 181.024C360.612 183.018 363.317 184.141 366.139 184.15H378.599C381.331 184.14 383.956 183.086 385.934 181.203C387.912 179.321 389.094 176.754 389.236 174.028C386.91 173.407 383.044 172.566 380.345 172.994C376.25 173.638 372.587 173.516 367.522 172.876C362.458 172.236 361.244 172.245 358.36 172.876C357.403 173.091 356.429 173.259 355.486 173.412Z" fill="#E2F1FF"/>
<path d="M354.688 156.947V136.344C354.694 135.652 354.972 134.991 355.462 134.503C355.953 134.016 356.616 133.741 357.308 133.738H387.498C388.191 133.741 388.856 134.017 389.347 134.508C389.837 134.998 390.113 135.662 390.115 136.355V158.663C390.115 166.979 380.063 171.598 372.365 171.598C364.667 171.598 354.223 164.985 354.688 156.947Z" fill="#95BEF9"/>
<path d="M211.056 142.053V175.659C211.056 182.893 216.689 188.811 223.576 188.811H239.675C246.562 188.811 252.197 182.893 252.197 175.659V142.053C252.21 138.596 250.889 135.267 248.509 132.756C247.376 131.548 246.009 130.582 244.49 129.92C242.971 129.257 241.333 128.91 239.675 128.901H223.576C221.918 128.911 220.28 129.257 218.761 129.92C217.243 130.583 215.875 131.548 214.742 132.756C212.364 135.268 211.044 138.597 211.056 142.053Z" fill="#95BEF9"/>
<path d="M214.733 144.363V173.342C214.741 176.163 215.868 178.866 217.865 180.86C219.863 182.854 222.569 183.977 225.393 183.984H237.853C240.676 183.975 243.381 182.851 245.378 180.858C247.374 178.864 248.5 176.162 248.509 173.342V144.363C248.496 141.545 247.368 138.846 245.37 136.855C243.372 134.865 240.668 133.744 237.846 133.738H225.393C222.572 133.744 219.867 134.865 217.87 136.856C215.873 138.846 214.745 141.545 214.733 144.363Z" fill="#B6D7FF"/>
<path d="M214.733 132.753C216.352 139.703 223.289 144.925 231.614 144.925C239.939 144.925 246.876 139.703 248.495 132.753C247.362 131.544 245.995 130.579 244.476 129.916C242.957 129.253 241.319 128.906 239.661 128.897H223.562C221.905 128.907 220.268 129.254 218.75 129.917C217.232 130.58 215.865 131.545 214.733 132.753Z" fill="#95BEF9"/>
<path d="M214.733 163.17V173.333C214.739 176.156 215.864 178.861 217.862 180.857C219.86 182.853 222.568 183.977 225.393 183.984H237.853C240.676 183.975 243.381 182.851 245.378 180.858C247.374 178.864 248.5 176.162 248.509 173.342V163.343C244.043 163.299 239.169 163.343 235.679 163.634C227.428 164.327 224.598 163.634 219.668 163.329C217.82 163.216 216.215 163.156 214.733 163.17Z" fill="#C3E0FF"/>
<path d="M214.734 164.276V173.342C214.742 176.163 215.868 178.866 217.866 180.86C219.863 182.854 222.57 183.977 225.394 183.984H237.854C240.586 183.974 243.211 182.919 245.189 181.036C247.168 179.154 248.349 176.586 248.491 173.86C248.491 173.689 248.505 173.516 248.505 173.342V165.697C245.42 165.137 242.275 164.988 239.151 165.256C230.764 165.935 225.045 163.782 221.389 164.429C218.908 164.865 217.025 164.459 214.734 164.276Z" fill="#D5EAFF"/>
<path d="M214.733 173.236V173.333C214.739 176.155 215.864 178.86 217.862 180.856C219.86 182.852 222.568 183.976 225.393 183.983H237.853C240.585 183.973 243.21 182.919 245.189 181.036C247.167 179.153 248.348 176.585 248.49 173.859C246.164 173.238 242.297 172.397 239.601 172.824C235.506 173.471 231.84 173.346 226.776 172.709C221.712 172.071 220.498 172.078 217.617 172.709C216.648 172.921 215.681 173.092 214.733 173.236Z" fill="#E2F1FF"/>
<path d="M9.02332 292.351H630.295C630.684 292.351 631 292.666 631 293.055V293.295C631 293.684 630.684 294 630.295 294H9.02332C8.63379 294 8.31799 293.684 8.31799 293.295V293.055C8.31799 292.666 8.63379 292.351 9.02332 292.351Z" fill="#2E3552"/>
<path d="M214.92 242.395C214.92 242.395 216.752 270.369 213.995 282.186C213.995 282.186 205.807 283.833 201.929 282.856L200.902 254.274L214.92 242.395Z" fill="#2C3A64"/>
<path d="M186.417 279.104C186.417 279.104 182.331 284.135 180.754 284.795C179.177 285.456 175.155 287.484 172.568 288.048C169.98 288.611 167.908 290.205 167.579 292.351H195.701C195.701 292.351 196.707 288.777 195.701 286.04C194.696 283.303 198.396 274.561 198.396 274.561L186.417 279.104Z" fill="#2C3A64"/>
<path d="M205.005 278.563C205.005 278.563 201.46 284.137 199.883 284.8C198.305 285.463 194.284 287.488 191.699 288.052C189.113 288.616 187.037 290.209 186.708 292.355H214.83C214.83 292.355 215.836 288.782 214.83 286.045C213.824 283.308 213.674 272.329 213.674 272.329L205.005 278.563Z" fill="#2C3A64"/>
<path d="M277.609 166.168C283.999 170.148 296.935 165.833 296.935 165.833C296.935 165.833 293.582 161.645 293.794 154.845C293.857 153.022 294.152 151.214 294.673 149.466L289.417 151.85L283.767 154.411C283.404 156.035 283.13 157.677 282.947 159.331C282.847 160.146 282.748 161.059 282.669 162.054C279.258 162.927 277.609 166.168 277.609 166.168Z" fill="#FFB07B"/>
<path d="M282.946 159.331C292.111 159.125 294.106 151.397 294.673 149.466L289.417 151.85L283.767 154.411C283.404 156.035 283.13 157.677 282.946 159.331Z" fill="#EA8E50"/>
<path d="M282.673 156.4C282.673 156.4 294.698 156.534 294.666 149.052C294.633 141.571 296.164 136.549 288.484 136.147C280.805 135.745 279.327 138.607 278.73 141.107C278.134 143.606 279.544 156.173 282.673 156.4Z" fill="#FFB07B"/>
<path d="M274.696 137.154C274.059 135.906 273.592 134.579 273.308 133.207C273.308 133.207 275.269 134.932 278.858 131.985C282.447 129.038 288.947 125.481 293.991 128.4C294.312 128.585 294.624 128.79 294.93 129.008C294.62 127.795 293.699 126.296 293.699 126.296C295.727 127.654 296.641 130.488 296.641 130.488C296.699 130.548 296.757 130.611 296.812 130.673C298.149 130.793 300.399 132.502 300.399 132.502C299.705 132.066 298.817 132.096 298.086 132.234C300.466 135.591 301.407 139.838 299.705 142.497C297.203 146.387 296.467 145.269 294.576 150.08C294.576 150.08 292.807 149.57 292.899 148.332C292.992 147.093 294.624 144.239 292.458 144.044C290.291 143.85 290.693 145.495 289.639 145.056C288.584 144.617 289.486 140.571 284.75 140.681C280.014 140.792 275.766 139.282 274.696 137.154Z" fill="#233862"/>
<path d="M229.505 214.12C232.104 208.935 237.062 210.94 237.062 210.94L239.375 210.443L254.174 200.049C255.696 198.979 273.881 178.648 273.881 178.648L291.067 182.266C291.067 182.266 264.153 206.034 260.24 208.667C253.765 213.021 237.939 215.749 237.939 215.749C236.852 216.409 235.36 216.721 233.815 216.566C231.39 216.319 232.035 216.624 230.312 216.488C228.589 216.352 229.505 214.12 229.505 214.12Z" fill="#DD8E58"/>
<path d="M234.896 200.007H235.92C236.433 200.007 236.85 200.423 236.85 200.935V201.582C236.85 202.095 236.433 202.511 235.92 202.511H234.896C234.382 202.511 233.966 202.095 233.966 201.582V200.935C233.966 200.423 234.382 200.007 234.896 200.007Z" fill="#739CF3"/>
<path d="M231.584 202.889V215.101C231.585 215.499 231.744 215.881 232.026 216.162C232.308 216.444 232.691 216.602 233.089 216.602H237.728C238.127 216.601 238.509 216.442 238.791 216.161C239.073 215.879 239.232 215.497 239.233 215.099V202.891C239.233 202.493 239.075 202.111 238.793 201.829C238.511 201.547 238.129 201.388 237.73 201.388H233.092C232.692 201.388 232.31 201.546 232.027 201.827C231.744 202.109 231.585 202.49 231.584 202.889Z" fill="#B2CBFD"/>
<path d="M231.584 203.384V215.101C231.585 215.5 231.744 215.881 232.026 216.163C232.308 216.444 232.691 216.602 233.089 216.603H237.728C238.127 216.602 238.509 216.443 238.791 216.161C239.073 215.879 239.232 215.498 239.233 215.099V203.626C238.54 203.601 236.965 203.594 235.943 203.977C234.921 204.361 232.68 203.726 231.584 203.384Z" fill="#739CF3"/>
<path d="M231.579 204.479H239.231V212.136H231.579V204.479Z" fill="#415DA5"/>
<path d="M287.014 224.745L256.966 221.37C256.966 221.37 219.446 221.342 211.047 225.874C200.609 231.506 184.311 281.76 184.311 281.76C184.311 281.76 187.953 285.435 194.985 283.506C198.863 282.442 217.106 253.978 219.888 243.644C221.333 238.278 269.331 249.303 278.594 245.427C287.858 241.551 287.014 224.745 287.014 224.745Z" fill="#35488B"/>
<path d="M256.357 220.959C256.504 221.163 256.72 221.308 256.966 221.366C258.693 221.738 262.64 223.371 266.972 224.525C270.607 225.541 274.378 225.986 278.15 225.847C281.13 225.721 284.094 225.351 287.014 224.743C287.707 224.606 289.326 224.17 289.451 223.463C289.606 222.691 289.784 221.567 290.013 220.148C290.802 215.212 292.147 206.721 294.941 197.212C295.334 195.858 295.699 194.503 296.032 193.161C296.134 192.747 296.234 192.331 296.331 191.92C297.027 188.98 297.573 186.007 297.966 183.011C299.184 173.603 298.447 165.588 295.137 161.689C294.767 161.267 291.727 161.973 288.931 162.632C286.573 163.187 284.095 162.923 281.908 161.883L279.267 163.315C276.03 165.175 272.33 167.868 269.876 172.684C267.795 176.786 265.346 184.483 263.119 192.528C262.111 196.175 261.126 199.857 260.282 203.384L260.252 203.511C260.141 203.85 260.053 204.234 259.969 204.583C257.756 213.593 256.228 220.795 256.357 220.959Z" fill="#EE9849"/>
<path d="M266.972 224.526C270.607 225.541 274.378 225.987 278.15 225.847C281.13 225.721 284.095 225.352 287.014 224.743C287.708 224.607 289.326 224.17 289.451 223.463C289.606 222.692 289.784 221.567 290.013 220.149C290.802 215.213 292.148 206.722 294.941 197.212C295.334 195.859 295.7 194.503 296.033 193.161C296.134 192.748 296.234 192.332 296.331 191.921C297.027 188.981 297.573 186.007 297.966 183.012C289.812 187.493 272.649 199.619 266.972 224.526Z" fill="#E2751B"/>
<path d="M235.328 182.438L246.84 196.794L234.357 197.725L224.506 184.376L235.328 182.438Z" fill="#B64C41"/>
<path d="M227.568 178.133L224.506 184.376L233.127 182.833L227.568 178.133Z" fill="#AA413E"/>
<path d="M225.322 183.651L228.483 178.133L233.8 182.713L225.322 183.651Z" fill="#D7E6FF"/>
<path d="M234.468 182.593L234.248 181.847L225.322 183.651L224.954 184.295L234.468 182.593Z" fill="#B2CBFD"/>
<path d="M234.248 181.847L234.842 182.526L234.375 182.609L234.248 181.847Z" fill="#739CF3"/>
<path d="M229.094 188.724C230.174 188.223 234.304 190.609 236.341 190.664C238.378 190.719 239.963 193.875 239.963 193.875C239.963 193.875 263.353 204.269 263.732 201.663C263.913 200.437 265.876 193.847 268.14 186.998C270.66 179.376 273.553 171.421 274.763 170.199C277.061 167.889 294.437 165.859 294.678 173.906C294.678 173.906 290.111 184.855 284.669 195.72V195.734C279.392 206.283 273.292 216.753 269.759 217.047C262.59 217.645 241.1 199.917 241.1 199.917C238.804 199.259 236.383 198.658 235.187 198.658C232.535 198.644 228.007 189.227 229.094 188.724Z" fill="#FFB07B"/>
<path d="M268.133 186.998C268.133 186.998 274.275 193.678 284.658 195.724V195.71C290.099 184.854 294.666 173.896 294.666 173.896C294.435 165.849 277.05 167.87 274.751 170.189C273.542 171.411 270.649 179.359 268.128 186.988L268.133 186.998Z" fill="#EE9849"/>
<path d="M425.422 136.552C425.538 136.103 426.969 131.313 434.441 132.703C434.441 132.703 430.695 132.329 429.707 133.791C429.707 133.791 432.632 132.362 434.515 133.447C436.397 134.533 436.799 138.337 436.554 139.504C436.309 140.67 434.351 144.179 432.993 144.213C432.457 144.204 431.929 144.088 431.439 143.871C431.678 144.525 431.879 145.192 432.04 145.869C433.659 152.598 429.284 157.855 426.921 156.645C425.406 155.869 423.829 158.938 423.829 158.938L411.547 142.416C411.547 142.416 419.912 131.828 425.422 136.552Z" fill="#2C3A64"/>
<path d="M350.991 278.795C350.991 278.795 344.814 285.23 343.281 286.81C341.748 288.39 336.001 287.692 334.422 292.354H350.084C350.084 292.354 353.962 289.399 359.998 289.545C359.998 289.545 361.154 285.094 359.998 283.373C358.842 281.652 358.425 278.802 358.425 278.802L350.991 278.795Z" fill="#233862"/>
<path d="M359.998 289.542L359.207 292.351H353.676V289.971C353.676 289.971 356.765 288.957 359.998 289.542Z" fill="#233862"/>
<path d="M360.508 233.245C360.508 233.245 360.797 262.483 358.427 278.799H350.993L345.748 247.991L360.508 233.245Z" fill="#233862"/>
<path d="M328.978 278.795H336.415C336.771 278.425 359.562 254.828 363.119 240.004C364.681 239.884 366.248 239.857 367.813 239.923C368.558 239.957 369.342 240.015 370.126 240.112C373.574 240.544 418.761 242.191 421.132 239.826C423.502 237.461 422.554 223.821 422.554 223.821L418.112 221.47L413.417 218.984C413.417 218.984 361.304 219.804 355.872 223.893C350.44 227.981 337.707 255.221 328.978 278.795Z" fill="#365DA4"/>
<path d="M328.978 278.795C328.978 278.795 322.801 285.23 321.27 286.81C319.74 288.39 313.991 287.692 312.409 292.354H328.067C328.067 292.354 331.947 289.399 337.98 289.545C337.98 289.545 339.136 285.094 337.98 283.373C336.824 281.652 336.41 278.802 336.41 278.802L328.978 278.795Z" fill="#35488B"/>
<path d="M337.985 289.542L337.197 292.351H331.663V289.971C331.663 289.971 334.753 288.957 337.985 289.542Z" fill="#35488B"/>
<path d="M367.818 239.923C368.563 239.957 369.346 240.015 370.13 240.112C373.578 240.544 418.766 242.191 421.136 239.826C423.507 237.461 422.554 223.821 422.554 223.821L418.112 221.47L410.647 224.632C410.647 224.632 411.752 238.71 367.818 239.923Z" fill="#2D427C"/>
<path d="M367.248 201.532C368.219 198.63 370.899 198.51 370.899 198.51C370.899 198.51 373.473 198.323 375.325 198.866C377.177 199.409 380.257 198.335 380.257 198.335C380.257 198.335 391.551 194.408 394.192 192.77C399.858 189.25 410.102 166.42 413.592 169.21C413.592 169.21 418.099 173.458 415.624 180.759C413.15 188.061 403.368 198.127 397.425 199.751C393.031 200.952 381.571 201.599 380.049 201.67C378.158 201.915 375.589 203.008 374.902 203.056C374.141 203.114 372.446 201.989 371.273 202.153C366.998 202.763 367.248 201.532 367.248 201.532Z" fill="#EA8E50"/>
<path d="M411.57 169.468C416.248 169.535 421.435 169.048 425.87 168.464C425.052 167.099 424.078 163.167 423.803 157.739V157.721L422.154 157.808L414.352 158.224C414.352 158.224 414.352 158.337 414.375 158.536C414.449 159.587 414.68 163.026 414.643 164.964C414.627 165.71 414.238 167.318 414.12 167.394C413.27 168.126 412.414 168.806 411.57 169.468Z" fill="#FFB07B"/>
<path d="M414.644 164.965C419.373 164.403 422.393 160.255 423.803 157.739L423.856 157.649L422.154 157.809L414.378 158.536C414.449 159.585 414.683 163.027 414.644 164.965Z" fill="#EA8E50"/>
<path d="M413.973 161.338C413.973 161.338 425.038 161.236 424.869 154.353C424.7 147.47 426.012 142.825 418.94 142.598C411.868 142.372 410.562 145.033 410.058 147.345C409.554 149.657 411.085 161.188 413.973 161.338Z" fill="#FFB07B"/>
<path d="M410.289 143.511C411.945 141.395 413.249 141.818 413.989 142.421C419.949 138.945 423.97 143.754 423.97 143.754C424.538 146.75 426.13 149.456 428.475 151.408C428.475 151.408 426.493 152.704 421.815 151.639C420.386 151.311 419.091 150.337 417.983 149.143C419.26 151.114 420.802 152.901 422.564 154.455C416.945 152.034 414.517 144.38 414.274 143.569C413.615 144.193 412.317 145.544 411.945 146.842C411.439 148.609 411.284 152.224 410.229 152.127C410.229 152.108 407.806 146.673 410.289 143.511Z" fill="#2C3A64"/>
<path d="M403.074 182.226C403.074 182.226 395.963 191.407 394.347 191.553C392.73 191.698 393.484 197.808 394.347 199.381C395.209 200.954 400.745 204.319 404.29 200.699C407.835 197.08 403.074 182.226 403.074 182.226Z" fill="#A53934"/>
<path d="M394.347 220.328C399.626 221.081 408.844 221.728 410.647 224.634C412.451 227.539 423.928 225.495 424.869 223.666C425.81 221.836 422.903 206.961 424.407 204.441C425.54 202.547 429.459 192.125 431.49 186.127C432.163 184.143 432.625 182.643 432.715 182.096C433.074 179.899 434.429 172.002 428.985 169.685C428.985 169.685 426.344 168.554 426.129 167.62C426.08 167.306 426.059 166.987 426.067 166.669C426.055 165.41 426.09 163.687 424.862 164.179C423.257 164.826 421.558 166.403 418.815 166.258C416.072 166.112 413.7 164.895 413.341 165.685C412.983 166.475 413.98 167.533 413.341 168.048C412.703 168.563 404.684 173.423 402.207 180.521C402.207 180.521 400.193 185.639 400.193 189.926C400.193 190.259 400.193 190.594 400.207 190.933C400.262 193.493 400.496 196.216 400.239 198.556C400.225 198.683 400.211 198.808 400.193 198.932C399.793 201.919 399.356 204.744 398.907 206.927C398.458 209.109 398.012 210.622 397.573 211.052C395.424 213.223 389.065 219.575 394.347 220.328Z" fill="#B64C41"/>
<path d="M366.058 201.707C366.307 201.11 366.602 200.534 366.939 199.983C367.298 199.339 370.027 196.539 371.102 196.253C372.177 195.967 377.456 197.438 377.456 197.438C377.456 197.438 398.213 197.711 401.525 195.678C405.835 193.033 416.306 182.075 423.59 176.486C427.059 173.82 429.813 172.374 430.83 173.626C430.83 173.626 433.605 176.285 430.114 182.854C429.919 183.223 429.704 183.602 429.468 183.995C425.01 191.4 407.889 205.668 401.009 206.137C394.129 206.606 376.679 200.766 376.679 200.766C376.679 200.766 374.864 200.272 373.93 200.997C372.996 201.723 369.388 201.582 368.875 202.071C367.918 202.984 365.825 202.425 366.058 201.707Z" fill="#FFB07B"/>
<path d="M410.648 224.634C412.452 227.54 423.928 225.495 424.87 223.666C425.811 221.837 422.904 206.961 424.407 204.441C425.54 202.547 429.46 192.125 431.49 186.127C431.157 185.45 430.674 185.141 430.01 185.323C425.367 186.598 403.368 203.481 398.908 206.931C398.466 209.086 398.013 210.627 397.573 211.057C397.58 211.057 411.316 216.561 410.648 224.634Z" fill="#A53934"/>
<path d="M400.246 198.561C406.994 195.697 423.741 179.473 423.981 179.242C423.79 179.309 418.388 176.9 405.304 188.797C403.787 190.183 401.652 192.955 401.162 194.17C400.57 195.627 400.369 197.436 400.246 198.561Z" fill="#A53934"/>
<path d="M429.369 173.169C426.984 173.638 424.744 174.663 422.831 176.16C419.594 178.671 403.45 194.429 400.747 195.101C398.044 195.773 392.23 195.452 392.3 197.15C392.369 198.847 393.664 207.172 395.387 208.678C397.11 210.184 406.235 210.905 410.187 208.392C414.139 205.879 433.746 182.261 432.53 177.163C431.313 172.065 429.369 173.169 429.369 173.169Z" fill="#B64C41"/>
<path d="M421.773 169.686C423.495 169.258 428.992 169.686 428.992 169.686C428.992 169.686 426.351 168.554 426.136 167.621C426.087 167.306 426.066 166.987 426.074 166.669C425.796 167.803 424.952 168.339 422.688 168.445C420.424 168.551 420.048 170.113 421.773 169.686Z" fill="#A53934"/>
<path d="M336.415 278.794C336.771 278.425 359.563 254.828 363.119 240.003C363.119 240.003 357.523 238.449 354.147 242.895C350.771 247.342 336.415 278.794 336.415 278.794Z" fill="#2D427C"/>
<path d="M488.339 237.017C488.339 237.017 493.14 258.084 493.489 271.47L489.299 271.872L480.479 252.548L488.339 237.017Z" fill="#EA8E50"/>
<path d="M473.521 269.865L477.115 272.528C477.115 272.528 492.456 253.774 494.986 241.71C495.573 238.904 517.262 241.89 523.854 238.939C525.265 238.31 526.424 237.511 527.258 236.451C532.061 230.341 528.907 223.895 528.907 223.895C528.907 223.895 518.614 223.361 508.775 224.618C501.768 225.516 489.778 227.159 487.038 230.734C480.415 239.394 473.521 269.865 473.521 269.865Z" fill="#FFB07B"/>
<path d="M460.958 268.675C461.124 268.543 461.318 268.451 461.525 268.406C461.733 268.36 461.947 268.363 462.153 268.414C463.24 268.645 465.25 269.384 467.689 268.876C469.058 268.585 473.857 268.37 473.857 268.37H473.88C473.961 268.412 474.298 268.714 475.367 270.839C475.917 271.937 478.213 271.107 478.213 271.107C478.334 271.37 478.401 271.654 478.41 271.943C478.432 272.423 478.282 272.895 477.987 273.274C477.487 273.93 477.251 275.491 477.143 276.577C477.078 277.233 477.062 277.713 477.062 277.713C477.062 277.713 476.935 278.217 474.992 277.499L472.853 276.427C472.187 275.965 471.75 275.521 471.059 275.069C470.007 274.376 469.29 274.526 469.142 274.567H469.112L460.026 270.017C459.94 269.617 460.495 269.058 460.958 268.675Z" fill="#415DA5"/>
<path d="M480.361 280.18C480.367 279.968 480.422 279.761 480.521 279.573C480.62 279.386 480.761 279.224 480.932 279.099C481.816 278.422 483.673 277.362 484.85 275.173C485.513 273.939 488.448 270.142 488.448 270.142H488.466C488.552 270.105 489.001 270.043 491.313 270.604C492.509 270.893 493.357 268.604 493.357 268.604C493.636 268.681 493.896 268.814 494.123 268.994C494.505 269.286 494.769 269.706 494.867 270.176C495.045 270.98 496.088 272.17 496.847 272.948C497.309 273.41 497.663 273.745 497.663 273.745C497.663 273.745 497.968 274.166 496.165 275.184L493.965 276.124C493.184 276.337 492.559 276.381 491.766 276.616C490.562 276.972 490.21 277.614 490.148 277.755C490.147 277.764 490.147 277.773 490.148 277.783L480.801 281.774C480.424 281.566 480.357 280.772 480.361 280.18Z" fill="#415DA5"/>
<path d="M513.254 176.008C513.804 178.389 514.483 180.74 515.289 183.048C515.791 184.519 516.409 185.948 517.139 187.321L528.803 184.184C528.803 184.184 524.455 180.107 523.357 176.199C523.292 175.968 523.239 175.737 523.197 175.506C523.067 174.831 523.081 174.136 523.239 173.467L521.532 173.132L517.412 174.557L513.254 176.008Z" fill="#FFB07B"/>
<path d="M513.254 176.008C513.804 178.39 514.483 180.74 515.289 183.049C519.496 181.64 522.388 177.699 523.364 176.2C523.3 175.969 523.246 175.738 523.205 175.507L520.43 174.955L517.424 174.569L513.254 176.008Z" fill="#EA8E50"/>
<path d="M510.803 176.724C510.803 176.724 522.476 182.113 525.723 174.8C528.97 167.487 532.66 163.251 525.348 159.507C518.036 155.762 515.335 157.904 513.657 160.079C511.978 162.255 507.85 175.135 510.803 176.724Z" fill="#FFB07B"/>
<path d="M533.742 160.354C533.337 160.343 532.937 160.445 532.586 160.647C533.023 158.996 531.892 156.875 531.892 156.875C532.389 158.069 531.624 159.799 531.624 159.799C530.445 155.214 518.36 155.122 517.236 155.085C516.112 155.048 515.818 153.263 515.818 153.263C513.751 154.226 512.118 157.559 512.84 160.245C513.561 162.932 517.055 167.574 518.522 167.297C519.988 167.02 519.613 168.348 519.014 170.194C518.415 172.039 520.755 176.093 522.906 177.197C524.638 178.084 525.14 176.871 525.868 176.211C526.049 176.048 526.252 175.909 526.469 175.8C529.612 174.257 532.276 170.141 532.981 165.542C533.18 164.09 533.102 162.613 532.75 161.19C533.049 160.876 533.382 160.595 533.742 160.354Z" fill="#2C3A64"/>
<path d="M508.782 224.627C508.747 225.217 508.805 230.15 511.98 232.315C514.038 233.73 519.044 237.181 523.861 238.948C525.272 238.32 526.43 237.521 527.265 236.461C532.068 230.351 528.914 223.905 528.914 223.905C528.914 223.905 518.614 223.371 508.782 224.627Z" fill="#AA3E39"/>
<path d="M542.102 220.548C542.102 220.548 526.643 226.038 518.198 223.089C518.198 223.089 515.381 223.567 507.052 224.856C507.052 224.856 510.712 238.253 512.743 240.452C513.668 241.445 529.575 240.274 532.398 240.562C532.398 240.562 540.825 239.387 542.166 232.499C543.508 225.611 542.102 220.548 542.102 220.548Z" fill="#B84C42"/>
<path d="M512.31 194.934L513.577 198.577L513.668 199.2L515.906 215.621L516.112 221.141C516.129 221.581 516.265 222.008 516.506 222.377C516.746 222.746 517.083 223.043 517.479 223.236C519.877 224.391 523.602 225.893 525.251 225.777C536.119 225.214 542.113 220.539 542.113 220.539C540.643 203.871 535.597 191.34 534.482 189.063C532.526 185.185 525.829 180.556 525.829 180.556C523.202 182.066 516.977 186.755 516.977 186.755C516.921 189.742 512.31 194.934 512.31 194.934Z" fill="#739CF3"/>
<path d="M513.667 199.201L515.906 215.621C527.07 209.138 525.69 193.359 525.69 193.359C525.69 193.359 514.798 196.632 514.373 197.076C514.09 197.767 513.854 198.477 513.667 199.201Z" fill="#6488D3"/>
<path d="M479.825 214.009C480.172 213.595 481.476 212.084 485.719 212.02C490.363 211.592 503.911 210.209 505.091 208.481C505.895 207.315 516.901 184.935 517.876 184.785C521.074 184.3 526.664 190.04 525.852 192.869C525.852 192.869 514.521 216.228 511.977 216.704C507.889 217.45 493.26 216.993 487.812 215.852C487.165 216.198 484.621 217.584 484.001 217.864C483.307 218.178 480.562 218.185 479.459 217.402C478.356 216.619 479.059 214.909 479.825 214.009Z" fill="#FFB07B"/>
<path d="M511.654 195.041C513.578 198.577 517.291 201.465 522.203 202.407C523.165 201.252 525.852 192.865 525.852 192.865C526.657 190.036 528.551 181.159 519.805 184.705C514.336 186.922 512.347 193.149 511.654 195.041Z" fill="#739CF3"/>
<path d="M496.722 292.351H558.807C565.867 292.351 572.134 289.538 575.573 284.828C578.859 280.328 578.833 274.963 575.508 270.477L562.031 252.299L551.981 256.918L565.458 275.099C566.676 276.744 566.688 278.631 565.486 280.278C564.147 282.112 561.649 283.206 558.807 283.206H507.575C501.581 283.206 496.722 287.304 496.722 292.36V292.351Z" fill="#6488D3"/>
<path d="M556.277 266.578L561.57 267.595C563.604 267.986 565.7 267.917 567.703 267.391C568.191 267.262 568.673 267.108 569.146 266.929C571.376 266.088 573.353 264.691 574.891 262.872C576.429 261.053 577.476 258.872 577.933 256.535L594.211 171.867C594.897 168.235 594.118 164.479 592.042 161.42C589.966 158.36 586.763 156.245 583.132 155.536L581.302 155.185L578.895 154.723L577.838 154.52C574.202 153.833 570.442 154.612 567.379 156.685C564.316 158.759 562.198 161.959 561.489 165.586L545.207 250.246C544.519 253.876 545.297 257.632 547.371 260.692C549.445 263.752 552.646 265.868 556.277 266.578Z" fill="#AFCDFB"/>
<path d="M561.395 188.825H562.359C563.198 188.826 564.011 188.534 564.658 188C565.305 187.466 565.746 186.724 565.904 185.901L569.814 165.575C570.303 163.065 571.472 160.737 573.192 158.844C574.913 156.951 577.121 155.566 579.575 154.839L578.905 154.712L577.848 154.508C574.212 153.822 570.452 154.6 567.388 156.673C564.325 158.747 562.208 161.947 561.499 165.575L557.852 184.515C557.747 185.038 557.76 185.578 557.89 186.096C558.019 186.613 558.262 187.096 558.601 187.508C558.94 187.921 559.367 188.253 559.85 188.48C560.333 188.708 560.86 188.826 561.395 188.825Z" fill="#E57970"/>
<path d="M500.766 240.239H558.157L572.522 165.586C572.979 163.249 574.026 161.067 575.564 159.248C577.102 157.429 579.079 156.033 581.309 155.191L583.132 155.536C586.763 156.244 589.966 158.359 592.042 161.419C594.118 164.479 594.897 168.234 594.211 171.866L577.922 256.528C577.457 258.962 576.346 261.228 574.705 263.087L574.552 263.365L574.534 263.395C574.379 263.665 574.212 263.928 574.032 264.182L574 264.226C573.824 264.473 573.637 264.709 573.44 264.938L573.389 264.995L573.197 265.21L573.17 265.236C573.045 265.37 572.917 265.499 572.786 265.624L572.712 265.695L572.517 265.871L572.423 265.954C572.312 266.049 572.191 266.141 572.085 266.231L571.969 266.321L571.784 266.46L571.639 266.561C571.579 266.603 571.521 266.647 571.461 266.686L571.169 266.873L571.003 266.973L570.811 267.083L570.647 267.173L570.334 267.333L570.191 267.402L569.937 267.515L569.786 267.58C569.689 267.622 569.59 267.661 569.49 267.698L569.389 267.737C569.268 267.781 569.146 267.82 569.023 267.86L568.889 267.901C568.787 267.933 568.683 267.961 568.582 267.989L568.475 268.019C568.343 268.051 568.207 268.084 568.073 268.111L567.96 268.134C567.851 268.155 567.74 268.176 567.629 268.192L567.513 268.211C567.372 268.234 567.231 268.252 567.088 268.266H567.011L566.644 268.294H566.521C566.375 268.294 566.227 268.294 566.079 268.294H500.766C498.185 268.285 495.712 267.257 493.887 265.434C492.062 263.611 491.032 261.141 491.024 258.563V249.956C491.035 247.38 492.066 244.913 493.891 243.093C495.716 241.273 498.187 240.247 500.766 240.239Z" fill="#9FC1F4"/>
<path d="M500.114 220.692V221.512C500.115 221.952 500.29 222.375 500.602 222.686C500.913 222.998 501.336 223.174 501.777 223.175H561.445L562.419 218.112V218.063L562.715 216.534H504.277C503.174 216.537 502.117 216.976 501.337 217.755C500.557 218.534 500.117 219.59 500.114 220.692Z" fill="#AFCDFB"/>
<path d="M502.112 222.218V223.038C502.112 223.084 502.112 223.128 502.112 223.174H561.445L562.419 218.111V218.062H506.272C505.169 218.063 504.111 218.501 503.331 219.28C502.551 220.059 502.113 221.116 502.112 222.218Z" fill="#9FC1F4"/>
<path d="M491.307 255.518H577.661C577.946 255.518 578.219 255.404 578.421 255.203C578.622 255.002 578.736 254.729 578.736 254.444C578.735 254.16 578.621 253.887 578.42 253.686C578.219 253.485 577.946 253.371 577.661 253.37H491.307C491.022 253.371 490.749 253.485 490.548 253.686C490.346 253.887 490.233 254.16 490.231 254.444C490.232 254.729 490.345 255.002 490.547 255.203C490.748 255.404 491.022 255.518 491.307 255.518Z" fill="#6488D3"/>
<path d="M370.743 292.351H432.822C439.882 292.351 446.151 289.538 449.589 284.828C452.873 280.328 452.85 274.963 449.522 270.477L436.048 252.299L425.998 256.918L439.477 275.099C440.698 276.744 440.707 278.631 439.505 280.278C438.166 282.112 435.671 283.206 432.826 283.206H381.594C375.602 283.206 370.743 287.304 370.743 292.36V292.351Z" fill="#6488D3"/>
<path d="M430.299 266.578L435.592 267.595C437.625 267.986 439.72 267.917 441.723 267.391C442.212 267.262 442.695 267.108 443.168 266.929C445.396 266.087 447.371 264.689 448.906 262.87C450.442 261.051 451.486 258.871 451.942 256.535L468.231 171.867C468.918 168.235 468.139 164.48 466.064 161.42C463.988 158.36 460.785 156.245 457.154 155.536L455.322 155.185L452.915 154.723L451.858 154.52C448.222 153.833 444.462 154.612 441.399 156.685C438.336 158.759 436.218 161.959 435.509 165.586L419.22 250.246C418.532 253.878 419.311 257.634 421.387 260.695C423.463 263.755 426.667 265.87 430.299 266.578Z" fill="#AFCDFB"/>
<path d="M435.404 188.825H436.371C437.21 188.825 438.022 188.533 438.669 187.999C439.315 187.466 439.756 186.724 439.914 185.901L443.824 165.575C444.313 163.065 445.482 160.737 447.203 158.844C448.923 156.951 451.131 155.566 453.585 154.839L452.914 154.712L451.858 154.508C448.222 153.822 444.461 154.6 441.398 156.673C438.335 158.747 436.217 161.947 435.508 165.575L431.862 184.515C431.757 185.038 431.771 185.578 431.9 186.095C432.03 186.613 432.273 187.095 432.612 187.507C432.951 187.92 433.377 188.252 433.86 188.48C434.343 188.707 434.87 188.825 435.404 188.825Z" fill="#E57970"/>
<path d="M374.779 240.239H432.181L446.546 165.586C447.002 163.25 448.047 161.069 449.583 159.25C451.119 157.431 453.094 156.034 455.322 155.191L457.154 155.543C460.785 156.251 463.989 158.366 466.064 161.426C468.14 164.485 468.918 168.241 468.23 171.873L451.941 256.534C451.476 258.967 450.365 261.23 448.725 263.087C447.9 264.662 446.661 265.981 445.14 266.903C443.619 267.825 441.876 268.315 440.097 268.319H374.779C372.198 268.311 369.725 267.283 367.9 265.46C366.075 263.637 365.046 261.166 365.039 258.588V249.982C365.043 247.401 366.07 244.928 367.895 243.102C369.721 241.276 372.196 240.247 374.779 240.239Z" fill="#9FC1F4"/>
<path d="M374.125 220.692V221.512C374.126 221.953 374.302 222.375 374.614 222.686C374.925 222.998 375.348 223.174 375.789 223.175H435.467L436.441 218.112V218.063L436.753 216.534H378.296C377.192 216.535 376.132 216.973 375.35 217.752C374.568 218.531 374.128 219.588 374.125 220.692Z" fill="#AFCDFB"/>
<path d="M376.131 222.218V223.038C376.129 223.083 376.129 223.129 376.131 223.174H435.467L436.44 218.111V218.062H380.285C379.184 218.068 378.129 218.508 377.351 219.286C376.573 220.064 376.135 221.118 376.131 222.218Z" fill="#9FC1F4"/>
<path d="M365.325 255.518H451.68C451.965 255.518 452.238 255.404 452.439 255.203C452.641 255.002 452.754 254.729 452.755 254.444C452.754 254.16 452.64 253.887 452.439 253.686C452.237 253.485 451.964 253.371 451.68 253.37H365.325C365.04 253.371 364.768 253.485 364.566 253.686C364.365 253.887 364.251 254.16 364.25 254.444C364.251 254.729 364.364 255.002 364.566 255.203C364.767 255.404 365.04 255.518 365.325 255.518Z" fill="#6488D3"/>
<path d="M235.779 292.351H297.864C304.924 292.351 311.191 289.538 314.629 284.828C317.915 280.328 317.89 274.963 314.564 270.477L301.087 252.299L291.037 256.918L304.514 275.099C305.735 276.744 305.745 278.631 304.542 280.278C303.203 282.112 300.706 283.206 297.864 283.206H246.631C240.637 283.206 235.779 287.304 235.779 292.36V292.351Z" fill="#6488D3"/>
<path d="M295.334 266.578L300.627 267.594C302.661 267.986 304.756 267.916 306.76 267.391C307.248 267.262 307.73 267.108 308.203 266.929C310.432 266.088 312.41 264.691 313.948 262.872C315.486 261.053 316.533 258.872 316.99 256.535L333.279 171.873C333.966 168.242 333.186 164.486 331.11 161.427C329.035 158.367 325.831 156.252 322.2 155.543L320.371 155.192L317.964 154.73L316.907 154.527C313.271 153.84 309.51 154.619 306.447 156.692C303.384 158.765 301.267 161.965 300.558 165.593L284.269 250.252C283.582 253.882 284.36 257.634 286.433 260.693C288.506 263.751 291.705 265.867 295.334 266.578Z" fill="#AFCDFB"/>
<path d="M300.442 188.825H301.406C302.244 188.823 303.055 188.531 303.7 187.997C304.345 187.464 304.784 186.723 304.942 185.901L308.852 165.575C309.341 163.065 310.51 160.737 312.231 158.844C313.952 156.951 316.159 155.566 318.613 154.839L317.943 154.712L316.886 154.508C313.25 153.822 309.49 154.6 306.426 156.673C303.363 158.747 301.246 161.947 300.537 165.575L296.89 184.515C296.785 185.039 296.799 185.58 296.929 186.098C297.059 186.616 297.303 187.099 297.643 187.511C297.983 187.923 298.41 188.255 298.895 188.483C299.379 188.71 299.907 188.827 300.442 188.825Z" fill="#E57970"/>
<path d="M239.824 240.239H297.219L311.584 165.586C312.041 163.249 313.088 161.067 314.626 159.248C316.164 157.429 318.141 156.033 320.371 155.191L322.201 155.543C325.832 156.251 329.036 158.366 331.112 161.425C333.188 164.485 333.967 168.241 333.28 171.873L316.967 256.528C316.501 258.959 315.391 261.22 313.751 263.076C312.926 264.65 311.686 265.969 310.166 266.891C308.645 267.813 306.902 268.303 305.123 268.308H239.824C237.242 268.3 234.769 267.272 232.943 265.449C231.118 263.625 230.089 261.155 230.081 258.576V249.97C230.089 247.392 231.118 244.921 232.943 243.098C234.769 241.274 237.242 240.247 239.824 240.239Z" fill="#9FC1F4"/>
<path d="M239.162 220.692V221.512C239.163 221.952 239.338 222.375 239.649 222.686C239.961 222.998 240.384 223.174 240.825 223.175H300.502L301.474 218.112V218.063L301.77 216.534H243.313C242.212 216.54 241.158 216.981 240.38 217.759C239.603 218.538 239.165 219.592 239.162 220.692Z" fill="#AFCDFB"/>
<path d="M241.169 222.218V223.038C241.169 223.084 241.169 223.128 241.169 223.174H300.502L301.474 218.111V218.062H245.318C244.217 218.066 243.162 218.505 242.384 219.284C241.607 220.063 241.17 221.118 241.169 222.218Z" fill="#9FC1F4"/>
<path d="M230.363 253.37H316.718C317.003 253.37 317.276 253.483 317.478 253.685C317.68 253.886 317.793 254.159 317.793 254.444C317.793 254.729 317.68 255.002 317.478 255.204C317.276 255.405 317.003 255.518 316.718 255.518H230.363C230.078 255.518 229.805 255.405 229.603 255.204C229.401 255.002 229.288 254.729 229.288 254.444C229.288 254.159 229.401 253.886 229.603 253.685C229.805 253.483 230.078 253.37 230.363 253.37Z" fill="#6488D3"/>
<path d="M322.168 204.538H375.354C375.574 204.53 375.793 204.566 375.999 204.644C376.204 204.723 376.392 204.842 376.55 204.994C376.708 205.146 376.834 205.329 376.92 205.531C377.006 205.733 377.051 205.951 377.051 206.17C377.051 206.39 377.006 206.607 376.92 206.809C376.834 207.011 376.708 207.194 376.55 207.346C376.392 207.499 376.204 207.618 375.999 207.696C375.793 207.774 375.574 207.81 375.354 207.802H322.168C321.948 207.81 321.729 207.774 321.523 207.696C321.318 207.618 321.131 207.499 320.972 207.346C320.814 207.194 320.688 207.011 320.602 206.809C320.516 206.607 320.471 206.39 320.471 206.17C320.471 205.951 320.516 205.733 320.602 205.531C320.688 205.329 320.814 205.146 320.972 204.994C321.131 204.842 321.318 204.723 321.523 204.644C321.729 204.566 321.948 204.53 322.168 204.538Z" fill="#9FC1F4"/>
<path d="M346.414 183.699C346.586 183.638 346.775 183.647 346.94 183.724C347.106 183.801 347.234 183.94 347.298 184.111L354.198 203.065H374.365C374.549 203.065 374.725 203.138 374.855 203.268C374.986 203.398 375.059 203.574 375.059 203.758C375.059 203.942 374.986 204.118 374.855 204.248C374.725 204.378 374.549 204.451 374.365 204.451H353.678C353.511 204.446 353.352 204.381 353.229 204.269C353.107 204.157 353.029 204.004 353.009 203.839L346 184.591C345.969 184.505 345.954 184.414 345.958 184.323C345.961 184.232 345.983 184.142 346.022 184.059C346.06 183.976 346.115 183.902 346.182 183.84C346.249 183.778 346.328 183.731 346.414 183.699Z" fill="#35488B"/>
<path d="M514.401 272.325H553.084C554.305 272.325 555.295 273.314 555.295 274.533V280.989C555.295 282.209 554.305 283.197 553.084 283.197H514.401C513.18 283.197 512.191 282.209 512.191 280.989V274.533C512.191 273.314 513.18 272.325 514.401 272.325Z" fill="#7EA6ED"/>
<path d="M384.94 272.325H423.623C424.844 272.325 425.834 273.314 425.834 274.533V280.989C425.834 282.209 424.844 283.197 423.623 283.197H384.94C383.719 283.197 382.73 282.209 382.73 280.989V274.533C382.73 273.314 383.719 272.325 384.94 272.325Z" fill="#7EA6ED"/>
<path d="M251.985 272.325H290.67C291.891 272.325 292.881 273.314 292.881 274.533V280.989C292.881 282.209 291.891 283.197 290.67 283.197H251.985C250.764 283.197 249.774 282.209 249.774 280.989V274.533C249.774 273.314 250.764 272.325 251.985 272.325Z" fill="#7EA6ED"/>
<path d="M62.3652 98.9113C62.3652 98.9113 51.7279 100.741 44.6842 106.446C44.6842 106.446 42.6192 105.843 41.8538 100.579C41.5346 98.3777 41.567 95.2156 41.567 95.2156L53.978 88.6973C53.978 88.6973 60.6748 92.393 62.3652 98.9113Z" fill="#B64C41"/>
<path d="M53.9777 88.6973C53.9777 88.6973 63.2067 93.146 64.3838 98.5094L62.3627 98.9228C62.3627 98.9228 59.745 92.0211 53.9777 88.6973Z" fill="#A03C37"/>
<path d="M61.2499 124.799C60.8842 125.536 60.4016 126.208 59.8209 126.79C59.8209 126.79 62.6628 128.202 62.7576 127.467C62.7576 127.467 63.3242 126.682 62.3529 126.682C61.7055 126.682 61.6453 124.074 61.2499 124.799Z" fill="#9ED9F0"/>
<path d="M49.6459 123.409C49.7269 123.882 54.7657 127.005 59.0762 127.03C59.0762 127.03 53.5448 121.233 52.081 120.983C51.7624 120.951 51.4429 121.033 51.1791 121.214C51.0273 121.344 50.932 121.528 50.9132 121.727C50.8322 122.376 50.113 122.732 49.7939 123.067C49.7434 123.108 49.7037 123.16 49.6779 123.22C49.6521 123.279 49.6412 123.344 49.6459 123.409Z" fill="#9ED9F0"/>
<path d="M58.9308 127.384C58.6279 127.312 58.3851 127.195 58.3134 127.031C58.0961 126.548 58.5077 125.227 59.0673 125.605C59.0673 125.605 61.0074 126.816 60.6304 127.222C60.4723 127.355 60.2768 127.436 60.0709 127.453C60.3282 127.813 60.6674 128.107 61.0606 128.31C61.9231 128.74 60.8455 130.435 61.0606 130.867C61.2756 131.299 59.8489 130.22 59.7124 129.601C59.6199 129.167 59.7124 128.088 59.7726 127.479C59.6486 127.486 59.5242 127.486 59.4002 127.479C59.0372 129.327 57.9666 129.255 57.9666 129.255C57.7122 128.477 58.4036 127.784 58.9308 127.384Z" fill="#74ACBE"/>
<path d="M49.7847 123.069C50.4183 122.898 54.8073 125.067 55.2375 124.917C55.6676 124.767 52.4925 122.801 51.8173 122.263C51.142 121.725 51.1675 121.251 51.1675 121.212C51.0158 121.342 50.9204 121.526 50.9016 121.725C50.8229 122.378 50.1084 122.734 49.7847 123.069Z" fill="#74ACBE"/>
</svg>
