<svg width="711" height="488" viewBox="0 0 711 488" fill="none" xmlns="http://www.w3.org/2000/svg">
<path d="M680.5 358.5C731.368 270.775 720.888 189.397 625.762 104.669C486.625 -19.2589 282.323 -35.0994 73.0002 68C-15.1606 111.422 -41.2349 272.805 100.892 392.618C209.335 484.034 199.375 448.466 269.08 462.93C357.149 481.204 410.553 469.202 499.231 454.155C589.621 438.818 640.349 427.743 680.5 358.5Z" fill="#D3D9ED"/>
<path d="M116.557 175.312C116.557 175.312 109.832 211.853 146.437 224.941C146.437 224.941 152.48 189.043 116.557 175.312Z" fill="#5081E0"/>
<path d="M110.397 235.177C110.397 235.177 125.826 268.982 163.344 258.771C163.344 258.771 147.722 225.878 110.397 235.177Z" fill="#5081E0"/>
<path d="M122.289 274.225C122.289 274.225 142.977 305.114 178.347 288.995C178.347 288.995 157.621 259.056 122.289 274.225Z" fill="#5081E0"/>
<path d="M174.864 202.169C174.864 202.169 145.459 224.941 164.025 259.067C164.025 259.067 192.491 236.321 174.864 202.169Z" fill="#5081E0"/>
<path d="M194.291 241.586C194.291 241.586 164.886 264.409 183.491 298.471C183.491 298.471 211.906 275.738 194.291 241.586Z" fill="#5081E0"/>
<path d="M131.894 198.907C131.894 198.907 187.926 298.062 214.991 374.868" stroke="#C9CFF2" stroke-miterlimit="10"/>
<path d="M215.634 136.549C215.634 136.549 183.992 309.864 253.216 365.17C322.44 420.475 325.217 375.804 325.217 375.804C325.217 375.804 320.28 189.401 215.634 136.549Z" fill="#A1AEE9"/>
<path d="M216.175 136.203C216.175 136.203 272.516 385.374 312.168 422.621" stroke="white" stroke-miterlimit="10" stroke-linecap="round"/>
<path d="M84.2441 300.104C84.2441 300.104 122.816 414.132 189.906 426.655C256.996 439.178 260.943 399.041 260.943 399.041C260.943 399.041 161.98 304.06 84.2441 300.104Z" fill="#A1AEE9"/>
<path d="M84.8447 300.547C84.8447 300.547 214.516 422.89 254.927 433.781" stroke="white" stroke-miterlimit="10" stroke-linecap="round"/>
<path d="M595.3 175.312C595.3 175.312 602.037 211.853 565.432 224.941C565.432 224.941 559.389 189.043 595.3 175.312Z" fill="#5081E0"/>
<path d="M601.47 235.177C601.47 235.177 586.041 268.982 548.523 258.771C548.523 258.771 564.145 225.878 601.47 235.177Z" fill="#5081E0"/>
<path d="M589.577 274.225C589.577 274.225 568.889 305.114 533.519 288.995C533.519 288.995 554.245 259.056 589.577 274.225Z" fill="#5081E0"/>
<path d="M537.067 202.169C537.067 202.169 566.459 224.941 547.906 259.067C547.842 259.067 519.389 236.321 537.067 202.169Z" fill="#5081E0"/>
<path d="M517.577 241.586C517.577 241.586 546.97 264.358 528.403 298.471C528.403 298.471 499.963 275.738 517.577 241.586Z" fill="#5081E0"/>
<path d="M579.972 198.907C579.972 198.907 523.94 298.062 496.862 374.868" stroke="#C9CFF2" stroke-miterlimit="10"/>
<path d="M470.21 355.601C400.986 410.932 371.916 367.366 371.916 367.366C371.916 367.366 403.995 252.247 465.248 184.328L480.548 203.491L474.415 174.747C486.526 162.853 499.667 152.912 513.823 146.066C513.836 146.054 539.447 300.27 470.21 355.601Z" fill="#A1AEE9"/>
<path d="M513.784 146.247C513.784 146.247 439.352 385.426 399.7 422.557" stroke="white" stroke-miterlimit="10" stroke-linecap="round"/>
<path d="M627.623 300.104C627.623 300.104 589.051 414.132 521.961 426.655C454.871 439.178 450.924 399.041 450.924 399.041C450.924 399.041 549.926 304.06 627.623 300.104Z" fill="#A1AEE9"/>
<path d="M626.812 300.078C626.812 300.078 497.351 422.891 456.94 433.757" stroke="white" stroke-miterlimit="10" stroke-linecap="round"/>
<path d="M357.875 180.053V396.703L284.112 375.588L287.571 364.452L289.139 298.55C288.715 299.578 284.717 304.972 280.384 310.688C272.89 320.554 262.483 327.819 250.632 331.456C233.403 336.735 209.861 344.107 209.064 345.173L188.351 308.684L242.737 284.371L267.398 233.342C271.299 224.91 276.872 217.357 283.781 211.14C290.689 204.923 298.789 200.172 307.59 197.174L326.67 190.675L357.875 180.053Z" fill="#294385"/>
<path d="M188.326 308.901L167.985 293.257C167.29 292.318 166.324 291.613 165.216 291.237C164.109 290.86 162.913 290.83 161.788 291.151C161.023 291.362 160.31 291.729 159.695 292.229C159.079 292.729 158.574 293.351 158.212 294.056C157.849 294.761 157.637 295.533 157.589 296.324C157.54 297.116 157.657 297.908 157.931 298.652L168.114 310.288C169.04 312.78 166.712 314.142 164.424 315.182L153.032 319.921C152.792 320.027 152.526 320.058 152.269 320.008C152.011 319.959 151.775 319.832 151.592 319.645C151.409 319.458 151.287 319.219 151.243 318.961C151.2 318.703 151.236 318.437 151.348 318.2L155.681 307.591C156.03 306.457 156.127 305.26 155.964 304.085C155.861 303.024 155.366 302.039 154.575 301.323C153.808 300.711 152.922 300.266 151.973 300.017C151.024 299.768 150.033 299.72 149.065 299.876C148.096 300.032 147.17 300.388 146.348 300.923C145.526 301.458 144.824 302.159 144.289 302.98L137.205 313.756C135.194 316.853 134.402 320.583 134.981 324.228C135.56 327.873 137.47 331.175 140.342 333.497L153.109 343.773C157.031 346.939 161.776 348.922 166.786 349.488C171.796 350.055 176.865 349.181 181.395 346.971L198.393 338.905L188.326 308.901Z" fill="#EF9B74"/>
<path d="M208.975 344.993L162.149 361.42C158.991 362.998 155.468 363.703 151.945 363.462C148.422 363.22 145.029 362.04 142.117 360.046C141.782 359.827 141.461 359.583 141.14 359.339L134.184 354.381C133.369 353.75 132.718 352.933 132.286 351.997C131.854 351.062 131.653 350.037 131.701 349.008C131.749 347.979 132.044 346.977 132.561 346.086C133.078 345.195 133.802 344.441 134.672 343.888L188.326 308.901L208.255 343.747L208.975 344.993Z" fill="#EF9B74"/>
<path d="M163.922 344.634L136.138 355.641" stroke="#21426B" stroke-miterlimit="10" stroke-linecap="round"/>
<path d="M145.2 336.864L158.482 330.827" stroke="#21426B" stroke-miterlimit="10" stroke-linecap="round"/>
<path d="M388.9 136.948C386.508 144.321 389.89 152.027 396.46 154.159C403.03 156.291 410.294 152.027 412.699 144.655C415.103 137.282 411.696 129.576 405.126 127.444C398.555 125.312 391.291 129.55 388.9 136.948Z" fill="#EF8B5D"/>
<path d="M329.036 136.948C331.428 144.321 328.046 152.027 321.476 154.159C314.906 156.291 307.642 152.027 305.25 144.655C302.859 137.282 306.24 129.576 312.81 127.444C319.38 125.312 326.645 129.55 329.036 136.948Z" fill="#EF8B5D"/>
<path d="M318.12 146.979C321.33 146.979 323.932 144.38 323.932 141.174C323.932 137.967 321.33 135.368 318.12 135.368C314.911 135.368 312.309 137.967 312.309 141.174C312.309 144.38 314.911 146.979 318.12 146.979Z" stroke="#B86B47" stroke-miterlimit="10" stroke-linecap="round"/>
<path d="M405.513 141.174C405.513 142.322 405.172 143.444 404.533 144.399C403.895 145.354 402.987 146.098 401.925 146.537C400.863 146.976 399.695 147.091 398.567 146.867C397.44 146.643 396.405 146.091 395.592 145.279C394.779 144.467 394.226 143.432 394.001 142.306C393.777 141.18 393.892 140.013 394.332 138.952C394.772 137.891 395.517 136.984 396.472 136.347C397.428 135.709 398.552 135.368 399.701 135.368C400.464 135.368 401.22 135.518 401.925 135.81C402.63 136.102 403.271 136.529 403.811 137.069C404.35 137.608 404.778 138.248 405.07 138.952C405.362 139.656 405.513 140.411 405.513 141.174V141.174Z" stroke="#B86B47" stroke-miterlimit="10" stroke-linecap="round"/>
<path d="M527.066 308.684L506.353 345.173C505.556 344.107 482.014 336.735 464.785 331.456C452.929 327.809 442.521 320.53 435.033 310.649C430.88 305.178 427.049 300.014 426.354 298.666L426.29 298.524L427.859 364.426L431.317 375.562L357.555 396.703V180.053L407.827 197.174C416.631 200.164 424.735 204.913 431.644 211.131C438.554 217.349 444.125 224.906 448.019 233.342L472.679 284.371L527.066 308.684Z" fill="#294385"/>
<path d="M379.849 147.119V189.504C379.919 192.381 379.412 195.243 378.359 197.922C377.305 200.6 375.726 203.041 373.714 205.101C371.701 207.16 369.297 208.797 366.642 209.915C363.987 211.032 361.136 211.608 358.255 211.608C355.374 211.608 352.522 211.032 349.867 209.915C347.212 208.797 344.808 207.16 342.796 205.101C340.784 203.041 339.204 200.6 338.151 197.922C337.097 195.243 336.59 192.381 336.661 189.504V147.119H379.849Z" fill="#EF9B74"/>
<path d="M379.849 147.119V186.73C375.198 188.721 370.188 189.744 365.128 189.735H352.27C346.872 189.744 341.537 188.578 336.636 186.319V147.119H379.849Z" fill="#EF8B5D"/>
<path d="M398.763 118.273V149.022C398.763 153.506 397.878 157.946 396.16 162.089C394.442 166.232 391.924 169.996 388.749 173.166C385.574 176.336 381.805 178.851 377.657 180.566C373.509 182.281 369.064 183.162 364.575 183.161H352.888C348.399 183.162 343.955 182.28 339.808 180.565C335.661 178.85 331.892 176.336 328.719 173.165C325.545 169.995 323.028 166.231 321.311 162.088C319.594 157.945 318.711 153.505 318.713 149.022V118.273C318.711 113.926 319.567 109.622 321.232 105.605C322.896 101.589 325.337 97.9392 328.414 94.8654C331.491 91.7916 335.144 89.3536 339.165 87.6909C343.185 86.0281 347.495 85.1731 351.846 85.1748H365.617C367.291 85.1741 368.963 85.2986 370.618 85.5473C378.451 86.7416 385.596 90.699 390.759 96.7026C395.922 102.706 398.761 110.359 398.763 118.273Z" fill="#EF9B74"/>
<path d="M345.698 128.677C345.62 130.52 344.832 132.262 343.498 133.538C342.165 134.815 340.39 135.528 338.543 135.528C336.696 135.528 334.921 134.815 333.587 133.538C332.254 132.262 331.466 130.52 331.388 128.677" stroke="#262347" stroke-miterlimit="10" stroke-linecap="round"/>
<path d="M387.924 128.677C387.845 130.52 387.057 132.262 385.724 133.538C384.391 134.815 382.615 135.528 380.768 135.528C378.922 135.528 377.146 134.815 375.813 133.538C374.48 132.262 373.692 130.52 373.613 128.677" stroke="#262347" stroke-miterlimit="10" stroke-linecap="round"/>
<path d="M365.886 153.028C365.807 154.872 365.019 156.613 363.686 157.89C362.353 159.167 360.577 159.879 358.73 159.879C356.884 159.879 355.108 159.167 353.775 157.89C352.441 156.613 351.653 154.872 351.575 153.028" stroke="#CC7045" stroke-miterlimit="10" stroke-linecap="round"/>
<path d="M346.547 143.935C346.547 146.427 343.127 148.43 338.897 148.43C334.667 148.43 331.26 146.427 331.26 143.935C331.26 141.443 334.68 139.439 338.897 139.439C343.114 139.439 346.547 141.456 346.547 143.935Z" fill="#EF8B5D"/>
<path d="M387.202 143.935C387.202 146.427 383.782 148.43 379.565 148.43C375.348 148.43 371.928 146.427 371.928 143.935C371.928 141.443 375.348 139.439 379.565 139.439C383.782 139.439 387.202 141.456 387.202 143.935Z" fill="#EF8B5D"/>
<path d="M361.011 487.328C486.464 487.328 588.163 470.146 588.163 448.951C588.163 427.755 486.464 410.573 361.011 410.573C235.559 410.573 133.86 427.755 133.86 448.951C133.86 470.146 235.559 487.328 361.011 487.328Z" fill="#4C6ED2"/>
<path d="M262.319 357.118L245.604 424.329L197.531 418.319C188.884 417.228 180.977 412.89 175.418 406.185C169.858 399.481 167.062 390.913 167.599 382.223C168.136 373.533 171.966 365.374 178.309 359.403C184.652 353.432 193.033 350.099 201.748 350.079C203.136 350.077 204.523 350.159 205.901 350.323L262.319 357.118Z" fill="#EF8B5D"/>
<path d="M518.167 418.318L474.452 423.777L450.318 357.477L509.771 350.323C511.149 350.159 512.536 350.077 513.924 350.079C522.638 350.102 531.017 353.438 537.357 359.41C543.698 365.381 547.525 373.541 548.06 382.229C548.595 390.918 545.799 399.484 540.239 406.188C534.68 412.891 526.774 417.228 518.128 418.318H518.167Z" fill="#EF8B5D"/>
<path d="M474.492 423.776L358.133 438.328L357.837 431.084L357.528 438.328L245.554 424.328L262.268 357.116L342.267 366.749C352.571 367.995 362.988 367.995 373.292 366.749L450.307 357.476L474.492 423.776Z" fill="#193150"/>
<path d="M330.502 68.7988H323.636C322.469 68.7988 321.312 69.0288 320.234 69.4756C319.155 69.9225 318.175 70.5773 317.35 71.4028C316.524 72.2283 315.87 73.2082 315.425 74.2865C314.979 75.3647 314.75 76.5202 314.752 77.6868V126.879L318.751 127.2C321.541 116.925 329.191 120.226 329.191 112.006L330.502 68.7988Z" fill="#193150"/>
<path d="M386.74 68.7988H393.555C395.914 68.7988 398.177 69.7352 399.846 71.4021C401.515 73.0689 402.452 75.3296 402.452 77.6868V126.982L398.736 127.354C398.235 115.589 388.155 117.952 388.155 109.732L386.74 68.7988Z" fill="#193150"/>
<path d="M396.433 90.1709C355.29 111.517 320.832 90.1709 320.832 90.1709V70.1088C320.832 69.8519 320.832 69.595 320.832 69.3382C321.028 67.2294 322.005 65.2698 323.573 63.844C325.141 62.4182 327.185 61.6292 329.305 61.6318H387.922C390.179 61.6318 392.344 62.5277 393.94 64.1222C395.537 65.7168 396.433 67.8794 396.433 70.1345C396.433 70.1345 402.566 86.9728 396.433 90.1709Z" fill="#193150"/>
<path d="M527.104 308.901L547.444 293.257C548.14 292.318 549.106 291.613 550.213 291.237C551.32 290.86 552.516 290.83 553.641 291.151C554.405 291.363 555.117 291.731 555.731 292.232C556.346 292.732 556.85 293.354 557.212 294.059C557.575 294.763 557.787 295.535 557.836 296.325C557.885 297.116 557.77 297.908 557.498 298.652L547.303 310.288C546.39 312.78 548.717 314.142 550.993 315.182L562.384 319.921C562.626 320.05 562.903 320.099 563.174 320.059C563.445 320.02 563.697 319.895 563.892 319.703C564.087 319.511 564.216 319.262 564.259 318.991C564.303 318.721 564.258 318.444 564.133 318.2L559.8 307.591C559.45 306.457 559.354 305.26 559.517 304.085C559.614 303.022 560.11 302.036 560.906 301.323C561.672 300.711 562.558 300.266 563.508 300.017C564.457 299.768 565.447 299.72 566.416 299.876C567.385 300.032 568.31 300.388 569.133 300.923C569.955 301.458 570.656 302.159 571.192 302.98L578.199 313.756C580.215 316.851 581.011 320.583 580.431 324.23C579.852 327.876 577.938 331.179 575.062 333.497L562.307 343.772C558.385 346.937 553.64 348.919 548.63 349.486C543.62 350.052 538.552 349.18 534.021 346.971L517.023 338.905L527.104 308.901Z" fill="#EF9B74"/>
<path d="M527.103 308.901L580.783 343.888C581.653 344.441 582.377 345.195 582.894 346.086C583.411 346.977 583.706 347.979 583.754 349.008C583.802 350.037 583.601 351.062 583.169 351.997C582.737 352.933 582.086 353.75 581.271 354.381L574.354 359.352C571.405 361.643 567.868 363.055 564.15 363.423C560.433 363.791 556.687 363.101 553.345 361.433L506.506 345.005L527.103 308.901Z" fill="#EF9B74"/>
<path d="M551.507 344.634L579.292 355.641" stroke="#21426B" stroke-miterlimit="10" stroke-linecap="round"/>
<path d="M570.228 336.864L556.946 330.827" stroke="#21426B" stroke-miterlimit="10" stroke-linecap="round"/>
<path d="M450.358 357.476C450.358 357.476 401.256 374.456 360.704 375.458C320.152 376.46 262.319 357.065 262.319 357.065L342.318 366.698C352.622 367.944 363.039 367.944 373.343 366.698L450.358 357.476Z" fill="#1D3A5E"/>
<path d="M426.997 420.604L354.52 420.733L343.103 468.05L377.445 474.369C389.289 476.551 401.524 474.505 412.01 468.588C422.497 462.672 430.569 453.261 434.814 442.002L437.295 435.439C437.919 433.777 438.13 431.99 437.91 430.229C437.69 428.468 437.047 426.786 436.035 425.328C435.022 423.87 433.671 422.678 432.097 421.856C430.523 421.033 428.773 420.604 426.997 420.604Z" fill="#EF8B5D"/>
<path d="M354.493 420.733L353.979 422.852L343.513 466.225L343.076 468.049L339.746 466.919L269.313 443.171L190.279 416.507C181.657 413.611 174.539 407.413 170.492 399.275C166.445 391.138 165.799 381.727 168.698 373.114C171.596 364.501 177.801 357.391 185.948 353.348C194.094 349.305 203.514 348.66 212.137 351.555L336.107 411.768L353.426 420.167L354.493 420.733Z" fill="#EF9B74"/>
<path d="M503.639 351.557L361.141 420.734L372.558 468.051L525.381 416.508C529.82 415.004 533.903 412.606 537.378 409.464C540.854 406.321 543.647 402.5 545.586 398.236C547.524 393.973 548.567 389.358 548.65 384.676C548.734 379.994 547.855 375.345 546.068 371.015C542.763 363.019 536.551 356.568 528.681 352.959C520.81 349.349 511.864 348.848 503.639 351.557Z" fill="#EF9B74"/>
<path d="M354.005 422.852L343.539 466.225L339.772 466.919L269.339 443.171C267.719 440.436 266.343 437.565 265.225 434.591L262.563 427.527C261.891 425.745 261.662 423.826 261.896 421.936C262.129 420.046 262.819 418.24 263.905 416.675C264.992 415.11 266.442 413.831 268.132 412.95C269.822 412.068 271.701 411.609 273.608 411.613L336.043 411.742L353.362 420.142L354.005 422.852Z" fill="#EF8B5D"/>
<path d="M288.664 420.604L361.141 420.733L372.559 468.05L338.217 474.369C326.374 476.535 314.145 474.482 303.662 468.568C293.179 462.653 285.105 453.252 280.847 442.002L278.378 435.439C277.752 433.779 277.539 431.991 277.756 430.23C277.974 428.469 278.616 426.786 279.628 425.328C280.639 423.869 281.99 422.677 283.564 421.854C285.138 421.032 286.888 420.603 288.664 420.604Z" fill="#EF9B74"/>
<path d="M280.32 439.703L303.554 438.06" stroke="#21426B" stroke-miterlimit="10" stroke-linecap="round"/>
<path d="M286.209 452.534L303.656 450.261" stroke="#21426B" stroke-miterlimit="10" stroke-linecap="round"/>
<path d="M295.453 463.26L308.465 460.331" stroke="#21426B" stroke-miterlimit="10" stroke-linecap="round"/>
<path d="M527.066 308.683L526.102 310.379L506.353 345.173C505.555 344.107 482.014 336.734 464.785 331.456C452.928 327.809 442.52 320.53 435.033 310.649C430.88 305.177 427.048 300.014 426.354 298.665C426.354 298.563 426.354 298.447 426.29 298.344C420.8 270.486 422.831 234.215 425.004 214.641C425.364 211.494 425.724 208.784 426.058 206.613C435.52 213.507 443.065 222.697 447.98 233.316L472.641 284.344L527.066 308.683Z" fill="#193150"/>
<path d="M289.268 298.37C289.268 298.472 289.268 298.588 289.204 298.691C288.51 300.039 284.678 305.203 280.525 310.674C273.032 320.541 262.624 327.806 250.773 331.443C233.544 336.722 210.003 344.094 209.205 345.16L191.488 313.949L188.492 308.671L242.879 284.357L267.539 233.328C272.436 222.717 279.959 213.528 289.397 206.626C289.808 209.31 290.271 212.804 290.682 216.901C292.868 236.925 294.553 271.552 289.268 298.37Z" fill="#193150"/>
<path d="M290.748 216.888C269.353 238.402 252.047 291.074 252.047 291.074L191.476 313.962L188.48 308.683L242.867 284.37L267.528 233.341C272.425 222.73 279.947 213.54 289.385 206.639C289.861 209.323 290.324 212.817 290.748 216.888Z" fill="#1D3A5E"/>
<path d="M527.063 308.683L526.099 310.379L523.618 314.412L467.045 290.522C467.045 290.522 451.514 257.231 440.636 236.244C436.646 228.249 431.374 220.96 425.027 214.666C425.387 211.519 425.747 208.809 426.082 206.639C435.543 213.532 443.088 222.723 448.004 233.341L472.664 284.37L527.063 308.683Z" fill="#1D3A5E"/>
<path d="M326.773 191.111C327.635 198.573 290.773 216.927 290.773 216.927C290.773 216.927 289.577 212.085 288.754 207.088C294.485 202.821 300.849 199.475 307.616 197.173L326.696 190.674C326.741 190.815 326.767 190.962 326.773 191.111Z" fill="#3353A6"/>
<path d="M208.975 344.994L162.148 361.421C158.99 363 155.467 363.704 151.944 363.463C148.422 363.221 145.028 362.042 142.116 360.047L202.944 335.644L208.254 343.787L208.975 344.994Z" fill="#EF8B5D"/>
<path d="M506.403 344.994L553.23 361.421C556.388 363 559.911 363.704 563.433 363.463C566.956 363.221 570.35 362.042 573.262 360.047L512.433 335.644L507.123 343.787L506.403 344.994Z" fill="#EF8B5D"/>
<path d="M344.362 116.295H332.7" stroke="#262347" stroke-miterlimit="10" stroke-linecap="round"/>
<path d="M386.238 116.295H374.576" stroke="#262347" stroke-miterlimit="10" stroke-linecap="round"/>
<path d="M381.804 61.6055C381.21 63.818 379.901 65.7727 378.08 67.1661C376.26 68.5595 374.03 69.3138 371.737 69.3118H320.873C321.069 67.203 322.046 65.2434 323.614 63.8176C325.182 62.3919 327.226 61.6028 329.346 61.6055H381.804Z" fill="#1D3A5E"/>
</svg>
