<!-- Generated by IcoMoon.io -->
<svg version="1.1" xmlns="http://www.w3.org/2000/svg" width="32" height="32" viewBox="0 0 32 32">
<title>arrow-short</title>
<path d="M30.201 13.491l0.050 0.011h-21.413l6.731-6.746c0.33-0.329 0.51-0.776 0.51-1.244s-0.181-0.911-0.51-1.241l-1.047-1.048c-0.329-0.329-0.768-0.511-1.236-0.511s-0.907 0.181-1.237 0.51l-11.539 11.538c-0.331 0.331-0.511 0.771-0.51 1.24-0.001 0.471 0.179 0.912 0.51 1.242l11.539 11.539c0.329 0.329 0.768 0.51 1.237 0.51s0.907-0.181 1.236-0.51l1.047-1.048c0.33-0.329 0.51-0.768 0.51-1.236s-0.181-0.884-0.51-1.213l-6.807-6.784h21.463c0.964 0 1.775-0.831 1.775-1.795v-1.482c0-0.964-0.834-1.73-1.799-1.73z"></path>
</svg>
