<!-- Generated by IcoMoon.io -->
<svg version="1.1" xmlns="http://www.w3.org/2000/svg" width="16" height="32" viewBox="0 0 16 32">
<title>arrow-bend</title>
<path d="M5.091 30.797c-0.072-0.728 0.512-1.371 1.305-1.438l2.095-0.175c-5.090-2.974-8.492-8.136-8.492-14.118 0-6.435 4.002-12.106 10.009-14.921 0.709-0.332 1.578-0.074 1.94 0.576s0.081 1.448-0.628 1.78c-5.084 2.382-8.437 7.167-8.437 12.565 0 4.92 2.792 9.36 7.166 11.903l-1.468-1.886c-0.463-0.595-0.313-1.421 0.335-1.846s1.548-0.287 2.011 0.308l4.452 5.72c0.651 0.838 0.055 1.995-1.042 2.086l-7.679 0.642c-0.793 0.066-1.494-0.47-1.567-1.197z"></path>
</svg>
