<!-- Generated by IcoMoon.io -->
<svg version="1.1" xmlns="http://www.w3.org/2000/svg" width="32" height="32" viewBox="0 0 32 32">
<title>balloon</title>
<path d="M17.246 19.884c4.703-0.79 8.087-5.917 8.087-10.551 0-5.146-4.187-9.333-9.333-9.333s-9.333 4.187-9.333 9.333c0 4.634 3.385 9.761 8.087 10.551l-1.287 1.716c-0.152 0.202-0.176 0.472-0.063 0.698s0.344 0.368 0.596 0.368h1.283c-0.091 0.567-0.298 0.932-0.529 1.336-0.354 0.619-0.755 1.32-0.755 2.664s0.401 2.045 0.755 2.664c0.311 0.544 0.579 1.013 0.579 2.003 0 0.368 0.298 0.667 0.667 0.667s0.667-0.298 0.667-0.667c0-1.344-0.401-2.045-0.755-2.664-0.311-0.544-0.579-1.013-0.579-2.003s0.268-1.459 0.579-2.003c0.288-0.504 0.595-1.082 0.704-1.997h1.384c0.253 0 0.483-0.142 0.596-0.368s0.089-0.496-0.063-0.698l-1.287-1.716zM13.63 4.555c-1.635 0.815-2.731 2.379-2.93 4.185-0.038 0.341-0.327 0.593-0.662 0.593-0.024 0-0.050-0.001-0.074-0.004-0.366-0.041-0.63-0.37-0.589-0.736 0.251-2.258 1.619-4.214 3.661-5.231 0.333-0.165 0.73-0.030 0.895 0.299s0.030 0.73-0.3 0.894z"></path>
<path d="M32 13.333c0-2.87-1.847-5.406-4.596-6.309-0.221-0.072-0.461-0.026-0.638 0.124s-0.264 0.38-0.23 0.608c0.089 0.597 0.131 1.098 0.131 1.577 0 3.581-1.839 7.405-4.685 9.743-0.157 0.129-0.247 0.323-0.243 0.526s0.1 0.395 0.261 0.518c0.727 0.558 1.515 0.919 2.316 1.091l-0.245 0.49c-0.104 0.206-0.092 0.452 0.029 0.648s0.336 0.316 0.567 0.316h0.071c0.139 0.653 0.464 1.070 0.741 1.417 0.314 0.392 0.521 0.65 0.521 1.25s-0.207 0.858-0.521 1.25c-0.362 0.453-0.812 1.016-0.812 2.083 0 0.369 0.298 0.667 0.667 0.667s0.667-0.298 0.667-0.667c0-0.6 0.207-0.858 0.521-1.25 0.362-0.453 0.812-1.016 0.812-2.083s-0.45-1.63-0.812-2.083c-0.174-0.217-0.31-0.398-0.401-0.614 0.181-0.035 0.348-0.125 0.447-0.285 0.122-0.197 0.133-0.442 0.029-0.648l-0.246-0.492c3.205-0.704 5.649-4.594 5.649-7.877z"></path>
<path d="M10.711 19.593c-3.216-2.246-5.378-6.37-5.378-10.26 0-1.357 0.26-2.691 0.773-3.967 0.098-0.244 0.044-0.523-0.139-0.712-0.185-0.19-0.464-0.254-0.708-0.163-3.146 1.149-5.26 4.167-5.26 7.509 0 3.98 2.975 8.547 6.97 9.235l-0.233 0.467c-0.104 0.206-0.092 0.452 0.029 0.648 0.107 0.173 0.291 0.272 0.49 0.296-0.094 0.39-0.267 0.669-0.477 0.984-0.347 0.52-0.779 1.168-0.779 2.37s0.432 1.85 0.779 2.37c0.31 0.465 0.555 0.832 0.555 1.63 0 0.368 0.298 0.667 0.667 0.667s0.667-0.298 0.667-0.667c0-1.202-0.432-1.85-0.779-2.37-0.31-0.465-0.555-0.832-0.555-1.63s0.245-1.165 0.555-1.63c0.275-0.412 0.594-0.918 0.718-1.703h0.060c0.231 0 0.445-0.12 0.567-0.316s0.133-0.442 0.029-0.648l-0.242-0.484c0.531-0.093 1.060-0.234 1.583-0.47 0.219-0.099 0.367-0.307 0.389-0.546s-0.086-0.471-0.283-0.608z"></path>
</svg>
