<!-- Generated by IcoMoon.io -->
<svg version="1.1" xmlns="http://www.w3.org/2000/svg" width="32" height="32" viewBox="0 0 32 32">
<title>cancel</title>
<path d="M16.003 0c-8.836 0-16 7.164-16 16s7.163 16 16 16c8.836 0 16-7.164 16-16s-7.164-16-16-16zM22.038 22.098c-0.639 0.638-1.674 0.638-2.312 0l-3.641-3.641-3.806 3.806c-0.639 0.638-1.673 0.638-2.312 0s-0.639-1.674 0-2.313l3.806-3.806-3.544-3.544c-0.638-0.639-0.638-1.674 0-2.312s1.674-0.639 2.312 0l3.544 3.544 3.378-3.378c0.639-0.638 1.674-0.639 2.312 0s0.639 1.674 0 2.312l-3.378 3.378 3.64 3.641c0.638 0.638 0.639 1.674-0 2.312z"></path>
</svg>
