<!-- Generated by IcoMoon.io -->
<svg version="1.1" xmlns="http://www.w3.org/2000/svg" width="32" height="32" viewBox="0 0 32 32">
<title>chat</title>
<path d="M28.797 27.447c4.718-5.442 4.139-13.649-1.184-18.411 2.734 9.581-4.496 19.151-14.456 19.151-0.192 0 0.966 0.007-3.593-0.021 2.493 2.481 5.814 3.834 9.28 3.834 0.009 0 12.215-0.063 12.223-0.063 0.833-0.004 1.248-1.018 0.654-1.605l-2.923-2.885z"></path>
<path d="M13.156 26.312c7.254 0 13.156-5.902 13.156-13.156s-5.901-13.156-13.156-13.156c-7.254 0-13.155 5.902-13.155 13.156 0 3.194 1.131 6.214 3.202 8.604l-2.923 2.885c-0.593 0.585-0.182 1.601 0.654 1.605 0.006 0 12.216 0.062 12.223 0.062zM7.563 8.5h11.249c0.518 0 0.937 0.42 0.937 0.938s-0.42 0.938-0.937 0.938h-11.249c-0.518 0-0.937-0.42-0.937-0.938s0.42-0.938 0.937-0.938zM7.563 12.25h11.249c0.518 0 0.937 0.42 0.937 0.938s-0.42 0.938-0.937 0.938h-11.249c-0.518 0-0.937-0.42-0.937-0.938s0.42-0.938 0.937-0.938zM6.625 16.938c0-0.518 0.42-0.938 0.937-0.938h11.249c0.518 0 0.937 0.42 0.937 0.938s-0.42 0.938-0.937 0.938h-11.249c-0.518 0-0.937-0.42-0.937-0.938z"></path>
</svg>
