<!-- Generated by IcoMoon.io -->
<svg version="1.1" xmlns="http://www.w3.org/2000/svg" width="32" height="32" viewBox="0 0 32 32">
<title>check-circle</title>
<path d="M16 0c-8.822 0-16 7.178-16 16s7.178 16 16 16c8.822 0 16-7.178 16-16s-7.178-16-16-16zM25.138 11.414l-11.529 11.529c-0.26 0.261-0.602 0.391-0.943 0.391s-0.682-0.13-0.943-0.391l-6.195-6.195c-0.26-0.26-0.26-0.682 0-0.943l0.943-0.943c0.26-0.26 0.682-0.26 0.943 0l5.253 5.253 10.586-10.586c0.26-0.26 0.682-0.26 0.943 0l0.943 0.943c0.26 0.26 0.26 0.683 0 0.943z"></path>
</svg>
