<!-- Generated by IcoMoon.io -->
<svg version="1.1" xmlns="http://www.w3.org/2000/svg" width="32" height="32" viewBox="0 0 32 32">
<title>check</title>
<path d="M30.603 2.082c-1.444-0.778-3.055 0.722-3.999 1.611-2.166 2.11-3.999 4.554-6.054 6.776-2.277 2.444-4.388 4.887-6.72 7.276-1.333 1.333-2.777 2.777-3.666 4.443-1.999-1.944-3.721-4.054-5.943-5.776-1.611-1.222-4.276-2.11-4.221 0.833 0.111 3.832 3.499 7.942 5.998 10.552 1.055 1.111 2.444 2.277 4.054 2.333 1.944 0.111 3.943-2.222 5.11-3.499 2.055-2.221 3.721-4.721 5.609-6.998 2.444-2.999 4.943-5.943 7.331-8.997 1.499-1.888 6.22-6.554 2.499-8.553zM2.444 17.022c-0.056 0-0.111 0-0.222 0.055-0.222-0.055-0.389-0.111-0.611-0.222 0.167-0.111 0.444-0.056 0.833 0.167z"></path>
</svg>
