<!-- Generated by IcoMoon.io -->
<svg version="1.1" xmlns="http://www.w3.org/2000/svg" width="32" height="32" viewBox="0 0 32 32">
<title>close</title>
<path d="M19.3 16.001l6.187-6.187c0.684-0.684 0.684-1.792 0-2.475l-0.825-0.825c-0.684-0.684-1.792-0.684-2.475 0l-6.187 6.187-6.187-6.188c-0.684-0.684-1.792-0.684-2.475 0l-0.826 0.825c-0.684 0.684-0.684 1.792 0 2.475l6.188 6.188-6.187 6.187c-0.684 0.684-0.684 1.792 0 2.475l0.825 0.825c0.684 0.684 1.792 0.684 2.475 0l6.187-6.187 6.187 6.187c0.684 0.684 1.792 0.684 2.475 0l0.825-0.825c0.684-0.684 0.684-1.792 0-2.475l-6.187-6.187z"></path>
</svg>
