<!-- Generated by IcoMoon.io -->
<svg version="1.1" xmlns="http://www.w3.org/2000/svg" width="32" height="32" viewBox="0 0 32 32">
<title>comment</title>
<path d="M29.188 2.938h-26.375c-1.551 0-2.813 1.262-2.813 2.813v15c0 1.551 1.262 2.812 2.813 2.812h2.875v4.688c0 0.775 0.886 1.21 1.5 0.75l7.25-5.438h14.75c1.551 0 2.812-1.262 2.812-2.812v-15c0-1.551-1.262-2.813-2.812-2.813zM12.25 17.938h-5.625c-0.518 0-0.938-0.42-0.938-0.938s0.42-0.938 0.938-0.938h5.625c0.518 0 0.938 0.42 0.938 0.938s-0.42 0.938-0.938 0.938zM6.625 14.188c-0.518 0-0.938-0.42-0.938-0.938s0.42-0.938 0.938-0.938h11.25c0.518 0 0.938 0.42 0.938 0.938s-0.42 0.938-0.938 0.938h-11.25zM25.375 17.938h-9.375c-0.518 0-0.938-0.42-0.938-0.938s0.42-0.938 0.938-0.938h9.375c0.518 0 0.937 0.42 0.937 0.938s-0.42 0.938-0.937 0.938zM25.375 14.188h-3.75c-0.518 0-0.937-0.42-0.937-0.938s0.42-0.938 0.937-0.938h3.75c0.518 0 0.937 0.42 0.937 0.938s-0.42 0.938-0.937 0.938zM25.375 10.438h-18.75c-0.518 0-0.938-0.42-0.938-0.938s0.42-0.938 0.938-0.938h18.75c0.518 0 0.937 0.42 0.937 0.938s-0.42 0.938-0.937 0.938z"></path>
</svg>
