<!-- Generated by IcoMoon.io -->
<svg version="1.1" xmlns="http://www.w3.org/2000/svg" width="32" height="32" viewBox="0 0 32 32">
<title>compare</title>
<path d="M30.897 27.035h-29.793c-0.609 0-1.103 0.494-1.103 1.103v0.552c0 0.609 0.494 1.103 1.103 1.103h29.793c0.609 0 1.103-0.494 1.103-1.103v-0.552c0-0.609-0.494-1.103-1.103-1.103z"></path>
<path d="M3.311 20.965v4.966h4.414v-9.931c-0.002-0.609-0.495-1.102-1.103-1.103h-2.207c-0.609 0.002-1.102 0.495-1.103 1.103v4.965z"></path>
<path d="M18.759 14.896h2.207c0.609 0 1.103 0.494 1.103 1.103v9.931h-4.414v-9.931c0-0.609 0.494-1.103 1.103-1.103z"></path>
<path d="M11.587 2.207h2.207c0.609 0 1.103 0.494 1.103 1.103v22.621h-4.414v-22.621c0-0.609 0.494-1.103 1.103-1.103z"></path>
<path d="M25.932 2.207h2.207c0.609 0 1.104 0.494 1.104 1.103v22.621h-4.414v-22.621c0-0.609 0.494-1.103 1.103-1.103z"></path>
</svg>
