<!-- Generated by IcoMoon.io -->
<svg version="1.1" xmlns="http://www.w3.org/2000/svg" width="32" height="32" viewBox="0 0 32 32">
<title>confirmed</title>
<path d="M12.973 15.321l-1.455 1.28 3.491 3.891 0.007-0.007 0.005 0.007 6.26-6.362-1.117-1.469-5.088 4.187-2.102-1.527z"></path>
<path d="M15.999 0c-8.836 0-15.999 7.164-15.999 16s7.163 16 15.999 16c8.836 0 16-7.164 16-16s-7.164-16-16-16zM16 24.841c-8.233 0-8.819-13.93-8.819-13.93l8.819-3.753 8.819 3.753c0 0-0.586 13.93-8.819 13.93z"></path>
</svg>
