<!-- Generated by IcoMoon.io -->
<svg version="1.1" xmlns="http://www.w3.org/2000/svg" width="43" height="32" viewBox="0 0 43 32">
<title>education</title>
<path d="M41.705 7.059l-20.022-7.059c-0.123-0.044-0.264-0.070-0.412-0.070s-0.289 0.026-0.421 0.073l0.009-0.003-20.022 7.059c-0.487 0.178-0.829 0.637-0.829 1.177s0.341 0.999 0.82 1.174l0.009 0.003 20.035 7.126c0.123 0.042 0.265 0.066 0.412 0.066s0.289-0.024 0.422-0.068l-0.009 0.003 20.022-7.126c0.487-0.178 0.828-0.637 0.828-1.177s-0.341-0.999-0.82-1.174l-0.009-0.003z"></path>
<path d="M39.684 22.056v-9.226l-2.22 0.758v8.469c-0.679 0.346-1.136 1.041-1.136 1.841s0.457 1.495 1.124 1.836l0.012 0.005v5.198c0.063 0.562 0.536 0.995 1.11 0.995s1.047-0.433 1.11-0.99l0-0.005v-5.198c0.67-0.353 1.12-1.045 1.12-1.841s-0.449-1.488-1.108-1.836l-0.011-0.005z"></path>
<path d="M21.271 19.091c-0.007 0-0.016 0-0.025 0-0.439 0-0.86-0.078-1.25-0.221l0.025 0.008-11.261-3.988v5.491c0 1.329 1.329 2.473 4.161 3.364 2.438 0.776 5.241 1.224 8.149 1.224 0.070 0 0.14-0 0.21-0.001l-0.011 0c0.059 0 0.129 0.001 0.2 0.001 2.908 0 5.712-0.447 8.346-1.277l-0.197 0.053c2.765-0.891 4.161-2.021 4.161-3.364v-5.504l-11.261 3.988c-0.371 0.142-0.801 0.224-1.249 0.226h-0.001z"></path>
</svg>
