<!-- Generated by IcoMoon.io -->
<svg version="1.1" xmlns="http://www.w3.org/2000/svg" width="32" height="32" viewBox="0 0 32 32">
<title>extreme</title>
<path d="M25.936 4.031c-1.993-1.993-4.479-3.313-7.183-3.848 1.209 1.654 2.074 3.76 2.529 6.181 0.387 2.060 0.337 4.156-0.147 6.229l-1.886-0.441c0.423-1.809 0.466-3.637 0.129-5.431-0.349-1.86-1.155-4.473-3.009-6.369l-0.369-0.354-0.369 0.354c-1.854 1.896-2.66 4.509-3.009 6.369-0.337 1.794-0.293 3.622 0.129 5.431l-1.886 0.441c-0.484-2.073-0.534-4.169-0.147-6.229 0.455-2.421 1.32-4.527 2.529-6.181-2.704 0.534-5.191 1.855-7.184 3.848-2.654 2.654-4.116 6.183-4.116 9.936 0 0.624 0.042 1.256 0.125 1.878l0.080 0.597h1.522c0.558-0.476 1.141-0.917 1.745-1.322l6.577 11.34c0.007-0.909 0.319-1.747 0.838-2.416l-5.753-9.92c1.205-0.64 2.475-1.148 3.787-1.516l2.779 10.647c0.523-0.381 1.141-0.638 1.811-0.729l-2.7-10.345c1.065-0.184 2.149-0.28 3.241-0.28s2.176 0.095 3.241 0.28l-2.7 10.345c0.67 0.091 1.288 0.348 1.811 0.729l2.779-10.647c1.312 0.368 2.582 0.876 3.787 1.516l-5.753 9.92c0.519 0.669 0.831 1.507 0.837 2.416l6.578-11.34c0.604 0.405 1.187 0.846 1.745 1.322h1.522l0.080-0.597c0.083-0.622 0.125-1.254 0.125-1.878 0-3.753-1.462-7.282-4.116-9.936z"></path>
<path d="M17.269 28.121c0.485-0.378 0.797-0.967 0.797-1.63 0-1.141-0.925-2.066-2.066-2.066s-2.066 0.925-2.066 2.066c0 0.663 0.312 1.252 0.797 1.63-1.196 0.498-2.037 1.677-2.037 3.053v0.826h6.61v-0.826c0-1.376-0.841-2.555-2.037-3.053z"></path>
</svg>
