<!-- Generated by IcoMoon.io -->
<svg version="1.1" xmlns="http://www.w3.org/2000/svg" width="32" height="32" viewBox="0 0 32 32">
<title>food-tray</title>
<path d="M16.937 2.020v-1.082c0-0.518-0.419-0.938-0.938-0.938s-0.938 0.419-0.938 0.938v1.043c-6.236 0.429-9.769 5.069-10.869 9.332h23.653c-1.204-5.069-5.583-8.881-10.909-9.293z"></path>
<path d="M31.063 13.188h-30.125c-0.52 0-0.939 0.43-0.938 0.95 0.001 0.211 0.016 0.418 0.044 0.621 0.181 1.285 1.386 2.179 2.684 2.179h26.539c1.297 0 2.505-0.892 2.688-2.176 0.029-0.203 0.044-0.411 0.045-0.623 0.002-0.52-0.417-0.951-0.937-0.951z"></path>
<path d="M27.035 18.813h-2.918c-0.995 0-1.948 0.395-2.652 1.098l-3.040 3.040c-0.352 0.352-0.829 0.549-1.326 0.549h-5.091c-0.15 0-0.282-0.1-0.322-0.245s0.022-0.299 0.152-0.375c0 0 3.407-2.019 5.004-2.967 0.040-0.137 0.112-0.268 0.123-0.411 0.016-0.196-0.015-0.435-0.085-0.689h-6.474c-0.607 0-1.207 0.142-1.742 0.429-0.606 0.324-1.251 0.683-1.955 1.094-1.545 0.902-2.076 2.175-2.692 3.65-0.417 1.003-0.892 2.139-1.791 3.487-0.566 0.845 0.281 1.541 1.354 2.423 1.85 1.521 2.611 2.105 3.109 2.105 0.239 0 0.417-0.087 0.625-0.301 1.053-1.076 2.565-1.637 4.070-1.637h3.664c1.857 0 3.636-0.792 4.876-2.17l7.484-8.236c0.134-0.148 0.169-0.361 0.088-0.544s-0.262-0.3-0.462-0.3z"></path>
</svg>
