<svg version="1.1" xmlns="http://www.w3.org/2000/svg" width="32" height="32" viewBox="0 0 32 32">
<title>gift</title>
<path d="M2 16.98v12c0 1.104 0.898 2 2 2h10v-14h-12z"></path>
<path d="M30 8.981h-6.328c0.454-0.31 0.844-0.618 1.116-0.894 1.614-1.622 1.614-4.262 0-5.884-1.568-1.58-4.3-1.576-5.866 0-0.868 0.87-3.168 4.412-2.85 6.778h-0.144c0.316-2.366-1.984-5.908-2.85-6.778-1.568-1.576-4.3-1.576-5.866 0-1.612 1.622-1.612 4.262-0.002 5.884 0.274 0.276 0.664 0.584 1.118 0.894h-6.328c-1.102 0-2 0.898-2 2v3c0 0.552 0.448 1 1 1h13v-4h4v4h13c0.552 0 1-0.448 1-1v-3c0-1.102-0.896-2-2-2zM13.882 8.915c0 0-0.084 0.066-0.37 0.066-1.382 0-4.020-1.436-4.882-2.304-0.838-0.844-0.838-2.22 0-3.064 0.406-0.408 0.944-0.632 1.516-0.632 0.57 0 1.108 0.224 1.514 0.632 1.348 1.356 2.688 4.82 2.222 5.302zM18.486 8.981c-0.284 0-0.368-0.064-0.368-0.066-0.466-0.482 0.874-3.946 2.222-5.302 0.806-0.814 2.216-0.818 3.030 0 0.84 0.844 0.84 2.22 0 3.064-0.862 0.868-3.5 2.304-4.884 2.304z"></path>
<path d="M18 16.98v14h10c1.104 0 2-0.896 2-2v-12h-12z"></path>
</svg>
