<!-- Generated by IcoMoon.io -->
<svg version="1.1" xmlns="http://www.w3.org/2000/svg" width="32" height="32" viewBox="0 0 32 32">
<title>guitar</title>
<path d="M28.965 0.055l-1.635 1.411-1.466-1.466-1.327 1.327 1.369 1.369-0.53 0.457-1.566-1.566-1.327 1.327 1.468 1.468-1.603 1.384 1.111 1.111-7.585 7.585-0.562-0.361c-0.094-0.061-0.138-0.174-0.108-0.282l0.383-1.397c0.253-0.924-0.128-1.884-0.949-2.388-0.808-0.497-1.82-0.405-2.519 0.228-0.024 0.022-0.048 0.044-0.070 0.066-1.188 1.188-1.686 2.152-2.125 3.003-0.404 0.782-0.753 1.457-1.612 2.316-0.621 0.621-1.427 0.927-2.359 1.28-1.038 0.394-2.215 0.84-3.203 1.828-1.704 1.705-2.258 3.578-1.644 5.568 0.54 1.752 1.905 3.272 3.034 4.401s2.649 2.494 4.401 3.034c0.524 0.162 1.040 0.242 1.547 0.242 1.418 0 2.765-0.631 4.021-1.886 0.988-0.988 1.434-2.165 1.828-3.203 0.353-0.932 0.659-1.738 1.28-2.359 0.608-0.608 1.090-0.834 1.648-1.096 0.625-0.293 1.333-0.626 2.167-1.46 0.186-0.186 0.383-0.454 0.602-0.821 0.401-0.67 0.407-1.474 0.017-2.151-0.385-0.67-1.104-1.078-1.876-1.070l-1.767 0.022c-0.118 0.004-0.221-0.077-0.25-0.191l-0.076-0.296 8.195-8.195 1.258 1.258 3.999-5.122-2.17-5.376zM9.758 26.729l-3.622-3.622 1.327-1.327 3.622 3.622-1.327 1.327zM12.189 23.609l-2.933-2.933 1.327-1.327 2.933 2.933-1.327 1.327z"></path>
</svg>
