<!-- Generated by IcoMoon.io -->
<svg version="1.1" xmlns="http://www.w3.org/2000/svg" width="32" height="32" viewBox="0 0 32 32">
<title>hair-dye</title>
<path d="M15.713 24.514c-1.854 1.127-4.18 1.129-6.036 0.006v3.614c0.001 0.308 0.249 0.559 0.557 0.563h4.932c0.306-0.002 0.553-0.251 0.552-0.557-0.009-0.137-0.006 0.339-0.006-3.625z"></path>
<path d="M25.103 25.933c3.334 0 6.036-0.494 6.036-1.103s-2.702-1.103-6.036-1.103c-3.333 0-6.036 0.494-6.036 1.103s2.702 1.103 6.036 1.103z"></path>
<path d="M20.386 14.030c-0.066-0.028-0.237-0.006-0.491 0.143-0.006 1.269-0.119 2.535-0.337 3.785 0.579-0.342 1.131-1.059 1.131-2.532 0-1.225-0.292-1.39-0.303-1.396z"></path>
<path d="M0.723 24.934c0.756 0.85 2.177 2.097 7.848 2.51v-3.796c-1.173-1.237-2.020-2.746-2.463-4.392-0.883-0.237-2.521-1.048-2.521-3.829 0-1.291 0.298-2.069 0.91-2.378 0.305-0.146 0.654-0.172 0.977-0.072 0.028-2.963 0.789-4.999 2.345-6.212 0.14-0.127 0.336-0.174 0.518-0.124s0.326 0.191 0.381 0.372c0.37 0.905 1.374 2.367 3.972 2.367 3.961 0 4.883 0.072 6.99 2.196 0.108 0.095 0.175 0.227 0.188 0.37 0.022 0.326 0.033 0.673 0.039 1.032 0.323-0.1 0.672-0.074 0.977 0.072 0.612 0.309 0.91 1.087 0.91 2.378 0 2.792-1.65 3.597-2.532 3.834-0.446 1.636-1.286 3.138-2.447 4.375v3.812c0.761-0.055 1.481-0.132 2.138-0.221l-0.27-1.352c-0.419-0.191-0.705-0.59-0.75-1.048 0-1.33 2.781-1.892 5.054-2.102-0.413-1.49-0.156-3.206 0.039-4.761 0.165-1.49 0.078-2.924 0.43-4.314 0.157-0.611 0.24-1.239 0.248-1.87-0.508-0.216-1.046-0.357-1.595-0.419-1.103-0.129-2.13-0.629-2.913-1.418l-3.542-3.537c-0.463-0.462-0.611-1.153-0.377-1.764s0.805-1.027 1.458-1.061c0.001-0.041 0.004-0.081 0.011-0.121-1.947-0.531-5.137-0.179-7.79 1.269-0.174 0.092-0.204 0.055-0.833 0.055-1.694 0.033-5.716 0.673-6.212 5.848-0.544 5.517 2.475 12.547-1.186 14.301z"></path>
<path d="M26.207 30.896h-5.517v0.552c0 0.305 0.247 0.552 0.552 0.552h7.724c0.305 0 0.552-0.247 0.552-0.552 0-1.558-0.134-0.487 0.778-5.059-3.409 0.848-6.974 0.848-10.383 0l0.237 1.197c0 0.012 0.005 0.003 0.005 0.016l0.436 2.19h5.616c0.305 0 0.552 0.247 0.552 0.552s-0.247 0.552-0.552 0.552z"></path>
<path d="M18.802 13.115c0-0.303-0.006-0.601-0.022-0.883-1.705-1.688-2.273-1.749-6.091-1.749-2.72 0-4.055-1.374-4.668-2.411-0.971 1.059-1.446 2.72-1.446 5.043 0 3.018 0.199 5.308 1.186 7.421 1.148 2.466 2.808 3.719 4.927 3.719 2.102 0 3.757-1.252 4.916-3.719 0.999-2.119 1.197-4.408 1.197-7.421z"></path>
<path d="M4.993 14.032c-0.011 0.006-0.303 0.171-0.303 1.396 0 1.473 0.546 2.185 1.125 2.527-0.216-1.248-0.327-2.512-0.331-3.779-0.254-0.149-0.431-0.172-0.491-0.143z"></path>
<path d="M30.833 12.218l-2.64-2.638c-0.943-0.984-1.526-2.258-1.655-3.615-0.159-1.33-0.865-2.114-1.906-3.059-0.037-0.055 0.077 0.072-2.739-2.744-0.216-0.209-0.561-0.206-0.773 0.007s-0.216 0.557-0.007 0.773l2.372 2.369-0.78 0.781-2.369-2.369c-0.216-0.209-0.561-0.206-0.773 0.007s-0.216 0.557-0.007 0.773l2.369 2.369-0.78 0.78-2.37-2.369c-0.216-0.209-0.561-0.206-0.773 0.007s-0.216 0.557-0.007 0.773l2.372 2.369-0.781 0.781-2.372-2.37c-0.139-0.143-0.344-0.201-0.537-0.15s-0.344 0.201-0.394 0.394c-0.050 0.193 0.007 0.398 0.15 0.537 2.211 2.211 3.448 3.446 3.541 3.538 0.609 0.612 1.405 1 2.262 1.103 1.357 0.129 2.63 0.713 3.615 1.655l2.703 2.703c0.665 0.628 1.713 0.599 2.341-0.066s0.599-1.713-0.066-2.341h0.003z"></path>
</svg>
