<!-- Generated by IcoMoon.io -->
<svg version="1.1" xmlns="http://www.w3.org/2000/svg" width="32" height="32" viewBox="0 0 32 32">
<title>increase</title>
<path d="M26.405 26h-18.404v-24h5.675c0.44 0 0.796 0.356 0.796 0.796v3.239c0 0.44-0.356 0.796-0.796 0.796h-5.675v1.593h10.449c0.44 0 0.796 0.356 0.796 0.796v3.186c0 0.44-0.356 0.796-0.796 0.796h-10.449v1.593h15.222c0.44 0 0.796 0.356 0.796 0.796v3.186c0 0.44-0.356 0.796-0.796 0.796h-15.222v1.593h18.404c0.44 0 0.796 0.356 0.796 0.796v3.239c0 0.44-0.356 0.796-0.796 0.796z"></path>
</svg>
