<!-- Generated by IcoMoon.io -->
<svg version="1.1" xmlns="http://www.w3.org/2000/svg" width="32" height="32" viewBox="0 0 32 32">
<title>like</title>
<path d="M3.333 14c-1.837 0-3.333 1.496-3.333 3.333v10.667c0 1.837 1.496 3.333 3.333 3.333h4c0.751 0 1.441-0.253 2-0.675v-16.659h-6z"></path>
<path d="M32 18.999c0-0.801-0.317-1.548-0.868-2.099 0.623-0.681 0.94-1.595 0.853-2.545-0.156-1.695-1.683-3.023-3.477-3.023h-8.236c0.408-1.239 1.061-3.509 1.061-5.333 0-2.892-2.457-5.333-4-5.333-1.385 0-2.375 0.78-2.417 0.812-0.157 0.127-0.249 0.319-0.249 0.521v4.521l-3.84 8.319-0.16 0.081v14.291c1.085 0.512 2.459 0.788 3.333 0.788h12.239c1.452 0 2.723-0.979 3.021-2.329 0.153-0.695 0.064-1.395-0.241-2.003 0.985-0.496 1.648-1.511 1.648-2.668 0-0.472-0.108-0.924-0.313-1.333 0.985-0.496 1.647-1.511 1.647-2.667z"></path>
</svg>
