<!-- Generated by IcoMoon.io -->
<svg version="1.1" xmlns="http://www.w3.org/2000/svg" width="28" height="32" viewBox="0 0 28 32">
<title>location</title>
<path d="M14 0c-6.656 0-12.071 5.415-12.071 12.070 0 9.582 10.776 19.209 11.235 19.614 0.24 0.211 0.538 0.316 0.836 0.316 0.31 0 0.62-0.114 0.861-0.34 0.457-0.428 11.209-10.584 11.209-19.589 0-6.655-5.416-12.071-12.071-12.071zM14 17.826c-3.179 0-5.755-2.578-5.755-5.754s2.576-5.754 5.755-5.754c3.177 0 5.753 2.577 5.753 5.754s-2.576 5.754-5.753 5.754z"></path>
</svg>
