<!-- Generated by IcoMoon.io -->
<svg version="1.1" xmlns="http://www.w3.org/2000/svg" width="32" height="32" viewBox="0 0 32 32">
<title>menu-list</title>
<path d="M3.938 2.063c-2.171 0-3.938 1.766-3.938 3.938s1.766 3.938 3.938 3.938c2.171 0 3.938-1.766 3.938-3.938s-1.766-3.938-3.938-3.938z"></path>
<path d="M3.938 12.063c-2.171 0-3.938 1.766-3.938 3.938s1.766 3.937 3.938 3.937 3.938-1.766 3.938-3.937c0-2.171-1.766-3.938-3.938-3.938z"></path>
<path d="M3.938 22.063c-2.171 0-3.938 1.766-3.938 3.937s1.766 3.937 3.938 3.937c2.171 0 3.938-1.766 3.938-3.937s-1.766-3.937-3.938-3.937z"></path>
<path d="M29.063 3.063h-16.125c-1.62 0-2.938 1.318-2.938 2.938s1.318 2.938 2.938 2.938h16.125c1.62 0 2.937-1.318 2.937-2.938s-1.318-2.938-2.937-2.938z"></path>
<path d="M29.063 13.063h-16.125c-1.62 0-2.938 1.318-2.938 2.938s1.318 2.937 2.938 2.937h16.125c1.62 0 2.937-1.318 2.937-2.937s-1.318-2.938-2.937-2.938z"></path>
<path d="M29.063 23.063h-16.125c-1.62 0-2.938 1.318-2.938 2.937s1.318 2.937 2.938 2.937h16.125c1.62 0 2.937-1.318 2.937-2.937s-1.318-2.937-2.937-2.937z"></path>
</svg>
