<!-- Generated by IcoMoon.io -->
<svg version="1.1" xmlns="http://www.w3.org/2000/svg" width="32" height="32" viewBox="0 0 32 32">
<title>menu</title>
<path d="M29.055 4.018h-26.11c-1.624 0-2.945 1.321-2.945 2.947 0 1.624 1.321 2.945 2.945 2.945h26.11c1.624 0 2.945-1.321 2.945-2.945 0-1.626-1.321-2.947-2.945-2.947z"></path>
<path d="M29.055 13.055h-26.11c-1.624 0-2.945 1.321-2.945 2.947 0 1.624 1.321 2.945 2.945 2.945h26.11c1.624 0 2.945-1.321 2.945-2.945 0-1.626-1.321-2.947-2.945-2.947z"></path>
<path d="M29.055 22.092h-26.11c-1.624 0-2.945 1.321-2.945 2.947 0 1.624 1.321 2.945 2.945 2.945h26.11c1.624 0 2.945-1.321 2.945-2.945 0-1.626-1.321-2.947-2.945-2.947z"></path>
</svg>
