<!-- Generated by IcoMoon.io -->
<svg version="1.1" xmlns="http://www.w3.org/2000/svg" width="32" height="32" viewBox="0 0 32 32">
<title>notification</title>
<path d="M14.647 32c2.415 0 4.435-1.721 4.899-4h-9.797c0.464 2.279 2.484 4 4.899 4z"></path>
<path d="M23.996 15.998c-0.005 0-0.011 0.001-0.016 0.001-5.145 0-9.333-4.187-9.333-9.333 0-1.415 0.325-2.752 0.892-3.955-0.293-0.028-0.591-0.045-0.892-0.045-5.155 0-9.333 4.178-9.333 9.333v3.717c0 2.639-1.156 5.129-3.184 6.844-0.676 0.577-0.976 1.497-0.733 2.395 0.283 1.044 1.315 1.711 2.397 1.711h21.7c1.136 0 2.207-0.736 2.437-1.849 0.179-0.861-0.128-1.721-0.796-2.283-1.939-1.625-3.060-4.014-3.139-6.536z"></path>
<path d="M30.647 6.667c0 3.682-2.985 6.667-6.667 6.667s-6.667-2.985-6.667-6.667 2.985-6.667 6.667-6.667c3.682 0 6.667 2.985 6.667 6.667z"></path>
</svg>
