<!-- Generated by IcoMoon.io -->
<svg version="1.1" xmlns="http://www.w3.org/2000/svg" width="32" height="32" viewBox="0 0 32 32">
<title>orders</title>
<path d="M25.438 2.875h-18.875c-3.619 0-6.563 2.944-6.563 6.563v10.136c0 2.887 1.896 5.402 4.643 6.207l3.169 3.17c0.176 0.176 0.414 0.275 0.663 0.275s0.487-0.099 0.663-0.275l2.907-2.908h13.392c3.619 0 6.562-2.944 6.562-6.562v-10.042c0-3.619-2.944-6.563-6.562-6.563zM9.11 16.116c0-0.518 0.42-0.938 0.938-0.938h11.905c0.518 0 0.938 0.42 0.938 0.938s-0.42 0.938-0.938 0.938h-11.905c-0.518 0-0.938-0.42-0.938-0.938zM21.953 13.739h-11.905c-0.518 0-0.938-0.42-0.938-0.938s0.42-0.938 0.938-0.938h11.905c0.518 0 0.938 0.42 0.938 0.938s-0.42 0.938-0.938 0.938z"></path>
</svg>
