<!-- Generated by IcoMoon.io -->
<svg version="1.1" xmlns="http://www.w3.org/2000/svg" width="32" height="32" viewBox="0 0 32 32">
<title>paint</title>
<path d="M23.325 22.471c-1.701 2.496-3.685 4.969-5.479 6.822-0.628 0.648-1.217 1.207-1.763 1.672 5.354-0.102 10.383-3.022 7.616-7.906-0.123-0.202-0.248-0.397-0.374-0.588z"></path>
<path d="M11.396 24.986c0-1.234 1-2.235 2.235-2.235 0.162 0 0.32 0.018 0.472 0.050 0.867-1.618 1.87-3.284 2.938-4.871 0.831-1.236 1.602-2.273 2.319-3.122-0.122-1.249-0.033-2.735 0.354-4.598 1.955-9.403-14.056-15.989-18.748-0.794-2.905 9.385 0.894 16.424 9.385 20.446 0.29 0.135 0.591 0.257 0.899 0.366 0.079-0.893 0.409-2.062 0.987-3.496-0.512-0.409-0.84-1.039-0.84-1.745zM3.819 14.105c0-1.234 1-2.235 2.235-2.235s2.235 1 2.235 2.235c0 1.234-1.001 2.235-2.235 2.235s-2.235-1.001-2.235-2.235zM7.953 22.752c-1.234 0-2.235-1-2.235-2.234s1-2.235 2.235-2.235c1.234 0 2.235 1 2.235 2.235s-1.001 2.234-2.235 2.234zM9.798 6.396c0-1.572 1.275-2.847 2.847-2.847s2.847 1.275 2.847 2.847c0 1.572-1.275 2.847-2.847 2.847s-2.847-1.275-2.847-2.847z"></path>
<path d="M23.634 14.746c0 0 0 0-0.001 0-0.559-0.359-1.017-0.819-1.357-1.342-1.116 0.768-2.532 2.324-4.396 5.094-3.813 5.669-6.631 12.152-5.309 13.019 0.1 0.065 0.22 0.097 0.359 0.097 1.704 0 6.211-4.737 9.737-9.978 1.934-2.875 2.835-4.805 3.081-6.123-0.383-0.054-0.78-0.156-1.194-0.308-0.324-0.12-0.634-0.274-0.921-0.458z"></path>
<path d="M31.983 5.592c-0.074-0.337-0.379-0.574-0.723-0.56-2.76 0.103-4.966 0.64-6.556 1.595-1.809 1.087-2.366 2.429-2.515 3.362-0.114 0.714-0.020 1.427 0.242 2.076 0.435 1.076 1.334 1.976 2.522 2.415 0.623 0.23 1.185 0.342 1.717 0.342 0.081 0 0.161-0.003 0.241-0.008 0.604-0.040 1.18-0.231 1.715-0.571 1.594-1.011 1.46-2.672 1.342-4.138-0.147-1.825-0.149-2.979 1.592-3.702 0.319-0.132 0.497-0.474 0.424-0.811z"></path>
</svg>
