<!-- Generated by IcoMoon.io -->
<svg version="1.1" xmlns="http://www.w3.org/2000/svg" width="32" height="32" viewBox="0 0 32 32">
<title>plus</title>
<path d="M29.143 13.143h-9.714c-0.316 0-0.571-0.256-0.571-0.571v-9.714c0-1.578-1.279-2.857-2.857-2.857s-2.857 1.279-2.857 2.857v9.714c0 0.316-0.256 0.571-0.571 0.571h-9.714c-1.578 0-2.857 1.279-2.857 2.857s1.279 2.857 2.857 2.857h9.714c0.316 0 0.571 0.256 0.571 0.571v9.714c0 1.578 1.279 2.857 2.857 2.857s2.857-1.279 2.857-2.857v-9.714c0-0.316 0.256-0.571 0.571-0.571h9.714c1.578 0 2.857-1.279 2.857-2.857s-1.279-2.857-2.857-2.857z"></path>
</svg>
