<!-- Generated by IcoMoon.io -->
<svg version="1.1" xmlns="http://www.w3.org/2000/svg" width="32" height="32" viewBox="0 0 32 32">
<title>question</title>
<path d="M16 0c-8.823 0-16 7.177-16 16s7.177 16 16 16c8.823 0 16-7.177 16-16s-7.177-16-16-16zM15.333 26.667c-1.103 0-2-0.897-2-2s0.897-2 2-2 2 0.897 2 2c0 1.103-0.897 2-2 2zM17.333 18.534v2.133c0 0.369-0.298 0.667-0.667 0.667h-2.667c-0.368 0-0.667-0.298-0.667-0.667v-3.333c0-1.47 1.197-2.667 2.667-2.667s2.667-1.197 2.667-2.667c0-1.47-1.197-2.667-2.667-2.667s-2.667 1.197-2.667 2.667v0.667c0 0.368-0.298 0.667-0.667 0.667h-2.667c-0.368 0-0.667-0.298-0.667-0.667v-0.667c0-3.676 2.991-6.667 6.667-6.667s6.667 2.991 6.667 6.667c0 3.199-2.254 5.91-5.333 6.534z"></path>
</svg>
