<!-- Generated by IcoMoon.io -->
<svg version="1.1" xmlns="http://www.w3.org/2000/svg" width="32" height="32" viewBox="0 0 32 32">
<title>refresh</title>
<path d="M31.604 1.729c-0.264-0.264-0.576-0.396-0.938-0.396s-0.673 0.132-0.937 0.396l-2.708 2.688c-1.486-1.403-3.188-2.49-5.104-3.261s-3.889-1.156-5.917-1.156c-3.82 0-7.153 1.156-10 3.469s-4.722 5.329-5.625 9.052v0.146c0 0.181 0.066 0.337 0.198 0.469s0.288 0.198 0.469 0.198h4.146c0.306 0 0.514-0.16 0.625-0.479 0.583-1.389 0.951-2.201 1.104-2.437 0.972-1.583 2.264-2.826 3.875-3.729s3.347-1.354 5.208-1.354c2.792 0 5.216 0.951 7.271 2.854l-2.875 2.875c-0.263 0.264-0.396 0.577-0.396 0.938s0.132 0.674 0.396 0.937c0.264 0.264 0.577 0.396 0.938 0.396h9.333c0.361 0 0.674-0.132 0.938-0.396s0.395-0.576 0.395-0.937v-9.334c0-0.361-0.131-0.674-0.395-0.938z"></path>
<path d="M30.812 18.667h-4c-0.306 0-0.514 0.16-0.625 0.479-0.583 1.389-0.951 2.201-1.104 2.437-0.972 1.583-2.264 2.827-3.875 3.729s-3.348 1.354-5.209 1.354c-1.347 0-2.646-0.25-3.896-0.75s-2.368-1.209-3.354-2.126l2.854-2.854c0.264-0.264 0.396-0.576 0.396-0.937s-0.132-0.674-0.396-0.937c-0.264-0.264-0.576-0.396-0.937-0.396h-9.334c-0.361 0-0.674 0.132-0.938 0.396s-0.396 0.576-0.396 0.938v9.334c0 0.361 0.132 0.674 0.396 0.937s0.577 0.396 0.938 0.396c0.361 0 0.673-0.133 0.937-0.396l2.687-2.688c1.486 1.416 3.177 2.507 5.073 3.271s3.858 1.146 5.885 1.146c3.806 0 7.125-1.156 9.959-3.469s4.694-5.33 5.584-9.052c0.014-0.028 0.021-0.076 0.021-0.146 0-0.181-0.066-0.337-0.198-0.469-0.132-0.131-0.288-0.197-0.469-0.197z"></path>
</svg>
