<!-- Generated by IcoMoon.io -->
<svg version="1.1" xmlns="http://www.w3.org/2000/svg" width="32" height="32" viewBox="0 0 32 32">
<title>rub</title>
<path d="M18.002 10.64h-3.358v4.046h3.358c1.115 0 2.023-0.908 2.023-2.023s-0.908-2.023-2.023-2.023z"></path>
<path d="M27.312 4.69c-6.251-6.251-16.37-6.252-22.622 0s-6.252 16.37 0 22.622c6.251 6.251 16.37 6.252 22.622 0s6.252-16.37 0-22.622zM18.003 17.315h-3.358v1.376h2.69c0.726 0 1.314 0.588 1.314 1.314s-0.588 1.314-1.314 1.314h-2.69v1.356c0 0.726-0.588 1.314-1.314 1.314s-1.314-0.588-1.314-1.314v-1.356h-1.356c-0.726 0-1.314-0.588-1.314-1.314s0.588-1.314 1.314-1.314h1.356v-1.376h-1.356c-0.726 0-1.314-0.588-1.314-1.314s0.588-1.314 1.314-1.314h1.356v-5.36c0-0.726 0.588-1.314 1.314-1.314h4.672c2.565 0 4.651 2.086 4.651 4.651s-2.086 4.651-4.651 4.651z"></path>
</svg>
