<!-- Generated by IcoMoon.io -->
<svg version="1.1" xmlns="http://www.w3.org/2000/svg" width="32" height="32" viewBox="0 0 32 32">
<title>running</title>
<path d="M7.563 4.281h-4.75c-0.518 0-0.938 0.419-0.938 0.938s0.419 0.937 0.938 0.937h4.75c0.518 0 0.938-0.419 0.938-0.937s-0.419-0.938-0.938-0.938z"></path>
<path d="M7.563 11.781h-4.75c-0.518 0-0.938 0.419-0.938 0.938s0.419 0.937 0.938 0.937h4.75c0.518 0 0.938-0.419 0.938-0.937s-0.419-0.938-0.938-0.938z"></path>
<path d="M5.688 8.031h-4.75c-0.518 0-0.938 0.419-0.938 0.938s0.419 0.937 0.938 0.937h4.75c0.518 0 0.938-0.419 0.938-0.937s-0.419-0.938-0.938-0.938z"></path>
<path d="M30.125 12.72h-5.687v-3.75c0-1.647-2.014-2.514-3.201-1.325l-7.499 7.499c-0.732 0.732-0.732 1.919 0 2.651l4.299 4.299-5.237 5.237c-0.732 0.732-0.732 1.919 0 2.651s1.919 0.732 2.651 0l6.563-6.563c0.732-0.732 0.732-1.919 0-2.651l-4.299-4.299 2.974-2.974v1.099c0 1.035 0.839 1.875 1.875 1.875h7.562c1.035 0 1.875-0.84 1.875-1.875s-0.84-1.875-1.875-1.875z"></path>
<path d="M17.509 3.192c-0.745-0.495-1.734-0.397-2.366 0.234l-5.156 5.156c-0.732 0.732-0.732 1.919 0 2.651s1.919 0.732 2.651 0l4.069-4.069 1.371 0.988 1.832-1.832c0.306-0.306 0.668-0.544 1.063-0.73l-3.464-2.398z"></path>
<path d="M12.411 19.122c-0.475-0.475-0.792-1.060-0.959-1.692l-9.902 9.903c-0.732 0.732-0.732 1.919 0 2.651s1.919 0.733 2.651 0l9.536-9.536-1.326-1.326z"></path>
<path d="M25.375 7.094c1.553 0 2.813-1.259 2.813-2.813s-1.259-2.813-2.813-2.813c-1.553 0-2.813 1.259-2.813 2.813s1.259 2.813 2.813 2.813z"></path>
</svg>
