<!-- Generated by IcoMoon.io -->
<svg version="1.1" xmlns="http://www.w3.org/2000/svg" width="32" height="32" viewBox="0 0 32 32">
<title>self-care</title>
<path d="M18.024 29c0 2.068 1.682 3.75 3.75 3.75s3.75-1.682 3.75-3.75v-6.938h-7.5v6.938z"></path>
<path d="M18.024 18.875h7.5v-3c-0.428 0-7.073 0-7.5 0v3z"></path>
<path d="M30.158 3.759c-0.91-2.711-4.885-3.759-8.387-3.759-3.201 0-7.435 0.933-8.384 3.759-1.215 3.453 0.558 7.544 4.637 10.765v0.039h1.499l-0.767-2.332c-0.162-0.492 0.106-1.022 0.598-1.184s1.022 0.106 1.184 0.598l0.96 2.918h0.599l0.703-2.849c0.124-0.503 0.632-0.81 1.135-0.686s0.81 0.632 0.686 1.135l-0.592 2.401h1.497v-0.038c4.082-3.216 5.854-7.307 4.634-10.765z"></path>
<path d="M1.463 31.812c0 0.518 0.42 0.938 0.938 0.938h10.004c0.518 0 0.938-0.42 0.938-0.938v-6.562h-11.879v6.562z"></path>
<path d="M12.404 18.271h-0.939v-3.708h-8.131v3.708h-0.934c-0.518 0-0.938 0.42-0.938 0.938v2.854h11.879v-2.854c0-0.518-0.42-0.938-0.938-0.938z"></path>
<path d="M11.465 5.438c0-1.063-1.042-1.817-2.052-1.484l-5.435 1.795c-0.384 0.127-0.644 0.486-0.644 0.89v6.61h8.131v-7.811h-0z"></path>
</svg>
