<!-- Generated by IcoMoon.io -->
<svg version="1.1" xmlns="http://www.w3.org/2000/svg" width="32" height="32" viewBox="0 0 32 32">
<title>settings</title>
<path d="M31.040 19.507l-2.941-2.3c0.037-0.355 0.069-0.769 0.069-1.208s-0.031-0.853-0.069-1.208l2.944-2.301c0.547-0.432 0.696-1.199 0.348-1.837l-3.059-5.292c-0.327-0.597-1.043-0.904-1.769-0.636l-3.471 1.393c-0.665-0.48-1.363-0.885-2.084-1.209l-0.528-3.681c-0.087-0.699-0.695-1.227-1.413-1.227h-6.133c-0.719 0-1.325 0.528-1.411 1.216l-0.529 3.695c-0.699 0.315-1.385 0.715-2.080 1.209l-3.48-1.397c-0.652-0.252-1.432 0.031-1.756 0.625l-3.063 5.299c-0.361 0.611-0.212 1.404 0.347 1.847l2.941 2.3c-0.047 0.449-0.069 0.84-0.069 1.207s0.023 0.757 0.069 1.208l-2.944 2.301c-0.547 0.433-0.695 1.2-0.347 1.837l3.059 5.292c0.327 0.596 1.036 0.905 1.769 0.636l3.471-1.393c0.664 0.479 1.361 0.884 2.083 1.209l0.528 3.68c0.087 0.701 0.693 1.229 1.413 1.229h6.133c0.719 0 1.327-0.528 1.412-1.216l0.529-3.693c0.699-0.316 1.384-0.715 2.080-1.211l3.48 1.397c0.168 0.065 0.343 0.099 0.523 0.099 0.517 0 0.993-0.283 1.233-0.723l3.072-5.32c0.341-0.624 0.192-1.391-0.357-1.827zM16 21.333c-2.941 0-5.333-2.392-5.333-5.333s2.392-5.333 5.333-5.333c2.941 0 5.333 2.392 5.333 5.333s-2.392 5.333-5.333 5.333z"></path>
</svg>
