<svg width="16" height="16" viewBox="0 0 16 16" fill="none" xmlns="http://www.w3.org/2000/svg">
<g clip-path="url(#clip0)">
<path d="M15.3124 5.36889C15.275 5.33374 15.229 5.30902 15.1791 5.2973L10.5271 4.22272L8.07238 0.142369C7.98982 0.00396825 7.81069 -0.041307 7.67229 0.0412184C7.6307 0.0660232 7.59594 0.100784 7.57114 0.142369L5.11469 4.22272L0.471299 5.2973C0.314445 5.33443 0.217371 5.49162 0.254493 5.64848C0.265178 5.69375 0.28655 5.73577 0.316805 5.77109L3.44101 9.3725L3.02044 14.1206C3.00551 14.2801 3.12275 14.4215 3.28227 14.4365C3.33059 14.441 3.37925 14.4333 3.42384 14.4141L7.44926 12.7113L6.05882 11.108C5.75404 10.7562 5.79214 10.2238 6.14396 9.91907C6.24803 9.8289 6.37265 9.7656 6.50685 9.7347L9.02853 9.15106L10.3606 6.93665C10.6009 6.53943 11.1164 6.41 11.5159 6.64655C11.6363 6.71826 11.7367 6.81924 11.8077 6.94009L12.8377 8.64638L15.325 5.78138C15.4355 5.66401 15.4298 5.47935 15.3124 5.36889Z" fill="black"/>
<path d="M15.6612 10.3449C15.6238 10.3097 15.5778 10.285 15.5279 10.2733L12.7813 9.63817L11.3308 7.22635C11.2482 7.08795 11.0691 7.04268 10.9307 7.1252C10.8891 7.15001 10.8543 7.18477 10.8295 7.22635L9.37215 9.63817L6.6256 10.2733C6.46874 10.3104 6.37167 10.4676 6.40879 10.6245C6.41948 10.6698 6.44085 10.7118 6.4711 10.7471L8.32331 12.8757L8.07955 15.684C8.06462 15.8435 8.18186 15.9849 8.34138 15.9999C8.3897 16.0044 8.43837 15.9967 8.48295 15.9776L11.0785 14.8772L13.6533 15.9673C13.7957 16.0428 13.9724 15.9885 14.0479 15.8462C14.0743 15.7964 14.0857 15.7401 14.0808 15.684L13.8353 12.8757L15.6738 10.7574C15.7842 10.64 15.7786 10.4554 15.6612 10.3449Z" fill="black"/>
</g>
<defs>
<clipPath id="clip0">
<rect width="16" height="16" fill="white"/>
</clipPath>
</defs>
</svg>
