<!-- Generated by IcoMoon.io -->
<svg version="1.1" xmlns="http://www.w3.org/2000/svg" width="32" height="32" viewBox="0 0 32 32">
<title>stop</title>
<path d="M26.188 14.041h-0.673v1.395c0 0 0.618-0 0.673-0 0.395 0 0.729-0.319 0.729-0.697s-0.334-0.697-0.729-0.697z"></path>
<path d="M18.658 14.041c-1.080 0-1.959 0.879-1.959 1.959s0.879 1.959 1.959 1.959c1.080 0 1.959-0.879 1.959-1.959s-0.879-1.959-1.959-1.959z"></path>
<path d="M22.627 0h-13.255l-9.373 9.373v13.255l9.373 9.373h13.255l9.373-9.373v-13.255l-9.373-9.373zM8.668 17.857c-0.205 1.181-1.319 2.039-2.649 2.039-1.052 0-2.041-0.425-2.713-1.167l1.389-1.259c0.312 0.345 0.807 0.551 1.324 0.551 0.49 0 0.768-0.289 0.802-0.484 0.015-0.086 0.055-0.315-0.449-0.505-0.326-0.123-0.568-0.182-0.801-0.239-0.357-0.087-0.726-0.178-1.15-0.453-0.752-0.488-1.005-1.316-0.992-1.928 0.020-0.925 0.655-1.779 1.58-2.124 1.564-0.584 2.823 0.351 3.574 0.909l-1.118 1.505c-1.106-0.821-1.444-0.791-1.801-0.658-0.259 0.097-0.359 0.301-0.361 0.407-0.002 0.108 0.046 0.256 0.139 0.317 0.149 0.097 0.264 0.128 0.574 0.204 0.26 0.064 0.583 0.143 1.014 0.305 1.189 0.447 1.832 1.459 1.637 2.58zM14.47 14.041h-1.606v5.792h-1.875v-5.792h-1.593v-1.875h5.074v1.875h-0zM18.659 19.834c-2.114 0-3.834-1.72-3.834-3.834s1.72-3.834 3.834-3.834c2.114 0 3.834 1.72 3.834 3.834s-1.72 3.834-3.834 3.834zM26.19 17.311c-0.058 0-0.675 0-0.675 0v2.523h-1.875v-7.667h2.55c1.436 0 2.604 1.154 2.604 2.572s-1.168 2.572-2.604 2.572z"></path>
</svg>
