<!-- Generated by IcoMoon.io -->
<svg version="1.1" xmlns="http://www.w3.org/2000/svg" width="28" height="32" viewBox="0 0 28 32">
<title>support</title>
<path d="M13.999 0c-7.719 0-13.976 6.257-13.976 13.976 0 5.281 2.927 9.87 7.245 12.248l-0.164 5.776 6.594-4.064c0.1 0.002 0.199 0.016 0.301 0.016 7.719 0 13.976-6.257 13.976-13.976s-6.257-13.976-13.976-13.976zM13.372 22.381c-1.248 0-2.097-0.919-2.097-2.145 0-1.251 0.871-2.147 2.097-2.147 1.275 0 2.1 0.896 2.122 2.147 0.001 1.222-0.846 2.145-2.122 2.145zM16.224 13.61c-0.871 0.967-1.225 1.885-1.201 2.949v0.422h-3.136l-0.025-0.612c-0.070-1.201 0.33-2.43 1.393-3.701 0.752-0.898 1.367-1.651 1.367-2.453 0-0.824-0.544-1.366-1.724-1.412-0.775 0-1.721 0.281-2.33 0.707l-0.803-2.573c0.849-0.494 2.261-0.963 3.936-0.963 3.114 0 4.526 1.72 4.526 3.677 0.001 1.789-1.106 2.967-2.004 3.958z"></path>
</svg>
