<!-- Generated by IcoMoon.io -->
<svg version="1.1" xmlns="http://www.w3.org/2000/svg" width="32" height="32" viewBox="0 0 32 32">
<title>user</title>
<path d="M15.999 15.65c3.558 0 6.442-3.503 6.442-7.825s-0.947-7.825-6.442-7.825c-5.495 0-6.443 3.503-6.443 7.825s2.884 7.825 6.443 7.825z"></path>
<path d="M3.831 27.598c-0.001-0.264-0.002-0.074 0 0v0z"></path>
<path d="M28.168 27.804c0.003-0.072 0.001-0.5 0 0v0z"></path>
<path d="M28.154 27.282c-0.119-7.529-1.103-9.674-8.627-11.032 0 0-1.059 1.35-3.528 1.35s-3.528-1.35-3.528-1.35c-7.442 1.343-8.485 3.456-8.622 10.787-0.011 0.599-0.016 0.63-0.018 0.56 0 0.13 0.001 0.371 0.001 0.791 0 0 1.791 3.611 12.167 3.611s12.167-3.611 12.167-3.611c0-0.27 0-0.457 0.001-0.585-0.002 0.043-0.006-0.040-0.014-0.522z"></path>
</svg>
