<svg xmlns="http://www.w3.org/2000/svg" viewBox="0 0 50 50"><path fill="#fff" d="M20.06 10.44a.28.28 0 01-.13 0 .35.35 0 01-.17-.17.31.31 0 010-.13V7.59a.34.34 0 01.1-.23l.1-.07a.28.28 0 01.13 0h1.61a.32.32 0 01.22.1.18.18 0 01.07.1.26.26 0 010 .24.23.23 0 01-.07.1.31.31 0 01-.22.09h-1.29v.63h1.13a.36.36 0 01.22.09.32.32 0 01.09.23.5.5 0 010 .12.36.36 0 01-.07.1.31.31 0 01-.22.09h-1.17v1a.27.27 0 010 .12.26.26 0 01-.07.11.34.34 0 01-.26.03zm4.54.02a1.44 1.44 0 01-.62-.13 1.14 1.14 0 01-.7-1.12V7.58a.32.32 0 01.09-.23.31.31 0 01.11-.08h.12a.34.34 0 01.33.33v1.61a.67.67 0 00.09.34.51.51 0 00.25.21.81.81 0 00.34.08.84.84 0 00.39-.08.51.51 0 00.25-.21.67.67 0 00.09-.34V7.58a.32.32 0 01.09-.23.39.39 0 01.1-.08h.26l.1.07a.44.44 0 01.08.11.51.51 0 010 .13V9.2a1.17 1.17 0 01-.2.7 1.2 1.2 0 01-.5.42 1.57 1.57 0 01-.67.14zm5.2-.02a.45.45 0 01-.19 0 .37.37 0 01-.13-.12l-1.34-1.98v1.76a.28.28 0 010 .13.41.41 0 01-.07.11.33.33 0 01-.23.09.32.32 0 01-.23-.09.26.26 0 01-.07-.11.28.28 0 010-.13V7.66a.45.45 0 010-.16.44.44 0 01.22-.22.45.45 0 01.16 0h.05a.38.38 0 01.19 0 .37.37 0 01.15.13l1.33 1.92V7.59a.32.32 0 01.09-.23.28.28 0 01.11-.08h.13a.33.33 0 01.23.09.35.35 0 01.1.24V10a.47.47 0 010 .16.38.38 0 01-.09.13.57.57 0 01-.13.08.29.29 0 01-.16 0zM18.14 42.66h-.13a.36.36 0 01-.12-.08.44.44 0 01-.08-.11.35.35 0 010-.14.78.78 0 01.16-.47 1.37 1.37 0 01.33-.35 5.25 5.25 0 01.48-.34c.2-.12.29-.19.39-.26a1.52 1.52 0 00.22-.22.32.32 0 00.07-.19.4.4 0 000-.15.23.23 0 00-.08-.12.58.58 0 00-.4-.1 1.64 1.64 0 00-.65.13.33.33 0 01-.13 0 .27.27 0 01-.12 0 .24.24 0 01-.09-.06.27.27 0 01-.09-.21.35.35 0 01.1-.29 2.16 2.16 0 011-.23 1.3 1.3 0 01.55.12 1.12 1.12 0 01.38.34 1 1 0 01.15.53 1.1 1.1 0 01-.17.52 1.71 1.71 0 01-.37.39 6.13 6.13 0 01-.52.37c-.22.14-.32.22-.42.29h1.13a.24.24 0 01.12 0 .26.26 0 01.11.07.31.31 0 010 .44.32.32 0 01-.23.09zm3.74 0h-.12a.28.28 0 01-.11-.08.36.36 0 01-.07-.1.51.51 0 010-.13v-2.51a.32.32 0 01.09-.23.28.28 0 01.11-.08h.95a1.56 1.56 0 01.87.23 1.46 1.46 0 01.54.59 1.67 1.67 0 010 1.51 1.46 1.46 0 01-.54.59 1.56 1.56 0 01-.87.23zm.79-.63a1 1 0 00.52-.12.83.83 0 00.34-.33 1 1 0 00.12-.49 1.06 1.06 0 00-.12-.5.9.9 0 00-.34-.33 1.17 1.17 0 00-.52-.12h-.46V42zm5.46.65a.37.37 0 01-.18 0 .39.39 0 01-.12-.14l-.24-.56h-1.21l-.23.55a.35.35 0 01-.12.15.41.41 0 01-.18 0 .27.27 0 01-.13 0 .41.41 0 01-.11-.07.35.35 0 01-.09-.23.32.32 0 010-.14l1.05-2.47a.59.59 0 01.13-.18.41.41 0 01.24-.08.4.4 0 01.23.08.41.41 0 01.13.17l1.05 2.48a.32.32 0 010 .19.37.37 0 01-.08.18l-.11.07a.3.3 0 01-.03 0zm-.8-1.38l-.33-.83-.35.83zm3.57 1.38a.33.33 0 01-.23-.09.41.41 0 01-.07-.11.17.17 0 010-.12v-1l-1-1.34a.33.33 0 01-.06-.19.32.32 0 01.09-.23.39.39 0 01.1-.08h.13a.29.29 0 01.16 0 .34.34 0 01.12.12l.74 1.07.76-1.08a.32.32 0 01.1-.1h.14a.36.36 0 01.14 0 .25.25 0 01.12.08.21.21 0 01.07.11.27.27 0 010 .13.34.34 0 010 .17l-1 1.35v1a.33.33 0 01-.09.23.41.41 0 01-.11.07.27.27 0 01-.11.01zm-5.6-29h-.6v1h.6z"/><path fill="#fff" d="M50 25a25 25 0 11-7.32-17.68A25.06 25.06 0 0150 25zm-1 0a24 24 0 10-7 17 24.07 24.07 0 007-17z"/><path fill="#fff" d="M25 47a22 22 0 1115.55-6.45A22 22 0 0125 47zm21-22a21 21 0 10-6.16 14.84A21 21 0 0046 25z"/><path fill="#fff" d="M10 35a18 18 0 010-20s.17-.35-.52-.38a.7.7 0 00-.38.11.75.75 0 00-.29.27 19 19 0 000 20 .81.81 0 00.31.3.88.88 0 00.42.11c.7-.06.46-.41.46-.41zm30 0a18 18 0 000-20s-.17-.35.52-.38a.73.73 0 01.38.11.75.75 0 01.29.27 19 19 0 010 20 .82.82 0 01-.71.41C39.76 35.35 40 35 40 35zM23.43 20.56a.77.77 0 01-.11.39.82.82 0 01-.32.26.79.79 0 01-.4 0 .72.72 0 01-.36-.2.61.61 0 01-.19-.35.71.71 0 01.29-.72.69.69 0 01.39-.12.76.76 0 01.27.05.91.91 0 01.23.15.83.83 0 01.15.23.65.65 0 01.05.31zm4.57 0a.69.69 0 01-.12.39.79.79 0 01-.31.26.81.81 0 01-.41 0 .76.76 0 01-.36-.2.75.75 0 01-.19-.35.72.72 0 010-.41.61.61 0 01.26-.31.69.69 0 01.39-.12.7.7 0 01.49.2.67.67 0 01.25.54zm-2.8 9.88c.53-.6 1.93-2.73 1.93-4a1.94 1.94 0 00-.14-.83 2.08 2.08 0 00-.45-.72 2.24 2.24 0 00-.7-.48 2.12 2.12 0 00-.83-.17 2.2 2.2 0 00-.83.17 2.14 2.14 0 00-1.29 2c0 1.29 1.4 3.42 1.94 4a.65.65 0 00-.4.28.7.7 0 00-.11.48.68.68 0 00.23.44.71.71 0 00.46.17.69.69 0 00.46-.17.74.74 0 00.24-.44.76.76 0 00-.11-.48.7.7 0 00-.4-.25zm-1.26-4.08a1.12 1.12 0 01.17-.59 1.14 1.14 0 01.48-.39A1.06 1.06 0 0126 26.76a1.08 1.08 0 01-.39.48 1 1 0 01-.59.17 1 1 0 01-1-1.05z"/><path fill="#fff" d="M30.49 27.84a5.52 5.52 0 01-3.4 5.09 5.57 5.57 0 01-3.18.31 5.5 5.5 0 116.58-5.4zm-1 0A4.48 4.48 0 1026.71 32a4.34 4.34 0 001.46-1 4.53 4.53 0 001.33-3.19z"/><path fill="#fff" d="M37.58 17.78a4.53 4.53 0 00-7.83-3.05A11.48 11.48 0 0025 13.67a11.3 11.3 0 00-4.75 1.05 4.47 4.47 0 00-1.54-1.11 4.52 4.52 0 00-1.85-.39 4.7 4.7 0 00-1.85.41 4.45 4.45 0 00-1.52 1.13 4.39 4.39 0 00-.93 1.64 4.66 4.66 0 00-.18 1.89 4.44 4.44 0 00.62 1.79 4.51 4.51 0 001.29 1.39 11.22 11.22 0 001.6 10.07 11.41 11.41 0 004 3.41 11.23 11.23 0 0014.19-3.39 11.11 11.11 0 002-4.83 11.3 11.3 0 00-.38-5.23 4.5 4.5 0 001.4-1.63 4.62 4.62 0 00.48-2.09zM33 14.3a3.53 3.53 0 013.44 4.41 3.6 3.6 0 01-1.13 1.8c-.14-.32-.29-.64-.46-1a2.51 2.51 0 00.71-1.67 2.51 2.51 0 00-2.23-2.55 2.48 2.48 0 00-1.75.48c-.3-.21-.6-.41-.91-.6A3.52 3.52 0 0133 14.3zm1.3 4.36a11 11 0 00-1.91-2.18 1.47 1.47 0 01.74-.17 1.55 1.55 0 01.72.22 1.47 1.47 0 01.53.55 1.42 1.42 0 01.19.73 1.52 1.52 0 01-.26.85zm-20.89-.87a3.52 3.52 0 014.09-3.44 3.45 3.45 0 011.79.86c-.31.18-.61.38-.91.59a2.48 2.48 0 00-3.34.36 2.49 2.49 0 000 3.37c-.17.31-.32.63-.46.95a3.48 3.48 0 01-1.22-2.69zm2.23.83a1.43 1.43 0 01-.23-.92 1.48 1.48 0 011.2-1.36 1.56 1.56 0 01.95.12 11.61 11.61 0 00-1.91 2.16zM25 35.17a10.26 10.26 0 117.24-3 10.24 10.24 0 01-7.24 3z"/></svg>