<svg width="128" height="128" viewBox="0 0 128 128" fill="none" xmlns="http://www.w3.org/2000/svg"><path d="M51.651 27.584c-.252 0-.44-.063-.567-.252-.126-.126-.252-.378-.252-.567v-6.3c0-.19.063-.442.252-.568.126-.189.378-.252.567-.252h3.97c.188 0 .44.063.566.252a.799.799 0 01.253.567c0 .19-.063.441-.252.567a.799.799 0 01-.568.252h-3.15v1.575h2.835c.19 0 .441.063.568.252a.799.799 0 01.252.567c0 .19-.063.441-.252.567a.799.799 0 01-.568.253H52.47v2.394c0 .252-.063.44-.252.567-.189 0-.378.126-.567.126zm11.341.063c-.504 0-1.071-.126-1.575-.315-.504-.252-.945-.567-1.26-1.071a3.225 3.225 0 01-.504-1.764V20.4c0-.189.063-.44.252-.567.126-.189.378-.252.567-.252.252 0 .44.063.567.252.126.19.252.378.252.567v4.096c0 .314.063.63.252.881.126.253.378.378.63.505.252.126.567.189.819.189.315 0 .567-.063.819-.19.252-.126.441-.315.63-.504.126-.252.252-.503.252-.881V20.4c0-.189.063-.44.252-.567.126-.189.378-.252.567-.252.252 0 .441.063.567.252.19.19.252.378.252.567v4.032c0 .694-.189 1.26-.504 1.765-.315.504-.756.819-1.26 1.07-.567.253-1.071.379-1.575.379zm12.978-.063c-.188 0-.314-.063-.503-.126-.126-.063-.252-.19-.378-.315l-3.34-4.852v4.41c0 .253-.063.442-.252.568-.126.126-.378.252-.567.252-.252 0-.44-.063-.567-.252-.126-.126-.252-.378-.252-.567V20.59c0-.252.126-.504.315-.693.19-.189.441-.315.693-.315h.126c.252 0 .567.063.82.441l3.339 4.788v-4.41c0-.189.063-.44.252-.567.126-.189.378-.252.567-.252.252 0 .44.063.567.252.126.19.252.378.252.567v6.112c0 .252-.126.504-.315.693-.19.189-.441.315-.693.315h-.063v.063zM46.8 108.166a.809.809 0 01-.63-.252.809.809 0 01-.252-.63c0-.441.126-.819.378-1.197.252-.315.504-.63.819-.882a12.7 12.7 0 011.197-.819c.441-.252.756-.504 1.008-.693.19-.189.378-.315.567-.567.126-.189.19-.316.19-.505 0-.315-.064-.504-.253-.693-.189-.189-.504-.252-1.008-.252-.567 0-1.134.126-1.638.315-.126.063-.252.063-.315.063a.715.715 0 01-.504-.189.715.715 0 01-.19-.504c0-.315.127-.567.379-.693a5.417 5.417 0 012.457-.567c.504 0 .945.126 1.323.315.441.189.756.504 1.008.882s.378.819.378 1.26c0 .505-.126.946-.44 1.324-.253.378-.568.693-.946 1.008a19.71 19.71 0 01-1.323.945c-.441.315-.819.567-1.008.756h2.835c.19 0 .441.063.567.252a.799.799 0 01.252.567c0 .189-.063.441-.252.567a.799.799 0 01-.567.252H46.8v-.063zm9.388 0c-.253 0-.442-.063-.568-.252-.125-.126-.252-.378-.252-.567v-6.238c0-.189.063-.441.252-.567.127-.189.379-.252.568-.252h2.079c.819 0 1.575.189 2.205.567.567.378 1.07.882 1.323 1.45.315.567.44 1.197.44 1.89 0 .63-.125 1.26-.44 1.89-.315.63-.756 1.071-1.323 1.449-.63.378-1.323.567-2.205.567h-2.08v.063zm1.953-1.575c.504 0 .945-.126 1.323-.315s.63-.441.819-.819c.189-.378.315-.756.315-1.26 0-.441-.126-.882-.315-1.26-.19-.378-.504-.63-.82-.819a2.929 2.929 0 00-1.322-.316h-1.134v4.726h1.134v.063zm13.672 1.575c-.19 0-.316-.063-.442-.126a.645.645 0 01-.314-.378l-.568-1.386h-3.024l-.567 1.386c-.063.189-.189.252-.315.378a1.168 1.168 0 01-.44.126c-.253 0-.442-.063-.568-.252-.126-.126-.252-.378-.252-.567 0-.126 0-.189.063-.315l2.646-6.175c.063-.189.19-.315.315-.441.19-.126.378-.189.567-.189h.126c.252 0 .441.063.567.189.126.126.252.252.315.441l2.647 6.175a.685.685 0 01.063.315c0 .189-.063.441-.252.567-.126.189-.316.252-.567.252zm-2.017-3.402l-.882-2.08-.882 2.08h1.764zm8.947 3.402c-.189 0-.441-.063-.567-.252-.19-.126-.252-.378-.252-.567v-2.52l-2.394-3.34c-.126-.189-.126-.315-.126-.504s.063-.441.252-.567c.126-.189.378-.252.567-.252.315 0 .567.126.693.378l1.827 2.71 1.89-2.71c.19-.252.441-.378.693-.378.252 0 .441.063.567.252.126.189.252.378.19.567 0 .126-.064.315-.127.441l-2.394 3.403v2.52c0 .252-.063.441-.252.567-.126.189-.378.252-.567.252zM64.756 35.648h-1.512v2.52h1.512v-2.52z" fill="#F0F4F8"/><path d="M126.5 64c0 34.526-27.974 62.5-62.5 62.5-34.526 0-62.5-27.974-62.5-62.5C1.5 29.474 29.474 1.5 64 1.5c34.526 0 62.5 27.974 62.5 62.5zm-2.52 0c0-33.077-26.903-59.98-59.98-59.98S4.02 30.923 4.02 64 30.923 123.98 64 123.98 123.98 97.077 123.98 64z" fill="#F0F4F8"/><path d="M64 119.002C33.695 119.002 8.998 94.305 8.998 64 8.998 33.695 33.695 8.997 64 8.997c30.305 0 55.003 24.635 55.003 55.003S94.305 119.002 64 119.002zM116.482 64c0-28.982-23.563-52.482-52.482-52.482S11.518 35.08 11.518 64 35.08 116.482 64 116.482 116.482 92.919 116.482 64z" fill="#F0F4F8"/><path d="M26.576 89.013C21.787 81.83 18.952 73.262 18.952 64c0-9.261 2.772-17.83 7.624-25.013 0 0 .44-.882-1.323-.945-1.009-.063-1.639.945-1.639.945-4.536 7.246-7.12 15.814-7.12 25.013 0 9.199 2.584 17.704 7.12 25.013 0 0 .63 1.134 1.764 1.008 1.702-.126 1.198-1.008 1.198-1.008zm74.785 0c4.789-7.183 7.624-15.751 7.624-25.013 0-9.261-2.772-17.83-7.624-25.013 0 0-.441-.882 1.324-.945 1.008-.063 1.638.945 1.638.945 4.536 7.246 7.119 15.814 7.119 25.013 0 9.199-2.583 17.704-7.119 25.013 0 0-.63 1.134-1.765 1.008-1.701-.126-1.197-1.008-1.197-1.008zM58.267 54.612a1.764 1.764 0 100-3.528 1.764 1.764 0 000 3.528zm11.403 0a1.764 1.764 0 100-3.528 1.764 1.764 0 000 3.528zm-5.229 22.934c1.323-1.45 4.851-6.805 4.851-10.018 0-2.898-2.394-5.292-5.292-5.292-2.898 0-5.292 2.394-5.292 5.292 0 3.213 3.528 8.569 4.851 10.018-.756.189-1.26.882-1.26 1.7 0 .946.756 1.765 1.764 1.765a1.76 1.76 0 001.764-1.764c-.126-.82-.63-1.45-1.386-1.701zm-3.087-10.144A2.662 2.662 0 0164 64.756a2.662 2.662 0 012.646 2.646A2.662 2.662 0 0164 70.048a2.662 2.662 0 01-2.646-2.646z" fill="#F0F4F8"/><path d="M77.735 71.056c0 7.624-6.174 13.735-13.735 13.735-7.623 0-13.735-6.174-13.735-13.735 0-7.623 6.175-13.734 13.735-13.734s13.735 6.174 13.735 13.734zm-2.52 0c0-6.174-5.04-11.277-11.278-11.277-6.174 0-11.278 5.04-11.278 11.277 0 6.175 5.04 11.278 11.278 11.278 6.237 0 11.278-5.04 11.278-11.278z" fill="#F0F4F8"/><path d="M95.439 45.918c-.063-6.238-5.166-11.278-11.467-11.215-3.213.063-6.111 1.386-8.127 3.591-3.591-1.7-7.687-2.646-11.908-2.646-4.221 0-8.253.945-11.845 2.583a11.171 11.171 0 00-8.127-3.528c-6.238-.063-11.404 4.914-11.467 11.215a11.258 11.258 0 004.6 9.261c-.883 2.71-1.324 5.608-1.324 8.632 0 15.562 12.601 28.1 28.1 28.1s28.1-12.601 28.1-28.1c0-2.961-.441-5.86-1.323-8.569 2.96-2.079 4.788-5.48 4.788-9.324zm-11.404-8.695c4.852-.063 8.884 3.843 8.947 8.695a8.848 8.848 0 01-3.15 6.804c-.378-.819-.756-1.575-1.134-2.394 1.134-1.134 1.827-2.646 1.827-4.347a6.211 6.211 0 00-6.238-6.238c-1.386 0-2.709.505-3.78 1.26l-2.268-1.512c1.449-1.386 3.528-2.268 5.796-2.268zm3.276 10.9a30.508 30.508 0 00-4.788-5.481c.504-.252 1.071-.441 1.701-.441 2.08 0 3.78 1.7 3.78 3.78a4.785 4.785 0 01-.693 2.142zm-52.293-2.205a8.808 8.808 0 018.947-8.695c2.205 0 4.284.882 5.796 2.268-.756.441-1.512.946-2.268 1.513-1.008-.756-2.331-1.198-3.717-1.198a6.211 6.211 0 00-6.238 6.238c0 1.638.63 3.15 1.701 4.284a16.648 16.648 0 00-1.134 2.394c-1.953-1.7-3.087-4.095-3.087-6.804zm5.608 2.142a3.642 3.642 0 01-.63-2.016c0-2.08 1.7-3.78 3.78-3.78.567 0 1.134.126 1.638.378-1.827 1.575-3.465 3.402-4.788 5.418zm23.311 41.33c-14.113 0-25.643-11.466-25.643-25.642 0-14.113 11.467-25.643 25.643-25.643S89.58 49.572 89.58 63.748c-.063 14.176-11.53 25.643-25.643 25.643z" fill="#F0F4F8"/></svg>