<svg width="50" height="50" viewBox="0 0 50 50" fill="none" xmlns="http://www.w3.org/2000/svg"><g clip-path="url(#clip0)" fill="#121212"><path d="M20.058 10.437a.324.324 0 01-.326-.325v-2.52a.325.325 0 01.326-.327h1.612a.308.308 0 01.315.315.305.305 0 01-.093.224.313.313 0 01-.222.088h-1.26v.63h1.127a.315.315 0 01.221.54.312.312 0 01-.221.087h-1.15v.958a.324.324 0 01-.098.234.34.34 0 01-.232.096zm4.54.02a1.48 1.48 0 01-.62-.126 1.182 1.182 0 01-.504-.424 1.21 1.21 0 01-.196-.698V7.577a.322.322 0 01.325-.328.327.327 0 01.327.328v1.635a.61.61 0 00.091.343c.062.093.15.165.252.209a.801.801 0 00.673 0 .59.59 0 00.252-.21.629.629 0 00.088-.342V7.577c0-.086.033-.169.093-.23a.31.31 0 01.232-.098.317.317 0 01.232.096.315.315 0 01.098.232v1.622a1.23 1.23 0 01-.196.698c-.126.185-.3.332-.504.424a1.49 1.49 0 01-.643.136zm5.206-.019a.39.39 0 01-.189-.048.37.37 0 01-.138-.119L28.136 8.34v1.763a.315.315 0 01-.098.235.335.335 0 01-.462 0 .326.326 0 01-.093-.232V7.66a.409.409 0 01.406-.411h.055a.413.413 0 01.336.176l1.332 1.923V7.585a.323.323 0 01.326-.327.328.328 0 01.327.327v2.454a.388.388 0 01-.123.288.4.4 0 01-.288.118l-.05-.008zM18.142 42.662a.35.35 0 01-.252-.1.332.332 0 01-.105-.253c0-.17.052-.335.15-.473a1.51 1.51 0 01.334-.348 6.68 6.68 0 01.48-.335 6.79 6.79 0 00.391-.265c.082-.061.154-.133.217-.214a.32.32 0 00.07-.197.343.343 0 00-.105-.267.615.615 0 00-.403-.103 1.61 1.61 0 00-.646.136.296.296 0 01-.345-.053.3.3 0 01-.085-.214.303.303 0 01.163-.275 2.17 2.17 0 01.978-.226 1.24 1.24 0 01.542.118.942.942 0 01.363 1.383 1.82 1.82 0 01-.368.394 7.65 7.65 0 01-.524.37c-.215.141-.318.22-.414.292h1.13a.305.305 0 01.223.094.317.317 0 010 .448.318.318 0 01-.224.088h-1.57zm3.742 0a.326.326 0 01-.325-.33v-2.495a.33.33 0 01.2-.304.325.325 0 01.125-.026h.827c.306-.008.608.073.87.232.23.143.418.347.54.59a1.675 1.675 0 010 1.512 1.474 1.474 0 01-.54.592 1.603 1.603 0 01-.87.23h-.827zm.781-.63a1.1 1.1 0 00.527-.12.829.829 0 00.338-.328 1.078 1.078 0 000-.993.845.845 0 00-.338-.328 1.098 1.098 0 00-.527-.12h-.45v1.89h.45zm5.465.65a.333.333 0 01-.304-.196l-.232-.56h-1.212l-.23.555a.333.333 0 01-.307.202.315.315 0 01-.234-.096.327.327 0 01-.058-.366l1.048-2.474a.428.428 0 01.134-.177.373.373 0 01.232-.078h.043c.083 0 .165.027.231.078a.435.435 0 01.134.174l1.048 2.477a.323.323 0 01-.165.438.315.315 0 01-.127.023zm-.796-1.378l-.347-.83-.345.83h.692zm3.568 1.378a.327.327 0 01-.327-.325V41.35l-.955-1.34a.354.354 0 01-.06-.192.33.33 0 01.194-.304.33.33 0 01.408.134l.74 1.078.756-1.081a.325.325 0 01.504-.058.314.314 0 01.089.239.348.348 0 01-.053.176l-.968 1.349v1.007a.33.33 0 01-.093.232.325.325 0 01-.235.093zm-5.601-29.004H24.7v1h.602v-1z"/><path d="M50 24.999a25.001 25.001 0 11-50.003.005A25.001 25.001 0 0150 24.999zm-1.008 0a24.001 24.001 0 10-24 24A24.026 24.026 0 0049 25h-.008z"/><path d="M24.999 46.998a22 22 0 1122-22 22.023 22.023 0 01-22 22zm21-22a21 21 0 10-21 21 21.023 21.023 0 0021-21z"/><path d="M10.041 35a17.96 17.96 0 010-20s.167-.345-.524-.383a.821.821 0 00-.665.383 18.954 18.954 0 000 20 .814.814 0 00.723.405c.663-.05.466-.405.466-.405zm29.918 0a17.961 17.961 0 000-20s-.167-.345.521-.383a.83.83 0 01.668.383 18.969 18.969 0 010 20 .814.814 0 01-.713.405c-.673-.05-.476-.405-.476-.405zM23.434 20.559a.7.7 0 11-1.401 0 .7.7 0 011.401 0zm4.536 0a.7.7 0 11-1.402 0 .7.7 0 011.401 0zm-2.772 9.877c.534-.592 1.935-2.729 1.935-4.017a2.12 2.12 0 10-4.24 0c0 1.288 1.4 3.425 1.934 4.017a.7.7 0 10.37 0zm-1.26-4.075a1.056 1.056 0 112.112-.004 1.056 1.056 0 01-2.112.004z"/><path d="M30.49 27.841a5.501 5.501 0 11-11.003.005 5.501 5.501 0 0111.002-.005zm-1.008 0a4.5 4.5 0 10-4.5 4.5 4.506 4.506 0 004.517-4.5h-.017z"/><path d="M37.577 17.777a4.536 4.536 0 00-7.831-3.044 11.254 11.254 0 00-9.507-.015 4.534 4.534 0 10-5.972 6.753 11.248 11.248 0 1021.418.028 4.52 4.52 0 001.892-3.722zm-4.568-3.48a3.528 3.528 0 012.31 6.214 10.61 10.61 0 00-.458-.95 2.495 2.495 0 00-3.276-3.742 11.5 11.5 0 00-.907-.594 3.527 3.527 0 012.331-.928zm1.305 4.362a11.308 11.308 0 00-1.917-2.182 1.499 1.499 0 012.184 1.333c.002.303-.09.6-.262.85h-.005zm-20.894-.872a3.528 3.528 0 015.884-2.58c-.313.184-.617.383-.91.595a2.497 2.497 0 00-3.293 3.727 11.1 11.1 0 00-.464.952 3.507 3.507 0 01-1.217-2.694zm2.233.834a1.497 1.497 0 011.912-2.159 11.394 11.394 0 00-1.912 2.16zm9.323 16.55a10.251 10.251 0 1110.25-10.248 10.26 10.26 0 01-10.253 10.248h.003z"/></g><defs><clipPath id="clip0"><path fill="#fff" d="M0 0h50v50H0z"/></clipPath></defs></svg>