<svg width="25" height="25" viewBox="0 0 25 25" fill="none" xmlns="http://www.w3.org/2000/svg">
<path d="M21.1745 10.2265C23.2742 10.2265 24.9764 8.53175 24.9764 6.44114C24.9764 4.35053 23.2742 2.65576 21.1745 2.65576C19.0748 2.65576 17.3726 4.35053 17.3726 6.44114C17.3726 8.53175 19.0748 10.2265 21.1745 10.2265Z" fill="#A67C52"/>
<path d="M3.80189 10.2265C5.90161 10.2265 7.60377 8.53175 7.60377 6.44114C7.60377 4.35053 5.90161 2.65576 3.80189 2.65576C1.70216 2.65576 0 4.35053 0 6.44114C0 8.53175 1.70216 10.2265 3.80189 10.2265Z" fill="#A67C52"/>
<path opacity="0.1" d="M2.38679 6.44088C2.38824 5.64353 2.64111 4.86695 3.10943 4.22163C3.57776 3.57631 4.23767 3.09512 4.99528 2.84654C4.4253 2.65864 3.81895 2.60825 3.22578 2.6995C2.6326 2.79076 2.06943 3.02105 1.58228 3.37158C1.09513 3.72211 0.697827 4.18292 0.422828 4.71636C0.147829 5.2498 0.00294021 5.84074 0 6.44088C0.00256954 7.04123 0.147187 7.63244 0.422029 8.16619C0.69687 8.69993 1.09413 9.16105 1.58133 9.51185C2.06853 9.86264 2.63184 10.0931 3.2252 10.1845C3.81856 10.2759 4.42512 10.2255 4.99528 10.0376C4.23748 9.78856 3.5775 9.30694 3.10919 8.66121C2.64088 8.01549 2.3881 7.23855 2.38679 6.44088Z" fill="#332F2F"/>
<path d="M12.4882 22.8254C18.1634 22.8254 22.7641 18.2437 22.7641 12.5919C22.7641 6.94009 18.1634 2.3584 12.4882 2.3584C6.81295 2.3584 2.21226 6.94009 2.21226 12.5919C2.21226 18.2437 6.81295 22.8254 12.4882 22.8254Z" fill="#C69C6D"/>
<path opacity="0.1" d="M3.89152 12.5919C3.89638 10.0174 4.86965 7.53897 6.61793 5.64912C8.36621 3.75926 10.7615 2.59633 13.3278 2.39142C13.0495 2.37019 12.7712 2.3584 12.5 2.3584C9.78592 2.3584 7.18299 3.43657 5.26384 5.35572C3.34469 7.27487 2.26652 9.8778 2.26652 12.5919C2.26652 15.306 3.34469 17.9089 5.26384 19.8281C7.18299 21.7472 9.78592 22.8254 12.5 22.8254C12.783 22.8254 13.0613 22.8112 13.3396 22.79C10.7714 22.5885 8.37322 21.4273 6.62244 19.5375C4.87166 17.6477 3.89666 15.168 3.89152 12.5919Z" fill="#332F2F"/>
<path d="M12.4882 22.8606C15.3004 22.8606 17.5802 20.5893 17.5802 17.7875C17.5802 14.9857 15.3004 12.7144 12.4882 12.7144C9.676 12.7144 7.39624 14.9857 7.39624 17.7875C7.39624 20.5893 9.676 22.8606 12.4882 22.8606Z" fill="#A67C52"/>
<path d="M7.31132 10.2969C7.53176 10.2978 7.74698 10.364 7.92981 10.4872C8.11264 10.6103 8.25489 10.7849 8.3386 10.9888C8.42232 11.1927 8.44374 11.4169 8.40016 11.633C8.35658 11.849 8.24997 12.0474 8.09377 12.2029C7.93756 12.3585 7.73878 12.4642 7.52251 12.5069C7.30625 12.5496 7.08218 12.5272 6.87862 12.4426C6.67505 12.3581 6.5011 12.2151 6.37872 12.0317C6.25635 11.8484 6.19104 11.6329 6.19104 11.4124C6.19135 11.2656 6.22057 11.1203 6.27704 10.9848C6.33351 10.8493 6.41611 10.7262 6.52014 10.6226C6.62417 10.5191 6.74758 10.437 6.88333 10.3811C7.01908 10.3252 7.16452 10.2966 7.31132 10.2969Z" fill="#5C4736"/>
<path d="M17.658 10.2969C17.8784 10.2983 18.0933 10.3649 18.2759 10.4883C18.4584 10.6117 18.6003 10.7865 18.6836 10.9904C18.767 11.1944 18.7881 11.4185 18.7442 11.6344C18.7004 11.8503 18.5936 12.0484 18.4373 12.2037C18.281 12.3591 18.0822 12.4646 17.866 12.5071C17.6498 12.5495 17.4259 12.527 17.2224 12.4424C17.019 12.3578 16.8452 12.2148 16.7229 12.0315C16.6006 11.8482 16.5354 11.6328 16.5354 11.4125C16.5357 11.2654 16.565 11.1199 16.6216 10.9843C16.6782 10.8486 16.761 10.7254 16.8653 10.6218C16.9696 10.5182 17.0933 10.4362 17.2293 10.3804C17.3653 10.3246 17.511 10.2963 17.658 10.2969Z" fill="#5C4736"/>
<path d="M12.4882 15.9413C13.5719 15.9413 14.4505 15.1916 14.4505 14.2668C14.4505 13.342 13.5719 12.5923 12.4882 12.5923C11.4045 12.5923 10.5259 13.342 10.5259 14.2668C10.5259 15.1916 11.4045 15.9413 12.4882 15.9413Z" fill="#5C4736"/>
<path d="M12.5 20.5189C9.90569 20.5189 9.01654 18.8326 8.9788 18.7595C8.94826 18.688 8.94599 18.6076 8.97243 18.5346C8.99887 18.4615 9.05206 18.4012 9.12125 18.3659C9.19044 18.3306 9.27047 18.3228 9.34516 18.3442C9.41985 18.3656 9.48363 18.4145 9.52361 18.4811C9.55663 18.5448 10.2972 19.8962 12.5 19.8962C14.7029 19.8962 15.4458 18.5307 15.4764 18.4811C15.5142 18.4094 15.5786 18.3553 15.6558 18.3306C15.733 18.3059 15.8168 18.3125 15.8892 18.3491C15.9608 18.3863 16.0148 18.4503 16.0395 18.5271C16.0642 18.604 16.0577 18.6874 16.0213 18.7595C15.9741 18.8231 15.0944 20.5189 12.5 20.5189Z" fill="#5C4736"/>
</svg>
