<svg width="40" height="40" viewBox="0 0 40 40" fill="none" xmlns="http://www.w3.org/2000/svg">
<g clip-path="url(#clip0)">
<path d="M34.4786 0.237044C34.1536 0.00206745 33.7337 -0.065426 33.3537 0.0670611L26.2894 2.42183L20.465 0.0920587C20.1675 -0.0279296 19.835 -0.0279296 19.5375 0.0920587L13.7131 2.42183L6.6463 0.0670611C6.26384 -0.065426 5.84638 0.00206745 5.52141 0.237044C5.19645 0.472022 5.00146 0.849485 5.00146 1.25195V38.7483C5.00146 39.1507 5.19395 39.5282 5.52141 39.7607C5.84638 39.9982 6.26634 40.0532 6.6488 39.9332L13.7131 37.5784L19.54 39.9082C19.8375 40.0307 20.17 40.0307 20.4675 39.9082L26.2919 37.5784L33.3562 39.9332C33.4837 39.9757 33.6162 39.9982 33.7487 39.9982C34.0086 39.9982 34.2636 39.9182 34.4786 39.7607C34.8061 39.5282 34.9985 39.1507 34.9985 38.7483V1.25195C34.9985 0.849485 34.8061 0.472022 34.4786 0.237044ZM11.2509 7.50134H21.2499C21.9398 7.50134 22.4998 8.06128 22.4998 8.75121C22.4998 9.44115 21.9398 10.0011 21.2499 10.0011H11.2509C10.5609 10.0011 10.001 9.44115 10.001 8.75121C10.001 8.06128 10.5609 7.50134 11.2509 7.50134ZM18.7501 27.4994H11.2509C10.5609 27.4994 10.001 26.9394 10.001 26.2495C10.001 25.5596 10.5609 24.9996 11.2509 24.9996H18.7501C19.4401 24.9996 20 25.5596 20 26.2495C20 26.9394 19.4401 27.4994 18.7501 27.4994ZM18.7501 20.0001H11.2509C10.5609 20.0001 10.001 19.4402 10.001 18.7502C10.001 18.0603 10.5609 17.5004 11.2509 17.5004H18.7501C19.4401 17.5004 20 18.0603 20 18.7502C20 19.4402 19.4401 20.0001 18.7501 20.0001ZM27.4993 29.8067V31.249C27.4993 31.9389 26.9393 32.4989 26.2494 32.4989C25.5595 32.4989 24.9995 31.9389 24.9995 31.249V29.8267C24.5971 29.7117 24.2196 29.5392 23.8796 29.3142C23.3072 28.9317 23.1522 28.1543 23.5347 27.5794C23.9196 27.0069 24.6945 26.8544 25.2695 27.2344C25.5295 27.4069 25.8694 27.4994 26.2494 27.4994C27.0143 27.4994 27.4993 27.0894 27.4993 26.8744C27.4993 26.6595 27.0143 26.2495 26.2494 26.2495C24.1821 26.2495 22.4998 24.8471 22.4998 23.1248C22.4998 21.7674 23.5472 20.6226 24.9995 20.1926V18.7502C24.9995 18.0603 25.5595 17.5004 26.2494 17.5004C26.9393 17.5004 27.4993 18.0603 27.4993 18.7502V20.1726C27.9017 20.2876 28.2817 20.4601 28.6192 20.685C29.1916 21.0675 29.3466 21.8449 28.9641 22.4174C28.5792 22.9898 27.8067 23.1473 27.2293 22.7623C26.9718 22.5899 26.6319 22.4999 26.2494 22.4999C25.4845 22.4999 24.9995 22.9098 24.9995 23.1248C24.9995 23.3398 25.4845 23.7497 26.2494 23.7497C28.3167 23.7497 29.999 25.1521 29.999 26.8744C29.999 28.2318 28.9516 29.3767 27.4993 29.8067ZM28.7491 15.0006H11.2509C10.5609 15.0006 10.001 14.4407 10.001 13.7507C10.001 13.0608 10.5609 12.5008 11.2509 12.5008H28.7491C29.4391 12.5008 29.999 13.0608 29.999 13.7507C29.999 14.4407 29.4391 15.0006 28.7491 15.0006Z" fill="url(#paint0_linear)"/>
</g>
<defs>
<linearGradient id="paint0_linear" x1="5.00146" y1="0" x2="43.4004" y2="28.7964" gradientUnits="userSpaceOnUse">
<stop stop-color="#36D1DC"/>
<stop offset="1" stop-color="#5B86E5"/>
</linearGradient>
<clipPath id="clip0">
<rect width="40" height="40" fill="white"/>
</clipPath>
</defs>
</svg>
