<svg width="40" height="40" viewBox="0 0 40 40" fill="none" xmlns="http://www.w3.org/2000/svg">
<g clip-path="url(#clip0)">
<path d="M36.5252 33.5072C38.7751 31.0897 40.0001 28.1098 40.0001 24.9999C40.0001 21.11 38.0726 17.6001 34.9952 15.0977C34.9327 24.0124 26.5529 31.2497 16.2507 31.2497H9.2959C11.9908 35.6946 17.4532 38.7495 23.7505 38.7495H38.7501C39.2551 38.7495 39.7126 38.4445 39.9051 37.977C40.0976 37.5095 39.9901 36.9721 39.6351 36.6146L36.5252 33.5072Z" fill="url(#paint0_linear)"/>
<path d="M16.2507 1.25C7.29092 1.25 0.00111292 7.41733 0.00111292 14.9996C0.00111292 18.1095 1.22608 21.087 3.47602 23.5069L0.366103 26.6168C0.00861267 26.9743 -0.0988844 27.5118 0.0961103 27.9793C0.288605 28.4443 0.746093 28.7492 1.25108 28.7492H16.2507C25.2104 28.7492 32.5002 22.5819 32.5002 14.9996C32.5002 7.41733 25.2104 1.25 16.2507 1.25ZM18.7506 18.7495H8.75087C8.06089 18.7495 7.50091 18.1895 7.50091 17.4996C7.50091 16.8096 8.06089 16.2496 8.75087 16.2496H18.7506C19.4406 16.2496 20.0006 16.8096 20.0006 17.4996C20.0006 18.1895 19.4406 18.7495 18.7506 18.7495ZM23.7505 13.7497H8.75087C8.06089 13.7497 7.50091 13.1897 7.50091 12.4997C7.50091 11.8097 8.06089 11.2497 8.75087 11.2497H23.7505C24.4404 11.2497 25.0004 11.8097 25.0004 12.4997C25.0004 13.1897 24.4404 13.7497 23.7505 13.7497Z" fill="url(#paint1_linear)"/>
</g>
<defs>
<linearGradient id="paint0_linear" x1="9.2959" y1="15.0977" x2="32.1647" y2="44.7852" gradientUnits="userSpaceOnUse">
<stop stop-color="#36D1DC"/>
<stop offset="1" stop-color="#5B86E5"/>
</linearGradient>
<linearGradient id="paint1_linear" x1="0" y1="1.25" x2="27.1198" y2="33.3018" gradientUnits="userSpaceOnUse">
<stop stop-color="#36D1DC"/>
<stop offset="1" stop-color="#5B86E5"/>
</linearGradient>
<clipPath id="clip0">
<rect width="40" height="40" fill="white"/>
</clipPath>
</defs>
</svg>
