<svg width="20" height="20" viewBox="0 0 20 20" fill="none" xmlns="http://www.w3.org/2000/svg">
<rect width="20" height="20" rx="5" fill="#22BD57"/>
<g clip-path="url(#clip0)">
<path d="M15.476 4.78139C14.9345 4.48981 14.3305 5.05214 13.9764 5.38537C13.1642 6.1768 12.4769 7.09318 11.7063 7.92626C10.8524 8.84265 10.061 9.75903 9.18623 10.6546C8.68639 11.1545 8.14488 11.696 7.81165 12.3208C7.06188 11.5918 6.41625 10.8004 5.58317 10.1548C4.97919 9.69658 3.97949 9.36335 4.00032 10.4672C4.04197 11.9043 5.31242 13.4455 6.24963 14.4243C6.64534 14.8408 7.16602 15.2782 7.77 15.299C8.49894 15.3407 9.24871 14.466 9.68608 13.9869C10.4567 13.1539 11.0815 12.2166 11.7896 11.3627C12.706 10.2381 13.6432 9.13422 14.5388 7.98874C15.1011 7.28062 16.8714 5.53113 15.476 4.78139ZM4.91667 10.3839C4.89585 10.3839 4.87502 10.3839 4.83336 10.4047C4.75006 10.3839 4.68758 10.363 4.60427 10.3214C4.66675 10.2797 4.77088 10.3005 4.91667 10.3839Z" fill="white"/>
</g>
<defs>
<clipPath id="clip0">
<rect width="12" height="12" fill="white" transform="translate(4 4)"/>
</clipPath>
</defs>
</svg>
