<svg width="18" height="18" viewBox="0 0 18 18" fill="none" xmlns="http://www.w3.org/2000/svg">
<g clip-path="url(#clip0)">
<path d="M17.214 1.1716C16.4017 0.73423 15.4957 1.57772 14.9646 2.07757C13.7463 3.2647 12.7154 4.63928 11.5594 5.8889C10.2786 7.26348 9.09145 8.63806 7.77935 9.98145C7.02958 10.7312 6.21733 11.5435 5.71748 12.4807C4.59282 11.3872 3.62437 10.2001 2.37475 9.23168C1.46878 8.54439 -0.03076 8.04454 0.000480451 9.70028C0.0629613 11.8559 1.96863 14.1677 3.37445 15.636C3.96802 16.2608 4.74903 16.9168 5.655 16.9481C6.74841 17.0105 7.87307 15.6984 8.52912 14.9799C9.68507 13.7303 10.6223 12.3244 11.6844 11.0436C13.059 9.35664 14.4648 7.70085 15.8081 5.98262C16.6516 4.92045 19.3071 2.2962 17.214 1.1716ZM1.37501 9.57532C1.34377 9.57532 1.31253 9.57532 1.25005 9.60651C1.12509 9.57532 1.03136 9.54403 0.906402 9.48155C1.00012 9.41907 1.15633 9.45031 1.37501 9.57532Z" fill="#E3E5EC"/>
</g>
<defs>
<clipPath id="clip0">
<rect width="18" height="18" fill="white"/>
</clipPath>
</defs>
</svg>
