<svg width="22" height="22" viewBox="0 0 22 22" fill="none" xmlns="http://www.w3.org/2000/svg">
<path d="M11 0C4.9347 0 0 4.9347 0 11C0 17.0653 4.9347 22 11 22C17.0653 22 22 17.0653 22 11C22 4.9347 17.0653 0 11 0ZM17.2823 7.84717L9.35645 15.7731C9.17739 15.9521 8.94287 16.0417 8.70835 16.0417C8.47382 16.0417 8.23926 15.9521 8.06025 15.7731L3.80102 11.5138C3.62196 11.3349 3.62196 11.0446 3.80102 10.8656L4.44903 10.2176C4.62808 10.0386 4.9182 10.0386 5.09725 10.2176L8.70835 13.8288L15.9861 6.55093C16.1651 6.37196 16.4553 6.37196 16.6343 6.55093L17.2823 7.19898C17.4614 7.37799 17.4614 7.6682 17.2823 7.84717Z" fill="url(#paint0_linear)"/>
<defs>
<linearGradient id="paint0_linear" x1="5.28789" y1="19.8785" x2="20.8367" y2="5.19188" gradientUnits="userSpaceOnUse">
<stop stop-color="#34CDFA"/>
<stop offset="1" stop-color="#E8D9F1"/>
</linearGradient>
</defs>
</svg>
