<?xml version="1.0" encoding="utf-8"?>
<!-- Generator: Adobe Illustrator 25.0.0, SVG Export Plug-In . SVG Version: 6.00 Build 0)  -->
<svg version="1.1" id="Layer_1" xmlns="http://www.w3.org/2000/svg" xmlns:xlink="http://www.w3.org/1999/xlink" x="0px" y="0px"
	 viewBox="0 0 71.2 71.2" style="enable-background:new 0 0 71.2 71.2;" xml:space="preserve">
<style type="text/css">
	.st0{fill:#F1F1F2;}
	.st1{fill:#640F13;}
	.st2{fill:#FCE8D0;}
	.st3{fill:#E6E7E8;}
	.st4{fill:#DB4342;}
	.st5{fill:#FACCAA;}
	.st6{fill:#FFFFFF;}
</style>
<g>
	<g>
		<path class="st0" d="M62,15.2c0.2-3.5-2.5-6.5-6.1-6.7c-1.4-0.1-2.6,0.3-3.7,1C49.5,6.9,44.5,4.1,35.7,4
			c-12.1-0.3-17.1,8.8-18.9,13.7c-2,0.7-2.9,1.9-4.2,4.7c-1.4,3-1.4,6.3,0.5,7.4c-1.6,0.7-2.8,2.4-2.8,4.3c0,2.2,1.5,4,3.5,4.5
			c-1.4,5.1,0.5,12.2,5.6,17.7c7.6,8.2,12.5,7.4,12.9,10.1c0.4,2.7,12.2-4.5,17-10.1c2.5-2.9,8.1-11.4,5.6-17.6
			c2.2-0.4,3.8-2.3,3.8-4.6c0-1.8-1-3.4-2.5-4.2c1.3-0.9,1.6-3.6,0.2-7.5c-0.1-0.4-0.4-0.8-0.7-1.2C59.1,21.1,61.8,18.5,62,15.2z"/>
		<path class="st1" d="M35.3,3.9c0.1,0,0.3,0,0.4,0c8.8,0.2,13.8,3,16.5,5.5c1-0.6,2.1-1,3.4-1c0.1,0,0.2,0,0.3,0
			c3.5,0.2,6.3,3.2,6.1,6.7c-0.2,3.4-2.9,6-6.2,6c0.3,0.4,0.5,0.8,0.7,1.2c1.4,3.9,1.1,6.7-0.2,7.5c1.5,0.8,2.5,2.3,2.5,4.2
			c0,2.3-1.6,4.2-3.8,4.6c2.6,6.1-3.1,14.6-5.6,17.6C45.3,61,36.2,66.9,33.3,66.9c-0.5,0-0.8-0.2-0.9-0.6
			c-0.4-2.7-5.3-1.9-12.9-10.1c-5.1-5.4-7-12.6-5.6-17.7c-2-0.6-3.5-2.4-3.5-4.5c0-1.9,1.1-3.6,2.8-4.3c-1.9-1.1-1.9-4.4-0.5-7.4
			c1.3-2.8,2.3-4,4.2-4.7C18.6,12.9,23.5,3.9,35.3,3.9 M35.3,1.4c-12.8,0-18.4,9.4-20.5,14.4c-2.2,1.1-3.4,2.9-4.6,5.5
			c-1.4,2.9-1.6,5.8-0.7,8c-1.1,1.3-1.8,3-1.8,4.8c0,2.4,1.2,4.6,3.2,6c-0.7,5.8,1.8,12.8,6.6,18c4.6,5,8.4,6.9,10.7,8
			c0.6,0.3,1.3,0.7,1.6,0.9c0.3,1.3,1.4,2.6,3.3,2.6c4.1,0,13.8-6.6,18-11.5c3-3.5,7.7-11.1,6.7-17.8c2-1.3,3.3-3.6,3.3-6.1
			c0-1.7-0.6-3.4-1.7-4.7c0.5-1.7,0.5-3.9-0.3-6.4c3-1.3,5.1-4.3,5.3-7.7c0.2-4.9-3.5-9.1-8.5-9.4c-0.2,0-0.3,0-0.4,0
			c-1,0-2,0.2-3,0.5c-3.1-2.4-8.4-4.9-16.9-5.1C35.6,1.4,35.4,1.4,35.3,1.4L35.3,1.4L35.3,1.4z"/>
	</g>
	<g>
		<path class="st2" d="M58.7,34.1c0,2.6-2.1,4.7-4.7,4.7l0,0V39c0,10.7-8.8,19.5-19.5,19.5l0,0C23.8,58.5,15,49.7,15,39v-0.2
			c-2.6,0-4.7-2.1-4.7-4.7c0-2.6,2.1-4.7,4.7-4.7v-0.2c0-10.7,8.8-19.5,19.5-19.5l0,0C45.2,9.7,54,18.5,54,29.2v0.2l0,0
			C56.6,29.4,58.7,31.5,58.7,34.1z"/>
		<path class="st1" d="M34.5,59.1c-11,0-19.9-8.8-20.1-19.7c-2.7-0.3-4.7-2.6-4.7-5.3s2.1-5,4.7-5.3c0.2-10.9,9.2-19.7,20.1-19.7
			c11,0,19.9,8.8,20.1,19.7c2.7,0.3,4.8,2.6,4.8,5.3c0,2.8-2.1,5-4.8,5.3C54.4,50.3,45.4,59.1,34.5,59.1z M34.5,10.3
			c-10.4,0-18.9,8.5-18.9,18.8v0.2c0,0.3-0.3,0.6-0.6,0.6c-2.3,0-4.1,1.8-4.1,4.1s1.8,4.1,4.1,4.1c0.3,0,0.6,0.3,0.6,0.6v0.2
			c0,10.4,8.5,18.8,18.8,18.8c10.4,0,18.9-8.5,18.9-18.8v-0.1c0-0.3,0.3-0.6,0.6-0.6c2.3,0,4.1-1.8,4.1-4.1S56.2,30,53.9,30
			c-0.3,0-0.7-0.3-0.7-0.6v-0.2C53.3,18.8,44.9,10.3,34.5,10.3z"/>
	</g>
	<path class="st3" d="M33.9,33.4c0,0-9.1-3.1-16.2,0s-6.6,15.1,1.1,23.3S31.3,64,31.7,66.8c0.4,2.8,12.2-4.5,17-10.1
		c3.5-4.1,13.1-19.2-2.2-23.3C41.4,32,33.9,33.4,33.9,33.4z"/>
	<path class="st0" d="M49.4,33.7c-0.7-0.3-1.4-0.5-2.2-0.7c-5.2-1.4-12.7,0-12.7,0s-9.1-3.1-16.2,0c-5.5,2.4-6.4,10.2-2.9,17.4
		c0.4,0,0.6,0,0.6,0s5.6,6.7,13.4,8.7s12.7-0.6,16.1-3.4c3.8-3.1,6.3-6,7.4-11.2C53.7,41,52.1,36.9,49.4,33.7z"/>
	<path class="st1" d="M32.9,68c-0.2,0-0.4,0-0.6-0.1c-0.5-0.2-0.9-0.5-0.9-1.1c-0.1-0.8-0.9-1.3-2.6-2.1c-2.3-1.2-5.9-3-10.3-7.7
		c-4.8-5.2-7.2-12.1-6.1-17.7c0.7-3.2,2.5-5.7,5.2-6.8c6.9-3,15.4-0.5,16.7-0.1c1.2-0.2,8-1.3,13,0c4.7,1.3,7.5,3.6,8.6,7
		c1.9,6.2-3.1,14.2-6.1,17.6C45.7,61.6,36.3,68,32.9,68z M25.2,32.2c-2.4,0-4.9,0.3-7.2,1.3s-3.8,3.1-4.4,5.9
		c-1.1,5.2,1.2,11.7,5.7,16.6c4.3,4.6,7.7,6.3,10,7.5c1.8,0.9,3.1,1.5,3.3,3.1c1.1,0.8,11.1-4.7,16.2-10.5
		c2.2-2.6,7.6-10.5,5.8-16.4c-0.9-2.9-3.5-5-7.7-6.1c-5-1.4-12.5,0-12.6,0c-0.1,0-0.2,0-0.3,0C33.9,33.6,29.9,32.2,25.2,32.2z"/>
	<g>
		<path class="st4" d="M15.9,20.6c0,0,3.3-17,19.8-16.7s19.6,9.9,19.6,9.9s0.5,2.6-4.4,4.1c0,0,1.8,2.6,2.4,4.6S15.9,20.6,15.9,20.6
			z"/>
		<path class="st1" d="M48.8,23.7c-7.8,0-22.9-1.4-32.9-2.4c-0.2,0-0.3-0.1-0.4-0.3c-0.1-0.1-0.1-0.3-0.1-0.5S19,2.9,35.8,3.3
			c16.8,0.3,20,9.9,20.2,10.3c0,0.2,0.5,2.9-4,4.7c0.6,0.9,1.6,2.7,2.1,4.1c0.1,0.3,0,0.5-0.2,0.7C53.4,23.5,51.6,23.7,48.8,23.7z
			 M16.7,20.1c12.9,1.3,32.8,3,35.9,2.2c-0.7-1.8-2.2-4-2.2-4.1c-0.1-0.2-0.1-0.4-0.1-0.6c0.1-0.2,0.2-0.3,0.4-0.4
			c4.2-1.3,4-3.3,4-3.4c-0.1-0.3-3.2-9.1-19-9.3C21.7,4.3,17.5,17,16.7,20.1z"/>
	</g>
	<g>
		<path class="st0" d="M19.9,16.9c-4.3,0.9-5.5,1.5-7.3,5.5s-1.2,8.4,2.9,7.8c4.1-0.6,7-3.7,19.7-3.1s16.7,2.2,19.4,3s3.9-2.4,2-7.7
			S39.6,12.8,19.9,16.9z"/>
		<path class="st1" d="M14.7,30.8c-1.5,0-2.4-0.7-2.9-1.3c-1.2-1.6-1.1-4.5,0.2-7.4c1.9-4.2,3.3-4.9,7.7-5.8
			c19.3-4,35.2-0.1,37.3,5.9c1.3,3.6,1.3,6.5,0,7.9c-0.7,0.7-1.7,0.9-2.7,0.6l-0.7-0.2c-2.6-0.8-7-2.2-18.5-2.8
			c-8.9-0.4-12.9,1-15.9,2.1c-1.3,0.5-2.4,0.9-3.7,1C15.2,30.8,15,30.8,14.7,30.8z M19.9,16.9l0.1,0.6c-4.1,0.8-5.1,1.4-6.8,5.1
			c-1.1,2.4-1.2,4.9-0.3,6.1c0.5,0.7,1.4,1,2.5,0.8s2.2-0.5,3.4-1c3.1-1.1,7.3-2.6,16.4-2.1c11.7,0.6,16.1,2,18.8,2.8l0.7,0.2
			c0.6,0.2,1.1,0.1,1.5-0.3c0.7-0.7,1.1-2.9-0.2-6.6c-1.7-4.8-16.2-9.1-35.9-5.1L19.9,16.9z"/>
	</g>
	<g>
		<circle class="st0" cx="55.6" cy="14.9" r="6.4"/>
		<path class="st1" d="M55.6,21.9c-0.1,0-0.2,0-0.4,0c-3.9-0.2-6.9-3.5-6.7-7.4s3.5-6.9,7.4-6.7c3.9,0.2,6.9,3.5,6.7,7.4
			c-0.1,1.9-0.9,3.6-2.3,4.9C59,21.3,57.4,21.9,55.6,21.9z M55.6,9.1c-3.1,0-5.6,2.4-5.8,5.5c-0.1,1.5,0.4,3,1.5,4.2
			c1,1.1,2.5,1.8,4,1.9c1.5,0.1,3-0.4,4.2-1.5c1.1-1,1.8-2.5,1.9-4l0,0c0.1-1.5-0.4-3-1.5-4.2c-1-1.1-2.5-1.8-4-1.9
			C55.8,9.1,55.7,9.1,55.6,9.1z"/>
	</g>
	<path class="st2" d="M34.5,30.1c-6.4,0-7.5,2.2-7.2,4.1c0.3,1.9,1.6,3.5,7.2,3.5s6.1-1.6,6.1-3.8C40.6,31.8,37.3,30.1,34.5,30.1z"
		/>
	<path class="st1" d="M34.1,50.3c-9.8,0-11.6-8-11.6-8.1c-0.1-0.3,0.1-0.7,0.5-0.7c0.3-0.1,0.7,0.1,0.7,0.5
		c0.1,0.3,1.6,7.1,10.4,7.1c8.7,0,9.8-6.8,9.9-7.1c0.1-0.3,0.4-0.6,0.7-0.5c0.3,0,0.6,0.4,0.5,0.7C45.2,42.2,43.9,50.3,34.1,50.3z"
		/>
	<path class="st1" d="M21.5,42.5c-1.2,0-2.3-0.7-2.8-1.8c-0.1-0.3,0-0.7,0.3-0.8s0.7,0,0.8,0.3c0.4,0.9,1.5,1.3,2.5,0.9
		c0.9-0.4,1.3-1.5,0.9-2.5c-0.1-0.3,0-0.7,0.3-0.8s0.7,0,0.8,0.3c0.7,1.5,0.1,3.4-1.5,4.1C22.4,42.4,22,42.5,21.5,42.5z"/>
	<path class="st1" d="M45.5,42.9c-0.3,0-0.7-0.1-1-0.2c-1.5-0.5-2.3-2.2-1.8-3.8c0.1-0.3,0.5-0.5,0.8-0.4s0.5,0.5,0.4,0.8
		c-0.3,0.9,0.1,1.8,1,2.2c0.4,0.2,0.9,0.1,1.3-0.1c0.4-0.2,0.7-0.5,0.9-1c0.1-0.3,0.5-0.5,0.8-0.4s0.5,0.5,0.4,0.8
		c-0.3,0.7-0.8,1.3-1.5,1.7C46.4,42.8,46,42.9,45.5,42.9z"/>
	<path class="st1" d="M39.4,37.5c-0.2,0-0.4-0.1-0.5-0.3c-0.2-0.3-0.1-0.7,0.2-0.9c0.8-0.5,0.9-1.3,0.9-2.4c0-1.8-3-3.2-5.5-3.2
		c-3.9,0-5.5,0.9-6.1,1.6c-0.4,0.5-0.6,1.1-0.5,1.8C28,35,28.4,35.5,29,36c0.3,0.2,0.3,0.6,0.1,0.9c-0.2,0.3-0.6,0.3-0.9,0.1
		c-0.9-0.7-1.4-1.6-1.6-2.7c-0.2-1.1,0.1-2.1,0.8-2.8c1.2-1.3,3.5-2,7.1-2c3.2,0,6.8,1.8,6.8,4.4c0,1.3-0.2,2.6-1.5,3.4
		C39.7,37.4,39.5,37.5,39.4,37.5z"/>
	<path class="st1" d="M49.6,17.7c-0.2,0-0.4-0.1-0.5-0.3c0,0-2.5-3.9-6.2-6.3c-0.3-0.2-0.4-0.6-0.2-0.9s0.6-0.4,0.9-0.2
		c4,2.6,6.5,6.5,6.6,6.7c0.2,0.3,0.1,0.7-0.2,0.9C49.8,17.7,49.7,17.7,49.6,17.7z"/>
	<path class="st5" d="M38,35.3c0,1.1-1.7,1-3.8,1s-3.8,0.2-3.8-1c0-1.1,1.7-2.1,3.8-2.1S38,34.2,38,35.3z"/>
	<circle class="st6" cx="56" cy="13.8" r="3.4"/>
	<ellipse transform="matrix(0.2935 -0.956 0.956 0.2935 -10.318 33.0857)" class="st6" cx="17.2" cy="23.5" rx="2.9" ry="1.3"/>
	<ellipse transform="matrix(0.2935 -0.956 0.956 0.2935 -4.8157 37.7709)" class="st3" cx="23.1" cy="22.1" rx="2.9" ry="1.3"/>
	<ellipse transform="matrix(0.2935 -0.956 0.956 0.2935 12.8596 66.6879)" class="st3" cx="51.5" cy="24.6" rx="2.2" ry="1"/>
	<ellipse transform="matrix(0.2935 -0.956 0.956 0.2935 0.7425 43.6842)" class="st6" cx="29.9" cy="21.3" rx="2.9" ry="1.3"/>
	<ellipse transform="matrix(0.2935 -0.956 0.956 0.2935 10.3817 58.3213)" class="st6" cx="44.6" cy="22.1" rx="2.9" ry="1.3"/>
	<ellipse transform="matrix(0.2935 -0.956 0.956 0.2935 5.8424 50.5607)" class="st3" cx="37.1" cy="21.3" rx="2.9" ry="1.3"/>
</g>
</svg>
