<svg width="40" height="40" viewBox="0 0 40 40" fill="none" xmlns="http://www.w3.org/2000/svg">
<path d="M17.5 12.499V9.99902H2.5C1.1225 9.99902 0 11.1215 0 12.499V17.499H18.0275C17.68 15.9715 17.5 14.3265 17.5 12.499Z" fill="url(#paint0_linear)"/>
<path d="M39.8975 22.499C38.1925 25.1265 35.5925 27.3615 31.8675 29.5015C31.295 29.829 30.65 29.999 30 29.999C29.35 29.999 28.705 29.829 28.14 29.5065C24.415 27.3615 21.815 25.124 20.1075 22.499H0V34.999C0 36.379 1.1225 37.499 2.5 37.499H37.5C38.88 37.499 40 36.379 40 34.999V22.499H39.8975ZM11.25 29.999H6.25C5.56 29.999 5 29.439 5 28.749C5 28.059 5.56 27.499 6.25 27.499H11.25C11.94 27.499 12.5 28.059 12.5 28.749C12.5 29.439 11.94 29.999 11.25 29.999Z" fill="url(#paint1_linear)"/>
<path d="M39.2425 6.35223L30.4925 2.60223C30.175 2.46723 29.8225 2.46723 29.505 2.60223L20.755 6.35223C20.2975 6.54723 20 6.99973 20 7.49973V12.4997C20 19.3772 22.5425 23.3972 29.3775 27.3347C29.57 27.4447 29.785 27.4997 30 27.4997C30.215 27.4997 30.43 27.4447 30.6225 27.3347C37.4575 23.4072 40 19.3872 40 12.4997V7.49973C40 6.99973 39.7025 6.54723 39.2425 6.35223ZM34.7275 12.0322L29.7275 18.2822C29.4875 18.5772 29.1275 18.7497 28.75 18.7497C28.7325 18.7497 28.7125 18.7497 28.6975 18.7497C28.3 18.7322 27.9325 18.5272 27.71 18.1947L25.21 14.4447C24.8275 13.8697 24.9825 13.0947 25.5575 12.7122C26.1275 12.3322 26.905 12.4822 27.29 13.0597L28.8425 15.3872L32.7725 10.4722C33.205 9.93472 33.9925 9.84973 34.53 10.2772C35.07 10.7047 35.155 11.4922 34.7275 12.0322Z" fill="url(#paint2_linear)"/>
<defs>
<linearGradient id="paint0_linear" x1="0" y1="9.99902" x2="5.31972" y2="22.7859" gradientUnits="userSpaceOnUse">
<stop stop-color="#0575E6"/>
<stop offset="1" stop-color="#021B79"/>
</linearGradient>
<linearGradient id="paint1_linear" x1="0" y1="22.499" x2="9.86302" y2="48.8004" gradientUnits="userSpaceOnUse">
<stop stop-color="#0575E6"/>
<stop offset="1" stop-color="#021B79"/>
</linearGradient>
<linearGradient id="paint2_linear" x1="20" y1="2.50098" x2="44.3893" y2="22.0134" gradientUnits="userSpaceOnUse">
<stop stop-color="#0575E6"/>
<stop offset="1" stop-color="#021B79"/>
</linearGradient>
</defs>
</svg>
