<svg width="40" height="40" viewBox="0 0 40 40" fill="none" xmlns="http://www.w3.org/2000/svg">
<path d="M20 40C31.0457 40 40 31.0457 40 20C40 8.9543 31.0457 0 20 0C8.9543 0 0 8.9543 0 20C0 31.0457 8.9543 40 20 40Z" fill="#5F98D1"/>
<path d="M6.89209 12.2256V27.7585L14.4669 19.9607L6.89209 12.2256Z" fill="white"/>
<path d="M33.108 12.2256V27.7585L25.5708 19.9921L33.108 12.2256Z" fill="white"/>
<path d="M7.46582 11.5205H32.4857L22.6525 21.7594C21.9527 22.4881 20.9861 22.9 19.9758 22.9C18.9656 22.9 17.9989 22.4881 17.2991 21.7594L7.46582 11.5205Z" fill="white"/>
<path d="M23.2198 22.304C22.3761 23.1825 21.1938 23.6864 19.9758 23.6864C18.7579 23.6864 17.5755 23.1826 16.7319 22.3041L15.064 20.5674L7.46582 28.4789H32.4857L24.8876 20.5674L23.2198 22.304Z" fill="white"/>
</svg>
