<svg width="40" height="40" viewBox="0 0 40 40" fill="none" xmlns="http://www.w3.org/2000/svg">
<path d="M19.9998 37.3337C29.5728 37.3337 37.3332 29.5733 37.3332 20.0003C37.3332 10.4274 29.5728 2.66699 19.9998 2.66699C10.4269 2.66699 2.6665 10.4274 2.6665 20.0003C2.6665 29.5733 10.4269 37.3337 19.9998 37.3337Z" fill="url(#paint0_linear)"/>
<path d="M24.6378 32.9387C21.4269 32.9411 18.2768 32.0632 15.5299 30.4006C12.783 28.7379 10.5444 26.3541 9.05756 23.5082C7.57069 20.6623 6.8924 17.4633 7.09643 14.2589C7.30046 11.0545 8.37899 7.96733 10.2148 5.33301C8.10275 6.79958 6.33836 8.71186 5.04618 10.9349C3.754 13.1579 2.96551 15.6375 2.73639 18.1985C2.50727 20.7596 2.8431 23.3397 3.72017 25.7568C4.59723 28.1739 5.99416 30.369 7.81234 32.1872C9.63052 34.0053 11.8256 35.4023 14.2427 36.2793C16.6598 37.1564 19.2399 37.4922 21.801 37.2631C24.3621 37.034 26.8416 36.2455 29.0646 34.9533C31.2876 33.6611 33.1999 31.8968 34.6665 29.7847C31.7266 31.8406 28.2252 32.9418 24.6378 32.9387Z" fill="url(#paint1_linear)"/>
<path d="M24.6665 16C25.7711 16 26.6665 15.1046 26.6665 14C26.6665 12.8954 25.7711 12 24.6665 12C23.5619 12 22.6665 12.8954 22.6665 14C22.6665 15.1046 23.5619 16 24.6665 16Z" fill="white"/>
<path d="M16.6665 16C17.7711 16 18.6665 15.1046 18.6665 14C18.6665 12.8954 17.7711 12 16.6665 12C15.5619 12 14.6665 12.8954 14.6665 14C14.6665 15.1046 15.5619 16 16.6665 16Z" fill="white"/>
<path d="M26.4444 20C26.4444 21.0609 24.728 23.4116 23.9154 24.1618C23.1027 24.9119 21.8159 25.3333 20.6667 25.3333C19.5174 25.3333 18.0706 24.9119 17.258 24.1618C16.4453 23.4116 14.8889 21.3333 14.8889 20H12C12 22.1217 12.9131 24.1566 14.5384 25.6569C16.1637 27.1571 18.3681 28 20.6667 28C22.9652 28 25.1696 27.1571 26.7949 25.6569C28.4202 24.1566 29.3333 22.1217 29.3333 20H26.4444Z" fill="white"/>
<defs>
<linearGradient id="paint0_linear" x1="2.6665" y1="2.66699" x2="37.3332" y2="37.3337" gradientUnits="userSpaceOnUse">
<stop stop-color="#C2E9FB"/>
<stop offset="1" stop-color="#A1C4FD"/>
</linearGradient>
<linearGradient id="paint1_linear" x1="10.9995" y1="44.5" x2="34.9995" y2="12.5" gradientUnits="userSpaceOnUse">
<stop stop-color="#A1C4FD"/>
<stop offset="1" stop-color="#C2E9FB"/>
</linearGradient>
</defs>
</svg>
