<svg width="82" height="60" viewBox="0 0 82 60" fill="none" xmlns="http://www.w3.org/2000/svg">
<path d="M0 15C0 6.71573 6.71573 0 15 0H76.9998L30.3238 27.715C29.4436 28.2376 28.6192 28.849 27.8635 29.5395L0 55.001V30V15Z" fill="#EE8423"/>
<path d="M14.272 25.001L12.208 19.513L16.144 14.217L13.392 14.217L12.144 16.249C11.792 16.825 11.52 17.337 11.12 18.073L11.072 18.073C10.912 17.433 10.768 16.953 10.576 16.281L9.92 14.217L7.488 14.217L9.376 19.497L5.344 25.001L8.112 25.001L9.392 22.905C9.84 22.137 10.128 21.593 10.48 20.985L10.512 20.985C10.704 21.657 10.88 22.169 11.088 22.825L11.824 25.001L14.272 25.001ZM17.4614 14.217L15.4134 25.001L18.1014 25.001L20.8374 21.129C21.6694 19.913 22.4694 18.681 23.1734 17.401L23.2214 17.401C22.8374 18.873 22.5974 20.105 22.2934 21.705L21.6534 25.001L23.8294 25.001L25.8774 14.217L23.3814 14.217L20.4534 18.489C19.6534 19.657 18.8214 20.857 18.0054 22.233L17.9574 22.217C18.3414 20.729 18.6934 19.193 19.0134 17.513L19.6374 14.217L17.4614 14.217ZM27.9123 25.001L30.2163 25.001L31.8803 16.233L34.7603 16.233L35.1443 14.217L27.1283 14.217L26.7283 16.233L29.5763 16.233L27.9123 25.001Z" fill="white"/>
<g filter="url(#filter0_d)">
<path d="M33.7773 47.3093C31.6706 51.0577 25.0198 50.9612 21.1966 48.9934C19.1421 47.936 16.599 47.2796 13.4998 47.501C6.49976 48.001 -0.000243966 55.0009 -0.000243966 55.0009C-0.000243966 55.0009 4.49976 45.3717 20.9998 32.001C49.9998 8.50097 76.9995 0.00082016 76.9995 0.00082016C76.9995 0.00082016 61.5 9.00107 51.9998 19.501C46.2658 25.8382 38.7477 38.4654 33.7773 47.3093Z" fill="url(#paint0_linear)"/>
</g>
<defs>
<filter id="filter0_d" x="-5" y="-5.99902" width="86.9998" height="65.0001" filterUnits="userSpaceOnUse" color-interpolation-filters="sRGB">
<feFlood flood-opacity="0" result="BackgroundImageFix"/>
<feColorMatrix in="SourceAlpha" type="matrix" values="0 0 0 0 0 0 0 0 0 0 0 0 0 0 0 0 0 0 127 0"/>
<feOffset dy="-1"/>
<feGaussianBlur stdDeviation="2.5"/>
<feColorMatrix type="matrix" values="0 0 0 0 0.566667 0 0 0 0 0.275683 0 0 0 0 0.0070833 0 0 0 1 0"/>
<feBlend mode="normal" in2="BackgroundImageFix" result="effect1_dropShadow"/>
<feBlend mode="normal" in="SourceGraphic" in2="effect1_dropShadow" result="shape"/>
</filter>
<linearGradient id="paint0_linear" x1="28.4998" y1="25.501" x2="39.9998" y2="40.501" gradientUnits="userSpaceOnUse">
<stop stop-color="#C16B1C"/>
<stop offset="0.411458" stop-color="#FF9C42"/>
<stop offset="1" stop-color="#EE8423"/>
</linearGradient>
</defs>
</svg>
