<svg width="40" height="40" viewBox="0 0 40 40" fill="none" xmlns="http://www.w3.org/2000/svg">
<g clip-path="url(#clip0)">
<path d="M20.0008 39.9996C31.0464 39.9996 40.0006 31.0454 40.0006 19.9998C40.0006 8.95423 31.0464 0 20.0008 0C8.9552 0 0.000976562 8.95423 0.000976562 19.9998C0.000976562 31.0454 8.9552 39.9996 20.0008 39.9996Z" fill="#55ACEE"/>
<path d="M20.0008 39.9996C31.0464 39.9996 40.0006 31.0454 40.0006 19.9998C40.0006 8.95423 31.0464 0 20.0008 0C8.9552 0 0.000976562 8.95423 0.000976562 19.9998C0.000976562 31.0454 8.9552 39.9996 20.0008 39.9996Z" fill="url(#paint0_linear)"/>
<path d="M24.5 8H15.5C11.3585 8 8 11.3585 8 15.5V24.5C8 28.6415 11.3585 32 15.5 32H24.5C28.6415 32 32 28.6415 32 24.5V15.5C32 11.3585 28.6415 8 24.5 8ZM29.75 24.5C29.75 27.395 27.395 29.75 24.5 29.75H15.5C12.605 29.75 10.25 27.395 10.25 24.5V15.5C10.25 12.605 12.605 10.25 15.5 10.25H24.5C27.395 10.25 29.75 12.605 29.75 15.5V24.5Z" fill="white"/>
<path d="M20 14C16.6865 14 14 16.6865 14 20C14 23.3135 16.6865 26 20 26C23.3135 26 26 23.3135 26 20C26 16.6865 23.3135 14 20 14ZM20 23.75C17.933 23.75 16.25 22.067 16.25 20C16.25 17.9315 17.933 16.25 20 16.25C22.067 16.25 23.75 17.9315 23.75 20C23.75 22.067 22.067 23.75 20 23.75Z" fill="white"/>
<path d="M26.4499 14.35C26.8914 14.35 27.2494 13.992 27.2494 13.5505C27.2494 13.1089 26.8914 12.751 26.4499 12.751C26.0083 12.751 25.6504 13.1089 25.6504 13.5505C25.6504 13.992 26.0083 14.35 26.4499 14.35Z" fill="white"/>
</g>
<defs>
<linearGradient id="paint0_linear" x1="2.68662" y1="37.3937" x2="39.749" y2="5.3103" gradientUnits="userSpaceOnUse">
<stop stop-color="#FFDD55"/>
<stop offset="0.5" stop-color="#FF543E"/>
<stop offset="1" stop-color="#C837AB"/>
</linearGradient>
<clipPath id="clip0">
<rect width="40" height="40" fill="white"/>
</clipPath>
</defs>
</svg>
