<svg width="20" height="20" viewBox="0 0 20 20" fill="none" xmlns="http://www.w3.org/2000/svg">
<path d="M18.4787 8.47852H16.0437C15.2036 8.47852 14.5225 9.15961 14.5225 9.99971C14.5225 10.8398 15.2036 11.5209 16.0437 11.5209H18.4787C19.3188 11.5209 19.9999 10.8398 19.9999 9.99971C19.9999 9.15961 19.3188 8.47852 18.4787 8.47852Z" fill="black" fill-opacity="0.4"/>
<path d="M5.47742 9.99971C5.47742 9.15961 4.79633 8.47852 3.95623 8.47852H1.5212C0.681091 8.47852 0 9.15961 0 9.99971C0 10.8398 0.681091 11.5209 1.5212 11.5209H3.95623C4.79633 11.5209 5.47742 10.8399 5.47742 9.99971Z" fill="black" fill-opacity="0.8"/>
<path d="M9.96553 14.5225C9.12543 14.5225 8.44434 15.2036 8.44434 16.0437V18.4788C8.44434 19.3189 9.12543 20 9.96553 20C10.8056 20 11.4867 19.3189 11.4867 18.4788V16.0437C11.4867 15.2036 10.8057 14.5225 9.96553 14.5225Z" fill="black" fill-opacity="0.6"/>
<path d="M9.96543 0C9.12533 0 8.44434 0.681192 8.44434 1.5213V3.95623C8.44434 4.79634 9.12553 5.47733 9.96564 5.47733C10.8057 5.47733 11.4867 4.79613 11.4867 3.95603V1.5211C11.4867 0.68099 10.8056 0 9.96543 0Z" fill="black"/>
<path d="M15.3498 13.1974C14.7558 12.6035 13.7926 12.6035 13.1985 13.1974C12.6044 13.7914 12.6044 14.7546 13.1985 15.3487L14.9203 17.0706C15.2173 17.3676 15.6066 17.5162 15.996 17.5162C16.3853 17.5162 16.7746 17.3676 17.0715 17.0706C17.6656 16.4766 17.6656 15.5134 17.0715 14.9193L15.3498 13.1974Z" fill="black" fill-opacity="0.5"/>
<path d="M5.0802 2.92896C4.48622 2.33478 3.523 2.33498 2.92892 2.92896C2.33484 3.52303 2.33494 4.48626 2.92892 5.08023L4.65081 6.80213C4.94785 7.09927 5.33718 7.24774 5.7264 7.24774C6.11573 7.24774 6.50505 7.09917 6.80199 6.80213C7.39607 6.20805 7.39597 5.24493 6.80199 4.65085L5.0802 2.92896Z" fill="black" fill-opacity="0.9"/>
<path d="M4.65073 13.1975L2.92883 14.9195C2.33485 15.5136 2.33495 16.4768 2.92893 17.0709C3.22607 17.368 3.6153 17.5164 4.00452 17.5164C4.39385 17.5164 4.78327 17.3679 5.08021 17.0709L6.8021 15.3489C7.39608 14.7548 7.39598 13.7916 6.802 13.1975C6.20793 12.6034 5.2448 12.6035 4.65073 13.1975Z" fill="black" fill-opacity="0.7"/>
<path d="M14.2732 7.24691C14.6625 7.24691 15.0518 7.09834 15.3488 6.8013L17.0706 5.0793C17.6647 4.48522 17.6647 3.5221 17.0706 2.92802C16.4767 2.33384 15.5134 2.33394 14.9194 2.92802L13.1975 4.65002C12.6034 5.2441 12.6035 6.20732 13.1975 6.8013C13.4945 7.09844 13.8838 7.24691 14.2732 7.24691Z" fill="black" fill-opacity="0.3"/>
</svg>
