<svg width="40" height="40" viewBox="0 0 40 40" fill="none" xmlns="http://www.w3.org/2000/svg">
<g clip-path="url(#clip0)">
<path d="M25 16.6667H21.6667V10C21.6667 8.23189 20.9643 6.5362 19.714 5.28595C18.4638 4.03571 16.7681 3.33333 15 3.33333C13.2319 3.33333 11.5362 4.03571 10.286 5.28595C9.03571 6.5362 8.33333 8.23189 8.33333 10V16.6667H5V10C5 7.34784 6.05357 4.8043 7.92893 2.92893C9.8043 1.05357 12.3478 0 15 0C17.6522 0 20.1957 1.05357 22.0711 2.92893C23.9464 4.8043 25 7.34784 25 10V16.6667Z" fill="url(#paint0_linear)"/>
<path d="M26.667 15H3.33366C2.41318 15 1.66699 15.7462 1.66699 16.6667V35C1.66699 35.9205 2.41318 36.6667 3.33366 36.6667H26.667C27.5875 36.6667 28.3337 35.9205 28.3337 35V16.6667C28.3337 15.7462 27.5875 15 26.667 15Z" fill="url(#paint1_linear)"/>
<path d="M8.33366 33.3333C7.89163 33.3333 7.46771 33.1577 7.15515 32.8452C6.84259 32.5326 6.66699 32.1087 6.66699 31.6667V15H3.33366C2.89163 15 2.46771 15.1756 2.15515 15.4882C1.84259 15.8007 1.66699 16.2246 1.66699 16.6667V35C1.66699 35.442 1.84259 35.866 2.15515 36.1785C2.46771 36.4911 2.89163 36.6667 3.33366 36.6667H26.667C27.109 36.6667 27.5329 36.4911 27.8455 36.1785C28.1581 35.866 28.3337 35.442 28.3337 35V33.3333H8.33366Z" fill="url(#paint2_linear)"/>
<path d="M18.3337 23.3324C18.3342 22.7472 18.1806 22.1721 17.8884 21.665C17.5962 21.158 17.1756 20.7368 16.6689 20.4438C16.1623 20.1508 15.5874 19.9964 15.0022 19.9961C14.4169 19.9958 13.8419 20.1495 13.335 20.4419C12.828 20.7343 12.4069 21.155 12.1141 21.6618C11.8213 22.1685 11.6671 22.7434 11.667 23.3287C11.6669 23.9139 11.8208 24.4889 12.1134 24.9958C12.406 25.5026 12.8268 25.9236 13.3337 26.2162V31.6658H16.667V26.2162C17.1736 25.9242 17.5943 25.5039 17.8869 24.9977C18.1795 24.4915 18.3335 23.9171 18.3337 23.3324Z" fill="white"/>
<path d="M13.3334 23.3329C13.3338 22.5944 13.5796 21.877 14.0321 21.2934C14.4847 20.7098 15.1183 20.293 15.8334 20.1087C15.0535 19.9063 14.2266 19.9936 13.5061 20.3543C12.7856 20.7151 12.2204 21.3248 11.9152 22.0705C11.6099 22.8163 11.5854 23.6473 11.8462 24.4097C12.107 25.1721 12.6354 25.8141 13.3334 26.2166V31.6662H15V26.2166C14.4935 25.9246 14.0727 25.5044 13.7802 24.9982C13.4876 24.4919 13.3335 23.9176 13.3334 23.3329Z" fill="white"/>
<path d="M30 40C35.5228 40 40 35.5228 40 30C40 24.4772 35.5228 20 30 20C24.4772 20 20 24.4772 20 30C20 35.5228 24.4772 40 30 40Z" fill="url(#paint3_linear)"/>
<path d="M29.9996 33.3334C29.7411 33.3335 29.4862 33.2731 29.2552 33.1572L25.9219 31.4905L27.4127 28.5093L29.43 29.5178L31.9473 25.7422L34.7206 27.5911L31.3873 32.5911C31.235 32.8196 31.0287 33.0069 30.7866 33.1364C30.5445 33.2659 30.2741 33.3336 29.9996 33.3334Z" fill="white"/>
</g>
<defs>
<linearGradient id="paint0_linear" x1="5" y1="0" x2="21.3934" y2="19.6721" gradientUnits="userSpaceOnUse">
<stop stop-color="#C2E9FB"/>
<stop offset="1" stop-color="#A1C4FD"/>
</linearGradient>
<linearGradient id="paint1_linear" x1="1.66699" y1="15" x2="22.8748" y2="41.102" gradientUnits="userSpaceOnUse">
<stop stop-color="#C2E9FB"/>
<stop offset="1" stop-color="#A1C4FD"/>
</linearGradient>
<linearGradient id="paint2_linear" x1="1.66699" y1="15" x2="22.8748" y2="41.102" gradientUnits="userSpaceOnUse">
<stop stop-color="#C2E9FB"/>
<stop offset="1" stop-color="#A1C4FD"/>
</linearGradient>
<linearGradient id="paint3_linear" x1="24.8072" y1="38.0714" x2="38.9425" y2="24.7199" gradientUnits="userSpaceOnUse">
<stop stop-color="#34CDFA"/>
<stop offset="1" stop-color="#E8D9F1"/>
</linearGradient>
<clipPath id="clip0">
<rect width="40" height="40" fill="white"/>
</clipPath>
</defs>
</svg>
