<svg width="40" height="40" viewBox="0 0 40 40" fill="none" xmlns="http://www.w3.org/2000/svg">
<path d="M20 40C31.0457 40 40 31.0457 40 20C40 8.9543 31.0457 0 20 0C8.9543 0 0 8.9543 0 20C0 31.0457 8.9543 40 20 40Z" fill="#379797"/>
<path d="M19.4768 26.0192C21.2162 24.4491 22.3139 22.1693 22.3139 19.6372C22.3139 17.1045 21.2159 14.8259 19.4768 13.2384C17.9568 11.8543 15.9318 11.0098 13.703 11.0098C8.94252 11.0098 5.0752 14.8764 5.0752 19.6368C5.0752 24.3985 8.94252 28.2475 13.703 28.2475C15.9319 28.2479 17.9568 27.4041 19.4768 26.0192Z" fill="#009DDD"/>
<path d="M19.4766 26.0192C21.216 24.449 22.3137 22.1692 22.3137 19.6371C22.3137 17.1043 21.2157 14.8258 19.4766 13.2383V26.0192Z" fill="#009DDD"/>
<path d="M25.2683 11.0098C23.0391 11.0098 21.0128 11.8543 19.4765 13.2384C19.173 13.5252 18.8863 13.8293 18.6153 14.1508H20.3541C20.5909 14.4369 20.8104 14.7583 21.0128 15.0618H17.9565C17.7714 15.3659 17.6024 15.6704 17.4499 15.9736H21.5023C21.6381 16.2771 21.7723 16.5821 21.8737 16.8856H17.0969C16.9952 17.1895 16.9105 17.4941 16.8433 17.8141H22.1273C22.2451 18.3883 22.3137 19.0132 22.3137 19.6372C22.3137 20.5827 22.1608 21.5118 21.8738 22.3727H17.097C17.1974 22.6762 17.3158 22.9806 17.4503 23.2844H21.5028C21.3512 23.5885 21.1987 23.909 21.0129 24.1962H17.9566C18.1602 24.5171 18.3792 24.8208 18.6153 25.1079H20.3541C20.0844 25.4288 19.797 25.7329 19.4765 26.0197C21.0129 27.4045 23.0391 28.2483 25.2683 28.2483C30.0293 28.2483 33.879 24.3993 33.879 19.6376C33.8786 14.8765 30.0293 11.0098 25.2683 11.0098Z" fill="#ED1C2E"/>
<path d="M30.9058 21.4936C30.9058 21.3414 31.0416 21.2236 31.1931 21.2236C31.3454 21.2236 31.4631 21.3415 31.4631 21.4936C31.4631 21.6462 31.3453 21.781 31.1931 21.781C31.0416 21.781 30.9058 21.6462 30.9058 21.4936ZM31.1931 21.7134C31.311 21.7134 31.3955 21.6121 31.3955 21.4936C31.3955 21.3756 31.3109 21.2909 31.1931 21.2909C31.0747 21.2909 30.9743 21.3756 30.9743 21.4936C30.9743 21.6121 31.0747 21.7134 31.1931 21.7134ZM31.1593 21.6121H31.092V21.3755H31.1931C31.2262 21.3755 31.2436 21.3755 31.2609 21.3925C31.2776 21.4092 31.2941 21.4257 31.2941 21.4431C31.2941 21.4772 31.2774 21.5109 31.2435 21.5109L31.2941 21.612H31.2262L31.1931 21.5273H31.1593V21.6121ZM31.1593 21.4772H31.1931C31.1931 21.4772 31.2098 21.4772 31.2262 21.4772C31.2262 21.4772 31.2262 21.4598 31.2262 21.4431V21.4257C31.2095 21.4257 31.1931 21.4257 31.1763 21.4257H31.159V21.4772H31.1593Z" fill="white"/>
<path d="M12.6215 21.7808H11.5415L12.1828 18.421L10.7144 21.7808H9.73416L9.56579 18.4377L8.92444 21.7808H7.94482L8.77252 17.4082H10.4602L10.5445 20.109L11.7278 17.4082H13.465L12.6215 21.7808Z" fill="white"/>
<path d="M24.609 21.7303C24.3049 21.814 24.0854 21.8477 23.8318 21.8477C23.2921 21.8477 22.9873 21.5777 22.9873 21.0718C22.9873 20.9701 23.0047 20.8684 23.0211 20.7503L23.0883 20.3957L23.1402 20.126L23.6293 17.4082H24.6927L24.5414 18.2179H25.0979L24.9463 19.0797H24.3893L24.1193 20.565C24.1019 20.6326 24.0855 20.6834 24.0855 20.7169C24.0855 20.9029 24.2039 20.9865 24.4575 20.9865C24.5754 20.9865 24.6758 20.9698 24.7443 20.953L24.609 21.7303Z" fill="white"/>
<path d="M27.7327 18.2525C27.6481 18.2181 27.6317 18.2181 27.6149 18.2181C27.5638 18.2007 27.5302 18.2007 27.5302 18.1846C27.4958 18.1846 27.4624 18.1846 27.4124 18.1846C27.0571 18.1846 26.8042 18.3365 26.483 18.7581L26.584 18.2181H25.6044L24.9463 21.7807H26.0269C26.4151 19.6019 26.5673 19.2141 27.0903 19.2141C27.124 19.2141 27.1755 19.2311 27.2255 19.2311L27.3439 19.2646L27.7327 18.2525Z" fill="white"/>
<path d="M20.3534 19.3489C20.3534 19.7882 20.607 20.1088 21.1811 20.3289C21.6204 20.514 21.688 20.5651 21.688 20.7341C21.688 20.9533 21.4849 21.055 21.063 21.055C20.7421 21.055 20.4377 21.0041 20.0834 20.9034L19.9482 21.7307H19.9994L20.1845 21.781C20.2517 21.781 20.3528 21.798 20.4713 21.798C20.7249 21.8312 20.9276 21.8312 21.0795 21.8312C22.2107 21.8312 22.751 21.4598 22.751 20.6498C22.751 20.1599 22.5315 19.8732 21.9745 19.6537C21.5181 19.4847 21.4679 19.4342 21.4679 19.2653C21.4679 19.0802 21.6536 18.9785 22.0082 18.9785C22.2106 18.9785 22.5141 18.9959 22.7842 19.0287L22.9365 18.2186C22.6497 18.1688 22.2278 18.1514 21.9909 18.1514C20.7759 18.1508 20.3534 18.6908 20.3534 19.3489Z" fill="white"/>
<path d="M16.0995 21.7812H15.2213L15.2386 21.4092C14.9687 21.6966 14.5972 21.8314 14.1074 21.8314C13.534 21.8314 13.1284 21.4433 13.1284 20.8692C13.1284 20.0076 13.8197 19.5014 15.0195 19.5014C15.1366 19.5014 15.2891 19.5014 15.4581 19.5188C15.4918 19.4007 15.4918 19.3495 15.4918 19.2993C15.4918 19.063 15.3055 18.9784 14.7993 18.9784C14.4952 18.9784 14.1585 19.0122 13.9217 19.063L13.7701 19.1139L13.6684 19.1303L13.82 18.337C14.361 18.2012 14.6982 18.1514 15.104 18.1514C16.0318 18.1514 16.505 18.5054 16.505 19.1805C16.505 19.3665 16.4883 19.5017 16.421 19.8902L16.2015 21.1566L16.1677 21.3758L16.1333 21.5621L16.1166 21.6796L16.0995 21.7812ZM15.323 20.1937C15.2039 20.177 15.154 20.177 15.0867 20.177C14.4785 20.177 14.175 20.3626 14.175 20.7176C14.175 20.9368 14.3095 21.089 14.5457 21.089C14.9857 21.089 15.3059 20.7176 15.323 20.1937Z" fill="white"/>
<path d="M19.6276 21.6967C19.2568 21.798 18.9022 21.8483 18.5301 21.8483C17.3329 21.8483 16.707 21.2909 16.707 20.2443C16.707 19.0284 17.501 18.1338 18.5816 18.1338C19.4592 18.1338 20.0176 18.6404 20.0176 19.4169C20.0176 19.6866 19.9831 19.9411 19.8992 20.2952H17.7539C17.7539 20.3624 17.7539 20.3791 17.7539 20.4136C17.7539 20.8188 18.058 21.038 18.6827 21.038C19.0711 21.038 19.4255 20.9707 19.7965 20.8191L19.6276 21.6967ZM19.0541 19.5868C19.0541 19.5189 19.0541 19.451 19.0541 19.4008C19.0541 19.114 18.8677 18.9444 18.5475 18.9444C18.2096 18.9444 17.9734 19.1807 17.8714 19.5868H19.0541Z" fill="white"/>
<path d="M31.0751 20.1601C30.9061 21.3412 30.079 21.8648 28.981 21.8648C27.7831 21.8648 27.2939 21.1394 27.2939 20.2277C27.2939 18.9781 28.1204 18.1162 29.4035 18.1162C30.518 18.1162 31.1088 18.8255 31.1088 19.7205C31.1092 19.9413 31.1092 19.9577 31.0751 20.1601ZM29.9612 19.7038C29.9612 19.3324 29.8089 18.9957 29.371 18.9957C28.8294 18.9957 28.4922 19.6365 28.4922 20.2109C28.4922 20.684 28.729 21.0045 29.1004 21.0045C29.3366 21.0045 29.8432 20.684 29.9275 20.1436C29.9612 20.0079 29.9612 19.8566 29.9612 19.7038Z" fill="white"/>
</svg>
