<svg width="40" height="40" viewBox="0 0 40 40" fill="none" xmlns="http://www.w3.org/2000/svg">
<path d="M20 40C31.0457 40 40 31.0457 40 20C40 8.9543 31.0457 0 20 0C8.9543 0 0 8.9543 0 20C0 31.0457 8.9543 40 20 40Z" fill="#3C80AD"/>
<path d="M13.4616 10.293C8.41478 10.3249 4.32861 14.4397 4.32861 19.5045C4.32861 24.5892 8.44635 28.7155 13.5206 28.7155C15.9008 28.7155 18.0716 27.8062 19.7049 26.3154L19.7046 26.3151H19.7058C20.0409 26.0097 20.3529 25.6794 20.6394 25.3285H18.7566C18.5049 25.0244 18.2763 24.7067 18.071 24.3792H21.3184C21.5168 24.0628 21.6949 23.7341 21.8544 23.3936H17.5355C17.3881 23.0772 17.2601 22.7547 17.1512 22.426H22.2387C22.546 21.5076 22.7118 20.5249 22.7118 19.5045C22.7118 18.8268 22.6382 18.1674 22.5002 17.5313H16.8812C16.9513 17.2039 17.0387 16.8808 17.143 16.5641H22.2331C22.1194 16.2261 21.9871 15.8974 21.8367 15.5778H17.5349C17.69 15.2452 17.8659 14.9228 18.062 14.6101H21.3075C21.0912 14.2649 20.8524 13.9353 20.5944 13.6245H18.7849C19.065 13.2939 19.3725 12.9828 19.7063 12.6945C18.0736 11.203 15.9026 10.2932 13.5211 10.2932C13.5004 10.293 13.4808 10.293 13.4616 10.293Z" fill="#931B1D"/>
<path d="M35.0417 19.5074C35.0426 24.594 30.9297 28.7187 25.8519 28.7202C20.7763 28.7218 16.6602 24.5987 16.6587 19.5112V19.5074C16.6571 14.4192 20.7714 10.2942 25.8479 10.293C30.924 10.2911 35.0405 14.4145 35.0418 19.5023C35.0417 19.5023 35.0417 19.5046 35.0417 19.5074Z" fill="#F16622"/>
<path d="M35.0417 19.6093C35.0426 24.6962 30.9297 28.8216 25.8519 28.8225C20.7763 28.8243 16.6602 24.7007 16.6587 19.6141V19.6093C16.6571 14.5221 20.7714 10.3968 25.8479 10.3955C30.924 10.3937 35.0405 14.517 35.0418 19.6045C35.0417 19.6046 35.0417 19.6075 35.0417 19.6093Z" fill="#F7981D"/>
<path d="M13.4616 10.3975C8.41478 10.43 4.32861 14.544 4.32861 19.6091C4.32861 24.6941 8.44635 28.8206 13.5206 28.8206C15.9008 28.8206 18.0716 27.9108 19.7049 26.4202L19.7046 26.4193H19.7058C20.0409 26.1142 20.3529 25.7849 20.6394 25.4328H18.7566C18.5049 25.1293 18.2763 24.8122 18.071 24.4847H21.3184C21.5168 24.168 21.6949 23.8383 21.8544 23.4982H17.5355C17.3881 23.1814 17.2601 22.859 17.1512 22.5309H22.2387C22.546 21.6119 22.7118 20.6295 22.7118 19.6091C22.7118 18.9317 22.6382 18.272 22.5002 17.6363H16.8812C16.9513 17.3091 17.0387 16.9854 17.143 16.669H22.2331C22.1194 16.3308 21.9871 16.002 21.8367 15.6821H17.5349C17.69 15.3508 17.8659 15.0272 18.062 14.7148H21.3075C21.0912 14.3699 20.8524 14.0405 20.5944 13.7285H18.7849C19.065 13.3985 19.3725 13.0874 19.7063 12.7985C18.0736 11.3073 15.9026 10.3975 13.5211 10.3975C13.5004 10.3975 13.4808 10.3975 13.4616 10.3975Z" fill="#CB2026"/>
<path d="M16.8257 21.9538L16.9486 21.1204C16.8816 21.1204 16.7831 21.1488 16.6962 21.1488C16.3558 21.1488 16.3179 20.9675 16.34 20.8333L16.615 19.1321H17.1326L17.2577 18.2096H16.7698L16.8693 17.6367H15.8904C15.8692 17.6582 15.3125 20.862 15.3125 21.2513C15.3125 21.829 15.6356 22.0863 16.0922 22.0825C16.4489 22.0792 16.7278 21.9804 16.8257 21.9538Z" fill="white"/>
<path d="M17.1357 20.3638C17.1357 21.7499 18.0481 22.0796 18.8259 22.0796C19.5441 22.0796 19.8595 21.9182 19.8595 21.9182L20.0323 20.9721C20.0323 20.9721 19.4863 21.2147 18.993 21.2147C17.9423 21.2147 18.1265 20.429 18.1265 20.429H20.1157C20.1157 20.429 20.2436 19.793 20.2436 19.534C20.2436 18.8882 19.9221 18.1006 18.848 18.1006C17.8637 18.1008 17.1357 19.1628 17.1357 20.3638ZM18.8522 18.9784C19.4042 18.9784 19.3022 19.6005 19.3022 19.6507H18.2158C18.2155 19.5867 18.3182 18.9784 18.8522 18.9784Z" fill="white"/>
<path d="M25.0489 21.9536L25.2242 20.8834C25.2242 20.8834 24.7439 21.1259 24.4145 21.1259C23.7204 21.1259 23.4421 20.5934 23.4421 20.0238C23.4421 18.8654 24.0394 18.2281 24.7048 18.2281C25.2031 18.2281 25.6035 18.5091 25.6035 18.5091L25.763 17.4708C25.763 17.4708 25.1696 17.2295 24.6612 17.2295C23.5313 17.2295 22.4316 18.2107 22.4316 20.0568C22.4316 21.279 23.0256 22.0877 24.1935 22.0877C24.5234 22.0879 25.0489 21.9536 25.0489 21.9536Z" fill="white"/>
<path d="M11.4434 18.1162C10.7723 18.1162 10.2578 18.3319 10.2578 18.3319L10.116 19.177C10.116 19.177 10.5411 19.0046 11.1825 19.0046C11.5469 19.0046 11.8131 19.0454 11.8131 19.3425C11.8131 19.5225 11.7806 19.5891 11.7806 19.5891C11.7806 19.5891 11.4936 19.5648 11.3603 19.5648C10.5143 19.5648 9.625 19.9267 9.625 21.0188C9.625 21.8784 10.2079 22.076 10.5696 22.076C11.2602 22.076 11.5571 21.6273 11.5735 21.6253L11.5413 22.0005H12.4028L12.7874 19.2988C12.7874 18.1531 11.7897 18.1162 11.4434 18.1162ZM11.6534 20.3148C11.672 20.48 11.5498 21.2536 10.9605 21.2536C10.6567 21.2536 10.5774 21.0206 10.5774 20.8829C10.5774 20.6147 10.723 20.2923 11.4405 20.2923C11.6069 20.2923 11.6249 20.3107 11.6534 20.3148Z" fill="white"/>
<path d="M13.7035 22.0551C13.9236 22.0551 15.1837 22.1116 15.1837 20.8086C15.1837 19.5902 14.0175 19.8306 14.0175 19.341C14.0175 19.0982 14.2076 19.0205 14.5549 19.0205C14.6929 19.0205 15.2238 19.0651 15.2238 19.0651L15.3476 18.1985C15.3476 18.1985 15.004 18.1221 14.445 18.1221C13.7203 18.1221 12.986 18.4107 12.986 19.402C12.986 20.5259 14.2113 20.4122 14.2113 20.8853C14.2113 21.2011 13.8687 21.227 13.6047 21.227C13.1487 21.227 12.7378 21.07 12.7359 21.0773L12.6055 21.934C12.6283 21.942 12.8821 22.0551 13.7035 22.0551Z" fill="white"/>
<path d="M33.1553 17.339L32.9447 18.6515C32.9447 18.6515 32.5761 18.1422 31.9998 18.1422C31.1027 18.1422 30.3555 19.2253 30.3555 20.4705C30.3555 21.2743 30.7537 22.061 31.5691 22.061C32.1555 22.061 32.4799 21.6514 32.4799 21.6514L32.4373 22.0009H33.3891L34.1372 17.3369L33.1553 17.339ZM32.7012 19.8993C32.7012 20.4169 32.4448 21.1081 31.9145 21.1081C31.562 21.1081 31.3975 20.8119 31.3975 20.347C31.3975 19.5871 31.738 19.0844 32.1674 19.0844C32.5202 19.0845 32.7012 19.3276 32.7012 19.8993Z" fill="white"/>
<path d="M6.14367 22.0051L6.74021 18.4839L6.82705 22.0051H7.50157L8.75937 18.4839L8.202 22.0051H9.20373L9.97589 17.3359H8.42633L7.46156 20.2003L7.41135 17.3359H5.98357L5.20068 22.0051H6.14367Z" fill="white"/>
<path d="M21.2222 22.0119C21.5071 20.389 21.5598 19.0705 22.2401 19.3109C22.3592 18.6831 22.4738 18.4402 22.6032 18.174C22.6032 18.174 22.5426 18.1611 22.4144 18.1611C21.977 18.1611 21.652 18.7611 21.652 18.7611L21.7385 18.2103H20.8271L20.2173 22.0119H21.2222Z" fill="white"/>
<path d="M27.3071 18.1162C26.6361 18.1162 26.1219 18.3319 26.1219 18.3319L25.9805 19.177C25.9805 19.177 26.4046 19.0046 27.0466 19.0046C27.4107 19.0046 27.6776 19.0454 27.6776 19.3425C27.6776 19.5225 27.6447 19.5891 27.6447 19.5891C27.6447 19.5891 27.3577 19.5648 27.2234 19.5648C26.3771 19.5648 25.4888 19.9267 25.4888 21.0188C25.4888 21.8784 26.072 22.076 26.4334 22.076C27.124 22.076 27.4212 21.6273 27.4369 21.6253L27.405 22.0005H28.2672L28.6515 19.2988C28.6519 18.1531 27.6545 18.1162 27.3071 18.1162ZM27.5175 20.3148C27.5361 20.48 27.4145 21.2536 26.8243 21.2536C26.5208 21.2536 26.4421 21.0206 26.4421 20.8829C26.4421 20.6147 26.5877 20.2923 27.3039 20.2923C27.4714 20.2923 27.4888 20.3107 27.5175 20.3148Z" fill="white"/>
<path d="M29.4384 22.0119C29.7235 20.389 29.7763 19.0705 30.4565 19.3109C30.5755 18.6831 30.6902 18.4402 30.8203 18.174C30.8203 18.174 30.7587 18.1611 30.6312 18.1611C30.1925 18.1611 29.8685 18.7611 29.8685 18.7611L29.9557 18.2103H29.0437L28.4336 22.0117H29.4384L29.4384 22.0119Z" fill="white"/>
</svg>
