<svg width="40" height="40" viewBox="0 0 40 40" fill="none" xmlns="http://www.w3.org/2000/svg">
<path d="M20 40C31.0457 40 40 31.0457 40 20C40 8.9543 31.0457 0 20 0C8.9543 0 0 8.9543 0 20C0 31.0457 8.9543 40 20 40Z" fill="#F3F2F2"/>
<path fill-rule="evenodd" clip-rule="evenodd" d="M12.8925 15.8232V15.8273C12.8884 15.8273 11.6035 15.8232 11.2608 17.0526C10.9467 18.1799 10.0616 21.2921 10.0371 21.3778H9.79233C9.79233 21.3778 8.88677 18.1962 8.5686 17.0485C8.22596 15.8192 6.93696 15.8232 6.93696 15.8232H4V25.1762H6.93696V19.6216H7.05933H7.1817L8.89493 25.1762H10.9345L12.6477 19.6257H12.8925V25.1762H15.8294V15.8232H12.8925Z" fill="#4DB45E"/>
<path fill-rule="evenodd" clip-rule="evenodd" d="M23.6203 15.8232C23.6203 15.8232 22.7596 15.9008 22.3558 16.8035L20.2755 21.3778H20.0307V15.8232H17.0938V25.1762H19.8675C19.8675 25.1762 20.769 25.0945 21.1729 24.196L23.2124 19.6216H23.4572V25.1762H26.3941V15.8232H23.6203Z" fill="#4DB45E"/>
<path fill-rule="evenodd" clip-rule="evenodd" d="M27.6997 20.0713V25.1766H30.6367V22.1951H33.8184C35.2053 22.1951 36.38 21.3088 36.8165 20.0713H27.6997Z" fill="#4DB45E"/>
<path fill-rule="evenodd" clip-rule="evenodd" d="M33.8182 15.8232H27.2876C27.6139 17.604 28.9478 19.0335 30.6733 19.4991C31.0649 19.6053 31.4768 19.6624 31.9011 19.6624H36.9347C36.9796 19.4501 37 19.2336 37 19.009C37 17.2486 35.5763 15.8232 33.8182 15.8232Z" fill="url(#paint0_linear)"/>
<defs>
<linearGradient id="paint0_linear" x1="27.2884" y1="17.7428" x2="37" y2="17.7428" gradientUnits="userSpaceOnUse">
<stop offset="0.3" stop-color="#00B4E6"/>
<stop offset="1" stop-color="#088CCB"/>
</linearGradient>
</defs>
</svg>
