<svg width="40" height="40" viewBox="0 0 40 40" fill="none" xmlns="http://www.w3.org/2000/svg">
<path d="M31.6665 4.66699H8.33317C7.4127 4.66699 6.6665 5.41318 6.6665 6.33366V9.66699C6.6665 10.5875 7.4127 11.3337 8.33317 11.3337H31.6665C32.587 11.3337 33.3332 10.5875 33.3332 9.66699V6.33366C33.3332 5.41318 32.587 4.66699 31.6665 4.66699Z" fill="url(#paint0_linear)"/>
<path d="M35.0002 8H5.00016C4.07969 8 3.3335 8.74619 3.3335 9.66666V14.6667C3.3335 15.5871 4.07969 16.3333 5.00016 16.3333H35.0002C35.9206 16.3333 36.6668 15.5871 36.6668 14.6667V9.66666C36.6668 8.74619 35.9206 8 35.0002 8Z" fill="url(#paint1_linear)"/>
<path d="M38.3333 11.333H1.66667C0.746192 11.333 0 12.0792 0 12.9997V32.9997C0 33.9202 0.746192 34.6663 1.66667 34.6663H38.3333C39.2538 34.6663 40 33.9202 40 32.9997V12.9997C40 12.0792 39.2538 11.333 38.3333 11.333Z" fill="url(#paint2_linear)"/>
<path d="M8.33333 31.333C7.89131 31.333 7.46738 31.1574 7.15482 30.8449C6.84226 30.5323 6.66667 30.1084 6.66667 29.6663V11.333H1.66667C1.22464 11.333 0.800716 11.5086 0.488155 11.8212C0.175595 12.1337 0 12.5576 0 12.9997L0 32.9997C0 33.4417 0.175595 33.8656 0.488155 34.1782C0.800716 34.4908 1.22464 34.6663 1.66667 34.6663H38.3333C38.7754 34.6663 39.1993 34.4908 39.5118 34.1782C39.8244 33.8656 40 33.4417 40 32.9997V31.333H8.33333Z" fill="url(#paint3_linear)"/>
<path d="M6.66683 29.667V14.667L3.3335 18.2087V28.0003L6.87516 31.3337H8.3335C7.89147 31.3337 7.46755 31.1581 7.15498 30.8455C6.84242 30.5329 6.66683 30.109 6.66683 29.667Z" fill="#CCF2FE"/>
<path d="M36.6665 18.2087L33.3332 14.667H6.6665V29.667C6.6665 30.109 6.8421 30.5329 7.15466 30.8455C7.46722 31.1581 7.89114 31.3337 8.33317 31.3337H33.3332L36.6665 28.0003V18.2087Z" fill="#E6F9FE"/>
<path d="M19.167 19.667H25.0003V16.3337H21.667V14.667H18.3336V16.417C17.321 16.6226 16.4209 17.1972 15.8081 18.0291C15.1952 18.861 14.9134 19.891 15.0172 20.9191C15.121 21.9471 15.6032 22.8999 16.37 23.5925C17.1368 24.2851 18.1337 24.668 19.167 24.667H20.8336C21.0546 24.667 21.2666 24.7548 21.4229 24.9111C21.5792 25.0674 21.667 25.2793 21.667 25.5003C21.667 25.7213 21.5792 25.9333 21.4229 26.0896C21.2666 26.2459 21.0546 26.3337 20.8336 26.3337H15.0003V29.667H18.3336V31.3337H21.667V29.5837C22.6796 29.378 23.5797 28.8035 24.1925 27.9716C24.8054 27.1396 25.0872 26.1096 24.9834 25.0816C24.8795 24.0535 24.3974 23.1007 23.6306 22.4081C22.8637 21.7156 21.8669 21.3326 20.8336 21.3337H19.167C18.9459 21.3337 18.734 21.2459 18.5777 21.0896C18.4214 20.9333 18.3336 20.7213 18.3336 20.5003C18.3336 20.2793 18.4214 20.0673 18.5777 19.9111C18.734 19.7548 18.9459 19.667 19.167 19.667Z" fill="url(#paint4_linear)"/>
<defs>
<linearGradient id="paint0_linear" x1="13.0761" y1="10.6908" x2="15.4108" y2="1.86985" gradientUnits="userSpaceOnUse">
<stop stop-color="#34CDFA"/>
<stop offset="1" stop-color="#E8D9F1"/>
</linearGradient>
<linearGradient id="paint1_linear" x1="3.3335" y1="8" x2="7.25505" y2="23.6863" gradientUnits="userSpaceOnUse">
<stop stop-color="#C2E9FB"/>
<stop offset="1" stop-color="#A1C4FD"/>
</linearGradient>
<linearGradient id="paint2_linear" x1="9.61435" y1="32.4163" x2="24.3836" y2="8.50144" gradientUnits="userSpaceOnUse">
<stop stop-color="#34CDFA"/>
<stop offset="1" stop-color="#E8D9F1"/>
</linearGradient>
<linearGradient id="paint3_linear" x1="9.61435" y1="32.4163" x2="24.3836" y2="8.50144" gradientUnits="userSpaceOnUse">
<stop stop-color="#34CDFA"/>
<stop offset="1" stop-color="#E8D9F1"/>
</linearGradient>
<linearGradient id="paint4_linear" x1="17.4017" y1="29.7265" x2="27.5282" y2="23.9826" gradientUnits="userSpaceOnUse">
<stop stop-color="#34CDFA"/>
<stop offset="1" stop-color="#E8D9F1"/>
</linearGradient>
</defs>
</svg>
