<svg width="82" height="60" viewBox="0 0 82 60" fill="none" xmlns="http://www.w3.org/2000/svg">
<path d="M82 15.001C82 6.71671 75.2843 0.000976562 67 0.000976562H5.00024L51.6762 27.7159C52.5564 28.2386 53.3808 28.8499 54.1365 29.5405L82 55.002V30.001V15.001Z" fill="#22BD57"/>
<path d="M45.448 25.002L46.168 21.226C46.488 19.53 46.744 17.994 46.856 16.938L46.904 16.938C47.192 18.25 47.48 19.242 47.96 20.698L49.464 25.002L51.848 25.002L53.896 14.218L51.736 14.218L51 18.138C50.712 19.722 50.552 20.906 50.504 22.01L50.456 22.01C50.2 20.826 49.912 19.706 49.48 18.33L48.056 14.218L45.352 14.218L43.304 25.002L45.448 25.002ZM61.3523 18.49L57.4963 18.49L57.9443 16.186L62.0083 16.186L62.3923 14.218L56.0083 14.218L53.9603 25.002L60.5843 25.002L60.9523 23.034L56.6483 23.034L57.1443 20.426L60.9683 20.426L61.3523 18.49ZM66.448 25.002L68.304 20.634C68.848 19.306 69.216 18.154 69.616 17.002L69.648 17.002C69.568 18.218 69.536 19.306 69.552 20.57L69.632 25.002L72.128 25.002L76.88 14.218L74.464 14.218L72.592 19.018C72.176 20.17 71.776 21.338 71.408 22.458L71.376 22.458C71.424 21.402 71.472 20.33 71.472 19.034L71.504 14.218L68.976 14.218L67.056 19.05C66.544 20.362 66.16 21.45 65.776 22.506L65.744 22.506C65.776 21.546 65.808 20.314 65.808 19.018L65.808 14.218L63.472 14.218L63.888 25.002L66.448 25.002Z" fill="white"/>
<g filter="url(#filter0_d)">
<path d="M48.2222 47.3102C50.3289 51.0587 56.9797 50.9622 60.8029 48.9944C62.8574 47.9369 65.4005 47.2806 68.4998 47.5019C75.4998 48.002 81.9998 55.0019 81.9998 55.0019C81.9998 55.0019 77.4998 45.3726 60.9998 32.002C31.9998 8.50195 5 0.00179672 5 0.00179672C5 0.00179672 20.4995 9.00205 29.9998 19.5019C35.7337 25.8392 43.2518 38.4664 48.2222 47.3102Z" fill="url(#paint0_linear)"/>
</g>
<defs>
<filter id="filter0_d" x="0" y="-5.99805" width="86.9998" height="65.0001" filterUnits="userSpaceOnUse" color-interpolation-filters="sRGB">
<feFlood flood-opacity="0" result="BackgroundImageFix"/>
<feColorMatrix in="SourceAlpha" type="matrix" values="0 0 0 0 0 0 0 0 0 0 0 0 0 0 0 0 0 0 127 0"/>
<feOffset dy="-1"/>
<feGaussianBlur stdDeviation="2.5"/>
<feColorMatrix type="matrix" values="0 0 0 0 0.0791667 0 0 0 0 0.475 0 0 0 0 0.214516 0 0 0 1 0"/>
<feBlend mode="normal" in2="BackgroundImageFix" result="effect1_dropShadow"/>
<feBlend mode="normal" in="SourceGraphic" in2="effect1_dropShadow" result="shape"/>
</filter>
<linearGradient id="paint0_linear" x1="53.4998" y1="25.502" x2="41.9998" y2="40.502" gradientUnits="userSpaceOnUse">
<stop stop-color="#127E37"/>
<stop offset="0.411458" stop-color="#2ACE62"/>
<stop offset="1" stop-color="#22BD57"/>
</linearGradient>
</defs>
</svg>
