<svg width="40" height="40" viewBox="0 0 40 40" fill="none" xmlns="http://www.w3.org/2000/svg">
<path d="M20 40C31.0457 40 40 31.0457 40 20C40 8.9543 31.0457 0 20 0C8.9543 0 0 8.9543 0 20C0 31.0457 8.9543 40 20 40Z" fill="#FF9800"/>
<path d="M19.965 10.4102C21.5861 10.4102 22.9045 11.7285 22.9045 13.3496C22.9045 14.9658 21.5861 16.2842 19.965 16.2842C18.3439 16.2842 17.0256 14.9658 17.0256 13.3496C17.0256 11.7285 18.3439 10.4102 19.965 10.4102ZM19.965 20.4443C23.8811 20.4443 27.0647 17.2607 27.0647 13.3496C27.0647 9.43359 23.8811 6.25 19.965 6.25C16.049 6.25 12.8703 9.43359 12.8703 13.3496C12.8703 17.2607 16.049 20.4443 19.965 20.4443ZM22.8361 26.2354C24.2814 25.9033 25.673 25.332 26.9572 24.5264C27.9289 23.916 28.2219 22.6318 27.6115 21.6602C26.9963 20.6836 25.717 20.3906 24.7404 21.0059C21.8352 22.832 18.0949 22.832 15.1848 21.0059C14.2131 20.3906 12.9289 20.6836 12.3186 21.6602C11.7082 22.6318 12.0012 23.916 12.9729 24.5264C14.257 25.332 15.6486 25.9033 17.0939 26.2354L13.1242 30.2002C12.3137 31.0107 12.3137 32.3291 13.1242 33.1396C13.5344 33.5449 14.0617 33.75 14.5939 33.75C15.1262 33.75 15.6584 33.5449 16.0686 33.1396L19.965 29.2432L23.8664 33.1396C24.677 33.9551 25.9904 33.9551 26.8059 33.1396C27.6164 32.3291 27.6164 31.0107 26.8059 30.2002L22.8361 26.2354Z" fill="white"/>
</svg>
