<svg width="40" height="40" viewBox="0 0 40 40" fill="none" xmlns="http://www.w3.org/2000/svg">
<path d="M20 40C31.0457 40 40 31.0457 40 20C40 8.9543 31.0457 0 20 0C8.9543 0 0 8.9543 0 20C0 31.0457 8.9543 40 20 40Z" fill="#F3F2F2"/>
<path d="M29.3174 16.6385C28.4853 16.6385 27.8272 16.8592 27.3238 16.9599L27.1691 18.225C27.4207 18.1041 28.2143 17.8839 28.8725 17.8631C29.531 17.8432 29.9178 17.9837 29.7823 18.5461C27.8275 18.5461 26.5109 18.9472 26.24 20.2123C25.8525 22.381 28.2337 22.321 29.1823 21.3771L29.0664 21.8987H30.8084L31.5632 18.4448C31.8722 16.9795 30.537 16.6185 29.3174 16.6385ZM29.4337 20.1723C29.337 20.6339 28.9695 20.8348 28.5242 20.8553C28.137 20.8752 27.7886 20.5331 28.0404 20.1318C28.234 19.7908 28.7762 19.7105 29.1049 19.7105C29.2404 19.7105 29.3954 19.7105 29.5312 19.7105C29.4917 19.871 29.4721 20.0116 29.4337 20.1723Z" fill="#1A80AD"/>
<path d="M33.0537 15.2734L31.6123 21.8995H33.3817L34.8411 15.2734H33.0537Z" fill="#1A80AD"/>
<path d="M24.923 15.2939H21.6832L20.2476 21.8998H22.129L22.6144 19.7114H23.9528C25.2722 19.7114 26.3586 18.9083 26.6494 17.5428C26.9794 15.9967 25.8542 15.2939 24.923 15.2939ZM24.8655 17.5428C24.7489 18.0446 24.2443 18.4459 23.759 18.4459H22.8861L23.2743 16.6389H24.2052C24.6905 16.6393 24.9814 17.0407 24.8655 17.5428Z" fill="#1A80AD"/>
<path d="M12.3513 16.6385C11.5289 16.6385 10.8787 16.8592 10.4002 16.9599L10.248 18.2247C10.4775 18.1038 11.2614 17.8837 11.9117 17.8628C12.5619 17.8429 12.9444 17.9834 12.8291 18.5459C10.8983 18.5459 9.59811 18.9469 9.33031 20.2121C8.94756 22.3807 11.2993 22.3207 12.2173 21.3768L12.103 21.8984H13.843L14.5886 18.4445C14.8941 16.9795 13.5555 16.6185 12.3513 16.6385ZM12.4852 20.1722C12.3893 20.6339 12.0064 20.8348 11.5675 20.8553C11.1851 20.8752 10.8598 20.5331 11.1086 20.1318C11.2993 19.7908 11.8349 19.7105 12.141 19.7105C12.2942 19.7105 12.4278 19.7105 12.5812 19.7105C12.542 19.871 12.5041 20.0115 12.4852 20.1722Z" fill="#1A5B80"/>
<path d="M15.346 16.7334H17.086L17.3668 19.8097L19.069 16.7334H20.8646L16.7305 24.0957H14.7852L16.0565 21.9315L15.346 16.7334Z" fill="#1A5B80"/>
<path d="M8.02322 15.293H4.77487L3.33545 21.8989H5.2416L5.70832 19.7104H7.06976C8.37305 19.7104 9.4623 18.9074 9.75407 17.5418C10.0847 15.9957 8.97633 15.293 8.02322 15.293ZM7.96481 17.5418C7.84826 18.0436 7.36229 18.4449 6.87564 18.4449H5.98102L6.38968 16.6379H7.32321C7.78985 16.6383 8.10095 17.0397 7.96481 17.5418Z" fill="#1A5B80"/>
<path d="M35.2227 16.1296V15.348H34.9312V15.2432H35.6335V15.348H35.3405V16.1296H35.2227Z" fill="#1A5B80"/>
<path d="M35.749 16.1296V15.2432H35.9249L36.1349 15.8703C36.1545 15.9287 36.1681 15.972 36.1772 16.0007C36.1873 15.9688 36.2031 15.9215 36.2239 15.8593L36.4371 15.2432H36.5947V16.1296H36.4819V15.3875L36.2236 16.1296H36.1184L35.8617 15.3752V16.1296H35.749Z" fill="#1A5B80"/>
</svg>
