<svg width="57" height="116" viewBox="0 0 57 116" fill="none" xmlns="http://www.w3.org/2000/svg">
<path d="M28.7493 114.703C28.646 115.958 26.8552 115.958 24.824 115.707C22.7927 115.456 23.3302 115.971 20.4842 115.986C17.6381 116.001 16.6649 115.07 16.5235 114.668C16.4032 114.312 17.7767 114.023 19.245 113.681C19.4303 113.64 19.6157 113.595 19.801 113.549C21.464 113.158 22.9405 112.217 23.9837 110.882C25.2186 109.322 26.3474 102.225 26.3474 102.225L30.7947 103.042C30.7947 103.042 28.2061 109.125 27.9401 111.127C27.8213 112.022 28.4664 112.621 28.6177 113.404C28.72 113.829 28.7643 114.266 28.7493 114.703Z" fill="#FFB27D"/>
<path d="M24.8141 115.907C22.7843 115.66 23.3303 115.97 20.4842 115.988C17.6381 116.006 16.6649 115.072 16.5235 114.67C16.4032 114.314 17.7768 114.025 19.245 113.683L19.2635 113.71C20.5576 114.332 21.9987 114.597 23.4335 114.477C25.3446 114.302 27.2995 113.531 28.6178 113.4C28.7185 113.827 28.7609 114.265 28.7437 114.703C28.6461 115.953 26.8454 116.155 24.8141 115.907Z" fill="#365DA4"/>
<path d="M43.8193 52.0651C43.8193 52.0651 41.392 59.769 39.4116 67.5872C39.2107 68.3819 39.0127 69.1793 38.8232 69.967C38.3917 71.7598 37.9999 73.5164 37.683 75.1447C37.5416 75.8418 37.4242 76.5193 37.3181 77.1634C37.2092 77.8312 37.1158 78.4655 37.0437 79.0594C36.9348 79.901 36.8781 80.7483 36.8739 81.5967C36.8739 81.7752 36.8838 81.9439 36.8937 82.1028C37.345 88.7095 29.4434 108.263 29.4434 108.263C29.4434 108.263 28.6809 108.59 27.0387 108.295C25.9424 108.099 24.7754 107.339 24.7754 107.339C25.958 102.236 26.8024 97.0619 27.3032 91.8504C28.0104 84.509 28.2551 78.1881 27.8803 70.0743C27.7926 68.1588 27.7586 66.3688 27.7643 64.7154C27.7827 57.6737 28.5069 53.0996 28.7545 51.7654C29.5608 47.4757 43.8193 52.0651 43.8193 52.0651Z" fill="#1C468A"/>
<path d="M43.8197 52.0651C43.8197 52.0651 41.3924 59.769 39.412 67.5872C39.2112 68.3819 39.0132 69.1793 38.8236 69.967C38.3922 71.7598 38.0003 73.5164 37.6835 75.1448C37.542 75.8418 37.4246 76.5194 37.3185 77.1634C37.2096 77.8312 37.1163 78.4655 37.0441 79.0594L27.7676 64.7154C27.786 57.6737 28.5102 53.0996 28.7578 51.7654C29.5612 47.4757 43.8197 52.0651 43.8197 52.0651Z" fill="#163560"/>
<path d="M46.7357 114.704C46.6339 115.959 44.8431 115.959 42.8118 115.708C40.7805 115.457 41.318 115.971 38.472 115.987C35.6259 116.002 34.6527 115.071 34.5113 114.669C34.391 114.312 35.7645 114.024 37.2328 113.682C37.4181 113.64 37.6034 113.596 37.7887 113.55C39.4452 113.148 40.5485 111.937 41.9716 110.883C43.3182 109.883 42.3761 105.039 42.3761 105.039L46.5575 103.566C46.5575 103.566 45.928 108.446 45.928 111.123C45.928 112.025 46.4542 112.616 46.6056 113.399C46.708 113.826 46.7517 114.265 46.7357 114.704Z" fill="#FFB27D"/>
<path d="M42.8551 115.889C40.8238 115.642 41.3189 115.97 38.47 115.988C35.6211 116.006 34.6508 115.072 34.5093 114.67C34.3891 114.314 35.7626 114.025 37.2309 113.683L37.2478 113.71C38.5421 114.332 39.9831 114.597 41.4179 114.477C43.3304 114.302 45.2853 113.531 46.6037 113.4C46.7039 113.827 46.7457 114.265 46.7281 114.703C46.6348 115.953 44.8864 116.137 42.8551 115.889Z" fill="#365DA4"/>
<path d="M35.231 50.5344C35.231 50.5344 39.8707 73.3213 40.6543 85.7234C41.438 98.1255 42.4154 108.393 42.4154 108.393C43.1163 108.619 43.8528 108.719 44.5896 108.687C45.3401 108.642 46.0806 108.493 46.7891 108.245C46.7891 108.245 51.3864 89.5865 49.8629 82.1168C48.3395 74.6471 49.6097 67.7574 50.3396 61.5633C51.3892 52.68 47.355 48.552 44.54 45.7372C41.6897 42.8863 35.231 50.5344 35.231 50.5344Z" fill="#1C468A"/>
<path d="M31.943 8.799C31.4819 5.08925 32.6574 -0.846891 40.1714 0.101108C47.6854 1.04911 50.0505 8.32639 48.5355 11.5621C47.0206 14.7979 50.7167 15.5786 51.878 19.0583C52.8682 22.0473 53.2219 25.7584 54.8359 27.423C60.0357 32.7917 49.8426 41.0505 43.6964 39.3092C32.5032 36.139 31.066 35.665 31.4579 26.9936C31.6615 22.5534 35.1682 20.8316 32.9417 19.5476C27.5651 16.4457 32.9855 17.193 31.943 8.799Z" fill="#AA443E"/>
<path d="M34.2173 20.7204L36.4409 23.9979L40.9179 23.7804L42.986 18.5121C42.986 18.5121 42.348 18.3922 42.051 11.8203L36.4621 13.5016C36.6327 14.6911 36.5992 15.9004 36.3631 17.0789C36.0873 18.381 35.4819 19.7696 34.2173 20.7204Z" fill="#FFB27D"/>
<path d="M33.5938 18.3953C33.8767 18.3953 39.1458 16.6596 46.664 19.6765C46.664 19.6765 43.0952 39.7992 44.6285 43.64C45.5599 45.9866 46.2679 48.4135 46.7433 50.8894L30.114 51.0915C30.114 51.0915 30.346 37.9101 29.5793 33.2468C28.8127 28.5835 33.5938 18.3953 33.5938 18.3953Z" fill="#FFB27D"/>
<path d="M46.653 42.0684C46.563 41.7345 46.4991 41.3943 46.4621 41.0507C46.2428 38.6221 46.6148 36.6411 47.233 34.6991C47.2429 34.6698 47.2528 34.6377 47.2627 34.6071C47.2726 34.5764 47.3009 34.4774 47.3249 34.377C47.3249 34.377 47.3249 34.377 47.3249 34.3687C47.3476 34.2767 47.3744 34.1651 47.4041 34.0397C47.4126 33.9978 47.4225 33.9532 47.4324 33.9003C47.8568 32.0112 48.8003 27.2656 49.0479 26.6188C49.1625 26.2813 49.2477 25.9347 49.3024 25.5829C49.5542 24.154 49.6646 21.8816 48.8187 20.9322C47.6418 19.6091 43.633 18.6123 43.633 18.6123C42.8126 19.881 39.999 23.0331 36.508 22.4657C34.4908 22.1367 34.1782 18.2666 34.1782 18.2666C32.0097 18.5608 31.4552 18.8856 31.4552 18.8856C31.4552 18.8856 26.2568 22.0823 18.9126 32.2622C18.6792 32.5856 18.1246 32.548 16.7681 32.2887C15.0424 31.9569 11.5173 32.0001 6.20152 31.2305C6.20152 31.2305 6.01764 31.3616 5.96814 31.9346C5.85922 33.199 5.73047 33.574 5.73047 33.574C8.08108 34.6419 10.4932 35.5729 12.9545 36.3623C14.2729 36.7805 15.6492 37.1597 16.9633 37.4483C18.0833 37.7105 19.2236 37.8793 20.3723 37.953C20.3723 37.953 24.616 36.3455 28.728 31.8802C28.9671 35.629 29.4975 40.4694 29.1722 44.009C28.9869 46.0207 27.5893 52.792 27.9401 53.9198C28.67 56.2675 34.2801 56.3888 39.2904 56.1434L39.6185 56.1253C40.3951 56.0821 41.1576 56.0152 41.8691 55.9357C42.9653 55.8226 44.0546 55.6518 45.1324 55.4241C46.1098 55.2038 47.3377 54.8859 48.3363 54.4119C49.1016 54.0467 49.731 53.5908 50.0083 53.0178C49.5316 50.454 47.2118 44.8901 46.653 42.0684Z" fill="#F1A34F"/>
<path d="M35.7339 48.5724C36.6831 51.7454 37.2333 54.3566 39.6183 56.1216C40.3948 56.0784 41.1573 56.0114 41.8688 55.932C42.9651 55.8189 44.0544 55.6481 45.1321 55.4203C46.1096 55.2001 47.3374 54.8822 48.3361 54.4082C49.1014 54.0429 49.7308 53.5871 50.0081 53.0141C49.5257 50.4601 47.2059 44.8961 46.6471 42.0744C46.5965 41.8299 46.5597 41.5827 46.5368 41.3342C46.3289 38.8066 46.6613 36.7336 47.2271 34.7051C47.2568 34.5978 47.2879 34.4904 47.319 34.3831C47.319 34.3831 47.319 34.3831 47.319 34.3747C47.3388 34.305 47.3657 34.1921 47.3982 34.0457C47.4067 34.0039 47.4166 33.9593 47.4265 33.9063C47.8099 32.1162 48.81 26.4993 49.0646 25.766C49.1768 25.4011 49.2605 25.0283 49.315 24.6507L47.312 22.752C47.312 22.752 35.8245 27.5868 33.2939 34.2548C30.7632 40.9229 34.376 44.022 35.7339 48.5724Z" fill="#EA913D"/>
<path d="M12.9595 36.3617C15.5056 37.1563 18.2696 37.8534 20.3773 37.9524C20.3773 37.9524 24.6775 36.3254 28.815 31.7917C28.989 31.0208 29.1573 29.7298 28.211 30.1021C26.8828 30.6249 21.9715 36.8399 20.1114 36.9709C18.7817 37.0643 15.0006 36.6224 12.9595 36.3617Z" fill="#EA913D"/>
<path d="M22.0328 34.5926C22.0328 34.5926 27.6909 37.3962 32.6065 38.5561C34.021 38.8893 35.3804 39.1263 36.5403 39.1806C36.5403 39.1806 41.8208 37.5802 45.8508 32.0163C53.6308 21.2718 47.6247 20.1133 47.6247 20.1133C47.6247 20.1133 42.4248 23.31 35.0805 33.4884C34.8245 33.8453 34.1794 33.7673 32.5089 33.4327C30.7237 33.0772 27.1732 33.119 22.2704 32.4094C22.1897 32.6528 22.1449 32.9063 22.1374 33.1622C22.0271 34.4267 22.0328 34.5926 22.0328 34.5926Z" fill="#F1A34F"/>
<path d="M5.73584 33.5742C8.08645 34.6421 10.4986 35.5731 12.9599 36.3625C14.2783 36.7807 15.6546 37.1599 16.9687 37.4485C17.4963 35.1356 17.1328 33.333 16.7735 32.2902C15.0478 31.9584 11.3572 31.9361 6.0414 31.168L5.73584 33.5742Z" fill="#ED975D"/>
<path d="M7.368 31.4922C6.51688 31.3181 5.6894 31.0462 4.90249 30.6822C3.78218 30.1246 0.793278 29.7621 0.158154 30.3518C-0.476969 30.9415 0.830055 33.3339 3.55302 33.4078C6.27599 33.4817 7.06531 33.9222 7.06531 33.9222L7.368 31.4922Z" fill="#ED975D"/>
<path d="M36.3623 17.0799C38.6737 16.8959 42.0502 11.8213 42.0502 11.8213L36.4613 13.5026C36.6319 14.6921 36.5984 15.9014 36.3623 17.0799Z" fill="#ED975D"/>
<path d="M34.999 13.8747C34.999 13.8747 41.6898 15.1991 42.4636 11.0865C43.2373 6.9738 44.6193 4.36261 40.38 3.34211C36.1406 2.32162 35.0132 3.74362 34.4148 5.05688C33.8165 6.37014 33.2776 13.4244 34.999 13.8747Z" fill="#FFB27D"/>
<path d="M38.2687 2.30781C38.2687 2.30781 38.1513 3.70192 40.3508 6.07192C42.5504 8.44191 42.5363 12.8877 42.5363 12.8877C42.5363 12.8877 45.7359 5.79867 43.7584 3.60434C41.7809 1.41 38.2687 2.30781 38.2687 2.30781Z" fill="#AA443E"/>
<path d="M40.9586 0.48924C40.9586 0.48924 37.6317 -0.609323 34.3302 2.59714C32.9157 3.97871 33.1222 6.69305 33.8846 8.26979C33.8846 8.26979 35.0544 4.89325 37.1833 4.15715C39.3121 3.42106 40.9586 0.48924 40.9586 0.48924Z" fill="#AA443E"/>
<path d="M37.082 11.8475C37.082 11.8475 36.9038 12.3368 35.6434 12.1137C35.6434 12.1137 34.5868 11.9283 34.6829 11.379C34.6829 11.379 35.7623 11.1002 37.082 11.8475Z" fill="white"/>
<path d="M14.0813 19.5681C14.0813 19.5681 12.2607 19.1624 11.8533 19.4984C11.446 19.8344 10.6538 25.7399 10.6538 25.7399C10.6538 25.7399 11.7642 23.3699 12.0995 22.1863C12.4531 20.9483 14.0813 19.5681 14.0813 19.5681Z" fill="#C65447"/>
<path d="M10.6538 25.7393C10.6991 25.6919 15.2624 20.8362 15.2921 20.3691C15.3218 19.9021 14.2043 19.3835 12.7106 19.3682C12.7106 19.3682 13.8111 20.1614 13.7644 20.4375C13.6823 20.931 12.944 21.3478 12.3654 22.6318C11.8625 23.7024 11.2908 24.7404 10.6538 25.7393Z" fill="#E57970"/>
<path d="M10.6538 25.739C13.6244 24.2054 19.2557 24.7938 19.6885 24.3741C19.9828 24.0883 19.2755 23.3313 18.315 22.8169C17.8687 22.5705 17.3808 22.4057 16.875 22.3304C15.7433 22.191 12.8718 24.1316 11.4601 25.1451C10.989 25.4825 10.6821 25.7167 10.6566 25.7362L10.6538 25.739ZM13.7375 24.2054C14.0204 23.974 16.3827 23.4498 16.7081 23.4234C17.0334 23.3969 17.9812 23.8207 17.9812 23.8207C17.9812 23.8207 13.4574 24.4299 13.7375 24.2054Z" fill="#E57970"/>
<path d="M10.6538 25.7385C13.6244 24.205 19.2557 24.7933 19.6885 24.3736C19.9828 24.0878 19.2755 23.3308 18.315 22.8164C18.3263 22.829 18.9048 23.3922 18.3928 23.5135C17.9203 23.6236 14.3642 23.2807 11.4615 25.1474C11.1813 25.3274 10.9129 25.5249 10.6581 25.7385H10.6538Z" fill="#C65447"/>
<path d="M10.6813 25.7388C10.6813 25.7388 9.35592 23.8344 9.60487 22.761C9.74648 22.8705 9.89691 22.9684 10.0547 23.0537C10.0547 23.0537 10.3616 22.7387 10.3843 22.6982L10.3616 22.7387C10.3616 22.7387 10.8383 25.1115 10.6813 25.7388Z" fill="#C65447"/>
<path d="M10.6542 25.7391C10.6542 25.7391 8.73043 21.7282 4.01578 21.7938C4.01578 21.7938 4.79519 22.4127 4.79802 22.6637C4.79802 22.6637 3.9493 22.8812 3.70459 22.909C3.70459 22.909 7.88594 23.581 10.1252 25.7976L10.6542 25.7391Z" fill="#E57970"/>
<path d="M21.4752 26.5498H8.14746V39.161H21.4752V26.5498Z" fill="#D86713"/>
<path d="M14.8117 26.5498H1.48389V39.161H14.8117V26.5498Z" fill="#F1A34F"/>
<path d="M14.8115 26.5498H1.44971V30.5593L14.8115 39.161V26.5498Z" fill="#EA913D"/>
<path d="M14.8129 27.4395H21.7583V25.2535H14.8129V27.4395Z" fill="#F4A762"/>
<path d="M1.21411 27.4395H14.8135V25.2535H1.21411V27.4395Z" fill="#FFB871"/>
<path d="M7.30025 39.1777H8.33008L8.33008 25.2533H7.30025L7.30025 39.1777Z" fill="#E57970"/>
<path d="M18.6592 25.2559H17.6294V39.151H18.6592V25.2559Z" fill="#C65447"/>
<path d="M32.606 38.5558C32.1844 37.7688 31.9559 36.8953 31.939 36.0055C31.922 35.1157 32.117 34.2344 32.5084 33.4324C30.7897 33.0894 27.416 32.9333 22.782 32.2892C22.5755 32.0968 22.0592 31.5838 22.0323 31.2478C21.9998 30.8296 20.6036 29.961 20.0859 29.501C20.0859 29.501 19.6078 29.6404 19.9699 30.2663C20.0675 30.4336 20.2627 30.7069 20.448 30.9634L20.2486 30.8338C19.7549 30.5089 15.8479 30.5243 15.1704 31.153C14.4928 31.7818 16.2666 34.4989 18.2823 34.4989C19.1551 34.4989 21.5768 34.8293 22.3237 34.9339C23.7439 35.5556 28.4854 37.5897 32.606 38.5558Z" fill="#FFB27D"/>
</svg>
