<svg width="40" height="40" viewBox="0 0 40 40" fill="none" xmlns="http://www.w3.org/2000/svg">
<g clip-path="url(#clip0)">
<path d="M34.673 33.0339L22.3966 21.7617C22.3159 21.6876 22.2214 21.6302 22.1185 21.5927C22.0155 21.5552 21.9062 21.5383 21.7968 21.5431C21.5766 21.5549 21.3694 21.6512 21.2185 21.8119L16.7098 26.7227C16.6358 26.8033 16.5783 26.8977 16.5408 27.0005C16.5032 27.1033 16.4863 27.2125 16.491 27.3219C16.4956 27.4313 16.5218 27.5386 16.568 27.6379C16.6141 27.7371 16.6794 27.8263 16.7601 27.9003L29.0365 39.1726C29.1176 39.2467 29.2125 39.3041 29.3157 39.3416C29.419 39.379 29.5287 39.3957 29.6384 39.3907C29.8131 39.3835 29.9811 39.3214 30.1184 39.2131C30.2557 39.1049 30.3554 38.9561 30.4033 38.788L31.3152 35.6058L34.4078 34.4263C34.5405 34.3757 34.6581 34.292 34.7494 34.1832C34.8407 34.0744 34.9027 33.944 34.9294 33.8045C34.9562 33.665 34.9468 33.521 34.9022 33.3861C34.8576 33.2512 34.7793 33.13 34.6747 33.0339L34.673 33.0339Z" fill="url(#paint0_linear)"/>
<path d="M22.0649 21.5316L15.4052 21.8368C15.1844 21.847 14.9767 21.9444 14.8278 22.1076C14.6788 22.2709 14.6008 22.4867 14.6109 22.7075L15.374 39.3567C15.3803 39.4989 15.4229 39.6371 15.4978 39.7582C15.5727 39.8793 15.6774 39.9791 15.8019 40.0483C15.9264 40.1174 16.0665 40.1535 16.2088 40.1531C16.3512 40.1527 16.4911 40.1158 16.6152 40.046L19.5026 38.4317L22.5256 39.7751C22.6556 39.8333 22.7982 39.8572 22.9401 39.8446C23.0819 39.8319 23.2181 39.7832 23.3357 39.703C23.4533 39.6228 23.5484 39.5137 23.612 39.3863C23.6755 39.2589 23.7053 39.1174 23.6986 38.9751L22.9355 22.3259C22.9254 22.1051 22.828 21.8974 22.6647 21.7485C22.5014 21.5995 22.2857 21.5215 22.0649 21.5316Z" fill="url(#paint1_linear)"/>
<path d="M33.1453 14.3771L32.2439 12.2728L32.2169 9.98328C32.2144 9.7644 32.1687 9.54816 32.0825 9.34692C31.9964 9.14569 31.8714 8.9634 31.7148 8.81046L30.0765 7.21129L29.1759 5.10573C29.0019 4.69939 28.6736 4.37881 28.2633 4.2145L26.1388 3.36379L24.5001 1.76505C24.1837 1.45636 23.7579 1.28569 23.3159 1.29044L21.026 1.31823L18.9014 0.466685C18.4908 0.303253 18.0321 0.309277 17.6259 0.483436L15.5212 1.38491L13.2321 1.41141C12.7909 1.42057 12.3704 1.60059 12.0593 1.91354L10.4596 3.55058L8.35534 4.45203C7.949 4.62601 7.62841 4.95428 7.4641 5.36463L6.61256 7.48918L5.01299 9.12788C4.7043 9.44417 4.53388 9.87013 4.53921 10.3121L4.56654 12.6011L3.71542 14.7257C3.63431 14.929 3.59405 15.1462 3.59692 15.3651C3.5998 15.584 3.64576 15.8001 3.73217 16.0012L4.63362 18.1055L4.66054 20.3946C4.66311 20.6135 4.70879 20.8297 4.79494 21.0309C4.8811 21.2322 5.00606 21.4145 5.16268 21.5674L6.80094 23.1666L7.70158 25.2713C7.87556 25.6776 8.20383 25.9982 8.61418 26.1625L10.7387 27.0137L12.3766 28.6128C12.5331 28.7658 12.7183 28.8865 12.9215 28.9679C13.1246 29.0494 13.3419 29.09 13.5608 29.0875L15.8507 29.0601L17.9752 29.9112C18.1785 29.9923 18.3958 30.0326 18.6147 30.0297C18.8335 30.0268 19.0497 29.9809 19.2508 29.8945L21.3555 28.993L23.6442 28.9673C24.0859 28.9603 24.5071 28.78 24.817 28.4652L26.4162 26.8269L28.5205 25.9259C28.9268 25.7519 29.2474 25.4237 29.4117 25.0133L30.2632 22.8888L31.8624 21.2497C32.0153 21.0931 32.1359 20.9079 32.2173 20.7047C32.2986 20.5015 32.3392 20.2843 32.3366 20.0655L32.3092 17.776L33.1604 15.6515C33.3244 15.2414 33.319 14.7831 33.1453 14.3771Z" fill="url(#paint2_linear)"/>
<path d="M18.8881 25.0144C24.4051 24.7615 28.6726 20.0841 28.4198 14.567C28.1669 9.04995 23.4895 4.78247 17.9724 5.03533C12.4554 5.28818 8.18789 9.96562 8.44074 15.4827C8.6936 20.9997 13.371 25.2672 18.8881 25.0144Z" fill="#E6F9FE"/>
<path d="M18.8123 23.3487C23.4098 23.138 26.966 19.2401 26.7553 14.6426C26.5446 10.045 22.6468 6.48881 18.0492 6.69953C13.4517 6.91024 9.89543 10.8081 10.1061 15.4056C10.3169 20.0032 14.2147 23.5594 18.8123 23.3487Z" fill="url(#paint3_linear)"/>
<path d="M18.6667 8.66699L20.1634 13.2735H25.007L21.0885 16.1206L22.5852 20.7271L18.6667 17.8801L14.7481 20.7271L16.2449 16.1206L12.3263 13.2735H17.1699L18.6667 8.66699Z" fill="white"/>
</g>
<defs>
<linearGradient id="paint0_linear" x1="21.347" y1="38.015" x2="33.6318" y2="25.3276" gradientUnits="userSpaceOnUse">
<stop stop-color="#34CDFA"/>
<stop offset="1" stop-color="#E8D9F1"/>
</linearGradient>
<linearGradient id="paint1_linear" x1="17.3321" y1="38.3325" x2="26.5473" y2="33.8661" gradientUnits="userSpaceOnUse">
<stop stop-color="#34CDFA"/>
<stop offset="1" stop-color="#E8D9F1"/>
</linearGradient>
<linearGradient id="paint2_linear" x1="11.2911" y1="27.5023" x2="31.3307" y2="6.7565" gradientUnits="userSpaceOnUse">
<stop stop-color="#34CDFA"/>
<stop offset="1" stop-color="#E8D9F1"/>
</linearGradient>
<linearGradient id="paint3_linear" x1="14.4159" y1="21.9413" x2="25.6735" y2="10.2875" gradientUnits="userSpaceOnUse">
<stop stop-color="#34CDFA"/>
<stop offset="1" stop-color="#E8D9F1"/>
</linearGradient>
<clipPath id="clip0">
<rect width="40" height="40" fill="white"/>
</clipPath>
</defs>
</svg>
