<svg width="320" height="30" viewBox="0 0 320 30" fill="none" xmlns="http://www.w3.org/2000/svg">
<path d="M320 0L0 2.79753e-05L1.31134e-06 15C2.03558e-06 23.2843 6.71573 30 15 30L305 30C313.284 30 320 23.2843 320 15L320 0Z" fill="white"/>
<path fill-rule="evenodd" clip-rule="evenodd" d="M320 0H0V15C0 18.9782 1.58035 22.7936 4.3934 25.6066C7.20644 28.4196 11.0218 30 15 30H305C308.978 30 312.794 28.4196 315.607 25.6066C318.42 22.7936 320 18.9782 320 15V0ZM65.88 20H63.34L65.59 8.08C66.633 7.86781 67.6957 7.76725 68.76 7.78C69.8941 7.72047 71.0206 7.99516 72 8.57C72.4215 8.85446 72.7638 9.24139 72.9947 9.69444C73.2256 10.1475 73.3375 10.6518 73.32 11.16C73.3286 11.815 73.1849 12.4631 72.9003 13.0531C72.6157 13.6431 72.198 14.159 71.68 14.56C70.5434 15.3561 69.1766 15.7567 67.79 15.7C67.49 15.7 67.23 15.7 67 15.7H66.73L65.88 20ZM68.88 9.85C68.5253 9.84301 68.1707 9.86643 67.82 9.92L67.1 13.5C67.4289 13.5675 67.7643 13.5977 68.1 13.59C68.4162 13.623 68.7358 13.5912 69.0393 13.4966C69.3428 13.402 69.6238 13.2466 69.8652 13.0398C70.1067 12.833 70.3034 12.5792 70.4435 12.2938C70.5836 12.0084 70.6641 11.6975 70.68 11.38C70.69 10.23 69.84 9.85 68.85 9.85H68.88ZM77.88 18.18C78.736 18.191 79.5824 17.9991 80.35 17.62L80.53 19.5C79.4956 19.9753 78.3683 20.2145 77.23 20.2C74.73 20.2 73.44 18.78 73.44 16.47C73.3886 15.0744 73.8921 13.7153 74.8405 12.6901C75.7888 11.665 77.1046 11.0572 78.5 11C80.28 11 81.56 12 81.56 13.65C81.56 15.88 79.38 16.65 75.83 16.65C75.8533 16.9689 75.9528 17.2775 76.12 17.55C76.3327 17.78 76.5964 17.9569 76.89 18.0663C77.1835 18.1757 77.4986 18.2147 77.81 18.18H77.88ZM76.15 14.71C78.15 14.71 79.15 14.46 79.15 13.63C79.15 13.2 78.79 12.89 78.15 12.89C77.6509 12.9175 77.1755 13.1118 76.8001 13.4419C76.4248 13.7719 76.1711 14.2185 76.08 14.71H76.15ZM82.15 20L83.83 11.2H86.35L85.66 14.82H85.91L88.91 11.2H91.91L88 15.12C88.82 15.46 89.24 16.44 89.47 17.73V17.81C89.6111 18.5549 89.8118 19.2872 90.07 20H87.51C87.3646 19.5553 87.251 19.1008 87.17 18.64C87.17 18.4 87.06 18.15 87.01 17.91C86.74 16.85 86.4 16.33 85.57 16.33H85.33L84.63 20H82.15ZM100.33 14.62C100.376 15.3435 100.271 16.0686 100.023 16.7496C99.7743 17.4306 99.3875 18.0529 98.8868 18.5771C98.3861 19.1013 97.7822 19.5161 97.1133 19.7954C96.4444 20.0747 95.7248 20.2125 95 20.2C94.506 20.236 94.01 20.1667 93.5448 19.9967C93.0796 19.8267 92.6557 19.5599 92.3013 19.214C91.9468 18.868 91.6698 18.4508 91.4886 17.9898C91.3074 17.5289 91.2261 17.0347 91.25 16.54C91.2161 15.8237 91.3282 15.108 91.5795 14.4364C91.8307 13.7648 92.2159 13.1512 92.7116 12.6331C93.2073 12.1149 93.8032 11.703 94.463 11.4222C95.1229 11.1415 95.8329 10.9978 96.55 11C97.0397 10.966 97.531 11.0354 97.9922 11.2037C98.4533 11.3719 98.8738 11.6353 99.2266 11.9767C99.5793 12.3181 99.8562 12.7299 100.039 13.1852C100.223 13.6406 100.308 14.1295 100.29 14.62H100.33ZM94 16.51C94 17.51 94.52 18.22 95.42 18.22C96.82 18.22 97.63 16.13 97.63 14.64C97.63 13.83 97.27 12.96 96.25 12.96C94.73 13 94 15.14 94 16.51ZM100.86 20L103.19 11.18H106.44L106.79 14.62C106.79 15.14 106.89 15.9 106.95 16.69C107.17 16.18 107.66 15.19 108.11 14.31L109.74 11.18H113.04L111.9 20H109.5L110.04 16.47C110.15 15.72 110.37 14.47 110.53 13.54H110.46C110.19 14.17 109.68 15.18 109.14 16.26L107.29 19.86H105.29L104.95 16.36C104.86 15.36 104.77 14.29 104.71 13.52H104.64V13.76C104.45 14.69 104.21 15.85 104.04 16.53L103.15 20H100.86ZM118.61 18.18C119.466 18.1888 120.312 17.997 121.08 17.62L121.26 19.5C120.226 19.9753 119.098 20.2145 117.96 20.2C115.46 20.2 114.16 18.78 114.16 16.47C114.136 15.7736 114.25 15.0793 114.495 14.427C114.74 13.7747 115.112 13.1772 115.588 12.6689C116.065 12.1606 116.637 11.7515 117.273 11.4651C117.908 11.1787 118.593 11.0207 119.29 11C121.08 11 122.35 12 122.35 13.65C122.35 15.88 120.18 16.65 116.63 16.65C116.653 16.9689 116.753 17.2775 116.92 17.55C117.133 17.78 117.396 17.9569 117.69 18.0663C117.983 18.1757 118.299 18.2147 118.61 18.18ZM116.88 14.71C118.88 14.71 119.88 14.46 119.88 13.63C119.88 13.2 119.52 12.89 118.88 12.89C118.393 12.9308 117.933 13.1313 117.571 13.4603C117.209 13.7894 116.966 14.2287 116.88 14.71ZM122.88 20L124.54 11.2H127.13L126.52 14.44H129.2L129.81 11.2H132.4L130.76 20H128.17L128.85 16.44H126.17L125.5 20H122.88ZM136.6 9.34C136.164 9.31147 135.73 9.25805 135.3 9.18V7.06C135.9 7.19565 136.514 7.26275 137.13 7.26H137.93C139.06 7.31479 140.14 7.74398 141 8.48C141.518 9.01476 141.913 9.6558 142.158 10.3586C142.403 11.0614 142.493 11.8092 142.42 12.55C142.42 15.91 140.93 20.2 136.9 20.2C136.413 20.2392 135.923 20.1708 135.466 19.9996C135.008 19.8284 134.594 19.5586 134.252 19.2093C133.91 18.86 133.65 18.4398 133.489 17.9785C133.328 17.5171 133.27 17.0261 133.32 16.54C133.32 13.95 135.14 11.18 137.94 11.18C138.432 11.1494 138.922 11.2738 139.34 11.5356C139.757 11.7975 140.083 12.1837 140.27 12.64H140.32C140.329 12.4601 140.329 12.2799 140.32 12.1C140.336 11.7441 140.275 11.3891 140.14 11.0593C140.005 10.7295 139.801 10.4329 139.54 10.19C138.819 9.62211 137.917 9.33439 137 9.38L136.6 9.34ZM136 16.6C136 17.48 136.36 18.29 137.3 18.29C138.68 18.29 139.42 16.09 139.44 14.92C139.44 14.06 139.11 13.12 138.14 13.12C136.67 13.12 136 15.21 136 16.6ZM152.32 14.6C152.364 15.3172 152.26 16.0357 152.015 16.7113C151.771 17.3869 151.39 18.0052 150.897 18.528C150.404 19.0509 149.81 19.4672 149.15 19.7513C148.49 20.0354 147.779 20.1813 147.06 20.18C146.566 20.2161 146.071 20.1468 145.606 19.9768C145.141 19.8067 144.718 19.5398 144.364 19.1936C144.011 18.8475 143.735 18.4301 143.555 17.9692C143.375 17.5082 143.295 17.0142 143.32 16.52C143.289 15.8096 143.402 15.1002 143.651 14.4342C143.901 13.7683 144.282 13.1595 144.772 12.6442C145.262 12.1289 145.851 11.7177 146.503 11.4352C147.156 11.1527 147.859 11.0047 148.57 11C149.059 10.9676 149.55 11.0381 150.01 11.2069C150.471 11.3757 150.891 11.6392 151.243 11.9803C151.596 12.3213 151.872 12.7324 152.056 13.1871C152.24 13.6418 152.326 14.1299 152.31 14.62L152.32 14.6ZM146 16.51C146 17.51 146.52 18.22 147.42 18.22C148.83 18.22 149.64 16.13 149.64 14.64C149.64 13.83 149.28 12.96 148.25 12.96C146.75 13 146 15.14 146 16.51ZM155.75 11.81C156.592 11.2487 157.589 10.9654 158.6 11C160.53 11 161.77 11.7 161.77 13.18C161.77 14.33 160.63 15.03 159.72 15.27C160.201 15.2875 160.658 15.4873 160.998 15.8289C161.338 16.1705 161.535 16.6284 161.55 17.11C161.55 19.43 158.84 20.17 156.91 20.17C154.64 20.17 153.45 19.31 153.45 17.45C153.45 15.84 154.15 13 155.74 11.81H155.75ZM159.3 13.45C159.3 13.02 158.92 12.75 158.38 12.75C157.22 12.75 156.74 13.88 156.47 14.85C157.178 14.7711 157.874 14.6031 158.54 14.35C158.94 14.15 159.29 13.86 159.29 13.45H159.3ZM158.94 17.19C158.94 16.45 158.3 16.19 157.6 16.19C157.108 16.1998 156.622 16.2911 156.16 16.46C156.096 16.7324 156.059 17.0104 156.05 17.29C156.05 17.9 156.36 18.35 157.22 18.35C158.08 18.35 158.93 17.89 158.93 17.19H158.94ZM171.26 16C171.01 17.3184 170.89 18.6581 170.9 20H168.52C168.52 19.48 168.58 18.88 168.63 18.25C168.357 18.8189 167.933 19.3018 167.403 19.6457C166.874 19.9897 166.261 20.1814 165.63 20.2C164.05 20.2 162.97 18.97 162.97 17.14C162.95 16.3171 163.099 15.4989 163.409 14.7363C163.719 13.9737 164.182 13.2829 164.77 12.707C165.358 12.1311 166.059 11.6823 166.828 11.3887C167.597 11.095 168.418 10.9627 169.24 11C170.222 11.0054 171.199 11.1502 172.14 11.43L171.26 16ZM166.69 18.07C167.48 18.07 168.45 17.19 168.85 15.07L169.23 13.07C169.002 13.0293 168.771 13.0059 168.54 13C166.85 13 165.63 15 165.63 16.69C165.63 17.52 166 18.11 166.69 18.11V18.07ZM172.75 20L174.4 11.2H177L176.39 14.44H179.07L179.69 11.2H182.28L180.59 20H178L178.69 16.44H176L175.34 20H172.75ZM192.12 14.62C192.165 15.3367 192.063 16.055 191.819 16.7306C191.576 17.4061 191.196 18.0245 190.704 18.5475C190.212 19.0705 189.618 19.487 188.958 19.7713C188.299 20.0555 187.588 20.2014 186.87 20.2C186.376 20.236 185.88 20.1667 185.415 19.9967C184.95 19.8267 184.526 19.5599 184.171 19.214C183.817 18.868 183.54 18.4508 183.359 17.9898C183.177 17.5289 183.096 17.0347 183.12 16.54C183.086 15.8271 183.197 15.1147 183.446 14.4458C183.695 13.7768 184.076 13.1651 184.568 12.6476C185.059 12.13 185.65 11.7172 186.305 11.434C186.961 11.1509 187.666 11.0033 188.38 11C188.87 10.966 189.361 11.0354 189.822 11.2037C190.283 11.3719 190.704 11.6353 191.057 11.9767C191.409 12.3181 191.686 12.7299 191.869 13.1852C192.053 13.6406 192.138 14.1295 192.12 14.62ZM185.8 16.51C185.8 17.51 186.33 18.22 187.23 18.22C188.63 18.22 189.44 16.13 189.44 14.64C189.44 13.83 189.08 12.96 188.05 12.96C186.56 13 185.8 15.14 185.8 16.51ZM198.91 20H196.32L198.63 7.87H205.74L205.3 10.08H200.8L200.24 12.93H204.48L204 15.1H199.79L198.91 20ZM211.26 15.28L212 11.2H214.57L213.46 17.14C213.24 18.25 213.1 19.21 212.99 20H210.7L210.86 18.58C210.523 19.0687 210.076 19.4717 209.555 19.7565C209.034 20.0413 208.453 20.2 207.86 20.22C206.44 20.22 205.6 19.43 205.6 17.75C205.603 17.2052 205.663 16.6622 205.78 16.13L206.71 11.22H209.3L208.4 15.93C208.33 16.3164 208.29 16.7075 208.28 17.1C208.28 17.66 208.51 18.1 209.16 18.1C210 18.09 210.92 17 211.26 15.28ZM218.46 16.09L217.72 20H215.13L216.24 14.06C216.42 13.2 216.54 12.43 216.64 11.76L216.73 11.2H219L218.84 12.66C219.185 12.1399 219.655 11.7151 220.207 11.425C220.76 11.1348 221.376 10.9887 222 11C222.316 10.9778 222.632 11.0263 222.927 11.1418C223.221 11.2573 223.486 11.437 223.703 11.6678C223.919 11.8986 224.082 12.1747 224.178 12.476C224.274 12.7774 224.302 13.0965 224.26 13.41C224.247 13.9059 224.2 14.4004 224.12 14.89L223.12 20H220.51L221.44 15.12C221.503 14.7904 221.533 14.4555 221.53 14.12C221.53 13.49 221.32 13.06 220.65 13.06C219.81 13.09 218.82 14.15 218.46 16.09ZM233.4 17.79L233 20H225L225.32 18.33L227.84 16.38C230.18 14.47 231.68 13.11 231.68 11.7C231.682 11.4964 231.64 11.2948 231.557 11.1088C231.474 10.9229 231.352 10.7569 231.199 10.6223C231.047 10.4876 230.867 10.3873 230.672 10.3283C230.477 10.2692 230.272 10.2527 230.07 10.28C229.196 10.2733 228.338 10.5087 227.59 10.96L227.07 9.11C228.173 8.45887 229.429 8.11367 230.71 8.11C233.06 8.11 234.34 9.5 234.34 11.3C234.34 13.69 232.43 15.35 230.34 16.93L229.17 17.76L233.4 17.79ZM238.48 20.09C237.366 20.0953 236.253 20.0185 235.15 19.86L237.4 8.05C238.514 7.86505 239.641 7.77472 240.77 7.78C242.349 7.67632 243.913 8.14098 245.18 9.09C245.725 9.55423 246.154 10.1398 246.432 10.7998C246.71 11.4597 246.829 12.1756 246.78 12.89C246.807 13.9468 246.597 14.9962 246.166 15.9616C245.735 16.9269 245.094 17.7839 244.29 18.47C242.89 19.6 241.11 20.09 238.48 20.09ZM240.77 9.85C240.401 9.84228 240.033 9.87244 239.67 9.94L238.14 17.94C238.515 17.9799 238.893 17.9966 239.27 17.99C239.911 18.0195 240.55 17.9096 241.144 17.6679C241.738 17.4262 242.272 17.0584 242.71 16.59C243.581 15.5654 244.04 14.2541 244 12.91C244 11 242.91 9.85 240.77 9.85ZM255.91 16C255.67 17.3198 255.55 18.6586 255.55 20H253.18C253.18 19.69 253.18 19.35 253.24 19C253.3 18.65 253.24 18.52 253.24 18.26C252.976 18.8361 252.554 19.3253 252.023 19.6706C251.492 20.0159 250.874 20.203 250.24 20.21C248.66 20.21 247.58 18.98 247.58 17.15C247.56 16.3245 247.71 15.5036 248.022 14.7389C248.333 13.9741 248.799 13.2819 249.39 12.7056C249.982 12.1292 250.686 11.6811 251.458 11.3894C252.231 11.0976 253.055 10.9685 253.88 11.01C254.865 11.0162 255.845 11.161 256.79 11.44L255.91 16ZM251.38 18.07C252.15 18.07 253.11 17.19 253.52 15.07L253.92 13.07C253.686 13.0283 253.448 13.0049 253.21 13C251.54 13 250.32 15 250.32 16.69C250.32 17.52 250.66 18.11 251.38 18.11V18.07ZM259.65 19.15L257.92 11.15H260.64L261.18 14.98C261.18 15.28 261.26 15.56 261.3 15.8C261.37 16.31 261.42 16.71 261.47 17.09L261.56 16.83C261.73 16.36 261.92 15.83 262.24 15.04L263.84 11.15H266.58L263.43 17.48C262.601 19.3322 261.454 21.0245 260.04 22.48C259.254 23.2292 258.279 23.7511 257.22 23.99L256.64 21.76C257.17 21.6011 257.675 21.3688 258.14 21.07C258.725 20.6706 259.217 20.1485 259.58 19.54C259.64 19.4338 259.665 19.3112 259.65 19.19V19.15Z" fill="#0575E6"/>
</svg>
