<svg xmlns="http://www.w3.org/2000/svg" viewBox="0 0 158.1 13.23"><defs><style>.cls-1{fill:#fff;}</style></defs><g id="Слой_2" data-name="Слой 2"><g id="Слой_1-2" data-name="Слой 1"><path class="cls-1" d="M0,10.07,1.75.8A10.35,10.35,0,0,1,4.21.56a4.35,4.35,0,0,1,2.51.62,2.26,2.26,0,0,1,1,2A3.18,3.18,0,0,1,6.47,5.84a4.81,4.81,0,0,1-3,.88h-.3l-.3,0-.22,0L2,10.07ZM3.46,2.23,2.93,5a3.71,3.71,0,0,0,.78.07,2.08,2.08,0,0,0,1.44-.49,1.55,1.55,0,0,0,.56-1.23c0-.79-.47-1.19-1.43-1.19A4.75,4.75,0,0,0,3.46,2.23Zm9.71,6,.14,1.45a5.52,5.52,0,0,1-2.56.55,3,3,0,0,1-2.2-.76A2.92,2.92,0,0,1,7.8,7.32a4.49,4.49,0,0,1,.46-2,4.06,4.06,0,0,1,1.4-1.6,3.64,3.64,0,0,1,2.13-.64,2.47,2.47,0,0,1,1.7.56,1.84,1.84,0,0,1,.68,1.49c0,1.61-1.49,2.37-4.46,2.3a1.32,1.32,0,0,0,.23.7,1.56,1.56,0,0,0,1.31.53A4.32,4.32,0,0,0,13.17,8.22Zm-.89-3.11a.49.49,0,0,0-.21-.41.81.81,0,0,0-.54-.16A1.44,1.44,0,0,0,10.46,5a2.06,2.06,0,0,0-.55,1,6.18,6.18,0,0,0,1.79-.17C12.08,5.65,12.28,5.43,12.28,5.11ZM15.9,3.22h2L17.33,6h.2l2.29-2.81h2.37l-3,3c.56.24.94.91,1.15,2a11.67,11.67,0,0,0,.45,1.77h-2c0-.11-.08-.24-.13-.41s-.08-.38-.14-.64-.09-.46-.12-.58A2.23,2.23,0,0,0,18,7.5a.86.86,0,0,0-.7-.29h-.18l-.55,2.86h-2Zm8.75,7a2.89,2.89,0,0,1-2.11-.78,2.78,2.78,0,0,1-.8-2.06,4.37,4.37,0,0,1,1.15-3.07,3.78,3.78,0,0,1,2.94-1.26A2.83,2.83,0,0,1,28,3.86a2.79,2.79,0,0,1,.78,2A4.37,4.37,0,0,1,27.58,9,3.84,3.84,0,0,1,24.65,10.22Zm.28-1.54a1.41,1.41,0,0,0,1.24-.9,4,4,0,0,0,.49-1.89A1.55,1.55,0,0,0,26.39,5a.92.92,0,0,0-.81-.39,1.25,1.25,0,0,0-1,.48A3.14,3.14,0,0,0,24,6.16a4.25,4.25,0,0,0-.18,1.19,1.55,1.55,0,0,0,.29,1A1,1,0,0,0,24.93,8.68ZM31,3.21h2.53l.27,2.67c0,.31.07.84.13,1.61h0c.17-.38.47-1,.9-1.85l1.27-2.43h2.57l-.91,6.86H35.9l.42-2.75c.1-.67.22-1.43.38-2.28h-.05c-.14.33-.49,1-1,2.11L34.18,10H32.64l-.26-2.71c-.08-.87-.14-1.61-.19-2.21h0c-.25,1.21-.42,2-.51,2.33L31,10.07H29.18Zm13.91,5L45,9.67a5.5,5.5,0,0,1-2.56.55,3,3,0,0,1-2.2-.76,2.92,2.92,0,0,1-.75-2.14,4.49,4.49,0,0,1,.46-2,4.06,4.06,0,0,1,1.4-1.6,3.69,3.69,0,0,1,2.13-.64,2.52,2.52,0,0,1,1.71.56,1.86,1.86,0,0,1,.67,1.49c0,1.61-1.49,2.37-4.45,2.3a1.24,1.24,0,0,0,.22.7A1.57,1.57,0,0,0,43,8.65,4.28,4.28,0,0,0,44.9,8.22ZM44,5.11a.49.49,0,0,0-.21-.41.8.8,0,0,0-.53-.16A1.46,1.46,0,0,0,42.19,5a2.14,2.14,0,0,0-.55,1,6.18,6.18,0,0,0,1.79-.17C43.82,5.65,44,5.43,44,5.11Zm3.61-1.89h2l-.48,2.52h2.09l.47-2.52h2l-1.3,6.85h-2L51,7.29H48.87l-.52,2.78h-2ZM56,1.65l0-1.65a4.64,4.64,0,0,0,.62.11l.8.06L58,.2a4.07,4.07,0,0,1,2.41.91,4,4,0,0,1,1.1,3.16,10,10,0,0,1-.14,1.64,7.37,7.37,0,0,1-.47,1.59,5.43,5.43,0,0,1-.82,1.39,3.55,3.55,0,0,1-2.87,1.33,2.71,2.71,0,0,1-2-.76,2.82,2.82,0,0,1-.74-2.08,4.59,4.59,0,0,1,.43-2,4,4,0,0,1,1.28-1.58A3.07,3.07,0,0,1,58,3.21a1.79,1.79,0,0,1,1.8,1.13h0a3.87,3.87,0,0,0,0-.42,1.75,1.75,0,0,0-.6-1.48,3.12,3.12,0,0,0-2-.63C56.56,1.73,56.11,1.68,56,1.65Zm1.54,7.09a1.37,1.37,0,0,0,1.19-.89,3.87,3.87,0,0,0,.48-1.73,1.9,1.9,0,0,0-.25-1,.82.82,0,0,0-.76-.42,1.21,1.21,0,0,0-.94.46,2.94,2.94,0,0,0-.57,1.06,4.13,4.13,0,0,0-.16,1.18,1.73,1.73,0,0,0,.24.94A.88.88,0,0,0,57.51,8.74Zm7.6,1.48A2.92,2.92,0,0,1,63,9.44a2.77,2.77,0,0,1-.79-2.06,4.41,4.41,0,0,1,1.14-3.07,3.81,3.81,0,0,1,2.94-1.26A2.74,2.74,0,0,1,69.2,5.88,4.34,4.34,0,0,1,68,9,3.81,3.81,0,0,1,65.11,10.22Zm.28-1.54a1.41,1.41,0,0,0,1.23-.9,3.86,3.86,0,0,0,.49-1.89A1.55,1.55,0,0,0,66.84,5,.9.9,0,0,0,66,4.59a1.25,1.25,0,0,0-1,.48,3.33,3.33,0,0,0-.61,1.09,4.25,4.25,0,0,0-.18,1.19,1.5,1.5,0,0,0,.3,1A1,1,0,0,0,65.39,8.68Zm8.7-5.63a3.21,3.21,0,0,1,1.81.44,1.39,1.39,0,0,1,.65,1.26,1.34,1.34,0,0,1-.49,1,2.47,2.47,0,0,1-1.1.57v0a1.7,1.7,0,0,1,1,.45,1.23,1.23,0,0,1,.42,1A1.92,1.92,0,0,1,76,9a2.33,2.33,0,0,1-.9.74,5.25,5.25,0,0,1-1.16.38,6.14,6.14,0,0,1-1.21.13c-1.79,0-2.68-.71-2.68-2.12a7.5,7.5,0,0,1,.46-2.45A4,4,0,0,1,71.86,3.7,3.81,3.81,0,0,1,74.09,3.05Zm-.18,1.37c-.69,0-1.19.55-1.49,1.64A6.11,6.11,0,0,0,74,5.67c.4-.19.59-.42.59-.7a.44.44,0,0,0-.19-.39A.85.85,0,0,0,73.91,4.42Zm-.6,2.72a3.21,3.21,0,0,0-1.12.21A2.72,2.72,0,0,0,72.1,8c0,.55.31.83.91.83A1.55,1.55,0,0,0,74,8.55a.77.77,0,0,0,.38-.67C74.34,7.39,74,7.14,73.31,7.14Zm10.35,2.93H81.81c0-.42,0-.88.08-1.36h0a2.62,2.62,0,0,1-2.33,1.51A1.89,1.89,0,0,1,78,9.56a2.49,2.49,0,0,1-.58-1.72,5,5,0,0,1,.3-1.72,5.08,5.08,0,0,1,.88-1.53,4.18,4.18,0,0,1,1.55-1.1,5.48,5.48,0,0,1,2.19-.42,7.37,7.37,0,0,1,2.25.33L83.94,7A13.86,13.86,0,0,0,83.66,10.07Zm-1.6-3.84.29-1.58a2.77,2.77,0,0,0-.53-.06,2,2,0,0,0-1.61.93,3.27,3.27,0,0,0-.66,1.94,1.46,1.46,0,0,0,.21.83.72.72,0,0,0,.62.31,1.31,1.31,0,0,0,1-.59A4,4,0,0,0,82.06,6.23Zm4.32-3h2l-.48,2.52H90l.47-2.52h2l-1.3,6.85h-2l.53-2.78H87.63l-.52,2.78h-2Zm9.7,7A2.9,2.9,0,0,1,94,9.44a2.78,2.78,0,0,1-.8-2.06,4.41,4.41,0,0,1,1.15-3.07,3.81,3.81,0,0,1,2.94-1.26,2.82,2.82,0,0,1,2.13.81,2.79,2.79,0,0,1,.78,2A4.33,4.33,0,0,1,99,9,3.81,3.81,0,0,1,96.08,10.22Zm.28-1.54a1.41,1.41,0,0,0,1.23-.9,4,4,0,0,0,.49-1.89A1.55,1.55,0,0,0,97.81,5,.92.92,0,0,0,97,4.59a1.27,1.27,0,0,0-1,.48,3.14,3.14,0,0,0-.6,1.09,4.25,4.25,0,0,0-.18,1.19,1.55,1.55,0,0,0,.29,1A1,1,0,0,0,96.36,8.68Zm7.07,1.39L105.22.63h5.53l-.34,1.72h-3.5l-.43,2.21h3.29l-.34,1.7h-3.27l-.72,3.81Zm12.22-6.85h2l-.86,4.62c-.14.71-.26,1.45-.37,2.23h-1.78L114.77,9h0a2.9,2.9,0,0,1-2.35,1.27,1.72,1.72,0,0,1-1.3-.48,2,2,0,0,1-.46-1.44A5.92,5.92,0,0,1,110.77,7l.72-3.82h2l-.7,3.67a6.08,6.08,0,0,0-.1.91q0,.78.69.78a1.27,1.27,0,0,0,1-.59,3.74,3.74,0,0,0,.66-1.59Zm4.42,6.85h-2l.87-4.62c.07-.32.19-1.06.38-2.23h1.78L121,4.35h0a2.86,2.86,0,0,1,2.39-1.28,1.71,1.71,0,0,1,1.31.49,2,2,0,0,1,.46,1.38A7.71,7.71,0,0,1,125,6.09l-.76,4h-2l.73-3.8a5,5,0,0,0,.07-.75c0-.55-.23-.83-.69-.83a1.38,1.38,0,0,0-1,.63A4,4,0,0,0,120.64,7Zm11.89,0h-6.23L126,8.76l2-1.51a19.07,19.07,0,0,0,2.27-2.07,2.4,2.4,0,0,0,.72-1.57,1.07,1.07,0,0,0-.34-.8,1.28,1.28,0,0,0-.91-.3,3.57,3.57,0,0,0-1.93.53l-.41-1.44a5.25,5.25,0,0,1,2.83-.79,2.91,2.91,0,0,1,2.07.7A2.28,2.28,0,0,1,133,3.29a3.52,3.52,0,0,1-.24,1.29A3.94,3.94,0,0,1,132,5.74a9.87,9.87,0,0,1-.94,1c-.3.27-.7.59-1.17,1l-.91.65v0h3.26Zm1.67-.12L135.38.77A15.37,15.37,0,0,1,138,.56a5.14,5.14,0,0,1,3.43,1,3.61,3.61,0,0,1,1.24,3A6.09,6.09,0,0,1,142.16,7a5.06,5.06,0,0,1-1.42,1.85,7,7,0,0,1-4.52,1.26A14.37,14.37,0,0,1,133.63,10Zm3.51-7.71L136,8.46c.25,0,.54,0,.88,0a3.37,3.37,0,0,0,2.68-1.09,4.17,4.17,0,0,0,1-2.86,2.33,2.33,0,0,0-.63-1.75A2.52,2.52,0,0,0,138,2.17,4.26,4.26,0,0,0,137.14,2.24Zm12.36,7.83h-1.85c0-.16,0-.4,0-.72s0-.54,0-.64h0a2.56,2.56,0,0,1-2.31,1.51,1.89,1.89,0,0,1-1.5-.66,2.54,2.54,0,0,1-.58-1.72,5,5,0,0,1,.3-1.72,5.08,5.08,0,0,1,.88-1.53,4.18,4.18,0,0,1,1.55-1.1,5.42,5.42,0,0,1,2.17-.42,7.6,7.6,0,0,1,2.27.33L149.78,7A13.86,13.86,0,0,0,149.5,10.07Zm-1.58-3.84.3-1.58a2.78,2.78,0,0,0-.54-.06,2,2,0,0,0-1.6.93,3.27,3.27,0,0,0-.66,1.94,1.46,1.46,0,0,0,.21.83.72.72,0,0,0,.62.31,1.28,1.28,0,0,0,1-.59A4.23,4.23,0,0,0,147.92,6.23Zm3.42-3h2.12l.42,3c.14,1,.21,1.57.22,1.64h0c.25-.68.45-1.21.6-1.6l1.25-3h2.12l-2.45,4.93a14.08,14.08,0,0,1-2.63,3.9,4.08,4.08,0,0,1-1.16.8,3.83,3.83,0,0,1-1,.38l-.44-1.74a4.29,4.29,0,0,0,1.16-.53,3.62,3.62,0,0,0,1.12-1.19.59.59,0,0,0,0-.33Z"/></g></g></svg>