<svg xmlns="http://www.w3.org/2000/svg" viewBox="0 0 234 32">
  <path fill="#0575e6" d="M0,1H219a15,15,0,0,1,15,15V31H15A15,15,0,0,1,0,16Z"/>
  <path fill="#fff" d="M15.34,21,17.59,9.08a13.72,13.72,0,0,1,3.17-.3A5.55,5.55,0,0,1,24,9.57a2.92,2.92,0,0,1,1.32,2.59,4.07,4.07,0,0,1-1.64,3.4,6.14,6.14,0,0,1-3.89,1.14h-.4l-.37,0-.29,0L17.88,21Zm4.45-10.08L19.1,14.5a5.2,5.2,0,0,0,1,.09A2.72,2.72,0,0,0,22,14a2,2,0,0,0,.72-1.58c0-1-.62-1.53-1.84-1.53A6.39,6.39,0,0,0,19.79,10.92Zm12.49,7.7.18,1.88a7.34,7.34,0,0,1-3.3.7,3.86,3.86,0,0,1-2.82-1,3.76,3.76,0,0,1-1-2.76A5.81,5.81,0,0,1,26,14.88a5.29,5.29,0,0,1,1.8-2.05A4.74,4.74,0,0,1,30.5,12a3.25,3.25,0,0,1,2.19.72,2.37,2.37,0,0,1,.87,1.93q0,3.09-5.73,3a1.72,1.72,0,0,0,.29.9,2,2,0,0,0,1.69.68A5.49,5.49,0,0,0,32.28,18.62Zm-1.15-4a.61.61,0,0,0-.27-.52,1,1,0,0,0-.69-.22,1.88,1.88,0,0,0-1.38.56,2.66,2.66,0,0,0-.71,1.26,7.87,7.87,0,0,0,2.31-.22C30.88,15.32,31.13,15,31.13,14.63Zm4.66-2.43h2.52l-.69,3.62h.25l3-3.62h3L40,16.12q1.08.45,1.47,2.61A14,14,0,0,0,42.07,21H39.51c0-.13-.1-.31-.16-.52s-.11-.49-.18-.83-.13-.58-.16-.74a3.07,3.07,0,0,0-.54-1.2,1.08,1.08,0,0,0-.9-.38h-.24L36.63,21H34.11ZM47,21.2a3.73,3.73,0,0,1-2.72-1,3.56,3.56,0,0,1-1-2.65,5.67,5.67,0,0,1,1.48-3.94A4.89,4.89,0,0,1,48.55,12a3.62,3.62,0,0,1,2.74,1,3.53,3.53,0,0,1,1,2.59,5.55,5.55,0,0,1-1.49,4A4.9,4.9,0,0,1,47,21.2Zm.36-2A1.8,1.8,0,0,0,49,18.07a5.06,5.06,0,0,0,.63-2.43,2,2,0,0,0-.34-1.17,1.18,1.18,0,0,0-1-.51,1.64,1.64,0,0,0-1.24.61A4.05,4.05,0,0,0,46.21,16,5.63,5.63,0,0,0,46,17.51a1.93,1.93,0,0,0,.37,1.24A1.3,1.3,0,0,0,47.4,19.22Zm7.79-7h3.25l.35,3.44c0,.39.09,1.08.16,2.07h0c.22-.49.6-1.29,1.16-2.38l1.63-3.13h3.3L63.9,21H61.5L62,17.47c.12-.86.29-1.84.49-2.93h-.07c-.18.42-.62,1.32-1.32,2.72l-1.85,3.6h-2L57,17.36c-.1-1.11-.18-2.06-.24-2.84h-.07c-.32,1.56-.54,2.56-.65,3L55.15,21H52.86Zm17.89,6.44.18,1.88a7.37,7.37,0,0,1-3.3.7,3.84,3.84,0,0,1-2.82-1,3.77,3.77,0,0,1-1-2.76,5.82,5.82,0,0,1,.6-2.59,5.29,5.29,0,0,1,1.8-2.05A4.71,4.71,0,0,1,71.29,12a3.27,3.27,0,0,1,2.2.72,2.36,2.36,0,0,1,.86,1.93c0,2.06-1.9,3-5.72,3a1.63,1.63,0,0,0,.29.9,2,2,0,0,0,1.69.68A5.49,5.49,0,0,0,73.08,18.62Zm-1.16-4a.61.61,0,0,0-.27-.52,1,1,0,0,0-.68-.22,1.92,1.92,0,0,0-1.39.56,2.64,2.64,0,0,0-.7,1.26,7.91,7.91,0,0,0,2.31-.22C71.68,15.32,71.92,15,71.92,14.63Zm4.65-2.43h2.59l-.61,3.24h2.68l.61-3.24h2.59L82.76,21H80.17l.68-3.56H78.17L77.5,21H74.91Zm10.74-2,0-2.12a5.13,5.13,0,0,0,.79.14l1,.07.81,0A5.16,5.16,0,0,1,93,9.48c1,.8,1.43,2.16,1.43,4.07a12.23,12.23,0,0,1-.18,2.1,9.5,9.5,0,0,1-.62,2.06,6.94,6.94,0,0,1-1,1.78,4.67,4.67,0,0,1-3.69,1.71,3.55,3.55,0,0,1-2.63-1,3.71,3.71,0,0,1-1-2.69A5.86,5.86,0,0,1,85.87,15a5.19,5.19,0,0,1,1.63-2,4,4,0,0,1,2.43-.81,2.33,2.33,0,0,1,2.33,1.46h0c0-.12,0-.3,0-.54a2.29,2.29,0,0,0-.78-1.91A4,4,0,0,0,89,10.38C88.06,10.28,87.49,10.22,87.31,10.18Zm2,9.11a1.77,1.77,0,0,0,1.53-1.13,5.14,5.14,0,0,0,.61-2.24,2.32,2.32,0,0,0-.33-1.26,1,1,0,0,0-1-.54,1.55,1.55,0,0,0-1.2.6,3.57,3.57,0,0,0-.74,1.37A5,5,0,0,0,88,17.6a2.14,2.14,0,0,0,.31,1.2A1.08,1.08,0,0,0,89.29,19.29Zm9.76,1.91a3.73,3.73,0,0,1-2.72-1,3.55,3.55,0,0,1-1-2.65,5.66,5.66,0,0,1,1.47-3.94A4.91,4.91,0,0,1,100.57,12a3.6,3.6,0,0,1,2.73,1,3.54,3.54,0,0,1,1,2.59,5.59,5.59,0,0,1-1.49,4A4.92,4.92,0,0,1,99.05,21.2Zm.36-2A1.83,1.83,0,0,0,101,18.07a5.06,5.06,0,0,0,.63-2.43,2,2,0,0,0-.34-1.17,1.18,1.18,0,0,0-1.05-.51,1.64,1.64,0,0,0-1.24.61A4.05,4.05,0,0,0,98.22,16,5.63,5.63,0,0,0,98,17.51a1.93,1.93,0,0,0,.38,1.24A1.27,1.27,0,0,0,99.41,19.22ZM110.6,12a4.12,4.12,0,0,1,2.32.56,1.79,1.79,0,0,1,.85,1.62,1.73,1.73,0,0,1-.63,1.35,3.29,3.29,0,0,1-1.42.74v0a2.32,2.32,0,0,1,1.29.58,1.58,1.58,0,0,1,.54,1.26,2.45,2.45,0,0,1-.45,1.46,2.84,2.84,0,0,1-1.15,1,7.22,7.22,0,0,1-1.49.49,7.42,7.42,0,0,1-1.55.16c-2.3,0-3.46-.91-3.46-2.72a9.58,9.58,0,0,1,.6-3.15,5.15,5.15,0,0,1,1.69-2.5A4.9,4.9,0,0,1,110.6,12Zm-.23,1.77c-.89,0-1.53.7-1.91,2.1a8.13,8.13,0,0,0,2.07-.5c.5-.24.76-.54.76-.9a.59.59,0,0,0-.26-.51A1.05,1.05,0,0,0,110.37,13.75Zm-.78,3.49a4.2,4.2,0,0,0-1.44.27,3.87,3.87,0,0,0-.11.83c0,.7.39,1.06,1.17,1.06a2.08,2.08,0,0,0,1.23-.34,1,1,0,0,0,.49-.87C110.93,17.56,110.48,17.24,109.59,17.24ZM122.9,21h-2.38c0-.54.06-1.12.11-1.75h0a3.4,3.4,0,0,1-3,1.95,2.43,2.43,0,0,1-1.93-.85,3.24,3.24,0,0,1-.73-2.21,6.63,6.63,0,0,1,.37-2.22,6.54,6.54,0,0,1,1.14-2,5.4,5.4,0,0,1,2-1.42,7,7,0,0,1,2.81-.54,9.28,9.28,0,0,1,2.9.43L123.26,17A18,18,0,0,0,122.9,21Zm-2.05-4.93.37-2a4.75,4.75,0,0,0-.68-.07,2.53,2.53,0,0,0-2.07,1.19,4.27,4.27,0,0,0-.84,2.5,1.83,1.83,0,0,0,.26,1.06.9.9,0,0,0,.8.4,1.66,1.66,0,0,0,1.27-.76A5,5,0,0,0,120.85,16.07Zm5.55-3.87H129l-.61,3.24h2.68l.62-3.24h2.59L132.59,21H130l.69-3.56H128L127.34,21h-2.59Zm12.47,9a3.72,3.72,0,0,1-2.72-1,3.52,3.52,0,0,1-1-2.65,5.67,5.67,0,0,1,1.48-3.94A4.87,4.87,0,0,1,140.38,12a3.64,3.64,0,0,1,2.74,1,3.53,3.53,0,0,1,1,2.59,5.55,5.55,0,0,1-1.49,4A4.9,4.9,0,0,1,138.87,21.2Zm.36-2a1.81,1.81,0,0,0,1.58-1.15,5.06,5.06,0,0,0,.63-2.43,2,2,0,0,0-.34-1.17,1.18,1.18,0,0,0-1-.51,1.65,1.65,0,0,0-1.24.61A4,4,0,0,0,138,16a5.29,5.29,0,0,0-.24,1.53,1.93,1.93,0,0,0,.38,1.24A1.28,1.28,0,0,0,139.23,19.22ZM148.32,21l2.31-12.13h7.11l-.44,2.21h-4.5l-.56,2.85h4.24L156,16.1h-4.21l-.92,4.9ZM164,12.2h2.57l-1.11,5.94c-.18.91-.34,1.86-.47,2.86h-2.29l.16-1.42,0,0a3.76,3.76,0,0,1-3,1.64,2.25,2.25,0,0,1-1.67-.61,2.6,2.6,0,0,1-.59-1.86,8.18,8.18,0,0,1,.18-1.62l.93-4.91h2.59l-.9,4.71a7.44,7.44,0,0,0-.12,1.17c0,.68.29,1,.88,1a1.66,1.66,0,0,0,1.28-.75,4.87,4.87,0,0,0,.84-2.06Zm5.68,8.8h-2.59l1.11-5.94c.09-.41.25-1.36.49-2.86H171l-.16,1.46h0A3.65,3.65,0,0,1,174,12a2.19,2.19,0,0,1,1.67.63,2.47,2.47,0,0,1,.59,1.78,8.76,8.76,0,0,1-.14,1.48l-1,5.11h-2.61l.93-4.88a5.47,5.47,0,0,0,.09-1c0-.71-.29-1.06-.88-1.06a1.76,1.76,0,0,0-1.31.81,4.89,4.89,0,0,0-.88,2.19ZM185,21h-8l.32-1.67,2.52-1.95a25.15,25.15,0,0,0,2.92-2.66,3.14,3.14,0,0,0,.92-2,1.31,1.31,0,0,0-.44-1,1.58,1.58,0,0,0-1.17-.4,4.72,4.72,0,0,0-2.48.68l-.52-1.85a6.81,6.81,0,0,1,3.64-1,3.73,3.73,0,0,1,2.66.9,2.94,2.94,0,0,1,1,2.29,4.6,4.6,0,0,1-.3,1.65,5.28,5.28,0,0,1-.94,1.5,13.39,13.39,0,0,1-1.21,1.26c-.39.35-.9.75-1.51,1.22l-1.17.83v0h4.19Zm2.14-.14L189.4,9.05a19.92,19.92,0,0,1,3.37-.27,6.61,6.61,0,0,1,4.41,1.31,4.66,4.66,0,0,1,1.6,3.8,7.58,7.58,0,0,1-.67,3.2,6.23,6.23,0,0,1-1.82,2.38,9,9,0,0,1-5.81,1.62A20.48,20.48,0,0,1,187.15,20.86Zm4.52-9.92-1.53,8a9.27,9.27,0,0,0,1.13.05,4.27,4.27,0,0,0,3.44-1.4A5.33,5.33,0,0,0,196,13.91a3,3,0,0,0-.81-2.25,3.25,3.25,0,0,0-2.39-.81A5.74,5.74,0,0,0,191.67,10.94ZM207.55,21h-2.37l0-.92c0-.42,0-.69.06-.83h0a3.29,3.29,0,0,1-3,1.95,2.44,2.44,0,0,1-1.93-.85,3.24,3.24,0,0,1-.73-2.21,6.63,6.63,0,0,1,.37-2.22,6.75,6.75,0,0,1,1.14-2,5.36,5.36,0,0,1,2-1.42,6.87,6.87,0,0,1,2.79-.54,9.53,9.53,0,0,1,2.91.43L207.91,17A19.26,19.26,0,0,0,207.55,21Zm-2-4.93.4-2a5,5,0,0,0-.71-.07,2.51,2.51,0,0,0-2.05,1.19,4.27,4.27,0,0,0-.84,2.5,1.83,1.83,0,0,0,.27,1.06.88.88,0,0,0,.79.4,1.63,1.63,0,0,0,1.24-.76A5.16,5.16,0,0,0,205.52,16.07Zm4.41-3.87h2.71l.54,3.83c.18,1.32.28,2,.29,2.11h0c.32-.88.58-1.56.77-2.05l1.6-3.89h2.74l-3.15,6.33a18.68,18.68,0,0,1-3.38,5,5.69,5.69,0,0,1-1.5,1,4.8,4.8,0,0,1-1.33.49l-.58-2.23a5.49,5.49,0,0,0,1.5-.69,4.75,4.75,0,0,0,1.44-1.53.62.62,0,0,0,0-.43Z"/>
</svg>
