<svg width="40" height="40" viewBox="0 0 40 40" fill="none" xmlns="http://www.w3.org/2000/svg">
<g clip-path="url(#clip0)">
<path d="M29.6813 6.27539C28.6748 6.27539 27.8569 7.09418 27.8569 8.09973C27.8569 9.1059 28.6748 9.92407 29.6813 9.92407C30.6865 9.92407 31.5053 9.1059 31.5053 8.09973C31.5053 7.09418 30.6865 6.27539 29.6813 6.27539Z" fill="url(#paint0_linear)"/>
<path d="M33.0994 27.0148H6.87408C5.41016 27.0148 4.21875 25.8234 4.21875 24.3585C4.21875 22.8946 5.41016 21.7032 6.87408 21.7032H29.711L35.2124 14.2554C36.5665 12.4094 37.7814 10.5493 37.7814 8.09998C37.7814 3.64929 34.1727 0.0256348 29.7281 0H29.6796C25.2139 0 21.5805 3.63373 21.5805 8.09998C21.5805 10.5493 22.796 12.4094 24.1501 14.2554L27.8922 19.3594H6.87408C4.11713 19.3594 1.875 21.6016 1.875 24.3585C1.875 27.1155 4.11713 29.3585 6.87408 29.3585H33.0994C34.5969 29.3585 35.8148 30.5765 35.8148 32.0734C35.8148 33.5712 34.5969 34.7891 33.0994 34.7891H9.77966C9.27643 33.1311 7.73346 31.922 5.914 31.922C3.68683 31.922 1.875 33.7335 1.875 35.961C1.875 38.1882 3.68683 40 5.914 40C7.73346 40 9.27643 38.7906 9.77966 37.1329H33.0994C35.889 37.1329 38.1586 34.8633 38.1586 32.0734C38.1586 29.2844 35.889 27.0148 33.0994 27.0148ZM29.6814 12.2681C27.3828 12.2681 25.5133 10.3986 25.5133 8.09998C25.5133 5.80231 27.3828 3.93188 29.6814 3.93188C31.9788 3.93188 33.8492 5.80231 33.8492 8.09998C33.8492 10.3986 31.9788 12.2681 29.6814 12.2681Z" fill="url(#paint1_linear)"/>
</g>
<defs>
<linearGradient id="paint0_linear" x1="27.8569" y1="6.27539" x2="31.5056" y2="9.92377" gradientUnits="userSpaceOnUse">
<stop stop-color="#0575E6"/>
<stop offset="1" stop-color="#021B79"/>
</linearGradient>
<linearGradient id="paint1_linear" x1="1.875" y1="0" x2="41.6856" y2="36.1117" gradientUnits="userSpaceOnUse">
<stop stop-color="#0575E6"/>
<stop offset="1" stop-color="#021B79"/>
</linearGradient>
<clipPath id="clip0">
<rect width="40" height="40" fill="white"/>
</clipPath>
</defs>
</svg>
