<svg width="40" height="40" viewBox="0 0 40 40" fill="none" xmlns="http://www.w3.org/2000/svg">
<path d="M26.25 2.5H23.535C23.02 1.045 21.63 0 20 0C18.37 0 16.98 1.045 16.4625 2.5H13.75C13.06 2.5 12.5 3.06 12.5 3.75V8.75C12.5 9.44 13.06 10 13.75 10H26.25C26.94 10 27.5 9.44 27.5 8.75V3.75C27.5 3.06 26.94 2.5 26.25 2.5Z" fill="url(#paint0_linear)"/>
<path d="M32.5 5H30V8.75C30 10.8175 28.3175 12.5 26.25 12.5H13.75C11.6825 12.5 10 10.8175 10 8.75V5H7.5C6.1225 5 5 6.1225 5 7.5V37.5C5 38.9025 6.0975 40 7.5 40H32.5C33.9025 40 35 38.9025 35 37.5V7.5C35 6.0975 33.9025 5 32.5 5ZM19.635 27.135L14.635 32.135C14.39 32.3775 14.07 32.5 13.75 32.5C13.43 32.5 13.11 32.3775 12.865 32.135L10.365 29.635C9.8775 29.1475 9.8775 28.355 10.365 27.8675C10.8525 27.38 11.645 27.38 12.1325 27.8675L13.75 29.4825L17.865 25.3675C18.3525 24.88 19.145 24.88 19.6325 25.3675C20.12 25.855 20.1225 26.645 19.635 27.135ZM19.635 17.135L14.635 22.135C14.39 22.3775 14.07 22.5 13.75 22.5C13.43 22.5 13.11 22.3775 12.865 22.135L10.365 19.635C9.8775 19.1475 9.8775 18.355 10.365 17.8675C10.8525 17.38 11.645 17.38 12.1325 17.8675L13.75 19.4825L17.865 15.3675C18.3525 14.88 19.145 14.88 19.6325 15.3675C20.12 15.855 20.1225 16.645 19.635 17.135ZM28.75 30H23.75C23.06 30 22.5 29.44 22.5 28.75C22.5 28.06 23.06 27.5 23.75 27.5H28.75C29.44 27.5 30 28.06 30 28.75C30 29.44 29.44 30 28.75 30ZM28.75 20H23.75C23.06 20 22.5 19.44 22.5 18.75C22.5 18.06 23.06 17.5 23.75 17.5H28.75C29.44 17.5 30 18.06 30 18.75C30 19.44 29.44 20 28.75 20Z" fill="url(#paint1_linear)"/>
<defs>
<linearGradient id="paint0_linear" x1="12.5" y1="0" x2="21.7308" y2="13.8462" gradientUnits="userSpaceOnUse">
<stop stop-color="#0575E6"/>
<stop offset="1" stop-color="#021B79"/>
</linearGradient>
<linearGradient id="paint1_linear" x1="5" y1="5" x2="39.5882" y2="34.6471" gradientUnits="userSpaceOnUse">
<stop stop-color="#0575E6"/>
<stop offset="1" stop-color="#021B79"/>
</linearGradient>
</defs>
</svg>
