<svg width="40" height="40" viewBox="0 0 40 40" fill="none" xmlns="http://www.w3.org/2000/svg">
<g clip-path="url(#clip0)">
<path d="M20 40.0001C31.0458 40.0001 40.0001 31.0458 40.0001 20C40.0001 8.95432 31.0458 0 20 0C8.95432 0 0 8.95432 0 20C0 31.0458 8.95432 40.0001 20 40.0001Z" fill="#1B92D0"/>
<path d="M30.5528 21.9786C30.6377 21.4421 30.6822 20.8929 30.6822 20.3323C30.6822 14.5059 25.959 9.78281 20.1324 9.78281C19.5731 9.78281 19.0226 9.82889 18.4864 9.91228C17.5147 9.31193 16.368 8.96387 15.1389 8.96387C11.6183 8.96387 8.76367 11.8172 8.76367 15.3384C8.76367 16.5672 9.11199 17.7129 9.71267 18.6869C9.62962 19.2243 9.58379 19.7717 9.58379 20.3325C9.58379 26.1589 14.307 30.8805 20.1321 30.8805C20.6917 30.8805 21.2425 30.8375 21.7787 30.7529C22.7514 31.3529 23.8974 31.7022 25.1266 31.7022C28.6478 31.7022 31.5021 28.8473 31.5021 25.3264C31.502 24.0973 31.154 22.9512 30.5528 21.9786ZM25.1411 25.1297C24.6949 25.7724 24.0396 26.2745 23.1825 26.6355C22.3241 26.997 21.3097 27.1771 20.1384 27.1771C18.734 27.1771 17.5712 26.9317 16.6538 26.4355C16.0032 26.0803 15.4745 25.6033 15.0675 25.009C14.6601 24.414 14.4535 23.8317 14.4535 23.2638C14.4535 22.9288 14.5811 22.6373 14.83 22.4001C15.0813 22.161 15.4051 22.0407 15.7869 22.0407C16.0998 22.0407 16.3686 22.1352 16.5874 22.3221C16.8047 22.509 16.9869 22.7801 17.1359 23.1382C17.3144 23.5532 17.5086 23.9006 17.7151 24.1769C17.92 24.4503 18.2087 24.6787 18.5829 24.8574C18.953 25.0365 19.4447 25.1261 20.0608 25.1261C20.9038 25.1261 21.5849 24.9443 22.1063 24.5839C22.6302 24.2213 22.8822 23.7795 22.8822 23.2461C22.8822 22.8204 22.7464 22.4819 22.4682 22.2185C22.1875 21.9519 21.8249 21.7483 21.3745 21.6064C20.9229 21.4633 20.3162 21.3111 19.5561 21.1513C18.5357 20.9286 17.6815 20.669 16.9905 20.3713C16.2983 20.0725 15.7469 19.6638 15.3386 19.1478C14.9293 18.6267 14.725 17.979 14.725 17.2113C14.725 16.4796 14.9404 15.825 15.3721 15.2558C15.8034 14.6852 16.4275 14.2481 17.241 13.9433C18.0517 13.6389 19.0063 13.487 20.0997 13.487C20.9741 13.487 21.7302 13.588 22.3706 13.7898C23.0092 13.9922 23.5414 14.2597 23.9671 14.5961C24.3903 14.9308 24.701 15.2845 24.8981 15.6553C25.0948 16.0277 25.1943 16.3905 25.1943 16.7448C25.1943 17.0745 25.0667 17.3733 24.8179 17.6358C24.569 17.8979 24.2507 18.0318 23.8787 18.0305C23.5433 18.0305 23.2802 17.9534 23.098 17.7892C22.9202 17.6313 22.7339 17.3789 22.5321 17.0275C22.2769 16.5367 21.9715 16.1552 21.6163 15.8818C21.2705 15.6136 20.7001 15.4738 19.9059 15.4756C19.1713 15.4756 18.5833 15.6256 18.1396 15.919C17.6933 16.2174 17.4795 16.5635 17.4786 16.9693C17.4795 17.2236 17.5522 17.4373 17.6994 17.6208C17.8488 17.8059 18.0562 17.966 18.3235 18.1011C18.5907 18.2382 18.8622 18.3443 19.1354 18.4208C19.4114 18.4988 19.8693 18.6119 20.5066 18.7618C21.3053 18.9339 22.0304 19.1263 22.6816 19.336C23.3316 19.5469 23.8858 19.8009 24.3443 20.1041C24.8063 20.4056 25.1673 20.7907 25.4247 21.2554C25.684 21.7209 25.8132 22.2894 25.8132 22.9589C25.8127 23.7641 25.5882 24.4882 25.1411 25.1297Z" fill="white"/>
</g>
<defs>
<clipPath id="clip0">
<rect width="40" height="40" fill="white"/>
</clipPath>
</defs>
</svg>
