<svg width="137" height="25" viewBox="0 0 137 25" xmlns="http://www.w3.org/2000/svg">
  <path
    d="M12.5 0L15.3064 8.63729H24.3882L17.0409 13.9754L19.8473 22.6127L12.5 17.2746L5.15268 22.6127L7.95911 13.9754L0.611794 8.63729H9.69357L12.5 0Z"
    fill="#bbbbbb"/>
  <path
    d="M40.5 0L43.3064 8.63729H52.3882L45.0409 13.9754L47.8473 22.6127L40.5 17.2746L33.1527 22.6127L35.9591 13.9754L28.6118 8.63729H37.6936L40.5 0Z"
    fill="#bbbbbb"/>
  <path
    d="M68.5 0L71.3064 8.63729H80.3882L73.0409 13.9754L75.8473 22.6127L68.5 17.2746L61.1527 22.6127L63.9591 13.9754L56.6118 8.63729H65.6936L68.5 0Z"
    fill="#bbbbbb"/>
  <path
    d="M96.5 0L99.3064 8.63729H108.388L101.041 13.9754L103.847 22.6127L96.5 17.2746L89.1527 22.6127L91.9591 13.9754L84.6118 8.63729H93.6936L96.5 0Z"
    fill="#bbbbbb"/>
  <path
    d="M124.5 0L127.306 8.63729H136.388L129.041 13.9754L131.847 22.6127L124.5 17.2746L117.153 22.6127L119.959 13.9754L112.612 8.63729H121.694L124.5 0Z"
    fill="#bbbbbb"/>
</svg>
