<svg xmlns="http://www.w3.org/2000/svg" viewBox="0 0 53 50">
  <defs>
    <style>.cls-1{fill:#eecd23;}</style>
  </defs>
  <title>star</title>
  <path class="cls-1"
        d="M26.5,3.24l5.22,16.07L32,20H49.58L35.9,29.94l-.59.42.23.7,5.22,16.07L27.09,37.19l-.59-.42-.59.42L12.24,47.13l5.22-16.07.23-.7-.59-.42L3.42,20H21.05l.23-.69Z"/>
  <path class="cls-1"
        d="M42.66,49.75,26.5,38,10.34,49.75l6.17-19h0L.35,19h20L26.5,0l6.17,19h20L36.49,30.75ZM26.5,35.53l12.36,9L34.14,30,46.5,21H31.22L26.5,6.47,21.78,21H6.5l12.36,9L14.14,44.51Z"/>
</svg>
