<svg width="40" height="40" viewBox="0 0 40 40" fill="none" xmlns="http://www.w3.org/2000/svg">
<g clip-path="url(#clip0)">
<path d="M16.6667 40.0003C25.8714 40.0003 33.3333 32.5384 33.3333 23.3337C33.3333 14.1289 25.8714 6.66699 16.6667 6.66699C7.46192 6.66699 0 14.1289 0 23.3337C0 32.5384 7.46192 40.0003 16.6667 40.0003Z" fill="url(#paint0_linear)"/>
<path d="M16.6667 35.0003C23.11 35.0003 28.3333 29.777 28.3333 23.3337C28.3333 16.8903 23.11 11.667 16.6667 11.667C10.2233 11.667 5 16.8903 5 23.3337C5 29.777 10.2233 35.0003 16.6667 35.0003Z" fill="#CCF2FE"/>
<path d="M16.6667 30.0003C20.3486 30.0003 23.3333 27.0156 23.3333 23.3337C23.3333 19.6518 20.3486 16.667 16.6667 16.667C12.9848 16.667 10 19.6518 10 23.3337C10 27.0156 12.9848 30.0003 16.6667 30.0003Z" fill="url(#paint1_linear)"/>
<path d="M15.4849 22.1553L28.8162 8.82389L31.1731 11.1807L17.8417 24.5121L15.4849 22.1553Z" fill="#E6F9FE"/>
<path d="M39.8728 6.02881C39.7466 5.72429 39.533 5.46402 39.2589 5.2809C38.9849 5.09779 38.6626 5.00005 38.333 5.00006H34.9997V1.66673C34.9997 1.33708 34.902 1.01484 34.7188 0.740746C34.5357 0.466653 34.2754 0.253023 33.9708 0.126872C33.6663 0.000720551 33.3312 -0.0322851 33.0078 0.0320286C32.6845 0.0963423 32.3876 0.255087 32.1545 0.488186L28.8211 3.82152C28.6664 3.97629 28.5436 4.16003 28.4599 4.36224C28.3761 4.56446 28.333 4.78119 28.333 5.00006V10.0001C28.333 10.4421 28.5086 10.866 28.8212 11.1786C29.1337 11.4911 29.5576 11.6667 29.9997 11.6667H34.9997C35.2186 11.6667 35.4353 11.6236 35.6375 11.5399C35.8397 11.4561 36.0235 11.3334 36.1782 11.1786L39.5116 7.84527C39.7447 7.61217 39.9034 7.31517 39.9677 6.99184C40.032 6.66851 39.999 6.33337 39.8728 6.02881Z" fill="url(#paint2_linear)"/>
<path d="M38.3332 5H34.9998L28.8213 11.1785C28.9759 11.3335 29.1596 11.4564 29.3619 11.5402C29.5641 11.6239 29.7809 11.6669 29.9998 11.6667H34.9998C35.2187 11.6667 35.4354 11.6236 35.6377 11.5398C35.8399 11.4561 36.0236 11.3333 36.1784 11.1785L39.5117 7.84521C39.7448 7.61212 39.9036 7.31514 39.9679 6.99183C40.0322 6.66852 39.9992 6.3334 39.873 6.02885C39.7469 5.7243 39.5332 5.464 39.2592 5.28086C38.9851 5.09773 38.6628 4.99999 38.3332 5Z" fill="url(#paint3_linear)"/>
</g>
<defs>
<linearGradient id="paint0_linear" x1="25.3333" y1="36.0003" x2="-0.666667" y2="8.00032" gradientUnits="userSpaceOnUse">
<stop stop-color="#34CDFA"/>
<stop offset="1" stop-color="#E8D9F1"/>
</linearGradient>
<linearGradient id="paint1_linear" x1="13.2048" y1="28.7146" x2="22.6283" y2="19.8136" gradientUnits="userSpaceOnUse">
<stop stop-color="#34CDFA"/>
<stop offset="1" stop-color="#E8D9F1"/>
</linearGradient>
<linearGradient id="paint2_linear" x1="32.6663" y1="6" x2="28.6663" y2="2.66667" gradientUnits="userSpaceOnUse">
<stop stop-color="#34CDFA"/>
<stop offset="1" stop-color="#E8D9F1"/>
</linearGradient>
<linearGradient id="paint3_linear" x1="31.5082" y1="11.0238" x2="35.7691" y2="4.27524" gradientUnits="userSpaceOnUse">
<stop stop-color="#34CDFA"/>
<stop offset="1" stop-color="#E8D9F1"/>
</linearGradient>
<clipPath id="clip0">
<rect width="40" height="40" fill="white"/>
</clipPath>
</defs>
</svg>
