<svg width="40" height="40" viewBox="0 0 40 40" fill="none" xmlns="http://www.w3.org/2000/svg">
<path d="M20 40C31.0457 40 40 31.0457 40 20C40 8.9543 31.0457 0 20 0C8.9543 0 0 8.9543 0 20C0 31.0457 8.9543 40 20 40Z" fill="#039BE5"/>
<path d="M9.15162 19.567L28.435 12.132C29.33 11.8087 30.1116 12.3503 29.8216 13.7037L29.8233 13.702L26.54 29.1703C26.2966 30.267 25.645 30.5337 24.7333 30.017L19.7333 26.332L17.3216 28.6553C17.055 28.922 16.83 29.147 16.3133 29.147L16.6683 24.0587L25.935 15.687C26.3383 15.332 25.845 15.132 25.3133 15.4853L13.8616 22.6953L8.92495 21.1553C7.85328 20.8153 7.82995 20.0837 9.15162 19.567Z" fill="white"/>
</svg>
