<svg width="40" height="40" viewBox="0 0 40 40" fill="none" xmlns="http://www.w3.org/2000/svg">
<g clip-path="url(#clip0)">
<path d="M20.0008 39.9996C31.0464 39.9996 40.0006 31.0454 40.0006 19.9998C40.0006 8.95423 31.0464 0 20.0008 0C8.9552 0 0.000976562 8.95423 0.000976562 19.9998C0.000976562 31.0454 8.9552 39.9996 20.0008 39.9996Z" fill="#55ACEE"/>
<path d="M32.2509 14.3736C31.3938 14.7537 30.4718 15.0107 29.505 15.1255C30.4922 14.534 31.2498 13.5982 31.6074 12.4812C30.6836 13.0292 29.6601 13.4267 28.5716 13.641C27.6996 12.7122 26.4571 12.1318 25.0813 12.1318C22.4417 12.1318 20.3008 14.2727 20.3008 16.9124C20.3008 17.2871 20.3432 17.6518 20.4252 18.0019C16.4522 17.8026 12.9295 15.8995 10.5715 13.0064C10.1601 13.7123 9.92406 14.534 9.92406 15.41C9.92406 17.0682 10.7686 18.532 12.0507 19.3891C11.2674 19.3645 10.5298 19.1495 9.88556 18.7905C9.8852 18.8108 9.8852 18.8311 9.8852 18.8511C9.8852 21.1674 11.5337 23.0993 13.7202 23.5382C13.3195 23.648 12.8963 23.7061 12.461 23.7061C12.1523 23.7061 11.8532 23.6765 11.5615 23.6209C12.1698 25.5197 13.9349 26.9019 16.0273 26.9408C14.3909 28.2232 12.3298 28.9872 10.0895 28.9872C9.70445 28.9872 9.32298 28.9647 8.94971 28.9202C11.0642 30.2771 13.5776 31.0682 16.2772 31.0682C25.0703 31.0682 29.879 23.7838 29.879 17.466C29.879 17.2589 29.8743 17.0525 29.8651 16.8478C30.7998 16.174 31.6102 15.3323 32.2509 14.3736Z" fill="#F1F2F2"/>
</g>
<defs>
<clipPath id="clip0">
<rect width="40" height="40" fill="white"/>
</clipPath>
</defs>
</svg>
