<svg width="40" height="40" viewBox="0 0 40 40" fill="none" xmlns="http://www.w3.org/2000/svg">
<path d="M20 40C31.0457 40 40 31.0457 40 20C40 8.9543 31.0457 0 20 0C8.9543 0 0 8.9543 0 20C0 31.0457 8.9543 40 20 40Z" fill="#6F3FAA"/>
<path d="M30.58 14.0561L30.5735 14.0297C30.0391 11.8693 27.6299 9.55117 25.4174 9.06891L25.3924 9.06375C21.8138 8.38109 18.1853 8.38109 14.6075 9.06375L14.5818 9.06891C12.3701 9.55117 9.9608 11.8695 9.42572 14.0297L9.41979 14.0561C8.75916 17.073 8.75916 20.1327 9.41979 23.1497L9.42572 23.1761C9.93807 25.2442 12.1678 27.4559 14.2978 28.0641V30.4757C14.2978 31.3486 15.3614 31.7773 15.9663 31.1473L18.4096 28.6076C18.9396 28.6372 19.4699 28.6537 19.9999 28.6537C21.8013 28.6537 23.6035 28.4834 25.3924 28.1421L25.4173 28.137C27.6298 27.6547 30.039 25.3364 30.5734 23.1762L30.5799 23.1498C31.2406 20.1327 31.2406 17.0732 30.58 14.0561ZM28.6463 22.7123C28.2896 24.1217 26.4603 25.8739 25.0069 26.1977C23.1042 26.5595 21.1863 26.7141 19.2703 26.6611C19.2322 26.66 19.1956 26.6748 19.1691 26.7022C18.8971 26.9813 17.3851 28.5336 17.3851 28.5336L15.4876 30.4811C15.3488 30.6258 15.1051 30.5273 15.1051 30.3277V26.3327C15.1051 26.2666 15.058 26.2106 14.9931 26.1978C14.9928 26.1977 14.9924 26.1977 14.9921 26.1976C13.5386 25.8738 11.71 24.1216 11.3526 22.7122C10.758 19.9852 10.758 17.2206 11.3526 14.4936C11.71 13.0841 13.5386 11.332 14.9921 11.0082C18.3152 10.3762 21.6846 10.3762 25.007 11.0082C26.4611 11.332 28.2896 13.0841 28.6464 14.4936C29.2417 17.2207 29.2417 19.9852 28.6463 22.7123Z" fill="white"/>
<path d="M23.1615 24.5565C22.9381 24.4886 22.7252 24.443 22.5273 24.3611C20.478 23.5108 18.5921 22.414 17.0982 20.7326C16.2487 19.7766 15.5838 18.6971 15.0218 17.5548C14.7552 17.013 14.5306 16.4501 14.3016 15.8908C14.0929 15.3808 14.4003 14.8539 14.7241 14.4695C15.0279 14.1088 15.4189 13.8329 15.8424 13.6294C16.1729 13.4706 16.4988 13.5622 16.7402 13.8423C17.2619 14.4479 17.7413 15.0844 18.1293 15.7865C18.3679 16.2183 18.3025 16.7461 17.8699 17.0399C17.7647 17.1113 17.6689 17.1952 17.5711 17.2758C17.4851 17.3466 17.4043 17.418 17.3454 17.5137C17.2379 17.6887 17.2327 17.8954 17.3019 18.0858C17.8353 19.5515 18.7343 20.6913 20.2096 21.3053C20.4457 21.4035 20.6828 21.5178 20.9548 21.4862C21.4103 21.433 21.5578 20.9333 21.877 20.6723C22.1889 20.4172 22.5877 20.4138 22.9237 20.6265C23.2599 20.8393 23.5857 21.0676 23.9096 21.2984C24.2275 21.525 24.544 21.7465 24.8372 22.0048C25.1193 22.2532 25.2164 22.579 25.0575 22.9159C24.7669 23.5332 24.3439 24.0466 23.7338 24.3744C23.5615 24.4667 23.3557 24.4966 23.1615 24.5565C22.9381 24.4886 23.3557 24.4966 23.1615 24.5565Z" fill="white"/>
<path d="M20.0055 12.9229C22.6859 12.9981 24.8876 14.7769 25.3594 17.4269C25.4397 17.8785 25.4683 18.3401 25.5041 18.7984C25.5192 18.9911 25.41 19.1743 25.202 19.1768C24.9872 19.1794 24.8905 18.9996 24.8765 18.807C24.8489 18.4256 24.8297 18.0424 24.7772 17.6643C24.4997 15.6675 22.9076 14.0155 20.92 13.6611C20.6209 13.6077 20.315 13.5937 20.0119 13.5619C19.8204 13.5418 19.5697 13.5303 19.5272 13.2922C19.4917 13.0925 19.6601 12.9336 19.8502 12.9234C19.9017 12.9204 19.9536 12.9228 20.0055 12.9229C22.6861 12.9981 19.9536 12.9228 20.0055 12.9229Z" fill="white"/>
<path d="M24.079 18.2044C24.0746 18.2379 24.0723 18.3166 24.0526 18.3906C23.9815 18.6597 23.5734 18.6934 23.4796 18.4219C23.4517 18.3413 23.4475 18.2496 23.4474 18.1629C23.4465 17.5953 23.3231 17.0281 23.0368 16.5341C22.7425 16.0263 22.2928 15.5997 21.7655 15.3413C21.4466 15.1853 21.1018 15.0881 20.7523 15.0304C20.5996 15.0051 20.4452 14.9899 20.2917 14.9685C20.1057 14.9426 20.0063 14.8241 20.0152 14.6408C20.0234 14.4691 20.1489 14.3454 20.3361 14.3561C20.9512 14.391 21.5454 14.5241 22.0924 14.8136C23.2044 15.4026 23.8397 16.3321 24.0252 17.5735C24.0336 17.6298 24.047 17.6854 24.0513 17.7418C24.0618 17.881 24.0684 18.0205 24.079 18.2044C24.0746 18.2378 24.0684 18.0205 24.079 18.2044Z" fill="white"/>
<path d="M22.4118 18.1399C22.1876 18.144 22.0676 18.0198 22.0444 17.8143C22.0284 17.671 22.0156 17.5257 21.9814 17.3862C21.914 17.1114 21.768 16.8569 21.5369 16.6885C21.4279 16.6091 21.3042 16.5512 21.1747 16.5137C21.0103 16.4661 20.8393 16.4792 20.6753 16.4391C20.4971 16.3954 20.3986 16.251 20.4266 16.0839C20.4521 15.9317 20.6 15.813 20.7664 15.8251C21.8056 15.9001 22.5483 16.4373 22.6543 17.6608C22.6619 17.7471 22.6707 17.8383 22.6515 17.921C22.6186 18.0622 22.5139 18.133 22.4118 18.1399C22.1875 18.1439 22.5139 18.133 22.4118 18.1399Z" fill="white"/>
<path d="M23.1615 24.5567C23.3557 24.4969 22.938 24.4888 23.1615 24.5567V24.5567Z" fill="white"/>
<path d="M20.0054 12.9238C20.0076 12.9238 20.0098 12.9241 20.0121 12.9241C20.1608 12.9294 22.5802 12.996 20.0054 12.9238Z" fill="white"/>
<path d="M24.0791 18.2047C24.0685 18.0208 24.0747 18.2381 24.0791 18.2047V18.2047Z" fill="white"/>
<path d="M22.412 18.1401C22.4155 18.1399 22.4188 18.1381 22.4222 18.1377C22.4128 18.1377 22.3982 18.1379 22.3833 18.1385C22.393 18.1387 22.4018 18.1402 22.412 18.1401Z" fill="white"/>
<path d="M22.4121 18.1403C22.402 18.1405 22.3931 18.139 22.3834 18.1387C22.3348 18.14 22.2848 18.1426 22.4121 18.1403Z" fill="white"/>
<path d="M22.4223 18.1377C22.4188 18.1381 22.4155 18.1399 22.4121 18.1401C22.4383 18.1383 22.4361 18.1377 22.4223 18.1377Z" fill="white"/>
</svg>
