<svg width="40" height="40" viewBox="0 0 40 40" fill="none" xmlns="http://www.w3.org/2000/svg">
<path d="M20.0001 39.9993C31.0454 39.9993 39.9993 31.0453 39.9993 20.0001C39.9993 8.9549 31.0454 0.000976562 20.0001 0.000976562C8.9549 0.000976562 0.000976562 8.9549 0.000976562 20.0001C0.000976562 31.0453 8.9549 39.9993 20.0001 39.9993Z" fill="#F3F2F2"/>
<path d="M14.8101 23.8373L16.3404 14.8008H18.818L17.2877 23.8373H14.8101Z" fill="#293688"/>
<path d="M26.1085 15.0345C25.6175 14.8514 24.8482 14.6553 23.8876 14.6553C21.4389 14.6553 19.7141 15.8812 19.6993 17.6376C19.6857 18.9357 20.9305 19.6598 21.8709 20.0924C22.8353 20.5345 23.1597 20.8182 23.1549 21.2132C23.1489 21.8189 22.3844 22.0958 21.672 22.0958C20.6805 22.0955 20.1534 21.9588 19.3396 21.6215L19.0203 21.4775L18.6724 23.5005C19.2512 23.7528 20.3217 23.9717 21.4329 23.9827C24.0372 23.9821 25.7286 22.7714 25.7476 20.8953C25.757 19.8674 25.0967 19.0852 23.6671 18.4401C22.8009 18.0226 22.2704 17.7437 22.2761 17.32C22.2761 16.9445 22.7254 16.5429 23.6952 16.5429C24.5055 16.5302 25.0926 16.7058 25.5502 16.889L25.7719 16.9932L26.1085 15.0345Z" fill="#293688"/>
<path d="M30.3323 14.8008C29.7387 14.8008 29.3098 14.9821 29.0489 15.5704L25.377 23.8376H28.0002L28.5102 22.4529H31.6444L31.9356 23.8376H34.2677L32.2274 14.801H30.3324L30.3323 14.8008ZM29.2062 20.6447C29.4109 20.1243 30.1931 18.119 30.1931 18.119C30.1789 18.1427 30.3967 17.5961 30.5218 17.2569L30.6895 18.0356C30.6895 18.0356 31.1634 20.1928 31.2629 20.645H29.2062V20.6447Z" fill="#293688"/>
<path d="M10.292 20.9952L10.0737 19.7564C9.62154 18.3123 8.21813 16.7498 6.64551 15.967L8.83455 23.8373H11.4584L15.3934 14.8008H12.7702L10.292 20.9952Z" fill="#293688"/>
<path d="M3.95215 14.8008V14.9467C7.0611 15.6944 9.2195 17.5848 10.074 19.7565L9.17562 15.572C9.02565 15.0001 8.57118 14.8207 8.03341 14.8009L3.95215 14.8008Z" fill="#F7981D"/>
<path d="M19.9991 40.0001C27.7182 40.0001 34.4112 35.6245 37.745 29.2207H2.25342C5.58745 35.6245 12.2803 40.0001 19.9991 40.0001Z" fill="#F7981D"/>
<path d="M19.999 0C12.4024 0 5.79519 4.2353 2.40967 10.4737H37.589C34.2031 4.23564 27.5956 0 19.999 0Z" fill="#293688"/>
</svg>
