<svg width="40" height="40" viewBox="0 0 40 40" fill="none" xmlns="http://www.w3.org/2000/svg">
<path d="M20 40C31.0457 40 40 31.0457 40 20C40 8.9543 31.0457 0 20 0C8.9543 0 0 8.9543 0 20C0 31.0457 8.9543 40 20 40Z" fill="#75B73B"/>
<path d="M19.4405 8.47234C13.3445 8.76234 8.53394 13.8392 8.5523 19.9419C8.55792 21.8007 9.00667 23.5552 9.79839 25.1056L8.583 31.0052C8.5173 31.3244 8.80511 31.6038 9.12214 31.5287L14.903 30.1591C16.3882 30.8991 18.0564 31.3262 19.8219 31.3532C26.0526 31.4484 31.2478 26.5012 31.4422 20.2728C31.6502 13.5964 26.14 8.1532 19.4405 8.47234ZM26.3384 26.2449C24.6455 27.9378 22.3944 28.8702 20.0001 28.8702C18.5982 28.8702 17.2559 28.5556 16.0106 27.9354L15.2057 27.5343L11.6612 28.3739L12.4072 24.7523L12.0107 23.9755C11.3642 22.7094 11.0364 21.3405 11.0364 19.9065C11.0364 17.5121 11.9688 15.2612 13.6617 13.5682C15.3395 11.8902 17.6272 10.9429 20.0003 10.9429C22.3943 10.9429 24.6454 11.8753 26.3383 13.5682C28.0312 15.2611 28.9636 17.5122 28.9636 19.9062C28.9638 22.2794 28.0163 24.567 26.3384 26.2449Z" fill="white"/>
<path d="M25.556 22.3892L23.3385 21.7525C23.0472 21.669 22.7331 21.7518 22.5207 21.9682L21.9784 22.5205C21.7498 22.7536 21.4029 22.8284 21.1003 22.706C20.0513 22.2814 17.8446 20.3194 17.2814 19.3383C17.1186 19.0552 17.1456 18.7014 17.3453 18.4429L17.8185 17.8304C18.004 17.5906 18.0431 17.2682 17.9205 16.9908L16.9876 14.8808C16.7642 14.3755 16.1184 14.2283 15.6964 14.5852C15.0776 15.1087 14.3433 15.9039 14.2542 16.7852C14.0967 18.3389 14.7631 20.2972 17.2824 22.6489C20.1931 25.3659 22.5242 25.7246 24.042 25.357C24.9029 25.1486 25.5909 24.3128 26.0248 23.6284C26.321 23.1614 26.0869 22.5418 25.556 22.3892Z" fill="white"/>
</svg>
