<svg width="80" height="80" viewBox="0 0 80 80" fill="none" xmlns="http://www.w3.org/2000/svg">
<circle cx="40" cy="40" r="40" fill="white"/>
<path d="M67.8713 37.8617L67.8392 37.7244C67.3681 35.743 66.1857 33.9709 64.5107 32.7349C62.9426 31.5759 60.9966 30.9375 59.0309 30.9375C58.5908 30.9375 58.1486 30.9689 57.7158 31.0309C56.7082 31.1761 55.6842 31.3107 54.6549 31.4331C55.7327 29.2241 56.2959 26.7898 56.2959 24.2964C56.2959 19.981 54.6262 15.9141 51.5942 12.8451C48.5662 9.7785 44.5213 8.05825 40.2026 8.00125C40.2026 8.00125 40.0862 8 40.0318 8C40.0316 8 40.0313 8 40.0312 8L39.7836 8.00125C35.4749 8.05837 31.4344 9.7785 28.4066 12.8447C25.3737 15.9135 23.7034 19.9804 23.7034 24.2962C23.7034 26.7885 24.2667 29.2228 25.3449 31.433C24.3149 31.3106 23.2899 31.176 22.2814 31.0309C21.8528 30.9689 21.4107 30.9375 20.9673 30.9375C19.0116 30.9375 17.0734 31.5704 15.5101 32.7192C13.8428 33.9431 12.6582 35.699 12.1768 37.6542L12.1631 37.708C12.1601 37.7196 12.1573 37.7312 12.1548 37.7429L12.1242 37.8843C11.9343 38.723 11.8819 39.5814 11.9677 40.4295L11.9714 40.4695C11.9726 40.4818 11.9741 40.4939 11.9757 40.506L11.9832 40.5621C12.0132 40.823 12.0557 41.0783 12.1081 41.3138C12.8499 44.7799 15.7208 47.4676 19.4208 48.1613C20.9754 48.4549 22.5804 48.7209 24.1928 48.9523C24.1671 52.0042 23.4403 55.0585 22.0867 57.796L21.4582 59.068C20.3972 61.2121 20.2351 63.6418 21.0016 65.909C21.7684 68.1775 23.3721 70.0101 25.5163 71.069C26.7644 71.6867 28.0992 72 29.4834 72C32.9171 72 35.9954 70.0881 37.5174 67.0106L39.9996 61.9922L42.4817 67.0105C44.0031 70.0868 47.0818 71.9986 50.5171 72C51.8998 72 53.2344 71.6869 54.4841 71.069C56.6294 70.0075 58.2329 68.175 58.9989 65.9091C59.7063 63.8178 59.6193 61.5519 58.7542 59.5289C58.5506 59.0527 57.9994 58.832 57.5236 59.0355C57.0474 59.2391 56.8267 59.7901 57.0302 60.2661C57.7137 61.8641 57.7821 63.6549 57.2228 65.3085C56.6172 67.1001 55.3492 68.549 53.6529 69.3884C52.6642 69.8771 51.6092 70.125 50.5176 70.125C47.8007 70.1239 45.3657 68.612 44.1626 66.1794L41.3516 60.4963C41.0918 59.9702 40.5864 59.6564 39.9998 59.6564C39.4163 59.6564 38.9117 59.9689 38.6482 60.4958L35.8369 66.1795C34.6332 68.6131 32.1987 70.125 29.4834 70.125C28.3903 70.125 27.3353 69.8773 26.3473 69.3881C24.6518 68.5509 23.3842 67.102 22.7778 65.3085C22.1717 63.5157 22.2999 61.5947 23.1389 59.899L23.7676 58.6268C25.2728 55.5825 26.0684 52.1791 26.0684 48.785C26.0684 47.9673 25.4373 47.2362 24.6302 47.1206C22.9866 46.8874 21.3509 46.6176 19.7674 46.3186C16.8116 45.7645 14.5247 43.646 13.9399 40.914C13.8996 40.7325 13.8676 40.5395 13.8451 40.3406C13.8443 40.3343 13.8436 40.3279 13.8427 40.3216L13.8338 40.247C13.7678 39.5948 13.8079 38.9391 13.9548 38.2896L13.9952 38.1117C14.3739 36.5734 15.3059 35.1951 16.6201 34.2305C17.8643 33.3161 19.4082 32.8126 20.9674 32.8126C21.3214 32.8126 21.6732 32.8375 22.0138 32.8867C23.6362 33.1204 25.2998 33.3266 26.9588 33.5C27.3168 33.5376 27.6652 33.3663 27.8543 33.0596C28.0434 32.753 28.0399 32.365 27.8456 32.0618C26.3627 29.7484 25.5788 27.0631 25.5788 24.2964C25.5788 20.4771 27.0568 16.8784 29.7408 14.1626C32.4204 11.449 35.9959 9.92675 39.8011 9.87637L40.0363 9.87513C40.0789 9.87513 40.1797 9.87625 40.1802 9.87625C44.0009 9.92663 47.5809 11.449 50.2607 14.1627C52.9437 16.8787 54.4214 20.4776 54.4214 24.2964C54.4214 27.0649 53.6376 29.75 52.1548 32.0614C51.9602 32.3646 51.9567 32.7526 52.1457 33.0594C52.3347 33.3661 52.6832 33.5373 53.0412 33.5C54.6999 33.3267 56.3629 33.1204 57.9831 32.8869C58.3272 32.8375 58.6799 32.8126 59.0314 32.8126C60.5987 32.8126 62.1489 33.3205 63.3973 34.2432C64.7171 35.217 65.6469 36.6074 66.0148 38.1546L66.0451 38.284C66.1899 38.9176 66.2322 39.5653 66.1719 40.1968L66.1573 40.3321C66.1363 40.5205 66.1038 40.7181 66.0609 40.9191C65.4783 43.645 63.1896 45.7649 60.2297 46.32C58.6206 46.6222 56.9859 46.8918 55.3698 47.1209C54.5641 47.2364 53.9328 47.9674 53.9328 48.7851C53.9328 51.5049 54.4558 54.2884 55.4452 56.8346C55.6327 57.3172 56.1761 57.5567 56.6586 57.3689C57.1412 57.1814 57.3804 56.6381 57.1928 56.1555C56.3071 53.8757 55.8294 51.3886 55.8084 48.9523C57.3942 48.7249 58.9972 48.4594 60.5756 48.1629C64.2806 47.468 67.1534 44.7785 67.8946 41.3106C67.9503 41.0491 67.9928 40.79 68.0211 40.5373L68.0373 40.3866C68.1172 39.5435 68.0618 38.6954 67.8713 37.8617Z" fill="#FFE000"/>
<path d="M25.6842 61.1578C25.1821 62.1732 25.1051 63.324 25.4676 64.3985C25.8301 65.4718 26.5898 66.3398 27.6055 66.8421C28.196 67.135 28.8277 67.2835 29.4832 67.2835C31.112 67.2835 32.5712 66.3778 33.291 64.9203L36.1023 59.2365C36.8406 57.7435 38.3338 56.816 39.9995 56.816C41.6647 56.816 43.1586 57.7436 43.8978 59.2366L46.7088 64.92C47.429 66.3778 48.8882 67.2835 50.5168 67.2835C51.1707 67.2835 51.8022 67.1351 52.3936 66.8426C53.4093 66.3403 54.1685 65.4723 54.531 64.3993C54.8948 63.3253 54.8185 62.1742 54.3158 61.1578L53.687 59.8865C51.9892 56.456 51.0918 52.6171 51.0918 48.7848C51.0918 46.5461 52.76 44.6216 54.9722 44.3081C56.5561 44.0833 58.1493 43.8207 59.7067 43.5276C61.7857 43.1385 63.0011 41.635 63.283 40.3193C63.3045 40.2198 63.3213 40.1197 63.3328 40.0218C63.3333 40.0175 63.3338 40.0132 63.3342 40.009L63.3411 39.9431C63.3746 39.5996 63.3521 39.2535 63.2751 38.9173L63.2525 38.8173C62.8153 36.9833 61.0397 35.6522 59.0305 35.6522C58.8168 35.6522 58.601 35.6676 58.3882 35.698C56.382 35.9866 54.3518 36.2303 52.3511 36.4231C52.2493 36.4333 52.1406 36.4385 52.028 36.4385C50.767 36.4385 49.6275 35.7353 49.0543 34.6037C48.4865 33.4826 48.596 32.1561 49.3396 31.1427C50.8056 29.149 51.5805 26.7815 51.5805 24.2961C51.5805 21.2292 50.3936 18.3392 48.2388 16.1586C46.0856 13.9782 43.2143 12.7556 40.1571 12.7162C40.1571 12.7162 40.0713 12.7148 40.0356 12.7148C40.0226 12.7148 39.85 12.7161 39.845 12.7161C37.4851 12.7458 35.2262 13.4796 33.313 14.8378C32.8907 15.1375 32.7915 15.7228 33.0912 16.145C33.391 16.5672 33.9762 16.6665 34.3983 16.3667C35.9997 15.23 37.8913 14.616 39.8638 14.591L40.0357 14.5897C40.0622 14.5897 40.1258 14.5908 40.1298 14.5908C42.6942 14.6238 45.1002 15.6485 46.9051 17.4761C48.7111 19.3037 49.7057 21.7257 49.7057 24.296C49.7057 26.379 49.0568 28.3623 47.8286 30.0327C46.6641 31.6198 46.493 33.696 47.3818 35.4508C48.2762 37.2166 50.0565 38.3135 52.0282 38.3135C52.2027 38.3135 52.3742 38.3052 52.5343 38.2892C54.5608 38.0941 56.6203 37.8467 58.6546 37.5541C58.779 37.5363 58.9055 37.5273 59.0307 37.5273C60.182 37.5273 61.1906 38.2527 61.4262 39.241L61.447 39.333C61.4796 39.4751 61.489 39.6192 61.4757 39.7555L61.4703 39.808C61.4657 39.8448 61.4592 39.8835 61.4503 39.9246C61.2982 40.6345 60.5936 41.454 59.3611 41.6847C57.8303 41.9728 56.2652 42.2308 54.7092 42.4516C51.5782 42.8953 49.217 45.618 49.217 48.7848C49.217 52.904 50.1816 57.0305 52.0066 60.718L52.6353 61.9891C52.9157 62.5562 52.9583 63.1985 52.7551 63.7986C52.5527 64.3976 52.1293 64.8818 51.5626 65.162C51.2318 65.3256 50.88 65.4086 50.517 65.4086C49.6068 65.4086 48.7918 64.9032 48.3897 64.0892L45.5783 58.4051C44.5203 56.2685 42.3826 54.9411 39.9995 54.9411C37.6156 54.9411 35.4783 56.2686 34.4216 58.4055L31.6101 64.0897C31.2083 64.9032 30.3933 65.4086 29.4832 65.4086C29.1193 65.4086 28.7678 65.3257 28.4375 65.162C27.87 64.8813 27.4461 64.3972 27.244 63.799C27.0415 63.1988 27.0845 62.5561 27.3647 61.9892L27.9935 60.718C29.8185 57.0278 30.7831 52.9013 30.7831 48.7848C30.7831 45.6182 28.422 42.8956 25.2903 42.4516C23.7545 42.2348 22.1905 41.9768 20.6403 41.6846C19.4068 41.4541 18.7022 40.6385 18.5511 39.9323C18.5498 39.9268 18.5486 39.9213 18.5473 39.9158L18.5457 39.909C18.5391 39.877 18.5325 39.8343 18.5265 39.7866L18.5238 39.765C18.5103 39.6218 18.5201 39.4767 18.5552 39.3237L18.5761 39.2283C18.8248 38.2421 19.8283 37.5275 20.9668 37.5275C21.0927 37.5275 21.2211 37.5366 21.3456 37.5541C23.3766 37.8466 25.4352 38.094 27.4701 38.29C27.6448 38.3057 27.8136 38.3137 27.9718 38.3137C29.9427 38.3137 31.7226 37.2168 32.6172 35.4506C33.5051 33.6947 33.3337 31.6188 32.1698 30.0325C30.9428 28.3623 30.2943 26.3788 30.2943 24.2962C30.2943 22.3131 30.8848 20.41 32.002 18.7928C32.2962 18.3668 32.1895 17.783 31.7635 17.4886C31.3372 17.1942 30.7536 17.3012 30.4592 17.7271C29.125 19.6587 28.4196 21.9303 28.4196 24.296C28.4196 26.7806 29.194 29.148 30.6587 31.1418C31.4022 32.1552 31.5116 33.482 30.9445 34.6037C30.3713 35.7355 29.2323 36.4385 27.9721 36.4385C27.87 36.4385 27.7578 36.4331 27.6445 36.4228C25.6445 36.2302 23.6152 35.9863 21.6103 35.6976C21.3966 35.6675 21.1802 35.6522 20.9672 35.6522C18.9731 35.6522 17.2008 36.9721 16.7531 38.7906C16.7511 38.7986 16.7492 38.8067 16.7475 38.8147L16.726 38.9136C16.6467 39.2588 16.6243 39.6108 16.6593 39.9598C16.66 39.9656 16.6606 39.9712 16.6612 39.977L16.6656 40.0137C16.6796 40.1257 16.6956 40.2226 16.7143 40.3097L16.7177 40.3251L16.7198 40.334C17.0048 41.6457 18.2196 43.1395 20.2946 43.5273C21.8715 43.8246 23.4642 44.0873 25.028 44.3081C27.2401 44.6217 28.9083 46.5463 28.9083 48.7848C28.9083 52.6146 28.0108 56.4536 26.313 59.8867L25.6842 61.1578Z" fill="#FFE000"/>
<path d="M40.0002 36.0015C37.7953 36.0015 36.0015 37.7953 36.0015 40.0002C36.0015 42.2052 37.7953 43.999 40.0002 43.999C42.2052 43.999 43.999 42.2051 43.999 40.0002C43.9991 37.7952 42.2052 36.0015 40.0002 36.0015ZM40.0002 42.124C38.8292 42.124 37.8765 41.1712 37.8765 40.0002C37.8765 38.8292 38.8292 37.8765 40.0002 37.8765C41.1713 37.8765 42.124 38.8292 42.124 40.0002C42.1241 41.1712 41.1713 42.124 40.0002 42.124Z" fill="#FFE000"/>
<path d="M42.124 25.3242C42.124 26.4952 41.1712 27.448 40.0002 27.448C38.8292 27.448 37.8765 26.4952 37.8765 25.3242C37.8765 24.8065 37.4567 24.3867 36.939 24.3867C36.4212 24.3867 36.0015 24.8065 36.0015 25.3242C36.0015 27.5291 37.7953 29.323 40.0002 29.323C42.2052 29.323 43.999 27.5291 43.999 25.3242C43.999 24.8065 43.5792 24.3867 43.0615 24.3867C42.5437 24.3867 42.124 24.8065 42.124 25.3242Z" fill="#FFE000"/>
<path d="M40.0002 45.0015C37.7953 45.0015 36.0015 46.7953 36.0015 49.0002C36.0015 51.2052 37.7953 52.999 40.0002 52.999C42.2052 52.999 43.999 51.2051 43.999 49.0002C43.9991 46.7952 42.2052 45.0015 40.0002 45.0015ZM40.0002 51.124C38.8292 51.124 37.8765 50.1712 37.8765 49.0002C37.8765 47.8292 38.8292 46.8765 40.0002 46.8765C41.1713 46.8765 42.124 47.8292 42.124 49.0002C42.1241 50.1712 41.1713 51.124 40.0002 51.124Z" fill="#FFE000"/>
<path d="M44.5428 23.2268C45.0606 23.2268 45.4803 22.807 45.4803 22.2893V20.9829C45.4803 20.4652 45.0606 20.0454 44.5428 20.0454C44.0251 20.0454 43.6053 20.4652 43.6053 20.9829V22.2893C43.6053 22.807 44.0251 23.2268 44.5428 23.2268Z" fill="#FFE000"/>
<path d="M35.4573 20.0454C34.9395 20.0454 34.5198 20.4652 34.5198 20.9829V22.2893C34.5198 22.807 34.9395 23.2268 35.4573 23.2268C35.975 23.2268 36.3948 22.807 36.3948 22.2893V20.9829C36.3948 20.4652 35.975 20.0454 35.4573 20.0454Z" fill="#FFE000"/>
</svg>
