<svg width="370" height="275" viewBox="0 0 370 275" fill="none" xmlns="http://www.w3.org/2000/svg">
<path d="M370 241.67H0V241.854H370V241.67Z" fill="#D1E3FF"/>
<path d="M299.863 247.279H280.201V247.464H299.863V247.279Z" fill="#D1E3FF"/>
<path d="M329.729 250.97H312.783V251.154H329.729V250.97Z" fill="#D1E3FF"/>
<path d="M182.455 250.424H170.541V250.608H182.455V250.424Z" fill="#D1E3FF"/>
<path d="M166.278 250.424H121.811V250.608H166.278V250.424Z" fill="#D1E3FF"/>
<path d="M103.356 249.257H75.0657V249.441H103.356V249.257Z" fill="#D1E3FF"/>
<path d="M267.769 246.217H203.663V246.401H267.769V246.217Z" fill="#D1E3FF"/>
<path d="M66.6815 249.161H48.0483V249.346H66.6815V249.161Z" fill="#D1E3FF"/>
<path d="M175.38 208.754H32.4934C31.374 208.752 30.3012 208.307 29.5104 207.517C28.7195 206.727 28.2754 205.656 28.2754 204.54V4.21419C28.2754 3.0978 28.7195 2.02702 29.5104 1.23691C30.3012 0.446812 31.374 0.00195516 32.4934 0L175.38 0C176.501 0 177.575 0.443994 178.368 1.23431C179.16 2.02462 179.605 3.09652 179.605 4.21419V204.54C179.605 205.093 179.496 205.641 179.284 206.152C179.071 206.664 178.76 207.128 178.368 207.519C177.975 207.911 177.51 208.221 176.997 208.433C176.484 208.645 175.935 208.754 175.38 208.754ZM32.4934 0.184509C31.4231 0.186464 30.3973 0.611882 29.6412 1.36738C28.8851 2.12288 28.4604 3.14673 28.4604 4.21419V204.54C28.4604 205.607 28.8851 206.631 29.6412 207.386C30.3973 208.142 31.4231 208.567 32.4934 208.569H175.38C176.451 208.567 177.478 208.142 178.235 207.387C178.992 206.632 179.418 205.608 179.42 204.54V4.21419C179.418 3.14605 178.992 2.12222 178.235 1.36693C177.478 0.611641 176.451 0.18646 175.38 0.184509H32.4934Z" fill="#D1E3FF"/>
<path d="M335.449 208.754H192.555C191.435 208.752 190.362 208.307 189.57 207.517C188.778 206.727 188.332 205.657 188.33 204.54V4.21419C188.332 3.09712 188.778 2.02636 189.57 1.23646C190.362 0.446572 191.435 0.00195123 192.555 0L335.449 0C336.568 0.00390585 337.638 0.449623 338.428 1.23951C339.217 2.02941 339.66 3.09907 339.66 4.21419V204.54C339.66 205.655 339.217 206.724 338.428 207.514C337.638 208.304 336.568 208.75 335.449 208.754ZM192.555 0.184509C191.484 0.18646 190.458 0.611641 189.701 1.36693C188.943 2.12222 188.517 3.14605 188.515 4.21419V204.54C188.517 205.608 188.943 206.632 189.701 207.387C190.458 208.142 191.484 208.567 192.555 208.569H335.449C336.52 208.567 337.547 208.142 338.304 207.387C339.062 206.632 339.488 205.608 339.49 204.54V4.21419C339.488 3.14605 339.062 2.12222 338.304 1.36693C337.547 0.611641 336.52 0.18646 335.449 0.184509H192.555Z" fill="#D1E3FF"/>
<path d="M232.286 241.67H246.568V148.817H232.286V241.67Z" fill="#E3EEFF"/>
<path d="M238.478 214.487L240.693 213.427L221.707 173.994L219.493 175.055L238.478 214.487Z" fill="#E3EEFF"/>
<path d="M233.781 179.542C233.781 179.542 236.4 192.399 250.349 188.605C256.447 186.952 257.749 182.384 257.468 178.014C263.107 182.022 271.587 185.277 270.788 167.719C270.788 167.719 288.955 181.527 295.045 161.674C301.136 141.821 284.826 139.954 284.826 139.954C284.826 139.954 307.766 121.053 299.937 105.561C291.479 88.8743 276.76 97.5019 276.76 97.5019C276.76 97.5019 279.801 75.3608 263.396 76.3276C261.326 76.4555 259.375 77.3351 257.912 78.8001C252.296 75.8479 245.206 84.911 245.206 84.911C245.206 84.911 243.793 73.774 232.626 77.7963C227.75 79.5529 226.477 83.6268 226.492 87.4351C222.266 84.2099 215.762 81.7744 215.525 97.1255C215.525 97.1255 201.939 85.9369 196.152 103.642C190.365 121.348 203.093 122.167 203.093 122.167C203.093 122.167 184.105 139.88 189.484 153.069C195.271 167.269 207.244 158.973 207.244 158.973C207.244 158.973 204.321 175.35 213.756 176.841C213.441 178.484 213.635 180.183 214.313 181.713C214.992 183.243 216.122 184.53 217.553 185.402C225.086 189.801 233.781 179.542 233.781 179.542Z" fill="#E3EEFF"/>
<path d="M318.903 151.268V241.67H54.168V150.943L168.18 135.548L318.903 151.268Z" fill="#F3F8FF"/>
<path d="M168.18 135.548L54.168 150.943V241.67H168.18V135.548Z" fill="#E3EEFF"/>
<path d="M180.153 241.663H234.528V172.118H180.153V241.663Z" fill="#D1E3FF"/>
<path d="M231.96 241.67V174.472H182.721V241.67H231.96Z" fill="#E3EEFF"/>
<path d="M207.548 241.67V174.472H207.133V241.67H207.548Z" fill="#D1E3FF"/>
<path d="M329.159 154.56L168.209 137.777L43.9781 154.553L43.3787 150.161L168.143 133.319L168.409 133.341L329.625 150.154L329.159 154.56Z" fill="#D1E3FF"/>
<path d="M317.682 49.1234C321.974 39.8684 318.57 33.2852 308.062 33.2852C301.483 33.2852 293.321 35.8757 285.381 40.0972C284.478 37.6912 281.955 36.2521 277.885 36.2521C270.729 36.2521 260.865 40.6803 253.124 46.9905C251.252 45.5882 248.544 44.7321 245.058 44.5919C238.206 44.3114 229.911 46.8724 222.703 51.035C221.847 50.2302 220.705 49.7975 219.528 49.8319C215.577 49.6696 210.234 52.2527 207.577 55.6034C207.415 55.8101 207.267 56.0167 207.119 56.216H323.003C326.673 52.9391 322.64 49.2858 317.682 49.1234Z" fill="#F3F8FF"/>
<path d="M154.482 24.4064C154.19 24.3743 153.896 24.357 153.602 24.3547C153.875 21.3362 152.307 19.4025 148.947 19.4025C146.52 19.4025 143.56 20.4136 140.526 22.1406C141.392 16.2363 138.617 12.4502 132.334 12.4502C127.258 12.4502 120.842 14.93 114.5 18.9818C113.945 16.6791 112.08 15.2916 108.943 15.2916C103.43 15.2916 95.6227 19.5575 89.3105 25.5725C87.9489 24.2366 85.9139 23.4027 83.2351 23.2698C77.9811 22.9967 71.4617 25.4839 65.6823 29.4472C65.4095 29.0759 65.0498 28.7768 64.6344 28.5761C64.219 28.3754 63.7607 28.2792 63.2995 28.2959C60.4283 28.1482 56.4693 30.355 54.1753 33.2997H159.1C161.564 28.8199 159.603 24.9083 154.482 24.4064Z" fill="#F3F8FF"/>
<path d="M48.1 241.67H36.8446C36.8446 241.67 29.9108 235.523 27.6538 227.279C26.6178 223.478 31.7312 220.858 34.8244 223.588C42.0764 229.928 48.1 241.67 48.1 241.67Z" fill="#F3F8FF"/>
<path d="M52.8507 241.67H41.5879C41.5879 241.67 35.1425 228.474 37.6363 218.865C37.8233 218.104 38.2157 217.409 38.7707 216.855C39.3258 216.301 40.0225 215.909 40.7851 215.722C41.5476 215.535 42.347 215.559 43.0965 215.793C43.8459 216.027 44.5168 216.462 45.0363 217.049C53.5315 226.4 52.8507 241.67 52.8507 241.67Z" fill="#F3F8FF"/>
<path d="M52.8657 241.67H60.1399C60.1399 241.67 64.6983 233.648 69.0199 223.788C73.0159 214.599 66.2079 210.761 61.9307 219.795C56.4547 231.286 52.8657 241.67 52.8657 241.67Z" fill="#F3F8FF"/>
<path d="M54.8562 241.67H66.119C66.119 241.67 77.4632 236.312 76.8268 226.171C76.664 223.521 73.6226 221.794 70.9068 222.82C58.8448 227.463 54.8562 241.67 54.8562 241.67Z" fill="#F3F8FF"/>
<path d="M48.5292 241.67H59.7994C59.7994 241.67 63.2034 222.924 59.163 211.123C57.9568 207.595 53.6722 206.975 51.6964 210.046C44.3556 221.411 48.5292 241.67 48.5292 241.67Z" fill="#F3F8FF"/>
<path d="M140.8 160.723H81.5481V221.323H140.8V160.723Z" fill="#D1E3FF"/>
<path d="M138.017 218.201V163.837H84.3303V218.201H138.017Z" fill="#F5FCFF"/>
<path d="M139.645 188.93H82.6951V193.114H139.645V188.93Z" fill="#D1E3FF"/>
<path d="M113.272 220.223V161.822H109.076V220.223H113.272Z" fill="#D1E3FF"/>
<path d="M318.903 221.323H251.711V161.822H318.903" fill="#D1E3FF"/>
<path d="M318.903 218.26V164.885H254.442V218.26H318.903Z" fill="#F5FCFF"/>
<path d="M215.357 158.194C216.406 153.784 213.672 149.361 209.251 148.314C204.829 147.268 200.393 149.994 199.344 154.404C198.295 158.815 201.029 163.238 205.451 164.285C209.872 165.331 214.308 162.605 215.357 158.194Z" fill="white"/>
<path d="M245.303 239.567H127.768V241.671H245.303V239.567Z" fill="#D1E3FF"/>
<path d="M185 275C264.241 275 328.479 271.26 328.479 266.646C328.479 262.031 264.241 258.291 185 258.291C105.759 258.291 41.5215 262.031 41.5215 266.646C41.5215 271.26 105.759 275 185 275Z" fill="#F0F6FF"/>
<path d="M117.364 87.1401C117.238 89.2435 116.994 91.1772 116.72 93.1772C116.446 95.1773 116.069 97.1257 115.647 99.0815C114.821 103.058 113.627 106.949 112.08 110.706L111.444 112.123L111.281 112.477L111.2 112.654C111.2 112.706 111.155 112.757 111.096 112.875C110.873 113.326 110.592 113.745 110.26 114.123C109.869 114.568 109.4 114.938 108.876 115.215C108.36 115.488 107.798 115.663 107.219 115.732C106.341 115.829 105.453 115.738 104.614 115.466C103.437 115.065 102.327 114.49 101.321 113.761C100.447 113.143 99.6119 112.473 98.8196 111.754C95.8653 109.005 93.2112 105.952 90.9016 102.646L93.3584 100.58C94.7274 101.864 96.163 103.163 97.5912 104.395C98.9893 105.627 100.449 106.787 101.965 107.872C102.675 108.389 103.416 108.862 104.185 109.289C104.788 109.658 105.444 109.934 106.131 110.108C106.36 110.159 106.508 110.108 106.405 110.108C106.203 110.129 106.013 110.214 105.864 110.351C105.813 110.403 105.805 110.41 105.813 110.351L106.035 109.776L106.516 108.506C107.724 105.004 108.668 101.417 109.342 97.7752C109.712 95.9375 109.971 94.085 110.253 92.2252C110.534 90.3653 110.726 88.4538 110.889 86.6973L117.364 87.1401Z" fill="#FFC3BD"/>
<path d="M112.946 79.4205C110.327 80.0847 108.506 90.8232 108.506 90.8232L115.714 95.7164C115.714 95.7164 122.618 84.8746 120.62 82.011C118.511 79.022 116.757 78.4537 112.946 79.4205Z" fill="#0053CC"/>
<path d="M113.176 81.8184L111.17 92.6454L115.218 95.3835L113.176 81.8184Z" fill="#004DAA"/>
<path d="M93.4325 100.196L89.9989 94.7939L88.0601 100.927C88.0601 100.927 90.8721 103.879 93.4177 103.141L93.4325 100.196Z" fill="#FFC3BD"/>
<path d="M84.9743 93L83.6201 98.2327L88.0527 100.927L89.9989 94.7934L84.9743 93Z" fill="#FFC3BD"/>
<path d="M127.102 260.18H120.753L120.324 245.516H126.673L127.102 260.18Z" fill="#FFC3BD"/>
<path d="M183.12 230.762L178.281 234.865L167.21 225.005L172.05 220.909L183.12 230.762Z" fill="#FFC3BD"/>
<path d="M176.956 234.371L181.648 229.013C181.728 228.921 181.839 228.861 181.959 228.843C182.08 228.826 182.203 228.852 182.307 228.917L187.094 232.009C187.208 232.091 187.303 232.196 187.374 232.316C187.445 232.436 187.491 232.57 187.507 232.709C187.524 232.847 187.512 232.988 187.471 233.122C187.431 233.255 187.363 233.379 187.272 233.485C185.607 235.331 184.712 236.135 182.647 238.489C181.374 239.965 179.687 242.18 177.918 244.187C176.15 246.194 174.085 244.563 174.64 243.574C177.104 239.146 176.512 237.582 176.549 235.397C176.567 235.019 176.71 234.659 176.956 234.371Z" fill="#14365B"/>
<path d="M120.531 259.442H127.665C127.788 259.441 127.908 259.485 128.002 259.565C128.096 259.645 128.158 259.756 128.175 259.878L128.982 265.502C128.999 265.644 128.985 265.788 128.942 265.925C128.898 266.062 128.826 266.188 128.73 266.294C128.635 266.401 128.517 266.486 128.386 266.544C128.254 266.602 128.112 266.632 127.968 266.631C125.482 266.587 124.268 266.439 121.145 266.439C119.214 266.439 115.225 266.646 112.562 266.646C109.898 266.646 109.75 264.011 110.86 263.775C115.84 262.712 117.793 261.236 119.473 259.834C119.77 259.585 120.144 259.447 120.531 259.442Z" fill="#14365B"/>
<path d="M120.324 245.516L120.546 253.073H126.895L126.681 245.516H120.324Z" fill="#F29994"/>
<path d="M172.05 220.909L167.21 225.013L172.923 230.09L177.763 225.987L172.05 220.909Z" fill="#F29994"/>
<path d="M117.497 50.8359C121.782 44.4814 132.053 42.3707 138.447 48.0683C146.587 55.3232 141.651 69.5452 154.164 65.7812C166.678 62.0172 178.399 62.9102 178.466 69.3681C178.532 75.8259 186.177 67.6337 195.175 74.2612C213.394 87.6714 199.46 122.16 183.439 108.949C172.931 100.307 169.253 96.609 164.014 103.185C158.774 109.761 140.119 106.668 138.447 98.3655C136.774 90.0626 124.875 94.1218 118.4 86.8595C111.925 79.5972 108.358 64.3789 117.497 50.8359Z" fill="#0F264C"/>
<path d="M112.946 79.4205C112.946 79.4205 109.92 80.4832 115.98 117.636H141.762C141.325 107.171 141.318 100.72 146.335 79.2581C142.725 78.502 139.065 78.0086 135.383 77.782C131.486 77.505 127.573 77.505 123.676 77.782C118.644 78.2322 112.946 79.4205 112.946 79.4205Z" fill="#0053CC"/>
<path d="M134.221 64.6523C133.481 68.409 132.741 75.2948 135.383 77.7968C135.383 77.7968 134.354 81.6124 127.354 81.6124C119.658 81.6124 123.654 77.7968 123.654 77.7968C127.85 76.8004 127.746 73.6933 127.014 70.7707L134.221 64.6523Z" fill="#FFC3BD"/>
<path d="M131.291 67.1611L127.036 70.7849C127.22 71.4611 127.342 72.1529 127.398 72.8514C129.004 72.6226 131.209 70.8661 131.38 69.1612C131.47 68.4946 131.44 67.8172 131.291 67.1611Z" fill="#F29994"/>
<path d="M138.195 57.7582C136.715 63.8692 136.227 66.4818 132.534 69.1019C126.984 73.0651 119.784 69.8916 119.399 63.4706C119.051 57.6844 121.53 48.6656 128.027 47.2781C129.459 46.965 130.946 47.0221 132.349 47.4442C133.752 47.8662 135.024 48.6391 136.043 49.6894C137.061 50.7396 137.794 52.0323 138.171 53.4446C138.548 54.8569 138.556 56.3418 138.195 57.7582Z" fill="#FFC3BD"/>
<path d="M115.98 117.636C115.98 117.636 110.971 166.413 111.385 185.72C111.822 205.809 119.199 251.612 119.199 251.612H127.783C127.783 251.612 126.422 206.983 127.184 187.255C128.013 165.748 134.858 117.636 134.858 117.636H115.98Z" fill="#19437F"/>
<path d="M128.523 251.922H118.452L117.712 248.719L128.997 248.32L128.523 251.922Z" fill="#4EA4F9"/>
<path d="M127.095 129.769C120.768 142.478 125.83 165.659 128.065 174.28C129.219 161.327 131.15 145.496 132.66 133.872C131.72 127.296 130.018 123.916 127.095 129.769Z" fill="#133A68"/>
<path d="M122.788 117.636C122.788 117.636 128.627 168.346 133.037 184.627C138.277 203.949 170.777 229.965 170.777 229.965L177.371 224.371C177.371 224.371 153.794 196.119 149.791 185.934C141.244 164.206 148.563 131.821 141.732 117.636H122.788Z" fill="#19437F"/>
<path d="M178.458 224.075L170.267 231.005L167.21 229.183L176.468 220.592L178.458 224.075Z" fill="#4EA4F9"/>
<path d="M128.488 57.8133C128.577 57.3116 128.381 56.8577 128.051 56.7994C127.721 56.7411 127.382 57.1006 127.293 57.6023C127.204 58.104 127.399 58.558 127.729 58.6162C128.059 58.6745 128.399 58.315 128.488 57.8133Z" fill="#0F264C"/>
<path d="M122.796 56.8285C122.707 57.3304 122.366 57.692 122.056 57.633C121.745 57.5739 121.53 57.1164 121.619 56.6145C121.708 56.1126 122.048 55.751 122.359 55.81C122.67 55.8691 122.884 56.3119 122.796 56.8285Z" fill="#0F264C"/>
<path d="M122.5 55.8548L121.36 55.2939C121.36 55.2939 121.804 56.3493 122.5 55.8548Z" fill="#0F264C"/>
<path d="M124.15 57.9502C123.496 59.0176 122.7 59.991 121.782 60.8433C122.008 61.0704 122.28 61.246 122.58 61.3581C122.88 61.4702 123.201 61.5162 123.521 61.4928L124.15 57.9502Z" fill="#ED847E"/>
<path d="M125.8 63.8619C125.512 63.8614 125.225 63.8367 124.942 63.7881C124.922 63.7845 124.903 63.7771 124.887 63.7662C124.87 63.7553 124.856 63.7412 124.845 63.7246C124.834 63.7081 124.826 63.6895 124.822 63.67C124.819 63.6504 124.819 63.6303 124.823 63.6109C124.831 63.5729 124.852 63.5393 124.884 63.5172C124.916 63.4951 124.955 63.4864 124.994 63.4928C125.619 63.6165 126.265 63.5921 126.879 63.4216C127.493 63.2511 128.059 62.9393 128.531 62.5112C128.544 62.4969 128.56 62.4855 128.578 62.4777C128.596 62.4699 128.615 62.4658 128.634 62.4658C128.654 62.4658 128.673 62.4699 128.691 62.4777C128.709 62.4855 128.725 62.4969 128.738 62.5112C128.752 62.525 128.764 62.5416 128.772 62.56C128.78 62.5784 128.784 62.5982 128.784 62.6183C128.784 62.6383 128.78 62.6581 128.772 62.6765C128.764 62.6949 128.752 62.7115 128.738 62.7253C127.944 63.4704 126.89 63.8781 125.8 63.8619Z" fill="#0F264C"/>
<path d="M128.279 46.7617C125.445 48.378 132.438 63.7366 137.551 61.5815C142.665 59.4264 141.007 50.8578 138.476 48.7028C135.946 46.5477 132.209 44.5107 128.279 46.7617Z" fill="#0F264C"/>
<path d="M126.688 46.0389C126.688 46.0389 123.277 46.5334 120.998 50.7771C118.718 55.0208 131.816 46.6219 129.966 46.0389C128.902 45.685 127.752 45.685 126.688 46.0389Z" fill="#0F264C"/>
<path d="M138.454 62.3644C138.222 62.9198 137.882 63.4241 137.454 63.8483C137.026 64.2726 136.518 64.6085 135.96 64.8368C134.48 65.442 133.54 64.143 133.807 62.6227C134.051 61.2647 135.117 59.3236 136.693 59.3679C137.04 59.3807 137.378 59.4806 137.676 59.6582C137.974 59.8359 138.222 60.0856 138.398 60.3843C138.573 60.683 138.67 61.021 138.68 61.3671C138.69 61.7132 138.612 62.0562 138.454 62.3644Z" fill="#FFC3BD"/>
<path d="M130.055 54.5187C130.015 54.5186 129.974 54.5101 129.938 54.4935C129.901 54.477 129.867 54.4529 129.84 54.4228C129.587 54.1441 129.271 53.9283 128.919 53.7925C128.567 53.6567 128.189 53.6047 127.813 53.6405C127.774 53.6479 127.735 53.6477 127.697 53.6399C127.658 53.632 127.622 53.6167 127.59 53.5947C127.557 53.5728 127.53 53.5446 127.508 53.5119C127.487 53.4792 127.472 53.4427 127.465 53.4043C127.45 53.326 127.466 53.2449 127.51 53.1786C127.555 53.1123 127.624 53.066 127.702 53.05C128.177 52.994 128.658 53.0519 129.106 53.2188C129.554 53.3856 129.955 53.6567 130.277 54.0095C130.332 54.0671 130.363 54.1438 130.363 54.2235C130.363 54.3032 130.332 54.3799 130.277 54.4375C130.216 54.492 130.137 54.5211 130.055 54.5187Z" fill="#0F264C"/>
<path d="M120.724 53.7435C120.685 53.7447 120.647 53.7382 120.612 53.7242C120.576 53.7103 120.544 53.6892 120.516 53.6623C120.462 53.6059 120.431 53.5305 120.431 53.452C120.431 53.3735 120.462 53.2981 120.516 53.2416C120.837 52.8872 121.238 52.6155 121.687 52.4497C122.135 52.2839 122.617 52.2289 123.092 52.2896C123.131 52.2957 123.168 52.3097 123.201 52.3307C123.234 52.3518 123.263 52.3794 123.285 52.4119C123.307 52.4444 123.323 52.4811 123.33 52.5197C123.338 52.5583 123.337 52.5981 123.328 52.6364C123.314 52.7144 123.269 52.7835 123.204 52.8291C123.139 52.8746 123.059 52.8929 122.981 52.88C122.608 52.834 122.23 52.8769 121.878 53.0052C121.525 53.1335 121.208 53.3436 120.953 53.618C120.926 53.6543 120.892 53.6843 120.852 53.706C120.813 53.7277 120.769 53.7405 120.724 53.7435Z" fill="#0F264C"/>
<path d="M149.118 86.0039C150.509 89.3791 151.712 92.8285 152.721 96.3364C153.786 99.8887 154.57 103.519 155.067 107.193C155.163 108.145 155.274 109.082 155.304 110.064V110.802C155.338 111.297 155.301 111.794 155.193 112.278C155.092 112.684 154.93 113.072 154.712 113.429C154.459 113.837 154.13 114.193 153.743 114.477C153.153 114.899 152.46 115.154 151.737 115.215C151.3 115.27 150.857 115.27 150.42 115.215C150.091 115.167 149.765 115.1 149.443 115.016C148.904 114.864 148.375 114.68 147.86 114.463C146.952 114.081 146.069 113.642 145.218 113.149C142.038 111.292 139.038 109.145 136.256 106.735L138.077 104.093C141.192 105.665 144.359 107.304 147.46 108.566C148.2 108.876 149.007 109.156 149.717 109.37C150.034 109.467 150.358 109.541 150.686 109.592C150.799 109.604 150.914 109.604 151.027 109.592C151.101 109.592 151.138 109.592 151.027 109.592C150.756 109.625 150.5 109.732 150.287 109.902C149.925 110.174 149.665 110.558 149.547 110.994C149.473 111.245 149.502 111.451 149.473 111.127L149.406 110.529C149.34 109.739 149.192 108.92 149.058 108.108C148.762 106.477 148.407 104.831 147.956 103.185C147.504 101.54 147.053 99.879 146.542 98.2406C145.484 94.9711 144.322 91.5982 143.109 88.4763L149.118 86.0039Z" fill="#FFC3BD"/>
<path d="M146.335 79.2352C148.918 80.0176 152.018 88.8888 152.018 88.8888L141.999 96.0404C141.999 96.0404 138.343 88.66 139.424 85.3019C140.556 81.8331 143.383 78.3422 146.335 79.2352Z" fill="#0053CC"/>
<path d="M175.225 237.426C175.094 237.424 174.966 237.392 174.849 237.333C174.733 237.274 174.631 237.19 174.551 237.087C174.488 237.022 174.443 236.941 174.423 236.852C174.402 236.764 174.405 236.671 174.433 236.585C174.662 235.81 176.867 235.175 177.119 235.109C177.147 235.1 177.177 235.1 177.205 235.11C177.233 235.119 177.257 235.137 177.274 235.16C177.29 235.185 177.299 235.213 177.299 235.242C177.299 235.271 177.29 235.299 177.274 235.323C176.875 236.061 176.098 237.33 175.291 237.426H175.225ZM176.853 235.5C175.98 235.78 174.84 236.238 174.722 236.673C174.722 236.725 174.722 236.792 174.781 236.887C174.835 236.969 174.91 237.035 174.999 237.076C175.088 237.118 175.186 237.134 175.284 237.124C175.713 237.079 176.29 236.474 176.86 235.5H176.853Z" fill="#9FC6FF"/>
<path d="M176.157 235.53C175.5 235.597 174.841 235.412 174.315 235.013C174.24 234.921 174.199 234.807 174.199 234.689C174.199 234.57 174.24 234.456 174.315 234.364C174.376 234.266 174.459 234.183 174.558 234.123C174.657 234.063 174.769 234.026 174.884 234.017C175.795 233.892 177.178 235.087 177.238 235.139C177.259 235.156 177.276 235.178 177.285 235.204C177.294 235.229 177.297 235.257 177.291 235.284C177.286 235.311 177.273 235.335 177.255 235.355C177.236 235.375 177.212 235.39 177.186 235.397C176.851 235.491 176.505 235.536 176.157 235.53ZM175.04 234.305H174.944C174.871 234.312 174.801 234.335 174.739 234.372C174.676 234.409 174.622 234.459 174.581 234.519C174.477 234.681 174.514 234.77 174.581 234.829C174.847 235.176 176.098 235.316 176.86 235.176C176.343 234.727 175.714 234.426 175.04 234.305Z" fill="#9FC6FF"/>
<path d="M118.148 260.527C117.606 260.577 117.062 260.439 116.609 260.136C116.507 260.044 116.428 259.929 116.381 259.801C116.333 259.672 116.317 259.534 116.335 259.398C116.341 259.315 116.368 259.235 116.413 259.165C116.458 259.095 116.521 259.038 116.594 258.999C117.371 258.579 119.902 259.863 120.191 260.018C120.217 260.031 120.239 260.053 120.252 260.08C120.265 260.106 120.27 260.136 120.265 260.165C120.262 260.197 120.249 260.228 120.228 260.252C120.207 260.275 120.178 260.292 120.146 260.298C119.489 260.435 118.82 260.511 118.148 260.527ZM117.016 259.221C116.92 259.216 116.824 259.234 116.735 259.272C116.706 259.289 116.682 259.312 116.666 259.341C116.649 259.369 116.64 259.402 116.639 259.435C116.625 259.522 116.633 259.612 116.663 259.696C116.692 259.78 116.743 259.855 116.809 259.914C117.194 260.261 118.237 260.32 119.651 260.092C118.828 259.661 117.937 259.374 117.016 259.243V259.221Z" fill="#9FC6FF"/>
<path d="M120.117 260.328H120.058C119.318 259.989 117.801 258.623 117.919 257.908C117.919 257.738 118.067 257.524 118.482 257.479C118.631 257.464 118.782 257.479 118.926 257.524C119.07 257.568 119.203 257.641 119.318 257.738C120.117 258.402 120.265 260.107 120.265 260.181C120.269 260.206 120.266 260.232 120.255 260.256C120.245 260.279 120.227 260.299 120.206 260.313C120.179 260.328 120.147 260.333 120.117 260.328ZM118.637 257.76H118.548C118.267 257.76 118.252 257.893 118.245 257.93C118.178 258.358 119.192 259.406 119.962 259.9C119.904 259.182 119.622 258.501 119.155 257.952C119.081 257.885 118.995 257.833 118.901 257.8C118.807 257.767 118.707 257.753 118.607 257.76H118.637Z" fill="#9FC6FF"/>
<path d="M142.147 116.13L142.805 118.433C142.894 118.61 142.687 118.787 142.383 118.787H115.847C115.618 118.787 115.425 118.677 115.41 118.529L115.174 116.226C115.174 116.071 115.359 115.939 115.618 115.939H141.725C141.806 115.931 141.887 115.945 141.961 115.978C142.035 116.012 142.099 116.065 142.147 116.13Z" fill="#9FC6FF"/>
<path d="M138.639 119.038H139.379C139.512 119.038 139.623 118.971 139.616 118.883L139.283 115.886C139.283 115.805 139.15 115.731 139.016 115.731H138.313C138.173 115.731 138.069 115.805 138.077 115.886L138.41 118.883C138.38 118.971 138.498 119.038 138.639 119.038Z" fill="#19437F"/>
<path d="M117.816 119.038H118.511C118.652 119.038 118.763 118.972 118.748 118.883L118.4 115.872C118.4 115.791 118.267 115.717 118.126 115.717H117.431C117.29 115.717 117.187 115.791 117.194 115.872L117.52 118.868C117.557 118.972 117.66 119.038 117.816 119.038Z" fill="#19437F"/>
<path d="M128.227 119.038H128.93C129.063 119.038 129.174 118.972 129.16 118.883L128.834 115.872C128.834 115.791 128.701 115.717 128.56 115.717H127.865C127.724 115.717 127.62 115.791 127.628 115.872L127.953 118.868C127.968 118.972 128.087 119.038 128.227 119.038Z" fill="#19437F"/>
<path d="M138.95 104.742L136.819 98.2402L133.415 103.716C133.415 103.716 135.42 107.259 138.055 107.2L138.95 104.742Z" fill="#FFC3BD"/>
<path d="M134.554 90.7784L132.882 112.351C132.837 112.914 132.57 113.436 132.14 113.804C131.711 114.172 131.153 114.355 130.588 114.314L89.3996 111.148C88.8346 111.101 88.311 110.834 87.9425 110.404C87.574 109.974 87.3902 109.417 87.4312 108.853L89.1036 87.2801C89.1307 86.9932 89.2154 86.7146 89.3527 86.461C89.49 86.2074 89.6771 85.984 89.9028 85.804C90.3207 85.471 90.8493 85.3076 91.3828 85.3464L132.571 88.52C133.109 88.5614 133.611 88.8039 133.977 89.199C134.175 89.4103 134.327 89.6589 134.427 89.9302C134.526 90.2016 134.569 90.49 134.554 90.7784Z" fill="#DCE9FF"/>
<path d="M133.992 89.1775L116.35 101.215C114.714 102.33 112.746 102.855 110.77 102.702C108.794 102.549 106.931 101.727 105.487 100.374L89.9026 85.7825C90.3205 85.4496 90.8491 85.2861 91.3826 85.325L132.571 88.4985C133.114 88.5363 133.622 88.7791 133.992 89.1775Z" fill="#9FC6FF"/>
<path d="M132.386 95.2734L129.789 100.012L133.992 104.573L136.819 98.2403L132.386 95.2734Z" fill="#FFC3BD"/>
<path d="M128.205 56.8661L127.051 56.2979C127.051 56.2979 127.51 57.3532 128.205 56.8661Z" fill="#0F264C"/>
<path d="M246.635 143.954H237.562V266.645H246.635V143.954Z" fill="#9FC6FF"/>
<path d="M237.562 143.954H246.635V153.002L237.562 149.674V143.954Z" fill="#77B3FC"/>
<path d="M227.772 114.514C227.667 108.841 225.334 103.436 221.274 99.4614C217.215 95.4866 211.753 93.2598 206.064 93.2598C200.375 93.2598 194.914 95.4866 190.854 99.4614C186.794 103.436 184.461 108.841 184.356 114.514V143.954H227.772V114.514Z" fill="#0053CC"/>
<path d="M180.242 156.582C177.341 168.538 184.682 178.229 196.699 178.229C208.717 178.229 220.757 168.538 223.658 156.582L226.677 144.131C226.719 143.964 226.721 143.789 226.685 143.62C226.648 143.451 226.574 143.292 226.467 143.156C226.36 143.02 226.223 142.911 226.067 142.835C225.911 142.76 225.74 142.721 225.567 142.722H184.504C184.248 142.723 184 142.809 183.799 142.967C183.598 143.124 183.455 143.345 183.394 143.593L180.242 156.582Z" fill="#77B3FC"/>
<path d="M178.496 156.582C175.595 168.538 182.936 178.229 194.953 178.229C206.971 178.229 219.011 168.538 221.911 156.582L224.96 144.131C225.002 143.964 225.005 143.789 224.968 143.62C224.932 143.451 224.857 143.292 224.75 143.156C224.643 143.02 224.506 142.911 224.351 142.835C224.195 142.76 224.023 142.721 223.85 142.722H182.78C182.524 142.723 182.276 142.809 182.075 142.967C181.874 143.124 181.731 143.345 181.67 143.593L178.496 156.582Z" fill="#9FC6FF"/>
<path d="M278.862 114.514V143.954H227.802V114.514C227.8 108.773 225.512 103.269 221.442 99.2095C217.373 95.1504 211.853 92.8691 206.097 92.8672H257.194C262.95 92.8691 268.47 95.1504 272.539 99.2095C276.609 103.269 278.897 108.773 278.899 114.514H278.862Z" fill="#9FC6FF"/>
<path d="M278.862 114.514V122.389H227.802V114.514C227.812 109.7 226.201 105.022 223.229 101.229H274.325C277.285 105.027 278.882 109.705 278.862 114.514Z" fill="#B6D7FF"/>
<path d="M234.884 126.205V82.6603C234.883 82.2721 234.967 81.8884 235.13 81.5358C235.292 81.1832 235.53 80.8703 235.827 80.6188C236.124 80.3673 236.471 80.1833 236.847 80.0796C237.222 79.9758 237.615 79.9549 237.999 80.0181L248.463 81.7452C248.838 81.8066 249.179 81.9993 249.424 82.2888C249.669 82.5782 249.803 82.9455 249.802 83.3246V86.0184C249.802 86.4431 249.633 86.8505 249.332 87.1508C249.031 87.4512 248.622 87.6199 248.196 87.6199H238.214V126.205C238.214 126.645 238.038 127.067 237.726 127.379C237.414 127.69 236.99 127.865 236.549 127.865C236.33 127.866 236.113 127.824 235.91 127.741C235.708 127.658 235.524 127.535 235.369 127.381C235.214 127.227 235.092 127.043 235.008 126.841C234.925 126.639 234.883 126.423 234.884 126.205Z" fill="#0053CC"/>
<path d="M206.061 98.6164V120.256C206.059 120.819 205.834 121.36 205.435 121.759C205.036 122.158 204.495 122.385 203.929 122.389H162.615C162.05 122.385 161.509 122.158 161.11 121.759C160.711 121.36 160.486 120.819 160.484 120.256V98.6164C160.483 98.3229 160.544 98.0325 160.661 97.7632C160.778 97.494 160.949 97.2518 161.165 97.0517C161.568 96.6827 162.097 96.4797 162.645 96.4834H203.959C204.507 96.4797 205.035 96.6827 205.439 97.0517C205.644 97.2569 205.804 97.5013 205.911 97.7703C206.018 98.0393 206.069 98.3272 206.061 98.6164Z" fill="#DCE9FF"/>
<path d="M205.38 97.0517L188.7 110.41C187.154 111.646 185.231 112.319 183.25 112.319C181.269 112.319 179.346 111.646 177.8 110.41L161.143 97.0517C161.546 96.6827 162.075 96.4797 162.623 96.4834H203.937C204.472 96.4889 204.986 96.6913 205.38 97.0517Z" fill="#9FC6FF"/>
<path d="M174.403 131.112V152.774C174.401 153.337 174.176 153.876 173.777 154.275C173.378 154.673 172.837 154.897 172.272 154.899H130.98C130.415 154.897 129.875 154.673 129.475 154.275C129.076 153.876 128.851 153.337 128.849 152.774V131.112C128.851 130.549 129.076 130.008 129.475 129.609C129.874 129.21 130.415 128.983 130.98 128.979H172.272C172.837 128.983 173.378 129.21 173.777 129.609C174.176 130.008 174.401 130.549 174.403 131.112Z" fill="#DCE9FF"/>
<path d="M173.722 129.555L157.065 142.906C155.52 144.146 153.597 144.821 151.615 144.821C149.632 144.821 147.709 144.146 146.165 142.906L129.5 129.555C129.901 129.181 130.431 128.975 130.98 128.98H172.272C172.812 128.979 173.331 129.185 173.722 129.555Z" fill="#9FC6FF"/>
<path d="M227.772 114.883V140.788H212.336C211.769 140.786 211.226 140.561 210.826 140.161C210.425 139.761 210.199 139.22 210.197 138.655V117.016C210.201 116.451 210.427 115.911 210.828 115.512C211.228 115.113 211.77 114.887 212.336 114.883H227.772Z" fill="#DCE9FF"/>
<path d="M227.772 114.883V128.98C227.693 128.927 227.616 128.87 227.543 128.81L210.9 115.459C211.299 115.082 211.83 114.875 212.38 114.883H227.772Z" fill="#9FC6FF"/>
<g style="mix-blend-mode:multiply">
<path d="M227.765 114.883H224.383V140.788H227.765V114.883Z" fill="#B6D7FF"/>
</g>
</svg>
