<svg width="249" height="117" viewBox="0 0 249 117" fill="none" xmlns="http://www.w3.org/2000/svg">
<path d="M10.9484 116.676C10.9484 116.676 -12.4169 77.7571 17.4523 49.2246C47.3214 20.6922 73.0162 36.5011 86.0513 35.7048C99.0865 34.9085 103.266 9.9235 141.828 2.38179C180.389 -5.15992 242.613 3.15448 208.643 56.6583C188.465 88.4377 250.45 73.9281 241.76 116.755L10.9484 116.676Z" fill="#D3D9ED"/>
<path d="M60.7686 38.3536C60.7686 38.3536 60.8813 37.658 60.9152 37.1859C60.9491 36.7137 60.7778 36.2634 60.6532 35.8739C60.5286 35.4843 61.1708 35.0322 61.1708 34.7661C61.1708 34.5001 60.8401 34.4175 60.3848 34.5609C59.9295 34.7044 58.5839 36.0373 58.9567 36.7346C59.3295 37.432 59.4404 38.5442 59.4404 38.5442C59.2993 39.4577 58.1451 46.9349 57.7228 49.1495C57.0816 52.5308 51.3555 53.4443 51.3555 53.4443L54.1375 57.3277C54.1375 57.3277 59.925 51.789 60.7054 49.8505C61.2853 48.4086 60.8218 39.3269 60.7695 38.3536H60.7686Z" fill="#D9935C"/>
<path d="M26.2102 59.9957C26.2102 59.9957 29.3751 61.217 32.224 58.0626C32.158 58.1625 30.227 61.1026 28.5745 61.6346C28.787 61.7826 28.9931 61.9379 29.191 62.0977C30.0393 62.776 30.7794 63.5187 31.6103 63.9627C33.6713 65.0623 35.4411 65.5689 36.9315 65.6261C38.3422 64.9996 39.1547 63.6467 39.6127 62.4727C39.8335 62.3029 40.0515 62.1322 40.2659 61.966C40.204 63.2658 39.6742 64.5005 38.7727 65.4464C40.8182 64.9252 42.1263 63.368 42.7547 61.4213C42.7932 61.3032 42.828 61.1843 42.861 61.0635C42.8793 60.9981 42.8967 60.9337 42.9123 60.8683C43.0251 60.414 43.1041 59.9521 43.1486 59.4863C43.3038 57.8156 43.0762 56.1318 42.4827 54.5605C42.4561 54.4897 42.4286 54.4207 42.4011 54.3517V54.3435C42.1696 53.7719 41.8815 53.2244 41.541 52.7092C40.93 51.7885 40.8228 50.579 40.9639 49.3496C41.2698 46.6702 42.7575 43.9099 42.7575 43.9099C42.5539 43.6117 42.3125 43.3408 42.0393 43.1036C41.094 42.2555 39.1666 41.1178 35.9596 41.7044C31.0808 42.5969 29.3925 46.0391 29.9559 50.2821C30.5193 54.5251 30.3892 56.9803 27.1354 58.0908L27.1015 58.1026C26.9156 58.1661 26.7445 58.266 26.5983 58.3964C26.4521 58.5269 26.334 58.6851 26.2508 58.8618C26.1676 59.0384 26.1212 59.2298 26.1142 59.4247C26.1072 59.6195 26.1399 59.8137 26.2102 59.9957Z" fill="#163560"/>
<path d="M36.8135 70.9682C36.8135 70.9682 40.7936 75.4273 42.4562 76.0157C44.1692 76.6204 50.3158 75.7433 50.3158 75.7433C50.3158 75.7433 49.605 70.379 49.7552 68.721C49.9054 67.063 53.6172 61.0031 53.9177 58.4998C54.2181 55.9965 51.3528 53.4469 51.3528 53.4469C51.3528 53.4469 49.4154 53.4469 49.2899 53.2226C49.2337 53.1179 49.1833 53.0126 49.1387 52.9066C48.6386 51.7181 48.83 50.4387 48.83 50.4387L45.1256 50.2871C45.1585 50.7311 45.1851 51.1116 45.2053 51.4412C45.2397 51.9903 45.0888 52.5352 44.7763 52.9899C44.4639 53.4446 44.0076 53.7833 43.4795 53.9526C42.4654 54.2759 41.5924 54.6581 41.5301 54.8942C41.2104 56.0955 44.248 64.3599 43.2037 65.1653C38.8324 68.5321 36.8135 70.9682 36.8135 70.9682Z" fill="#D9935C"/>
<path d="M45.1284 50.2842C45.1284 50.2842 45.3767 52.1002 49.1416 52.9037C48.6414 51.7152 48.8329 50.4358 48.8329 50.4358L45.1284 50.2842Z" fill="#CC7C46"/>
<path d="M50.0372 49.9952C50.0372 49.9952 46.3942 52.6075 44.7875 50.3339C43.1807 48.0603 41.629 46.8663 43.887 45.1021C46.145 43.3379 47.2149 43.8881 47.9368 44.5173C48.6586 45.1466 50.9432 49.257 50.0372 49.9952Z" fill="#D9935C"/>
<path d="M48.2256 49.3387C48.2256 49.3387 48.4683 49.5848 49.1618 49.109C49.1618 49.109 49.7435 48.7104 49.5328 48.4062C49.5328 48.4062 48.81 48.5325 48.2256 49.3387Z" fill="white"/>
<path d="M47.2323 44.0574C47.2323 44.0574 48.6366 41.8782 46.3392 40.736C42.4799 38.8192 42.3306 43.9648 41.1773 44.3234C40.024 44.6821 38.6656 46.9856 40.0625 48.5909C41.4595 50.1963 43.2622 49.8122 43.635 50.6239C44.0079 51.4356 45.2518 51.0407 45.1602 50.7492C45.1263 50.6366 44.825 50.4714 44.6555 50.0483C44.5639 49.814 44.8167 49.5516 44.7233 49.548C43.7972 49.5135 43.243 48.1143 44.2378 48.215C45.2326 48.3158 45.6439 47.3752 45.6018 46.9856C45.5596 46.5961 44.6106 45.6972 45.4927 45.196C46.3749 44.6948 46.7321 44.7266 47.2323 44.0574Z" fill="#163560"/>
<path d="M48.6304 115.399C47.6933 115.218 45.863 113.998 45.863 113.998C45.863 113.998 45.0688 99.8648 46.1562 96.3373C46.7901 94.2734 48.1036 87.5907 49.0875 82.3916C49.7864 78.6933 50.3177 75.7451 50.3177 75.7451H35.957C35.957 75.7451 37.0563 87.4672 39.1567 93.1784C39.6725 94.583 40.0123 95.6853 39.9317 96.0404C38.5815 101.965 44.0016 114.002 44.0016 114.002C43.744 114.742 43.66 115.53 43.7562 116.307H51.4811C51.3299 115.718 49.5684 115.587 48.6304 115.399Z" fill="#D9935C"/>
<path d="M41.533 54.8914C41.533 54.8914 37.0582 60.4056 35.7922 61.0385C34.3522 61.7576 28.6197 62.1508 27.427 62.2252C27.0094 62.0622 26.609 61.8587 26.2316 61.6178C25.6994 61.2618 24.5049 62.2152 24.3501 62.5648C24.1952 62.9144 24.2319 63.184 24.4481 63.2077C24.6643 63.2313 25.0838 62.7591 25.3879 62.8917C25.692 63.0242 26.0429 63.1995 26.4276 63.2131C26.7528 63.2249 27.1604 63.1977 27.2804 63.1895C28.2643 63.411 33.9373 64.6368 36.8136 64.0721C37.638 63.9113 43.835 58.9429 43.835 58.9429L44.4066 53.8936L41.533 54.8914Z" fill="#D9935C"/>
<path d="M37.6867 75.7402C37.6867 75.7402 36.8137 87.524 39.2715 93.4895L49.0858 82.3867C49.7848 78.6885 50.3161 75.7402 50.3161 75.7402H37.6867Z" fill="#CC7B44"/>
<path d="M38.1932 70.2557C36.1028 69.957 34.966 71.6585 34.3871 74.0955C33.9474 75.9451 33.8274 78.2187 33.8531 80.3606C33.8914 82.7357 34.0697 85.1066 34.3871 87.4611C34.3871 87.4611 32.425 85.2302 29.4405 84.7371C21.9749 83.5014 19.344 82.0132 18.9977 81.7989C18.9061 81.5519 18.7825 81.1806 18.6267 80.6521C18.297 79.5307 18.0918 79.0477 16.6115 78.9387C15.1312 78.8298 13.6124 77.1555 13.3138 77.6757C13.0151 78.196 14.7391 80.5005 15.3391 81.0952C15.9391 81.6899 17.7409 83.1 17.7428 83.1018C24.2924 89.1971 36.2265 94.1856 36.2265 94.1856C38.9215 92.9063 48.942 74.8183 48.942 74.8183C48.942 74.8183 44.6467 71.1791 38.1932 70.2557Z" fill="#D9935C"/>
<path d="M33.8529 80.3627C34.2367 79.9578 36.3216 78.3216 44.172 79.3821C44.172 79.3821 39.2401 73.7807 34.3869 74.0958C33.9472 75.9454 33.8272 78.219 33.8529 80.3627Z" fill="#CC7B44"/>
<path d="M39.9316 67.7892C41.1175 68.3866 42.3334 68.9233 43.5747 69.3972C44.706 68.0017 45.284 65.6491 45.132 64.2217C44.8846 61.9409 42.7155 60.7188 42.3967 60.5508C42.8007 60.8695 43.4914 64.7375 43.353 64.9481C43.2202 65.1297 41.2132 66.7596 40.3393 67.4632L39.9316 67.7892Z" fill="#C4453B"/>
<path d="M54.1377 57.3278C54.4125 57.0636 60.2055 51.3878 60.7057 49.8506C60.7048 49.8488 53.2546 54.4967 54.1377 57.3278Z" fill="#C4453B"/>
<path d="M50.175 71.1605C50.175 71.1605 59.2676 79.1009 61.4908 82.8172C61.5494 82.9153 61.4908 83.155 61.4908 83.2603C61.4908 83.2603 59.0972 83.619 57.2221 82.563C55.3469 81.507 54.2981 81.7304 53.023 81.9538C51.7478 82.1771 50.12 82.0282 48.7176 80.6154C47.3151 79.2026 45.2935 79.8472 44.2437 79.8972C43.1939 79.9471 41.9444 79.3524 41.3444 78.6578C40.7444 77.9632 38.7942 77.3203 37.9945 77.7906C37.1948 78.261 35.6953 78.063 34.7453 77.3203C33.7954 76.5776 33.2952 75.2882 31.3954 75.6859C29.4955 76.0836 28.5456 76.0818 27.6955 75.4871C26.8455 74.8923 25.3459 73.879 24.0461 74.2377C22.7462 74.5963 20.7941 72.4571 20.7941 72.4571C20.7941 72.4571 20.7025 72.0585 20.7941 72.0131C22.0912 71.3921 31.9972 67.248 40.335 67.9054C40.3331 67.909 44.5506 70.8963 50.175 71.1605Z" fill="#C65447"/>
<path d="M20.7939 72.0168C20.7939 72.0168 20.8855 72.1203 21.0514 72.2792C21.601 72.8113 22.9091 73.959 23.9094 73.8228C23.9575 73.8158 24.0052 73.8061 24.0523 73.7937C25.3521 73.4369 26.8508 74.4502 27.6999 75.0449C28.5491 75.6397 29.4963 75.6351 31.3998 75.241C31.752 75.1588 32.1169 75.1452 32.4743 75.2011C33.4343 75.3691 33.9097 76.1209 34.5326 76.6911C34.6032 76.7556 34.6746 76.8164 34.7497 76.8727C35.2757 77.268 35.9013 77.5124 36.558 77.5791C37.1076 77.6363 37.6279 77.5619 37.9989 77.343C38.2536 77.1932 38.6255 77.1569 39.034 77.1987C39.8493 77.2822 40.8084 77.6817 41.2627 78.1212C41.2939 78.1502 41.3223 78.1802 41.3488 78.212C41.9488 78.9057 43.1983 79.5004 44.2481 79.4514C44.9974 79.416 46.2405 79.0782 47.4011 79.3987C47.9035 79.5357 48.3597 79.8038 48.722 80.175C49.3375 80.8167 50.1271 81.2682 50.9956 81.4753C51.6619 81.623 52.3514 81.6356 53.0228 81.5125C53.8564 81.3663 54.5938 81.221 55.5281 81.4317C56.1239 81.5777 56.6947 81.8103 57.2219 82.1217C59.097 83.1768 61.4906 82.8182 61.4906 82.8182C59.5779 79.2489 50.1757 70.7175 50.1757 70.7175C44.5504 70.4533 40.333 67.4633 40.333 67.4633C31.3824 66.7596 20.7939 72.0168 20.7939 72.0168Z" fill="#F1A34F"/>
<path d="M50.9955 81.473C51.6618 81.6208 52.3513 81.6334 53.0227 81.5103C53.8563 81.3641 54.5937 81.2188 55.528 81.4295C55.4749 81.3623 51.9839 76.9422 51.5396 77.2228C51.0953 77.5033 50.0364 80.9083 50.9955 81.473Z" fill="#EE9849"/>
<path d="M41.2627 78.1248C41.2938 78.1539 41.3222 78.1838 41.3488 78.2156C41.9488 78.9093 43.1983 79.504 44.2481 79.455C44.9974 79.4196 46.2404 79.0818 47.401 79.4024C47.3736 79.3424 45.569 75.5125 44.6612 75.3782C43.8706 75.2583 41.4752 76.9326 41.2627 78.1248Z" fill="#EE9849"/>
<path d="M21.0493 72.2755C21.5989 72.8076 22.907 73.9553 23.9073 73.8191C23.9541 73.81 23.9989 73.8009 24.0502 73.79C24.1464 73.7492 30.3324 71.1351 30.6503 70.5485C30.9489 70.0056 22.6606 71.5037 21.0493 72.2755Z" fill="#EE9849"/>
<path d="M27.6997 75.0436C28.5498 75.6384 29.4997 75.6384 31.3996 75.2416C31.7517 75.1593 32.1167 75.1458 32.4741 75.2016C32.4741 75.2016 36.1162 73.126 35.955 72.4777C35.7938 71.8294 27.6997 74.5996 27.6997 75.0436Z" fill="#EE9849"/>
<path d="M34.5343 76.6913C34.6048 76.7558 34.6763 76.8166 34.7514 76.8729C35.2774 77.2683 35.903 77.5126 36.5597 77.5793C37.1093 77.6365 37.6296 77.5621 38.0006 77.3432C38.2552 77.1934 38.6272 77.1571 39.0357 77.1989C39.2675 76.9946 41.1957 75.2767 40.8284 74.849C40.4354 74.3978 34.32 76.0621 34.5343 76.6913Z" fill="#EE9849"/>
<path d="M21.6403 115.442C21.9921 115.567 22.4721 115.612 23.029 115.604C20.5136 114.142 12.3115 111.595 16.2138 111.074C19.7909 110.595 22.4776 114.203 23.3707 115.592C23.7774 115.575 24.2153 115.533 24.6706 115.479C21.1127 111.47 10.4226 98.9285 16.2055 99.2472C21.9124 99.5613 24.7246 111.346 25.5252 115.367C25.9365 115.308 26.3542 115.244 26.7655 115.18C26.575 113.897 26.5695 111.729 28.506 111.062C31.1533 110.148 30.492 113.695 29.5411 114.809C30.2217 114.757 30.7521 114.78 31.0141 114.937C31.5531 115.252 31.9554 115.754 32.1436 116.345H16.2651C17.28 115.913 20.019 114.871 21.6403 115.442Z" fill="#82B378"/>
<path d="M231.94 115.236C231.94 115.236 232.534 104.628 235.947 105.004C239.36 105.38 235.947 108.68 234.982 110.633C234.018 112.586 232.979 115.69 232.979 115.69L231.94 115.236Z" fill="#82B378"/>
<path d="M233.909 115.692C233.909 115.692 235.793 109.255 238.306 109.571C240.82 109.887 239.808 111.744 238.031 112.847C236.254 113.95 233.909 115.692 233.909 115.692Z" fill="#82B378"/>
<path d="M239.386 116.346H229.163C228.397 115.934 229.376 114.766 230.403 114.69C230.825 114.66 231.357 114.745 231.968 114.871C232.342 114.95 232.746 115.045 233.173 115.135C233.448 115.196 233.735 115.254 234.029 115.308C234.135 115.328 234.241 115.346 234.35 115.365C235.013 115.478 235.685 115.53 236.358 115.521C238.29 115.478 239.134 116.104 239.386 116.346Z" fill="#82B378"/>
<path d="M110.263 44.9265C110.263 44.9265 116.879 43.4438 118.354 44.6732C119.829 45.9026 122.714 67.479 122.714 67.479C122.714 67.479 118.684 58.815 117.461 54.4949C116.179 49.964 110.263 44.9265 110.263 44.9265Z" fill="#588DDB"/>
<path d="M122.713 67.4778C122.552 67.3044 105.977 49.5687 105.867 47.8654C105.757 46.162 109.818 44.2625 115.245 44.208C115.245 44.208 111.248 47.1063 111.414 48.1123C111.714 49.9147 114.394 51.4383 116.497 56.1298C118.969 61.6449 122.661 67.3961 122.713 67.4778Z" fill="#72A9F7"/>
<path d="M122.708 67.4748C122.617 67.403 121.499 66.5477 119.791 65.3138H119.786C114.656 61.6119 104.213 54.5188 100.121 55.029C98.3599 55.2488 96.5242 55.9316 94.8909 56.8096C91.3999 58.6846 88.835 61.4512 89.9031 62.4954C91.4723 64.029 111.948 61.8544 122.715 67.4811L122.708 67.4748ZM96.0763 60.437C96.0763 60.437 99.5114 58.8843 100.71 58.9842C101.91 59.0841 110.501 60.9999 111.515 61.8444C112.529 62.6888 96.0763 60.437 96.0763 60.437Z" fill="#72A9F7"/>
<path d="M122.714 67.4791C111.947 61.8496 91.4713 64.0288 89.9021 62.4934C88.834 61.4492 91.3989 58.6799 94.8899 56.8076C94.846 56.8503 92.7446 58.9078 94.606 59.3427C96.3226 59.7449 109.237 58.4892 119.786 65.3109H119.791C120.809 65.9689 121.783 66.6907 122.708 67.4719L122.714 67.4791Z" fill="#588DDB"/>
<path d="M122.614 67.4675C122.614 67.4675 127.788 57.3335 127.067 51.7921C127.067 51.7921 125.804 53.1541 125.375 53.3884C125.375 53.3884 124.308 51.8048 124.231 51.5987C124.153 51.3926 124.308 51.8048 124.308 51.8048C124.308 51.8048 122.172 64.227 122.614 67.4675Z" fill="#588DDB"/>
<path d="M122.715 67.4784C122.715 67.4784 127.076 57.6377 137.531 57.6867C137.531 57.6867 135.79 59.2148 135.776 59.8277C135.776 59.8277 137.638 60.3407 138.196 60.4025C138.196 60.4025 128.907 62.1413 123.886 67.6082L122.715 67.4784Z" fill="#72A9F7"/>
<path d="M83.4095 116.499H131.816V70.4343H83.4095V116.499Z" fill="#D86713"/>
<path d="M107.613 116.499H156.019V70.4343H107.613V116.499Z" fill="#F1A34F"/>
<path d="M107.613 70.4336H156.144V85.0803L107.613 116.499V70.4336Z" fill="#EA913D"/>
<path d="M107.613 65.6992H82.3887V73.6859H107.613V65.6992Z" fill="#F4A762"/>
<path d="M157.004 65.6992H107.613V73.6859H157.004V65.6992Z" fill="#FFB871"/>
<path d="M134.898 65.6992H131.156V116.563H134.898V65.6992Z" fill="#72A9F7"/>
<path d="M97.3826 65.6992H93.6406V116.456H97.3826V65.6992Z" fill="#588DDB"/>
<path d="M189.705 81.0832C189.705 81.0832 186.445 80.3523 185.719 80.9579C184.992 81.5635 183.573 92.1933 183.573 92.1933C183.573 92.1933 185.561 87.9257 186.162 85.7965C186.79 83.562 189.705 81.0832 189.705 81.0832Z" fill="#D86713"/>
<path d="M183.573 92.1935C183.653 92.1081 191.818 83.3679 191.874 82.5289C191.931 81.6899 189.928 80.7529 187.253 80.7266C187.253 80.7266 189.223 82.1548 189.141 82.6506C188.993 83.5386 187.675 84.285 186.636 86.6012C185.415 89.3188 183.595 92.1535 183.573 92.1935Z" fill="#F1A34F"/>
<path d="M183.573 92.193C188.879 89.42 198.969 90.4915 199.742 89.736C200.269 89.2221 199.009 87.8583 197.284 86.9349C196.479 86.5027 195.574 86.1658 194.707 86.0578C192.691 85.8063 187.542 89.3011 185.016 91.1252C184.175 91.7327 183.625 92.1549 183.58 92.1903L183.573 92.193ZM189.092 89.4164C189.592 88.9997 193.826 88.0544 194.416 88.0063C195.007 87.9582 196.7 88.7227 196.7 88.7227C196.7 88.7227 188.589 89.8323 189.089 89.4164H189.092Z" fill="#F1A34F"/>
<path d="M183.573 92.1937C188.879 89.4207 198.969 90.4921 199.742 89.7367C200.269 89.2228 199.009 87.859 197.284 86.9355C197.306 86.9564 198.342 87.9697 197.425 88.1849C196.578 88.3829 190.214 87.7636 185.016 91.125C184.514 91.4489 184.035 91.8046 183.58 92.19L183.573 92.1937Z" fill="#D86713"/>
<path d="M183.619 92.1884C183.619 92.1884 181.246 88.7617 181.695 86.8313C181.695 86.8313 182.293 87.2853 182.501 87.357C182.501 87.357 183.05 86.7914 183.091 86.7214C183.133 86.6515 183.049 86.7941 183.049 86.7941C183.049 86.7941 183.889 91.0589 183.619 92.1884Z" fill="#D86713"/>
<path d="M183.573 92.1937C183.573 92.1937 180.132 84.9752 171.694 85.0932C171.694 85.0932 173.088 86.2055 173.093 86.6577C173.093 86.6577 171.586 87.0509 171.135 87.0999C171.135 87.0999 178.618 88.3084 182.627 92.299L183.573 92.1937Z" fill="#F1A34F"/>
<path d="M202.938 93.6494H179.084V116.349H202.938V93.6494Z" fill="#B54139"/>
<path d="M191.012 93.6494H167.158V116.349H191.012V93.6494Z" fill="#E57970"/>
<path d="M191.013 93.6719H167.098V100.889L191.013 116.371V93.6719Z" fill="#D6675C"/>
<path d="M191.011 95.252H203.441V91.3167H191.011V95.252Z" fill="#D35950"/>
<path d="M166.672 95.252H191.011V91.3167H166.672V95.252Z" fill="#E57970"/>
<path d="M177.566 116.381H179.41V91.316H177.566V116.381Z" fill="#FFB871"/>
<path d="M197.897 91.3164H196.053V116.328H197.897V91.3164Z" fill="#EA913D"/>
<path d="M70.9707 88.157C70.9707 88.157 73.5768 87.5732 74.1585 88.0572C74.7402 88.5411 75.8761 97.0462 75.8761 97.0462C75.8761 97.0462 74.2867 93.6331 73.8058 91.9315C73.3011 90.1419 70.9707 88.157 70.9707 88.157Z" fill="#D86713"/>
<path d="M75.8762 97.0428C75.8121 96.9747 69.2807 89.986 69.2386 89.315C69.1965 88.644 70.7959 87.8958 72.933 87.874C72.933 87.874 71.3583 89.0163 71.4243 89.4176C71.5424 90.1267 72.5986 90.7278 73.4267 92.5755C74.4004 94.7447 75.856 97.011 75.8762 97.0428Z" fill="#F1A34F"/>
<path d="M75.8744 97.0414C75.8378 97.0133 75.3972 96.6783 74.7248 96.1907C72.705 94.7324 68.5874 91.9377 66.9761 92.1392C66.2827 92.23 65.559 92.4943 64.9159 92.8402C63.5419 93.5784 62.5342 94.6689 62.951 95.0802C63.5694 95.684 71.6369 94.8269 75.879 97.0442L75.8744 97.0414ZM65.3804 94.2694C65.3804 94.2694 66.7343 93.6574 67.2069 93.6964C67.6796 93.7355 71.0644 94.49 71.4637 94.8232C71.8631 95.1565 65.3804 94.2694 65.3804 94.2694Z" fill="#F1A34F"/>
<path d="M75.8758 97.0428C71.6336 94.8255 63.5661 95.6809 62.9477 95.0789C62.5264 94.6675 63.5377 93.5771 64.9126 92.8389C64.8962 92.8552 64.0681 93.666 64.8009 93.8376C65.4769 93.9956 70.5655 93.5008 74.7225 96.1884C75.1236 96.4475 75.5075 96.7316 75.8721 97.0392L75.8758 97.0428Z" fill="#D86713"/>
<path d="M75.8365 97.0397C75.8365 97.0397 77.7346 94.2994 77.3783 92.7549C77.3783 92.7549 76.901 93.1181 76.737 93.1744C76.737 93.1744 76.2973 92.7204 76.2644 92.6641L76.2973 92.7222C76.2973 92.7222 75.6204 96.1362 75.8365 97.0397Z" fill="#D86713"/>
<path d="M75.876 97.0431C75.876 97.0431 78.6241 91.2711 85.3743 91.3664C85.3743 91.3664 84.2604 92.2553 84.2559 92.6167C84.2559 92.6167 85.4614 92.9309 85.8214 92.9708C85.8214 92.9708 79.8378 93.9369 76.6335 97.1276L75.876 97.0431Z" fill="#F1A34F"/>
<path d="M79.4624 98.207H60.3896V116.357H79.4624V98.207Z" fill="#4A75CB"/>
<path d="M88.999 98.207H69.9263V116.357H88.999V98.207Z" fill="#72A9F7"/>
<path d="M69.9263 98.208H89.0476V103.978L69.9263 116.358V98.208Z" fill="#6699EA"/>
<path d="M69.9263 96.3418H59.9873V99.4889H69.9263V96.3418Z" fill="#3160AA"/>
<path d="M89.3874 96.3418H69.9263V99.4889H89.3874V96.3418Z" fill="#3366CC"/>
<path d="M80.6761 96.3418H79.2021V116.383H80.6761V96.3418Z" fill="#FFB871"/>
<path d="M65.8953 96.3418H64.4214V116.34H65.8953V96.3418Z" fill="#EA913D"/>
<path d="M248.718 116.346H0.282138C0.126318 116.346 0 116.471 0 116.625V116.721C0 116.875 0.126318 117 0.282138 117H248.718C248.874 117 249 116.875 249 116.721V116.625C249 116.471 248.874 116.346 248.718 116.346Z" fill="#2E3552"/>
<path d="M103.377 5.40039C103.377 5.40039 104.269 6.61073 104.173 7.99178C104.103 9.01598 103.181 10.0529 103.119 10.0947L104.574 10.8637C104.574 10.8637 105.653 8.96514 105.289 7.37889C105.177 6.89221 104.662 6.11497 104.282 5.76812C104.035 5.54164 103.714 5.41107 103.377 5.40039Z" fill="#6BB7BF"/>
<path d="M100.403 5.52814L99.4868 3.50879C99.4868 3.50879 103.786 3.65316 105.21 7.12619C105.206 7.12619 102.197 4.99879 100.403 5.52814Z" fill="#86D1CD"/>
<path d="M147.115 102.904C147.115 102.904 146.749 103.686 146.016 104.023C145.475 104.273 144.692 104.1 144.654 104.081L144.668 105.021C144.668 105.021 145.933 105.032 146.638 104.409C146.853 104.218 147.105 103.745 147.177 103.459C147.224 103.273 147.202 103.076 147.115 102.904Z" fill="#6BB7BF"/>
<path d="M146.226 101.455L146.996 100.434C146.996 100.434 148.118 102.621 146.75 104.298C146.749 104.298 146.993 102.204 146.226 101.455Z" fill="#86D1CD"/>
<path d="M69.2356 54.5995C69.2356 54.5995 68.2106 53.8322 67.9459 52.6863C67.7498 51.8356 68.2418 50.7687 68.2821 50.7197L66.908 50.4473C66.908 50.4473 66.5041 52.2551 67.1911 53.4563C67.4018 53.8195 68.0155 54.3307 68.4085 54.5205C68.6655 54.6449 68.9593 54.6729 69.2356 54.5995Z" fill="#6BB7BF"/>
<path d="M71.6221 53.7714L72.8706 55.1879C72.8706 55.1879 69.3439 56.1141 67.3213 53.6416C67.3213 53.6416 70.2938 54.6377 71.6221 53.7714Z" fill="#86D1CD"/>
<path d="M151.139 16.7645C151.139 16.7645 150.985 15.5687 151.597 14.6335C152.048 13.9389 153.104 13.563 153.163 13.5584L152.44 12.457C152.44 12.457 150.936 13.3786 150.572 14.6362C150.46 15.0221 150.519 15.7675 150.65 16.158C150.734 16.4118 150.908 16.6271 151.139 16.7645Z" fill="#6BB7BF"/>
<path d="M153.284 17.8184L153.143 19.5944C153.143 19.5944 150.171 17.8383 150.527 14.8447C150.527 14.8447 151.813 17.5006 153.284 17.8184Z" fill="#86D1CD"/>
<path d="M178.993 46.1265C178.993 46.1265 179.747 44.5184 183.101 45.3638C184.605 45.7424 187.206 47.9343 183.766 49.7847C180.187 51.7096 179.056 49.6939 179.056 49.6939C179.056 49.6939 184.821 48.756 183.997 46.4479C183.09 43.901 180.674 46.6585 180.674 46.6585C180.155 46.3711 179.584 46.1902 178.993 46.1265Z" fill="#F1A34F"/>
<path d="M178.433 49.59C178.433 49.59 177.661 48.4024 178.82 47.3301L180.25 48.4605C180.25 48.4605 178.858 49.5501 180.25 50.5271C180.25 50.5271 178.634 50.0867 178.433 49.59Z" fill="#DB7714"/>
<path d="M110.325 33.8929C110.325 33.8929 112.353 32.4965 113.876 34.5785L115.549 33.8684C115.549 33.8684 114.724 32.5755 111.481 33.1484C109.361 33.5207 110.325 33.8929 110.325 33.8929Z" fill="#5685D8"/>
<path d="M108.328 35.2581C108.328 35.2581 108.877 32.999 113.04 32.999C113.04 32.999 111.482 33.1452 110.263 35.1509L108.328 35.2581Z" fill="#739AF0"/>
<path d="M163.079 63.2945C163.079 63.2945 160.991 62.4773 161.811 60.2899L160.424 59.3965C160.424 59.3965 159.855 60.6677 161.926 62.8051C163.281 64.2043 163.079 63.2945 163.079 63.2945Z" fill="#5685D8"/>
<path d="M165.126 64.1037C165.126 64.1037 163.126 64.8301 161.029 61.7139C161.029 61.7139 161.927 62.8035 164.069 62.7127L165.126 64.1037Z" fill="#739AF0"/>
<path d="M175.316 72.5424C175.316 72.5424 176.275 71.9423 176.377 71.2168C176.377 71.2168 177.31 71.2667 177.513 71.5664C177.513 71.5664 177.083 72.7676 176.578 72.9928C176.578 72.9928 175.442 73.0682 175.316 72.5424Z" fill="#F1A34F"/>
<path d="M87.3101 24.1629C87.3101 24.1629 88.4624 23.442 88.5834 22.5703C88.5834 22.5703 89.7055 22.6302 89.9482 22.9907C89.9482 22.9907 89.4325 24.4335 88.8261 24.7041C88.8261 24.7041 87.4621 24.794 87.3101 24.1629Z" fill="#F1A34F"/>
<path d="M74.6867 71.3297C74.6867 71.3297 73.4583 70.5606 73.3282 69.6309C73.3282 69.6309 72.1319 69.6953 71.8735 70.0794C71.8735 70.0794 72.4232 71.623 73.0699 71.9072C73.0699 71.9072 74.5255 72.0034 74.6867 71.3297Z" fill="#F1A34F"/>
<path d="M125.435 24.2359C125.435 24.2359 124.121 23.4133 123.983 22.4199C123.983 22.4199 122.7 22.4889 122.425 22.9002C122.425 22.9002 123.013 24.5455 123.708 24.8542C123.706 24.8533 125.262 24.9559 125.435 24.2359Z" fill="#86D1CD"/>
<path d="M173.879 22.9805C173.879 22.9805 175.114 22.2078 175.243 21.2744C175.243 21.2744 176.445 21.3389 176.709 21.7284C176.709 21.7284 176.159 23.272 175.507 23.5635C175.503 23.5598 174.047 23.657 173.879 22.9805Z" fill="#86D1CD"/>
<path d="M214.043 115.508C213.976 116.325 212.816 116.325 211.501 116.162C210.185 115.999 210.533 116.334 208.69 116.344C206.847 116.354 206.217 115.747 206.125 115.486C206.048 115.253 206.937 115.065 207.888 114.843C208.008 114.815 208.128 114.786 208.248 114.756C209.325 114.502 210.281 113.889 210.957 113.019C211.756 112.003 212.487 107.381 212.487 107.381L215.367 107.913C215.367 107.913 213.691 111.875 213.519 113.179C213.442 113.762 213.859 114.152 213.957 114.662C214.024 114.939 214.052 115.224 214.043 115.508Z" fill="#FFB27D"/>
<path d="M211.494 116.293C210.18 116.132 210.533 116.334 208.69 116.345C206.847 116.357 206.217 115.749 206.125 115.487C206.048 115.255 206.937 115.067 207.888 114.844L207.9 114.862C208.738 115.267 209.671 115.44 210.6 115.361C211.838 115.248 213.104 114.746 213.957 114.66C214.023 114.938 214.05 115.223 214.039 115.508C213.976 116.323 212.81 116.454 211.494 116.293Z" fill="#365DA4"/>
<path d="M223.802 74.7125C223.802 74.7125 222.23 79.73 220.947 84.822C220.817 85.3395 220.689 85.8589 220.566 86.3719C220.287 87.5396 220.033 88.6836 219.828 89.7441C219.736 90.1981 219.66 90.6394 219.592 91.0589C219.521 91.4938 219.461 91.9069 219.414 92.2938C219.343 92.8419 219.307 93.3937 219.304 93.9463C219.304 94.0625 219.31 94.1724 219.317 94.2759C219.609 98.5788 214.492 111.314 214.492 111.314C214.492 111.314 213.998 111.527 212.935 111.335C212.225 111.207 211.469 110.712 211.469 110.712C212.235 107.388 212.782 104.019 213.106 100.624C213.564 95.843 213.723 91.7263 213.48 86.4418C213.423 85.1942 213.401 84.0284 213.405 82.9515C213.417 78.3653 213.886 75.3862 214.046 74.5173C214.568 71.7234 223.802 74.7125 223.802 74.7125Z" fill="#1C468A"/>
<path d="M223.802 74.7125C223.802 74.7125 222.23 79.73 220.948 84.822C220.817 85.3395 220.689 85.8589 220.566 86.3719C220.287 87.5396 220.033 88.6836 219.828 89.7442C219.737 90.1981 219.66 90.6394 219.592 91.0589C219.521 91.4938 219.461 91.907 219.414 92.2938L213.407 82.9515C213.419 78.3653 213.888 75.3862 214.048 74.5173C214.568 71.7234 223.802 74.7125 223.802 74.7125Z" fill="#163560"/>
<path d="M225.69 115.509C225.624 116.326 224.465 116.326 223.149 116.163C221.834 115.999 222.182 116.334 220.339 116.344C218.496 116.354 217.865 115.748 217.774 115.486C217.696 115.254 218.585 115.066 219.536 114.843C219.656 114.816 219.776 114.787 219.896 114.757C220.969 114.495 221.683 113.706 222.605 113.02C223.477 112.369 222.867 109.214 222.867 109.214L225.575 108.255C225.575 108.255 225.167 111.433 225.167 113.176C225.167 113.764 225.508 114.149 225.606 114.659C225.672 114.937 225.701 115.223 225.69 115.509Z" fill="#FFB27D"/>
<path d="M223.177 116.281C221.862 116.12 222.182 116.334 220.337 116.345C218.492 116.357 217.864 115.749 217.772 115.487C217.694 115.255 218.584 115.067 219.535 114.844L219.546 114.862C220.384 115.267 221.317 115.44 222.246 115.361C223.485 115.248 224.751 114.746 225.604 114.66C225.669 114.938 225.696 115.223 225.685 115.508C225.625 116.323 224.492 116.443 223.177 116.281Z" fill="#365DA4"/>
<path d="M218.24 73.7158C218.24 73.7158 221.244 88.5568 221.752 96.6342C222.259 104.712 222.892 111.399 222.892 111.399C223.346 111.546 223.823 111.611 224.3 111.591C224.786 111.561 225.266 111.464 225.725 111.303C225.725 111.303 228.702 99.1502 227.715 94.2853C226.729 89.4203 227.551 84.933 228.024 80.8988C228.704 75.1132 226.091 72.4246 224.268 70.5914C222.422 68.7346 218.24 73.7158 218.24 73.7158Z" fill="#1C468A"/>
<path d="M216.111 46.5335C215.812 44.1173 216.573 40.2512 221.439 40.8686C226.305 41.486 227.837 46.2257 226.856 48.3331C225.875 50.4405 228.268 50.949 229.02 53.2153C229.662 55.162 229.891 57.5791 230.936 58.6632C234.303 62.1599 227.702 67.5387 223.722 66.4047C216.473 64.3399 215.543 64.0312 215.797 58.3836C215.928 55.4916 218.199 54.3703 216.757 53.534C213.276 51.5138 216.786 52.0004 216.111 46.5335Z" fill="#AA443E"/>
<path d="M217.583 54.2975L219.023 56.4322L221.923 56.2906L223.262 52.8593C223.262 52.8593 222.849 52.7812 222.656 48.501L219.037 49.596C219.148 50.3707 219.126 51.1583 218.973 51.9259C218.794 52.7739 218.402 53.6783 217.583 54.2975Z" fill="#FFB27D"/>
<path d="M217.18 52.7835C217.363 52.7835 220.775 51.6531 225.644 53.618C225.644 53.618 223.333 66.7238 224.326 69.2253C224.929 70.7537 225.388 72.3343 225.695 73.9468L214.927 74.0785C214.927 74.0785 215.077 65.4935 214.58 62.4563C214.084 59.4191 217.18 52.7835 217.18 52.7835Z" fill="#FFB27D"/>
<path d="M225.637 68.2022C225.578 67.9847 225.537 67.7631 225.513 67.5394C225.371 65.9577 225.612 64.6674 226.012 63.4026C226.019 63.3835 226.025 63.3627 226.031 63.3427C226.038 63.3227 226.056 63.2582 226.072 63.1929C226.072 63.1929 226.072 63.1929 226.072 63.1874C226.086 63.1275 226.104 63.0548 226.123 62.9731C226.128 62.9459 226.135 62.9168 226.141 62.8823C226.416 61.652 227.027 58.5612 227.187 58.1399C227.262 57.9201 227.317 57.6944 227.352 57.4653C227.515 56.5346 227.587 55.0546 227.039 54.4363C226.277 53.5746 223.681 52.9254 223.681 52.9254C223.15 53.7516 221.328 55.8046 219.067 55.435C217.761 55.2208 217.558 52.7002 217.558 52.7002C216.154 52.8918 215.795 53.1033 215.795 53.1033C215.795 53.1033 212.428 55.1853 207.672 61.8155C207.521 62.0261 207.162 62.0016 206.284 61.8327C205.166 61.6166 202.883 61.6448 199.441 61.1435C199.441 61.1435 199.322 61.2289 199.29 61.6021C199.219 62.4256 199.136 62.6699 199.136 62.6699C200.658 63.3654 202.22 63.9717 203.814 64.4858C204.668 64.7582 205.559 65.0052 206.41 65.1932C207.135 65.3639 207.874 65.4739 208.618 65.5218C208.618 65.5218 211.366 64.4749 214.029 61.5667C214.183 64.0082 214.527 67.1608 214.316 69.4661C214.196 70.7763 213.291 75.1864 213.518 75.921C213.991 77.45 217.624 77.529 220.869 77.3692L221.081 77.3574C221.584 77.3293 222.078 77.2857 222.539 77.2339C223.248 77.1603 223.954 77.049 224.652 76.9007C225.285 76.7572 226.08 76.5502 226.727 76.2415C227.222 76.0036 227.63 75.7067 227.809 75.3335C227.501 73.6637 225.998 70.04 225.637 68.2022Z" fill="#F1A34F"/>
<path d="M218.565 72.4379C219.18 74.5044 219.536 76.2051 221.081 77.3546C221.584 77.3264 222.077 77.2829 222.538 77.2311C223.248 77.1574 223.954 77.0462 224.651 76.8979C225.284 76.7544 226.08 76.5474 226.726 76.2387C227.222 76.0008 227.629 75.7039 227.809 75.3307C227.497 73.6673 225.994 70.0435 225.633 68.2057C225.6 68.0465 225.576 67.8855 225.561 67.7236C225.426 66.0774 225.642 64.7273 226.008 63.4061C226.027 63.3362 226.047 63.2663 226.068 63.1964C226.068 63.1964 226.068 63.1964 226.068 63.191C226.08 63.1456 226.098 63.072 226.119 62.9767C226.124 62.9494 226.131 62.9204 226.137 62.8859C226.386 61.72 227.033 58.0618 227.198 57.5842C227.271 57.3465 227.325 57.1036 227.36 56.8578L226.063 55.6211C226.063 55.6211 218.624 58.77 216.985 63.1129C215.346 67.4558 217.686 69.4742 218.565 72.4379Z" fill="#EA913D"/>
<path d="M203.817 64.485C205.466 65.0026 207.256 65.4566 208.621 65.5211C208.621 65.5211 211.406 64.4614 214.085 61.5087C214.198 61.0065 214.307 60.1657 213.694 60.4082C212.834 60.7487 209.653 64.7965 208.449 64.8818C207.588 64.9427 205.139 64.6548 203.817 64.485Z" fill="#EA913D"/>
<path d="M209.693 63.3327C209.693 63.3327 213.357 65.1586 216.54 65.914C217.456 66.1311 218.337 66.2854 219.088 66.3208C219.088 66.3208 222.507 65.2785 225.117 61.6547C230.155 54.6569 226.266 53.9023 226.266 53.9023C226.266 53.9023 222.898 55.9843 218.142 62.6135C217.977 62.846 217.559 62.7951 216.477 62.5772C215.321 62.3457 213.022 62.3729 209.847 61.9108C209.795 62.0693 209.766 62.2344 209.761 62.4011C209.689 63.2246 209.693 63.3327 209.693 63.3327Z" fill="#F1A34F"/>
<path d="M199.14 62.6697C200.662 63.3652 202.224 63.9716 203.818 64.4857C204.672 64.7581 205.563 65.0051 206.414 65.193C206.756 63.6867 206.52 62.5126 206.287 61.8335C205.17 61.6174 202.78 61.6028 199.338 61.1025L199.14 62.6697Z" fill="#ED975D"/>
<path d="M200.196 61.3135C199.645 61.2 199.109 61.023 198.6 60.7859C197.874 60.4227 195.939 60.1866 195.527 60.5707C195.116 60.9548 195.962 62.5129 197.726 62.561C199.489 62.6092 200 62.8961 200 62.8961L200.196 61.3135Z" fill="#ED975D"/>
<path d="M218.973 51.9269C220.469 51.807 222.656 48.502 222.656 48.502L219.037 49.597C219.147 50.3717 219.126 51.1593 218.973 51.9269Z" fill="#ED975D"/>
<path d="M218.089 49.8394C218.089 49.8394 222.422 50.702 222.923 48.0234C223.424 45.3449 224.319 43.6442 221.574 42.9796C218.829 42.3149 218.099 43.2411 217.711 44.0964C217.324 44.9517 216.975 49.5461 218.089 49.8394Z" fill="#FFB27D"/>
<path d="M220.207 42.3059C220.207 42.3059 220.131 43.2139 221.556 44.7575C222.98 46.301 222.971 49.1966 222.971 49.1966C222.971 49.1966 225.043 44.5795 223.762 43.1504C222.482 41.7212 220.207 42.3059 220.207 42.3059Z" fill="#AA443E"/>
<path d="M221.949 41.1212C221.949 41.1212 219.795 40.4057 217.657 42.4941C216.741 43.3939 216.875 45.1617 217.368 46.1887C217.368 46.1887 218.126 43.9895 219.505 43.5101C220.883 43.0307 221.949 41.1212 221.949 41.1212Z" fill="#AA443E"/>
<path d="M219.439 48.5189C219.439 48.5189 219.324 48.8376 218.507 48.6923C218.507 48.6923 217.823 48.5716 217.885 48.2138C217.885 48.2138 218.584 48.0322 219.439 48.5189Z" fill="white"/>
<path d="M204.544 53.5472C204.544 53.5472 203.365 53.283 203.101 53.5018C202.837 53.7206 202.324 57.5668 202.324 57.5668C202.324 57.5668 203.043 56.0233 203.26 55.2524C203.489 54.4461 204.544 53.5472 204.544 53.5472Z" fill="#C65447"/>
<path d="M202.324 57.5665C202.354 57.5356 205.309 54.3731 205.328 54.0689C205.347 53.7647 204.623 53.427 203.656 53.417C203.656 53.417 204.369 53.9336 204.339 54.1134C204.285 54.4348 203.807 54.7063 203.433 55.5426C203.107 56.2399 202.737 56.9159 202.324 57.5665Z" fill="#E57970"/>
<path d="M202.324 57.5664C204.248 56.5677 207.895 56.9508 208.175 56.6775C208.366 56.4914 207.907 55.9984 207.285 55.6633C206.996 55.5028 206.681 55.3955 206.353 55.3464C205.62 55.2556 203.761 56.5195 202.846 57.1796C202.541 57.3994 202.343 57.5519 202.326 57.5646L202.324 57.5664ZM204.321 56.5677C204.504 56.4169 206.034 56.0755 206.245 56.0583C206.456 56.041 207.069 56.3171 207.069 56.3171C207.069 56.3171 204.14 56.7139 204.321 56.5677Z" fill="#E57970"/>
<path d="M202.324 57.5662C204.248 56.5674 207.895 56.9506 208.175 56.6773C208.366 56.4912 207.907 55.9981 207.285 55.6631C207.293 55.6713 207.667 56.0381 207.336 56.1171C207.03 56.1888 204.727 55.9654 202.847 57.1812C202.666 57.2985 202.492 57.4271 202.327 57.5662H202.324Z" fill="#C65447"/>
<path d="M202.342 57.5662C202.342 57.5662 201.483 56.3259 201.645 55.6268C201.736 55.6981 201.834 55.7619 201.936 55.8175C201.936 55.8175 202.135 55.6123 202.149 55.5859L202.135 55.6123C202.135 55.6123 202.443 57.1577 202.342 57.5662Z" fill="#C65447"/>
<path d="M202.324 57.5662C202.324 57.5662 201.078 54.9539 198.025 54.9966C198.025 54.9966 198.53 55.3998 198.532 55.5632C198.532 55.5632 197.982 55.7048 197.824 55.723C197.824 55.723 200.532 56.1606 201.982 57.6043L202.324 57.5662Z" fill="#E57970"/>
<path d="M209.332 58.0947H200.701V66.3083H209.332V58.0947Z" fill="#D86713"/>
<path d="M205.017 58.0947H196.386V66.3083H205.017V58.0947Z" fill="#F1A34F"/>
<path d="M205.017 58.0947H196.364V60.7061L205.017 66.3083V58.0947Z" fill="#EA913D"/>
<path d="M205.017 58.6738H209.515V57.2501H205.017V58.6738Z" fill="#F4A762"/>
<path d="M196.211 58.6738H205.018V57.2501H196.211V58.6738Z" fill="#FFB871"/>
<path d="M200.152 66.3193H200.819V57.2504H200.152V66.3193Z" fill="#E57970"/>
<path d="M207.508 57.252H206.841V66.3018H207.508V57.252Z" fill="#C65447"/>
<path d="M216.54 65.914C216.267 65.4014 216.119 64.8325 216.108 64.253C216.097 63.6735 216.223 63.0995 216.477 62.5771C215.364 62.3538 213.179 62.2521 210.178 61.8326C210.044 61.7073 209.71 61.3731 209.693 61.1543C209.672 60.8819 208.767 60.3162 208.432 60.0166C208.432 60.0166 208.123 60.1074 208.357 60.5151C208.42 60.624 208.547 60.802 208.667 60.9691L208.538 60.8846C208.218 60.6731 205.688 60.6831 205.249 61.0926C204.81 61.5021 205.959 63.2717 207.264 63.2717C207.829 63.2717 209.398 63.4869 209.881 63.555C210.801 63.96 213.872 65.2847 216.54 65.914Z" fill="#FFB27D"/>
<path d="M154.385 89.4739C154.385 89.4739 158.827 91.0021 160.29 90.8096C160.29 90.8096 160.387 90.0668 159.099 89.375C157.811 88.6831 156.703 86.3741 156.003 86.5484C155.303 86.7228 154.38 87.3493 154.38 87.3493L154.385 89.4739Z" fill="#163560"/>
<path d="M160.715 82.6408C160.715 82.6408 165.354 81.8853 166.547 81.0245C166.547 81.0245 166.272 80.3254 164.807 80.3254C163.341 80.3254 161.257 78.8199 160.727 79.3039C160.196 79.7879 159.684 80.7748 159.684 80.7748L160.715 82.6408Z" fill="#163560"/>
<path d="M154.388 89.4777C153.124 89.4377 151.933 89.3847 150.816 89.3188C133.88 88.3272 133.385 84.5972 133.385 84.5972C130.573 76.0395 141.894 67.5453 141.894 67.5453C141.894 67.5453 148.764 66.5892 148.489 70.5898C148.214 74.5904 138.712 82.4453 138.712 82.4453C141.875 82.7386 147.018 84.5019 150.544 85.8303C152.792 86.6783 154.385 87.3493 154.385 87.3493C154.566 87.6795 154.654 88.0522 154.64 88.428C154.616 88.7894 154.531 89.1441 154.388 89.4777Z" fill="#1C468A"/>
<path d="M150.819 89.3187C133.884 88.3272 133.389 84.5972 133.389 84.5972C130.573 76.0395 141.893 67.5453 141.893 67.5453C141.893 67.5453 148.764 66.5892 148.489 70.5898C148.214 74.5904 138.712 82.4453 138.712 82.4453C141.875 82.7386 147.018 84.5019 150.543 85.8303C150.968 86.9217 151.246 88.2255 150.819 89.3187Z" fill="#163560"/>
<path d="M160.731 82.6357H160.714C146.137 86.54 140.992 86.481 139.511 86.1877C138.853 86.057 138.391 85.1063 138.391 85.1063C135.573 76.5558 147.579 66.9185 147.579 66.9185C147.579 66.9185 152.751 66.6861 154.194 69.0241C154.481 69.4955 154.61 70.0454 154.561 70.594C154.386 73.17 150.451 76.8836 147.673 79.2008C146.207 80.4247 145.059 81.2592 144.961 81.3309H144.956C149.805 78.3645 159.692 80.7752 159.692 80.7752C159.692 80.7752 160.266 81.1756 160.448 81.5089C160.624 81.8594 160.721 82.244 160.731 82.6357Z" fill="#1C468A"/>
<path d="M165.797 37.808C165.614 38.4327 164.463 42.3152 163.47 45.3097C162.862 47.1402 162.307 48.6429 162.071 48.8436C161.888 49.0025 161.186 49.3829 160.215 49.8696C158.583 50.6707 156.908 51.3806 155.197 51.9961C154.055 52.4092 152.956 52.7225 152.091 52.8433C151.803 52.8984 151.509 52.9198 151.215 52.9068C149.646 52.816 149.561 51.0972 149.75 49.6898C149.814 49.2876 149.888 48.9072 149.963 48.6102C150.069 48.1771 150.166 47.8911 150.166 47.8911C150.166 47.8911 150.411 47.8385 150.828 47.754C151.618 47.5842 153.026 47.3 154.607 47.0449C156.133 46.8015 157.819 46.5791 159.239 46.5155C159.239 46.5155 160.007 45.1299 160.979 43.4048C162.154 41.3101 163.616 38.7178 164.31 37.5755C164.382 37.4641 164.426 37.337 164.437 37.2051C164.833 37.5153 165.3 37.7225 165.797 37.808Z" fill="#FFB27D"/>
<path d="M142.281 38.2731C142.152 38.5582 142.014 38.8333 141.886 39.1085C141.886 39.1085 142.195 39.8176 142.611 40.8545C142.621 40.8914 142.635 40.9268 142.654 40.9598C142.729 41.1296 142.793 41.3094 142.868 41.5001C143.295 42.6006 143.784 43.9444 144.15 45.2028C144.161 45.2455 144.182 45.2882 144.193 45.33C144.428 46.1662 144.62 46.9698 144.684 47.6154C144.724 47.9138 144.728 48.2159 144.694 48.5152L140.874 51.2337C140.874 51.2337 140.852 51.1601 140.809 51.0121C140.489 49.9534 139.091 45.2773 138.653 42.0285C138.54 41.3613 138.493 40.6846 138.514 40.0083C138.514 40.0083 138.204 38.5165 139.849 35.1515C140.692 33.4263 142.047 31.2263 144.214 28.4751C144.214 28.4751 144.449 28.0837 144.662 27.6924C144.993 28.0202 145.541 28.3697 145.893 28.6231C145.631 28.7384 145.442 28.9617 145.399 29.1097C144.994 30.6533 144.001 34.1672 142.698 37.2889C142.698 37.2968 142.694 37.3043 142.688 37.3097C142.675 37.354 142.657 37.3966 142.634 37.4369C142.618 37.4715 142.604 37.507 142.592 37.5431C142.517 37.7329 142.432 37.9235 142.347 38.1142C142.324 38.1669 142.302 38.2195 142.281 38.2731Z" fill="#FFB27D"/>
<path d="M147.326 58.7387C147.326 58.7387 142.158 53.4243 137.738 50.1919C137.435 49.3819 137.271 48.3042 137.271 48.3042C137.023 48.7527 137.062 49.332 137.143 49.7669C135.942 48.9279 134.819 48.2751 133.899 47.9637C133.589 46.1813 135.319 44.3072 135.319 44.3072C133.834 44.9047 133.231 46.8705 133.029 47.7703C132.881 47.757 132.731 47.7619 132.584 47.7848C132.584 47.7848 132.435 41.7649 141.711 41.7649C145.32 41.7649 144.803 35.5497 149.94 35.9955C149.94 35.9955 155.551 37.0851 154.503 41.9319C153.455 46.7787 155.177 47.8683 155.775 48.9552C156.373 50.042 153.834 57.6518 147.326 58.7387Z" fill="#AA443E"/>
<path d="M151.892 48.8498L146.48 50.9736L145.906 48.5974C145.864 47.8449 145.91 47.0902 146.044 46.3483C146.183 45.5185 146.38 44.6993 146.634 43.8968C146.642 43.8732 146.646 43.8614 146.646 43.8614H146.786L147.234 43.8487L150.276 43.7715C150.162 44.1805 150.095 44.6008 150.075 45.0245C150.033 45.7615 150.178 46.4972 150.495 47.1651C150.812 47.833 151.292 48.412 151.892 48.8498Z" fill="#FFB27D"/>
<path d="M143.582 47.4141C143.582 47.4141 136.312 51.4019 141.89 67.544L153.513 68.1723C153.513 68.1723 148.548 61.3243 149.736 58.97C150.924 56.6156 153.297 49.2327 153.297 49.2327L143.582 47.4141Z" fill="#E5B0B4"/>
<path d="M163.477 45.3397C163.477 45.3397 162.469 48.7129 161.978 48.9826C161.487 49.2522 155.116 52.4946 153.184 52.7552C153.184 52.7552 152.509 52.8233 152.268 52.9368C152.236 52.9472 152.209 52.9681 152.191 52.9958C152.189 53.0005 152.186 53.0053 152.185 53.0104C152.048 53.3672 150.337 59.1465 150.298 60.6792C150.268 61.7479 155.021 68.6231 154.969 69.4031C154.966 69.4694 154.949 69.5344 154.921 69.5947C154.653 70.1794 153.345 70.1295 152.27 69.5711C151.391 69.1234 150.475 68.7525 149.531 68.4624C148.284 68.082 146.884 67.8314 145.742 68.062C143.549 68.5087 141.3 67.9512 140.512 65.5542C139.724 63.1571 139.837 58.2512 139.612 57.2479C139.388 56.2446 139.19 53.0975 140.538 51.0064C140.538 51.0064 140.707 50.6714 140.426 49.975C140.144 49.2786 138.092 41.9475 138.401 39.7456C138.401 39.7456 138.488 37.6028 139.846 35.1494C140.422 35.3014 140.954 35.5826 141.403 35.9711C142.119 36.6067 142.587 37.2632 142.7 37.2914C142.7 37.2914 141.945 38.9648 141.987 39.1073C142.03 39.2499 144.589 46.4375 144.734 46.8524C144.734 46.8524 145.741 46.7616 145.958 46.9823C145.958 46.9823 145.872 49.0452 150.596 47.3355C150.596 47.3355 150.888 47.2882 150.901 47.5307C150.901 47.5307 156.994 46.5664 159.113 46.4157C159.113 46.4157 159.226 46.403 159.881 45.189C160.66 43.7453 160.98 43.4039 160.98 43.4039C160.98 43.4039 162.9 43.4066 163.477 45.3397Z" fill="#2559A5"/>
<path d="M154.965 69.4042C154.961 69.4705 154.945 69.5355 154.917 69.5958C154.649 70.1805 153.341 70.1306 152.266 69.5721C151.388 69.1244 150.473 68.7531 149.53 68.4626C148.777 66.6076 147.74 63.7919 147.343 61.502C146.739 58.0117 151.492 53.6261 152.185 53.0078C152.049 53.3646 150.337 59.144 150.298 60.6766C150.269 61.749 155.021 68.6242 154.965 69.4042Z" fill="#174A87"/>
<path d="M150.074 45.0289C150.074 45.0289 147.542 46.3064 146.044 46.3509C146.183 45.5211 146.38 44.7019 146.634 43.8994C146.683 43.8838 146.734 43.8711 146.785 43.8613C146.888 43.8392 146.994 43.831 147.099 43.8368C147.143 43.8368 147.191 43.844 147.234 43.8486C148.489 43.9975 150.074 45.0289 150.074 45.0289Z" fill="#ED975D"/>
<path d="M145.42 44.5144C145.42 44.5144 149.74 46.6836 151.062 43.9969C152.384 41.3102 153.831 39.7793 151.129 38.2811C148.427 36.783 147.382 37.5466 146.722 38.3374C146.061 39.1283 144.331 43.8807 145.42 44.5144Z" fill="#FFB27D"/>
<path d="M148.807 38.2572C148.807 38.2572 150.117 39.5483 149.732 40.775C149.348 42.0017 149.97 44.4415 151.656 44.7202C153.343 44.999 155.351 39.3441 153.13 38.2572C150.91 37.1703 147.28 36.6328 146.185 37.9984C145.089 39.364 145.51 41.091 145.51 41.091C145.51 41.091 147.031 38.1737 148.807 38.2572Z" fill="#AA443E"/>
<path d="M147.085 43.6257C147.085 43.6257 146.907 43.9144 146.137 43.612C146.137 43.612 145.49 43.3587 145.624 43.0209C145.624 43.0209 146.345 42.9828 147.085 43.6257Z" fill="white"/>
<path d="M158.276 116.346H164.844C164.076 115.874 163.224 115.553 162.334 115.399C163.518 113.172 165.754 108.624 164.672 107.925C163.561 107.207 162.375 112.761 161.891 115.346C161.702 115.331 161.519 115.324 161.341 115.327C161.026 112.012 159.895 101.968 157.901 103.632C155.968 105.246 159.501 112.63 160.9 115.352C159.951 115.445 159.045 115.788 158.276 116.346Z" fill="#82B378"/>
<path d="M147.123 27.2461C147.04 27.2606 146.61 27.6492 146.627 27.6211C147.176 26.6931 147.446 25.8678 147.354 25.4737C147.317 25.3121 145.482 25.7888 145.179 26.6123C145.025 27.0354 144.348 28.2821 144.348 28.2821L145.384 28.8024C145.384 28.8024 145.796 28.5808 145.976 28.6299C146.157 28.6789 146.801 28.3992 146.997 28.0987C146.997 28.0987 147.437 27.1916 147.123 27.2461Z" fill="#FFB27D"/>
<path d="M165.985 33.7072C165.474 33.8353 164.276 35.6785 164.283 36.0108C164.283 36.0544 164.283 36.1016 164.283 36.1452C164.218 35.9799 164.146 35.8047 164.095 35.7066C163.905 35.3434 163.689 35.525 163.689 35.525C163.754 35.91 163.748 36.8362 163.941 36.9778C164.134 37.1194 164.229 37.716 164.229 37.716L165.582 38.3597C165.582 38.3597 166.34 36.6909 166.656 36.2006C167.268 35.2508 166.494 33.5783 165.985 33.7072Z" fill="#FFB27D"/>
</svg>
