<svg width="500" height="381" viewBox="0 0 500 381" fill="none" xmlns="http://www.w3.org/2000/svg">
<path d="M500 335.84H0V336.09H500V335.84Z" fill="#E0E0E0"/>
<path d="M379.33 345.06H344.93V345.31H379.33V345.06Z" fill="#E0E0E0"/>
<path d="M419.8 344.35H400.44V344.6H419.8V344.35Z" fill="#E0E0E0"/>
<path d="M247.34 344.94H221.66V345.19H247.34V344.94Z" fill="#E0E0E0"/>
<path d="M265.89 348.5H248.35V348.75H265.89V348.5Z" fill="#E0E0E0"/>
<path d="M144.67 342.42H91.6802V342.67H144.67V342.42Z" fill="#E0E0E0"/>
<path d="M237 291.24H43.91C42.399 291.237 40.9508 290.636 39.8824 289.568C38.814 288.499 38.2126 287.051 38.21 285.54V14.0999C38.2126 12.589 38.814 11.1407 39.8824 10.0723C40.9508 9.00393 42.399 8.40255 43.91 8.3999H237C238.513 8.3999 239.963 9.00011 241.034 10.0688C242.105 11.1375 242.707 12.5873 242.71 14.0999V285.54C242.707 287.053 242.105 288.502 241.034 289.571C239.963 290.64 238.513 291.24 237 291.24ZM43.91 8.6499C42.4653 8.65255 41.0807 9.22759 40.0592 10.2491C39.0376 11.2706 38.4626 12.6553 38.46 14.0999V285.54C38.46 286.986 39.0338 288.374 40.0556 289.397C41.0774 290.421 42.4636 290.997 43.91 291H237C238.446 291 239.834 290.426 240.857 289.404C241.881 288.382 242.457 286.996 242.46 285.55V14.0999C242.457 12.6536 241.881 11.2673 240.857 10.2456C239.834 9.22378 238.446 8.6499 237 8.6499H43.91Z" fill="#E0E0E0"/>
<path d="M453.31 291.24H260.21C258.698 291.237 257.249 290.636 256.179 289.568C255.109 288.5 254.505 287.052 254.5 285.54V14.0999C254.505 12.5881 255.109 11.1398 256.179 10.0717C257.249 9.0036 258.698 8.40254 260.21 8.3999H453.31C454.819 8.40519 456.265 9.00773 457.331 10.0758C458.397 11.1439 458.997 12.5907 459 14.0999V285.54C458.997 287.049 458.397 288.496 457.331 289.564C456.265 290.632 454.819 291.235 453.31 291.24ZM260.21 8.6499C258.764 8.6499 257.376 9.22378 256.353 10.2456C255.329 11.2673 254.753 12.6536 254.75 14.0999V285.54C254.753 286.986 255.329 288.372 256.353 289.394C257.376 290.416 258.764 290.99 260.21 290.99H453.31C454.756 290.99 456.144 290.416 457.167 289.394C458.191 288.372 458.767 286.986 458.77 285.54V14.0999C458.767 12.6536 458.191 11.2673 457.167 10.2456C456.144 9.22378 454.756 8.6499 453.31 8.6499H260.21Z" fill="#E0E0E0"/>
<path d="M434.03 32.71H283.33V162.27H434.03V32.71Z" fill="#E0E0E0"/>
<path d="M437.38 32.71H286.68V162.27H437.38V32.71Z" fill="#F0F0F0"/>
<path d="M431.37 156.19V38.79L292.69 38.79V156.19H431.37Z" fill="#FAFAFA"/>
<path d="M387.05 156.19V38.79H377.99V156.19H387.05Z" fill="#E0E0E0"/>
<path d="M339.38 156.19V38.79H330.32V156.19H339.38Z" fill="#E0E0E0"/>
<path d="M390.23 160.05V34.27H381.17V160.05H390.23Z" fill="#F0F0F0"/>
<path d="M342.56 160.05V34.27H333.5V160.05H342.56Z" fill="#F0F0F0"/>
<path d="M431.37 156.19V38.79H428.84V156.19H431.37Z" fill="#E0E0E0"/>
<path d="M177.34 135C177.34 135 159 103.42 184.45 78.2598C184.45 78.2598 191.09 82.5898 190.99 88.3998C190.89 94.2098 183.87 95.6898 185.38 100.55C186.89 105.41 193.5 110.17 189.16 114.18C184.82 118.19 189.86 121.77 189.57 126.69C189.28 131.61 177.34 135 177.34 135Z" fill="#E0E0E0"/>
<path d="M180.22 140.2C180.22 140.2 187.66 104.42 155.58 88.5601C155.58 88.5601 150.64 94.7601 152.58 100.25C154.52 105.74 161.63 104.93 161.73 110.01C161.83 115.09 157.06 121.7 162.44 124.14C167.82 126.58 164.17 131.56 166 136.14C167.83 140.72 180.22 140.2 180.22 140.2Z" fill="#E6E6E6"/>
<path d="M163.89 131.12C163.89 131.12 164.21 162 176.56 162C188.91 162 189.22 131.12 189.22 131.12H163.89Z" fill="#F0F0F0"/>
<path d="M89.6899 150.38C89.6899 150.38 90.3799 162 116.75 162C143.12 162 143.82 150.38 143.82 150.38H89.6899Z" fill="#E6E6E6"/>
<path d="M367.7 220.44H353.78C352.046 220.44 350.64 221.846 350.64 223.58V246.6C350.64 248.334 352.046 249.74 353.78 249.74H367.7C369.434 249.74 370.84 248.334 370.84 246.6V223.58C370.84 221.846 369.434 220.44 367.7 220.44Z" fill="#F0F0F0"/>
<path d="M404.62 230.03H395.25C394.085 230.03 393.14 230.974 393.14 232.14V247.64C393.14 248.805 394.085 249.75 395.25 249.75H404.62C405.785 249.75 406.73 248.805 406.73 247.64V232.14C406.73 230.974 405.785 230.03 404.62 230.03Z" fill="#E6E6E6"/>
<path d="M406.02 228.11H393.85C393.458 228.11 393.14 228.428 393.14 228.82V229.62C393.14 230.012 393.458 230.33 393.85 230.33H406.02C406.412 230.33 406.73 230.012 406.73 229.62V228.82C406.73 228.428 406.412 228.11 406.02 228.11Z" fill="#F0F0F0"/>
<path d="M318.42 233.44C318.42 233.44 318.92 249.75 338.01 249.75C357.1 249.75 357.61 233.44 357.61 233.44H318.42Z" fill="#E6E6E6"/>
<path d="M270.94 211.92H299.83V206.22H270.94V211.92Z" fill="#E0E0E0"/>
<path d="M443.46 206.22H299.83V211.92H443.46V206.22Z" fill="#F0F0F0"/>
<path d="M270.94 255.44H299.83V249.74H270.94V255.44Z" fill="#E0E0E0"/>
<path d="M443.46 249.75H299.83V255.45H443.46V249.75Z" fill="#F0F0F0"/>
<path d="M281.35 211.92H276.02V335.84H281.35V211.92Z" fill="#E0E0E0"/>
<path d="M305.16 211.92H299.83V335.84H305.16V211.92Z" fill="#F0F0F0"/>
<path d="M424.98 211.92H419.65V335.84H424.98V211.92Z" fill="#E0E0E0"/>
<path d="M443.46 211.92H438.13V335.84H443.46V211.92Z" fill="#F0F0F0"/>
<path d="M89.6901 169.25H62.3701V328.34H89.6901V169.25Z" fill="#E6E6E6"/>
<path d="M202.34 328.34H67.6201V335.85H202.34V328.34Z" fill="#E6E6E6"/>
<path d="M89.6901 328.34H207.58L207.58 169.25L89.6901 169.25L89.6901 328.34Z" fill="#F0F0F0"/>
<path d="M100.43 268.22H196.84V229.36H100.43V268.22Z" fill="#E6E6E6"/>
<path d="M100.43 314.16H196.84V275.3H100.43V314.16Z" fill="#E6E6E6"/>
<path d="M159.46 233.62H137.81C137.105 233.617 136.43 233.336 135.932 232.838C135.434 232.34 135.153 231.664 135.15 230.96C135.153 230.255 135.434 229.58 135.932 229.082C136.43 228.584 137.105 228.302 137.81 228.3H159.46C160.165 228.3 160.842 228.58 161.341 229.079C161.84 229.578 162.12 230.254 162.12 230.96C162.12 231.665 161.84 232.342 161.341 232.841C160.842 233.34 160.165 233.62 159.46 233.62Z" fill="#F0F0F0"/>
<path d="M100.43 222.28H196.84V183.42H100.43V222.28Z" fill="#E6E6E6"/>
<path d="M159.46 187.68H137.81C137.105 187.677 136.43 187.396 135.932 186.898C135.434 186.4 135.153 185.725 135.15 185.02C135.15 184.314 135.43 183.636 135.928 183.136C136.427 182.635 137.104 182.353 137.81 182.35H159.46C160.166 182.353 160.843 182.635 161.341 183.136C161.84 183.636 162.12 184.314 162.12 185.02C162.117 185.725 161.836 186.4 161.338 186.898C160.84 187.396 160.165 187.677 159.46 187.68Z" fill="#F0F0F0"/>
<path d="M159.46 279.57H137.81C137.104 279.567 136.427 279.285 135.928 278.784C135.43 278.284 135.15 277.606 135.15 276.9C135.153 276.195 135.434 275.52 135.932 275.022C136.43 274.523 137.105 274.242 137.81 274.24H159.46C160.165 274.242 160.84 274.523 161.338 275.022C161.836 275.52 162.117 276.195 162.12 276.9C162.12 277.606 161.84 278.284 161.341 278.784C160.843 279.285 160.166 279.567 159.46 279.57Z" fill="#F0F0F0"/>
<path d="M211.22 162H89.6899V169.25H211.22V162Z" fill="#E6E6E6"/>
<path d="M58.5499 169.25H89.6899V162H58.5499V169.25Z" fill="#E0E0E0"/>
<path d="M120.14 38.79H75.9399V87.33H120.14V38.79Z" fill="#E6E6E6"/>
<path d="M124.93 38.79H79.27V87.33H124.93V38.79Z" fill="#F0F0F0"/>
<path d="M121.1 83.4999V42.6099H83.0901V83.4999H121.1Z" fill="#FAFAFA"/>
<path d="M111.89 73.59V52.52H92.3101V73.59H111.89Z" fill="#F0F0F0"/>
<path d="M166.74 24.46H133.22V60.47H166.74V24.46Z" fill="#E6E6E6"/>
<path d="M170.3 24.46H136.43V60.47H170.3V24.46Z" fill="#F0F0F0"/>
<path d="M167.45 57.6298V27.2998H139.26V57.6298H167.45Z" fill="#FAFAFA"/>
<path d="M153.36 34.7998L145.65 48.1498H161.07L153.36 34.7998Z" fill="#F0F0F0"/>
<path d="M250 381C357.082 381 443.89 375.932 443.89 369.68C443.89 363.428 357.082 358.36 250 358.36C142.917 358.36 56.1099 363.428 56.1099 369.68C56.1099 375.932 142.917 381 250 381Z" fill="#F5F5F5"/>
<path d="M419.8 99.2598H321.7C316.525 99.2598 312.33 103.455 312.33 108.63V135.31C312.33 140.485 316.525 144.68 321.7 144.68H419.8C424.975 144.68 429.17 140.485 429.17 135.31V108.63C429.17 103.455 424.975 99.2598 419.8 99.2598Z" fill="#407BFF"/>
<path d="M400.34 106.92H323.71C322.804 106.92 322.07 107.654 322.07 108.56V110.36C322.07 111.266 322.804 112 323.71 112H400.34C401.246 112 401.98 111.266 401.98 110.36V108.56C401.98 107.654 401.246 106.92 400.34 106.92Z" fill="#407BFF"/>
<path d="M376.07 119.16H323.71C322.804 119.16 322.07 119.894 322.07 120.8V122.6C322.07 123.506 322.804 124.24 323.71 124.24H376.07C376.976 124.24 377.71 123.506 377.71 122.6V120.8C377.71 119.894 376.976 119.16 376.07 119.16Z" fill="#407BFF"/>
<path d="M362.03 131.41H323.71C322.804 131.41 322.07 132.144 322.07 133.05V134.85C322.07 135.756 322.804 136.49 323.71 136.49H362.03C362.936 136.49 363.67 135.756 363.67 134.85V133.05C363.67 132.144 362.936 131.41 362.03 131.41Z" fill="#407BFF"/>
<path d="M409.52 131.41H371.2C370.294 131.41 369.56 132.144 369.56 133.05V134.85C369.56 135.756 370.294 136.49 371.2 136.49H409.52C410.425 136.49 411.16 135.756 411.16 134.85V133.05C411.16 132.144 410.425 131.41 409.52 131.41Z" fill="#407BFF"/>
<g opacity="0.5">
<path opacity="0.5" d="M400.34 106.92H323.71C322.804 106.92 322.07 107.654 322.07 108.56V110.36C322.07 111.266 322.804 112 323.71 112H400.34C401.246 112 401.98 111.266 401.98 110.36V108.56C401.98 107.654 401.246 106.92 400.34 106.92Z" fill="white"/>
<path opacity="0.5" d="M376.07 119.16H323.71C322.804 119.16 322.07 119.894 322.07 120.8V122.6C322.07 123.506 322.804 124.24 323.71 124.24H376.07C376.976 124.24 377.71 123.506 377.71 122.6V120.8C377.71 119.894 376.976 119.16 376.07 119.16Z" fill="white"/>
<path opacity="0.5" d="M362.03 131.41H323.71C322.804 131.41 322.07 132.144 322.07 133.05V134.85C322.07 135.756 322.804 136.49 323.71 136.49H362.03C362.936 136.49 363.67 135.756 363.67 134.85V133.05C363.67 132.144 362.936 131.41 362.03 131.41Z" fill="white"/>
<path opacity="0.5" d="M409.52 131.41H371.2C370.294 131.41 369.56 132.144 369.56 133.05V134.85C369.56 135.756 370.294 136.49 371.2 136.49H409.52C410.425 136.49 411.16 135.756 411.16 134.85V133.05C411.16 132.144 410.425 131.41 409.52 131.41Z" fill="white"/>
</g>
<path d="M341.22 88.6699H229.87C222.281 88.6699 216.13 94.8215 216.13 102.41V141.53C216.13 149.118 222.281 155.27 229.87 155.27H341.22C348.808 155.27 354.96 149.118 354.96 141.53V102.41C354.96 94.8215 348.808 88.6699 341.22 88.6699Z" fill="#407BFF"/>
<path d="M345.16 99.9102H232.82C231.489 99.9102 230.41 100.989 230.41 102.32V104.95C230.41 106.281 231.489 107.36 232.82 107.36H345.16C346.491 107.36 347.57 106.281 347.57 104.95V102.32C347.57 100.989 346.491 99.9102 345.16 99.9102Z" fill="#407BFF"/>
<path d="M309.57 117.86H232.82C231.489 117.86 230.41 118.939 230.41 120.27V122.9C230.41 124.231 231.489 125.31 232.82 125.31H309.57C310.901 125.31 311.98 124.231 311.98 122.9V120.27C311.98 118.939 310.901 117.86 309.57 117.86Z" fill="#407BFF"/>
<path d="M288.99 135.81H232.82C231.489 135.81 230.41 136.889 230.41 138.22V140.85C230.41 142.181 231.489 143.26 232.82 143.26H288.99C290.321 143.26 291.4 142.181 291.4 140.85V138.22C291.4 136.889 290.321 135.81 288.99 135.81Z" fill="#407BFF"/>
<path d="M349.25 135.81H302.45C301.119 135.81 300.04 136.889 300.04 138.22V140.85C300.04 142.181 301.119 143.26 302.45 143.26H349.25C350.581 143.26 351.66 142.181 351.66 140.85V138.22C351.66 136.889 350.581 135.81 349.25 135.81Z" fill="#407BFF"/>
<g opacity="0.5">
<path opacity="0.5" d="M345.16 99.9102H232.82C231.489 99.9102 230.41 100.989 230.41 102.32V104.95C230.41 106.281 231.489 107.36 232.82 107.36H345.16C346.491 107.36 347.57 106.281 347.57 104.95V102.32C347.57 100.989 346.491 99.9102 345.16 99.9102Z" fill="white"/>
<path opacity="0.5" d="M309.57 117.86H232.82C231.489 117.86 230.41 118.939 230.41 120.27V122.9C230.41 124.231 231.489 125.31 232.82 125.31H309.57C310.901 125.31 311.98 124.231 311.98 122.9V120.27C311.98 118.939 310.901 117.86 309.57 117.86Z" fill="white"/>
<path opacity="0.5" d="M288.99 135.81H232.82C231.489 135.81 230.41 136.889 230.41 138.22V140.85C230.41 142.181 231.489 143.26 232.82 143.26H288.99C290.321 143.26 291.4 142.181 291.4 140.85V138.22C291.4 136.889 290.321 135.81 288.99 135.81Z" fill="white"/>
<path opacity="0.5" d="M349.25 135.81H302.45C301.119 135.81 300.04 136.889 300.04 138.22V140.85C300.04 142.181 301.119 143.26 302.45 143.26H349.25C350.581 143.26 351.66 142.181 351.66 140.85V138.22C351.66 136.889 350.581 135.81 349.25 135.81Z" fill="white"/>
</g>
<path d="M271.99 167.34H218.36C214.814 167.34 211.94 170.214 211.94 173.76V254.1C211.94 257.646 214.814 260.52 218.36 260.52H271.99C275.536 260.52 278.41 257.646 278.41 254.1V173.76C278.41 170.214 275.536 167.34 271.99 167.34Z" fill="#407BFF"/>
<path opacity="0.4" d="M271.99 167.34H218.36C214.814 167.34 211.94 170.214 211.94 173.76V254.1C211.94 257.646 214.814 260.52 218.36 260.52H271.99C275.536 260.52 278.41 257.646 278.41 254.1V173.76C278.41 170.214 275.536 167.34 271.99 167.34Z" fill="black"/>
<path d="M269.53 177.06H220.81C220.158 177.06 219.63 177.588 219.63 178.24V180.01C219.63 180.662 220.158 181.19 220.81 181.19H269.53C270.182 181.19 270.71 180.662 270.71 180.01V178.24C270.71 177.588 270.182 177.06 269.53 177.06Z" fill="#FAFAFA"/>
<path d="M254.02 187.01H220.81C220.158 187.01 219.63 187.538 219.63 188.19V189.96C219.63 190.611 220.158 191.14 220.81 191.14H254.02C254.672 191.14 255.2 190.611 255.2 189.96V188.19C255.2 187.538 254.672 187.01 254.02 187.01Z" fill="#FAFAFA"/>
<path d="M269.53 196.95H220.81C220.158 196.95 219.63 197.479 219.63 198.13V199.9C219.63 200.552 220.158 201.08 220.81 201.08H269.53C270.182 201.08 270.71 200.552 270.71 199.9V198.13C270.71 197.479 270.182 196.95 269.53 196.95Z" fill="#FAFAFA"/>
<path d="M238.92 206.9H220.81C220.158 206.9 219.63 207.428 219.63 208.08V209.85C219.63 210.502 220.158 211.03 220.81 211.03H238.92C239.572 211.03 240.1 210.502 240.1 209.85V208.08C240.1 207.428 239.572 206.9 238.92 206.9Z" fill="#FAFAFA"/>
<path d="M264.26 206.9H246.15C245.498 206.9 244.97 207.428 244.97 208.08V209.85C244.97 210.502 245.498 211.03 246.15 211.03H264.26C264.911 211.03 265.44 210.502 265.44 209.85V208.08C265.44 207.428 264.911 206.9 264.26 206.9Z" fill="#FAFAFA"/>
<path d="M269.53 216.84H220.81C220.158 216.84 219.63 217.368 219.63 218.02V219.79C219.63 220.442 220.158 220.97 220.81 220.97H269.53C270.182 220.97 270.71 220.442 270.71 219.79V218.02C270.71 217.368 270.182 216.84 269.53 216.84Z" fill="#FAFAFA"/>
<path d="M269.53 226.79H220.81C220.158 226.79 219.63 227.318 219.63 227.97V229.74C219.63 230.392 220.158 230.92 220.81 230.92H269.53C270.182 230.92 270.71 230.392 270.71 229.74V227.97C270.71 227.318 270.182 226.79 269.53 226.79Z" fill="#FAFAFA"/>
<path d="M260.89 236.73H220.81C220.158 236.73 219.63 237.258 219.63 237.91V239.68C219.63 240.332 220.158 240.86 220.81 240.86H260.89C261.542 240.86 262.07 240.332 262.07 239.68V237.91C262.07 237.258 261.542 236.73 260.89 236.73Z" fill="#FAFAFA"/>
<path d="M239.51 246.68H220.81C220.158 246.68 219.63 247.208 219.63 247.86V249.63C219.63 250.282 220.158 250.81 220.81 250.81H239.51C240.162 250.81 240.69 250.282 240.69 249.63V247.86C240.69 247.208 240.162 246.68 239.51 246.68Z" fill="#FAFAFA"/>
<path d="M286.5 166.78H212.11L245 193L295.43 212V175.68C295.422 173.317 294.478 171.053 292.804 169.385C291.13 167.716 288.863 166.78 286.5 166.78Z" fill="#407BFF"/>
<path opacity="0.4" d="M286.5 166.78H212.11L245 193L295.43 212V175.68C295.422 173.317 294.478 171.053 292.804 169.385C291.13 167.716 288.863 166.78 286.5 166.78Z" fill="black"/>
<path d="M283.25 180.25H228.82C228.002 180.25 227.34 180.913 227.34 181.73V184.49C227.34 185.307 228.002 185.97 228.82 185.97H283.25C284.067 185.97 284.73 185.307 284.73 184.49V181.73C284.73 180.913 284.067 180.25 283.25 180.25Z" fill="#FAFAFA"/>
<path d="M415.14 237.62V185.3C415.14 181.29 411.889 178.04 407.88 178.04H317.03C313.02 178.04 309.77 181.29 309.77 185.3V237.62C309.77 241.63 313.02 244.88 317.03 244.88H407.88C411.889 244.88 415.14 241.63 415.14 237.62Z" fill="#407BFF"/>
<path d="M431.729 221.03V168.71C431.729 164.701 428.479 161.45 424.469 161.45H333.619C329.61 161.45 326.359 164.701 326.359 168.71V221.03C326.359 225.04 329.61 228.29 333.619 228.29H424.469C428.479 228.29 431.729 225.04 431.729 221.03Z" fill="#407BFF"/>
<path opacity="0.5" d="M431.729 221.03V168.71C431.729 164.701 428.479 161.45 424.469 161.45H333.619C329.61 161.45 326.359 164.701 326.359 168.71V221.03C326.359 225.04 329.61 228.29 333.619 228.29H424.469C428.479 228.29 431.729 225.04 431.729 221.03Z" fill="white"/>
<path d="M422.51 203.11V170.9C422.51 169.116 421.064 167.67 419.28 167.67H389.59C387.806 167.67 386.36 169.116 386.36 170.9V203.11C386.36 204.894 387.806 206.34 389.59 206.34H419.28C421.064 206.34 422.51 204.894 422.51 203.11Z" fill="#407BFF"/>
<path opacity="0.7" d="M422.51 203.11V170.9C422.51 169.116 421.064 167.67 419.28 167.67H389.59C387.806 167.67 386.36 169.116 386.36 170.9V203.11C386.36 204.894 387.806 206.34 389.59 206.34H419.28C421.064 206.34 422.51 204.894 422.51 203.11Z" fill="white"/>
<path d="M380.71 218.68V194C380.71 192.63 379.6 191.52 378.23 191.52H355.48C354.11 191.52 353 192.63 353 194V218.68C353 220.05 354.11 221.16 355.48 221.16H378.23C379.6 221.16 380.71 220.05 380.71 218.68Z" fill="#407BFF"/>
<path opacity="0.3" d="M380.71 218.68V194C380.71 192.63 379.6 191.52 378.23 191.52H355.48C354.11 191.52 353 192.63 353 194V218.68C353 220.05 354.11 221.16 355.48 221.16H378.23C379.6 221.16 380.71 220.05 380.71 218.68Z" fill="white"/>
<path d="M366.86 62.21V48.88C366.86 44.8041 363.556 41.5 359.48 41.5L115.35 41.5C111.274 41.5 107.97 44.8041 107.97 48.88V62.21C107.97 66.2859 111.274 69.59 115.35 69.59L359.48 69.59C363.556 69.59 366.86 66.2859 366.86 62.21Z" fill="#407BFF"/>
<path opacity="0.5" d="M366.86 62.21V48.88C366.86 44.8041 363.556 41.5 359.48 41.5L115.35 41.5C111.274 41.5 107.97 44.8041 107.97 48.88V62.21C107.97 66.2859 111.274 69.59 115.35 69.59L359.48 69.59C363.556 69.59 366.86 66.2859 366.86 62.21Z" fill="white"/>
<path d="M320.67 74.2901V64.6201H250.42V74.2901H320.67Z" fill="#407BFF"/>
<path opacity="0.5" d="M320.67 74.2901V64.6201H250.42V74.2901H320.67Z" fill="white"/>
<path d="M392.03 20.71V7.38C392.03 3.30414 388.726 0 384.65 0L140.52 0C136.444 0 133.14 3.30414 133.14 7.38V20.71C133.14 24.7859 136.444 28.09 140.52 28.09L384.65 28.09C388.726 28.09 392.03 24.7859 392.03 20.71Z" fill="#407BFF"/>
<path d="M130.36 147.71C129.48 149.71 128.51 151.86 127.66 153.98C126.81 156.1 125.93 158.26 125.16 160.41C123.579 164.624 122.312 168.949 121.37 173.35L121.08 174.94L120.98 175.55C120.98 175.71 120.98 175.94 120.92 176.13C120.882 177.104 120.902 178.079 120.98 179.05C121.17 181.17 121.51 183.42 121.98 185.69C122.82 190.22 123.89 194.89 124.98 199.48L119.85 201.48C117.459 197.117 115.422 192.569 113.76 187.88C112.886 185.444 112.178 182.952 111.64 180.42C111.341 179.017 111.153 177.593 111.08 176.16C111.08 175.75 111.08 175.38 111.08 174.94C111.08 174.5 111.08 174.04 111.15 173.75L111.35 171.75C111.65 169.174 112.107 166.62 112.72 164.1C113.28 161.6 114 159.17 114.72 156.77C115.44 154.37 116.34 152.02 117.29 149.7C117.76 148.54 118.29 147.39 118.75 146.24C119.21 145.09 119.75 143.98 120.39 142.75L130.36 147.71Z" fill="#E4897B"/>
<path d="M124.71 198.13L128.61 201.94L120.1 205.94C120.1 205.94 118.04 202.33 119.47 199.07L124.71 198.13Z" fill="#E4897B"/>
<path d="M131.76 207.61L124.57 210.55L120.11 205.9L128.61 201.94L131.76 207.61Z" fill="#E4897B"/>
<path opacity="0.4" d="M277.41 203.51C263.261 201.921 249.901 196.173 239.018 186.993C228.135 177.812 220.219 165.611 216.269 151.931C212.32 138.252 212.515 123.709 216.829 110.141C221.144 96.5721 229.385 84.5875 240.51 75.7018C251.635 66.8161 265.144 61.4283 279.331 60.2195C293.518 59.0107 307.744 62.0351 320.212 68.9105C332.68 75.7859 342.829 86.2035 349.378 98.8463C355.926 111.489 358.578 125.79 357 139.94C355.952 149.341 353.061 158.444 348.493 166.728C343.925 175.011 337.769 182.314 330.378 188.217C322.987 194.121 314.504 198.51 305.416 201.134C296.327 203.758 286.811 204.565 277.41 203.51Z" fill="#FAFAFA"/>
<path opacity="0.4" d="M329.79 75.2397L220.29 162.73C219.83 161.73 219.38 160.73 218.96 159.73C216.212 153.201 214.456 146.298 213.75 139.25L308.33 63.6797C316.093 66.2745 323.352 70.1848 329.79 75.2397Z" fill="#FAFAFA"/>
<path opacity="0.4" d="M355.06 113.57L252.11 195.82C242.327 190.721 233.851 183.436 227.34 174.53L339.75 84.71C346.997 93.0298 352.235 102.904 355.06 113.57Z" fill="#FAFAFA"/>
<path d="M204.39 104.48L203.44 104.16C205.085 99.3016 207.153 94.597 209.62 90.0998L210.49 90.5798C208.056 95.0266 206.014 99.6776 204.39 104.48ZM216.53 81.1298L215.72 80.5398C223.942 69.4335 234.696 60.451 247.09 54.3398L247.54 55.2298C235.288 61.2696 224.656 70.1495 216.53 81.1298ZM326.12 56.5998C322.85 54.8477 319.47 53.3111 316 51.9998L316.36 51.0698C319.865 52.4009 323.279 53.9609 326.58 55.7398L326.12 56.5998Z" fill="#407BFF"/>
<path opacity="0.3" d="M204.39 104.48L203.44 104.16C205.085 99.3016 207.153 94.597 209.62 90.0998L210.49 90.5798C208.056 95.0266 206.014 99.6776 204.39 104.48ZM216.53 81.1298L215.72 80.5398C223.942 69.4335 234.696 60.451 247.09 54.3398L247.54 55.2298C235.288 61.2696 224.656 70.1495 216.53 81.1298ZM326.12 56.5998C322.85 54.8477 319.47 53.3111 316 51.9998L316.36 51.0698C319.865 52.4009 323.279 53.9609 326.58 55.7398L326.12 56.5998Z" fill="black"/>
<path d="M359.87 95.1798C350.611 75.9751 334.316 61.0702 314.364 53.5549C294.412 46.0396 272.333 46.4904 252.704 54.8137C233.076 63.1371 217.403 78.6947 208.935 98.2613C200.466 117.828 199.853 139.903 207.22 159.91C200.54 162.25 193.94 164.77 187.38 167.35C177.92 171.103 168.547 175.023 159.26 179.11C149.98 183.23 140.74 187.42 131.59 191.8C127 193.94 122.47 196.21 117.9 198.42C115.521 199.434 113.367 200.909 111.56 202.76C110.582 203.788 109.72 204.922 108.99 206.14C108.1 207.573 107.426 209.13 106.99 210.76C106.238 213.703 106.563 216.817 107.908 219.541C109.252 222.265 111.527 224.417 114.32 225.61C115.868 226.27 117.507 226.694 119.18 226.87C120.592 227.035 122.018 227.035 123.43 226.87C125.998 226.563 128.479 225.751 130.73 224.48C135.26 222.2 139.82 219.98 144.32 217.64C153.32 213.04 162.32 208.25 171.21 203.39C180.1 198.53 188.92 193.45 197.64 188.22C203.64 184.58 209.7 180.88 215.64 177C227.023 195.059 244.925 208.038 265.629 213.241C286.332 218.444 308.244 215.469 326.811 204.936C345.378 194.403 359.174 177.121 365.33 156.681C371.487 136.242 369.531 114.215 359.87 95.1798ZM314.41 190.71C302.789 196.447 289.727 198.609 276.877 196.923C264.026 195.237 251.964 189.779 242.216 181.237C232.468 172.696 225.472 161.456 222.112 148.939C218.752 136.421 219.179 123.189 223.34 110.914C227.5 98.6396 235.207 87.8744 245.486 79.9799C255.765 72.0854 268.154 67.4161 281.086 66.5626C294.018 65.709 306.913 68.7095 318.141 75.1846C329.368 81.6597 338.423 91.3186 344.16 102.94C351.852 118.524 353.038 136.526 347.46 152.985C341.881 169.444 329.993 183.014 314.41 190.71Z" fill="#407BFF"/>
<path opacity="0.3" d="M359.87 95.1798C350.611 75.9751 334.316 61.0702 314.364 53.5549C294.412 46.0396 272.333 46.4904 252.704 54.8137C233.076 63.1371 217.403 78.6947 208.935 98.2613C200.466 117.828 199.853 139.903 207.22 159.91C200.54 162.25 193.94 164.77 187.38 167.35C177.92 171.103 168.547 175.023 159.26 179.11C149.98 183.23 140.74 187.42 131.59 191.8C127 193.94 122.47 196.21 117.9 198.42C115.521 199.434 113.367 200.909 111.56 202.76C110.582 203.788 109.72 204.922 108.99 206.14C108.1 207.573 107.426 209.13 106.99 210.76C106.238 213.703 106.563 216.817 107.908 219.541C109.252 222.265 111.527 224.417 114.32 225.61C115.868 226.27 117.507 226.694 119.18 226.87C120.592 227.035 122.018 227.035 123.43 226.87C125.998 226.563 128.479 225.751 130.73 224.48C135.26 222.2 139.82 219.98 144.32 217.64C153.32 213.04 162.32 208.25 171.21 203.39C180.1 198.53 188.92 193.45 197.64 188.22C203.64 184.58 209.7 180.88 215.64 177C227.023 195.059 244.925 208.038 265.629 213.241C286.332 218.444 308.244 215.469 326.811 204.936C345.378 194.403 359.174 177.121 365.33 156.681C371.487 136.242 369.531 114.215 359.87 95.1798ZM314.41 190.71C302.789 196.447 289.727 198.609 276.877 196.923C264.026 195.237 251.964 189.779 242.216 181.237C232.468 172.696 225.472 161.456 222.112 148.939C218.752 136.421 219.179 123.189 223.34 110.914C227.5 98.6396 235.207 87.8744 245.486 79.9799C255.765 72.0854 268.154 67.4161 281.086 66.5626C294.018 65.709 306.913 68.7095 318.141 75.1846C329.368 81.6597 338.423 91.3186 344.16 102.94C351.852 118.524 353.038 136.526 347.46 152.985C341.881 169.444 329.993 183.014 314.41 190.71Z" fill="black"/>
<path d="M158 112C158 112.6 158.31 113.08 158.7 113.08C159.09 113.08 159.4 112.6 159.4 112.01C159.4 111.42 159.09 110.93 158.7 110.93C158.31 110.93 158 111.4 158 112Z" fill="#263238"/>
<path d="M158.28 113.07C158.988 114.881 159.94 116.587 161.11 118.14C160.706 118.429 160.243 118.627 159.754 118.718C159.265 118.81 158.762 118.793 158.28 118.67V113.07Z" fill="#DE5753"/>
<path d="M155.93 108.71C155.857 108.71 155.785 108.687 155.725 108.644C155.666 108.601 155.621 108.54 155.598 108.47C155.575 108.401 155.574 108.326 155.596 108.255C155.618 108.185 155.661 108.124 155.72 108.08C156.16 107.746 156.675 107.522 157.219 107.428C157.764 107.334 158.323 107.372 158.85 107.54C158.897 107.553 158.941 107.575 158.979 107.606C159.017 107.637 159.048 107.676 159.07 107.719C159.092 107.763 159.105 107.811 159.108 107.86C159.11 107.909 159.102 107.957 159.085 108.003C159.067 108.049 159.04 108.09 159.006 108.125C158.971 108.16 158.93 108.186 158.884 108.204C158.838 108.222 158.789 108.229 158.74 108.227C158.692 108.225 158.644 108.212 158.6 108.19C158.182 108.065 157.74 108.041 157.311 108.119C156.882 108.197 156.477 108.376 156.13 108.64C156.074 108.686 156.003 108.711 155.93 108.71Z" fill="#263238"/>
<path d="M137.8 116.46C138.8 121.84 139.9 131.68 136.14 135.27C136.14 135.27 137.61 140.72 147.6 140.72C158.6 140.72 152.84 135.27 152.84 135.27C146.84 133.84 147.01 129.39 148.05 125.22L137.8 116.46Z" fill="#E4897B"/>
<path d="M131.65 138.08C132.84 136.23 130.84 131.75 130.84 131.75C130.84 131.75 148.52 127.3 155.75 134.12C157.25 135.54 155.59 137.62 155.59 137.62L131.65 138.08Z" fill="#407BFF"/>
<path opacity="0.1" d="M131.65 138.08C132.84 136.23 130.84 131.75 130.84 131.75C130.84 131.75 148.52 127.3 155.75 134.12C157.25 135.54 155.59 137.62 155.59 137.62L131.65 138.08Z" fill="black"/>
<path d="M102.4 342.12C101.47 342.12 99.9798 340.56 99.5398 339.98C99.5208 339.952 99.5107 339.919 99.5107 339.885C99.5107 339.851 99.5208 339.818 99.5398 339.79C99.5573 339.763 99.581 339.741 99.6088 339.725C99.6367 339.71 99.6678 339.701 99.6998 339.7C99.8098 339.7 102.26 339.92 102.93 340.8C103.004 340.891 103.057 340.997 103.084 341.112C103.112 341.226 103.114 341.345 103.09 341.46C103.082 341.608 103.027 341.749 102.934 341.864C102.841 341.979 102.713 342.062 102.57 342.1L102.4 342.12ZM100.08 340.12C100.81 340.96 101.98 341.9 102.48 341.78C102.48 341.78 102.68 341.78 102.74 341.41C102.752 341.343 102.75 341.274 102.732 341.208C102.715 341.143 102.683 341.082 102.64 341.03C101.896 340.476 101.006 340.153 100.08 340.1V340.12Z" fill="#407BFF"/>
<path d="M100.19 340.09C100.01 340.108 99.8293 340.108 99.6497 340.09C99.6178 340.086 99.5876 340.074 99.5626 340.054C99.5376 340.034 99.5188 340.007 99.5083 339.977C99.4979 339.946 99.4962 339.914 99.5035 339.882C99.5108 339.851 99.5269 339.822 99.5497 339.8C99.6197 339.73 101.09 338.21 102.2 338.21C102.331 338.209 102.462 338.234 102.584 338.284C102.705 338.334 102.816 338.407 102.91 338.5C103.01 338.585 103.079 338.701 103.104 338.83C103.129 338.959 103.11 339.093 103.05 339.21C102.72 339.77 101.19 340.09 100.19 340.09ZM100.06 339.74C101.06 339.74 102.51 339.43 102.75 339C102.75 339 102.82 338.87 102.66 338.7C102.6 338.639 102.528 338.59 102.449 338.558C102.37 338.525 102.285 338.509 102.2 338.51C101.382 338.703 100.638 339.13 100.06 339.74Z" fill="#407BFF"/>
<path d="M168.39 364.81C167.632 364.807 166.876 364.74 166.13 364.61C166.095 364.602 166.064 364.583 166.041 364.556C166.017 364.529 166.003 364.495 166 364.46C165.994 364.427 165.998 364.393 166.012 364.362C166.027 364.331 166.05 364.306 166.08 364.29C166.19 364.22 168.75 362.76 169.98 363.09C170.095 363.117 170.202 363.168 170.297 363.238C170.392 363.309 170.471 363.398 170.53 363.5C170.607 363.612 170.648 363.744 170.648 363.88C170.648 364.016 170.607 364.148 170.53 364.26C170.24 364.68 169.33 364.81 168.39 364.81ZM166.7 364.35C168.06 364.54 169.92 364.53 170.26 364.06C170.31 363.99 170.35 363.89 170.26 363.67C170.223 363.608 170.174 363.555 170.115 363.514C170.057 363.472 169.99 363.444 169.92 363.43C169.14 363.22 167.59 363.89 166.7 364.35Z" fill="#407BFF"/>
<path d="M166.17 364.61C166.137 364.62 166.102 364.62 166.07 364.61C166.045 364.592 166.025 364.568 166.013 364.54C166 364.511 165.996 364.48 166 364.45C166.068 363.409 166.467 362.417 167.14 361.62C167.274 361.499 167.433 361.409 167.606 361.358C167.779 361.306 167.961 361.293 168.14 361.32C168.62 361.32 168.76 361.61 168.79 361.81C168.92 362.64 167.17 364.23 166.28 364.62L166.17 364.61ZM167.96 361.61C167.739 361.612 167.526 361.694 167.36 361.84C166.796 362.469 166.446 363.26 166.36 364.1C167.26 363.56 168.46 362.31 168.36 361.81C168.36 361.81 168.36 361.65 168.02 361.62L167.96 361.61Z" fill="#407BFF"/>
<path d="M158.09 364.44H165.44L166.17 347.42H158.82L158.09 364.44Z" fill="#E4897B"/>
<path d="M92.6401 335.23L98.7801 339.26L112.34 327.8L106.19 323.78L92.6401 335.23Z" fill="#E4897B"/>
<path d="M99.79 338.87L93.41 333.64C93.2958 333.55 93.155 333.502 93.01 333.502C92.8651 333.502 92.7243 333.55 92.61 333.64L87.35 337.77C87.2228 337.872 87.1201 338.001 87.0496 338.148C86.979 338.295 86.9424 338.456 86.9424 338.62C86.9424 338.783 86.979 338.944 87.0496 339.091C87.1201 339.238 87.2228 339.367 87.35 339.47C89.61 341.25 90.8 342.01 93.61 344.31C95.34 345.73 99.61 350.04 102.02 352C104.43 353.96 106.64 351.85 105.84 350.83C102.25 346.29 100.84 342.4 100.43 339.99C100.362 339.55 100.134 339.151 99.79 338.87Z" fill="#263238"/>
<path d="M165.39 363.59H157.39C157.243 363.589 157.101 363.638 156.986 363.729C156.872 363.82 156.792 363.947 156.76 364.09L155.31 370.62C155.273 370.778 155.273 370.942 155.31 371.099C155.346 371.257 155.418 371.405 155.521 371.53C155.623 371.656 155.753 371.756 155.9 371.824C156.047 371.891 156.208 371.924 156.37 371.92C159.26 371.87 163.44 371.7 167.08 371.7C171.33 371.7 175.01 371.94 179.99 371.94C182.99 371.94 183.85 368.89 182.58 368.61C176.84 367.35 172.14 367.22 167.18 364.16C166.65 363.803 166.029 363.605 165.39 363.59Z" fill="#263238"/>
<path d="M121.66 137.47C115.29 140.52 111.66 160.56 111.66 160.56L127.23 166.78C129.51 161.212 131.352 155.474 132.74 149.62C134.88 140.35 128.18 134.35 121.66 137.47Z" fill="#263238"/>
<path d="M129.92 148.77C126.07 152.67 124.31 160.31 123.54 165.28L127.27 166.77C129.484 161.363 131.289 155.797 132.67 150.12C132.34 148 131.52 147.15 129.92 148.77Z" fill="#203048"/>
<path d="M164.14 137.31C164.14 137.31 171.96 146.14 164.58 200.81H125.29C125.02 194.81 128.81 165.35 122.99 136.93C127.333 136.094 131.726 135.539 136.14 135.27C141.702 134.95 147.278 134.95 152.84 135.27C156.654 135.654 160.433 136.336 164.14 137.31Z" fill="#263238"/>
<path d="M167.73 158.52L161.11 147.11C159.832 152.437 159.31 157.917 159.56 163.39C159.74 167.31 163.33 181.82 166.56 183.94C167.417 175.494 167.808 167.008 167.73 158.52Z" fill="#203048"/>
<path d="M168.65 145.11C169.65 149.97 170.65 154.95 171.72 159.84C172.79 164.73 173.9 169.62 175.19 174.35C175.52 175.51 175.83 176.71 176.19 177.84L176.46 178.69L176.59 179.12C176.588 179.103 176.588 179.086 176.59 179.07C176.52 178.99 176.44 178.98 176.5 179.07C176.908 179.508 177.426 179.829 178 180C178.946 180.351 179.92 180.625 180.91 180.82C185.639 181.559 190.425 181.87 195.21 181.75L196.16 187.18C194.82 187.61 193.57 187.92 192.25 188.23C190.93 188.54 189.63 188.8 188.3 189C185.549 189.463 182.758 189.65 179.97 189.56C178.42 189.518 176.879 189.317 175.37 188.96C173.452 188.544 171.649 187.711 170.09 186.52C169.073 185.697 168.232 184.676 167.62 183.52C167.46 183.23 167.32 182.89 167.19 182.6L167.01 182.12L166.64 181.18C166.13 179.91 165.71 178.66 165.25 177.4C163.56 172.4 162.15 167.4 160.91 162.32C159.67 157.24 158.6 152.25 157.71 147.08L168.65 145.11Z" fill="#E4897B"/>
<path d="M154.33 142.67C152.26 149.38 160.65 169.38 160.65 169.38L177.36 165.18C177.36 165.18 176.72 154.79 172.91 146.54C167.17 134.09 156.81 134.61 154.33 142.67Z" fill="#263238"/>
<path d="M195.09 181.76L203.41 181.56L199.41 190.21C199.41 190.21 196.02 190.66 193.24 186.09L190.31 182.6L193.68 181.92C194.145 181.832 194.617 181.778 195.09 181.76Z" fill="#E4897B"/>
<path d="M208.66 183.17L203.9 190.34L199.41 190.21L203.41 181.56L208.66 183.17Z" fill="#E4897B"/>
<path d="M166.17 347.43L165.79 356.2H158.44L158.82 347.43H166.17Z" fill="#CE6F64"/>
<path d="M106.19 323.78L112.34 327.81L105.34 333.71L99.2002 329.68L106.19 323.78Z" fill="#CE6F64"/>
<path d="M138.26 110.72C138.7 118 138.59 122.28 142.26 126.02C147.78 131.64 156.77 128.32 158.51 121.02C160.08 114.49 159.1 103.68 151.98 100.78C150.41 100.146 148.704 99.9216 147.024 100.127C145.343 100.333 143.742 100.962 142.371 101.955C141 102.949 139.903 104.274 139.184 105.807C138.465 107.34 138.147 109.03 138.26 110.72Z" fill="#E4897B"/>
<path d="M129.7 109.45C131.51 116.08 135.77 123.73 141.28 124.21C148.12 124.82 151.21 117.75 152.11 110.44C156.21 107.63 154.06 104.55 158.17 104.15C163.45 103.65 161.76 93.9899 154.81 92.4399C154.81 92.4399 157.14 96.7899 152.25 94.5999C147.6 92.3868 142.434 91.4877 137.31 91.9999C137.31 91.9999 143.55 95.1199 137.45 96.5099C131.35 97.8999 129.53 101.66 132.34 103.94C132.34 103.94 128.51 105.08 129.7 109.45Z" fill="#263238"/>
<path d="M147.94 111.94C148.077 113.747 148.804 115.458 150.01 116.81C151.61 118.57 153.28 117.47 153.56 115.32C153.82 113.39 153.29 110.14 151.33 109.17C149.37 108.2 147.81 109.76 147.94 111.94Z" fill="#E4897B"/>
<path d="M150.64 200.81C150.64 200.81 157.8 252.66 152.16 273.43C143.22 306.33 109 334.1 109 334.1L97.4102 326.51C97.4102 326.51 126.52 303.06 130.08 275.51C133.28 250.77 125.25 220.87 125.25 200.8L150.64 200.81Z" fill="#407BFF"/>
<path opacity="0.1" d="M150.64 200.81C150.64 200.81 157.8 252.66 152.16 273.43C143.22 306.33 109 334.1 109 334.1L97.4102 326.51C97.4102 326.51 126.52 303.06 130.08 275.51C133.28 250.77 125.25 220.87 125.25 200.8L150.64 200.81Z" fill="black"/>
<path d="M153.6 230.46C151.694 228.276 149.596 226.268 147.33 224.46C148.55 241.29 149.55 266.22 148.44 283.93C149.933 280.532 151.176 277.029 152.16 273.45C154.91 263.29 154.62 245.76 153.6 230.46Z" fill="#407BFF"/>
<path opacity="0.3" d="M153.6 230.46C151.694 228.276 149.596 226.268 147.33 224.46C148.55 241.29 149.55 266.22 148.44 283.93C149.933 280.532 151.176 277.029 152.16 273.45C154.91 263.29 154.62 245.76 153.6 230.46Z" fill="black"/>
<path d="M113.71 331.52C113.76 331.52 109.22 334.52 109.22 334.52L96.5601 326.23L100.56 322.92L113.71 331.52Z" fill="#407BFF"/>
<path opacity="0.3" d="M113.71 331.52C113.76 331.52 109.22 334.52 109.22 334.52L96.5601 326.23L100.56 322.92L113.71 331.52Z" fill="black"/>
<path d="M164.58 200.81C164.58 200.81 175.64 247.71 176.42 270.11C177.3 295.24 168.53 354.5 168.53 354.5H156.08C156.08 354.5 154.55 294.77 154 271.89C153.39 246.94 138.75 200.81 138.75 200.81H164.58Z" fill="#407BFF"/>
<path opacity="0.1" d="M164.58 200.81C164.58 200.81 175.64 247.71 176.42 270.11C177.3 295.24 168.53 354.5 168.53 354.5H156.08C156.08 354.5 154.55 294.77 154 271.89C153.39 246.94 138.75 200.81 138.75 200.81H164.58Z" fill="black"/>
<path d="M170.92 349.54C170.98 349.54 170.22 354.71 170.22 354.71H155.08L154.67 350.1L170.92 349.54Z" fill="#407BFF"/>
<path opacity="0.3" d="M170.92 349.54C170.98 349.54 170.22 354.71 170.22 354.71H155.08L154.67 350.1L170.92 349.54Z" fill="black"/>
<path d="M356 155.73C356.85 156.53 357.52 157.21 358.22 157.98C358.92 158.75 359.58 159.48 360.22 160.25C361.52 161.78 362.74 163.38 363.92 165.01C366.279 168.258 368.375 171.689 370.19 175.27L370.56 175.99C370.737 176.345 370.887 176.713 371.01 177.09C371.251 177.822 371.399 178.581 371.45 179.35C371.515 180.706 371.328 182.062 370.9 183.35C370.169 185.492 369.084 187.497 367.69 189.28C365.177 192.504 362.213 195.35 358.89 197.73L356.4 194.87C357.57 193.51 358.79 192.04 359.88 190.57C360.989 189.146 361.992 187.642 362.88 186.07C363.709 184.699 364.323 183.208 364.7 181.65C364.829 181.093 364.853 180.516 364.77 179.95C364.732 179.757 364.672 179.569 364.59 179.39C364.55 179.315 364.507 179.241 364.46 179.17L364.14 178.64C362.214 175.491 360.121 172.446 357.87 169.52C356.76 168.05 355.57 166.65 354.37 165.25C353.78 164.55 353.17 163.87 352.56 163.25C351.95 162.63 351.29 161.89 350.76 161.35L356 155.73Z" fill="#E4897B"/>
<path d="M357.36 194L349.89 192.78L353.8 199.33C353.8 199.33 358.61 199.16 359.98 196.33L357.36 194Z" fill="#E4897B"/>
<path d="M344.37 195.84L347.93 201.14L353.8 199.35L349.89 192.81L344.37 195.84Z" fill="#E4897B"/>
<path d="M357 364.73C356.492 364.774 355.985 364.636 355.57 364.34C355.443 364.221 355.349 364.07 355.298 363.904C355.248 363.737 355.241 363.56 355.28 363.39C355.289 363.284 355.326 363.181 355.388 363.093C355.449 363.006 355.533 362.936 355.63 362.89C356.5 362.5 358.78 363.97 359.04 364.14C359.069 364.159 359.092 364.186 359.105 364.219C359.118 364.251 359.119 364.287 359.11 364.32C359.105 364.354 359.089 364.385 359.066 364.41C359.043 364.435 359.013 364.453 358.98 364.46C358.331 364.62 357.667 364.71 357 364.73ZM356 363.18C355.927 363.164 355.852 363.164 355.78 363.18C355.72 363.18 355.65 363.25 355.63 363.4C355.602 363.512 355.604 363.629 355.636 363.739C355.668 363.85 355.727 363.95 355.81 364.03C356.19 364.38 357.17 364.42 358.48 364.16C357.727 363.671 356.884 363.338 356 363.18Z" fill="#407BFF"/>
<path d="M359 364.46C358.971 364.47 358.939 364.47 358.91 364.46C358.2 364.05 356.83 362.46 357 361.59C357.031 361.454 357.107 361.331 357.216 361.242C357.324 361.154 357.46 361.104 357.6 361.1C357.734 361.08 357.871 361.09 358.001 361.129C358.131 361.169 358.25 361.238 358.35 361.33C359.17 362.06 359.18 364.21 359.18 364.33C359.178 364.361 359.169 364.39 359.153 364.416C359.137 364.442 359.116 364.464 359.09 364.48C359.058 364.483 359.027 364.476 359 364.46ZM357.72 361.46H357.64C357.42 361.46 357.37 361.59 357.35 361.67C357.25 362.19 358.1 363.4 358.81 363.97C358.827 363.132 358.586 362.308 358.12 361.61C358.062 361.549 357.992 361.501 357.915 361.468C357.837 361.436 357.754 361.419 357.67 361.42L357.72 361.46Z" fill="#407BFF"/>
<path d="M322.92 364.73C322.282 364.786 321.644 364.624 321.11 364.27C320.988 364.163 320.895 364.028 320.837 363.876C320.78 363.724 320.76 363.561 320.78 363.4C320.787 363.303 320.818 363.21 320.871 363.128C320.923 363.046 320.995 362.978 321.08 362.93C322.01 362.42 324.99 363.93 325.33 364.13C325.361 364.148 325.386 364.174 325.402 364.207C325.418 364.239 325.424 364.275 325.42 364.31C325.413 364.346 325.397 364.379 325.372 364.406C325.347 364.432 325.315 364.451 325.28 364.46C324.504 364.625 323.713 364.716 322.92 364.73ZM321.59 363.18C321.477 363.175 321.364 363.196 321.26 363.24C321.224 363.257 321.194 363.284 321.172 363.318C321.151 363.352 321.14 363.391 321.14 363.43C321.124 363.534 321.133 363.641 321.168 363.74C321.203 363.84 321.262 363.929 321.34 364C321.8 364.41 323.03 364.48 324.69 364.21C323.724 363.69 322.675 363.342 321.59 363.18Z" fill="#407BFF"/>
<path d="M325.25 364.46H325.17C324.28 364.05 322.51 362.46 322.65 361.59C322.65 361.39 322.83 361.14 323.32 361.09C323.498 361.066 323.68 361.081 323.852 361.133C324.025 361.184 324.184 361.272 324.32 361.39C325.26 362.18 325.44 364.2 325.44 364.28C325.444 364.311 325.439 364.342 325.427 364.37C325.415 364.398 325.395 364.422 325.37 364.44C325.333 364.46 325.291 364.467 325.25 364.46ZM323.46 361.46H323.35C323.03 361.46 323.01 361.62 323 361.66C322.92 362.17 324.12 363.45 325 364C324.917 363.144 324.567 362.336 324 361.69C323.857 361.54 323.666 361.445 323.46 361.42V361.46Z" fill="#407BFF"/>
<path d="M337.07 132.74C336.78 137.26 336 146.45 339.47 148.99C339.47 148.99 338.84 153.62 330.65 154.69C321.65 155.87 325.76 150.78 325.76 150.78C330.53 148.96 329.92 145.33 328.62 142.02L337.07 132.74Z" fill="#E4897B"/>
<path d="M318.44 124.75C318.39 124.75 318.341 124.739 318.296 124.719C318.252 124.698 318.212 124.668 318.18 124.63C317.893 124.291 317.531 124.025 317.123 123.851C316.715 123.677 316.272 123.602 315.83 123.63C315.783 123.639 315.735 123.637 315.689 123.627C315.642 123.616 315.599 123.596 315.56 123.568C315.522 123.54 315.49 123.504 315.465 123.464C315.441 123.423 315.426 123.377 315.42 123.33C315.408 123.235 315.434 123.139 315.492 123.062C315.55 122.986 315.635 122.935 315.73 122.92C316.294 122.875 316.861 122.966 317.383 123.185C317.905 123.404 318.367 123.745 318.73 124.18C318.795 124.249 318.832 124.34 318.832 124.435C318.832 124.53 318.795 124.621 318.73 124.69C318.644 124.745 318.54 124.767 318.44 124.75Z" fill="#263238"/>
<path d="M316.88 129.18C316.526 130.618 315.977 132.001 315.25 133.29C315.585 133.467 315.954 133.57 316.332 133.59C316.71 133.611 317.088 133.55 317.44 133.41L316.88 129.18Z" fill="#DE5753"/>
<path d="M317.28 128.08C317.36 128.68 317.11 129.21 316.72 129.26C316.33 129.31 315.94 128.87 315.87 128.26C315.8 127.65 316.04 127.13 316.43 127.08C316.82 127.03 317.21 127.48 317.28 128.08Z" fill="#263238"/>
<path d="M316.61 127.1L315.12 126.87C315.12 126.87 316 127.9 316.61 127.1Z" fill="#263238"/>
<path d="M333.49 364.29H325.99L325.49 346.93H332.99L333.49 364.29Z" fill="#E4897B"/>
<path d="M367.54 364.29H360.04L357.63 346.93H365.13L367.54 364.29Z" fill="#E4897B"/>
<path d="M359.58 363.42H368C368.143 363.419 368.282 363.47 368.391 363.564C368.5 363.658 368.57 363.788 368.59 363.93L369.59 370.59C369.608 370.759 369.591 370.929 369.539 371.09C369.486 371.251 369.401 371.399 369.288 371.524C369.174 371.65 369.036 371.75 368.881 371.818C368.726 371.887 368.559 371.921 368.39 371.92C365.46 371.87 364.04 371.7 360.34 371.7C358.06 371.7 354.73 371.94 351.59 371.94C348.45 371.94 348.28 368.83 349.59 368.54C355.46 367.28 356.39 365.54 358.36 363.88C358.704 363.595 359.133 363.433 359.58 363.42Z" fill="#263238"/>
<path d="M325.74 363.42H334.15C334.295 363.416 334.437 363.466 334.547 363.56C334.658 363.654 334.73 363.786 334.75 363.93L335.75 370.59C335.768 370.758 335.751 370.928 335.699 371.089C335.647 371.25 335.561 371.398 335.448 371.524C335.334 371.65 335.196 371.75 335.041 371.818C334.886 371.886 334.719 371.921 334.55 371.92C331.62 371.87 330.2 371.7 326.5 371.7C324.22 371.7 319.5 371.94 316.36 371.94C313.22 371.94 313.05 368.83 314.36 368.54C320.23 367.28 322.54 365.54 324.52 363.88C324.864 363.595 325.293 363.433 325.74 363.42Z" fill="#263238"/>
<path d="M325.49 346.94L325.75 355.88H333.25L332.99 346.94H325.49Z" fill="#CE6F64"/>
<path d="M365.13 346.94H357.63L358.88 355.88H366.37L365.13 346.94Z" fill="#CE6F64"/>
<path d="M337.17 123.39C337.68 130.81 338.05 133.94 334.83 138.2C329.98 144.62 320.76 143.62 318.04 136.5C315.59 130.1 315.17 119.04 321.99 115.17C323.49 114.308 325.185 113.843 326.916 113.821C328.646 113.798 330.353 114.219 331.874 115.043C333.396 115.867 334.681 117.067 335.608 118.528C336.535 119.989 337.073 121.663 337.17 123.39Z" fill="#E4897B"/>
<path d="M341.49 130.28C345.65 132.6 348.74 126.87 348.74 126.87C348.74 126.87 341.28 127.68 341.95 123.24C342.83 117.36 338.61 110.24 328.03 111.11C327.44 111.11 326.88 111.24 326.33 111.33C325.223 110.804 323.971 110.667 322.777 110.941C321.583 111.215 320.516 111.884 319.75 112.84C316.75 113.09 312.7 116.68 315.45 121.4C315.642 120.859 315.941 120.363 316.33 119.94C316.56 122.7 318.98 127.1 322 127.39C322.65 131.19 320.13 135.58 321 139.53C322.29 145.24 331.92 146.53 331.92 146.53C331.587 145.819 331.463 145.028 331.563 144.249C331.662 143.47 331.98 142.736 332.48 142.13C339.02 145.13 343.33 142.2 343.33 142.2C338.87 140.53 340.22 137.57 340.22 137.57C341.758 138.257 343.503 138.32 345.087 137.746C346.671 137.171 347.97 136.004 348.71 134.49C347.229 134.558 345.76 134.197 344.479 133.45C343.198 132.703 342.16 131.603 341.49 130.28Z" fill="#263238"/>
<path d="M324.61 128.53C324.627 129.242 324.504 129.951 324.247 130.615C323.989 131.279 323.603 131.886 323.11 132.4C321.79 133.77 320.17 132.82 319.73 131.06C319.34 129.48 319.56 126.87 321.28 126.16C321.658 126.012 322.066 125.96 322.469 126.009C322.872 126.059 323.256 126.208 323.587 126.443C323.917 126.679 324.184 126.993 324.363 127.357C324.541 127.721 324.626 128.125 324.61 128.53Z" fill="#E4897B"/>
<path d="M330.84 197.67C330.84 197.67 332.74 247.02 337.26 276.01C340.9 299.42 357.07 354.15 357.07 354.15H367.29C367.29 354.15 358.86 301.3 357.01 278.15C352.33 219.55 364.48 206.97 353.01 194.77L330.84 197.67Z" fill="#263238"/>
<path d="M339.38 213.27C339.38 213.27 334.76 212.47 332.06 221.27C333.06 237.94 334.77 260.06 337.26 276C337.81 279.55 338.65 283.83 339.68 288.52C337.73 260.36 339.38 213.27 339.38 213.27Z" fill="#161F33"/>
<path d="M322.87 198.71C322.87 198.71 314.45 253.31 314.94 276.17C315.45 299.94 324.16 354.17 324.16 354.17H334.29C334.29 354.17 332.69 301.35 333.58 278C334.58 252.55 344.97 195.84 344.97 195.84L322.87 198.71Z" fill="#263238"/>
<path d="M368.77 354.62H355.18L354.12 350.06L368.67 350.17L368.77 354.62Z" fill="#407BFF"/>
<path opacity="0.2" d="M368.77 354.62H355.18L354.12 350.06L368.67 350.17L368.77 354.62Z" fill="black"/>
<path d="M352.5 149C356.41 149.37 362.35 160.48 362.35 160.48L352.48 168.06C352.48 168.06 344.31 160.89 345.28 156.86C346.29 152.66 348.75 148.64 352.5 149Z" fill="#407BFF"/>
<path opacity="0.1" d="M352.5 149C356.41 149.37 362.35 160.48 362.35 160.48L352.48 168.06C352.48 168.06 344.31 160.89 345.28 156.86C346.29 152.66 348.75 148.64 352.5 149Z" fill="black"/>
<path d="M349.55 153.77C348.553 153.502 347.521 153.387 346.49 153.43C345.965 154.524 345.559 155.67 345.28 156.85C344.28 160.85 352.48 168.05 352.48 168.05L353.21 167.49L349.55 153.77Z" fill="#407BFF"/>
<path opacity="0.3" d="M349.55 153.77C348.553 153.502 347.521 153.387 346.49 153.43C345.965 154.524 345.559 155.67 345.28 156.85C344.28 160.85 352.48 168.05 352.48 168.05L353.21 167.49L349.55 153.77Z" fill="black"/>
<path d="M319.52 164.44C316.67 171.66 313.67 178.98 311.28 186.22C311.12 186.67 310.99 187.12 310.85 187.57L310.51 188.68C310.415 189.007 310.415 189.354 310.51 189.68C311.074 190.931 311.97 192.003 313.1 192.78C316.087 194.929 319.345 196.674 322.79 197.97L321.89 201.66C317.654 201.098 313.559 199.759 309.81 197.71C307.5 196.485 305.62 194.584 304.42 192.26C303.729 190.772 303.49 189.114 303.73 187.49C303.73 187.29 303.79 187.1 303.83 186.9L303.93 186.49L304.1 185.73C304.22 185.22 304.34 184.73 304.47 184.22C305.47 180.22 306.75 176.43 308.1 172.65C309.45 168.87 310.86 165.17 312.45 161.46L319.52 164.44Z" fill="#E4897B"/>
<path d="M313.45 154.33C313.45 154.33 310.07 156.04 322.87 198.71L353.05 194.71C350.93 182.49 349.93 174.92 352.5 148.95C348.172 148.634 343.827 148.634 339.5 148.95C334.893 149.22 330.311 149.818 325.79 150.74C320 152.09 313.45 154.33 313.45 154.33Z" fill="#407BFF"/>
<path opacity="0.1" d="M313.45 154.33C313.45 154.33 310.07 156.04 322.87 198.71L353.05 194.71C350.93 182.49 349.93 174.92 352.5 148.95C348.172 148.634 343.827 148.634 339.5 148.95C334.893 149.22 330.311 149.818 325.79 150.74C320 152.09 313.45 154.33 313.45 154.33Z" fill="black"/>
<path d="M353.27 192.93L354.98 195.45C355.11 195.65 354.89 195.9 354.55 195.94L322.9 200.08C322.63 200.08 322.38 200.01 322.34 199.85L321.72 197.18C321.67 196.99 321.89 196.81 322.19 196.77L352.75 192.77C352.843 192.75 352.94 192.754 353.031 192.782C353.122 192.81 353.205 192.861 353.27 192.93Z" fill="#407BFF"/>
<path opacity="0.2" d="M353.27 192.93L354.98 195.45C355.11 195.65 354.89 195.9 354.55 195.94L322.9 200.08C322.63 200.08 322.38 200.01 322.34 199.85L321.72 197.18C321.67 196.99 321.89 196.81 322.19 196.77L352.75 192.77C352.843 192.75 352.94 192.754 353.031 192.782C353.122 192.81 353.205 192.861 353.27 192.93Z" fill="black"/>
<path d="M349.61 196.88L350.43 196.78C350.59 196.78 350.7 196.66 350.68 196.55L349.84 193.1C349.84 192.99 349.66 192.93 349.5 192.95L348.68 193.06C348.51 193.06 348.4 193.18 348.43 193.28L349.27 196.74C349.29 196.84 349.45 196.91 349.61 196.88Z" fill="#263238"/>
<path d="M329.77 199.48L330.59 199.37C330.75 199.37 330.87 199.25 330.84 199.15L330 195.69C329.968 195.631 329.917 195.585 329.855 195.559C329.793 195.534 329.724 195.531 329.66 195.55L328.84 195.65C328.68 195.65 328.56 195.77 328.59 195.88L329.43 199.33C329.45 199.44 329.61 199.5 329.77 199.48Z" fill="#263238"/>
<path d="M314.86 168.8C315.69 172.66 316.86 177.55 318.57 183.74L318.94 168.05L314.86 168.8Z" fill="#407BFF"/>
<path opacity="0.3" d="M314.86 168.8C315.69 172.66 316.86 177.55 318.57 183.74L318.94 168.05L314.86 168.8Z" fill="black"/>
<path d="M313.45 154.33C309.7 155.83 306.45 168.67 306.45 168.67L319.35 174.94C319.35 174.94 325.58 159.25 322.79 156.19C320 153.13 317.77 152.59 313.45 154.33Z" fill="#407BFF"/>
<path opacity="0.1" d="M313.45 154.33C309.7 155.83 306.45 168.67 306.45 168.67L319.35 174.94C319.35 174.94 325.58 159.25 322.79 156.19C320 153.13 317.77 152.59 313.45 154.33Z" fill="black"/>
<path d="M336.02 354.62H322.43L321.37 350.06L336.5 350.17L336.02 354.62Z" fill="#407BFF"/>
<path opacity="0.2" d="M336.02 354.62H322.43L321.37 350.06L336.5 350.17L336.02 354.62Z" fill="black"/>
<path d="M323 196.72L321.91 196.27C321.642 196.161 321.35 196.125 321.063 196.165C320.777 196.206 320.506 196.321 320.279 196.5C320.051 196.679 319.875 196.914 319.768 197.183C319.661 197.452 319.627 197.744 319.67 198.03L320.46 203.24C320.498 203.501 320.593 203.75 320.739 203.969C320.885 204.189 321.078 204.373 321.303 204.509C321.529 204.645 321.782 204.729 322.045 204.755C322.307 204.781 322.571 204.749 322.82 204.66C323.218 204.52 323.59 204.313 323.92 204.05C324.281 203.75 324.567 203.37 324.755 202.939C324.943 202.508 325.026 202.039 325 201.57L324.89 199.41C324.863 198.828 324.671 198.266 324.337 197.79C324.002 197.313 323.538 196.942 323 196.72Z" fill="#E4897B"/>
</svg>
