<svg width="667" height="214" viewBox="0 0 667 214" fill="none" xmlns="http://www.w3.org/2000/svg">
<path d="M560.248 186.16C605.727 181.137 645.025 146.542 658.238 121.931C681.866 77.8379 656.989 29.7865 592.316 22.4376C527.642 15.0888 511.49 46.7471 398.311 26.3958C339.581 15.8359 274.038 -5.49957 207.073 1.31771C120.478 10.1464 163.443 49.758 130.893 75.5751C85.375 111.678 -16.2731 95.4404 2.35272 150.472C22.5006 210 97.8899 215.906 154 210C238.5 201.105 268.447 202.651 355.5 210C396.135 213.427 429.291 219.171 485.5 204C510.632 197.217 528.164 189.704 560.248 186.16Z" fill="url(#paint0_linear)"/>
<path d="M465.105 90.0089C465.105 90.0089 461.1 94.0561 459.016 95.0349C456.931 96.0137 452.91 99.357 452.91 99.357L454.3 105.081C454.3 105.081 460.821 102.15 463.053 102.15C465.285 102.15 467.495 100.501 467.495 100.501C467.495 100.501 467.03 89.8714 465.105 90.0089Z" fill="#00B94E"/>
<path d="M479.144 192.332C493.976 192.332 506 189.659 506 186.36C506 183.062 493.976 180.389 479.144 180.389C464.311 180.389 452.287 183.062 452.287 186.36C452.287 189.659 464.311 192.332 479.144 192.332Z" fill="#729BEA"/>
<path d="M439.437 188.241C445.809 188.241 450.975 187.094 450.975 185.679C450.975 184.263 445.809 183.116 439.437 183.116C433.064 183.116 427.898 184.263 427.898 185.679C427.898 187.094 433.064 188.241 439.437 188.241Z" fill="#729BEA"/>
<path d="M478.613 64.7634C480.148 64.1022 481.877 64.0589 483.443 64.6424C486.272 65.5937 487.218 67.6063 487.333 69.9764C487.359 71.7399 487.891 73.4584 488.865 74.9254C489.691 76.2286 489.806 77.1799 489.806 81.2051C489.806 85.2303 487.689 86.539 487.924 87.8368C488.159 89.1345 492.52 90.8007 493.225 94.1165C493.931 97.4323 491.343 98.3837 490.988 100.275C490.632 102.167 491.814 103.575 491.223 105.725C490.632 107.875 488.63 110.58 484.269 110.822C479.909 111.064 475.904 103.355 472.6 99.5659C469.296 95.7772 466.708 91.9829 467.178 88.4306C467.649 84.8784 470.248 84.6419 470.248 82.0354C470.248 79.429 467.512 77.4164 468.606 74.5734C469.701 71.7305 470.609 71.967 471.2 69.124C471.79 66.2811 474.132 64.8789 478.613 64.7634Z" fill="#B57053"/>
<path d="M463.557 117.745C463.557 117.745 459.875 141.308 460.428 148.539C460.98 155.77 468.951 181.17 468.951 181.17C468.951 181.17 463.688 184.32 463.562 185.569C463.344 187.73 471.84 183.798 472.119 182.132C472.398 180.466 468.793 157.013 469.575 150.293C469.827 148.154 470.806 143.046 471.079 141.099C471.353 139.152 473.224 130.701 473.224 130.701C473.224 130.701 477.568 149.452 479.242 153.065C480.916 156.677 486.004 166.097 490.9 174.609C491.997 176.616 492.93 178.709 493.69 180.867C493.69 180.867 493.379 188.637 494.522 189.115C496.453 189.902 496.738 181.89 496.738 181.054C496.738 180.218 494.828 176.006 492.908 166.828C490.988 157.651 487.793 153.257 487.514 150.2C487.235 147.142 486.846 124.239 485.161 119.147C483.476 114.056 465.505 113.407 463.557 117.745Z" fill="#DA5955"/>
<path d="M472.119 182.137V182.11C471.003 182.058 469.915 181.733 468.952 181.164C468.952 181.164 463.689 184.315 463.563 185.563C463.344 187.735 471.84 183.804 472.119 182.137Z" fill="#393762"/>
<path d="M493.691 180.867C493.691 180.867 493.379 188.637 494.523 189.115C496.454 189.902 496.738 181.89 496.738 181.054C494.419 182.451 493.691 180.867 493.691 180.867Z" fill="#393762"/>
<path d="M485.085 118.73C483.99 112.84 483.29 111.878 483.29 111.158C483.29 110.437 485.588 99.7474 485.588 99.7474C485.588 99.7474 490.588 98.2022 487.864 90.9492C487.103 88.9421 480.205 86.9845 478.29 86.6216C476.375 86.2587 471.593 86.8635 471.593 86.8635C471.593 86.8635 465.849 89.0246 465.132 89.9869C464.416 90.9492 465.132 94.5565 465.132 96.1182C465.132 97.6799 465.373 97.6854 465.132 98.2847C464.892 98.8841 463.699 99.9674 463.819 102.376C463.94 104.784 465.253 107.061 465.373 108.628C465.46 109.794 464.547 113.11 463.584 117.723C465.329 118.823 468.349 120.082 473.027 120.291C477.109 120.415 481.191 120.014 485.172 119.098C485.123 118.994 485.106 118.867 485.085 118.73Z" fill="#E69D35"/>
<path d="M474.319 79.7315C474.319 79.7315 474.674 80.8312 473.482 84.0591C472.289 87.2869 472.524 92.9618 473.958 92.4779C475.391 91.994 478.148 86.5886 478.504 84.1801C478.859 81.7716 479.221 78.7692 479.221 78.7692L474.319 79.7315Z" fill="#F2957E"/>
<path d="M484.38 75.1563C484.38 75.1563 484.21 75.4588 483.679 71.0432C483.088 66.0942 479.811 66.2701 475.785 66.0942C473.427 65.9732 473.345 68.0958 472.721 70.4933C472.097 72.8908 471.545 75.5853 471.545 75.5853C471.089 76.4368 470.808 77.3718 470.719 78.3347C470.901 80.3545 471.457 82.3222 472.36 84.136C472.716 84.7299 473.306 85.2028 474.718 85.2028C479.549 84.3725 482.377 79.5994 482.377 79.5994C482.377 79.5994 483.745 80.6992 485.113 78.7251C486.48 76.751 486.497 74.5295 484.38 75.1563Z" fill="#F6BA99"/>
<path d="M473.869 80.7212L474.46 81.0236" stroke="#333333" stroke-width="0.5" stroke-miterlimit="10" stroke-linecap="round"/>
<path d="M475.905 68.9096C475.905 68.9096 474.132 67.8428 473.17 69.0251C472.207 70.2073 472.343 72.4619 471.993 73.1712C471.643 73.8806 470.576 75.4258 470.576 75.4258C470.576 75.4258 471.282 73.0557 470.697 71.1586C470.111 69.2615 469.635 66.3031 471.523 64.7634C473.41 63.2237 477.65 64.0541 479.062 65.2363C480.473 66.4186 475.905 68.9096 475.905 68.9096Z" fill="#B57053"/>
<path d="M475.904 68.9096C475.904 68.9096 477.671 68.7886 478.492 71.3951C479.313 74.0016 480.5 77.6748 482.267 78.9781C484.034 80.2813 484.149 80.6278 483.328 82.7668C482.508 84.9059 481.687 85.7307 482.147 87.3859C482.606 89.0411 486.523 89.5195 486.523 89.5195C486.523 89.5195 484.882 87.2704 485.582 85.7307C486.283 84.191 488.646 81.1117 488.055 78.5052C487.464 75.8987 484.991 75.4258 485.227 73.6442C485.462 71.8625 487.234 69.245 486.053 67.1335C484.871 65.0219 482.163 65.5938 480.866 64.9999C479.57 64.406 476.49 64.0541 475.904 68.9096Z" fill="#B57053"/>
<path d="M475.905 68.9096C475.905 68.9096 475.55 71.868 476.961 73.5286C477.355 74.0008 477.866 74.3592 478.443 74.567C479.02 74.7747 479.641 74.8244 480.244 74.7109C480.244 74.7109 477.295 74.0015 477.415 71.1586C477.535 68.3157 476.469 67.2489 476.469 67.2489L475.905 68.9096Z" fill="#B57053"/>
<path d="M475.194 68.7887C475.194 68.7887 474.488 68.4368 473.662 69.74C472.836 71.0432 472.721 72.1045 472.131 72.8194C471.54 73.5342 470.008 73.6442 470.008 73.6442C470.008 73.6442 471.425 73.1713 471.78 71.0432C472.136 68.9152 473.192 67.7439 474.609 67.7439" fill="#B57053"/>
<path d="M470.128 67.8428C470.128 67.8428 471.19 70.2128 470.249 71.2796C469.63 71.9293 468.785 72.3118 467.891 72.3464C468.4 73.0406 469.16 73.5064 470.008 73.6441C471.304 73.7651 472.743 70.8012 472.743 70.8012" fill="#B57053"/>
<path d="M475.15 76.85C475.15 76.85 475.15 78.0212 474.329 78.1422C473.508 78.2632 474.679 79.198 474.679 79.198" stroke="#333333" stroke-width="0.5" stroke-miterlimit="10"/>
<path d="M478.246 77.488C478.142 78.0048 477.902 78.3898 477.699 78.3513C477.497 78.3128 477.442 77.8619 477.551 77.345C477.661 76.8281 477.902 76.4377 478.099 76.4817C478.295 76.5256 478.356 76.9931 478.246 77.488Z" fill="#333333"/>
<path d="M474.04 76.2011C473.936 76.718 473.69 77.1029 473.493 77.0644C473.296 77.0259 473.236 76.575 473.345 76.0581C473.455 75.5412 473.695 75.1508 473.892 75.1948C474.089 75.2388 474.149 75.6842 474.04 76.2011Z" fill="#333333"/>
<path d="M472.875 74.1335C472.875 74.1335 473.925 73.0338 474.79 74.26" stroke="#333333" stroke-width="0.75" stroke-miterlimit="10" stroke-linecap="round"/>
<path d="M477.508 75.1893C477.654 75.1054 477.818 75.0566 477.987 75.0469C478.155 75.0371 478.324 75.0667 478.479 75.1333C478.634 75.1998 478.772 75.3016 478.882 75.4305C478.991 75.5595 479.07 75.7122 479.111 75.8767" stroke="#333333" stroke-width="0.75" stroke-miterlimit="10" stroke-linecap="round"/>
<path d="M447.583 84.4384C447.583 84.4384 446.391 93.3631 446.921 98.0262C447.452 102.689 450.636 104.427 452.228 103.228C453.82 102.029 453.683 95.6287 452.89 91.631C452.097 87.6333 451.429 84.8344 450.767 83.6356C450.105 82.4368 448.114 81.7715 447.583 84.4384Z" fill="#F6BA99"/>
<path d="M438.801 83.3772C438.801 83.3772 442.018 85.1039 443.872 85.3678C445.727 85.6317 449.573 84.301 449.573 84.301C448.577 83.6675 447.435 83.302 446.258 83.2397C444.534 83.2397 440.557 82.4369 439.764 82.4369C438.97 82.4369 438.801 83.3772 438.801 83.3772Z" fill="#F6BA99"/>
<path d="M429.347 124.674V121.226C429.347 103.492 451.69 102.728 451.69 90.0914C451.69 84.5925 447.248 81.0347 440.644 81.0347C433.406 81.0347 428.838 84.9884 428.838 90.6028V92.005C428.838 93.4127 428.078 94.0506 426.683 94.0506L413.098 93.5392C411.829 93.5392 410.938 92.9013 410.938 92.005V90.6028C410.938 75.1619 423.127 64.5765 441.027 64.5765C458.534 64.5765 469.842 74.524 469.842 89.4535C469.842 110.635 447.122 110.762 447.122 122.375V124.674C447.122 126.076 446.356 126.841 444.961 126.841H431.503C430.107 126.841 429.347 126.076 429.347 124.674ZM428.204 145.212C428.204 139.603 433.155 135.006 439.145 135.006C444.857 135.006 449.934 139.603 449.934 145.212C449.934 150.821 444.857 155.424 438.992 155.424C433.029 155.424 428.204 150.832 428.204 145.212Z" fill="#82819C"/>
<path d="M429.347 126.351V122.903C429.347 105.169 451.669 104.432 451.669 91.785C451.669 86.2861 447.226 82.7283 440.623 82.7283C433.385 82.7283 428.817 86.6821 428.817 92.2964V93.6986C428.817 95.1064 428.056 95.7442 426.661 95.7442L413.077 95.2328C411.808 95.2328 410.916 94.595 410.916 93.6986V92.2799C410.916 76.839 423.105 66.2537 441.006 66.2537C458.513 66.2537 469.821 76.2012 469.821 91.1307C469.821 112.312 447.1 112.439 447.1 124.053V126.351C447.1 127.753 446.334 128.518 444.939 128.518H431.481C430.108 128.518 429.347 127.753 429.347 126.351ZM428.204 146.889C428.204 141.281 433.155 136.683 439.146 136.683C444.857 136.683 449.934 141.281 449.934 146.889C449.934 152.498 444.857 157.101 438.993 157.101C433.029 157.101 428.204 152.509 428.204 146.889Z" fill="#393762"/>
<path d="M488.028 92.2854C488.028 92.2854 487 89.9154 483.903 91.1032C480.807 92.2909 476.835 100.583 473.005 102.233C469.176 103.883 460.335 107.858 457.977 109.491C455.619 111.125 445.011 114.523 445.011 114.523L442.368 113.467C442.368 113.467 440.021 112.626 439.934 113.115C439.846 113.605 440.776 114.308 441.794 114.715L440.153 114.908C439.414 114.99 438.67 114.952 437.931 115.051C437.604 115.049 437.283 115.142 437.007 115.32C436.744 115.584 436.744 116.052 437.187 116.052C437.926 116.052 440.021 116.272 440.021 116.272L437.286 116.821C437.143 116.872 437.025 116.975 436.956 117.11C436.887 117.245 436.872 117.401 436.914 117.547C436.954 117.686 437.043 117.805 437.163 117.884C437.284 117.962 437.428 117.995 437.57 117.976C437.57 117.976 443.249 116.662 438.665 118.268C438.068 118.477 437.57 118.631 437.74 119.246C437.992 120.187 440.919 118.834 441.57 118.669C441.094 118.884 440.623 119.115 440.158 119.356C439.945 119.466 439.316 119.67 439.234 119.906C439.091 120.302 439.693 120.638 440.027 120.544C440.272 120.442 440.508 120.319 440.733 120.176L442.921 119.032C444.267 118.328 445.616 117.628 446.969 116.931C450.69 116.03 460.187 113.775 463.71 113.302C468.131 112.708 474.909 110.041 477.267 109.008C479.625 107.974 485.517 101.601 487.432 98.4937C487.989 97.5704 488.332 96.5328 488.435 95.458C488.538 94.3832 488.399 93.2988 488.028 92.2854Z" fill="#F6BA99"/>
<path d="M487.438 98.5102C487.996 97.5844 488.34 96.5437 488.442 95.4658C488.544 94.3879 488.403 93.3007 488.029 92.2854C488.029 92.2854 487 89.9154 483.904 91.1032C480.807 92.2909 476.835 100.583 473.006 102.233C470.057 103.487 464.159 106.137 460.516 108.034L462.288 113.572C462.835 113.473 463.322 113.396 463.722 113.341C468.142 112.747 474.92 110.08 477.278 109.046C479.636 108.012 485.523 101.617 487.438 98.5102Z" fill="#E9A94D"/>
<path d="M439.71 81.1832C439.71 81.1832 438.123 83.1738 438.802 83.3827C439.48 83.5917 440.273 81.6891 440.388 81.2876C440.503 80.8862 440.18 80.8862 439.71 81.1832Z" fill="#F6BA99"/>
<path d="M440.958 80.7048C440.958 80.7048 439.103 83.3718 439.897 83.6357C440.69 83.8996 441.62 81.3701 441.751 80.8368C441.882 80.3034 441.489 80.3034 440.958 80.7048Z" fill="#F6BA99"/>
<path d="M442.018 80.8367C442.018 80.8367 440.158 83.5037 440.957 83.7676C441.756 84.0316 442.68 81.5076 442.812 80.9742C442.943 80.4408 442.549 80.4408 442.018 80.8367Z" fill="#F6BA99"/>
<path d="M443.079 81.3701C443.079 81.3701 441.219 84.0371 442.018 84.301C442.816 84.565 443.741 82.0355 443.872 81.5076C444.004 80.9797 443.604 80.9742 443.079 81.3701Z" fill="#F6BA99"/>
<path d="M212.905 193.559C219.278 193.559 224.443 192.411 224.443 190.996C224.443 189.581 219.278 188.434 212.905 188.434C206.533 188.434 201.367 189.581 201.367 190.996C201.367 192.411 206.533 193.559 212.905 193.559Z" fill="#729BEA"/>
<path d="M192.74 66.578C191.475 66.0637 190.119 65.8144 188.755 65.8456C187.391 65.8768 186.048 66.1878 184.808 66.7595C180.573 68.7116 178.281 73.5011 179.884 75.9811C181.487 78.4612 182.001 80.9302 179.884 82.0299C177.767 83.1297 172.826 83.2727 170.884 86.9789C168.942 90.6852 173.707 95.6727 173.707 97.8008C173.707 99.9288 170.884 99.7529 169.648 104.19C168.411 108.628 170.354 113.412 179.178 113.946C188.003 114.479 191.006 107.028 191.887 103.3C192.768 99.5714 190.65 93.9021 192.434 92.3019C194.217 90.7017 197.019 88.7551 197.199 85.2083C197.38 81.6615 194.901 75.6292 194.726 72.4344C194.551 69.2395 194.551 67.9968 194.551 67.9968L193.49 66.9355L192.74 66.578Z" fill="#393762"/>
<path d="M199.294 90.1958C199.294 90.1958 200.147 89.5249 201.345 91.62C202.543 93.7151 205.361 101.43 207.237 103.921C209.114 106.412 211.499 109.684 211.499 109.684C211.499 109.684 208.911 110.674 207.604 112.252C206.296 113.83 206.143 114.556 206.143 114.556C204.166 112.245 202.51 109.676 201.219 106.918C199.42 102.467 198.117 97.8283 197.335 93.0882C196.969 90.2233 198.911 89.8494 198.911 89.8494L199.294 90.1958Z" fill="#68ADDB"/>
<path d="M186.81 192.195C202.721 192.195 215.619 189.703 215.619 186.63C215.619 183.557 202.721 181.065 186.81 181.065C170.898 181.065 158 183.557 158 186.63C158 189.703 170.898 192.195 186.81 192.195Z" fill="#729BEA"/>
<path d="M178.455 143.26C178.455 143.26 179.117 147.659 178.783 148.209C178.449 148.759 174.253 155.215 172.71 159.526C171.167 163.837 167.573 176.385 166.911 179.151C166.249 181.917 164.493 184.232 164.936 185.448C165.379 186.663 171.528 190.749 172.409 190.639C173.29 190.529 172.847 189.313 172.081 187.339C171.315 185.365 169.001 182.814 169.22 181.043C169.439 179.272 177.027 165.47 179.664 161.709C182.301 157.948 183.712 154.307 185.047 151.212C186.042 148.623 186.851 145.966 187.465 143.26H178.455Z" fill="#F6BA99"/>
<path d="M169.943 183.501L167.793 184.463L165.987 181.802C165.314 183.375 164.647 184.656 164.937 185.459C165.374 186.674 171.529 190.76 172.41 190.65C173.291 190.54 172.848 189.324 172.082 187.35C171.622 186.157 170.632 184.793 169.943 183.501Z" fill="#393762"/>
<path d="M194.721 144.365C195.166 146.251 195.381 148.185 195.361 150.123C195.361 153.549 197.686 163.584 197.795 168.335C197.905 173.086 199.004 178.387 198.676 180.378C198.348 182.368 198.457 183.127 198.786 183.248C199.114 183.369 209.229 183.798 209.886 183.248C210.542 182.698 211.204 182.918 210.657 182.148C210.11 181.379 202.084 177.749 202.084 176.847C202.084 175.946 202.084 162.484 202.303 157.051C202.522 151.619 203.075 146.224 202.632 143.794C202.188 141.363 194.721 144.365 194.721 144.365Z" fill="#F6BA99"/>
<path d="M188.456 88.6892C188.456 88.6892 181.092 90.0144 180.977 90.6853C180.862 91.3561 182.515 102.728 183.614 105.598C184.714 108.469 184.604 108.474 184.052 111.235C183.499 113.995 180.222 118.081 178.778 125.708C177.334 133.335 177.137 143.931 177.137 144.404C177.137 144.877 181.973 147.153 190.655 146.604C199.338 146.054 203.184 144.508 203.621 143.733C204.059 142.958 201.094 121.419 200.213 117.773C199.332 114.127 198.347 109.233 199.031 107.468C199.715 105.703 201.012 104.169 201.121 101.722C201.23 99.2745 199.255 95.7552 199.365 94.1001C199.474 92.4449 200.793 91.7795 200.021 90.3443C199.25 88.9091 195.645 88.1448 193.538 88.1448C191.833 88.1996 190.134 88.3815 188.456 88.6892Z" fill="#7EB9F5"/>
<path d="M191.421 86.3687C191.421 86.3687 188.347 86.6986 187.592 87.9138C186.837 89.1291 187.592 94.7655 188.139 95.9807C188.686 97.196 191.531 93.4347 192.63 93.4347C193.73 93.4347 195.601 95.7498 196.257 94.8699C196.914 93.9901 196.81 87.9358 191.421 86.3687Z" fill="white"/>
<path d="M200.765 74.436C200.765 74.436 201.313 69.9104 197.483 67.6998C193.653 65.4893 189.681 66.6001 187.045 69.465C184.408 72.3299 185.726 78.8571 186.601 80.5123C187.477 82.1674 189.791 82.6128 190.338 83.7181C190.885 84.8234 190.562 86.1486 190.01 87.8038C189.457 89.459 191.755 93.4347 192.63 93.4347C193.506 93.4347 193.511 90.1353 194.058 88.2382C194.605 86.3411 195.152 84.7079 195.152 84.7079C195.152 84.7079 198.232 86.1431 199.332 84.5924C200.432 83.0418 201.307 79.6434 201.307 79.6434C201.307 79.6434 202.401 78.9836 202.516 78.0982C202.631 77.2129 200.547 74.9914 200.765 74.436Z" fill="#F6BA99"/>
<path d="M200.086 75.6348C200.086 76.2122 199.895 76.6851 199.66 76.6851C199.424 76.6851 199.238 76.2122 199.238 75.6348C199.238 75.0574 199.424 74.579 199.66 74.579C199.895 74.579 200.086 75.0519 200.086 75.6348Z" fill="#393762"/>
<path d="M200.126 81.0677C199.995 81.6176 199.705 82.0465 199.475 81.9915C199.246 81.9365 199.169 81.4416 199.3 80.8917C199.432 80.3418 199.722 79.9129 199.951 79.9679C200.181 80.0229 200.247 80.5013 200.126 81.0677Z" fill="#393762"/>
<path d="M198.484 73.8421C198.484 73.8421 198.599 72.9293 199.223 72.7423C199.847 72.5553 200.241 73.2922 200.241 73.2922" stroke="#393762" stroke-width="0.5" stroke-miterlimit="10" stroke-linecap="round"/>
<path d="M197.467 67.6998C193.637 65.5003 189.195 66.7375 186.558 69.6079C186.427 69.7554 186.307 69.9116 186.197 70.0753C183.828 75.0244 185.267 77.7408 185.267 77.7408C185.438 78.7648 185.81 79.7443 186.361 80.6222C187.039 81.9035 188.812 82.3489 189.726 83.0417C190.656 82.4039 190.694 81.3536 191.329 80.0723C191.84 78.9333 192.429 77.8309 193.09 76.773C193.637 76.0032 191.329 74.7879 193.856 71.582C195.574 69.3825 198.052 69.322 199.464 69.487C198.934 68.754 198.253 68.1444 197.467 67.6998Z" fill="#393762"/>
<path d="M193.725 66.6386C193.725 66.6386 188.495 69.509 190.004 77.0865C190.004 77.0865 186.596 71.6756 191.033 66.974C191.033 66.9575 192.773 66.1657 193.725 66.6386Z" fill="#005D8E"/>
<path d="M192.63 78.4172C192.63 78.4172 190.989 75.6677 189.446 77.5318C187.903 79.396 190.102 81.1776 190.655 81.3811C191.208 81.5845 193.183 80.7157 193.183 80.7157" fill="#F6BA99"/>
<path d="M198.939 111.202C196.708 112.07 194.36 112.599 191.974 112.769C187.745 113.187 185.267 112.219 184.014 111.411C183.357 114.16 180.184 118.24 178.784 125.708C177.356 133.329 177.143 143.931 177.143 144.404C177.143 144.877 181.979 147.153 190.661 146.604C199.343 146.054 203.189 144.508 203.627 143.733C204.065 142.958 201.1 121.419 200.219 117.773C199.675 115.607 199.248 113.414 198.939 111.202Z" fill="#B57053"/>
<path d="M212.582 109.068C212.582 109.068 211.22 107.248 209.464 107.913C207.708 108.579 205.033 112.439 205.487 114.259C205.941 116.079 206.898 116.299 208.124 116.217C209.349 116.134 213.108 113.033 213.485 111.35C213.62 110.923 213.604 110.463 213.44 110.047C213.275 109.631 212.972 109.285 212.582 109.068Z" fill="white"/>
<path d="M220.368 120.165C220.368 120.165 214.142 113.467 213.256 112.351C212.37 111.235 211.287 110.701 209.727 111.554C208.168 112.406 207.539 114.6 208.699 115.903C209.859 117.206 219.197 122.199 219.197 122.199C219.197 122.199 219.531 123.943 220.795 124.344C221.79 124.581 222.821 124.62 223.831 124.459C223.831 124.459 226.61 122.953 226.424 122.309C226.238 121.666 226.085 120.841 226.085 120.841L220.855 120.335L220.368 120.165Z" fill="#F6BA99"/>
<path d="M203.884 178.261L202.965 181.038L198.588 180.768C198.342 182.456 198.452 183.144 198.758 183.248C199.064 183.353 209.202 183.798 209.858 183.248C210.515 182.698 211.177 182.918 210.63 182.148C210.274 181.604 206.286 179.679 203.884 178.261Z" fill="#393762"/>
<path d="M204.032 96.2996L203.157 92.9673C198.66 75.8382 220.073 69.355 216.872 57.142C215.483 51.8356 210.307 49.515 203.895 51.2087C196.898 53.0618 193.501 58.0548 194.907 63.4822L195.262 64.8404C195.618 66.1987 195.044 67.04 193.692 67.3699L180.431 70.3393C179.205 70.6638 178.182 70.2788 177.958 69.41L177.602 68.0573C173.685 53.1388 182.783 39.7765 200.093 35.1904C217.053 30.7088 230.484 37.4394 234.264 51.874C239.637 72.3574 217.693 78.2962 220.636 89.525L221.216 91.7245C221.572 93.0827 221.03 94.0176 219.679 94.375L206.691 97.8338C205.318 98.2022 204.388 97.6578 204.032 96.2996ZM208.13 116.453C206.707 111.026 210.318 105.318 216.101 103.806C221.627 102.343 227.699 105.488 229.127 110.916C230.555 116.343 226.802 122.084 221.156 123.563C215.384 125.092 209.558 121.886 208.13 116.453Z" fill="#EEB3B1"/>
<path d="M204.032 97.3444L203.157 94.0176C198.66 76.8665 220.073 70.4053 216.872 58.1868C215.483 52.8804 210.307 50.5653 203.895 52.2535C196.898 54.1066 193.501 59.1051 194.907 64.5325L195.262 65.8908C195.618 67.249 195.044 68.0573 193.692 68.4147L180.431 71.4006C179.205 71.7251 178.182 71.3347 177.958 70.4713L177.602 69.1131C173.685 54.1836 182.783 40.8213 200.093 36.2462C217.053 31.7591 230.484 38.4898 234.264 52.9299C239.637 73.4132 217.693 79.352 220.636 90.5808L221.216 92.7803C221.572 94.1386 221.03 95.0734 219.679 95.4308L206.691 98.8896C205.318 99.247 204.388 98.7027 204.032 97.3444ZM208.13 117.503C206.707 112.076 210.318 106.363 216.101 104.856C221.627 103.393 227.699 106.506 229.127 111.96C230.555 117.415 226.802 123.134 221.156 124.608C215.384 126.142 209.558 122.936 208.13 117.503Z" fill="#DA5955"/>
<path d="M211.483 120.044C211.483 120.044 214.503 119.631 215.367 119.631C216.232 119.631 220.324 120.445 219.033 121.067C217.742 121.688 215.799 121.067 215.799 121.067C216.657 121.448 217.409 122.035 217.988 122.777C218.841 123.937 220.794 124.707 220.794 124.707C220.794 124.707 216.68 125.994 214.525 125.807C212.369 125.62 209.344 121.699 209.344 121.699L211.483 120.044Z" fill="#F6BA99"/>
<path d="M180.978 90.6853C180.978 90.6853 179.058 92.1755 180.978 97.7403C182.899 103.305 185.229 109.261 187.675 111.851C190.12 114.44 195.805 117.663 195.805 117.663C195.805 117.663 195.416 113.132 195.805 112.356C196.065 111.861 196.418 111.42 196.844 111.059L196.587 110.157C194.774 108.364 193.175 106.366 191.822 104.202C189.891 100.963 187.057 95.7882 185.902 93.2038C184.748 90.6193 182.904 89.7065 180.978 90.6853Z" fill="#7EB9F5"/>
<path d="M200.569 114.039C200.569 114.039 200.569 112.098 199.409 111.191C198.249 110.283 196.706 109.376 195.547 109.766C194.387 110.157 192.713 113.649 192.97 115.331C193.227 117.014 195.672 118.565 196.832 118.565C197.992 118.565 200.569 114.039 200.569 114.039Z" fill="white"/>
<path d="M211.483 120.044C211.483 120.044 204.689 115.848 201.729 114.166C198.769 112.483 197.735 111.191 196.061 113.258C194.387 115.326 195.033 116.497 197.861 118.048C199.787 119.104 209.35 121.688 209.35 121.688L211.483 120.044Z" fill="#F6BA99"/>
<path d="M330.308 196C346.566 196 359.747 193.326 359.747 190.028C359.747 186.73 346.566 184.056 330.308 184.056C314.049 184.056 300.869 186.73 300.869 190.028C300.869 193.326 314.049 196 330.308 196Z" fill="#729BEA"/>
<path d="M308.862 122.298L309.409 128.897L306.4 158.316L311.598 184.436C311.598 184.436 306.4 190.21 307.495 191.584C308.589 192.959 314.88 184.986 314.88 184.986L314.06 159.141L322.813 134.946L334.849 158.591L346.338 184.161C346.338 184.161 347.979 189.935 350.714 190.21C353.45 190.485 348.526 183.061 348.526 183.061L341.961 156.117L331.293 117.624C331.293 117.624 317.616 123.398 308.862 122.298Z" fill="#393762"/>
<path d="M331.292 117.63C331.292 117.63 317.615 123.404 308.861 122.304L308.993 123.86C311.247 124.894 317.062 127.242 321.171 126.153C325 125.147 329.667 121.633 331.899 119.824L331.292 117.63Z" fill="#1D1D1D"/>
<path d="M318.129 124.635L318.736 126.637L322.276 126.027L321.844 124.119L318.129 124.635Z" fill="#BFBFC0"/>
<path d="M327.545 123.855L326.855 120.99L327.457 120.555L328.584 123.596" fill="#393762"/>
<path d="M311.307 125.158L310.957 122.639L311.909 122.815L312.254 125.592" fill="#393762"/>
<path d="M326.096 81.0566L339.904 88.1172C340.131 88.2329 340.38 88.3002 340.634 88.3149C340.888 88.3295 341.143 88.2913 341.382 88.2025C341.62 88.1137 341.838 87.9763 342.022 87.7989C342.205 87.6214 342.351 87.4078 342.448 87.1714L349.073 70.8892L352.903 71.9889L346.611 93.9845C346.496 94.4955 346.275 94.9766 345.964 95.3972C345.653 95.8178 345.258 96.1686 344.805 96.4273C344.351 96.686 343.849 96.8469 343.33 96.8997C342.812 96.9525 342.287 96.896 341.792 96.734L327.737 93.4346L326.096 81.0566Z" fill="#F6BA99"/>
<path d="M340.271 88.2602C340.144 88.2246 340.021 88.1767 339.904 88.1172L326.096 81.0566L327.737 93.4292L338.805 96.0136L340.271 88.2602Z" fill="#B57053"/>
<path d="M309.955 82.4369L299.561 88.4856L308.861 122.304C308.861 122.304 315.426 125.603 320.897 124.503C326.368 123.404 331.292 117.63 331.292 117.63L326.094 81.0621L313.238 81.612L309.955 82.4369Z" fill="#B57053"/>
<path d="M305.496 73.5727C305.496 73.5727 303.116 70.9992 302.76 72.8413C302.405 74.6834 304.949 76.1407 305.873 76.3331C306.798 76.5256 305.496 73.5727 305.496 73.5727Z" fill="#F6BA99"/>
<path d="M316.395 72.8248C316.395 72.8248 316.881 69.344 318.227 70.6253C319.573 71.9065 318.309 74.6065 317.68 75.2829C317.051 75.9592 316.395 72.8248 316.395 72.8248Z" fill="#F6BA99"/>
<path d="M308.023 78.8626L309.161 85.1864L311.021 86.6051C311.452 86.9386 311.948 87.1762 312.477 87.3021C313.006 87.4279 313.555 87.4393 314.089 87.3352C314.622 87.2312 315.128 87.0142 315.571 86.6987C316.015 86.3832 316.387 85.9764 316.662 85.5053L317.581 83.9271L316.093 77.5979L308.023 78.8626Z" fill="#F2957E"/>
<path d="M309.895 62.7178C309.895 62.7178 307.274 62.1679 305.184 65.4673C303.51 68.1122 305.474 75.7612 306.322 78.7086C306.429 79.0756 306.613 79.4156 306.86 79.7065C307.107 79.9974 307.412 80.2326 307.756 80.3968L311.361 82.1289C311.962 82.4186 312.648 82.4745 313.288 82.2856C313.927 82.0967 314.474 81.6766 314.824 81.1061L316.875 77.7738C317.235 77.1975 317.364 76.5061 317.237 75.8382L315.53 66.8365C315.335 65.7753 314.808 64.8041 314.027 64.0635C313.246 63.323 312.251 62.8517 311.186 62.7178C310.757 62.6683 310.324 62.6683 309.895 62.7178Z" fill="#F6BA99"/>
<path d="M312.357 77.301C312.461 77.7464 312.357 78.1588 312.105 78.2193C311.854 78.2798 311.558 77.9608 311.471 77.5154C311.383 77.07 311.471 76.6576 311.717 76.5971C311.963 76.5366 312.247 76.8555 312.357 77.301Z" fill="#393762"/>
<path d="M305.498 73.5727C305.619 73.5518 305.735 73.5064 305.838 73.439C305.942 73.3717 306.031 73.2839 306.099 73.181C306.168 73.0781 306.215 72.9623 306.237 72.8406C306.26 72.7188 306.258 72.5938 306.231 72.4729C306.05 71.5491 305.317 70.0809 305.684 68.2388C306.05 66.3966 308.244 65.2914 308.244 65.2914C308.244 65.2914 308.611 66.0282 310.979 66.941C312.197 67.458 313.491 67.7683 314.809 67.8593C314.809 67.8593 314.809 70.2514 315.356 70.9882C315.903 71.7251 316.817 73.0118 316.997 71.7251C317.178 70.4383 316.324 66.3966 316.324 66.3966C316.324 66.3966 317.605 66.3966 316.872 64.0046C316.138 61.6126 311.565 60.5073 308.266 60.5073C304.967 60.5073 301.154 65.6598 302.248 67.6559C302.868 68.7614 303.36 69.9349 303.714 71.1532C303.714 71.1532 304.951 73.9411 305.498 73.5727Z" fill="#393762"/>
<path d="M322.282 73.6387L323.136 70.3008C327.512 53.1223 349.347 57.9558 352.47 45.7208C353.827 40.4033 350.402 35.8228 344.007 34.1731C336.999 32.364 331.594 35.0529 330.21 40.4913L329.859 41.8551C329.515 43.2133 328.617 43.6422 327.266 43.2903L314.235 39.408C313.004 39.0891 312.303 38.2533 312.522 37.3845L312.867 36.0262C316.696 21.0692 331.107 13.8547 348.428 18.3198C365.387 22.7189 373.883 35.1574 370.196 49.614C364.96 70.1359 342.918 64.5875 340.052 75.8327L339.505 78.0323C339.16 79.3905 338.23 79.9404 336.879 79.594L323.841 76.2341C322.485 75.9042 321.938 74.9694 322.282 73.6387ZM316.1 93.2532C317.49 87.8148 323.42 84.598 329.197 86.1047C334.734 87.5289 338.498 93.2532 337.13 98.6861C335.762 104.119 329.69 107.308 324.033 105.835C318.25 104.317 314.716 98.6641 316.1 93.2257V93.2532Z" fill="#4DAF80"/>
<path d="M322.282 75.2883L323.136 71.9505C327.512 54.7719 349.347 59.6055 352.47 47.3704C353.827 42.053 350.402 37.4724 344.007 35.8228C336.999 34.0136 331.594 36.7026 330.21 42.141L329.859 43.5047C329.515 44.8629 328.617 45.2919 327.266 44.9399L314.235 41.0577C313.004 40.7388 312.303 39.9029 312.522 39.0341L312.867 37.6759C316.696 22.7189 331.107 15.5043 348.428 19.9694C365.387 24.3686 373.883 36.8071 370.196 51.2637C364.96 71.7855 342.918 66.2371 340.052 77.4824L339.505 79.6819C339.16 81.0402 338.23 81.5901 336.879 81.2436L323.841 77.8838C322.485 77.5814 321.938 76.6465 322.282 75.2883ZM316.1 94.9029C317.49 89.4645 323.42 86.2476 329.197 87.7543C334.734 89.1785 338.498 94.9029 337.13 100.336C335.762 105.769 329.69 108.958 324.033 107.484C318.25 105.994 314.716 100.341 316.1 94.9029Z" fill="#5FCC98"/>
<path d="M352.902 71.989L357.552 67.3149L358.646 59.3416C358.646 59.3416 358.099 59.3416 356.458 60.4413C354.817 61.5411 353.175 65.6653 353.175 65.6653C353.175 65.6653 350.714 67.8648 349.893 68.6897C349.374 69.3054 349.084 70.0827 349.072 70.8892L352.902 71.989Z" fill="#F6BA99"/>
<path d="M315.426 103.052L323.085 101.128L327.735 101.953L327.188 103.327H323.359L326.915 105.802L331.018 106.902L329.65 108.276L322.811 108.826L316.793 105.802L315.426 103.052Z" fill="#F6BA99"/>
<path d="M299.562 88.4857L291.482 108.447C291.345 108.794 291.306 109.173 291.369 109.541C291.431 109.91 291.592 110.254 291.835 110.537C292.078 110.82 292.393 111.031 292.746 111.147C293.099 111.263 293.477 111.28 293.839 111.196L317.058 105.846L315.417 103.03L301.739 103.305L302.834 100.006L299.562 88.4857Z" fill="#F6BA99"/>
<path d="M301.749 103.333L302.844 100.033L299.561 88.4857L294.369 101.309C299.162 100.737 301.749 103.333 301.749 103.333Z" fill="#B57053"/>
<path d="M308.832 73.7953C309.05 73.7576 309.171 73.4068 309.103 73.0118C309.035 72.6167 308.804 72.327 308.587 72.3647C308.37 72.4024 308.248 72.7532 308.316 73.1483C308.384 73.5433 308.615 73.833 308.832 73.7953Z" fill="#393762"/>
<path d="M313.221 72.2914C313.286 72.6874 313.166 73.0393 312.953 73.0778C312.739 73.1163 312.504 72.8248 312.438 72.4289C312.373 72.033 312.488 71.6811 312.706 71.6426C312.925 71.6041 313.15 71.8955 313.221 72.2914Z" fill="#393762"/>
<path d="M307.445 70.7187C307.445 70.7187 307.659 69.9214 308.961 69.9214" stroke="#393762" stroke-miterlimit="10" stroke-linecap="round"/>
<path d="M311.74 70.8012C311.74 70.8012 312.331 69.5639 313.349 69.9544" stroke="#393762" stroke-miterlimit="10" stroke-linecap="round"/>
<path d="M311.132 71.3456L311.925 74.9034L310.984 75.1233" stroke="#393762" stroke-width="0.5" stroke-miterlimit="10" stroke-linecap="round"/>
<path d="M314.879 184.986C312.143 185.536 311.596 184.436 311.596 184.436C311.596 184.436 306.399 190.21 307.493 191.584C308.587 192.959 314.879 184.986 314.879 184.986Z" fill="#B57053"/>
<path d="M346.441 184.485C346.835 185.706 348.373 189.984 350.714 190.21C353.45 190.485 348.526 183.061 348.526 183.061C348.045 183.794 347.296 184.306 346.441 184.485Z" fill="#B57053"/>
<defs>
<linearGradient id="paint0_linear" x1="0.0996094" y1="0" x2="124.591" y2="388.006" gradientUnits="userSpaceOnUse">
<stop stop-color="#C2E9FB"/>
<stop offset="1" stop-color="#A1C4FD"/>
</linearGradient>
</defs>
</svg>
