<svg width="380" height="223" viewBox="0 0 380 223" fill="none" xmlns="http://www.w3.org/2000/svg">
<path d="M49.6303 218.95C49.6303 218.95 -39.7141 162.952 21.3442 102.907C82.4025 42.8619 164.117 -18.5134 218.892 5.23169C273.666 28.9768 268.74 58.9962 328.902 102.458C389.064 145.92 375.144 180.423 364.371 197.894C353.598 215.364 351.8 219.86 351.8 219.86L49.6303 218.95Z" fill="#E7F3FE"/>
<path d="M117.873 59.9799C131.104 48.2234 140.814 55.234 148.056 63.0737C153.823 69.3233 154.629 70.7062 159.394 77.1816C160.101 78.1438 160.634 79.2112 160.665 80.4023C160.798 87.5583 164.469 117.838 160.389 128.264C155.63 140.435 96.9961 146.004 96.9961 146.004L117.873 59.9799Z" fill="#303C60"/>
<path d="M155.428 135.201C155.29 135.173 155.166 135.1 155.075 134.992C154.985 134.885 154.933 134.75 154.93 134.61C154.926 134.469 154.971 134.332 155.056 134.22C155.14 134.108 155.261 134.028 155.397 133.994C157.137 133.907 158.553 133.125 159.738 131.609C166.313 123.107 162.615 94.724 159.394 79.2951C159.355 79.2107 159.336 79.1187 159.338 79.0259C159.34 78.9332 159.363 78.842 159.405 78.7593C159.447 78.6765 159.507 78.6042 159.58 78.5477C159.654 78.4913 159.74 78.4521 159.831 78.4331C159.922 78.414 160.016 78.4157 160.106 78.4379C160.196 78.4601 160.28 78.5022 160.352 78.5612C160.424 78.6202 160.481 78.6946 160.521 78.7788C160.56 78.863 160.579 78.9548 160.578 79.0476C161.282 82.4168 163.631 94.3806 164.366 106.839C165.123 119.636 163.886 128.218 160.693 132.345C159.31 134.133 157.552 135.092 155.469 135.197L155.428 135.201Z" fill="#303C60"/>
<path d="M122.836 56.4717C97.414 70.4991 112.915 117.949 80.6729 134.866C71.7382 139.55 44.2891 163.329 62.2733 194.691C74.0385 215.204 109.201 210.779 120.777 192.628C132.353 174.476 122.836 56.4717 122.836 56.4717Z" fill="#303C60"/>
<path d="M55.1829 164.35H55.1023C54.9397 164.33 54.7917 164.247 54.6906 164.118C54.5895 163.989 54.5436 163.826 54.5629 163.664C54.5846 163.497 55.1395 159.502 57.6631 154.209C61.0273 147.196 66.2999 141.268 72.8788 137.103C87.8001 127.627 97.7052 118.698 109.415 74.6758C109.418 74.583 109.442 74.492 109.486 74.4098C109.529 74.3276 109.59 74.2561 109.665 74.2008C109.74 74.1455 109.826 74.1076 109.918 74.0902C110.009 74.0727 110.103 74.076 110.193 74.0998C110.283 74.1236 110.367 74.1674 110.437 74.2278C110.508 74.2882 110.564 74.3637 110.602 74.4488C110.639 74.5338 110.657 74.6262 110.654 74.7191C110.651 74.812 110.627 74.9029 110.583 74.9852C104.926 96.2584 99.3142 110.638 92.9123 120.242C86.9816 129.158 80.8773 133.446 73.5144 138.121C58.0134 147.965 55.7565 163.667 55.7348 163.821C55.7154 163.958 55.6504 164.085 55.5504 164.181C55.4503 164.277 55.321 164.337 55.1829 164.35Z" fill="#303C60"/>
<path d="M55.7258 152.061C55.6172 152.062 55.5105 152.033 55.4169 151.978C55.3233 151.923 55.2463 151.844 55.194 151.749C55.1416 151.654 55.1159 151.547 55.1195 151.438C55.123 151.33 55.1558 151.225 55.2143 151.133C58.7707 145.441 63.5324 140.594 69.1651 136.933C90.1224 123.409 93.5884 115.635 110.897 71.1052C110.922 71.0273 110.964 70.9554 111.018 70.8939C111.072 70.8324 111.139 70.7825 111.213 70.7475C111.287 70.7124 111.368 70.6928 111.45 70.6898C111.532 70.6869 111.614 70.7007 111.69 70.7304C111.767 70.7601 111.837 70.805 111.895 70.8625C111.954 70.92 112 70.9888 112.031 71.0647C112.062 71.1406 112.077 71.222 112.076 71.304C112.074 71.3859 112.056 71.4668 112.022 71.5415C103.37 93.817 98.1984 106.851 92.5406 116.093C86.4673 126.024 79.6097 131.624 69.8224 137.941C64.3352 141.506 59.6962 146.226 56.2311 151.771C56.1773 151.857 56.103 151.928 56.0149 151.979C55.9267 152.03 55.8275 152.058 55.7258 152.061Z" fill="#303C60"/>
<path d="M121.958 86.083C113.204 104.228 114.549 120.691 114.549 120.691C114.549 120.691 115.56 127.076 119.599 128.425C123.639 129.774 129.365 125.737 129.027 120.363C128.689 114.989 130.375 101.88 132.394 97.1775C134.412 92.4749 121.958 86.083 121.958 86.083Z" fill="#F09959"/>
<path d="M75.7041 212.157C76.2559 217.107 75.0128 216.696 79.4243 217.522C83.8359 218.348 91.6887 215.331 91.6887 215.331L82.8686 198.965L75.7041 212.157Z" fill="#6791C9"/>
<path d="M115.606 110.947C113.126 118.991 94.5246 112.804 88.0142 114.66C81.5038 116.516 75.9234 143.742 74.9934 168.183C74.0633 192.624 75.3034 212.115 77.7835 215.209C80.2637 218.303 121.186 219.541 124.906 218.303C128.627 217.066 93.9045 201.596 93.9045 201.596C93.9045 201.596 91.7344 173.133 94.5246 158.592C97.3148 144.051 122.426 124.869 122.426 124.869L115.606 110.947Z" fill="#F09959"/>
<path d="M124.287 113.423C130.797 123.323 147.849 122.086 153.739 130.13C159.629 138.173 172.03 182.415 172.03 182.415L185.051 137.555C185.051 137.555 195.613 135.785 192.181 143.124C186.083 156.18 183.811 198.299 177.195 204.279C169.838 210.934 162.516 205.517 158.386 193.872C154.39 182.604 144.435 158.293 137.305 149.011C130.174 139.73 122.424 124.879 122.424 124.879L124.287 113.423Z" fill="#F09959"/>
<path d="M96.0717 114.66C109.093 129.82 134.514 129.201 140.094 127.345L145.675 125.489C145.675 125.489 150.015 123.942 153.735 128.273C157.456 132.604 166.446 159.83 167.996 166.018C169.546 172.205 172.026 182.415 172.026 182.415C172.026 182.415 165.373 190.385 165.373 198.429C165.373 206.473 168.198 206.544 168.198 206.544C168.198 206.544 159.933 204.687 158.072 199.737C156.212 194.787 139.471 149.927 139.471 149.927L93.2784 150.855L93.8985 201.594C93.8985 201.594 89.8682 197.881 84.2879 201.594C78.7075 205.306 76.8474 213.969 77.7775 215.206C78.7075 216.444 75.9173 216.444 75.9173 215.516C75.9173 214.588 70.647 192.003 74.3672 154.877C78.0875 117.751 85.2179 113.729 89.2482 113.419C91.5931 113.213 93.9503 113.642 96.0717 114.66Z" fill="#75A1DE"/>
<path d="M166.319 205.912C166.363 205.928 166.409 205.937 166.456 205.94L166.319 205.912Z" fill="#6791C9"/>
<path d="M168.108 183.55C165.42 184.376 160.873 193.865 160.873 193.865C160.873 193.865 150.536 171.379 147.436 140.228L143.747 161.361C148.838 175.008 156.833 196.421 158.085 199.753C159.787 204.282 166.648 206.172 167.591 206.38C167.333 206.293 166.766 205.95 166.295 204.592C166.022 204.344 164.469 203.62 164.18 203.354C161.7 201.086 162.733 195.722 164.385 189.741C166.037 183.761 170.796 182.724 168.108 183.55Z" fill="#6791C9"/>
<path d="M95.5048 150.818L90.3802 127.438C84.7998 135.277 84.1798 162.088 86.4522 180.456C88.3123 195.514 91.1025 199.422 93.0246 200.99C93.3355 201.169 93.6292 201.376 93.902 201.609L93.2819 150.87L95.5048 150.818Z" fill="#6791C9"/>
<path d="M80.6641 127.23C90.1724 152.813 85.4198 157.971 97.9321 187.993C104.92 204.765 118.393 217.385 118.393 217.385C118.393 217.385 129.244 220.169 142.885 219.241C156.526 218.313 166.518 217.385 166.518 217.385C166.518 217.385 152.189 208.722 151.569 202.844C150.949 196.965 148.254 173.644 151.77 157.142C154.514 144.253 143.195 131.367 143.195 131.367L124.284 130.439L80.6641 127.23Z" fill="#75A1DE"/>
<path opacity="0.5" d="M97.4077 166.429C95.7553 160.446 104.436 168.286 118.7 169.731C132.964 171.175 148.88 168.904 141.021 171.38C133.162 173.855 111.666 170.142 115.6 177.982C120.222 187.208 125.681 196.136 133.581 201.495C138.749 205.003 151.153 208.301 139.161 206.445C127.17 204.589 114.36 190.558 108.779 181.481C103.199 172.404 97.7766 167.763 97.4077 166.429Z" fill="#6791C9"/>
<path d="M128.993 117.998C129.12 111.811 130.627 101.292 132.403 97.1706C133.851 93.7983 127.868 89.5659 124.358 87.4374L121.388 87.3105C120.936 88.2944 120.512 89.272 120.117 90.2435C116.974 110.78 126.352 119.267 130.828 120.968C132.76 121.705 134.924 121.788 136.775 121.621C134.012 120.659 131.318 119.53 128.993 117.998Z" fill="#E38540"/>
<path d="M123.313 127.132C122.201 127.13 121.092 126.996 120.011 126.733C117.426 126.114 111.253 123.71 109.818 115.118C109.806 115.072 109.803 115.024 109.811 114.977C109.818 114.93 109.836 114.885 109.862 114.845C109.887 114.805 109.921 114.771 109.961 114.744C110.001 114.718 110.046 114.7 110.093 114.692C110.14 114.684 110.189 114.686 110.235 114.698C110.281 114.71 110.325 114.731 110.362 114.76C110.4 114.789 110.431 114.826 110.454 114.868C110.476 114.91 110.49 114.956 110.494 115.004C111.861 123.196 117.72 125.47 120.176 126.067C123.989 126.996 128.035 126.139 129.588 124.069C130.828 122.414 130.087 118.88 130.081 118.846C130.07 118.761 130.092 118.676 130.142 118.606C130.191 118.536 130.265 118.487 130.349 118.469C130.433 118.451 130.521 118.465 130.595 118.507C130.669 118.55 130.725 118.619 130.751 118.701C130.785 118.859 131.572 122.571 130.13 124.48C128.866 126.169 126.246 127.132 123.313 127.132Z" fill="#F5CE5C"/>
<path d="M152.492 94.1548C150.387 105.237 145.529 114.178 137.301 112.495C129.073 110.812 120.439 99.1019 122.712 88.0538C124.984 77.0057 133.494 69.4135 141.716 71.0996C149.938 72.7857 155.295 79.3849 152.492 94.1548Z" fill="#F09959"/>
<path d="M181.752 148.894C181.752 148.894 166.562 189.636 165.833 193.865C165.104 198.095 166.558 200.789 166.971 200.789C167.383 200.789 180.302 178.715 180.302 178.715L181.752 148.894Z" fill="#F09959"/>
<path d="M182.372 147.106C183.612 142.978 181.681 137.753 181.681 137.753L187.193 138.44L182.372 147.106Z" fill="#F09959"/>
<path d="M188.427 140.066H173.047C172.83 140.066 172.615 140.016 172.421 139.918C172.227 139.821 172.058 139.68 171.928 139.506C171.799 139.332 171.711 139.13 171.674 138.916C171.636 138.702 171.649 138.483 171.711 138.275L181.421 105.79C181.506 105.503 181.683 105.251 181.923 105.072C182.164 104.893 182.457 104.796 182.757 104.797H198.14C198.357 104.797 198.571 104.848 198.765 104.945C198.959 105.042 199.127 105.183 199.257 105.357C199.387 105.53 199.474 105.732 199.512 105.945C199.55 106.158 199.538 106.377 199.476 106.585L189.766 139.07C189.681 139.358 189.504 139.611 189.263 139.791C189.021 139.97 188.728 140.067 188.427 140.066Z" fill="#4381DB"/>
<path d="M190.352 140.067H174.975C174.757 140.066 174.543 140.016 174.349 139.918C174.155 139.821 173.986 139.68 173.856 139.506C173.726 139.332 173.639 139.13 173.601 138.916C173.564 138.702 173.576 138.483 173.639 138.275L183.348 105.79C183.434 105.503 183.61 105.251 183.851 105.072C184.092 104.893 184.384 104.796 184.685 104.797H200.068C200.285 104.797 200.499 104.848 200.693 104.945C200.887 105.042 201.055 105.183 201.185 105.357C201.315 105.53 201.402 105.732 201.44 105.945C201.478 106.158 201.466 106.377 201.404 106.585L191.694 139.07C191.609 139.359 191.432 139.612 191.19 139.792C190.948 139.972 190.653 140.068 190.352 140.067Z" fill="#2E5B9A"/>
<path d="M179.222 116.517C177.582 122.414 176.478 127.256 176.742 127.346C177.006 127.435 178.577 122.705 180.217 116.811C181.857 110.917 182.961 106.072 182.682 105.983C182.403 105.893 180.862 110.623 179.222 116.517Z" fill="#9CBEED"/>
<path d="M189.676 149.72C190.128 144.361 194.778 139.34 196.549 137.737C196.815 137.497 197.027 137.204 197.171 136.876C197.315 136.548 197.387 136.193 197.383 135.835C197.358 133.162 197.24 126.863 196.685 126.12C195.981 125.192 194.22 113.126 193.399 113.581C192.577 114.036 193.631 124.598 193.631 124.598C193.631 124.598 191.635 123.67 190.581 123.19C189.527 122.711 185.177 127.522 185.177 127.522C185.177 127.522 183.14 132.657 188.711 130.458C195.324 127.843 190.364 135.132 185.952 139.81C182.319 143.662 185.413 144.516 185.413 144.516L188.349 144.398L189.676 149.72Z" fill="#F09959"/>
<path d="M188.009 153.934C187.468 153.931 186.931 153.848 186.415 153.686C184.986 153.241 182.487 151.805 181.827 147.189C181.814 147.1 181.837 147.009 181.891 146.936C181.945 146.864 182.026 146.816 182.115 146.802C182.205 146.789 182.296 146.812 182.369 146.866C182.441 146.92 182.49 147.001 182.503 147.09C183.07 151.038 184.983 152.48 186.496 152.993C187.736 153.414 188.75 153.219 189.01 153.077C189.018 153.017 189.041 152.96 189.078 152.912C189.115 152.864 189.165 152.827 189.221 152.804C189.305 152.771 189.4 152.772 189.484 152.808C189.567 152.844 189.633 152.912 189.667 152.996C189.7 153.083 189.708 153.178 189.688 153.269C189.669 153.36 189.624 153.444 189.559 153.51C189.317 153.764 188.734 153.934 188.009 153.934Z" fill="#F5CE5C"/>
<path d="M187.431 152.606C186.968 152.606 186.504 152.573 186.045 152.507C183.389 152.121 181.606 150.775 181.156 148.813C181.143 148.727 181.163 148.64 181.212 148.568C181.261 148.496 181.335 148.445 181.42 148.426C181.505 148.406 181.595 148.42 181.67 148.464C181.745 148.508 181.801 148.578 181.826 148.662C182.254 150.534 183.959 151.329 185.314 151.669C187.214 152.142 188.997 151.849 189.211 151.604C189.233 151.565 189.262 151.531 189.297 151.504C189.332 151.477 189.372 151.457 189.415 151.445C189.458 151.433 189.503 151.43 189.547 151.435C189.591 151.441 189.634 151.455 189.673 151.477C189.712 151.5 189.747 151.53 189.775 151.566C189.802 151.602 189.823 151.644 189.834 151.688C189.846 151.732 189.849 151.777 189.843 151.823C189.837 151.868 189.823 151.911 189.8 151.951C189.546 152.402 188.547 152.606 187.431 152.606Z" fill="#F5CE5C"/>
<path d="M143.056 99.9304C142.887 99.9302 142.718 99.9178 142.55 99.8932C139.943 99.4941 138.365 96.1342 138.963 92.2453C139.191 90.5516 139.891 88.9557 140.982 87.6386C142.073 86.4011 143.384 85.8256 144.68 86.0236C147.287 86.4196 148.862 89.7795 148.267 93.6685C147.709 97.2944 145.477 99.9304 143.056 99.9304ZM144.184 87.19C143.406 87.19 142.603 87.6231 141.89 88.4275C140.951 89.5719 140.351 90.9552 140.157 92.4216C139.68 95.5371 140.861 98.4082 142.733 98.6928C144.606 98.9775 146.593 96.5921 147.074 93.4797C147.554 90.3673 146.37 87.4963 144.497 87.2085C144.394 87.1916 144.289 87.1823 144.184 87.1807V87.19Z" fill="white"/>
<path d="M151.655 99.9303C151.572 99.9318 151.489 99.9256 151.407 99.9117C149.699 99.6518 148.772 96.7653 149.299 93.3404C149.826 89.9155 151.578 87.4312 153.283 87.6972C154.163 87.8334 154.854 88.6254 155.233 89.9619C155.585 91.3719 155.639 92.8397 155.391 94.2716C154.892 97.5356 153.283 99.9303 151.655 99.9303ZM153.028 88.5914C152.024 88.5914 150.654 90.5219 150.201 93.4765C149.73 96.5456 150.533 98.8567 151.547 99.0114C152.56 99.1661 154.027 97.2015 154.489 94.1324C154.716 92.8296 154.67 91.4939 154.355 90.2094C154.083 89.2627 153.642 88.6625 153.143 88.5976L153.028 88.5914Z" fill="white"/>
<path d="M140.2 89.6716C140.143 89.671 140.087 89.6627 140.032 89.6468L119.776 83.8707C119.624 83.8252 119.495 83.7216 119.419 83.5825C119.343 83.4433 119.324 83.2798 119.368 83.1272C119.412 82.9747 119.514 82.8454 119.652 82.7674C119.79 82.6894 119.954 82.669 120.108 82.7105L140.364 88.4836C140.49 88.5363 140.595 88.6292 140.663 88.7477C140.731 88.8663 140.758 89.0039 140.739 89.1391C140.72 89.2743 140.657 89.3996 140.56 89.4953C140.462 89.5911 140.336 89.6519 140.2 89.6685V89.6716Z" fill="white"/>
<path d="M154.669 77.1012C123.316 95.5311 121.596 83.1527 121.596 83.1527L123.456 65.5488L142.057 66.5791L154.669 77.1012Z" fill="#303C60"/>
<path d="M124.008 87.2455C124.736 90.361 123.741 93.2568 121.785 93.7147C119.828 94.1726 117.646 92.0162 116.917 88.9007C116.189 85.7852 117.184 82.8894 119.14 82.4315C121.096 81.9736 123.291 84.1269 124.008 87.2455Z" fill="#F09959"/>
<path d="M121.872 91.3362C121.872 91.5809 121.799 91.8202 121.663 92.0237C121.526 92.2272 121.333 92.3859 121.106 92.4795C120.88 92.5732 120.63 92.5977 120.39 92.5499C120.149 92.5022 119.928 92.3843 119.755 92.2113C119.581 92.0382 119.463 91.8177 119.415 91.5776C119.368 91.3375 119.392 91.0887 119.486 90.8626C119.58 90.6365 119.739 90.4432 119.943 90.3072C120.147 90.1712 120.386 90.0986 120.632 90.0986C120.961 90.0986 121.276 90.229 121.509 90.4611C121.741 90.6932 121.872 91.008 121.872 91.3362Z" fill="#F5CE5C"/>
<path d="M363.742 223H50.1175C49.3712 222.975 48.6637 222.662 48.1445 222.127C47.6253 221.591 47.335 220.875 47.335 220.13C47.335 219.385 47.6253 218.669 48.1445 218.134C48.6637 217.598 49.3712 217.285 50.1175 217.261H363.742C364.489 217.285 365.196 217.598 365.715 218.134C366.235 218.669 366.525 219.385 366.525 220.13C366.525 220.875 366.235 221.591 365.715 222.127C365.196 222.662 364.489 222.975 363.742 223Z" fill="#2E5B9A"/>
<path d="M124.461 216.71C124.461 216.71 112.637 216.858 112.488 217.904C112.339 218.95 112.937 219.399 117.138 220.144C121.339 220.89 168.471 221.19 168.911 220.893C169.352 220.596 183.129 217.307 183.129 217.307L150.05 216.71H124.461Z" fill="#DBE5EB"/>
<path d="M130.896 208.858C130.896 208.858 139.372 205.145 141.853 206.794C144.333 208.443 151.5 216.008 151.5 216.008L130.896 208.858Z" fill="#F09959"/>
<path d="M151.032 216.683C150.87 216.884 150.632 216.968 150.495 216.869L133.057 203.912C132.127 203.212 131.671 202.145 132.127 201.582C132.582 201.019 133.72 201.22 134.607 201.981L151.1 216.12C151.224 216.228 151.193 216.482 151.032 216.683Z" fill="#2E5B9A"/>
<path d="M105.264 207.286C105.264 207.286 119.32 212.855 120.976 212.855C122.631 212.855 131.861 206.667 134.964 207.49C138.067 208.313 153.224 215.949 152.809 216.568C152.393 217.186 148.056 218.631 135.237 218.217C122.418 217.802 101.544 215.949 101.544 215.949L105.264 207.286Z" fill="#F09959"/>
<path d="M223.877 205.402H281.172C281.68 205.402 282.183 205.502 282.653 205.696C283.122 205.89 283.549 206.175 283.908 206.533C284.267 206.892 284.552 207.317 284.746 207.786C284.941 208.254 285.041 208.756 285.041 209.263V213.641C285.039 214.664 284.631 215.645 283.906 216.367C283.18 217.09 282.197 217.496 281.172 217.496H223.877C223.466 217.496 223.072 217.333 222.781 217.043C222.49 216.753 222.327 216.359 222.327 215.949V206.943C222.329 206.534 222.493 206.142 222.783 205.853C223.074 205.564 223.467 205.402 223.877 205.402Z" fill="#F37168"/>
<path d="M276.739 207.45H222.343C221.94 208.101 221.726 208.851 221.723 209.616V213.328C221.726 214.094 221.94 214.843 222.343 215.494H276.739C277.204 215.494 277.664 215.402 278.093 215.223C278.522 215.044 278.911 214.782 279.238 214.453C279.565 214.123 279.824 213.732 279.999 213.302C280.174 212.873 280.262 212.412 280.257 211.949V210.955C280.255 210.026 279.883 209.134 279.224 208.477C278.564 207.82 277.671 207.451 276.739 207.45Z" fill="#F2E5DE"/>
<path d="M235.682 198.086H279.252C279.945 198.086 280.609 198.36 281.098 198.849C281.588 199.337 281.863 200 281.863 200.691V202.798C281.863 203.489 281.588 204.151 281.098 204.64C280.609 205.128 279.945 205.403 279.252 205.403H235.682C235.406 205.403 235.141 205.293 234.946 205.098C234.75 204.903 234.641 204.639 234.641 204.363V199.125C234.641 198.85 234.75 198.585 234.946 198.39C235.141 198.195 235.406 198.086 235.682 198.086Z" fill="#7BCEE8"/>
<path d="M275.607 199.323H234.647C234.357 199.696 234.197 200.154 234.191 200.626V202.863C234.197 203.335 234.357 203.792 234.647 204.165H275.607C277.061 204.165 278.251 203.212 278.251 202.046V201.443C278.258 200.279 277.067 199.323 275.607 199.323Z" fill="#F2E5DE"/>
<path d="M286.706 50.1196H240.237C238.755 50.1196 237.983 48.9099 238.523 47.431L245.551 28.1534C246.087 26.6745 247.743 25.4648 249.225 25.4648H295.693C297.172 25.4648 297.944 26.6745 297.405 28.1534L290.38 47.4186C289.84 48.9006 288.185 50.1196 286.706 50.1196Z" fill="#9EC8FF"/>
<path d="M285.128 48.0964H243.275C241.992 48.0964 241.325 47.0476 241.793 45.7668L247.609 29.8119C248.077 28.5311 249.51 27.4854 250.793 27.4854H292.658C293.942 27.4854 294.608 28.5311 294.143 29.8119L288.318 45.7668C287.844 47.0476 286.411 48.0964 285.128 48.0964Z" fill="white"/>
<path d="M258.677 48.9902C254.823 59.1473 248.893 62.2937 248.893 62.2937C248.893 62.2937 253.112 56.4711 252.501 53.631C252.321 52.8013 251.974 52.0168 251.48 51.3253C250.987 50.6339 250.357 50.0499 249.63 49.609L258.677 48.9902Z" fill="#9EC8FF"/>
<path d="M288.492 33.1594H261.52C261.423 33.1649 261.326 33.1445 261.24 33.1004C261.154 33.0562 261.081 32.99 261.029 32.9083C260.977 32.8267 260.947 32.7327 260.944 32.636C260.94 32.5393 260.962 32.4434 261.008 32.3581L261.024 32.321C261.112 32.0973 261.262 31.903 261.456 31.7607C261.65 31.6183 261.881 31.5337 262.121 31.5166H289.093C289.19 31.5108 289.287 31.5311 289.374 31.5754C289.461 31.6196 289.534 31.6863 289.586 31.7684C289.638 31.8505 289.668 31.945 289.671 32.0422C289.674 32.1394 289.651 32.2356 289.605 32.321V32.3581C289.514 32.5831 289.361 32.7778 289.164 32.9197C288.967 33.0615 288.734 33.1447 288.492 33.1594Z" fill="#9EC8FF"/>
<path d="M287.24 36.594H260.268C260.171 36.5994 260.075 36.5791 259.988 36.5349C259.902 36.4908 259.829 36.4245 259.777 36.3429C259.725 36.2613 259.695 36.1673 259.692 36.0706C259.688 35.9739 259.71 35.8779 259.756 35.7927V35.7556C259.845 35.5318 259.995 35.3376 260.189 35.1952C260.383 35.0529 260.613 34.9683 260.854 34.9512H287.826C287.923 34.9454 288.02 34.9656 288.107 35.0099C288.193 35.0542 288.267 35.1208 288.319 35.2029C288.371 35.285 288.4 35.3796 288.403 35.4768C288.407 35.5739 288.384 35.6702 288.337 35.7556L288.322 35.7927C288.235 36.0142 288.087 36.2069 287.896 36.3486C287.705 36.4903 287.477 36.5754 287.24 36.594Z" fill="#9EC8FF"/>
<path d="M285.838 40.48H258.866C258.769 40.4853 258.672 40.4648 258.586 40.4205C258.499 40.3762 258.426 40.3098 258.373 40.2279C258.321 40.146 258.291 40.0517 258.288 39.9547C258.284 39.8576 258.306 39.7613 258.352 39.6756L258.367 39.6384C258.456 39.4151 258.606 39.2213 258.8 39.0795C258.994 38.9377 259.225 38.8537 259.465 38.8371H286.436C286.533 38.8307 286.631 38.8504 286.717 38.8942C286.804 38.9381 286.878 39.0045 286.93 39.0865C286.982 39.1684 287.012 39.2629 287.015 39.36C287.018 39.4571 286.995 39.5533 286.948 39.6384V39.6756C286.859 39.9011 286.707 40.0966 286.51 40.2391C286.314 40.3815 286.08 40.4651 285.838 40.48Z" fill="#9EC8FF"/>
<path d="M257.316 35.9225C256.25 38.8523 253.441 41.2253 251.045 41.2253C248.648 41.2253 247.569 38.8523 248.639 35.9225C249.708 32.9926 252.505 30.6289 254.901 30.6289C257.298 30.6289 258.376 32.9957 257.316 35.9225Z" fill="#9EC8FF"/>
<path d="M260.292 100.218H257.988C257.502 100.218 257.25 99.8221 257.43 99.3395L258.119 97.446C258.215 97.201 258.38 96.9885 258.593 96.8329C258.805 96.6774 259.058 96.5853 259.321 96.5674H261.622C262.109 96.5674 262.36 96.9603 262.183 97.446L261.492 99.3395C261.395 99.584 261.231 99.7963 261.019 99.9518C260.807 100.107 260.554 100.2 260.292 100.218Z" fill="#9EC8FF"/>
<path d="M267.68 100.218H265.376C264.89 100.218 264.639 99.8221 264.815 99.3395L265.507 97.446C265.603 97.2011 265.766 96.9884 265.979 96.8328C266.191 96.6772 266.444 96.5852 266.706 96.5674H269.01C269.497 96.5674 269.748 96.9603 269.571 97.446L268.88 99.3395C268.783 99.5838 268.619 99.7959 268.407 99.9513C268.194 100.107 267.943 100.199 267.68 100.218Z" fill="#9EC8FF"/>
<path d="M275.071 100.218H272.767C272.28 100.218 272.029 99.8221 272.206 99.3395L272.897 97.446C272.994 97.201 273.158 96.9885 273.371 96.8329C273.584 96.6774 273.837 96.5853 274.1 96.5674H276.401C276.887 96.5674 277.138 96.9603 276.962 97.446L276.27 99.3395C276.174 99.584 276.01 99.7963 275.798 99.9518C275.585 100.107 275.333 100.2 275.071 100.218Z" fill="#9EC8FF"/>
<path d="M231.013 85.656H184.545C183.063 85.656 182.291 84.4463 182.83 82.9675L189.858 63.7022C190.398 62.2234 192.05 61.0137 193.532 61.0137H240.001C241.483 61.0137 242.255 62.2234 241.715 63.7022L234.684 82.9675C234.148 84.4618 232.495 85.656 231.013 85.656Z" fill="#9EC8FF"/>
<path d="M229.439 83.6382H187.587C186.303 83.6382 185.633 82.5925 186.102 81.3117L191.921 65.3568C192.386 64.076 193.818 63.0303 195.101 63.0303H236.954C238.238 63.0303 238.907 64.076 238.439 65.3568L232.62 81.3117C232.155 82.6049 230.723 83.6382 229.439 83.6382Z" fill="white"/>
<path d="M186.898 84.5361C183.345 94.6932 186.991 97.8396 186.991 97.8396C186.991 97.8396 187.019 92.0139 189.701 89.1769C191.344 87.4569 193.321 86.0885 195.51 85.1549L186.898 84.5361Z" fill="#9EC8FF"/>
<path d="M218.08 70.0504H195.312C195.222 70.0556 195.132 70.0364 195.052 69.9948C194.972 69.9532 194.904 69.8908 194.857 69.8141C194.809 69.7375 194.783 69.6494 194.781 69.5592C194.78 69.469 194.802 69.3801 194.847 69.3017L194.906 69.1378C194.988 68.9319 195.126 68.7532 195.304 68.6224C195.483 68.4915 195.696 68.4139 195.917 68.3983H218.681C218.771 68.393 218.86 68.4117 218.94 68.4524C219.02 68.493 219.087 68.5543 219.135 68.6297C219.183 68.7051 219.21 68.792 219.213 68.8813C219.216 68.9707 219.195 69.0592 219.153 69.1378L219.091 69.3017C219.01 69.5091 218.873 69.6896 218.694 69.8221C218.515 69.9546 218.302 70.0338 218.08 70.0504Z" fill="#9EC8FF"/>
<path d="M216.827 73.4845H194.072C193.983 73.4898 193.893 73.4712 193.814 73.4305C193.734 73.3898 193.667 73.3286 193.618 73.2532C193.57 73.1778 193.543 73.0909 193.54 73.0015C193.537 72.9122 193.558 72.8237 193.601 72.7451L193.66 72.5811C193.742 72.3757 193.88 72.1974 194.059 72.0666C194.237 71.9359 194.449 71.8579 194.67 71.8417H217.432C217.521 71.8364 217.611 71.855 217.69 71.8957C217.77 71.9364 217.838 71.9976 217.886 72.073C217.934 72.1485 217.961 72.2354 217.964 72.3247C217.967 72.414 217.946 72.5026 217.903 72.5811L217.844 72.7451C217.762 72.9517 217.623 73.1308 217.443 73.2616C217.263 73.3925 217.05 73.4698 216.827 73.4845Z" fill="#9EC8FF"/>
<path d="M215.411 77.368H192.649C192.56 77.3733 192.471 77.3547 192.391 77.314C192.311 77.2733 192.244 77.2121 192.196 77.1367C192.148 77.0613 192.121 76.9744 192.117 76.885C192.114 76.7957 192.135 76.7072 192.178 76.6286L192.237 76.4646C192.319 76.2592 192.457 76.0809 192.636 75.9501C192.815 75.8194 193.027 75.7414 193.248 75.7252H216.012C216.101 75.7209 216.19 75.7402 216.269 75.7811C216.348 75.8221 216.415 75.8832 216.463 75.9583C216.511 76.0334 216.538 76.1198 216.542 76.2087C216.545 76.2977 216.525 76.3859 216.484 76.4646L216.422 76.6286C216.341 76.8347 216.203 77.0136 216.024 77.1445C215.845 77.2754 215.632 77.3529 215.411 77.368Z" fill="#9EC8FF"/>
<path d="M273.34 107.461H228.484C227.681 107.461 227.262 107.13 227.554 106.722L227.671 106.558C227.963 106.152 228.859 105.818 229.662 105.818H274.522C275.325 105.818 275.743 106.152 275.452 106.558L275.334 106.722C275.039 107.13 274.143 107.461 273.34 107.461Z" fill="#9EC8FF"/>
<path d="M270.873 113.135H226.023C225.22 113.135 224.804 112.804 225.092 112.399L225.21 112.231C225.502 111.826 226.398 111.495 227.201 111.495H272.054C272.857 111.495 273.276 111.826 272.984 112.231L272.866 112.399C272.572 112.804 271.676 113.135 270.873 113.135Z" fill="#9EC8FF"/>
<path d="M226.004 78.7101H222.696C221.214 78.7101 220.442 77.5035 220.982 76.0247L223.434 69.3018C223.973 67.823 225.626 66.6133 227.108 66.6133H230.4C231.882 66.6133 232.654 67.823 232.114 69.3018L229.662 76.0247C229.123 77.5035 227.47 78.7101 226.004 78.7101Z" fill="#9EC8FF"/>
<path d="M340.852 208.595C346.829 175.865 345.52 164.158 329.511 137.437C313.502 110.716 311.973 61.0195 305.95 75.5883C299.926 90.1572 300.719 126.794 319.631 144.565C338.542 162.336 341.09 170.29 342.212 177.524C343.335 184.757 339.512 206.986 339.512 206.986L340.852 208.595Z" fill="#9CD499"/>
<path d="M343.845 187.504C343.845 187.378 343.864 187.254 343.87 187.127C343.519 184.445 341.619 170.634 338.99 165.186C336.073 159.137 323.278 148.606 319.685 135.389C316.092 122.172 310.385 111.928 306.664 103.578C301.735 92.5549 304.429 77.8995 308.506 73.1381C308.41 73.0764 308.306 73.0305 308.196 73.002L306.841 73.8187C306.471 74.3782 306.159 74.9744 305.911 75.5977C299.903 90.1789 300.718 126.794 319.629 144.565C338.541 162.336 341.089 170.29 342.211 177.524C342.521 179.476 342.456 182.517 342.211 185.92L343.845 187.504Z" fill="#74B570"/>
<path d="M332.678 202.823C337.127 164.36 335.645 151.048 327.048 120.276C318.451 89.5052 374.481 19.3898 372.701 31.5176C370.922 43.6454 364.994 73.8257 349.577 92.7753C334.16 111.725 332.976 127.095 335.936 143.366C338.897 159.636 335.344 197.508 335.344 197.508L333.565 204.314L332.678 202.823Z" fill="#9CD499"/>
<path d="M334.728 186.839C334.679 186.837 334.631 186.826 334.586 186.805C334.542 186.785 334.502 186.755 334.469 186.72C334.436 186.684 334.41 186.642 334.393 186.596C334.377 186.55 334.369 186.501 334.371 186.452C334.371 186.335 334.817 174.476 334.594 164.746C334.371 155.016 331.727 138.312 330.118 132.57C328.654 127.351 326.81 109.84 335.757 91.7596C340.212 82.7504 343.768 77.0578 348.688 69.1747C353.552 61.3875 359.607 51.6915 369.214 34.6135C369.263 34.5278 369.343 34.4648 369.438 34.4384C369.533 34.412 369.635 34.4244 369.721 34.4728C369.807 34.5212 369.87 34.6017 369.896 34.6965C369.923 34.7914 369.911 34.8929 369.862 34.9786C360.251 52.0689 354.187 61.7743 349.32 69.5676C344.409 77.4321 340.863 83.1124 336.423 92.0876C327.582 109.961 329.392 127.227 330.843 132.372C332.464 138.139 335.124 154.929 335.348 164.721C335.571 174.513 335.127 186.356 335.124 186.474C335.123 186.524 335.112 186.574 335.091 186.62C335.07 186.665 335.041 186.707 335.004 186.741C334.967 186.775 334.923 186.801 334.876 186.818C334.828 186.835 334.778 186.842 334.728 186.839Z" fill="#74B570"/>
<path d="M334.163 216.639C336.829 190.899 337.263 203.593 326.196 168.62C313.513 128.592 358.769 93.0563 366.188 107.554C373.607 122.052 382.191 167.614 378.93 166.139C375.668 164.663 354.041 122.346 353.421 124.121C352.801 125.897 324.072 140.689 325.259 155.781C326.447 170.872 337.415 194.834 337.415 194.834L337.105 216.933L334.163 216.639Z" fill="#9CD499"/>
<path d="M337.128 216.633H337.091L334.127 216.323C334.078 216.319 334.031 216.304 333.987 216.281C333.944 216.257 333.906 216.226 333.876 216.187C333.844 216.15 333.82 216.107 333.806 216.06C333.791 216.013 333.787 215.964 333.792 215.915C334.102 212.942 334.384 210.439 334.614 208.425C335.854 197.497 335.854 197.497 332.443 188.136C330.909 183.906 328.807 178.112 325.831 168.719C323.607 161.733 323.022 154.331 324.119 147.084C325.152 140.421 327.392 134.002 330.729 128.14C336.598 117.671 345.836 108.68 354.263 105.246C360.119 102.851 364.58 103.631 366.499 107.384C369.646 113.537 373.409 126.138 376.562 141.088C378.382 149.716 381.058 164.743 379.538 166.33C379.442 166.435 379.315 166.505 379.175 166.531C379.035 166.557 378.891 166.536 378.763 166.473C376.984 165.665 371.094 155.291 362.952 140.723C358.879 133.421 354.672 125.872 353.537 124.585C353.081 125.093 351.925 125.888 349.532 127.506C341.471 132.96 324.73 144.305 325.614 155.749C326.783 170.6 337.627 194.438 337.739 194.679C337.761 194.729 337.772 194.782 337.773 194.837L337.463 216.268C337.462 216.319 337.45 216.37 337.429 216.417C337.408 216.464 337.377 216.506 337.339 216.54C337.28 216.592 337.206 216.624 337.128 216.633ZM334.57 215.633L336.762 215.853L337.05 194.911C336.368 193.398 326.042 170.365 324.898 155.808C323.968 143.931 340.969 132.422 349.141 126.893C351.082 125.578 352.914 124.338 353.085 123.994C353.109 123.912 353.157 123.838 353.223 123.783C353.29 123.728 353.371 123.694 353.457 123.685C354.176 123.62 355.596 125.956 363.628 140.351C369.392 150.682 377.269 164.793 379.046 165.764C379.182 165.541 379.585 164.329 378.801 158.082C378.233 153.565 377.192 147.622 375.871 141.348C372.724 126.404 368.979 113.831 365.851 107.708C364.127 104.342 360.01 103.686 354.557 105.92C339.782 111.978 317.15 138.795 326.553 168.508C329.523 177.886 331.622 183.668 333.157 187.894C336.616 197.42 336.616 197.42 335.355 208.521C335.131 210.547 334.865 212.834 334.57 215.64V215.633Z" fill="#74B570"/>
<path d="M343.48 217.707H330.028C329.098 217.707 328.276 217.181 328.187 216.528L323.66 182.611C323.453 181.064 324.488 179.73 325.97 179.73H347.532C349.014 179.73 350.052 181.048 349.841 182.611L345.321 216.528C345.231 217.187 344.404 217.707 343.48 217.707Z" fill="#7BCEE8"/>
<path d="M341.886 216.537H339.958C339.028 216.537 338.259 215.992 338.275 215.315L338.954 186.016C338.967 185.314 339.25 184.643 339.746 184.144C340.241 183.645 340.91 183.355 341.614 183.334H344.537C344.873 183.336 345.205 183.41 345.51 183.55C345.815 183.691 346.086 183.895 346.305 184.15C346.525 184.404 346.687 184.702 346.781 185.024C346.874 185.346 346.898 185.684 346.85 186.016L343.728 215.33C343.657 215.992 342.829 216.537 341.886 216.537Z" fill="#A2DFF2"/>
<path d="M327.545 169.069L327.781 168.654C326.923 165.632 326.233 162.564 325.716 159.466C325.988 162.722 326.601 165.941 327.545 169.069Z" fill="#74B570"/>
<path d="M327.544 144.277C326.693 146.43 326.117 148.682 325.83 150.978C329.801 137.969 351.915 126.228 353.354 124.242L353.608 123.743C345.315 121.426 332.03 133.074 327.544 144.277Z" fill="#74B570"/>
<path d="M378.949 165.331C378.866 165.331 378.786 165.304 378.72 165.253C378.655 165.201 378.609 165.13 378.59 165.049L374.559 148.736C371.422 135.952 367.516 120.04 363.132 112.959C362.41 111.789 359.254 110.211 354.78 110.527C348.738 110.954 337.09 115.118 326.974 138.226C326.954 138.271 326.925 138.311 326.889 138.344C326.853 138.378 326.811 138.404 326.765 138.421C326.719 138.439 326.67 138.447 326.621 138.445C326.572 138.443 326.523 138.432 326.478 138.412C326.434 138.391 326.393 138.362 326.36 138.327C326.326 138.291 326.3 138.249 326.283 138.203C326.265 138.157 326.257 138.108 326.259 138.059C326.261 138.01 326.272 137.961 326.292 137.917C336.566 114.453 348.518 110.211 354.73 109.763C359.561 109.426 362.924 111.186 363.764 112.547C368.21 119.728 371.968 135.033 375.282 148.538L379.312 164.851C379.335 164.947 379.32 165.048 379.269 165.132C379.217 165.216 379.135 165.277 379.039 165.3C379.01 165.314 378.98 165.324 378.949 165.331Z" fill="#74B570"/>
<path d="M367.165 144.048H367.121C367.026 144.033 366.94 143.981 366.882 143.904C366.824 143.826 366.799 143.73 366.811 143.634C366.811 143.501 368.331 130.092 364.799 115.99C364.775 115.895 364.79 115.794 364.841 115.709C364.891 115.624 364.973 115.563 365.069 115.539C365.165 115.515 365.267 115.529 365.351 115.58C365.436 115.63 365.498 115.712 365.522 115.808C369.087 130.039 367.565 143.587 367.549 143.72C367.538 143.813 367.493 143.899 367.422 143.96C367.35 144.02 367.259 144.052 367.165 144.048Z" fill="#74B570"/>
<path d="M363.011 135.761H362.967C362.872 135.746 362.786 135.695 362.728 135.618C362.67 135.541 362.645 135.445 362.657 135.349C362.657 135.226 364.099 122.949 363.107 112.802C363.102 112.753 363.106 112.704 363.12 112.658C363.134 112.611 363.157 112.568 363.188 112.53C363.219 112.492 363.257 112.461 363.3 112.438C363.343 112.415 363.39 112.401 363.439 112.396C363.537 112.387 363.636 112.417 363.712 112.479C363.789 112.542 363.838 112.632 363.848 112.73C364.849 122.959 363.411 135.315 363.395 135.436C363.384 135.528 363.338 135.613 363.266 135.673C363.195 135.733 363.104 135.765 363.011 135.761Z" fill="#74B570"/>
<path d="M348.868 69.8993C348.783 69.8999 348.7 69.8713 348.633 69.8185C348.567 69.7656 348.521 69.6916 348.502 69.6087C348.484 69.5259 348.494 69.4392 348.532 69.3632C348.57 69.2871 348.632 69.2263 348.71 69.1908C348.815 69.1413 359.452 63.9499 365.603 52.5491C365.625 52.5043 365.656 52.4644 365.694 52.4318C365.731 52.3992 365.776 52.3746 365.823 52.3594C365.871 52.3442 365.921 52.3388 365.971 52.3434C366.021 52.3481 366.069 52.3627 366.113 52.3864C366.157 52.4102 366.196 52.4425 366.227 52.4816C366.258 52.5206 366.281 52.5655 366.295 52.6137C366.308 52.6618 366.312 52.7121 366.305 52.7616C366.299 52.8111 366.282 52.8588 366.257 52.9018C359.988 64.5222 349.137 69.8096 349.029 69.8622C348.979 69.8868 348.924 69.8995 348.868 69.8993Z" fill="#74B570"/>
<path d="M341.021 83.339C340.931 83.3371 340.844 83.3021 340.777 83.2406C340.71 83.1792 340.668 83.0954 340.659 83.0053C340.65 82.9151 340.674 82.8247 340.727 82.7511C340.78 82.6775 340.858 82.6259 340.947 82.6058C341.034 82.5872 349.745 80.7248 360.094 72.3745C360.132 72.3439 360.176 72.321 360.222 72.3072C360.269 72.2934 360.319 72.2889 360.367 72.2941C360.416 72.2993 360.463 72.3139 360.506 72.3373C360.549 72.3607 360.587 72.3922 360.618 72.4302C360.648 72.4682 360.671 72.5119 360.685 72.5587C360.699 72.6055 360.703 72.6546 360.698 72.7032C360.693 72.7517 360.678 72.7988 360.655 72.8417C360.632 72.8845 360.6 72.9224 360.562 72.9531C350.062 81.424 341.186 83.3143 341.096 83.3329C341.071 83.3379 341.046 83.34 341.021 83.339Z" fill="#74B570"/>
<path d="M334.51 96.3385C334.358 96.3385 334.265 96.3385 334.241 96.3385C334.192 96.3349 334.144 96.3217 334.1 96.2996C334.057 96.2776 334.018 96.2472 333.986 96.2101C333.921 96.1353 333.889 96.0379 333.897 95.9394C333.904 95.841 333.95 95.7495 334.025 95.6851C334.1 95.6207 334.198 95.5886 334.296 95.596C334.355 95.596 340.36 95.9271 349.983 88.7246C350.062 88.6656 350.162 88.6402 350.259 88.6541C350.357 88.668 350.445 88.7201 350.504 88.7989C350.563 88.8777 350.589 88.9767 350.575 89.0742C350.561 89.1716 350.509 89.2596 350.43 89.3187C341.604 95.9271 335.819 96.3385 334.51 96.3385Z" fill="#74B570"/>
</svg>
