<svg width="372" height="277" viewBox="0 0 372 277" fill="none" xmlns="http://www.w3.org/2000/svg">
<path d="M372 243.428H0V243.614H372V243.428Z" fill="#D1E3FF"/>
<path d="M315.538 251.813H287.764V251.999H315.538V251.813Z" fill="#D1E3FF"/>
<path d="M282.303 251.91H270.08V252.096H282.303V251.91Z" fill="#D1E3FF"/>
<path d="M211.668 252.17H197.16V252.356H211.668V252.17Z" fill="#D1E3FF"/>
<path d="M175.398 255.404H143.012V255.59H175.398V255.404Z" fill="#D1E3FF"/>
<path d="M85.2327 252.267H62.0422V252.452H85.2327V252.267Z" fill="#D1E3FF"/>
<path d="M111.972 252.267H89.3618V252.452H111.972V252.267Z" fill="#D1E3FF"/>
<path d="M50.8822 247.658H43.5613V247.844H50.8822V247.658Z" fill="#D1E3FF"/>
<path d="M176.328 210.272H32.669C31.5436 210.27 30.465 209.822 29.6699 209.026C28.8748 208.23 28.4282 207.152 28.4282 206.027V4.24484C28.4282 3.12033 28.8748 2.04176 29.6699 1.24591C30.465 0.450062 31.5436 0.00196938 32.669 0L176.328 0C177.455 0 178.535 0.447223 179.332 1.24328C180.129 2.03935 180.576 3.11904 180.576 4.24484V206.027C180.576 206.585 180.466 207.137 180.253 207.652C180.039 208.167 179.726 208.635 179.332 209.029C178.937 209.423 178.469 209.736 177.954 209.949C177.438 210.162 176.886 210.272 176.328 210.272ZM32.669 0.185851C31.5929 0.18782 30.5616 0.616332 29.8014 1.37733C29.0412 2.13832 28.6142 3.16962 28.6142 4.24484V206.027C28.6142 207.102 29.0412 208.134 29.8014 208.895C30.5616 209.656 31.5929 210.084 32.669 210.086H176.328C177.405 210.084 178.437 209.656 179.198 208.895C179.96 208.134 180.388 207.103 180.39 206.027V4.24484C180.388 3.16893 179.96 2.13765 179.198 1.37687C178.437 0.61609 177.405 0.187816 176.328 0.185851H32.669Z" fill="#D1E3FF"/>
<path d="M337.263 210.272H193.596C192.47 210.27 191.391 209.822 190.594 209.027C189.798 208.231 189.35 207.152 189.348 206.027V4.24484C189.35 3.11964 189.798 2.04109 190.594 1.24546C191.391 0.44982 192.47 0.00196542 193.596 0L337.263 0C338.387 0.00393426 339.463 0.452893 340.257 1.24853C341.05 2.04417 341.496 3.12161 341.496 4.24484V206.027C341.496 207.15 341.05 208.228 340.257 209.023C339.463 209.819 338.387 210.268 337.263 210.272ZM193.596 0.185851C192.519 0.187816 191.487 0.61609 190.726 1.37687C189.964 2.13765 189.536 3.16893 189.534 4.24484V206.027C189.536 207.103 189.964 208.134 190.726 208.895C191.487 209.656 192.519 210.084 193.596 210.086H337.263C338.339 210.084 339.371 209.656 340.133 208.895C340.894 208.134 341.323 207.103 341.325 206.027V4.24484C341.323 3.16893 340.894 2.13765 340.133 1.37687C339.371 0.61609 338.339 0.187816 337.263 0.185851H193.596Z" fill="#D1E3FF"/>
<path d="M254.121 98.9544L244.077 77.8789V243.428H254.121V98.9544Z" fill="#F3F8FF"/>
<path d="M238.869 98.9544L244.077 77.8789V243.428H238.869V98.9544Z" fill="#E3EEFF"/>
<path d="M267.133 142.897L221.094 132.363V243.428H267.133V142.897Z" fill="#F3F8FF"/>
<path d="M197.205 243.42H221.094V132.355H197.205V243.42Z" fill="#E3EEFF"/>
<path d="M205.017 43.6152H165.83V243.42H205.017V43.6152Z" fill="#F3F8FF"/>
<path d="M145.489 243.428H165.823L165.823 43.6228H145.489L145.489 243.428Z" fill="#E3EEFF"/>
<path d="M199.742 33.3936H165.83V43.6228H199.742V33.3936Z" fill="#F3F8FF"/>
<path d="M199.742 41.3184H165.83V43.6155H199.742V41.3184Z" fill="#E3EEFF"/>
<path d="M150.764 43.6152H165.83V33.386H150.764V43.6152Z" fill="#E3EEFF"/>
<path d="M194.467 23.1641H165.83V33.3933H194.467V23.1641Z" fill="#F3F8FF"/>
<path d="M194.467 31.0967H165.83V33.3938H194.467V31.0967Z" fill="#E3EEFF"/>
<path d="M156.039 33.3936H165.83V23.1643H156.039V33.3936Z" fill="#E3EEFF"/>
<path d="M174.297 23.1641H176.201V8.87582H174.297V23.1641Z" fill="#E3EEFF"/>
<path d="M151.984 61.5088H123.37V243.427H151.984V61.5088Z" fill="#F3F8FF"/>
<path d="M108.52 243.42H123.37L123.37 61.5013H108.52L108.52 243.42Z" fill="#E3EEFF"/>
<path d="M319.518 108.738H297.816V243.428H319.518V108.738Z" fill="#F3F8FF"/>
<path d="M286.551 243.428H297.816V108.738H286.551V243.428Z" fill="#E3EEFF"/>
<path d="M100.663 125.42H80.9026V243.421H100.663V125.42Z" fill="#F3F8FF"/>
<path d="M70.6428 151.692L80.9026 125.42V243.428H70.6428V151.692Z" fill="#E3EEFF"/>
<path d="M76.5949 149.209H60.4575V243.421H76.5949V149.209Z" fill="#F3F8FF"/>
<path d="M52.0801 165.527L60.4575 149.209V243.428H52.0801V165.527Z" fill="#E3EEFF"/>
<path d="M34.224 243.428C33.9075 241.642 33.1497 239.964 32.0193 238.545C30.889 237.126 29.4219 236.012 27.7512 235.303C29.2137 237.748 29.8768 240.588 29.6484 243.428H34.224Z" fill="#E3EEFF"/>
<path d="M254.917 243.428C255.233 241.642 255.991 239.964 257.121 238.545C258.252 237.126 259.719 236.012 261.39 235.303C259.923 237.747 259.259 240.588 259.492 243.428H254.917Z" fill="#E3EEFF"/>
<path d="M317.688 243.428C317.688 243.428 318.053 233.912 322.033 231.146C320.404 235.034 320.761 243.428 320.761 243.428H317.688Z" fill="#E3EEFF"/>
<path d="M319.176 243.428C319.176 243.428 318.811 237.964 314.831 236.373C316.46 238.603 316.103 243.428 316.103 243.428H319.176Z" fill="#E3EEFF"/>
<path d="M251.509 243.428C251.509 243.428 251.904 234.417 259.128 231.146C255.899 235.77 256.085 243.428 256.085 243.428H251.509Z" fill="#E3EEFF"/>
<path d="M333.967 182.767L328.714 219.788L328.186 223.498H324.823L325.351 219.788L330.604 182.767H333.967Z" fill="#D1E3FF"/>
<path d="M189.638 182.767L184.386 219.788L183.865 223.498H180.494L181.023 219.788L186.275 182.767H189.638Z" fill="#D1E3FF"/>
<path d="M312.398 219.787L311.87 223.497L309.035 243.457H305.665L308.492 223.497L309.02 219.787H312.398Z" fill="#D1E3FF"/>
<path d="M168.055 219.787L167.534 223.497L164.707 243.457H161.336L164.171 223.497L164.692 219.787H168.055Z" fill="#D1E3FF"/>
<path d="M185.07 219.787L185.598 223.497L188.433 243.457H191.796L188.969 223.497L188.44 219.787H185.07Z" fill="#D1E3FF"/>
<path d="M329.406 219.787L329.934 223.497L332.761 243.457H336.124L333.297 223.497L332.769 219.787H329.406Z" fill="#D1E3FF"/>
<path d="M338.81 187.918H184.557L187.421 177.614H341.675L338.81 187.918Z" fill="#E3EEFF"/>
<path d="M335.291 187.918H181.03L183.894 177.614H338.155L335.291 187.918Z" fill="#D1E3FF"/>
<path d="M336.66 200.779H182.406L185.271 190.468H339.524L336.66 200.779Z" fill="#E3EEFF"/>
<path d="M333.141 200.779H178.887L181.752 190.468H336.005L333.141 200.779Z" fill="#D1E3FF"/>
<path d="M334.517 213.655H180.256L183.121 203.344H337.382L334.517 213.655Z" fill="#E3EEFF"/>
<path d="M330.991 213.655H176.737L179.602 203.344H333.855L330.991 213.655Z" fill="#D1E3FF"/>
<path d="M316.282 219.787H162.705V223.489H316.282V219.787Z" fill="#D1E3FF"/>
<path d="M337.382 219.787H316.274V223.489H337.382V219.787Z" fill="#E3EEFF"/>
<path d="M186 277C265.669 277 330.254 273.232 330.254 268.584C330.254 263.937 265.669 260.169 186 260.169C106.331 260.169 41.7458 263.937 41.7458 268.584C41.7458 273.232 106.331 277 186 277Z" fill="#F0F6FF"/>
<path opacity="0.7" d="M182.049 53.5922L106.875 44.4111L112.984 258.772L178.151 266.072L182.049 53.5922Z" fill="#9FC6FF"/>
<path opacity="0.7" d="M257.811 45.667L182.049 53.5917L178.151 266.072L243.757 260.518L257.811 45.667Z" fill="#9FC6FF"/>
<path opacity="0.7" d="M332.717 54.8703L257.811 45.667L243.757 260.518L308.723 267.833L332.717 54.8703Z" fill="#9FC6FF"/>
<path d="M173.025 192.229C173.03 190.708 172.652 189.211 171.923 187.876C171.195 186.54 170.141 185.411 168.858 184.591C167.576 183.772 166.108 183.29 164.589 183.19C163.07 183.089 161.551 183.374 160.172 184.017C158.793 184.66 157.599 185.641 156.701 186.869C155.803 188.097 155.23 189.531 155.035 191.04C154.84 192.548 155.03 194.081 155.586 195.496C156.143 196.911 157.049 198.163 158.219 199.135C159.474 200.206 160.576 201.444 161.493 202.815L162.899 204.874L164.64 203.075C165.761 201.891 167.043 200.87 168.449 200.042C169.833 199.259 170.986 198.123 171.789 196.751C172.593 195.379 173.019 193.819 173.025 192.229Z" fill="white"/>
<path d="M310.769 79.0093C310.775 77.4886 310.396 75.9911 309.667 74.6559C308.939 73.3206 307.885 72.191 306.603 71.3717C305.32 70.5525 303.852 70.0703 302.333 69.9699C300.815 69.8695 299.295 70.1541 297.916 70.7974C296.537 71.4407 295.343 72.4217 294.445 73.6494C293.547 74.8771 292.974 76.3117 292.779 77.8199C292.584 79.3281 292.774 80.861 293.331 82.2763C293.887 83.6917 294.793 84.9435 295.963 85.9155C297.22 86.9814 298.322 88.2175 299.237 89.588L300.643 91.6472L302.391 89.8556C303.509 88.6677 304.792 87.6463 306.201 86.8225C307.584 86.0384 308.735 84.9026 309.538 83.5305C310.34 82.1583 310.765 80.5985 310.769 79.0093Z" fill="white"/>
<path d="M181.662 52.3726L258.294 44.3587L334.123 53.6661L309.839 269.172L244.099 261.738L177.719 267.358L111.771 259.968L105.588 43.1172L181.662 52.3726ZM190.992 236.358L245.245 198.288L245.46 198.132L257.268 191.605L247.053 183.792L177.861 158.999L164.193 151.089L144.038 198.571L181.179 229.875L190.992 236.358ZM136.107 191.91L155.28 145.945L118.035 124.386L119.204 177.673L136.107 191.91ZM181.811 63.9771L180.725 63.8433L116.533 56.045L117.768 112.388L159.432 136.66L176.075 108.41L197.026 62.4085L182.89 63.8953L181.811 63.9771ZM209.473 61.115L185.085 113.808L168.33 141.856L181.767 149.684L251.941 174.96L266.716 186.356L284.253 176.692L275.525 58.2529L257.922 56.097L209.473 61.115ZM286.343 59.5762L293.88 171.362L311.981 161.319L322.308 63.9771L286.343 59.5762ZM244.367 252.861L245.326 252.973L301.595 259.329L310.724 173.213L250.52 206.265L199.332 241.881L219.145 254.943L219.1 255.017L243.4 252.936L244.367 252.861ZM177.563 258.571L204.741 256.251L175.539 237.146L119.479 190.267L120.84 252.2L177.563 258.571Z" fill="#D4E9FF"/>
<path d="M266.263 193.285C266.102 193.285 265.945 193.233 265.816 193.136L249.114 180.328L179.542 154.97C179.497 154.958 179.454 154.938 179.416 154.911L162.036 144.577L142.692 190.958C142.598 191.107 142.455 191.218 142.287 191.271C142.119 191.324 141.938 191.316 141.776 191.248C141.613 191.18 141.48 191.057 141.4 190.901C141.32 190.744 141.298 190.564 141.338 190.393L161.039 143.232C161.081 143.135 161.144 143.049 161.222 142.979C161.3 142.908 161.392 142.855 161.493 142.823C161.592 142.79 161.697 142.778 161.8 142.789C161.904 142.799 162.005 142.831 162.095 142.882L180.145 153.617L249.761 178.989C249.831 179.012 249.897 179.047 249.954 179.094L266.352 191.665L289.245 179.027L281.976 84.5473C281.961 84.3502 282.025 84.1552 282.155 84.0053C282.284 83.8555 282.467 83.763 282.664 83.7482C282.862 83.7334 283.057 83.7975 283.207 83.9265C283.357 84.0555 283.449 84.2387 283.464 84.4358L290.726 179.376C290.736 179.516 290.706 179.655 290.64 179.779C290.575 179.903 290.475 180.005 290.354 180.075L266.627 193.181C266.517 193.247 266.391 193.282 266.263 193.285Z" fill="#407BFF"/>
<path d="M285.012 84.6888C284.968 85.1252 284.797 85.539 284.519 85.8785C284.241 86.2181 283.87 86.4683 283.451 86.598C283.031 86.7276 282.583 86.731 282.162 86.6075C281.741 86.4841 281.366 86.2393 281.083 85.9039C280.801 85.5685 280.623 85.1573 280.573 84.7217C280.523 84.286 280.603 83.8454 280.802 83.4547C281.001 83.0641 281.311 82.7408 281.694 82.5253C282.076 82.3098 282.513 82.2116 282.951 82.2431C283.248 82.2644 283.538 82.3452 283.804 82.4805C284.07 82.6159 284.306 82.8031 284.498 83.0311C284.69 83.2591 284.835 83.5233 284.923 83.808C285.011 84.0928 285.041 84.3923 285.012 84.6888Z" fill="#407BFF"/>
<path d="M144.232 190.854C144.188 191.29 144.017 191.704 143.739 192.044C143.462 192.383 143.09 192.633 142.671 192.763C142.252 192.893 141.803 192.896 141.382 192.773C140.961 192.649 140.586 192.404 140.303 192.069C140.021 191.734 139.843 191.322 139.793 190.887C139.743 190.451 139.823 190.01 140.022 189.62C140.222 189.229 140.532 188.906 140.914 188.69C141.296 188.475 141.733 188.377 142.171 188.408C142.468 188.429 142.759 188.51 143.024 188.646C143.29 188.781 143.526 188.968 143.718 189.196C143.91 189.424 144.055 189.688 144.143 189.973C144.231 190.258 144.261 190.557 144.232 190.854Z" fill="#407BFF"/>
<g style="mix-blend-mode:multiply" opacity="0.3">
<path d="M258.324 44.3516L181.662 52.3729L177.719 267.388L244.099 261.768L258.324 44.3516Z" fill="#14365B"/>
</g>
<path d="M125.416 110.686L120.751 104.21C120.675 104.108 120.622 103.991 120.597 103.866C120.572 103.741 120.575 103.612 120.605 103.488C120.636 103.365 120.694 103.249 120.774 103.15C120.855 103.052 120.956 102.972 121.071 102.917L138.183 93.9961C138.433 93.8735 138.718 93.8413 138.99 93.905C139.261 93.9687 139.502 94.1244 139.671 94.3455L144.329 100.821C144.406 100.922 144.46 101.039 144.487 101.164C144.514 101.289 144.512 101.418 144.482 101.542C144.452 101.666 144.394 101.782 144.314 101.881C144.233 101.98 144.131 102.06 144.016 102.114L126.904 111.035C126.654 111.158 126.369 111.19 126.098 111.126C125.826 111.062 125.585 110.907 125.416 110.686Z" fill="#0053CC"/>
<path d="M124.843 109.89L120.178 103.415C120.102 103.312 120.05 103.195 120.024 103.07C119.999 102.945 120.002 102.816 120.033 102.692C120.063 102.569 120.121 102.453 120.201 102.354C120.282 102.256 120.383 102.176 120.498 102.121L137.61 93.2002C137.861 93.0776 138.146 93.0454 138.417 93.1091C138.688 93.1728 138.929 93.3285 139.098 93.5496L143.763 100.025C143.839 100.127 143.892 100.245 143.917 100.369C143.942 100.494 143.94 100.623 143.909 100.747C143.879 100.871 143.821 100.986 143.74 101.085C143.66 101.184 143.558 101.263 143.443 101.318L126.331 110.239C126.081 110.362 125.796 110.394 125.525 110.33C125.253 110.266 125.013 110.111 124.843 109.89Z" fill="#407BFF"/>
<path d="M142.848 101.6L135.162 105.622L134.456 105.994L131.003 107.8L130.267 108.187L127.507 109.629L121.666 101.511L122.343 101.154L123.065 100.783L129.709 97.3035L131.785 96.2107L137 93.4824L138.935 96.1661L139.426 96.8575L142.074 100.53L142.491 101.102L142.848 101.6Z" fill="#DCE9FF"/>
<path d="M142.491 101.102L142.074 100.53L136.33 103.161L134.292 104.574L133.593 103.734L132.105 99.4667L130.133 98.1806L130.817 96.9094L139.448 96.8574L138.957 96.166L131.807 96.2106L129.731 97.3034L128.169 100.359L125.401 103.065L123.087 100.783L122.343 101.154L126.339 105.117L130.267 108.187L131.011 107.8L130.475 107.384L134.061 105.503L134.463 105.994L135.17 105.622L134.753 105.117L136.799 103.712L142.491 101.102ZM129.843 106.908L126.926 104.626L125.907 103.607L128.838 100.634L129.716 98.8423L131.375 99.831L132.863 104.039L133.607 104.894L129.843 106.908Z" fill="white"/>
<path d="M82.4651 96.8134L82.0335 97.6684L81.5871 98.6125C81.2895 99.2518 81.0068 99.906 80.739 100.568C80.2107 101.898 79.6899 103.229 79.251 104.597C78.3671 107.325 77.6882 110.116 77.2199 112.945C77.0859 113.652 77.0264 114.365 76.9223 115.071L76.8776 115.406V115.599C76.8553 115.677 76.8553 115.759 76.8776 115.837C76.9411 115.958 77.0432 116.055 77.1678 116.112C77.6193 116.355 78.1064 116.526 78.6111 116.618C79.9379 116.865 81.2868 116.975 82.6362 116.945C84.0572 116.945 85.5601 116.841 86.9737 116.707L87.7623 119.762C87.0066 120.049 86.2368 120.297 85.4559 120.506C84.7119 120.736 83.901 120.937 83.0975 121.1C81.4249 121.467 79.7117 121.614 78.0011 121.539C76.9827 121.491 75.9783 121.283 75.0251 120.922C74.4371 120.697 73.8856 120.386 73.3883 120C72.8062 119.55 72.3162 118.992 71.9449 118.357C71.5848 117.723 71.3475 117.027 71.2455 116.306C71.1957 115.981 71.1709 115.653 71.1711 115.324V114.893V114.588C71.2307 113.785 71.253 112.975 71.3423 112.172C71.6638 108.958 72.2916 105.781 73.2171 102.686C73.6664 101.135 74.1979 99.6091 74.8093 98.1144C75.1143 97.371 75.4343 96.6276 75.7839 95.8842C75.9551 95.5125 76.1336 95.1408 76.3271 94.7765C76.5205 94.4123 76.6991 94.0331 76.9595 93.6094L82.4651 96.8134Z" fill="#FF8B7B"/>
<path d="M86.4454 116.55L91.0434 112.246L91.3782 118.572C91.3782 118.572 87.9781 120.684 85.7312 119.39L86.4454 116.55Z" fill="#FF8B7B"/>
<path d="M96.2587 111.778L96.2512 117.086L91.378 118.573L91.0432 112.247L96.2587 111.778Z" fill="#FF8B7B"/>
<path d="M78.678 265.596C78.1209 265.582 77.5671 265.507 77.0263 265.373C76.9989 265.365 76.9742 265.349 76.9546 265.329C76.935 265.308 76.9212 265.282 76.9147 265.254C76.9101 265.226 76.9141 265.196 76.9259 265.17C76.9378 265.143 76.9572 265.121 76.9816 265.105C77.1974 264.964 79.0872 263.745 79.8163 264.072C79.8971 264.11 79.9665 264.168 80.0174 264.241C80.0684 264.314 80.0991 264.4 80.1064 264.488C80.1355 264.629 80.1282 264.774 80.0852 264.911C80.0423 265.047 79.965 265.171 79.8609 265.269C79.5185 265.516 79.0988 265.632 78.678 265.596ZM77.4504 265.165C78.5292 265.381 79.3476 265.343 79.6824 265.053C79.7513 264.986 79.8018 264.902 79.8292 264.81C79.8565 264.717 79.8598 264.62 79.8386 264.526C79.8359 264.486 79.8227 264.448 79.8005 264.416C79.7783 264.383 79.7478 264.357 79.7121 264.34C79.3104 264.169 78.2167 264.697 77.4504 265.165Z" fill="#0053CC"/>
<path d="M77.0636 265.395C77.0394 265.403 77.0134 265.403 76.9892 265.395C76.9674 265.382 76.9492 265.363 76.9362 265.341C76.9233 265.319 76.9159 265.294 76.9148 265.269C76.9148 265.187 76.9148 263.395 77.5993 262.8C77.6811 262.721 77.7801 262.662 77.8884 262.627C77.9967 262.593 78.1116 262.583 78.2242 262.6C78.3416 262.601 78.455 262.642 78.5458 262.716C78.6365 262.791 78.6989 262.894 78.7227 263.009C78.8641 263.715 77.7332 265.06 77.138 265.395C77.1137 265.402 77.0879 265.402 77.0636 265.395ZM78.1275 262.875C78.0065 262.875 77.89 262.92 77.8002 263.001C77.4076 263.579 77.2048 264.265 77.2198 264.964C77.815 264.488 78.5218 263.477 78.4325 263.053C78.4325 262.986 78.3805 262.897 78.1945 262.875H78.1275Z" fill="#0053CC"/>
<path d="M107.024 265.596C106.364 265.582 105.707 265.507 105.06 265.373C105.031 265.366 105.004 265.351 104.984 265.328C104.963 265.305 104.951 265.276 104.949 265.246C104.944 265.217 104.948 265.186 104.962 265.16C104.975 265.133 104.997 265.111 105.023 265.097C105.306 264.949 107.791 263.685 108.55 264.101C108.622 264.14 108.684 264.196 108.728 264.265C108.772 264.334 108.798 264.413 108.803 264.495C108.824 264.632 108.81 264.771 108.764 264.901C108.717 265.031 108.638 265.147 108.535 265.239C108.087 265.527 107.554 265.653 107.024 265.596ZM105.536 265.164C106.92 265.395 107.947 265.335 108.326 264.993C108.391 264.934 108.439 264.859 108.468 264.776C108.496 264.693 108.504 264.604 108.49 264.518C108.49 264.485 108.48 264.454 108.463 264.426C108.446 264.399 108.422 264.376 108.393 264.361C107.992 264.131 106.571 264.651 105.551 265.164H105.536Z" fill="#0053CC"/>
<path d="M105.09 265.395C105.063 265.403 105.035 265.403 105.008 265.395C104.987 265.38 104.969 265.36 104.958 265.337C104.946 265.314 104.94 265.288 104.941 265.262C104.941 265.187 105.09 263.515 105.879 262.86C105.99 262.764 106.12 262.692 106.261 262.648C106.402 262.604 106.551 262.591 106.697 262.608C107.106 262.652 107.225 262.853 107.248 263.024C107.367 263.73 105.894 265.076 105.15 265.41L105.09 265.395ZM106.578 262.875C106.389 262.872 106.205 262.941 106.065 263.068C105.608 263.61 105.33 264.28 105.269 264.986C106.013 264.533 107.024 263.5 106.957 263.046C106.957 263.046 106.957 262.905 106.667 262.875H106.578Z" fill="#0053CC"/>
<path d="M90.3292 72.2285C91.0732 75.9455 92.6951 83.3796 90.106 85.87C90.106 85.87 91.1178 89.587 97.9924 89.587C105.544 89.587 101.601 85.87 101.601 85.87C97.479 84.8887 97.5832 81.8333 98.3048 78.9563L90.3292 72.2285Z" fill="#FF8B7B"/>
<path d="M104.792 63.6426C104.733 63.6449 104.676 63.6265 104.629 63.5906C104.595 63.5703 104.566 63.5433 104.544 63.5112C104.521 63.4791 104.505 63.4426 104.498 63.4042C104.49 63.3657 104.49 63.3261 104.499 63.2878C104.507 63.2495 104.524 63.2134 104.547 63.1817C104.8 62.7887 105.142 62.4607 105.545 62.2244C105.948 61.988 106.402 61.8499 106.868 61.8213C106.907 61.8213 106.945 61.829 106.981 61.844C107.017 61.8591 107.049 61.8811 107.076 61.9088C107.103 61.9365 107.124 61.9694 107.138 62.0054C107.153 62.0415 107.159 62.08 107.158 62.1186C107.159 62.1577 107.152 62.1965 107.138 62.2326C107.123 62.2688 107.101 62.3015 107.073 62.3287C107.045 62.356 107.012 62.3771 106.975 62.3909C106.939 62.4046 106.9 62.4106 106.861 62.4086C106.492 62.4357 106.134 62.5495 105.818 62.7407C105.501 62.9318 105.234 63.195 105.038 63.5088C105.01 63.5482 104.973 63.5808 104.931 63.604C104.888 63.6271 104.841 63.6404 104.792 63.6426Z" fill="#0F264C"/>
<path d="M106.593 67.1221C107.041 68.267 107.645 69.345 108.386 70.3261C108.129 70.5084 107.836 70.6328 107.526 70.6906C107.217 70.7483 106.898 70.7381 106.593 70.6607V67.1221Z" fill="#FF5652"/>
<path d="M106.139 66.2591C106.139 66.7572 106.407 67.1661 106.734 67.1661C107.062 67.1661 107.33 66.7572 107.33 66.2591C107.33 65.761 107.069 65.3447 106.734 65.3447C106.4 65.3447 106.139 65.7536 106.139 66.2591Z" fill="#0F264C"/>
<path d="M106.593 65.3748L107.798 65.0254C107.798 65.0254 107.181 65.9695 106.593 65.3748Z" fill="#0F264C"/>
<path d="M98.2378 265.232H104.473L104.889 250.81H98.6544L98.2378 265.232Z" fill="#FF8B7B"/>
<path d="M69.9211 265.232H76.1559L78.1572 250.81H71.9299L69.9211 265.232Z" fill="#FF8B7B"/>
<path d="M76.5428 264.511H69.5418C69.4211 264.508 69.3036 264.55 69.2116 264.628C69.1197 264.706 69.0597 264.815 69.0433 264.935L68.2472 270.466C68.2315 270.605 68.2455 270.747 68.2885 270.881C68.3315 271.015 68.4024 271.139 68.4966 271.243C68.5908 271.348 68.7062 271.431 68.835 271.488C68.9639 271.545 69.1033 271.574 69.2442 271.573C71.6845 271.536 72.86 271.387 75.9402 271.387C77.8374 271.387 80.6051 271.588 83.2165 271.588C85.8279 271.588 85.9767 269.001 84.8831 268.771C80.0024 267.722 79.2287 266.273 77.5844 264.89C77.2916 264.647 76.9235 264.513 76.5428 264.511Z" fill="#14365B"/>
<path d="M104.681 264.51H97.6797C97.5594 264.506 97.4419 264.547 97.3508 264.625C97.2597 264.704 97.2018 264.814 97.1887 264.934L96.3852 270.465C96.3693 270.605 96.3836 270.747 96.427 270.882C96.4704 271.017 96.542 271.14 96.6371 271.245C96.7321 271.35 96.8483 271.433 96.9781 271.49C97.1078 271.546 97.2481 271.574 97.3896 271.572C99.8299 271.535 101.005 271.387 104.086 271.387C105.975 271.387 109.896 271.587 112.508 271.587C115.119 271.587 115.268 269 114.174 268.77C109.294 267.722 107.374 266.272 105.722 264.889C105.431 264.644 105.062 264.51 104.681 264.51Z" fill="#14365B"/>
<path d="M104.882 250.81L104.673 258.244H98.4387L98.647 250.81H104.882Z" fill="#EA7063"/>
<path d="M71.9226 250.81H78.1573L77.1232 258.244H70.8884L71.9226 250.81Z" fill="#EA7063"/>
<path d="M112.136 87.4691C112.136 87.4691 115.112 88.5098 109.16 125.048H83.8637C84.2877 114.759 84.2952 108.411 79.3997 87.2832C82.9417 86.5521 86.5323 86.08 90.143 85.8707C93.9698 85.5991 97.811 85.5991 101.638 85.8707C106.533 86.3242 112.136 87.4691 112.136 87.4691Z" fill="#407BFF"/>
<path d="M107.076 103.526L111.392 108.366L111.942 98.8799L107.076 103.526Z" fill="#236AE8"/>
<path d="M126.168 108.826C125.215 110.127 124.211 111.458 123.192 112.714C122.243 113.928 121.203 115.069 120.082 116.127L119.65 116.476L119.427 115.799C119.189 115.056 118.951 114.275 118.735 113.487C117.842 110.365 117.054 107.146 116.287 103.92L114.055 94.2109L107.88 95.5045C108.55 98.8572 109.301 102.143 110.172 105.436C110.593 107.077 111.04 108.72 111.511 110.365C112.002 112.008 112.493 113.644 113.066 115.286C113.334 116.112 113.654 116.937 113.959 117.762L114.465 119.003C114.575 119.287 114.704 119.563 114.851 119.829C115.041 120.183 115.263 120.518 115.514 120.832C115.847 121.236 116.244 121.583 116.689 121.858C117.22 122.179 117.814 122.382 118.43 122.453C119.392 122.536 120.357 122.326 121.198 121.851C122.192 121.277 123.068 120.521 123.779 119.621C124.945 118.207 125.957 116.675 126.8 115.049C127.217 114.305 127.604 113.495 127.961 112.699C128.318 111.904 128.667 111.123 128.98 110.276L126.168 108.826Z" fill="#FF8B7B"/>
<path d="M112.136 87.469C114.703 88.1232 116.503 98.6796 116.503 98.6796L106.593 105.415C106.593 105.415 102.635 92.8364 104.614 90.0189C106.667 87.075 108.386 86.51 112.136 87.469Z" fill="#407BFF"/>
<path d="M127.603 111.206L133.176 109.206L129.575 106.232C129.575 106.232 125.334 106.775 125.252 110.172L127.603 111.206Z" fill="#FF8B7B"/>
<path d="M136.264 107.228L136.956 105.778L129.568 106.254L133.161 109.205L136.264 107.228Z" fill="#FF8B7B"/>
<path d="M131.77 106.113L131.056 105.318L131.971 103.191L130.684 103.34L126.979 107.213L131.77 106.113Z" fill="#FF8B7B"/>
<path d="M89.28 64.5347C89.6594 70.6975 89.6892 73.3217 92.8066 76.4886C97.4938 81.2464 104.993 79.4622 106.466 73.2771C107.791 67.7313 106.95 58.58 100.909 56.1193C99.5784 55.5715 98.13 55.3728 96.7012 55.542C95.2723 55.7112 93.9105 56.2427 92.7452 57.086C91.5799 57.9293 90.6497 59.0564 90.0432 60.3601C89.4367 61.6638 89.174 63.1009 89.28 64.5347Z" fill="#FF8B7B"/>
<path d="M102.471 125.056C102.471 125.056 101.846 132.445 100.842 142.801C99.6216 155.439 97.8657 172.537 95.9611 186.067C95.6784 188.089 95.3882 190.037 95.1055 191.873C92.07 211.328 78.6259 256.802 78.6259 256.802H70.1294C70.1294 256.802 77.1379 212.882 78.6705 193.613C82.5691 144.92 75.7392 136.303 83.8785 125.019L102.471 125.056Z" fill="#0053CC"/>
<path d="M100.842 142.801C99.6215 155.439 97.8657 172.537 95.961 186.067C94.0787 180.313 90.6489 160.189 93.6472 142.511C95.4551 131.858 98.9519 136.526 100.842 142.801Z" fill="#004DAA"/>
<path d="M109.16 125.048C109.16 125.048 114.07 173.02 113.661 192.006C113.237 211.759 105.998 256.809 105.998 256.809H97.5681C97.5681 256.809 98.8999 212.911 98.1559 193.515C97.3449 172.366 90.6191 125.048 90.6191 125.048H109.16Z" fill="#0053CC"/>
<path d="M79.6081 257.24H69.1474L68.9614 253.649L80.4116 253.352L79.6081 257.24Z" fill="#407BFF"/>
<path d="M107.076 257.24H96.6232L96.2214 253.352H107.88L107.076 257.24Z" fill="#407BFF"/>
<path d="M79.3624 87.2832C76.7733 87.8556 73.2839 97.3563 73.2839 97.3563L84.1984 103.66C84.1984 103.66 87.3976 96.2263 86.1626 92.9851C84.8755 89.6323 82.4203 86.6141 79.3624 87.2832Z" fill="#407BFF"/>
<path d="M94.5252 53.5767C85.9022 52.9374 82.8221 59.1299 84.2952 66.616C85.9022 74.7935 83.0825 78.4213 79.8312 81.4395C77.3239 83.7887 76.3865 88.1302 78.4994 93.8395C80.2329 98.5304 78.0307 101.222 78.4994 105.132C79.05 109.332 86.0957 111.153 90.0314 107.005C93.8333 102.998 92.9404 100.27 96.2959 98.9913C101.638 96.9544 106.578 93.6165 105.276 87.5429C104.428 83.6177 99.5397 80.9266 101.005 75.8268C102.731 70.058 109.405 54.6695 94.5252 53.5767Z" fill="#0F264C"/>
<path d="M88.0078 55.235L102.627 66.2597C102.769 64.3715 104.688 61.2938 106.05 59.413C108.163 56.4988 96.8168 45.2586 88.0078 55.235Z" fill="#0F264C"/>
<path d="M100.738 67.0177C100.746 68.2013 101.167 69.3449 101.928 70.2516C102.94 71.441 104.16 70.7422 104.42 69.3372C104.673 68.0734 104.42 65.9324 103.17 65.2559C101.921 64.5794 100.745 65.583 100.738 67.0177Z" fill="#FF8B7B"/>
<path d="M83.4693 123.569L82.3236 125.799C82.2343 125.977 82.4426 126.156 82.7402 126.156H109.279C109.509 126.156 109.695 126.044 109.71 125.903L109.941 123.635C109.941 123.479 109.762 123.346 109.509 123.346H83.8785C83.7963 123.341 83.7142 123.359 83.6419 123.398C83.5695 123.438 83.5097 123.497 83.4693 123.569Z" fill="#0F264C"/>
<path d="M86.9067 126.43H86.2222C86.0883 126.43 85.9841 126.356 85.9916 126.274L86.3115 123.301C86.3115 123.219 86.4454 123.145 86.5793 123.145H87.2638C87.4052 123.145 87.5093 123.219 87.4945 123.301L87.1745 126.274C87.1671 126.378 87.0481 126.43 86.9067 126.43Z" fill="#9FC6FF"/>
<path d="M103.55 126.43H102.865C102.724 126.43 102.62 126.356 102.627 126.274L102.955 123.301C102.955 123.219 103.081 123.145 103.215 123.145H103.907C104.041 123.145 104.145 123.219 104.138 123.301L103.81 126.274C103.803 126.378 103.684 126.43 103.55 126.43Z" fill="#9FC6FF"/>
<path d="M141.658 78.0572C141.531 76.5218 141.018 75.0432 140.166 73.7588C139.315 72.4744 138.152 71.4258 136.786 70.7105C135.421 69.9951 133.896 69.6361 132.355 69.6669C130.813 69.6976 129.304 70.1171 127.968 70.8863C126.632 71.6555 125.513 72.7496 124.713 74.0669C123.913 75.3842 123.46 76.8821 123.394 78.4214C123.329 79.9607 123.654 81.4915 124.339 82.8718C125.024 84.252 126.047 85.4369 127.313 86.3165C128.675 87.2869 129.897 88.4401 130.944 89.7435L132.536 91.6987L134.143 89.7361C135.167 88.4402 136.372 87.2985 137.722 86.3462C139.052 85.4346 140.116 84.1875 140.808 82.7316C141.499 81.2758 141.792 79.663 141.658 78.0572Z" fill="white"/>
<path d="M133.087 85.4911C132.093 85.5759 131.092 85.4347 130.161 85.0781C129.229 84.7215 128.39 84.1586 127.708 83.4319C127.378 83.0788 127.087 82.6927 126.837 82.2796C126.329 81.4118 126.022 80.4415 125.937 79.4398C125.825 77.9313 126.232 76.4299 127.091 75.1841C127.949 73.9383 129.208 73.0228 130.658 72.5892C132.108 72.1556 133.663 72.2298 135.066 72.7997C136.468 73.3695 137.633 74.4008 138.369 75.7227C138.436 75.8328 138.496 75.947 138.548 76.0647C138.898 76.7923 139.11 77.5789 139.173 78.3841C139.304 80.1319 138.738 81.8607 137.597 83.1924C136.457 84.5242 134.835 85.3506 133.087 85.4911Z" fill="#0F264C"/>
<path d="M133.087 85.4912C132.093 85.576 131.092 85.4348 130.161 85.0782C129.229 84.7215 128.39 84.1587 127.708 83.4319C127.538 83.2109 127.381 82.9801 127.239 82.7406C126.904 82.0211 126.698 81.2487 126.629 80.4583C126.493 79.041 126.817 77.6176 127.553 76.3985C128.289 75.1795 129.398 74.2296 130.717 73.6893C132.035 73.149 133.492 73.0471 134.873 73.3986C136.254 73.7501 137.485 74.5363 138.384 75.641C138.451 75.751 138.51 75.8653 138.563 75.983C138.913 76.7106 139.125 77.4972 139.187 78.3024C139.264 79.1756 139.166 80.0552 138.9 80.8904C138.634 81.7256 138.205 82.4999 137.638 83.1684C137.071 83.8369 136.376 84.3863 135.595 84.785C134.814 85.1837 133.961 85.4237 133.087 85.4912Z" fill="#407BFF"/>
</svg>
