<svg width="437" height="288" viewBox="0 0 437 288" fill="none" xmlns="http://www.w3.org/2000/svg">
<path d="M36.4556 287C18.0588 257.601 6.68352 209.996 30.4602 188.817C54.2368 167.639 82.0739 193.555 82.0739 193.555C82.0739 193.555 35.2902 75.9831 85.5554 46.9118C135.821 17.8404 163.819 96.3946 163.819 96.3946C163.819 96.3946 161.136 11.713 205.787 0.976026C250.438 -9.76096 269.289 71.6292 269.289 71.6292C269.289 71.6292 271.737 15.5157 326.627 23.1051C381.517 30.6945 354.853 132.137 354.853 132.137C354.853 132.137 381.239 105.59 411.656 125.498C442.073 145.406 393.098 215.388 393.098 215.388C393.098 215.388 421.221 207.04 429.342 230.743C437.463 254.446 413.115 286.952 413.115 286.952L36.4556 287Z" fill="url(#paint0_linear)"/>
<path d="M208.021 66.1549H306.238L290.049 126.243H191.825L208.021 66.1549Z" fill="#3EA1E9"/>
<path d="M131.525 95.3389H169.553L188.148 126.243H150.121L131.525 95.3389Z" fill="#4891CC"/>
<path d="M171.116 83.0509L163.044 82.2424L166.464 88.8568C169.984 91.2007 173.728 93.1898 177.64 94.795L179.247 90.9954C176.126 88.8044 173.38 86.1215 171.116 83.0509Z" fill="#FFADB7"/>
<path d="M171.116 83.0508C162.626 72.1077 155.852 55.7777 152.132 50.714C149.145 46.6278 137.998 52.1839 147.832 69.756C152.756 78.5751 160.226 84.844 166.449 88.9229L171.116 83.0508Z" fill="#7BC4B3"/>
<path style="mix-blend-mode:overlay" opacity="0.5" d="M159.602 64.2368C156.491 58.3574 153.944 53.1688 152.132 50.6847C149.145 46.5985 137.998 52.1546 147.832 69.7267C149.833 73.2633 152.266 76.5368 155.075 79.4718C156.63 75.7531 158.509 68.5655 159.602 64.2368Z" fill="url(#paint1_linear)"/>
<path d="M206.336 91.0061L174.868 82.715L164.922 120.576L196.39 128.867L206.336 91.0061Z" fill="#44ABE4"/>
<path d="M219.638 94.5041L206.339 90.9999L196.393 128.861L209.692 132.365L219.638 94.5041Z" fill="#2082BA"/>
<path d="M151.845 47.1425C151.111 44.9377 150.209 38.8304 153.9 36.8976C153.9 36.8976 156.006 30.9153 160.688 31.856C165.37 32.7967 174.389 33.5537 173.449 42.4095C172.51 51.2654 164.203 47.4732 164.203 47.4732L151.845 47.1425Z" fill="#01004C"/>
<path d="M149.57 49.2075C149.57 49.2075 149.857 50.8537 152.66 52.963L155.573 50.4422C155.573 50.4422 160.666 56.4171 165.172 50.692C165.512 51.0534 165.928 51.3346 166.39 51.5151C166.39 51.5151 166.874 47.3334 168.922 45.1066C168.922 45.1066 165.054 40.9983 162.655 42.1669C160.255 43.3354 159.617 43.747 159.44 42.696C159.264 41.6451 160.959 39.8813 158.743 38.9405C156.527 37.9998 154.759 41.3438 155.691 43.6882L149.57 49.2075Z" fill="#FFADB7"/>
<path style="mix-blend-mode:overlay" opacity="0.51" d="M163.029 49.0165C163.004 48.5092 162.828 48.0209 162.525 47.6136C162.222 47.2062 161.806 46.8981 161.328 46.7282C160.85 46.5584 160.332 46.5345 159.841 46.6596C159.349 46.7846 158.906 47.0531 158.567 47.4308C158.228 47.8085 158.008 48.2786 157.936 48.7814C157.864 49.2841 157.943 49.797 158.162 50.2549C158.382 50.7129 158.732 51.0953 159.168 51.3537C159.605 51.6121 160.108 51.7348 160.615 51.7063C161.29 51.6684 161.924 51.3641 162.376 50.8601C162.828 50.3561 163.063 49.6933 163.029 49.0165Z" fill="url(#paint2_radial)"/>
<path d="M164.38 45.9812C164.782 46.018 165.156 46.2044 165.428 46.5037C165.699 46.8031 165.849 47.1935 165.848 47.598" stroke="#EF8998" stroke-width="0.5" stroke-miterlimit="10" stroke-linecap="round"/>
<path d="M156.308 41.873C156.366 41.3484 156.547 40.8449 156.836 40.4031C156.949 40.2029 157.108 40.0321 157.299 39.9044C157.49 39.7768 157.709 39.6959 157.937 39.6682C158.084 39.669 158.229 39.7015 158.362 39.7638" stroke="#EF8998" stroke-width="0.5" stroke-miterlimit="10" stroke-linecap="round"/>
<path d="M156.938 40.2634C157.108 40.5566 157.341 40.8078 157.621 40.9984" stroke="#EF8998" stroke-width="0.5" stroke-miterlimit="10" stroke-linecap="round"/>
<path style="mix-blend-mode:overlay" opacity="0.75" d="M154.106 51.6621L155.574 50.4422C154.994 49.7567 154.533 48.9792 154.209 48.1418C153.883 48.6674 153.702 49.2699 153.684 49.8881C153.666 50.5064 153.812 51.1185 154.106 51.6621Z" fill="url(#paint3_linear)"/>
<path d="M125.567 96.0812C125.567 96.0812 114.89 145.358 104.447 165.782L109.68 168.486C109.68 168.486 136.714 131.688 141.968 109.214L125.567 96.0812Z" fill="#19437F"/>
<path d="M104.447 165.782L109.679 168.486L115.667 177.114L101.754 170.537L104.447 165.782Z" fill="#F98091"/>
<path style="mix-blend-mode:overlay" opacity="0.5" d="M125.567 96.0812C125.567 96.0812 122.889 108.421 118.911 123.31C120.643 125.515 124.635 129.05 133.309 130.711C137.206 123.171 140.464 115.616 141.961 109.214L125.567 96.0812Z" fill="url(#paint4_linear)"/>
<path d="M142.078 134.231C146.995 145.505 147.215 173.182 147.215 173.182H153.012C161.466 137.612 147.017 95.2802 147.017 95.2802L122.551 95.5227C124.539 114.131 138.064 125.03 142.078 134.231Z" fill="#19437F"/>
<path d="M147.229 173.182L153.027 173.168L162.119 178.408H146.73L147.229 173.182Z" fill="#F98091"/>
<path d="M122.551 95.5226C130.631 97.2344 138.988 97.1516 147.032 95.28C147.032 95.28 145.183 75.7236 151.171 66.3607C156.645 57.8282 155.134 43.3427 141.939 50.3539C119.344 62.3553 122.551 95.5226 122.551 95.5226Z" fill="#7BC4B3"/>
<path style="mix-blend-mode:overlay" opacity="0.5" d="M147.633 76.7967L137.455 71.3802C135.026 80.4933 130.52 94.5452 146.892 93.3472C146.568 87.8195 146.817 82.2732 147.633 76.7967Z" fill="url(#paint5_linear)"/>
<path d="M151.112 84.5429C148.778 75.6429 158.59 51.5447 150.488 49.5457C137.485 46.334 132.473 80.4126 143.517 92.9064C146.064 95.7798 149.167 98.1051 152.638 99.7412L156.608 92.5756C153.982 90.5398 152.06 87.7304 151.112 84.5429Z" fill="#7BC4B3"/>
<path d="M156.608 92.5682C161.238 96.4119 167.461 98.4476 170.925 98.0361C170.925 98.0361 175.328 95.2287 175.827 95.8681C176.113 96.2355 174.682 98.0728 174.682 98.0728C174.682 98.0728 180.325 97.4335 180.435 98.0728C180.545 98.7122 177.192 99.234 176.208 99.4545C176.208 99.4545 181.25 99.065 181.389 99.6897C181.529 100.314 177.588 100.821 176.509 100.866C177.339 100.866 180.912 100.866 180.964 101.6C181.015 102.335 176.869 102.262 176.458 102.203C176.458 102.203 179.437 103.041 179.393 103.739C179.349 104.437 174.455 103.666 171.967 102.931C165.368 103.606 158.708 102.515 152.667 99.7705L156.608 92.5682Z" fill="#FFADB7"/>
<path d="M191.825 178.408H89.7998V286.978H191.825V178.408Z" fill="#3EA1E9"/>
<path d="M252.022 126.243H150.121V286.978H252.022V126.243Z" fill="#61BDFF"/>
<path d="M290.049 126.243H252.021V287.023H290.049V126.243Z" fill="#3EA1E9"/>
<path d="M308.644 95.3389H270.617L252.021 126.243H290.049L308.644 95.3389Z" fill="#61BDFF"/>
<path d="M125.736 194.789C123.534 193.363 121.245 193.283 121.289 190.622C121.333 187.962 118.273 186.654 121.92 183.839C121.92 183.839 120.614 179.547 123.784 177.607C126.954 175.666 126.345 175.402 130.586 173.734C134.828 172.065 143.179 173.814 144.449 177.585C145.718 181.355 143.759 182.582 145.263 184.559C146.767 186.536 144.625 190.438 140.031 189.703C135.437 188.969 128.106 194.782 128.106 194.782L125.736 194.789Z" fill="#01004C"/>
<path d="M124.657 197.435L125.736 194.789C126.633 194.135 127.24 193.157 127.431 192.063C127.534 190.475 128.899 188.241 128.899 188.241C128.899 188.241 126.052 184.566 128.98 183.097C131.908 181.627 130.447 186.389 132.201 186.602C133.955 186.815 134.946 182.398 141.396 184.537C140.83 186.84 140.525 189.199 140.486 191.57C139.901 191.639 139.31 191.639 138.725 191.57C138.725 191.57 138.38 196.289 134.395 196.23C133.047 196.242 131.72 195.895 130.55 195.223L129.082 198.956L124.657 197.435Z" fill="#FFADB7"/>
<path style="mix-blend-mode:overlay" opacity="0.51" d="M137.617 191.416C137.59 190.909 137.413 190.422 137.109 190.015C136.806 189.609 136.388 189.302 135.91 189.133C135.432 188.964 134.915 188.942 134.424 189.067C133.933 189.193 133.49 189.462 133.152 189.84C132.814 190.218 132.595 190.688 132.524 191.191C132.452 191.693 132.531 192.206 132.751 192.663C132.97 193.121 133.32 193.503 133.757 193.761C134.193 194.019 134.696 194.141 135.202 194.113C135.879 194.075 136.514 193.77 136.966 193.264C137.419 192.759 137.653 192.094 137.617 191.416Z" fill="url(#paint6_radial)"/>
<path d="M137.294 187.242C137.64 187.162 138.002 187.19 138.333 187.321C138.663 187.452 138.946 187.681 139.143 187.976" stroke="#EF8998" stroke-width="0.5" stroke-miterlimit="10" stroke-linecap="round"/>
<path d="M128.781 186.154C128.598 185.723 128.54 185.249 128.612 184.787C128.662 184.579 128.762 184.386 128.902 184.225C129.043 184.064 129.22 183.939 129.419 183.861C129.58 183.762 129.76 183.699 129.948 183.677" stroke="#EF8998" stroke-width="0.5" stroke-miterlimit="10" stroke-linecap="round"/>
<path d="M128.773 184.397L129.544 184.926" stroke="#EF8998" stroke-width="0.5" stroke-miterlimit="10" stroke-linecap="round"/>
<path style="mix-blend-mode:overlay" opacity="0.75" d="M129.889 197.178L130.623 195.267C129.672 194.862 128.837 194.225 128.194 193.415C128.194 193.415 127.878 195.877 129.889 197.178Z" fill="url(#paint7_linear)"/>
<path d="M124.15 209.921C124.15 209.921 129.639 233.439 150.319 241.244L147.927 246.065C147.927 246.065 128.062 240.134 116.65 222.547L124.15 209.921Z" fill="#FFADB7"/>
<path d="M132.032 226.634C128.455 221.564 125.788 215.909 124.15 209.921L116.68 222.569C119.114 226.284 122.006 229.677 125.288 232.667C127.776 230.943 130.041 228.917 132.032 226.634Z" fill="#FCD98E"/>
<path style="mix-blend-mode:overlay" opacity="0.5" d="M133.558 228.677C129.213 223.11 126.013 216.735 124.143 209.921L116.68 222.569C120.014 227.633 124.168 232.103 128.971 235.798C130.876 233.689 132.425 231.284 133.558 228.677Z" fill="url(#paint8_linear)"/>
<path d="M120.877 253.26C120.877 253.26 124.392 286.435 94.9141 286.435C84.0387 286.435 75.5262 279.769 68.7969 274.426L72.6348 270.09C72.6348 270.09 89.2783 285.112 100.168 274.852C111.059 264.593 104.072 245.007 104.072 245.007L120.877 253.26Z" fill="#0053CC"/>
<path d="M72.6348 270.09L68.7968 274.426L59.2129 279.409L67.9382 266.011L72.6348 270.09Z" fill="#F98091"/>
<path style="mix-blend-mode:overlay" opacity="0.5" d="M104.072 245.007C105.801 250.287 106.504 255.85 106.142 261.396C110.889 262.416 115.746 262.839 120.598 262.652C121.029 259.541 121.122 256.392 120.877 253.26L104.072 245.007Z" fill="url(#paint9_linear)"/>
<path d="M102.385 243.206C102.385 243.206 114.434 239.076 126.323 238.282C138.211 237.488 152.946 237.65 155.676 247.653C158.406 257.655 147.274 281.783 147.274 281.783L141.564 280.827C141.564 280.827 147.274 264.659 144.58 258.125C141.887 251.592 136.971 250.666 128.568 253.841C120.166 257.015 104.939 260.668 102.385 243.206Z" fill="#0053CC"/>
<path d="M141.535 280.827L147.244 281.783L156.542 287.265L140.581 286.978L141.535 280.827Z" fill="#F98091"/>
<path d="M166.126 218.586L165.517 223.187" stroke="white" stroke-width="1.5" stroke-miterlimit="10" stroke-linecap="round"/>
<path d="M161.349 227.435C162.626 227.773 164.966 228.089 166.713 227.435C167.674 227.067 167.755 226.413 167.755 226.413C168.056 226.413 169.626 226.149 169.678 225.48C169.729 224.811 168.768 224.796 168.768 224.796C169.443 224.635 170.235 224.216 170.118 223.591C170.001 222.966 168.247 223.326 168.247 223.326C168.125 222.784 167.873 222.28 167.513 221.857C166.948 221.18 166.17 220.541 165.957 221.122C165.744 221.702 166.522 222.974 166.522 222.974C165.719 222.896 164.939 222.661 164.225 222.283C164.225 222.283 165.561 221.702 165.304 220.886C165.047 220.071 163.242 220.761 162.369 221.423C161.698 221.856 161.095 222.386 160.578 222.996L161.349 227.435Z" fill="#FFADB7"/>
<path d="M168.188 223.745C168.082 223.947 167.928 224.119 167.74 224.247C167.552 224.375 167.335 224.455 167.109 224.48C166.514 224.527 165.916 224.505 165.326 224.414" stroke="#EF8998" stroke-width="0.5" stroke-linecap="round" stroke-linejoin="round"/>
<path d="M168.438 224.995C167.449 225.422 166.366 225.581 165.297 225.458" stroke="#EF8998" stroke-width="0.5" stroke-linecap="round" stroke-linejoin="round"/>
<path d="M167.381 226.465C166.651 226.568 165.916 226.629 165.18 226.648" stroke="#EF8998" stroke-width="0.5" stroke-linecap="round" stroke-linejoin="round"/>
<path d="M138.072 213.574L132.091 216.881L131.886 222.9C144.273 230.058 161.349 227.435 161.349 227.435L160.615 223.025C147.612 221.673 141.477 217.881 138.072 213.574Z" fill="#FFADB7"/>
<path d="M126.476 197.112C114.852 194.422 106.083 205.321 102.385 216.22C98.686 227.119 100.917 245.007 100.917 245.007C107.742 246.8 118.353 244.367 126.337 238.282C123.681 230.249 126.22 218.491 126.22 218.491C127.883 220.221 129.783 221.705 131.863 222.9L138.049 213.574C132.758 206.857 134.123 198.89 126.476 197.112Z" fill="#FCD98E"/>
<path d="M166.896 213.721V201.073C167.895 200.862 168.914 200.766 169.935 200.786C171.177 200.687 172.416 201.02 173.442 201.727C173.798 201.985 174.084 202.328 174.273 202.724C174.463 203.121 174.551 203.559 174.528 203.998C174.533 204.613 174.329 205.212 173.949 205.696C173.542 206.223 172.987 206.617 172.356 206.827V206.879C173.066 207.048 173.711 207.421 174.213 207.952C174.481 208.237 174.689 208.574 174.825 208.941C174.961 209.308 175.022 209.699 175.005 210.09C175.019 210.575 174.928 211.057 174.736 211.503C174.545 211.949 174.258 212.347 173.897 212.67C173.046 213.478 171.571 213.875 169.494 213.875C168.626 213.883 167.758 213.832 166.896 213.721ZM168.555 202.183V206.35H170.067C170.79 206.389 171.504 206.173 172.085 205.74C172.32 205.552 172.509 205.313 172.636 205.04C172.764 204.767 172.826 204.468 172.819 204.167C172.819 202.771 171.879 202.065 170.015 202.065C169.526 202.054 169.036 202.093 168.555 202.183ZM168.555 207.592V212.501C169.017 212.56 169.483 212.585 169.949 212.574C170.781 212.608 171.604 212.399 172.32 211.972C172.609 211.751 172.843 211.466 173.004 211.14C173.165 210.814 173.249 210.455 173.249 210.09C173.249 209.726 173.165 209.367 173.004 209.041C172.843 208.715 172.609 208.43 172.32 208.209C171.603 207.773 170.773 207.558 169.935 207.592H168.555Z" fill="white"/>
<path d="M177.236 213.758V201.051C178.291 200.868 179.359 200.78 180.429 200.786C182.131 200.786 183.371 201.137 184.149 201.837C184.486 202.149 184.75 202.531 184.924 202.957C185.097 203.382 185.176 203.84 185.154 204.299C185.177 205.042 184.941 205.769 184.487 206.357C184.043 206.925 183.44 207.347 182.755 207.57V207.628C183.679 207.957 184.303 208.824 184.626 210.23C184.864 211.43 185.196 212.609 185.617 213.758H183.9C183.509 212.767 183.226 211.737 183.056 210.686C182.955 209.98 182.652 209.318 182.182 208.782C181.703 208.378 181.092 208.163 180.465 208.18H178.902V213.758H177.236ZM178.902 202.219V206.923H180.597C181.357 206.959 182.104 206.722 182.703 206.254C182.963 206.038 183.169 205.766 183.306 205.457C183.444 205.149 183.509 204.813 183.496 204.476C183.52 204.133 183.46 203.791 183.322 203.477C183.184 203.163 182.972 202.888 182.703 202.675C182.064 202.251 181.305 202.045 180.539 202.087C179.99 202.067 179.441 202.112 178.902 202.219Z" fill="white"/>
<path d="M194.239 209.708H189.682L188.346 213.758H186.629L191.032 200.882H192.999L197.402 213.758H195.626L194.239 209.708ZM190.019 208.407H193.916L192.639 204.733C192.456 204.211 192.235 203.425 191.971 202.381H191.927C191.641 203.527 191.421 204.306 191.281 204.718L190.019 208.407Z" fill="white"/>
<path d="M200.844 213.758H199.273V200.852H201.108L205.21 207.371C206.06 208.716 206.825 210.112 207.5 211.553H207.558C207.426 210.12 207.368 208.356 207.368 206.261V200.852H208.931V213.728H207.25L203.17 207.195C202.274 205.821 201.477 204.384 200.785 202.896H200.726C200.8 204.196 200.844 205.968 200.844 208.209V213.758Z" fill="white"/>
<path d="M211.829 213.721V201.073C212.996 200.878 214.176 200.782 215.359 200.786C217.663 200.786 219.395 201.323 220.569 202.396C221.191 202.987 221.678 203.707 221.994 204.505C222.311 205.303 222.451 206.161 222.404 207.018C222.449 207.935 222.308 208.852 221.989 209.712C221.67 210.572 221.179 211.359 220.547 212.023C219.29 213.258 217.389 213.875 214.845 213.875C213.838 213.881 212.831 213.83 211.829 213.721ZM213.488 202.278V212.464C214.046 212.523 214.607 212.548 215.168 212.538C215.906 212.623 216.653 212.541 217.354 212.297C218.056 212.053 218.693 211.653 219.219 211.129C219.745 210.604 220.146 209.967 220.393 209.266C220.639 208.564 220.725 207.816 220.642 207.077C220.692 206.407 220.602 205.735 220.377 205.102C220.152 204.469 219.798 203.89 219.336 203.403C218.808 202.932 218.191 202.573 217.522 202.346C216.852 202.118 216.144 202.028 215.44 202.08C214.784 202.075 214.129 202.142 213.488 202.278Z" fill="white"/>
<path d="M167.586 218.204H222.719" stroke="white" stroke-width="1.2" stroke-miterlimit="10" stroke-linecap="round"/>
<path d="M350.921 237.981C350.921 237.981 349.307 243.361 355.515 280.224L361.129 279.761C361.129 279.761 358.076 251.298 361.268 238.018L350.921 237.981Z" fill="#FFADB7"/>
<path d="M355.514 280.188L361.128 279.725L362.141 286.464H349.145L355.866 282.51L355.514 280.188Z" fill="#01004C"/>
<path style="mix-blend-mode:overlay" opacity="0.5" d="M351.912 255.884C354.561 255.78 357.2 255.51 359.815 255.075C359.815 248.77 360.19 242.493 361.283 237.981H350.921C350.921 237.981 350.099 240.744 351.912 255.884Z" fill="url(#paint10_linear)"/>
<path d="M333.309 237.981C331.437 253.774 334.85 279.872 334.85 279.872H340.5C340.5 279.872 339.15 252.54 342.702 238.716L333.309 237.981Z" fill="#FFADB7"/>
<path d="M334.858 279.85H340.464L341.176 286.464H328.18L334.902 282.51L334.858 279.85Z" fill="#01004C"/>
<path style="mix-blend-mode:overlay" opacity="0.5" d="M332.854 255.164C335.056 255.384 337.661 255.612 340.508 255.766C340.831 249.585 341.469 243.361 342.71 238.686L333.339 237.952C332.76 243.669 332.598 249.422 332.854 255.164Z" fill="url(#paint11_linear)"/>
<path d="M336.597 191.849C336.597 191.849 327.145 226.45 326.558 247.579C326.558 247.579 348.793 248.63 367.572 245.58C367.572 245.58 362.831 200.014 363.213 189.424L336.597 191.849Z" fill="#2558A0"/>
<path d="M335.466 177.886L328.759 174.329L317.443 206.401C317.443 206.401 312.761 209.576 313.414 210.531C314.067 211.487 315.821 210.193 315.821 210.193C315.821 210.193 312.93 216.425 314.287 216.727C315.021 216.888 316.57 211.913 316.57 211.913C316.57 211.913 315.153 217.792 316.166 217.961C317.179 218.131 318.052 212.2 318.052 212.2C318.052 212.2 317.876 217.763 318.654 217.756C319.432 217.748 319.967 212.303 319.967 212.303C319.967 212.303 319.703 216.448 320.569 216.381C321.435 216.315 321.963 208.202 321.963 208.202C326.814 198.515 335.466 177.886 335.466 177.886Z" fill="#FFADB7"/>
<path d="M328.759 174.329C331.21 165.605 334.387 155.008 344.015 152.869C353.643 150.73 364.321 152.729 364.372 168.648C364.423 184.566 363.212 189.424 363.212 189.424L336.604 191.85L335.473 177.886L328.759 174.329Z" fill="#FCD98E"/>
<path d="M342.394 153.332L346.437 160.983L351.2 152.163C348.783 152.065 346.363 152.295 344.008 152.847C343.461 152.976 342.922 153.138 342.394 153.332Z" fill="#FFADB7"/>
<path style="mix-blend-mode:overlay" opacity="0.5" d="M343.905 188.212C349.864 188.307 363.609 187.682 362.317 160.6L353.511 168.075L343.905 188.212Z" fill="url(#paint12_linear)"/>
<path d="M319.906 155.677L300.896 152.75L296.694 180.12L315.704 183.047L319.906 155.677Z" fill="white"/>
<path d="M318.258 166.45C318.258 166.45 320.613 168.302 320.745 169.691L317.891 168.795L318.258 166.45Z" fill="#FFADB7"/>
<path d="M356.564 177.614L354.363 170.052L347.758 172.028C346.856 173.689 346.004 175.218 345.285 176.401C344.397 177.871 342.754 179.018 341.183 178.356L320.746 169.691L318.486 168.163C318.486 168.163 312.615 165.811 312.483 167.024C312.424 167.597 313.628 168.229 314.926 168.736C313.672 168.413 312.497 168.258 312.475 168.824C312.453 169.39 313.943 170.147 315.323 170.662C313.906 170.272 312.424 169.978 312.387 170.434C312.285 171.257 317.062 172.962 317.686 173.182C317.157 172.999 313.517 171.764 313.378 172.543C313.239 173.322 318.574 175.027 318.574 175.027C318.574 175.027 338.299 188.395 343.524 188.256C348.749 188.116 352.646 183.986 356.242 178.217C356.359 178.033 356.476 177.834 356.586 177.636L356.564 177.614Z" fill="#FFADB7"/>
<path d="M356.564 177.614C360.057 171.654 363.616 160.226 361.877 157.911C358.942 153.957 356.065 156.874 354.664 159.079C353.849 160.351 350.598 166.833 347.78 172.029C350.569 174.102 353.505 175.968 356.564 177.614Z" fill="#FCD98E"/>
<path d="M344.052 155.346L344.089 148.239C344.089 148.239 337.227 148.724 339.223 137.362C341.22 126 352.976 139.434 352.976 139.434L349.05 148.055L348.829 155.316L344.052 155.346Z" fill="#FFADB7"/>
<path d="M346.995 140.853C347.912 141.095 348.514 139.148 349.725 139.383C350.936 139.618 351.251 141.588 349.182 142.646C349.182 142.646 345.139 148.57 348.881 154.133C352.624 159.696 362.009 157.19 363.33 152.377C364.651 147.563 362.773 142.007 358.715 139.831C354.656 137.656 352.792 136.892 351.699 133.467C350.782 130.571 344.317 127.588 340.214 130.432C336.655 132.879 336.633 137.046 339.004 138.685C340.574 139.795 343.935 136.649 345.513 137.575C347.091 138.501 346.078 140.588 346.995 140.853Z" fill="#01004C"/>
<path d="M342.863 141.25C342.973 141.088 343.117 140.952 343.286 140.853C343.454 140.754 343.643 140.693 343.838 140.677C344.032 140.66 344.229 140.686 344.412 140.755C344.595 140.824 344.76 140.933 344.896 141.073" stroke="#EF8998" stroke-width="0.5" stroke-miterlimit="10" stroke-linecap="round"/>
<path d="M339.326 141.279C339.41 141.153 339.522 141.048 339.652 140.971C339.782 140.894 339.927 140.847 340.078 140.833C340.229 140.82 340.38 140.84 340.522 140.893C340.664 140.946 340.792 141.031 340.897 141.14" stroke="#EF8998" stroke-width="0.5" stroke-linecap="round" stroke-linejoin="round"/>
<path style="mix-blend-mode:overlay" opacity="0.51" d="M346.525 144.829C346.503 144.425 346.361 144.038 346.119 143.715C345.876 143.391 345.544 143.148 345.163 143.014C344.782 142.88 344.37 142.863 343.979 142.964C343.589 143.065 343.237 143.279 342.968 143.58C342.699 143.882 342.525 144.256 342.468 144.656C342.412 145.056 342.475 145.464 342.65 145.828C342.825 146.193 343.104 146.497 343.452 146.702C343.799 146.907 344.2 147.005 344.603 146.982C344.87 146.968 345.133 146.901 345.374 146.785C345.616 146.669 345.833 146.506 346.011 146.306C346.19 146.106 346.327 145.872 346.416 145.619C346.504 145.365 346.541 145.097 346.525 144.829Z" fill="url(#paint13_radial)"/>
<path d="M341.778 141.948C341.771 142.584 341.549 143.198 341.146 143.69C341.514 143.857 341.926 143.901 342.321 143.815" stroke="#EF8998" stroke-width="0.5" stroke-linecap="round" stroke-linejoin="round"/>
<path d="M349.982 141.184C350.113 140.962 350.162 140.702 350.121 140.449C350.112 140.314 350.059 140.187 349.971 140.086C349.882 139.985 349.762 139.916 349.63 139.89H349.534C349.315 139.919 349.113 140.023 348.962 140.184" stroke="#EF8998" stroke-width="0.5" stroke-miterlimit="10" stroke-linecap="round"/>
<path d="M349.409 140.662C349.645 140.519 349.816 140.289 349.886 140.022" stroke="#EF8998" stroke-width="0.5" stroke-miterlimit="10" stroke-linecap="round"/>
<path style="mix-blend-mode:overlay" opacity="0.75" d="M344.082 150.142C345.77 149.9 346.526 147.938 346.526 147.938C345.72 148.101 344.903 148.199 344.082 148.232V150.142Z" fill="url(#paint14_linear)"/>
<path d="M14.2588 287.265H436.266" stroke="#91B6E0" stroke-width="2" stroke-linecap="round" stroke-linejoin="round"/>
<path d="M425.479 84.2562H358.281V114.925H425.479V84.2562Z" fill="white"/>
<path d="M425.111 84.6236V114.55H358.648V84.6236H425.111ZM425.845 83.8887H357.914V115.285H425.845V83.8887Z" fill="#01004C"/>
<path d="M428.311 117.615H329.023L326.558 115.285H425.846L428.311 117.615Z" fill="#C1CCD6"/>
<path d="M360.38 117.615H329.023L326.558 115.285H357.915L360.38 117.615Z" fill="#1472B7"/>
<path d="M357.915 83.8887H326.558V115.292H357.915V83.8887Z" fill="#3090D6"/>
<path d="M428.311 117.614L425.846 115.285V83.8887L428.311 86.211V117.614Z" fill="#A9B8C9"/>
<path d="M386.945 90.1356H365.752V92.899H386.945V90.1356Z" fill="#91B6E0"/>
<path d="M365.752 97.8597H418.728" stroke="#01004C" stroke-linecap="round" stroke-linejoin="round"/>
<path d="M365.752 102.798H418.728" stroke="#01004C" stroke-linecap="round" stroke-linejoin="round"/>
<path d="M365.752 107.744H393.425" stroke="#01004C" stroke-linecap="round" stroke-linejoin="round"/>
<path d="M349.209 102.456C350.795 98.593 348.954 94.1741 345.097 92.5858C341.24 90.9976 336.827 92.8416 335.242 96.7044C333.656 100.567 335.497 104.986 339.354 106.574C343.211 108.163 347.624 106.319 349.209 102.456Z" fill="white"/>
<path d="M344.58 96.9704C344.58 96.5053 344.443 96.0506 344.185 95.6638C343.927 95.2771 343.56 94.9757 343.131 94.7977C342.702 94.6197 342.229 94.5731 341.774 94.6638C341.318 94.7546 340.9 94.9786 340.572 95.3075C340.243 95.6364 340.02 96.0554 339.929 96.5116C339.838 96.9678 339.885 97.4407 340.063 97.8704C340.24 98.3001 340.541 98.6674 340.927 98.9258C341.314 99.1843 341.768 99.3222 342.232 99.3222C342.855 99.3222 343.452 99.0744 343.893 98.6334C344.333 98.1923 344.58 97.5942 344.58 96.9704Z" fill="#91B6E0"/>
<path d="M342.233 100.167C340.934 100.167 339.689 100.684 338.771 101.603C337.854 102.522 337.338 103.769 337.338 105.069C337.338 105.165 337.338 105.268 337.338 105.363C338.699 106.525 340.429 107.164 342.218 107.164C344.007 107.164 345.737 106.525 347.098 105.363C347.098 105.268 347.098 105.165 347.098 105.069C347.098 103.774 346.586 102.532 345.675 101.613C344.763 100.695 343.526 100.175 342.233 100.167Z" fill="#91B6E0"/>
<path d="M267.799 152.031H200.602V182.7H267.799V152.031Z" fill="white"/>
<path d="M267.439 152.399V182.332H200.968V152.399H267.439ZM268.173 151.664H200.234V183.067H268.173V151.664Z" fill="#01004C"/>
<path d="M270.64 185.39H171.351L168.886 183.067H268.174L270.64 185.39Z" fill="#C1CCD6"/>
<path d="M202.708 185.39H171.351L168.886 183.067H200.243L202.708 185.39Z" fill="#1472B7"/>
<path d="M200.243 151.664H168.886V183.067H200.243V151.664Z" fill="#3090D6"/>
<path d="M270.639 185.39L268.174 183.067V151.664L270.639 153.993V185.39Z" fill="#A9B8C9"/>
<path d="M229.272 157.918H208.079V160.681H229.272V157.918Z" fill="#91B6E0"/>
<path d="M208.079 165.635H261.055" stroke="#01004C" stroke-linecap="round" stroke-linejoin="round"/>
<path d="M208.079 170.581H261.055" stroke="#01004C" stroke-linecap="round" stroke-linejoin="round"/>
<path d="M208.079 175.519H249.981" stroke="#01004C" stroke-linecap="round" stroke-linejoin="round"/>
<path d="M178.169 169.655L177.824 168.111L177.369 166.164L176.569 169.655H175.277L174.022 165.245H175.219L175.725 167.2C175.806 167.545 175.894 168.03 175.974 168.67C176.004 168.349 176.051 168.03 176.114 167.714L176.18 167.384L176.723 165.267H178.044L178.565 167.384C178.565 167.435 178.565 167.523 178.609 167.634C178.653 167.744 178.653 167.869 178.675 168.001C178.697 168.133 178.719 168.251 178.734 168.376C178.739 168.474 178.739 168.572 178.734 168.67C178.734 168.479 178.8 168.222 178.866 167.891C178.932 167.56 178.969 167.332 178.991 167.222L179.519 165.267H180.7L179.431 169.677L178.169 169.655Z" fill="white"/>
<path d="M185.881 169.655L185.543 168.111L185.088 166.164L184.281 169.655H182.989L181.734 165.245H182.938L183.444 167.2C183.525 167.545 183.606 168.03 183.694 168.67C183.72 168.349 183.766 168.03 183.833 167.714L183.892 167.384L184.435 165.267H185.763L186.277 167.384C186.277 167.435 186.277 167.523 186.328 167.634C186.38 167.744 186.372 167.869 186.394 168.001C186.416 168.133 186.394 168.251 186.453 168.376C186.512 168.501 186.453 168.596 186.453 168.67C186.453 168.479 186.519 168.222 186.578 167.891C186.636 167.56 186.68 167.332 186.71 167.222L187.238 165.267H188.412L187.143 169.677L185.881 169.655Z" fill="white"/>
<path d="M193.601 169.655L193.256 168.111L192.801 166.164L192.001 169.655H190.71L189.455 165.245H190.651L191.158 167.2C191.268 167.685 191.352 168.176 191.407 168.67C191.437 168.349 191.483 168.03 191.546 167.714L191.613 167.384L192.156 165.267H193.476L193.998 167.384C193.998 167.435 193.998 167.523 194.049 167.634C194.1 167.744 194.093 167.869 194.108 168.001C194.122 168.133 194.152 168.251 194.166 168.376C194.175 168.474 194.175 168.572 194.166 168.67C194.166 168.479 194.232 168.222 194.298 167.891C194.364 167.56 194.401 167.332 194.423 167.222L194.952 165.267H196.133L194.863 169.677L193.601 169.655Z" fill="white"/>
<path d="M98.9211 60.4813H31.7236V91.1498H98.9211V60.4813Z" fill="white"/>
<path d="M98.5539 60.8487V90.7823H32.0903V60.8487H98.5539ZM99.2878 60.1138H31.3564V91.5172H99.2878V60.1138Z" fill="#01004C"/>
<path d="M101.754 93.8397H2.46569L0 91.5173H99.2882L101.754 93.8397Z" fill="#C1CCD6"/>
<path d="M33.8226 93.8397H2.46569L0 91.5173H31.3569L33.8226 93.8397Z" fill="#1472B7"/>
<path d="M31.3569 60.1138H0V91.5172H31.3569V60.1138Z" fill="#3090D6"/>
<path d="M101.754 93.8396L99.2881 91.5172V60.1138L101.754 62.4435V93.8396Z" fill="#A9B8C9"/>
<path d="M60.3876 66.368H39.1943V69.1314H60.3876V66.368Z" fill="#91B6E0"/>
<path d="M39.1943 74.0848H92.17" stroke="#01004C" stroke-linecap="round" stroke-linejoin="round"/>
<path d="M39.1943 79.0309H92.17" stroke="#01004C" stroke-linecap="round" stroke-linejoin="round"/>
<path d="M39.1943 83.9769H81.0964" stroke="#01004C" stroke-linecap="round" stroke-linejoin="round"/>
<path d="M22.2062 66.8237H9.15121C7.79755 66.8237 6.7002 67.9227 6.7002 69.2784V82.3527C6.7002 83.7084 7.79755 84.8074 9.15121 84.8074H22.2062C23.5598 84.8074 24.6572 83.7084 24.6572 82.3527V69.2784C24.6572 67.9227 23.5598 66.8237 22.2062 66.8237Z" fill="white"/>
<path d="M21.1933 73.0559C21.1933 72.5094 21.0314 71.9751 20.7282 71.5207C20.4251 71.0663 19.9941 70.7121 19.4899 70.5029C18.9858 70.2938 18.431 70.2391 17.8957 70.3457C17.3605 70.4523 16.8688 70.7155 16.483 71.102C16.0971 71.4884 15.8343 71.9808 15.7278 72.5168C15.6214 73.0529 15.676 73.6085 15.8848 74.1134C16.0937 74.6183 16.4473 75.0499 16.9011 75.3535C17.3548 75.6572 17.8883 75.8193 18.434 75.8193C19.1658 75.8193 19.8676 75.5281 20.3851 75.0099C20.9026 74.4917 21.1933 73.7888 21.1933 73.0559Z" fill="#FCD98E"/>
<path d="M9.15122 84.8074H22.2062C22.8562 84.8074 23.4797 84.5488 23.9393 84.0885C24.399 83.6281 24.6572 83.0038 24.6572 82.3528V74.0848C14.9265 73.6439 6.70021 80.2141 6.70021 80.2141V82.3528C6.69924 82.6754 6.76197 82.995 6.88481 83.2933C7.00764 83.5915 7.18814 83.8625 7.41593 84.0906C7.64372 84.3188 7.91431 84.4995 8.21211 84.6226C8.50992 84.7456 8.82908 84.8084 9.15122 84.8074Z" fill="#7BC4B3"/>
<defs>
<linearGradient id="paint0_linear" x1="17" y1="0" x2="285.759" y2="387.687" gradientUnits="userSpaceOnUse">
<stop stop-color="#C2E9FB"/>
<stop offset="1" stop-color="#A1C4FD"/>
</linearGradient>
<linearGradient id="paint1_linear" x1="141.719" y1="58.0634" x2="161.011" y2="69.1801" gradientUnits="userSpaceOnUse">
<stop/>
<stop offset="0.9" stop-opacity="0"/>
</linearGradient>
<radialGradient id="paint2_radial" cx="0" cy="0" r="1" gradientUnits="userSpaceOnUse" gradientTransform="translate(160.589 49.9058) rotate(-2.86664) scale(2.55696 2.56073)">
<stop/>
<stop offset="1" stop-opacity="0"/>
</radialGradient>
<linearGradient id="paint3_linear" x1="153.659" y1="49.9571" x2="155.471" y2="49.7666" gradientUnits="userSpaceOnUse">
<stop offset="0.21" stop-opacity="0"/>
<stop offset="1"/>
</linearGradient>
<linearGradient id="paint4_linear" x1="128.055" y1="129.785" x2="133.751" y2="97.5245" gradientUnits="userSpaceOnUse">
<stop offset="0.09" stop-opacity="0"/>
<stop offset="1"/>
</linearGradient>
<linearGradient id="paint5_linear" x1="137.124" y1="91.1277" x2="145.965" y2="75.8306" gradientUnits="userSpaceOnUse">
<stop offset="0.1" stop-opacity="0"/>
<stop offset="1"/>
</linearGradient>
<radialGradient id="paint6_radial" cx="0" cy="0" r="1" gradientUnits="userSpaceOnUse" gradientTransform="translate(1026.22 1370.37) scale(17.8252 17.8516)">
<stop/>
<stop offset="1" stop-opacity="0"/>
</radialGradient>
<linearGradient id="paint7_linear" x1="556.573" y1="1077.3" x2="563.183" y2="1074.3" gradientUnits="userSpaceOnUse">
<stop offset="0.21" stop-opacity="0"/>
<stop offset="1"/>
</linearGradient>
<linearGradient id="paint8_linear" x1="133.396" y1="232.043" x2="118.679" y2="214.529" gradientUnits="userSpaceOnUse">
<stop offset="0.1" stop-opacity="0"/>
<stop offset="0.7"/>
</linearGradient>
<linearGradient id="paint9_linear" x1="2701.68" y1="6014.79" x2="2701.68" y2="5588.32" gradientUnits="userSpaceOnUse">
<stop offset="0.09" stop-opacity="0"/>
<stop offset="1"/>
</linearGradient>
<linearGradient id="paint10_linear" x1="5467.62" y1="5911.03" x2="5467.62" y2="5474.92" gradientUnits="userSpaceOnUse">
<stop offset="0.1" stop-opacity="0"/>
<stop offset="1"/>
</linearGradient>
<linearGradient id="paint11_linear" x1="4922.46" y1="5880.2" x2="4922.46" y2="5449.08" gradientUnits="userSpaceOnUse">
<stop offset="0.1" stop-opacity="0"/>
<stop offset="1"/>
</linearGradient>
<linearGradient id="paint12_linear" x1="9375.84" y1="6190.07" x2="8993.9" y2="5747.11" gradientUnits="userSpaceOnUse">
<stop offset="0.1" stop-opacity="0"/>
<stop offset="1"/>
</linearGradient>
<radialGradient id="paint13_radial" cx="0" cy="0" r="1" gradientUnits="userSpaceOnUse" gradientTransform="translate(2231.33 888.588) scale(11.3439 11.3596)">
<stop/>
<stop offset="1" stop-opacity="0"/>
</radialGradient>
<linearGradient id="paint14_linear" x1="344.185" y1="148.121" x2="345.64" y2="149.339" gradientUnits="userSpaceOnUse">
<stop/>
<stop offset="0.79" stop-opacity="0"/>
</linearGradient>
</defs>
</svg>
