<svg width="35" height="20" viewBox="0 0 35 20" fill="none" xmlns="http://www.w3.org/2000/svg">
<path d="M1.20675 18.4697C2.08684 18.4112 20.9847 17.1535 21.9531 17.089L19.6771 15.0971L21.6689 12.8211L19.393 10.8293L21.3848 8.55329L19.1088 6.56141L21.1007 4.28543L18.8247 2.29356L20.8166 0.0175781C19.792 0.085706 0.865655 1.34534 0.0703125 1.39831L1.20675 18.4697Z" fill="#B52241"/>
<path d="M25.0137 0.255371L22.5183 1.96414L24.227 4.45966L21.7315 6.16852L23.4403 8.66396L20.9449 10.3727L22.6536 12.8682L20.1582 14.5769L21.8669 17.0725L31.7022 19.4567L34.849 2.63948L25.0137 0.255371Z" fill="#B52241"/>
<path d="M26.0113 8.49541C25.0492 8.3429 24.4419 7.51441 24.5744 6.67861C24.7103 5.82144 25.5666 5.25724 26.5011 5.40546C27.4051 5.54875 28.0796 6.32966 27.9397 7.21212C27.8055 8.05979 26.9566 8.64518 26.0113 8.49541ZM24.3018 12.0924L30.9139 6.12573L31.4488 6.77505L24.8366 12.7417L24.3018 12.0924ZM26.1197 7.81203C26.475 7.86829 26.9005 7.56966 26.9813 7.05998C27.0522 6.61304 26.8155 6.15559 26.393 6.08847C26.0385 6.03231 25.6119 6.33349 25.5332 6.83039C25.4609 7.28591 25.7035 7.74609 26.1197 7.81203ZM29.2576 13.4739C28.3355 13.3277 27.681 12.5381 27.819 11.6673C27.9506 10.8369 28.7808 10.2307 29.7474 10.3839C30.6358 10.5247 31.3295 11.2848 31.1844 12.2008C31.0357 13.1393 30.1166 13.6101 29.2576 13.4739ZM29.3661 12.7907C29.7193 12.8466 30.1466 12.5486 30.2259 12.0488C30.2941 11.6184 30.0657 11.1348 29.6392 11.0672C29.285 11.0111 28.8587 11.3086 28.7777 11.8192C28.7069 12.2663 28.9432 12.7236 29.3661 12.7907Z" fill="white"/>
</svg>
