<svg width="382" height="285" viewBox="0 0 382 285" fill="none" xmlns="http://www.w3.org/2000/svg">
<g clip-path="url(#clip0)">
<path d="M382 250.458H0V250.649H382V250.458Z" fill="#E6E6E6"/>
<path d="M95.3623 262.031H70.0586V262.222H95.3623V262.031Z" fill="#E6E6E6"/>
<path d="M62.0518 262.031H47.3906V262.222H62.0518V262.031Z" fill="#E6E6E6"/>
<path d="M160.86 264.846H146.199V265.037H160.86V264.846Z" fill="#E6E6E6"/>
<path d="M237.306 269.113H204.309V269.305H237.306V269.113Z" fill="#E6E6E6"/>
<path d="M197.509 269.113H192.673V269.305H197.509V269.113Z" fill="#E6E6E6"/>
<path d="M346.36 264.846H274.788V265.037H346.36V264.846Z" fill="#E6E6E6"/>
<path d="M181.068 216.345H33.5472C32.3915 216.343 31.2839 215.882 30.4674 215.063C29.6509 214.244 29.1924 213.134 29.1924 211.977V4.36744C29.1924 3.21044 29.6509 2.10073 30.4674 1.28189C31.2839 0.46306 32.3915 0.00202626 33.5472 0L181.068 0C182.225 0 183.335 0.460139 184.153 1.27919C184.971 2.09825 185.43 3.20912 185.43 4.36744V211.977C185.43 212.551 185.318 213.119 185.098 213.649C184.879 214.179 184.558 214.66 184.153 215.066C183.748 215.471 183.267 215.793 182.737 216.012C182.208 216.232 181.641 216.345 181.068 216.345ZM33.5472 0.191219C32.4422 0.193245 31.3831 0.634132 30.6025 1.41711C29.8218 2.20008 29.3834 3.26116 29.3834 4.36744V211.977C29.3834 213.084 29.8218 214.145 30.6025 214.928C31.3831 215.711 32.4422 216.152 33.5472 216.154H181.068C182.174 216.152 183.234 215.711 184.015 214.928C184.797 214.145 185.237 213.084 185.239 211.977V4.36744C185.237 3.26045 184.797 2.19939 184.015 1.41664C183.234 0.633883 182.174 0.193241 181.068 0.191219H33.5472Z" fill="#E6E6E6"/>
<path d="M346.329 216.345H198.801C197.645 216.343 196.536 215.882 195.718 215.063C194.901 214.245 194.44 213.135 194.438 211.977V4.36744C194.44 3.20974 194.901 2.10004 195.718 1.28143C196.536 0.462811 197.645 0.00202218 198.801 0L346.329 0C347.484 0.00404788 348.589 0.465973 349.404 1.28459C350.219 2.1032 350.676 3.21177 350.676 4.36744V211.977C350.676 213.133 350.219 214.242 349.404 215.06C348.589 215.879 347.484 216.341 346.329 216.345ZM198.801 0.191219C197.695 0.193241 196.635 0.633883 195.853 1.41664C195.072 2.19939 194.631 3.26045 194.629 4.36744V211.977C194.631 213.084 195.072 214.145 195.853 214.928C196.635 215.711 197.695 216.152 198.801 216.154H346.329C347.435 216.152 348.495 215.711 349.277 214.928C350.059 214.145 350.499 213.084 350.501 211.977V4.36744C350.499 3.26045 350.059 2.19939 349.277 1.41664C348.495 0.633883 347.435 0.193241 346.329 0.191219H198.801Z" fill="#E6E6E6"/>
<path d="M204.294 185.115H187.493V251.835H204.294V185.115Z" fill="#E0E0E0"/>
<path d="M201.1 251.843H204.294V242.756H197.754L201.1 251.843Z" fill="#FAFAFA"/>
<path d="M130.674 185.115H113.874V251.835H130.674V185.115Z" fill="#E0E0E0"/>
<path d="M204.294 185.115H127.894V246.259H204.294V185.115Z" fill="#FAFAFA"/>
<path d="M201.521 188.159V204.344H130.644V188.159H201.498H201.521ZM201.796 187.868H130.369V204.634H201.818V187.83L201.796 187.868Z" fill="#E0E0E0"/>
<path d="M131.079 251.843H127.894V242.756H134.426L131.079 251.843Z" fill="#FAFAFA"/>
<path d="M164.405 196.213C164.405 196.547 164.504 196.874 164.69 197.152C164.875 197.43 165.139 197.647 165.448 197.775C165.756 197.902 166.096 197.936 166.423 197.871C166.751 197.805 167.051 197.644 167.288 197.408C167.524 197.172 167.685 196.87 167.75 196.543C167.815 196.215 167.781 195.875 167.654 195.566C167.526 195.257 167.309 194.993 167.032 194.807C166.754 194.622 166.428 194.522 166.094 194.522C165.646 194.522 165.216 194.701 164.9 195.018C164.583 195.335 164.405 195.765 164.405 196.213Z" fill="#E6E6E6"/>
<path d="M201.521 207.603V223.78H130.644V207.603H201.498H201.521ZM201.796 207.312H130.369V224.109H201.818V207.281L201.796 207.312Z" fill="#E0E0E0"/>
<path d="M164.405 215.694C164.405 216.029 164.504 216.355 164.69 216.633C164.875 216.911 165.139 217.128 165.448 217.256C165.756 217.384 166.096 217.417 166.423 217.352C166.751 217.287 167.051 217.126 167.288 216.89C167.524 216.653 167.685 216.352 167.75 216.024C167.815 215.696 167.781 215.356 167.654 215.047C167.526 214.739 167.309 214.475 167.032 214.289C166.754 214.103 166.428 214.004 166.094 214.004C165.646 214.004 165.216 214.182 164.9 214.499C164.583 214.816 164.405 215.246 164.405 215.694Z" fill="#E6E6E6"/>
<path d="M201.521 227.083V243.23H130.644V227.083H201.498H201.521ZM201.796 226.785H130.369V243.559H201.818V226.785H201.796Z" fill="#E0E0E0"/>
<path d="M164.405 235.168C164.405 235.502 164.504 235.829 164.69 236.107C164.875 236.385 165.139 236.602 165.448 236.73C165.756 236.858 166.096 236.891 166.423 236.826C166.751 236.761 167.051 236.6 167.288 236.363C167.524 236.127 167.685 235.826 167.75 235.498C167.815 235.17 167.781 234.83 167.654 234.521C167.526 234.212 167.309 233.948 167.032 233.762C166.754 233.577 166.428 233.478 166.094 233.478C165.646 233.478 165.216 233.656 164.9 233.973C164.583 234.29 164.405 234.72 164.405 235.168Z" fill="#E6E6E6"/>
<path d="M120.414 146.366H103.613V251.842H120.414V146.366Z" fill="#E0E0E0"/>
<path d="M117.221 251.843H120.414V242.756H113.882L117.221 251.843Z" fill="#FAFAFA"/>
<path d="M57.6285 146.366H40.8281V251.842H57.6285V146.366Z" fill="#E0E0E0"/>
<path d="M120.414 146.366H54.8398V246.267H120.414V146.366Z" fill="#FAFAFA"/>
<path d="M117.587 149.197V171.814H57.6665V149.197H117.587ZM117.938 148.853H57.2998V172.166H117.923V148.853H117.938Z" fill="#E0E0E0"/>
<path d="M117.587 174.568V234.557H89.044V174.568H117.587ZM117.938 174.216H88.7002V234.909H117.938V174.216Z" fill="#E0E0E0"/>
<path d="M86.2096 174.568V234.557H57.6665V174.568H86.2096ZM86.5534 174.216H57.2998V234.909H86.5381V174.216H86.5534Z" fill="#E0E0E0"/>
<path d="M58.0334 251.843H54.8398V242.756H61.3797L58.0334 251.843Z" fill="#FAFAFA"/>
<path d="M85.9346 160.509C85.9331 160.845 86.0313 161.174 86.2167 161.454C86.4022 161.734 86.6665 161.953 86.9763 162.083C87.2861 162.213 87.6273 162.247 87.9568 162.183C88.2864 162.118 88.5893 161.957 88.8273 161.72C89.0652 161.483 89.2275 161.18 89.2936 160.85C89.3596 160.521 89.3265 160.179 89.1984 159.868C89.0702 159.558 88.8528 159.292 88.5738 159.105C88.2947 158.918 87.9664 158.818 87.6307 158.818C87.1822 158.818 86.7519 158.996 86.4341 159.313C86.1162 159.63 85.9366 160.06 85.9346 160.509Z" fill="#E6E6E6"/>
<path d="M91.9854 203.128C91.9839 203.464 92.0822 203.794 92.268 204.074C92.4538 204.355 92.7186 204.573 93.0289 204.703C93.3391 204.832 93.6807 204.867 94.0104 204.801C94.3402 204.736 94.6431 204.574 94.8807 204.336C95.1184 204.098 95.2801 203.795 95.3453 203.465C95.4105 203.135 95.3763 202.793 95.2469 202.482C95.1176 202.172 94.899 201.907 94.619 201.721C94.3389 201.535 94.0099 201.436 93.6738 201.438C93.226 201.438 92.7965 201.616 92.4799 201.933C92.1633 202.25 91.9854 202.68 91.9854 203.128Z" fill="#E6E6E6"/>
<path d="M79.8916 203.128C79.8916 203.462 79.9906 203.789 80.1762 204.067C80.3617 204.345 80.6254 204.562 80.9339 204.69C81.2424 204.818 81.5819 204.851 81.9094 204.786C82.237 204.721 82.5378 204.56 82.7739 204.323C83.0101 204.087 83.1709 203.786 83.236 203.458C83.3012 203.13 83.2678 202.79 83.14 202.481C83.0122 202.172 82.7958 201.908 82.5181 201.722C82.2404 201.537 81.914 201.438 81.58 201.438C81.1322 201.438 80.7028 201.616 80.3861 201.933C80.0695 202.25 79.8916 202.68 79.8916 203.128Z" fill="#E6E6E6"/>
<path d="M77.9816 116.965H70.8993C71.552 120.404 71.963 123.885 72.1293 127.382C72.1293 131.207 66.7355 146.367 74.4213 146.367C82.1072 146.367 76.7133 131.237 76.7133 127.382C76.8923 123.884 77.3161 120.403 77.9816 116.965Z" fill="#E0E0E0"/>
<path d="M51.0352 132.477V137.066C51.0432 139.526 52.023 141.883 53.7606 143.623C55.4983 145.362 57.8527 146.343 60.3101 146.351H64.8941C67.3521 146.345 69.7077 145.365 71.4458 143.625C73.1839 141.885 74.163 139.527 74.1691 137.066V132.477H51.0352Z" fill="#F5F5F5"/>
<path d="M149.492 175.394C149.492 180.748 155.474 185.115 162.786 185.115H169.387C176.698 185.115 182.68 180.74 182.68 175.394H149.492Z" fill="#E0E0E0"/>
<path d="M324.402 167.569C320.399 170.835 314.867 176.832 309.81 185.253C306.433 190.867 304.401 196.726 303.507 204.52C303.507 195.724 303.56 186.278 303.591 177.36C304.607 175.065 306.929 169.772 308.595 165.596C314.149 151.644 316.235 148.218 321.224 136.194C327.894 120.132 334.724 101.117 332.768 102.631C328.78 105.737 313.5 134.381 311.85 138.481C307.351 149.422 304.571 160.994 303.606 172.786C303.606 164.372 303.667 156.723 303.698 150.78C303.805 131.429 304.133 125.18 304.294 123.245C304.912 122.266 305.638 121.126 306.066 120.506C309.657 115.313 311.04 110.884 314.417 103.136C319.215 92.1525 323.34 72.6558 322.133 73.6425C317.106 77.7346 313.148 86.5383 307.938 97.759C302.727 108.98 304.217 115.42 303.186 125.004C302.972 126.885 302.804 133.976 302.682 143.812C301.337 133.333 298.8 126.434 294.178 120.162C288.494 112.445 282.993 107.228 278.959 104.513C274.925 101.798 285.927 120.743 291.183 128.989C295.867 136.355 300.183 142.856 302.643 149.258C302.513 162.582 302.452 179.455 302.452 195.151C301.245 187.999 299.274 180.304 296.646 174.346C293.483 167.187 288.624 156.203 284.75 152.471C283.826 151.576 288.8 172.939 291.993 178.622C295.187 184.305 297.532 189.659 299.542 192.879C300.008 193.644 301.566 196.527 302.452 198.233C302.452 217.408 302.559 234.327 302.727 240.087H303.553C303.499 238.595 303.484 228.843 303.507 215.932C305.501 208.926 310.054 200.925 313.813 193.628C317.908 185.666 328.405 164.295 324.402 167.569Z" fill="#E0E0E0"/>
<path d="M315.104 251.843H291.16L289.35 228.346H316.915L315.104 251.843Z" fill="#F0F0F0"/>
<path d="M318.695 231.084H287.562L286.676 223.152H319.589L318.695 231.084Z" fill="#F5F5F5"/>
<path d="M94.9345 15.7109H52.1123V62.789H94.9345V15.7109Z" fill="#E0E0E0"/>
<path d="M99.5725 15.7109H55.3369V62.789H99.5725V15.7109Z" fill="#F5F5F5"/>
<path d="M95.8662 59.0865V19.4277L59.0414 19.4277V59.0865H95.8662Z" fill="white"/>
<path d="M86.9434 49.465V29.0352H67.9732V49.465H86.9434Z" fill="#F5F5F5"/>
<path d="M313.278 21.2021H273.496V64.9377H313.278V21.2021Z" fill="#E0E0E0"/>
<path d="M317.587 21.2021H276.499V64.9377H317.587V21.2021Z" fill="#F5F5F5"/>
<path d="M314.148 61.4877V24.6514L279.944 24.6514V61.4877H314.148Z" fill="white"/>
<path d="M297.043 53.7554C302.938 53.7554 307.716 48.9714 307.716 43.0701C307.716 37.1687 302.938 32.3848 297.043 32.3848C291.149 32.3848 286.37 37.1687 286.37 43.0701C286.37 48.9714 291.149 53.7554 297.043 53.7554Z" fill="#F5F5F5"/>
<path d="M139.422 43.7812H107.655V78.7054H139.422V43.7812Z" fill="#E0E0E0"/>
<path d="M142.861 43.7812H110.047V78.7054H142.861V43.7812Z" fill="#F5F5F5"/>
<path d="M140.11 75.9522V46.5352H112.797V75.9522H140.11Z" fill="white"/>
<path d="M126.457 53.8086L118.985 66.7656H133.929L126.457 53.8086Z" fill="#F5F5F5"/>
<path d="M191 285C272.811 285 339.132 281.124 339.132 276.342C339.132 271.56 272.811 267.684 191 267.684C109.189 267.684 42.8682 271.56 42.8682 276.342C42.8682 281.124 109.189 285 191 285Z" fill="#F5F5F5"/>
<path d="M266.827 82.9745L259.248 79.915C259.248 79.915 249.247 98.1726 246.382 99.0905C242.486 100.345 234.418 103.833 229.635 104.49C228.986 105.255 227.924 107.626 228.023 108.498C234.448 110.64 248.567 107.795 251.592 105.546C258.476 100.406 266.827 82.9745 266.827 82.9745Z" fill="#E58A7B"/>
<path d="M269.157 78.8289C270.57 84.0606 262.915 94.57 262.915 94.57L252.884 88.9252C252.884 88.9252 254.763 84.6037 257.055 80.2057C260.73 73.1 267.545 72.8629 269.157 78.8289Z" fill="#407BFF"/>
<path opacity="0.2" d="M269.157 78.8289C270.57 84.0606 262.915 94.57 262.915 94.57L252.884 88.9252C252.884 88.9252 254.763 84.6037 257.055 80.2057C260.73 73.1 267.545 72.8629 269.157 78.8289Z" fill="black"/>
<path opacity="0.2" d="M256.864 91.1734L260.814 93.3838L261.509 81.2529C259.21 83.0198 257.59 88.3433 256.864 91.1734Z" fill="black"/>
<path d="M262.556 74.8897C262.556 74.8897 254.747 92.283 259.301 124.675H290.067C290.556 119.949 288.936 96.8799 294.796 74.5991C291.421 73.9434 288.006 73.509 284.574 73.2988C280.22 73.0462 275.856 73.0462 271.502 73.2988C268.484 73.6031 265.494 74.1349 262.556 74.8897Z" fill="#407BFF"/>
<path opacity="0.2" d="M262.556 74.8897C262.556 74.8897 254.747 92.283 259.301 124.675H290.067C290.556 119.949 288.936 96.8799 294.796 74.5991C291.421 73.9434 288.006 73.509 284.574 73.2988C280.22 73.0462 275.856 73.0462 271.502 73.2988C268.484 73.6031 265.494 74.1349 262.556 74.8897Z" fill="black"/>
<g style="mix-blend-mode:multiply">
<path d="M255.42 277.031C255.374 277.849 267.041 278.514 281.472 278.514C295.904 278.514 307.655 277.849 307.701 277.031C307.746 276.212 296.088 275.539 281.648 275.539C267.209 275.539 255.474 276.212 255.42 277.031Z" fill="#E8ECF1"/>
</g>
<path d="M275.94 255.46L270.483 257.575L275.184 269.732L280.641 267.617L275.94 255.46Z" fill="#E58A7B"/>
<path d="M300.29 271.148H294.537L292.429 257.816H298.182L300.29 271.148Z" fill="#E58A7B"/>
<path d="M294.14 270.483H300.603C300.714 270.482 300.823 270.52 300.908 270.592C300.994 270.664 301.051 270.763 301.069 270.874L301.902 275.998C301.919 276.127 301.909 276.257 301.872 276.381C301.834 276.505 301.771 276.62 301.685 276.717C301.6 276.814 301.494 276.892 301.376 276.945C301.258 276.998 301.13 277.024 301 277.023C298.747 276.977 297.662 276.847 294.82 276.847C293.07 276.847 289.472 277.031 287.042 277.031C284.613 277.031 284.452 274.637 285.453 274.423C289.945 273.451 291.687 272.128 293.185 270.835C293.451 270.608 293.79 270.484 294.14 270.483Z" fill="#263238"/>
<path d="M275.04 268.472L281.152 266.69C281.26 266.655 281.376 266.66 281.481 266.704C281.586 266.747 281.672 266.826 281.725 266.927L284.017 271.516C284.07 271.632 284.097 271.759 284.096 271.887C284.096 272.015 284.067 272.142 284.012 272.257C283.958 272.373 283.879 272.476 283.78 272.558C283.682 272.64 283.567 272.699 283.444 272.732C281.22 273.336 279.731 273.719 276.95 274.53C275.032 275.088 273.076 275.998 271.181 276.602C269.867 277.023 266.781 277.038 265.184 277.038C262.823 277.038 262.296 274.545 263.312 274.43C265.872 274.14 266.215 274.277 267.629 273.566C269.94 272.551 272.035 271.102 273.802 269.298C274.137 268.921 274.563 268.637 275.04 268.472Z" fill="#263238"/>
<path d="M230.598 104.421L224.272 101.729L221.667 108.75C224.26 109.145 226.898 109.145 229.49 108.75L230.598 104.421Z" fill="#E58A7B"/>
<path d="M219.566 101.584L219.397 106.25L221.667 108.774L224.272 101.752L219.566 101.584Z" fill="#E58A7B"/>
<path d="M276.705 256.364L271.231 258.479L273.656 264.766L279.129 262.65L276.705 256.364Z" fill="#CF6F64"/>
<path d="M298.182 257.816H292.429L293.521 264.693H299.274L298.182 257.816Z" fill="#CF6F64"/>
<path opacity="0.2" d="M258.323 115.901C258.438 117.286 258.568 118.701 258.736 120.154L281.61 112.719C285.189 111.656 288.295 109.396 290.411 106.317C290.503 104.275 290.618 102.126 290.793 99.8848C290.87 98.7911 290.961 97.6744 291.061 96.5423C291.16 95.4103 291.298 94.1636 291.443 92.9551L258.323 115.901Z" fill="black"/>
<path d="M265.795 90.8221L265.031 90.7226C265.482 86.8982 268.332 83.8923 271.334 83.9611V84.726C268.706 84.6725 266.2 87.3954 265.795 90.8221Z" fill="white"/>
<path d="M269.867 97.9046H269.737V97.1397C272.365 97.2391 274.833 94.4932 275.238 91.0742L276.002 91.166C275.597 94.8833 272.839 97.9046 269.867 97.9046Z" fill="white"/>
<path d="M284.146 58.5439C283.069 62.7584 281.801 70.476 284.574 73.2907C284.574 73.2907 282.633 77.5664 274.818 77.5664C267.674 77.5664 271.502 73.2907 271.502 73.2907C276.254 72.1664 276.338 68.7015 275.711 65.4125L284.146 58.5439Z" fill="#E58A7B"/>
<path d="M280.709 61.3516L275.72 65.4054C275.874 66.1613 275.963 66.9289 275.987 67.7C277.446 69.1533 280.372 65.4742 280.67 63.5926C280.821 62.8543 280.834 62.0946 280.709 61.3516Z" fill="#CF6F64"/>
<path d="M267.14 58.4981C267.486 59.1005 267.954 59.6244 268.513 60.0365C269.071 60.4486 269.71 60.74 270.387 60.8922C272.221 61.3052 273.138 59.6148 272.633 57.9168C272.183 56.387 270.677 54.3295 268.813 54.6814C268.414 54.7637 268.04 54.9407 267.723 55.1974C267.406 55.4541 267.155 55.7831 266.992 56.1568C266.828 56.5306 266.756 56.9382 266.782 57.3456C266.807 57.7529 266.93 58.1481 267.14 58.4981Z" fill="#CF6F64"/>
<path d="M270.173 45.0132C267.316 46.3211 266.307 57.6871 269.898 59.3699C273.489 61.0526 275.582 42.5273 270.173 45.0132Z" fill="#263238"/>
<path d="M285.017 52.2109C284.33 57.9092 284.253 61.267 281.197 64.1965C280.25 65.1661 279.054 65.8548 277.741 66.1867C276.427 66.5185 275.048 66.4806 273.755 66.077C272.462 65.6734 271.305 64.9199 270.413 63.8997C269.52 62.8795 268.927 61.6322 268.698 60.2956C267.774 55.171 269.05 46.7038 274.764 44.4321C275.965 43.9019 277.285 43.7029 278.589 43.8556C279.892 44.0084 281.131 44.5074 282.177 45.3009C283.223 46.0945 284.038 47.1536 284.537 48.3686C285.037 49.5836 285.202 50.9102 285.017 52.2109Z" fill="#E58A7B"/>
<path d="M275.628 47.9657C279.86 46.8873 282.97 46.1453 281.854 49.679C280.38 54.383 278.607 58.9417 280.983 59.1558C282.435 59.2859 288.853 56.5629 288.035 53.8017C287.325 51.4 290.327 50.7422 290.862 49.5261C292.841 45.1204 287.179 45.7017 288.188 43.0246C289.196 40.3476 283.604 36.0337 280.548 38.1753C275.574 41.6479 267.04 41.602 271.525 35.8807C274.741 31.8039 269.004 32.6376 269.004 32.6376C269.004 32.6376 272.472 34.6951 266.635 37.877C260.462 41.3037 266.124 50.4057 275.628 47.9657Z" fill="#263238"/>
<path d="M287.264 58.4981C286.43 59.7089 285.173 60.563 283.742 60.8922C281.855 61.3052 281.129 59.6148 281.839 57.9168C282.473 56.387 284.215 54.3295 286.018 54.6814C287.821 55.0332 288.234 56.9989 287.264 58.4981Z" fill="#E58A7B"/>
<path d="M259.301 124.675C259.301 124.675 254.137 170.942 253.732 188.504C253.319 206.776 271.235 263.767 271.235 263.767L280.403 259.943C280.403 259.943 269.707 207.878 271.235 189.942C272.832 170.338 279.524 124.675 279.524 124.675H259.301Z" fill="#407BFF"/>
<path opacity="0.2" d="M272.136 137.371C268.018 145.923 270.791 162.826 273.022 172.854C273.87 165.779 274.879 158.099 275.834 150.994C275.742 140.064 274.894 131.635 272.136 137.371Z" fill="black"/>
<path d="M279.998 256.898C280.044 256.898 281.083 259.828 281.083 259.828L270.509 264.272L268.844 261.174L279.998 256.898Z" fill="#407BFF"/>
<path d="M270.219 124.675C270.219 124.675 274.169 168.686 276.782 185.169C279.654 203.227 290.916 263.37 290.916 263.37H301.451C301.451 263.37 295.14 204.681 293.949 186.806C292.65 167.408 290.067 124.675 290.067 124.675H270.219Z" fill="#407BFF"/>
<path d="M301.612 260.609C301.657 260.609 301.963 263.561 301.963 263.561H290.381L289.556 260.173L301.612 260.609Z" fill="#407BFF"/>
<path opacity="0.2" d="M297.578 257.129C297.554 257.129 297.531 257.121 297.512 257.105C297.494 257.09 297.482 257.068 297.478 257.045C297.417 256.509 291.725 203.504 290.656 187.441C289.495 170.01 287.157 131.368 287.134 130.978C287.134 130.952 287.143 130.927 287.16 130.907C287.176 130.888 287.2 130.875 287.225 130.871C287.251 130.873 287.275 130.884 287.294 130.902C287.312 130.92 287.323 130.945 287.325 130.971C287.325 131.353 289.686 169.979 290.847 187.426C291.916 203.488 297.608 256.464 297.662 257.03C297.664 257.042 297.663 257.055 297.66 257.068C297.657 257.08 297.651 257.092 297.643 257.102C297.635 257.112 297.626 257.12 297.614 257.126C297.603 257.132 297.59 257.136 297.578 257.137V257.129Z" fill="black"/>
<path d="M276.277 53.8013C276.277 54.2679 275.987 54.6427 275.681 54.6427C275.375 54.6427 275.154 54.2679 275.184 53.8013C275.215 53.3347 275.475 52.96 275.78 52.96C276.086 52.96 276.308 53.3347 276.277 53.8013Z" fill="#263238"/>
<path d="M271.036 53.8013C271.036 54.2679 270.738 54.6427 270.44 54.6427C270.142 54.6427 269.913 54.2679 269.936 53.8013C269.959 53.3347 270.234 52.96 270.54 52.96C270.845 52.96 271.067 53.3347 271.036 53.8013Z" fill="#263238"/>
<path d="M272.687 54.0312C272.05 55.4587 271.228 56.796 270.242 58.0086C271.006 58.7735 272.435 58.4216 272.435 58.4216L272.687 54.0312Z" fill="#DF5753"/>
<path d="M272.823 60.3721C272.806 60.3721 272.788 60.3685 272.772 60.3615C272.756 60.3545 272.741 60.3442 272.729 60.3313C272.717 60.3184 272.707 60.3032 272.701 60.2865C272.695 60.2698 272.693 60.2521 272.694 60.2344C272.696 60.1972 272.712 60.1621 272.739 60.1365C272.766 60.1109 272.802 60.0966 272.839 60.0967C273.423 60.1007 274.001 59.9737 274.53 59.7248C275.059 59.476 275.525 59.1117 275.895 58.6587C275.92 58.634 275.955 58.6201 275.99 58.6201C276.026 58.6201 276.06 58.634 276.086 58.6587C276.099 58.6709 276.109 58.6857 276.117 58.7021C276.124 58.7186 276.128 58.7364 276.128 58.7543C276.128 58.7723 276.124 58.7901 276.117 58.8065C276.109 58.823 276.099 58.8378 276.086 58.8499C275.69 59.3314 275.192 59.718 274.627 59.9814C274.063 60.2447 273.446 60.3782 272.823 60.3721Z" fill="#263238"/>
<path d="M277.21 52.3862C277.173 52.405 277.132 52.4148 277.091 52.4148C277.05 52.4148 277.009 52.405 276.973 52.3862C276.691 52.1995 276.369 52.0821 276.033 52.0435C275.697 52.005 275.357 52.0464 275.04 52.1644C275.009 52.1808 274.974 52.1905 274.939 52.1928C274.904 52.1951 274.868 52.19 274.835 52.1777C274.802 52.1654 274.772 52.1463 274.747 52.1217C274.721 52.097 274.701 52.0672 274.688 52.0344C274.66 51.9674 274.66 51.892 274.687 51.8247C274.714 51.7574 274.767 51.7035 274.834 51.6749C275.233 51.5116 275.666 51.4471 276.095 51.4871C276.525 51.527 276.939 51.6702 277.301 51.9043C277.331 51.9243 277.356 51.9498 277.375 51.9795C277.394 52.0092 277.407 52.0425 277.414 52.0774C277.42 52.1122 277.42 52.148 277.412 52.1826C277.405 52.2173 277.39 52.2501 277.37 52.2791C277.333 52.3347 277.275 52.3732 277.21 52.3862Z" fill="#263238"/>
<path d="M269.011 50.8646C268.972 50.8519 268.935 50.831 268.904 50.8034C268.879 50.7785 268.859 50.7487 268.845 50.7159C268.831 50.6831 268.824 50.6478 268.824 50.6122C268.824 50.5766 268.831 50.5413 268.845 50.5085C268.859 50.4757 268.879 50.4459 268.904 50.421C269.196 50.0903 269.56 49.8323 269.969 49.6677C270.377 49.503 270.819 49.4362 271.258 49.4725C271.292 49.477 271.326 49.4887 271.356 49.5069C271.386 49.5251 271.412 49.5493 271.432 49.5781C271.452 49.6069 271.466 49.6396 271.473 49.6741C271.48 49.7086 271.479 49.7442 271.471 49.7785C271.457 49.8501 271.415 49.9136 271.356 49.9561C271.296 49.9987 271.223 50.0172 271.151 50.0079C270.803 49.986 270.456 50.0435 270.134 50.1761C269.813 50.3086 269.525 50.5126 269.294 50.7728C269.26 50.8122 269.215 50.8415 269.165 50.8577C269.116 50.8738 269.062 50.8762 269.011 50.8646Z" fill="#263238"/>
<path d="M297.754 82.1179L289.808 80.0068C289.808 80.0068 282.015 99.2052 279.257 100.46C275.514 102.165 266.032 108.07 261.999 110.915C261.777 111.864 261.953 114.403 262.457 115.092C269.333 113.845 282.497 108.774 285.247 106.196C291.519 100.314 297.754 82.1179 297.754 82.1179Z" fill="#E58A7B"/>
<path d="M292.207 271.485C291.82 271.518 291.434 271.415 291.114 271.194C291.016 271.105 290.942 270.992 290.901 270.866C290.859 270.74 290.851 270.605 290.877 270.475C290.883 270.393 290.91 270.314 290.956 270.246C291.001 270.177 291.064 270.122 291.137 270.085C291.779 269.764 293.574 270.904 293.781 271.034C293.803 271.048 293.821 271.069 293.83 271.093C293.84 271.118 293.841 271.146 293.834 271.171C293.829 271.198 293.816 271.222 293.797 271.241C293.778 271.26 293.753 271.273 293.727 271.278C293.23 271.405 292.72 271.474 292.207 271.485ZM291.443 270.299C291.385 270.286 291.325 270.286 291.267 270.299C291.238 270.314 291.213 270.337 291.197 270.366C291.181 270.394 291.173 270.427 291.175 270.46C291.156 270.549 291.16 270.642 291.186 270.729C291.213 270.816 291.262 270.895 291.328 270.957C291.968 271.25 292.695 271.285 293.36 271.057C292.772 270.675 292.111 270.417 291.42 270.299H291.443Z" fill="#407BFF"/>
<path d="M293.689 271.286H293.628C293.055 270.965 291.978 269.703 292.138 269.06C292.161 268.958 292.218 268.866 292.3 268.801C292.382 268.736 292.484 268.7 292.589 268.701C292.692 268.686 292.796 268.694 292.895 268.724C292.995 268.754 293.086 268.807 293.162 268.877C293.796 269.42 293.834 271.087 293.834 271.172C293.837 271.197 293.831 271.222 293.819 271.244C293.807 271.265 293.788 271.283 293.766 271.294C293.74 271.299 293.713 271.296 293.689 271.286ZM292.665 268.953H292.612C292.436 268.953 292.413 269.06 292.406 269.091C292.314 269.474 292.994 270.43 293.559 270.873C293.554 270.227 293.355 269.598 292.986 269.068C292.896 268.993 292.782 268.953 292.665 268.953Z" fill="#407BFF"/>
<path d="M271.923 270.537C271.455 270.7 270.946 270.7 270.479 270.537C270.374 270.475 270.286 270.39 270.22 270.287C270.155 270.185 270.116 270.069 270.104 269.948C270.096 269.872 270.106 269.796 270.134 269.725C270.162 269.654 270.207 269.592 270.265 269.542C270.876 268.999 273.374 269.588 273.657 269.657C273.683 269.664 273.705 269.678 273.722 269.699C273.738 269.72 273.748 269.745 273.749 269.772C273.752 269.801 273.746 269.83 273.73 269.855C273.715 269.88 273.692 269.899 273.665 269.91C273.104 270.17 272.521 270.38 271.923 270.537ZM270.677 269.627C270.592 269.645 270.511 269.682 270.44 269.734C270.416 269.753 270.397 269.779 270.386 269.809C270.375 269.839 270.373 269.871 270.379 269.902C270.383 269.981 270.408 270.058 270.451 270.125C270.494 270.193 270.553 270.247 270.624 270.284C271.029 270.506 271.968 270.33 273.183 269.825C272.365 269.619 271.518 269.552 270.677 269.627Z" fill="#407BFF"/>
<path d="M273.641 269.917H273.58C272.816 269.78 271.288 268.9 271.242 268.242C271.242 268.089 271.311 267.875 271.678 267.753C271.801 267.707 271.933 267.687 272.064 267.695C272.196 267.703 272.325 267.738 272.442 267.799C273.267 268.204 273.702 269.673 273.725 269.734C273.73 269.758 273.73 269.783 273.723 269.807C273.716 269.831 273.704 269.853 273.687 269.872C273.676 269.89 273.66 269.906 273.641 269.917ZM271.83 267.982H271.754C271.517 268.066 271.517 268.166 271.517 268.196C271.517 268.587 272.625 269.313 273.397 269.558C273.218 268.944 272.842 268.406 272.327 268.028C272.173 267.953 271.996 267.936 271.83 267.982Z" fill="#407BFF"/>
<path d="M262.648 110.464L254.679 114.135L253.755 116.384L256.696 118.373C256.696 118.373 262.197 117.768 263.763 114.235L262.648 110.464Z" fill="#E58A7B"/>
<path d="M262.983 115.221C262.801 113.689 262.296 112.214 261.501 110.892L262.762 109.951C263.71 111.472 264.315 113.182 264.534 114.961L262.983 115.221Z" fill="#263238"/>
<path d="M264.344 111.549C264.512 111.815 264.595 112.126 264.581 112.44C264.567 112.754 264.456 113.056 264.264 113.304C264.073 113.553 263.809 113.737 263.509 113.831C263.209 113.924 262.888 113.923 262.589 113.827C262.29 113.732 262.028 113.546 261.838 113.296C261.648 113.045 261.539 112.743 261.527 112.429C261.516 112.114 261.601 111.804 261.771 111.54C261.941 111.276 262.189 111.071 262.48 110.953C262.807 110.788 263.185 110.759 263.533 110.87C263.882 110.982 264.173 111.226 264.344 111.549Z" fill="#263238"/>
<path d="M249.293 117.102L250.355 118.173L257.506 115.114L254.679 114.135L249.293 117.102Z" fill="#E58A7B"/>
<path opacity="0.2" d="M279.998 256.898C280.044 256.898 281.083 259.828 281.083 259.828L270.509 264.272L268.844 261.174L279.998 256.898Z" fill="black"/>
<path opacity="0.2" d="M301.612 260.609C301.657 260.609 301.963 263.561 301.963 263.561H290.381L289.556 260.173L301.612 260.609Z" fill="black"/>
<path d="M299.824 79.9219C301.925 86.6987 293.712 95.9842 293.712 95.9842L282.366 91.3491C283.71 87.4249 285.261 83.5747 287.011 79.8148C290.495 72.2961 297.7 73.0762 299.824 79.9219Z" fill="#407BFF"/>
<path opacity="0.2" d="M299.824 79.9219C301.925 86.6987 293.712 95.9842 293.712 95.9842L282.366 91.3491C283.71 87.4249 285.261 83.5747 287.011 79.8148C290.495 72.2961 297.7 73.0762 299.824 79.9219Z" fill="black"/>
<path d="M187.088 11.9473H182.206V12.7351H187.088V11.9473Z" fill="#407BFF"/>
<path d="M250.289 43.1257L249.698 56.2529L250.484 56.2884L251.075 43.1612L250.289 43.1257Z" fill="#407BFF"/>
<path d="M248.765 15.4814H158.613L150.225 203.426H240.377L248.765 15.4814Z" fill="#407BFF"/>
<path opacity="0.56" d="M246.076 18.0586H155.924L147.535 206.004H237.687L246.076 18.0586Z" fill="#FAFAFA"/>
<path opacity="0.07" d="M243.387 20.6357H153.235L144.839 208.581H234.991L243.387 20.6357Z" fill="#407BFF"/>
<path d="M233.127 102.607H156.177L155.535 116.995H232.485L233.127 102.607Z" fill="white"/>
<path d="M198.495 92.1211H156.643L156.36 98.5537H198.212L198.495 92.1211Z" fill="#407BFF"/>
<path d="M231.393 141.425H154.443L153.801 155.804H230.751L231.393 141.425Z" fill="white"/>
<path opacity="0.47" d="M217.281 175.218H165.535L164.764 192.458H216.509L217.281 175.218Z" fill="#407BFF"/>
<path d="M213.82 195.128H162.075H162.006C161.999 195.105 161.999 195.081 162.006 195.059L162.77 177.818C162.77 177.807 162.772 177.795 162.777 177.784C162.782 177.774 162.789 177.764 162.797 177.756C162.806 177.748 162.816 177.742 162.827 177.738C162.838 177.735 162.85 177.733 162.862 177.734H214.607C214.627 177.727 214.649 177.727 214.668 177.734C214.668 177.734 214.668 177.78 214.668 177.803L213.92 195.043C213.916 195.067 213.904 195.089 213.886 195.104C213.867 195.119 213.844 195.128 213.82 195.128ZM162.166 194.952H213.729L214.493 177.887H162.93L162.166 194.952Z" fill="white"/>
<path d="M189.457 130.932H154.909L154.626 137.364H189.166L189.457 130.932Z" fill="#407BFF"/>
<path d="M216.296 56.1646C216.09 60.3363 214.604 64.343 212.04 67.6377C210.136 70.1335 207.686 72.1598 204.879 73.5611C202.071 74.9625 198.98 75.7018 195.843 75.7225C193.309 75.7429 190.796 75.2434 188.462 74.2547C186.127 73.2661 184.019 71.8092 182.269 69.974C180.518 68.1387 179.161 65.964 178.282 63.5837C177.402 61.2035 177.019 58.6682 177.156 56.134C177.425 50.8748 179.69 45.9169 183.489 42.2744C187.288 38.6318 192.333 36.5798 197.593 36.5379C200.133 36.514 202.65 37.0123 204.99 38.0019C207.33 38.9916 209.442 40.4516 211.195 42.2914C212.948 44.1313 214.306 46.3119 215.183 48.6983C216.06 51.0846 216.439 53.6258 216.296 56.1646Z" fill="white"/>
<path d="M218.137 40.669C218.088 41.7817 217.692 42.8512 217.007 43.7285C216.501 44.3944 215.85 44.9357 215.103 45.3108C214.356 45.686 213.533 45.8852 212.698 45.8931C211.885 45.8988 211.084 45.7043 210.365 45.3268C209.645 44.9494 209.03 44.4004 208.572 43.7285C207.966 42.8272 207.666 41.7544 207.716 40.669C207.79 39.2706 208.394 37.9531 209.405 36.9852C210.416 36.0173 211.757 35.4718 213.156 35.4602C213.831 35.454 214.5 35.5862 215.122 35.8487C215.743 36.1112 216.305 36.4984 216.772 36.9864C217.238 37.4743 217.6 38.0528 217.835 38.6862C218.07 39.3195 218.173 39.9943 218.137 40.669Z" fill="#407BFF"/>
<path d="M164.465 109.805C164.429 110.422 164.16 111.001 163.713 111.427C163.267 111.853 162.676 112.093 162.059 112.1C161.761 112.104 161.466 112.046 161.191 111.931C160.916 111.815 160.668 111.645 160.462 111.43C160.256 111.215 160.096 110.96 159.992 110.68C159.888 110.401 159.843 110.103 159.858 109.805C159.893 109.188 160.162 108.608 160.609 108.182C161.056 107.755 161.648 107.516 162.265 107.511C162.562 107.509 162.857 107.569 163.13 107.685C163.404 107.801 163.651 107.971 163.857 108.186C164.063 108.4 164.223 108.655 164.327 108.933C164.432 109.211 164.479 109.508 164.465 109.805Z" fill="#263238"/>
<path d="M174.764 109.806C174.729 110.422 174.461 111.003 174.014 111.429C173.567 111.855 172.975 112.095 172.358 112.1C172.061 112.103 171.766 112.044 171.492 111.929C171.219 111.813 170.972 111.642 170.766 111.427C170.561 111.212 170.401 110.958 170.298 110.679C170.195 110.4 170.149 110.103 170.165 109.806C170.2 109.19 170.467 108.61 170.912 108.184C171.358 107.758 171.948 107.518 172.564 107.511C172.862 107.507 173.157 107.565 173.432 107.68C173.706 107.795 173.955 107.966 174.161 108.181C174.367 108.396 174.527 108.651 174.631 108.931C174.735 109.21 174.78 109.508 174.764 109.806Z" fill="#263238"/>
<path d="M185.071 109.805C185.037 110.422 184.768 111.003 184.321 111.429C183.874 111.855 183.282 112.095 182.665 112.1C182.367 112.102 182.073 112.044 181.798 111.928C181.524 111.813 181.277 111.642 181.071 111.428C180.865 111.213 180.705 110.958 180.6 110.679C180.496 110.4 180.45 110.103 180.465 109.805C180.501 109.189 180.77 108.61 181.217 108.184C181.663 107.758 182.254 107.517 182.871 107.511C183.169 107.508 183.463 107.567 183.738 107.682C184.012 107.798 184.259 107.969 184.465 108.183C184.671 108.398 184.831 108.653 184.936 108.932C185.04 109.211 185.086 109.508 185.071 109.805Z" fill="#263238"/>
<path d="M162.732 148.615C162.695 149.231 162.426 149.811 161.98 150.237C161.533 150.663 160.942 150.903 160.325 150.91C160.028 150.912 159.733 150.854 159.459 150.738C159.184 150.622 158.937 150.452 158.731 150.237C158.525 150.022 158.365 149.768 158.261 149.489C158.156 149.21 158.11 148.912 158.125 148.615C158.16 147.998 158.428 147.417 158.875 146.991C159.322 146.565 159.914 146.325 160.531 146.32C160.829 146.318 161.124 146.376 161.398 146.492C161.672 146.608 161.919 146.778 162.125 146.993C162.331 147.208 162.491 147.462 162.596 147.741C162.7 148.02 162.746 148.318 162.732 148.615Z" fill="#263238"/>
<path d="M173.03 148.615C172.997 149.231 172.73 149.812 172.285 150.238C171.839 150.665 171.248 150.905 170.631 150.91C170.333 150.913 170.038 150.856 169.763 150.74C169.489 150.625 169.241 150.455 169.034 150.24C168.828 150.024 168.668 149.769 168.564 149.49C168.461 149.21 168.415 148.913 168.431 148.615C168.466 147.998 168.734 147.417 169.181 146.991C169.628 146.565 170.22 146.325 170.837 146.32C171.134 146.318 171.429 146.376 171.703 146.492C171.976 146.608 172.224 146.778 172.429 146.993C172.634 147.208 172.794 147.463 172.897 147.742C173 148.021 173.046 148.318 173.03 148.615Z" fill="#263238"/>
<path d="M183.36 148.615C183.325 149.232 183.056 149.813 182.609 150.239C182.162 150.665 181.57 150.905 180.953 150.91C180.655 150.912 180.361 150.854 180.087 150.738C179.812 150.622 179.565 150.452 179.359 150.237C179.153 150.022 178.993 149.768 178.889 149.489C178.784 149.21 178.738 148.913 178.753 148.615C178.789 147.999 179.058 147.419 179.505 146.993C179.951 146.568 180.543 146.327 181.159 146.32C181.457 146.317 181.752 146.375 182.027 146.49C182.302 146.605 182.55 146.775 182.756 146.991C182.962 147.206 183.122 147.461 183.226 147.74C183.33 148.02 183.375 148.317 183.36 148.615Z" fill="#263238"/>
<path d="M193.643 148.615C193.606 149.231 193.337 149.811 192.891 150.237C192.444 150.663 191.853 150.903 191.236 150.91C190.939 150.912 190.644 150.854 190.37 150.738C190.096 150.622 189.848 150.452 189.642 150.237C189.436 150.022 189.276 149.768 189.172 149.489C189.068 149.21 189.021 148.912 189.036 148.615C189.073 147.999 189.341 147.419 189.788 146.993C190.234 146.568 190.826 146.327 191.442 146.32C191.74 146.318 192.035 146.376 192.309 146.492C192.583 146.608 192.831 146.778 193.037 146.993C193.243 147.208 193.403 147.462 193.507 147.741C193.611 148.02 193.657 148.318 193.643 148.615Z" fill="#263238"/>
<path d="M203.988 148.615C203.951 149.231 203.682 149.811 203.236 150.237C202.789 150.663 202.198 150.903 201.581 150.91C201.284 150.913 200.988 150.856 200.714 150.74C200.439 150.625 200.191 150.455 199.985 150.24C199.778 150.024 199.618 149.769 199.515 149.49C199.411 149.21 199.365 148.913 199.381 148.615C199.416 147.998 199.684 147.417 200.131 146.991C200.578 146.565 201.17 146.325 201.788 146.32C202.085 146.318 202.38 146.376 202.654 146.492C202.928 146.608 203.176 146.778 203.382 146.993C203.588 147.208 203.748 147.462 203.852 147.741C203.956 148.02 204.002 148.318 203.988 148.615Z" fill="#263238"/>
<path d="M202.412 55.1412C205.61 52.0105 205.779 46.9924 202.791 43.9329C199.802 40.8735 194.788 40.9312 191.59 44.0619C188.392 47.1926 188.222 52.2107 191.211 55.2701C194.199 58.3296 199.214 58.2719 202.412 55.1412Z" fill="#407BFF"/>
<path d="M212.04 67.6756C210.132 70.1644 207.68 72.1833 204.873 73.578C202.066 74.9726 198.977 75.706 195.843 75.7221C192.805 75.7509 189.806 75.0322 187.109 73.6292C184.413 72.2262 182.102 70.1818 180.38 67.6756C184.093 63.9736 189.968 61.5566 196.477 61.5566C202.987 61.5566 208.656 63.9736 212.04 67.6756Z" fill="#407BFF"/>
<path opacity="0.1" d="M202.412 55.1412C205.61 52.0105 205.779 46.9924 202.791 43.9329C199.802 40.8735 194.788 40.9312 191.59 44.0619C188.392 47.1926 188.222 52.2107 191.211 55.2701C194.199 58.3296 199.214 58.2719 202.412 55.1412Z" fill="white"/>
<path opacity="0.1" d="M212.04 67.6756C210.132 70.1644 207.68 72.1833 204.873 73.578C202.066 74.9726 198.977 75.706 195.843 75.7221C192.805 75.7509 189.806 75.0322 187.109 73.6292C184.413 72.2262 182.102 70.1818 180.38 67.6756C184.093 63.9736 189.968 61.5566 196.477 61.5566C202.987 61.5566 208.656 63.9736 212.04 67.6756Z" fill="white"/>
<path d="M99.6332 120.46C98.9074 122.051 98.1434 123.795 97.4787 125.501C96.8141 127.207 96.1341 128.943 95.5458 130.694C94.3439 134.131 93.429 137.662 92.8107 141.25L92.6426 142.374C92.6266 142.567 92.6447 142.761 92.6961 142.948C92.8752 143.58 93.1593 144.177 93.5365 144.715C94.5162 146.116 95.6544 147.399 96.9287 148.539C98.2707 149.789 99.6785 150.966 101.146 152.065C102.613 153.197 104.156 154.298 105.676 155.339L104.248 158.016C100.616 156.44 97.1703 154.468 93.972 152.134C92.265 150.888 90.7245 149.428 89.388 147.789C88.5974 146.813 87.9798 145.708 87.562 144.523C87.3247 143.795 87.201 143.034 87.1953 142.267C87.1953 142.076 87.1953 141.816 87.1953 141.686V141.303L87.2717 140.538C87.7089 136.553 88.5459 132.622 89.77 128.805C90.3659 126.916 91 125.05 91.7258 123.214C92.4516 121.378 93.2003 119.596 94.1248 117.745L99.6332 120.46Z" fill="#E58A7B"/>
<path d="M104.6 154.872L110.001 152.126L108.603 158.069C108.603 158.069 104.898 159.109 103.179 157.304L104.6 154.872Z" fill="#E58A7B"/>
<path d="M114.944 153.105L113.507 158.016L108.603 158.069L110.001 152.134L114.944 153.105Z" fill="#E58A7B"/>
<path d="M122.568 91.8232C122.863 92.8835 123.271 93.9091 123.783 94.8827C123.635 95.0514 123.443 95.1767 123.229 95.2453C123.016 95.314 122.787 95.3235 122.568 95.2728V91.8232Z" fill="#DF5753"/>
<path d="M122.408 91.8696C122.724 91.8696 122.981 91.4758 122.981 90.99C122.981 90.5042 122.724 90.1104 122.408 90.1104C122.092 90.1104 121.835 90.5042 121.835 90.99C121.835 91.4758 122.092 91.8696 122.408 91.8696Z" fill="#263238"/>
<path d="M122.24 90.1412L123.402 89.8047C123.402 89.8047 122.836 90.7149 122.24 90.1412Z" fill="#263238"/>
<path d="M107.648 97.4307C108.343 100.995 109.038 107.519 106.548 109.89C106.548 109.89 107.526 113.508 114.134 113.508C121.4 113.508 117.603 109.898 117.603 109.898C113.638 108.95 113.737 105.997 114.432 103.236L107.648 97.4307Z" fill="#E58A7B"/>
<path d="M105.715 89.3301C106.082 95.2732 106.113 97.7972 109.107 100.849C113.623 105.438 120.835 103.687 122.248 97.7896C123.524 92.4355 122.714 83.6241 116.9 81.253C115.623 80.7285 114.234 80.5385 112.863 80.7009C111.493 80.8632 110.186 81.3726 109.067 82.181C107.947 82.9893 107.052 84.0699 106.466 85.3208C105.879 86.5717 105.621 87.9515 105.715 89.3301Z" fill="#E58A7B"/>
<path d="M106.304 82.607C103.324 83.6931 99.3511 82.8823 100.91 92.0838C102.56 101.821 100.023 105.025 100.023 105.025C100.023 105.025 111.323 107.442 122.859 104.888C122.859 104.888 119.337 98.7152 120.323 94.2178C121.584 88.4812 120.59 86.3625 120.59 86.3625C120.59 86.3625 110.49 81.0772 106.304 82.607Z" fill="#263238"/>
<path d="M118.909 92.4278C118.912 93.5578 119.235 94.6638 119.841 95.6173C120.651 96.8564 121.606 96.3822 121.843 95.0666C122.057 93.904 121.896 91.8618 120.865 91.074C119.834 90.2861 118.924 91.0816 118.909 92.4278Z" fill="#E58A7B"/>
<path d="M103.713 83.6472C102.857 81.2379 106.937 77.5282 115.57 79.058C124.204 80.5877 124.578 87.7775 124.578 87.7775L122.836 85.7047L122.912 87.8923L114.042 89.5979L103.713 83.6472Z" fill="#263238"/>
<path d="M104.447 110.295C104.394 109.946 104.48 109.589 104.688 109.303C104.895 109.017 105.206 108.824 105.555 108.766C108.244 108.322 114.356 107.419 117.427 107.848C119.719 108.161 120.315 109.5 120.414 110.594C120.43 110.785 120.404 110.978 120.339 111.159C120.274 111.339 120.172 111.504 120.038 111.642C119.904 111.78 119.742 111.887 119.563 111.957C119.384 112.027 119.193 112.057 119.001 112.047L105.723 111.45C105.41 111.435 105.112 111.311 104.879 111.1C104.647 110.89 104.494 110.606 104.447 110.295Z" fill="#407BFF"/>
<path opacity="0.6" d="M104.447 110.295C104.394 109.946 104.48 109.589 104.688 109.303C104.895 109.017 105.206 108.824 105.555 108.766C108.244 108.322 114.356 107.419 117.427 107.848C119.719 108.161 120.315 109.5 120.414 110.594C120.43 110.785 120.404 110.978 120.339 111.159C120.274 111.339 120.172 111.504 120.038 111.642C119.904 111.78 119.742 111.887 119.563 111.957C119.384 112.027 119.193 112.057 119.001 112.047L105.723 111.45C105.41 111.435 105.112 111.311 104.879 111.1C104.647 110.89 104.494 110.606 104.447 110.295Z" fill="black"/>
<path d="M112.125 243.926L117.053 247.345L125.296 236.163L120.369 232.736L112.125 243.926Z" fill="#E58A7B"/>
<path d="M100.634 243.697L105.837 246.672L113.133 234.84L107.93 231.864L100.634 243.697Z" fill="#E58A7B"/>
<path d="M125.289 236.163L121.041 241.93L116.113 238.504L120.361 232.744L125.289 236.163Z" fill="#CF6F64"/>
<path d="M107.923 231.872L113.133 234.84L109.375 240.936L104.164 237.968L107.923 231.872Z" fill="#CF6F64"/>
<path d="M116.281 147.621C116.281 147.621 135.518 171.891 131.905 195.105C128.994 213.852 112.109 239.238 112.109 239.238L104.171 235.291C109.767 224.067 114.541 212.451 118.458 200.535C119.666 196.836 120.019 192.91 119.489 189.054C118.96 185.198 117.562 181.513 115.402 178.277C105.654 164.028 90.0374 172.502 100.542 147.621H116.281Z" fill="#407BFF"/>
<path opacity="0.6" d="M116.281 147.621C116.281 147.621 135.518 171.891 131.905 195.105C128.994 213.852 112.109 239.238 112.109 239.238L104.171 235.291C109.767 224.067 114.541 212.451 118.458 200.535C119.666 196.836 120.019 192.91 119.489 189.054C118.96 185.198 117.562 181.513 115.402 178.277C105.654 164.028 90.0374 172.502 100.542 147.621H116.281Z" fill="black"/>
<path opacity="0.4" d="M125.716 163.248L122.92 160.464C122.92 160.686 128.337 194.157 129.857 203.565C130.754 200.816 131.441 198.003 131.912 195.151C133.7 183.77 129.964 172.143 125.716 163.248Z" fill="black"/>
<path d="M124.868 147.621C124.868 147.621 148.033 178.124 148.69 196.412C149.232 211.71 123.478 241.349 123.478 241.349L115.99 236.5C115.99 236.5 131.064 215.45 134.861 198.256C133.394 181.276 102.376 147.621 102.376 147.621H124.868Z" fill="#407BFF"/>
<path opacity="0.6" d="M124.868 147.621C124.868 147.621 148.033 178.124 148.69 196.412C149.232 211.71 123.478 241.349 123.478 241.349L115.99 236.5C115.99 236.5 131.064 215.45 134.861 198.256C133.394 181.276 102.376 147.621 102.376 147.621H124.868Z" fill="black"/>
<path d="M96.2108 111.26C93.7354 111.841 91.3594 120.859 91.3594 120.859L101.039 127.322C101.039 127.322 104.263 120.201 103.133 117.08C101.964 113.83 99.3203 110.518 96.2108 111.26Z" fill="#407BFF"/>
<path opacity="0.2" d="M98.1059 117.026L97.4336 124.882L101.032 127.299C102.024 125.059 102.76 122.713 103.225 120.308L98.1059 117.026Z" fill="black"/>
<path d="M127.734 111.427C127.734 111.427 130.591 112.437 124.869 147.652H100.528C100.94 137.708 100.948 131.589 96.2109 111.259C99.6194 110.555 103.074 110.098 106.548 109.89C110.228 109.629 113.922 109.629 117.603 109.89C122.355 110.326 127.734 111.427 127.734 111.427Z" fill="#407BFF"/>
<path d="M130.209 117.026C130.759 118.556 131.34 120.208 131.951 121.791C132.562 123.375 133.143 125.004 133.762 126.602L135.633 131.406L136.107 132.607L136.352 133.211L136.466 133.509C136.466 133.563 136.466 133.563 136.466 133.555C136.326 133.357 136.143 133.192 135.931 133.073C135.63 132.894 135.288 132.794 134.938 132.783C134.648 132.772 134.359 132.824 134.09 132.936C133.739 133.104 133.739 133.173 133.746 133.165C133.808 133.112 133.864 133.053 133.914 132.989C134.336 132.432 134.702 131.835 135.007 131.207C135.366 130.503 135.71 129.754 136.054 128.996C136.726 127.467 137.345 125.883 137.964 124.285C138.583 122.686 139.171 121.065 139.744 119.443L141.486 114.556L144.427 115.321C143.846 118.808 143.098 122.204 142.196 125.662C141.761 127.383 141.249 129.088 140.668 130.809C140.378 131.666 140.057 132.53 139.69 133.402C139.31 134.36 138.839 135.28 138.285 136.148C138.081 136.44 137.857 136.716 137.612 136.974C137.22 137.394 136.747 137.729 136.222 137.961C135.754 138.162 135.248 138.256 134.74 138.236C134.17 138.212 133.615 138.044 133.128 137.747C132.551 137.391 132.073 136.897 131.737 136.309C131.622 136.11 131.523 135.911 131.454 135.766L131.309 135.467L131.019 134.878L130.438 133.685C129.674 132.094 128.91 130.496 128.246 128.882C127.581 127.268 126.878 125.623 126.221 123.987C125.564 122.35 124.976 120.698 124.418 118.923L130.209 117.026Z" fill="#E58A7B"/>
<path d="M127.733 111.428C130.659 112.131 133.952 120.782 133.952 120.782L125.25 128.201C125.25 128.201 119.619 118.763 120.757 115.65C121.942 112.437 123.913 110.517 127.733 111.428Z" fill="#407BFF"/>
<path d="M142.868 111.855L145.924 109.301L148.048 112.605L146.482 115.374C146.482 115.374 143.992 117.669 141.791 116.498C141.442 115.712 141.358 114.834 141.553 113.996C141.747 113.158 142.209 112.407 142.868 111.855Z" fill="#E58A7B"/>
<path d="M151.44 109.308L151.211 110.135L146.375 110.953L145.901 109.301L151.44 109.308Z" fill="#E58A7B"/>
<path d="M124.074 241.777L115.349 236.124L116.915 233.409L126.717 239.444L124.074 241.777Z" fill="#407BFF"/>
<path d="M109.252 246.29C108.485 246.2 107.749 245.939 107.097 245.525C107.071 245.514 107.05 245.494 107.036 245.469C107.022 245.444 107.017 245.416 107.021 245.388C107.026 245.36 107.037 245.335 107.054 245.313C107.072 245.292 107.095 245.275 107.12 245.265C107.357 245.196 109.412 244.562 110.008 245.051C110.075 245.105 110.126 245.176 110.156 245.257C110.185 245.338 110.192 245.425 110.176 245.51C110.166 245.649 110.121 245.783 110.045 245.899C109.968 246.016 109.864 246.111 109.741 246.175C109.589 246.251 109.421 246.29 109.252 246.29ZM107.533 245.456C108.488 245.938 109.252 246.122 109.618 245.938C109.699 245.893 109.767 245.828 109.815 245.749C109.864 245.67 109.891 245.58 109.893 245.487C109.904 245.451 109.903 245.412 109.89 245.377C109.878 245.341 109.855 245.31 109.825 245.288C109.504 245.005 108.358 245.204 107.517 245.434L107.533 245.456Z" fill="#263238"/>
<path d="M107.152 245.526C107.111 245.525 107.073 245.509 107.045 245.48C107.033 245.459 107.027 245.435 107.027 245.411C107.027 245.387 107.033 245.363 107.045 245.342C107.045 245.273 107.541 243.614 108.321 243.231C108.42 243.186 108.528 243.162 108.638 243.162C108.747 243.162 108.855 243.186 108.955 243.231C109.062 243.265 109.155 243.334 109.219 243.427C109.282 243.52 109.313 243.631 109.306 243.744C109.253 244.432 107.855 245.38 107.213 245.533L107.152 245.526ZM108.634 243.438C108.559 243.436 108.485 243.455 108.42 243.491C107.946 243.713 107.557 244.616 107.366 245.159C108.038 244.876 108.962 244.126 108.993 243.705C108.993 243.636 108.993 243.545 108.817 243.476C108.758 243.458 108.696 243.45 108.634 243.453V243.438Z" fill="#263238"/>
<path d="M120.155 249.572C119.292 249.572 118.092 248.47 117.435 247.79C117.418 247.766 117.409 247.738 117.409 247.709C117.409 247.681 117.418 247.652 117.435 247.629C117.45 247.604 117.471 247.582 117.496 247.568C117.522 247.553 117.551 247.545 117.58 247.545C117.886 247.591 120.537 247.943 120.911 248.7C120.951 248.767 120.972 248.844 120.972 248.922C120.972 249 120.951 249.076 120.911 249.143C120.855 249.26 120.77 249.361 120.665 249.436C120.559 249.511 120.436 249.557 120.308 249.572H120.155ZM117.939 247.889C118.902 248.83 119.75 249.35 120.231 249.289C120.316 249.278 120.396 249.246 120.465 249.197C120.534 249.148 120.59 249.082 120.629 249.006C120.645 248.978 120.654 248.946 120.654 248.914C120.654 248.882 120.645 248.85 120.629 248.822C120.43 248.417 119.016 248.065 117.939 247.889Z" fill="#263238"/>
<path d="M118.023 247.865C117.851 247.87 117.68 247.857 117.511 247.827C117.487 247.822 117.464 247.811 117.446 247.795C117.427 247.779 117.413 247.758 117.404 247.735C117.393 247.714 117.387 247.69 117.387 247.666C117.387 247.642 117.393 247.619 117.404 247.598C117.45 247.544 118.481 246.297 119.459 246.213C119.596 246.201 119.735 246.216 119.866 246.258C119.997 246.3 120.119 246.368 120.223 246.458C120.521 246.718 120.506 246.947 120.429 247.093C120.238 247.605 118.917 247.865 118.023 247.865ZM117.824 247.582C118.68 247.628 120.047 247.345 120.223 246.97C120.223 246.97 120.284 246.848 120.086 246.672C120.006 246.605 119.913 246.554 119.814 246.524C119.714 246.494 119.609 246.484 119.505 246.496C118.845 246.672 118.256 247.052 117.824 247.582Z" fill="#263238"/>
<path d="M107.357 244.76L100.878 242.925C100.767 242.89 100.648 242.898 100.542 242.946C100.437 242.994 100.352 243.079 100.305 243.185L98.1201 248.11C98.0688 248.236 98.0447 248.372 98.0494 248.508C98.0541 248.644 98.0875 248.777 98.1474 248.899C98.2073 249.021 98.2923 249.129 98.3969 249.216C98.5015 249.303 98.6233 249.367 98.7542 249.403C101.046 250 102.146 250.168 104.996 250.979C106.753 251.476 109.259 252.386 111.681 253.067C114.103 253.748 114.913 251.392 113.973 250.895C109.725 248.638 109.389 247.07 108.228 245.387C108.023 245.08 107.713 244.857 107.357 244.76Z" fill="#407BFF"/>
<path d="M117.61 246.894L112.079 243.07C111.984 243.004 111.868 242.975 111.753 242.987C111.638 243 111.531 243.054 111.452 243.139L107.785 247.078C107.696 247.18 107.629 247.301 107.589 247.431C107.55 247.562 107.538 247.699 107.556 247.834C107.573 247.969 107.619 248.099 107.69 248.215C107.761 248.332 107.856 248.431 107.969 248.508C109.917 249.808 110.925 250.344 113.362 252.034C114.89 253.074 117.847 255.384 119.91 256.822C121.973 258.26 123.508 256.287 122.775 255.507C119.49 251.988 118.772 249.785 118.229 247.789C118.136 247.426 117.917 247.109 117.61 246.894Z" fill="#407BFF"/>
<path d="M113.125 239.773L103.155 234.809L104.187 232.109L114.837 237.333L113.125 239.773Z" fill="#407BFF"/>
<path d="M100.161 146.222L99.3202 148.387C99.2362 148.555 99.4348 148.723 99.7175 148.723H124.991C125.212 148.723 125.396 148.616 125.411 148.479L125.625 146.299C125.625 146.146 125.449 146.023 125.212 146.023H100.558C100.48 146.019 100.402 146.034 100.333 146.069C100.263 146.104 100.204 146.157 100.161 146.222Z" fill="#407BFF"/>
<path opacity="0.4" d="M100.161 146.222L99.3202 148.387C99.2362 148.555 99.4348 148.723 99.7175 148.723H124.991C125.212 148.723 125.396 148.616 125.411 148.479L125.625 146.299C125.625 146.146 125.449 146.023 125.212 146.023H100.558C100.48 146.019 100.402 146.034 100.333 146.069C100.263 146.104 100.204 146.157 100.161 146.222Z" fill="white"/>
<path d="M104.141 148.975H103.476C103.346 148.975 103.247 148.914 103.254 148.83L103.568 145.992C103.568 145.908 103.69 145.839 103.82 145.839H104.484C104.614 145.839 104.714 145.908 104.706 145.992L104.393 148.83C104.385 148.914 104.27 148.975 104.141 148.975Z" fill="#407BFF"/>
<path d="M119.727 148.975H119.07C118.94 148.975 118.84 148.914 118.848 148.83L119.154 145.992C119.154 145.908 119.284 145.839 119.413 145.839H120.07C120.2 145.839 120.307 145.908 120.292 145.992L119.986 148.83C119.948 148.914 119.864 148.975 119.727 148.975Z" fill="#407BFF"/>
<g style="mix-blend-mode:multiply">
<path d="M103.56 278.515C114.864 278.515 124.028 277.85 124.028 277.031C124.028 276.211 114.864 275.547 103.56 275.547C92.2564 275.547 83.0928 276.211 83.0928 277.031C83.0928 277.85 92.2564 278.515 103.56 278.515Z" fill="#F5F5F5"/>
</g>
<path d="M116.029 274.934C112.408 273.879 108.389 272.525 105.96 271.11L105.746 271.011V254.589H113.073C113.629 254.556 114.151 254.311 114.533 253.905C114.916 253.499 115.128 252.963 115.128 252.405C115.128 251.847 114.916 251.31 114.533 250.905C114.151 250.499 113.629 250.254 113.073 250.221H105.784V175.394H101.383V250.221H94.1024C93.8051 250.204 93.5073 250.247 93.2274 250.349C92.9475 250.451 92.6913 250.609 92.4745 250.813C92.2578 251.018 92.0851 251.264 91.9671 251.538C91.8491 251.812 91.7882 252.107 91.7882 252.405C91.7882 252.703 91.8491 252.998 91.9671 253.272C92.0851 253.546 92.2578 253.792 92.4745 253.997C92.6913 254.201 92.9475 254.359 93.2274 254.461C93.5073 254.563 93.8051 254.606 94.1024 254.589H101.383V270.98L101.177 271.079C98.7093 272.525 94.7212 273.879 91.0999 274.904C90.8552 274.978 90.6452 275.137 90.5077 275.353C90.3703 275.568 90.3145 275.826 90.3505 276.08C90.3865 276.333 90.5119 276.565 90.7041 276.734C90.8962 276.902 91.1423 276.997 91.3978 277H115.731C115.972 276.979 116.199 276.878 116.375 276.712C116.551 276.546 116.666 276.325 116.7 276.086C116.735 275.846 116.687 275.602 116.565 275.393C116.444 275.184 116.255 275.022 116.029 274.934Z" fill="#E0E0E0"/>
<path d="M117.152 167.783H89.9839C87.7982 167.783 86.0264 169.557 86.0264 171.745V179.83C86.0264 182.018 87.7982 183.792 89.9839 183.792H117.152C119.337 183.792 121.109 182.018 121.109 179.83V171.745C121.109 169.557 119.337 167.783 117.152 167.783Z" fill="#407BFF"/>
<path d="M89.7314 183.792V185.184C89.7314 186.331 90.9768 187.272 92.5048 187.272H114.661C116.189 187.272 117.434 186.331 117.434 185.184V183.792H89.7314Z" fill="#407BFF"/>
<path opacity="0.3" d="M89.7314 183.792V185.184C89.7314 186.331 90.9768 187.272 92.5048 187.272H114.661C116.189 187.272 117.434 186.331 117.434 185.184V183.792H89.7314Z" fill="white"/>
</g>
<defs>
<clipPath id="clip0">
<rect width="382" height="285" fill="white"/>
</clipPath>
</defs>
</svg>
