<svg width="482" height="179" viewBox="0 0 482 179" fill="none" xmlns="http://www.w3.org/2000/svg">
<path d="M405.202 148.019C440.745 138.182 466.191 117.795 475.696 99.0196C492.694 65.3815 474.798 28.7237 428.272 23.1174C381.745 17.511 370.125 41.6627 288.704 26.137C246.453 18.081 199.302 1.80445 151.127 7.00526C88.8302 13.7406 114.743 42.7533 96.3231 63.6552C77.1759 85.3901 -20.4132 89.6648 3.85046 120.793C18.3018 139.349 69.0918 148.611 107.068 148.611C160.746 148.611 192.059 132.658 254.685 138.264C283.917 140.878 308.522 148.797 336.845 152.469C362.121 155.741 385.247 153.543 405.202 148.019Z" fill="url(#paint0_linear)"/>
<path d="M372.105 73.0089C372.105 73.0089 368.1 77.0561 366.016 78.0349C363.931 79.0137 359.91 82.357 359.91 82.357L361.3 88.0814C361.3 88.0814 367.821 85.1504 370.053 85.1504C372.285 85.1504 374.495 83.5008 374.495 83.5008C374.495 83.5008 374.03 72.8714 372.105 73.0089Z" fill="#00B94E"/>
<path d="M386.144 175.332C400.976 175.332 413 172.659 413 169.36C413 166.062 400.976 163.389 386.144 163.389C371.311 163.389 359.287 166.062 359.287 169.36C359.287 172.659 371.311 175.332 386.144 175.332Z" fill="#BFC4C4"/>
<path d="M346.437 171.241C352.809 171.241 357.975 170.094 357.975 168.679C357.975 167.263 352.809 166.116 346.437 166.116C340.064 166.116 334.898 167.263 334.898 168.679C334.898 170.094 340.064 171.241 346.437 171.241Z" fill="#BFC4C4"/>
<path d="M385.613 47.7635C387.148 47.1023 388.877 47.059 390.443 47.6425C393.272 48.5938 394.218 50.6064 394.333 52.9764C394.359 54.74 394.891 56.4585 395.865 57.9254C396.691 59.2287 396.806 60.18 396.806 64.2052C396.806 68.2304 394.689 69.5391 394.924 70.8368C395.159 72.1346 399.52 73.8007 400.225 77.1166C400.931 80.4324 398.343 81.3837 397.988 83.2753C397.632 85.167 398.814 86.5747 398.223 88.7247C397.632 90.8748 395.63 93.5803 391.269 93.8222C386.909 94.0642 382.904 86.3547 379.6 82.566C376.296 78.7772 373.708 74.983 374.178 71.4307C374.649 67.8784 377.248 67.642 377.248 65.0355C377.248 62.429 374.512 60.4164 375.606 57.5735C376.701 54.7306 377.609 54.967 378.2 52.1241C378.79 49.2812 381.132 47.8789 385.613 47.7635Z" fill="#B57053"/>
<path d="M370.557 100.745C370.557 100.745 366.875 124.308 367.428 131.539C367.98 138.77 375.951 164.17 375.951 164.17C375.951 164.17 370.688 167.32 370.562 168.569C370.344 170.73 378.84 166.798 379.119 165.132C379.398 163.466 375.793 140.013 376.575 133.293C376.827 131.154 377.806 126.046 378.079 124.099C378.353 122.152 380.224 113.701 380.224 113.701C380.224 113.701 384.568 132.452 386.242 136.065C387.916 139.677 393.004 149.097 397.9 157.609C398.997 159.616 399.93 161.709 400.69 163.867C400.69 163.867 400.379 171.637 401.522 172.115C403.453 172.902 403.738 164.89 403.738 164.054C403.738 163.218 401.828 159.006 399.908 149.828C397.988 140.651 394.793 136.257 394.514 133.2C394.235 130.142 393.846 107.239 392.161 102.147C390.476 97.0555 372.505 96.4066 370.557 100.745Z" fill="#DA5955"/>
<path d="M379.119 165.137V165.11C378.003 165.058 376.915 164.733 375.952 164.164C375.952 164.164 370.689 167.315 370.563 168.563C370.344 170.735 378.84 166.804 379.119 165.137Z" fill="#393762"/>
<path d="M400.691 163.867C400.691 163.867 400.379 171.637 401.523 172.115C403.454 172.902 403.738 164.89 403.738 164.054C401.419 165.451 400.691 163.867 400.691 163.867Z" fill="#393762"/>
<path d="M392.085 101.73C390.99 95.8403 390.29 94.878 390.29 94.1576C390.29 93.4373 392.588 82.7474 392.588 82.7474C392.588 82.7474 397.588 81.2022 394.864 73.9492C394.103 71.9421 387.205 69.9845 385.29 69.6216C383.375 69.2587 378.593 69.8635 378.593 69.8635C378.593 69.8635 372.849 72.0246 372.132 72.9869C371.416 73.9492 372.132 77.5565 372.132 79.1182C372.132 80.6799 372.373 80.6854 372.132 81.2847C371.892 81.8841 370.699 82.9674 370.819 85.3759C370.94 87.7844 372.253 90.061 372.373 91.6281C372.46 92.7939 371.547 96.1097 370.584 100.723C372.329 101.823 375.349 103.082 380.027 103.291C384.109 103.415 388.191 103.014 392.172 102.098C392.123 101.994 392.106 101.867 392.085 101.73Z" fill="#E69D35"/>
<path d="M381.319 62.7315C381.319 62.7315 381.674 63.8312 380.482 67.0591C379.289 70.2869 379.524 75.9618 380.958 75.4779C382.391 74.994 385.148 69.5886 385.504 67.1801C385.859 64.7716 386.221 61.7692 386.221 61.7692L381.319 62.7315Z" fill="#F2957E"/>
<path d="M391.38 58.1563C391.38 58.1563 391.21 58.4588 390.679 54.0432C390.088 49.0942 386.811 49.2701 382.785 49.0942C380.427 48.9732 380.345 51.0958 379.721 53.4933C379.097 55.8908 378.545 58.5853 378.545 58.5853C378.089 59.4368 377.808 60.3718 377.719 61.3347C377.901 63.3545 378.457 65.3222 379.36 67.136C379.716 67.7299 380.306 68.2028 381.718 68.2028C386.549 67.3725 389.377 62.5994 389.377 62.5994C389.377 62.5994 390.745 63.6992 392.113 61.7251C393.48 59.751 393.497 57.5295 391.38 58.1563Z" fill="#F6BA99"/>
<path d="M380.869 63.7213L381.46 64.0237" stroke="#333333" stroke-width="0.5" stroke-miterlimit="10" stroke-linecap="round"/>
<path d="M382.905 51.9096C382.905 51.9096 381.132 50.8428 380.17 52.0251C379.207 53.2073 379.343 55.4619 378.993 56.1712C378.643 56.8806 377.576 58.4258 377.576 58.4258C377.576 58.4258 378.282 56.0557 377.697 54.1586C377.111 52.2615 376.635 49.3031 378.523 47.7634C380.41 46.2237 384.65 47.0541 386.062 48.2363C387.473 49.4186 382.905 51.9096 382.905 51.9096Z" fill="#B57053"/>
<path d="M382.904 51.9096C382.904 51.9096 384.671 51.7886 385.492 54.3951C386.313 57.0016 387.5 60.6748 389.267 61.9781C391.034 63.2813 391.149 63.6278 390.328 65.7668C389.508 67.9059 388.687 68.7307 389.147 70.3859C389.606 72.0411 393.523 72.5195 393.523 72.5195C393.523 72.5195 391.882 70.2704 392.582 68.7307C393.283 67.191 395.646 64.1117 395.055 61.5052C394.464 58.8987 391.991 58.4258 392.227 56.6442C392.462 54.8625 394.234 52.245 393.053 50.1335C391.871 48.0219 389.163 48.5938 387.866 47.9999C386.57 47.406 383.49 47.0541 382.904 51.9096Z" fill="#B57053"/>
<path d="M382.905 51.9096C382.905 51.9096 382.55 54.868 383.961 56.5287C384.355 57.0009 384.866 57.3592 385.443 57.567C386.02 57.7748 386.641 57.8245 387.244 57.711C387.244 57.711 384.295 57.0016 384.415 54.1587C384.535 51.3157 383.469 50.249 383.469 50.249L382.905 51.9096Z" fill="#B57053"/>
<path d="M382.194 51.7886C382.194 51.7886 381.488 51.4367 380.662 52.7399C379.836 54.0432 379.721 55.1045 379.131 55.8193C378.54 56.5342 377.008 56.6442 377.008 56.6442C377.008 56.6442 378.425 56.1712 378.78 54.0432C379.136 51.9151 380.192 50.7438 381.609 50.7438" fill="#B57053"/>
<path d="M377.128 50.8428C377.128 50.8428 378.19 53.2129 377.249 54.2796C376.63 54.9293 375.785 55.3119 374.891 55.3464C375.4 56.0406 376.16 56.5065 377.008 56.6442C378.304 56.7651 379.743 53.8012 379.743 53.8012" fill="#B57053"/>
<path d="M382.15 59.85C382.15 59.85 382.15 61.0213 381.329 61.1423C380.508 61.2633 381.679 62.1981 381.679 62.1981" stroke="#333333" stroke-width="0.5" stroke-miterlimit="10"/>
<path d="M385.246 60.4879C385.142 61.0048 384.902 61.3897 384.699 61.3512C384.497 61.3127 384.442 60.8618 384.551 60.3449C384.661 59.828 384.902 59.4376 385.099 59.4816C385.295 59.5256 385.356 59.993 385.246 60.4879Z" fill="#333333"/>
<path d="M381.04 59.2011C380.936 59.718 380.69 60.103 380.493 60.0645C380.296 60.026 380.236 59.5751 380.345 59.0582C380.455 58.5413 380.695 58.1509 380.892 58.1948C381.089 58.2388 381.149 58.6843 381.04 59.2011Z" fill="#333333"/>
<path d="M379.875 57.1335C379.875 57.1335 380.925 56.0338 381.79 57.26" stroke="#333333" stroke-width="0.75" stroke-miterlimit="10" stroke-linecap="round"/>
<path d="M384.508 58.1893C384.654 58.1054 384.818 58.0566 384.987 58.0469C385.155 58.0371 385.324 58.0667 385.479 58.1333C385.634 58.1998 385.772 58.3016 385.882 58.4305C385.991 58.5595 386.07 58.7122 386.111 58.8767" stroke="#333333" stroke-width="0.75" stroke-miterlimit="10" stroke-linecap="round"/>
<path d="M354.583 67.4385C354.583 67.4385 353.391 76.3632 353.921 81.0263C354.452 85.6893 357.636 87.427 359.228 86.2282C360.82 85.0295 360.683 78.6288 359.89 74.6311C359.097 70.6334 358.429 67.8344 357.767 66.6357C357.105 65.4369 355.114 64.7715 354.583 67.4385Z" fill="#F6BA99"/>
<path d="M345.801 66.3772C345.801 66.3772 349.018 68.1039 350.872 68.3678C352.727 68.6317 356.573 67.301 356.573 67.301C355.577 66.6675 354.435 66.302 353.258 66.2397C351.534 66.2397 347.557 65.4369 346.764 65.4369C345.97 65.4369 345.801 66.3772 345.801 66.3772Z" fill="#F6BA99"/>
<path d="M336.347 107.674V104.226C336.347 86.4921 358.69 85.7278 358.69 73.0913C358.69 67.5925 354.248 64.0347 347.644 64.0347C340.406 64.0347 335.838 67.9884 335.838 73.6027V75.005C335.838 76.4127 335.078 77.0506 333.683 77.0506L320.098 76.5392C318.829 76.5392 317.938 75.9013 317.938 75.005V73.6027C317.938 58.1619 330.127 47.5765 348.027 47.5765C365.534 47.5765 376.842 57.524 376.842 72.4535C376.842 93.6352 354.122 93.7617 354.122 105.375V107.674C354.122 109.076 353.356 109.84 351.961 109.84H338.503C337.107 109.84 336.347 109.076 336.347 107.674ZM335.204 128.212C335.204 122.603 340.155 118.006 346.145 118.006C351.857 118.006 356.934 122.603 356.934 128.212C356.934 133.821 351.857 138.424 345.992 138.424C340.029 138.424 335.204 133.832 335.204 128.212Z" fill="#82819C"/>
<path d="M336.347 109.351V105.903C336.347 88.1693 358.669 87.4325 358.669 74.785C358.669 69.2861 354.226 65.7283 347.623 65.7283C340.385 65.7283 335.817 69.6821 335.817 75.2964V76.6986C335.817 78.1064 335.056 78.7442 333.661 78.7442L320.077 78.2328C318.808 78.2328 317.916 77.595 317.916 76.6986V75.2799C317.916 59.839 330.105 49.2537 348.006 49.2537C365.513 49.2537 376.821 59.2012 376.821 74.1307C376.821 95.3124 354.1 95.4389 354.1 107.053V109.351C354.1 110.753 353.334 111.518 351.939 111.518H338.481C337.108 111.518 336.347 110.753 336.347 109.351ZM335.204 129.889C335.204 124.281 340.155 119.683 346.146 119.683C351.857 119.683 356.934 124.281 356.934 129.889C356.934 135.498 351.857 140.101 345.993 140.101C340.029 140.101 335.204 135.509 335.204 129.889Z" fill="#393762"/>
<path d="M395.028 75.2854C395.028 75.2854 394 72.9154 390.903 74.1032C387.807 75.2909 383.835 83.5833 380.005 85.2329C376.176 86.8826 367.335 90.8583 364.977 92.4915C362.619 94.1246 352.011 97.523 352.011 97.523L349.368 96.4672C349.368 96.4672 347.021 95.6258 346.934 96.1152C346.846 96.6046 347.776 97.3085 348.794 97.7154L347.153 97.9079C346.414 97.9904 345.67 97.9519 344.931 98.0508C344.604 98.0487 344.283 98.1423 344.007 98.3203C343.744 98.5842 343.744 99.0516 344.187 99.0516C344.926 99.0516 347.021 99.2716 347.021 99.2716L344.286 99.8215C344.143 99.8717 344.025 99.975 343.956 100.11C343.887 100.245 343.872 100.401 343.914 100.547C343.954 100.686 344.043 100.805 344.163 100.884C344.284 100.962 344.428 100.995 344.57 100.976C344.57 100.976 350.249 99.662 345.665 101.268C345.068 101.477 344.57 101.631 344.74 102.246C344.992 103.187 347.919 101.834 348.57 101.669C348.094 101.884 347.623 102.115 347.158 102.356C346.945 102.466 346.316 102.67 346.234 102.906C346.091 103.302 346.693 103.638 347.027 103.544C347.272 103.442 347.508 103.319 347.733 103.176L349.921 102.032C351.267 101.328 352.616 100.628 353.969 99.9315C357.69 99.0296 367.187 96.7751 370.71 96.3022C375.131 95.7083 381.909 93.0414 384.267 92.0076C386.625 90.9738 392.517 84.6005 394.432 81.4937C394.989 80.5704 395.332 79.5328 395.435 78.458C395.538 77.3832 395.399 76.2988 395.028 75.2854Z" fill="#F6BA99"/>
<path d="M394.438 81.5102C394.996 80.5844 395.34 79.5437 395.442 78.4658C395.544 77.3879 395.403 76.3007 395.029 75.2854C395.029 75.2854 394 72.9154 390.904 74.1032C387.807 75.2909 383.835 83.5833 380.006 85.2329C377.057 86.4867 371.159 89.1371 367.516 91.0343L369.288 96.5716C369.835 96.4727 370.322 96.3957 370.722 96.3407C375.142 95.7468 381.92 93.0799 384.278 92.0461C386.636 91.0123 392.523 84.6171 394.438 81.5102Z" fill="#E9A94D"/>
<path d="M346.71 64.1832C346.71 64.1832 345.123 66.1738 345.802 66.3827C346.48 66.5917 347.273 64.6891 347.388 64.2876C347.503 63.8862 347.18 63.8862 346.71 64.1832Z" fill="#F6BA99"/>
<path d="M347.958 63.7047C347.958 63.7047 346.103 66.3717 346.897 66.6356C347.69 66.8996 348.62 64.3701 348.751 63.8367C348.882 63.3033 348.489 63.3033 347.958 63.7047Z" fill="#F6BA99"/>
<path d="M349.018 63.8367C349.018 63.8367 347.158 66.5037 347.957 66.7676C348.756 67.0316 349.68 64.5076 349.812 63.9742C349.943 63.4408 349.549 63.4408 349.018 63.8367Z" fill="#F6BA99"/>
<path d="M350.079 64.3701C350.079 64.3701 348.219 67.0371 349.018 67.301C349.816 67.565 350.741 65.0355 350.872 64.5076C351.004 63.9797 350.604 63.9742 350.079 64.3701Z" fill="#F6BA99"/>
<path d="M119.905 176.559C126.278 176.559 131.443 175.411 131.443 173.996C131.443 172.581 126.278 171.434 119.905 171.434C113.533 171.434 108.367 172.581 108.367 173.996C108.367 175.411 113.533 176.559 119.905 176.559Z" fill="#BFC4C4"/>
<path d="M99.7403 49.5781C98.4755 49.0637 97.1194 48.8145 95.7553 48.8457C94.3912 48.8769 93.0478 49.1879 91.8076 49.7596C87.5731 51.7117 85.2808 56.5012 86.8838 58.9812C88.4868 61.4612 89.001 63.9302 86.8838 65.03C84.7666 66.1298 79.8264 66.2727 77.8842 69.979C75.9421 73.6853 80.7072 78.6728 80.7072 80.8008C80.7072 82.9289 77.8842 82.7529 76.6478 87.1905C75.4114 91.6281 77.3535 96.4122 86.1781 96.9456C95.0026 97.479 98.0061 90.028 98.8869 86.2997C99.7677 82.5715 97.6505 76.9021 99.434 75.3019C101.217 73.7018 104.019 71.7551 104.199 68.2084C104.38 64.6616 101.901 58.6293 101.726 55.4344C101.551 52.2396 101.551 50.9968 101.551 50.9968L100.49 49.9355L99.7403 49.5781Z" fill="#393762"/>
<path d="M106.294 73.1959C106.294 73.1959 107.147 72.525 108.345 74.6201C109.543 76.7152 112.361 84.4301 114.237 86.9211C116.114 89.4121 118.499 92.6839 118.499 92.6839C118.499 92.6839 115.911 93.6737 114.604 95.2519C113.296 96.8301 113.143 97.556 113.143 97.556C111.166 95.2452 109.51 92.6758 108.219 89.918C106.42 85.4667 105.117 80.8284 104.335 76.0883C103.969 73.2234 105.911 72.8494 105.911 72.8494L106.294 73.1959Z" fill="#68ADDB"/>
<path d="M93.8096 175.195C109.721 175.195 122.619 172.703 122.619 169.63C122.619 166.557 109.721 164.065 93.8096 164.065C77.8985 164.065 65 166.557 65 169.63C65 172.703 77.8985 175.195 93.8096 175.195Z" fill="#BFC4C4"/>
<path d="M85.4545 126.26C85.4545 126.26 86.1165 130.659 85.7828 131.209C85.4491 131.759 81.2529 138.215 79.7101 142.526C78.1673 146.837 74.573 159.386 73.911 162.151C73.249 164.917 71.4929 167.232 71.936 168.448C72.3792 169.663 78.5284 173.749 79.4092 173.639C80.29 173.529 79.8469 172.313 79.081 170.339C78.3151 168.365 76.0009 165.814 76.2197 164.043C76.4385 162.272 84.0266 148.47 86.6636 144.709C89.3006 140.948 90.712 137.307 92.0469 134.212C93.0424 131.623 93.8505 128.966 94.4651 126.26H85.4545Z" fill="#F6BA99"/>
<path d="M76.9426 166.501L74.7926 167.463L72.9872 164.802C72.3143 166.375 71.6468 167.656 71.9368 168.459C72.3745 169.674 78.5292 173.76 79.41 173.65C80.2908 173.54 79.8477 172.324 79.0818 170.35C78.6222 169.157 77.632 167.793 76.9426 166.501Z" fill="#393762"/>
<path d="M101.721 127.365C102.166 129.251 102.381 131.185 102.361 133.123C102.361 136.549 104.686 146.584 104.795 151.335C104.905 156.086 106.004 161.387 105.676 163.378C105.348 165.368 105.457 166.127 105.786 166.248C106.114 166.369 116.229 166.798 116.886 166.248C117.542 165.698 118.204 165.918 117.657 165.148C117.11 164.379 109.084 160.749 109.084 159.847C109.084 158.946 109.084 145.484 109.303 140.051C109.522 134.619 110.075 129.224 109.632 126.794C109.188 124.363 101.721 127.365 101.721 127.365Z" fill="#F6BA99"/>
<path d="M95.4559 71.6892C95.4559 71.6892 88.0922 73.0144 87.9773 73.6853C87.8624 74.3561 89.5146 85.7278 90.6142 88.5983C91.7139 91.4687 91.6045 91.4742 91.0519 94.2346C90.4993 96.9951 87.2223 101.081 85.778 108.708C84.3337 116.335 84.1367 126.931 84.1367 127.404C84.1367 127.877 88.973 130.153 97.6552 129.604C106.338 129.054 110.184 127.508 110.621 126.733C111.059 125.958 108.094 104.419 107.213 100.773C106.332 97.127 105.347 92.233 106.031 90.4679C106.715 88.7027 108.012 87.1686 108.121 84.7215C108.23 82.2745 106.255 78.7552 106.365 77.1001C106.474 75.4449 107.793 74.7795 107.021 73.3443C106.25 71.9091 102.645 71.1448 100.538 71.1448C98.8332 71.1996 97.1344 71.3815 95.4559 71.6892Z" fill="#7EB9F5"/>
<path d="M98.4212 69.3686C98.4212 69.3686 95.3466 69.6985 94.5916 70.9138C93.8366 72.129 94.5916 77.7654 95.1387 78.9807C95.6858 80.1959 98.5306 76.4347 99.6303 76.4347C100.73 76.4347 102.601 78.7497 103.257 77.8699C103.914 76.9901 103.81 70.9358 98.4212 69.3686Z" fill="white"/>
<path d="M107.765 57.436C107.765 57.436 108.313 52.9104 104.483 50.6998C100.653 48.4893 96.6815 49.6001 94.0445 52.465C91.4075 55.3299 92.726 61.8571 93.6014 63.5123C94.4767 65.1674 96.7909 65.6128 97.338 66.7181C97.8851 67.8234 97.5623 69.1486 97.0097 70.8038C96.4572 72.459 98.7549 76.4347 99.6303 76.4347C100.506 76.4347 100.511 73.1353 101.058 71.2382C101.605 69.3411 102.152 67.7079 102.152 67.7079C102.152 67.7079 105.232 69.1431 106.332 67.5924C107.432 66.0418 108.307 62.6434 108.307 62.6434C108.307 62.6434 109.401 61.9836 109.516 61.0982C109.631 60.2129 107.547 57.9914 107.765 57.436Z" fill="#F6BA99"/>
<path d="M107.086 58.6348C107.086 59.2122 106.895 59.6851 106.66 59.6851C106.424 59.6851 106.238 59.2122 106.238 58.6348C106.238 58.0574 106.424 57.579 106.66 57.579C106.895 57.579 107.086 58.0519 107.086 58.6348Z" fill="#393762"/>
<path d="M107.126 64.0677C106.995 64.6176 106.705 65.0465 106.475 64.9915C106.246 64.9365 106.169 64.4416 106.3 63.8917C106.432 63.3418 106.722 62.9129 106.951 62.9679C107.181 63.0229 107.247 63.5013 107.126 64.0677Z" fill="#393762"/>
<path d="M105.484 56.8421C105.484 56.8421 105.599 55.9293 106.223 55.7424C106.847 55.5554 107.241 56.2922 107.241 56.2922" stroke="#393762" stroke-width="0.5" stroke-miterlimit="10" stroke-linecap="round"/>
<path d="M104.467 50.6998C100.637 48.5003 96.1949 49.7375 93.558 52.6079C93.4273 52.7554 93.3067 52.9116 93.1969 53.0753C90.828 58.0244 92.2668 60.7408 92.2668 60.7408C92.4376 61.7648 92.8096 62.7443 93.361 63.6222C94.0394 64.9035 95.812 65.3489 96.7256 66.0417C97.6557 65.4039 97.6939 64.3536 98.3286 63.0723C98.8399 61.9333 99.4285 60.8309 100.09 59.773C100.637 59.0032 98.3286 57.7879 100.856 54.582C102.574 52.3825 105.052 52.322 106.464 52.487C105.934 51.754 105.253 51.1444 104.467 50.6998Z" fill="#393762"/>
<path d="M100.725 49.6386C100.725 49.6386 95.4945 52.509 97.0045 60.0865C97.0045 60.0865 93.5961 54.6756 98.033 49.974C98.033 49.9575 99.7728 49.1657 100.725 49.6386Z" fill="#005D8E"/>
<path d="M99.63 61.4172C99.63 61.4172 97.9887 58.6678 96.4459 60.5319C94.9031 62.396 97.1024 64.1777 97.655 64.3811C98.2075 64.5846 100.183 63.7158 100.183 63.7158" fill="#F6BA99"/>
<path d="M105.939 94.2016C103.708 95.0703 101.36 95.5985 98.9741 95.7688C94.7451 96.1867 92.2668 95.2189 91.014 94.4106C90.3575 97.16 87.1844 101.24 85.7838 108.708C84.3559 116.329 84.1426 126.931 84.1426 127.404C84.1426 127.877 88.9788 130.153 97.6611 129.603C106.343 129.054 110.189 127.508 110.627 126.733C111.065 125.958 108.1 104.419 107.219 100.773C106.675 98.607 106.248 96.4135 105.939 94.2016Z" fill="#B57053"/>
<path d="M119.582 92.068C119.582 92.068 118.22 90.2479 116.464 90.9133C114.708 91.5786 112.033 95.4388 112.487 97.259C112.941 99.0791 113.898 99.2991 115.124 99.2166C116.349 99.1341 120.108 96.0327 120.485 94.3501C120.62 93.9234 120.604 93.4628 120.44 93.0467C120.275 92.6306 119.972 92.2847 119.582 92.068Z" fill="white"/>
<path d="M127.368 103.165C127.368 103.165 121.142 96.4672 120.256 95.3509C119.37 94.2346 118.287 93.7012 116.727 94.5535C115.168 95.4059 114.539 97.5999 115.699 98.9032C116.859 100.206 126.197 105.199 126.197 105.199C126.197 105.199 126.531 106.943 127.795 107.344C128.79 107.581 129.821 107.62 130.831 107.459C130.831 107.459 133.61 105.953 133.424 105.309C133.238 104.666 133.085 103.841 133.085 103.841L127.855 103.335L127.368 103.165Z" fill="#F6BA99"/>
<path d="M110.884 161.261L109.965 164.038L105.588 163.768C105.342 165.456 105.452 166.144 105.758 166.248C106.064 166.353 116.202 166.798 116.858 166.248C117.515 165.698 118.177 165.918 117.63 165.148C117.274 164.604 113.286 162.679 110.884 161.261Z" fill="#393762"/>
<path d="M111.032 79.2996L110.157 75.9673C105.66 58.8382 127.073 52.355 123.872 40.142C122.483 34.8356 117.307 32.515 110.895 34.2087C103.898 36.0618 100.501 41.0548 101.907 46.4822L102.262 47.8404C102.618 49.1987 102.044 50.04 100.692 50.3699L87.4309 53.3393C86.2054 53.6638 85.1824 53.2788 84.9581 52.41L84.6025 51.0573C80.6853 36.1388 89.7834 22.7765 107.093 18.1904C124.053 13.7088 137.484 20.4394 141.264 34.874C146.637 55.3574 124.693 61.2962 127.636 72.525L128.216 74.7245C128.572 76.0827 128.03 77.0176 126.679 77.375L113.691 80.8338C112.318 81.2022 111.388 80.6578 111.032 79.2996ZM115.13 99.453C113.707 94.0256 117.318 88.3178 123.101 86.8056C128.627 85.3429 134.699 88.4882 136.127 93.9157C137.555 99.3431 133.802 105.084 128.156 106.563C122.384 108.092 116.558 104.886 115.13 99.453Z" fill="#EEB3B1"/>
<path d="M111.032 80.3444L110.157 77.0176C105.66 59.8665 127.073 53.4053 123.872 41.1868C122.483 35.8804 117.307 33.5653 110.895 35.2535C103.898 37.1066 100.501 42.1051 101.907 47.5325L102.262 48.8908C102.618 50.249 102.044 51.0573 100.692 51.4147L87.4309 54.4006C86.2054 54.7251 85.1824 54.3347 84.9581 53.4713L84.6025 52.1131C80.6853 37.1836 89.7834 23.8213 107.093 19.2462C124.053 14.7591 137.484 21.4898 141.264 35.9299C146.637 56.4132 124.693 62.352 127.636 73.5808L128.216 75.7803C128.572 77.1386 128.03 78.0734 126.679 78.4308L113.691 81.8896C112.318 82.247 111.388 81.7027 111.032 80.3444ZM115.13 100.503C113.707 95.076 117.318 89.3626 123.101 87.8559C128.627 86.3932 134.699 89.5056 136.127 94.9605C137.555 100.415 133.802 106.134 128.156 107.608C122.384 109.142 116.558 105.936 115.13 100.503Z" fill="#DA5955"/>
<path d="M118.483 103.044C118.483 103.044 121.503 102.631 122.367 102.631C123.232 102.631 127.324 103.445 126.033 104.067C124.742 104.688 122.799 104.067 122.799 104.067C123.657 104.448 124.409 105.035 124.988 105.777C125.841 106.937 127.794 107.707 127.794 107.707C127.794 107.707 123.68 108.994 121.525 108.807C119.369 108.62 116.344 104.699 116.344 104.699L118.483 103.044Z" fill="#F6BA99"/>
<path d="M87.9785 73.6853C87.9785 73.6853 86.0582 75.1755 87.9785 80.7403C89.8987 86.3052 92.2293 92.2605 94.6748 94.8505C97.1203 97.4405 102.805 100.663 102.805 100.663C102.805 100.663 102.416 96.1318 102.805 95.3564C103.065 94.8606 103.418 94.42 103.844 94.0587L103.587 93.1568C101.774 91.3644 100.175 89.3658 98.8217 87.2015C96.8905 83.9627 94.0566 78.7882 92.9022 76.2038C91.7479 73.6193 89.9042 72.7065 87.9785 73.6853Z" fill="#7EB9F5"/>
<path d="M107.569 97.039C107.569 97.039 107.569 95.0979 106.409 94.1906C105.249 93.2833 103.706 92.376 102.547 92.7664C101.387 93.1568 99.7127 96.6486 99.9698 98.3313C100.227 100.014 102.672 101.565 103.832 101.565C104.992 101.565 107.569 97.039 107.569 97.039Z" fill="white"/>
<path d="M118.483 103.044C118.483 103.044 111.689 98.8482 108.729 97.1655C105.769 95.4829 104.735 94.1906 103.061 96.2582C101.387 98.3258 102.033 99.4971 104.861 101.048C106.787 102.104 116.35 104.688 116.35 104.688L118.483 103.044Z" fill="#F6BA99"/>
<path d="M237.306 179C253.565 179 266.745 176.326 266.745 173.028C266.745 169.73 253.565 167.056 237.306 167.056C221.047 167.056 207.867 169.73 207.867 173.028C207.867 176.326 221.047 179 237.306 179Z" fill="#BFC4C4"/>
<path d="M215.86 105.298L216.407 111.897L213.398 141.316L218.596 167.436C218.596 167.436 213.398 173.21 214.493 174.584C215.587 175.959 221.878 167.986 221.878 167.986L221.058 142.141L229.811 117.946L241.847 141.591L253.336 167.161C253.336 167.161 254.977 172.935 257.712 173.21C260.448 173.485 255.524 166.061 255.524 166.061L248.959 139.117L238.291 100.624C238.291 100.624 224.614 106.398 215.86 105.298Z" fill="#393762"/>
<path d="M238.292 100.63C238.292 100.63 224.615 106.404 215.861 105.304L215.993 106.86C218.247 107.894 224.062 110.242 228.171 109.153C232 108.147 236.667 104.633 238.899 102.824L238.292 100.63Z" fill="#1D1D1D"/>
<path d="M225.129 107.635L225.736 109.637L229.276 109.027L228.844 107.119L225.129 107.635Z" fill="#BFBFC0"/>
<path d="M234.545 106.855L233.855 103.99L234.457 103.555L235.584 106.596" fill="#393762"/>
<path d="M218.307 108.158L217.957 105.639L218.909 105.815L219.254 108.592" fill="#393762"/>
<path d="M233.094 64.0567L246.902 71.1173C247.129 71.233 247.378 71.3003 247.632 71.3149C247.886 71.3296 248.141 71.2914 248.38 71.2026C248.618 71.1138 248.836 70.9763 249.02 70.7989C249.204 70.6215 249.349 70.4079 249.446 70.1714L256.071 53.8892L259.901 54.989L253.61 76.9846C253.494 77.4956 253.273 77.9767 252.962 78.3973C252.651 78.8179 252.256 79.1687 251.803 79.4274C251.349 79.6861 250.847 79.8469 250.328 79.8997C249.81 79.9525 249.286 79.8961 248.79 79.734L234.735 76.4347L233.094 64.0567Z" fill="#F6BA99"/>
<path d="M247.269 71.2602C247.142 71.2246 247.019 71.1767 246.902 71.1172L233.094 64.0566L234.735 76.4292L245.803 79.0136L247.269 71.2602Z" fill="#B57053"/>
<path d="M216.955 65.4369L206.561 71.4856L215.861 105.304C215.861 105.304 222.426 108.603 227.897 107.503C233.368 106.404 238.292 100.63 238.292 100.63L233.094 64.0621L220.238 64.612L216.955 65.4369Z" fill="#B57053"/>
<path d="M212.496 56.5727C212.496 56.5727 210.116 53.9992 209.76 55.8413C209.405 57.6834 211.949 59.1407 212.873 59.3331C213.798 59.5256 212.496 56.5727 212.496 56.5727Z" fill="#F6BA99"/>
<path d="M223.395 55.8248C223.395 55.8248 223.881 52.344 225.227 53.6253C226.573 54.9065 225.309 57.6065 224.68 58.2829C224.051 58.9592 223.395 55.8248 223.395 55.8248Z" fill="#F6BA99"/>
<path d="M215.023 61.8626L216.161 68.1863L218.021 69.605C218.452 69.9385 218.948 70.1761 219.477 70.302C220.006 70.4279 220.555 70.4392 221.089 70.3352C221.622 70.2311 222.128 70.0142 222.571 69.6986C223.015 69.3831 223.387 68.9763 223.662 68.5053L224.581 66.9271L223.093 60.5978L215.023 61.8626Z" fill="#F2957E"/>
<path d="M216.895 45.7179C216.895 45.7179 214.274 45.168 212.184 48.4673C210.51 51.1123 212.474 58.7613 213.322 61.7087C213.429 62.0756 213.613 62.4157 213.86 62.7066C214.107 62.9975 214.412 63.2327 214.756 63.3968L218.361 65.129C218.962 65.4187 219.648 65.4745 220.288 65.2857C220.927 65.0968 221.474 64.6766 221.824 64.1062L223.875 60.7738C224.235 60.1975 224.364 59.5061 224.237 58.8382L222.53 49.8365C222.335 48.7753 221.808 47.8041 221.027 47.0636C220.246 46.3231 219.251 45.8517 218.186 45.7179C217.757 45.6683 217.324 45.6683 216.895 45.7179Z" fill="#F6BA99"/>
<path d="M219.357 60.301C219.461 60.7464 219.357 61.1588 219.105 61.2193C218.854 61.2798 218.558 60.9608 218.471 60.5154C218.383 60.07 218.471 59.6576 218.717 59.5971C218.963 59.5366 219.247 59.8555 219.357 60.301Z" fill="#393762"/>
<path d="M212.496 56.5727C212.617 56.5518 212.733 56.5064 212.836 56.439C212.94 56.3717 213.029 56.2839 213.097 56.181C213.166 56.0781 213.213 55.9623 213.235 55.8406C213.258 55.7188 213.256 55.5938 213.229 55.4729C213.048 54.5491 212.315 53.0809 212.682 51.2388C213.048 49.3966 215.242 48.2914 215.242 48.2914C215.242 48.2914 215.609 49.0282 217.977 49.941C219.195 50.458 220.489 50.7683 221.807 50.8593C221.807 50.8593 221.807 53.2514 222.354 53.9882C222.901 54.7251 223.815 56.0118 223.995 54.7251C224.176 53.4383 223.323 49.3966 223.323 49.3966C223.323 49.3966 224.603 49.3966 223.87 47.0046C223.137 44.6126 218.563 43.5073 215.264 43.5073C211.965 43.5073 208.152 48.6598 209.246 50.6559C209.866 51.7614 210.358 52.9349 210.712 54.1532C210.712 54.1532 211.949 56.9411 212.496 56.5727Z" fill="#393762"/>
<path d="M229.282 56.6387L230.136 53.3008C234.512 36.1223 256.347 40.9558 259.47 28.7208C260.827 23.4033 257.402 18.8228 251.007 17.1731C243.999 15.364 238.594 18.0529 237.21 23.4913L236.859 24.8551C236.515 26.2133 235.617 26.6422 234.266 26.2903L221.235 22.408C220.004 22.0891 219.303 21.2533 219.522 20.3845L219.867 19.0262C223.696 4.06923 238.107 -3.14531 255.428 1.31979C272.387 5.7189 280.883 18.1574 277.196 32.614C271.96 53.1359 249.918 47.5875 247.052 58.8327L246.505 61.0323C246.16 62.3905 245.23 62.9404 243.879 62.594L230.841 59.2341C229.485 58.9042 228.938 57.9694 229.282 56.6387ZM223.1 76.2532C224.49 70.8148 230.42 67.598 236.197 69.1047C241.734 70.5289 245.498 76.2532 244.13 81.6861C242.762 87.119 236.69 90.3084 231.033 88.8347C225.25 87.317 221.716 81.6641 223.1 76.2257V76.2532Z" fill="#4DAF80"/>
<path d="M229.282 58.2883L230.136 54.9505C234.512 37.7719 256.347 42.6055 259.47 30.3704C260.827 25.053 257.402 20.4724 251.007 18.8228C243.999 17.0136 238.594 19.7026 237.21 25.141L236.859 26.5047C236.515 27.8629 235.617 28.2919 234.266 27.9399L221.235 24.0577C220.004 23.7388 219.303 22.9029 219.522 22.0341L219.867 20.6759C223.696 5.71889 238.107 -1.49566 255.428 2.96945C272.387 7.36856 280.883 19.8071 277.196 34.2637C271.96 54.7855 249.918 49.2371 247.052 60.4824L246.505 62.6819C246.16 64.0402 245.23 64.5901 243.879 64.2436L230.841 60.8838C229.485 60.5814 228.938 59.6465 229.282 58.2883ZM223.1 77.9029C224.49 72.4645 230.42 69.2476 236.197 70.7543C241.734 72.1785 245.498 77.9029 244.13 83.3358C242.762 88.7687 236.69 91.9581 231.033 90.4844C225.25 88.9942 221.716 83.3413 223.1 77.9029Z" fill="#5FCC98"/>
<path d="M259.902 54.989L264.552 50.3149L265.646 42.3416C265.646 42.3416 265.099 42.3416 263.458 43.4413C261.817 44.5411 260.175 48.6653 260.175 48.6653C260.175 48.6653 257.714 50.8648 256.893 51.6897C256.374 52.3054 256.084 53.0827 256.072 53.8892L259.902 54.989Z" fill="#F6BA99"/>
<path d="M222.426 86.0522L230.085 84.1276L234.735 84.9525L234.188 86.3272H230.359L233.915 88.8017L238.018 89.9015L236.65 91.2762L229.811 91.8261L223.793 88.8017L222.426 86.0522Z" fill="#F6BA99"/>
<path d="M206.56 71.4857L198.48 91.4466C198.343 91.7943 198.304 92.1728 198.367 92.5411C198.429 92.9095 198.59 93.2537 198.833 93.5367C199.076 93.8197 199.391 94.0307 199.744 94.1469C200.097 94.2631 200.475 94.2801 200.838 94.1961L224.056 88.8457L222.415 86.0302L208.737 86.3052L209.832 83.0058L206.56 71.4857Z" fill="#F6BA99"/>
<path d="M208.749 86.3327L209.844 83.0333L206.561 71.4857L201.369 84.3091C206.162 83.7372 208.749 86.3327 208.749 86.3327Z" fill="#B57053"/>
<path d="M215.832 56.7954C216.05 56.7577 216.171 56.4069 216.103 56.0118C216.035 55.6168 215.804 55.3271 215.587 55.3648C215.37 55.4025 215.248 55.7533 215.316 56.1483C215.384 56.5434 215.615 56.8331 215.832 56.7954Z" fill="#393762"/>
<path d="M220.221 55.2914C220.286 55.6874 220.166 56.0393 219.953 56.0778C219.739 56.1163 219.504 55.8248 219.438 55.4289C219.373 55.033 219.488 54.6811 219.706 54.6426C219.925 54.6041 220.15 54.8955 220.221 55.2914Z" fill="#393762"/>
<path d="M214.443 53.7187C214.443 53.7187 214.657 52.9214 215.959 52.9214" stroke="#393762" stroke-miterlimit="10" stroke-linecap="round"/>
<path d="M218.738 53.8013C218.738 53.8013 219.329 52.564 220.347 52.9544" stroke="#393762" stroke-miterlimit="10" stroke-linecap="round"/>
<path d="M218.132 54.3456L218.925 57.9034L217.984 58.1234" stroke="#393762" stroke-width="0.5" stroke-miterlimit="10" stroke-linecap="round"/>
<path d="M221.879 167.986C219.143 168.536 218.596 167.436 218.596 167.436C218.596 167.436 213.399 173.21 214.493 174.584C215.587 175.959 221.879 167.986 221.879 167.986Z" fill="#B57053"/>
<path d="M253.439 167.485C253.833 168.706 255.371 172.984 257.712 173.21C260.448 173.485 255.524 166.061 255.524 166.061C255.043 166.794 254.294 167.306 253.439 167.485Z" fill="#B57053"/>
<defs>
<linearGradient id="paint0_linear" x1="0" y1="6" x2="83.0572" y2="276.497" gradientUnits="userSpaceOnUse">
<stop stop-color="#C2E9FB"/>
<stop offset="1" stop-color="#A1C4FD"/>
</linearGradient>
</defs>
</svg>
