<svg xmlns="http://www.w3.org/2000/svg" viewBox="0 0 50 50">
  <path fill="#fff" d="M20.06,10.44a.28.28,0,0,1-.13,0,.35.35,0,0,1-.17-.17.31.31,0,0,1,0-.13V7.59a.34.34,0,0,1,.1-.23l.1-.07a.28.28,0,0,1,.13,0h1.61a.32.32,0,0,1,.22.1.18.18,0,0,1,.07.1.26.26,0,0,1,0,.24.23.23,0,0,1-.07.1.31.31,0,0,1-.22.09H20.41v.63h1.13a.36.36,0,0,1,.22.09.32.32,0,0,1,.09.23.5.5,0,0,1,0,.12.36.36,0,0,1-.07.1.31.31,0,0,1-.22.09H20.39v1a.27.27,0,0,1,0,.12.26.26,0,0,1-.07.11A.34.34,0,0,1,20.06,10.44Z"/>
  <path fill="#fff" d="M24.6,10.46a1.44,1.44,0,0,1-.62-.13,1.14,1.14,0,0,1-.7-1.12V7.58a.32.32,0,0,1,.09-.23.31.31,0,0,1,.11-.08l.12,0a.34.34,0,0,1,.33.33V9.21a.67.67,0,0,0,.09.34.51.51,0,0,0,.25.21.81.81,0,0,0,.34.08A.84.84,0,0,0,25,9.76a.51.51,0,0,0,.25-.21.67.67,0,0,0,.09-.34V7.58a.32.32,0,0,1,.09-.23.39.39,0,0,1,.1-.08l.13,0,.13,0,.1.07a.44.44,0,0,1,.08.11.51.51,0,0,1,0,.13V9.2a1.17,1.17,0,0,1-.2.7,1.2,1.2,0,0,1-.5.42A1.57,1.57,0,0,1,24.6,10.46Z"/>
  <path fill="#fff" d="M29.8,10.44a.45.45,0,0,1-.19,0,.37.37,0,0,1-.13-.12L28.14,8.34V10.1a.28.28,0,0,1,0,.13.41.41,0,0,1-.07.11.33.33,0,0,1-.23.09.32.32,0,0,1-.23-.09.26.26,0,0,1-.07-.11.28.28,0,0,1,0-.13V7.66a.45.45,0,0,1,0-.16.44.44,0,0,1,.22-.22.45.45,0,0,1,.16,0h.05a.38.38,0,0,1,.19,0,.37.37,0,0,1,.15.13l1.33,1.92V7.59a.32.32,0,0,1,.09-.23.28.28,0,0,1,.11-.08l.13,0a.33.33,0,0,1,.23.09.35.35,0,0,1,.1.24V10a.47.47,0,0,1,0,.16.38.38,0,0,1-.09.13.57.57,0,0,1-.13.08.29.29,0,0,1-.16,0Z"/>
  <path fill="#fff" d="M18.14,42.66l-.13,0a.36.36,0,0,1-.12-.08.44.44,0,0,1-.08-.11.35.35,0,0,1,0-.14.78.78,0,0,1,.16-.47,1.37,1.37,0,0,1,.33-.35,5.25,5.25,0,0,1,.48-.34c.2-.12.29-.19.39-.26a1.52,1.52,0,0,0,.22-.22.32.32,0,0,0,.07-.19.4.4,0,0,0,0-.15.23.23,0,0,0-.08-.12.58.58,0,0,0-.4-.1,1.64,1.64,0,0,0-.65.13.33.33,0,0,1-.13,0,.27.27,0,0,1-.12,0,.24.24,0,0,1-.09-.06.27.27,0,0,1-.09-.21A.35.35,0,0,1,18,39.7a2.16,2.16,0,0,1,1-.23,1.3,1.3,0,0,1,.55.12,1.12,1.12,0,0,1,.38.34,1,1,0,0,1,.15.53,1.1,1.1,0,0,1-.17.52,1.71,1.71,0,0,1-.37.39,6.13,6.13,0,0,1-.52.37c-.22.14-.32.22-.42.29h1.13a.24.24,0,0,1,.12,0,.26.26,0,0,1,.11.07.31.31,0,0,1,0,.44.32.32,0,0,1-.23.09Z"/>
  <path fill="#fff" d="M21.88,42.66l-.12,0a.28.28,0,0,1-.11-.08.36.36,0,0,1-.07-.1.51.51,0,0,1,0-.13V39.84a.32.32,0,0,1,.09-.23.28.28,0,0,1,.11-.08l.12,0h.83a1.56,1.56,0,0,1,.87.23,1.46,1.46,0,0,1,.54.59,1.67,1.67,0,0,1,0,1.51,1.46,1.46,0,0,1-.54.59,1.56,1.56,0,0,1-.87.23Zm.79-.63a1,1,0,0,0,.52-.12.83.83,0,0,0,.34-.33,1,1,0,0,0,.12-.49,1.06,1.06,0,0,0-.12-.5.9.9,0,0,0-.34-.33,1.17,1.17,0,0,0-.52-.12h-.46V42Z"/>
  <path fill="#fff" d="M28.13,42.68a.37.37,0,0,1-.18,0,.39.39,0,0,1-.12-.14l-.24-.56H26.38l-.23.55a.35.35,0,0,1-.12.15.41.41,0,0,1-.18,0,.27.27,0,0,1-.13,0,.41.41,0,0,1-.11-.07.35.35,0,0,1-.09-.23.32.32,0,0,1,0-.14l1.05-2.47a.59.59,0,0,1,.13-.18.41.41,0,0,1,.24-.08h0a.4.4,0,0,1,.23.08.41.41,0,0,1,.13.17l1.05,2.48a.32.32,0,0,1,0,.19.37.37,0,0,1-.08.18l-.11.07A.3.3,0,0,1,28.13,42.68Zm-.8-1.38L27,40.47l-.35.83Z"/>
  <path fill="#fff" d="M30.9,42.68a.33.33,0,0,1-.23-.09.41.41,0,0,1-.07-.11.17.17,0,0,1,0-.12v-1l-1-1.34a.33.33,0,0,1-.06-.19.32.32,0,0,1,.09-.23.39.39,0,0,1,.1-.08l.13,0a.29.29,0,0,1,.16,0,.34.34,0,0,1,.12.12l.74,1.07.76-1.08a.32.32,0,0,1,.1-.1l.14,0a.36.36,0,0,1,.14,0,.25.25,0,0,1,.12.08.21.21,0,0,1,.07.11.27.27,0,0,1,0,.13.34.34,0,0,1,0,.17l-1,1.35v1a.33.33,0,0,1-.09.23.41.41,0,0,1-.11.07A.27.27,0,0,1,30.9,42.68Z"/>
  <path fill="#fff" d="M25.3,13.68h-.6v1h.6Z"/>
  <path fill="#fff" d="M50,25A25,25,0,1,1,42.68,7.32,25.06,25.06,0,0,1,50,25Zm-1,0a24,24,0,1,0-7,17,24.07,24.07,0,0,0,7-17Z"/>
  <path fill="#fff" d="M25,47a22,22,0,1,1,15.55-6.45A22,22,0,0,1,25,47ZM46,25a21,21,0,1,0-6.16,14.84A21,21,0,0,0,46,25Z"/>
  <path fill="#fff" d="M10,35a18,18,0,0,1,0-20s.17-.35-.52-.38a.7.7,0,0,0-.38.11.75.75,0,0,0-.29.27,19,19,0,0,0,0,20,.81.81,0,0,0,.31.3.88.88,0,0,0,.42.11C10.24,35.35,10,35,10,35Z"/>
  <path fill="#fff" d="M40,35a18,18,0,0,0,0-20s-.17-.35.52-.38a.73.73,0,0,1,.38.11.75.75,0,0,1,.29.27,19,19,0,0,1,0,20,.82.82,0,0,1-.71.41C39.76,35.35,40,35,40,35Z"/>
  <path fill="#fff" d="M23.43,20.56a.77.77,0,0,1-.11.39.82.82,0,0,1-.32.26.79.79,0,0,1-.4,0,.72.72,0,0,1-.36-.2.61.61,0,0,1-.19-.35.71.71,0,0,1,.29-.72.69.69,0,0,1,.39-.12.76.76,0,0,1,.27.05.91.91,0,0,1,.23.15.83.83,0,0,1,.15.23A.65.65,0,0,1,23.43,20.56Z"/>
  <path fill="#fff" d="M28,20.56a.69.69,0,0,1-.12.39.79.79,0,0,1-.31.26.81.81,0,0,1-.41,0,.76.76,0,0,1-.36-.2.75.75,0,0,1-.19-.35.72.72,0,0,1,0-.41.61.61,0,0,1,.26-.31.69.69,0,0,1,.39-.12.7.7,0,0,1,.49.2A.67.67,0,0,1,28,20.56Z"/>
  <path fill="#fff" d="M25.2,30.44c.53-.6,1.93-2.73,1.93-4a1.94,1.94,0,0,0-.14-.83,2.08,2.08,0,0,0-.45-.72,2.24,2.24,0,0,0-.7-.48,2.12,2.12,0,0,0-.83-.17,2.2,2.2,0,0,0-.83.17,2.14,2.14,0,0,0-1.29,2c0,1.29,1.4,3.42,1.94,4a.65.65,0,0,0-.4.28.7.7,0,0,0-.11.48.68.68,0,0,0,.23.44.71.71,0,0,0,.46.17.69.69,0,0,0,.46-.17.74.74,0,0,0,.24-.44.76.76,0,0,0-.11-.48A.7.7,0,0,0,25.2,30.44Zm-1.26-4.08a1.12,1.12,0,0,1,.17-.59,1.14,1.14,0,0,1,.48-.39A1.06,1.06,0,0,1,26,26.76a1.08,1.08,0,0,1-.39.48,1,1,0,0,1-.59.17,1,1,0,0,1-1-1.05Z"/>
  <path fill="#fff" d="M30.49,27.84a5.52,5.52,0,0,1-3.4,5.09,5.57,5.57,0,0,1-3.18.31,5.5,5.5,0,1,1,6.58-5.4Zm-1,0A4.48,4.48,0,1,0,26.71,32a4.34,4.34,0,0,0,1.46-1,4.53,4.53,0,0,0,1.33-3.19Z"/>
  <path fill="#fff" d="M37.58,17.78a4.53,4.53,0,0,0-7.83-3.05A11.48,11.48,0,0,0,25,13.67a11.3,11.3,0,0,0-4.75,1.05,4.47,4.47,0,0,0-1.54-1.11,4.52,4.52,0,0,0-1.85-.39,4.7,4.7,0,0,0-1.85.41,4.45,4.45,0,0,0-1.52,1.13,4.39,4.39,0,0,0-.93,1.64,4.66,4.66,0,0,0-.18,1.89A4.44,4.44,0,0,0,13,20.08a4.51,4.51,0,0,0,1.29,1.39,11.22,11.22,0,0,0,1.6,10.07,11.41,11.41,0,0,0,4,3.41,11.23,11.23,0,0,0,14.19-3.39,11.11,11.11,0,0,0,2-4.83,11.3,11.3,0,0,0-.38-5.23,4.5,4.5,0,0,0,1.4-1.63A4.62,4.62,0,0,0,37.58,17.78ZM33,14.3a3.53,3.53,0,0,1,3.44,4.41,3.6,3.6,0,0,1-1.13,1.8c-.14-.32-.29-.64-.46-1a2.51,2.51,0,0,0,.71-1.67,2.51,2.51,0,0,0-2.23-2.55,2.48,2.48,0,0,0-1.75.48c-.3-.21-.6-.41-.91-.6A3.52,3.52,0,0,1,33,14.3Zm1.3,4.36a11,11,0,0,0-1.91-2.18,1.47,1.47,0,0,1,.74-.17,1.55,1.55,0,0,1,.72.22,1.47,1.47,0,0,1,.53.55,1.42,1.42,0,0,1,.19.73,1.52,1.52,0,0,1-.26.85Zm-20.89-.87a3.52,3.52,0,0,1,4.09-3.44,3.45,3.45,0,0,1,1.79.86c-.31.18-.61.38-.91.59a2.48,2.48,0,0,0-3.34.36,2.49,2.49,0,0,0,0,3.37c-.17.31-.32.63-.46.95a3.48,3.48,0,0,1-1.22-2.69Zm2.23.83a1.43,1.43,0,0,1-.23-.92,1.48,1.48,0,0,1,1.2-1.36,1.56,1.56,0,0,1,.95.12A11.61,11.61,0,0,0,15.65,18.62ZM25,35.17a10.26,10.26,0,1,1,7.24-3,10.24,10.24,0,0,1-7.24,3Z"/>
</svg>
