<svg width="128" height="128" viewBox="0 0 128 128" fill="none" xmlns="http://www.w3.org/2000/svg">
<path d="M51.6512 27.5837C51.3992 27.5837 51.2102 27.5206 51.0842 27.3316C50.9582 27.2056 50.8322 26.9536 50.8322 26.7646V20.4642C50.8322 20.2752 50.8952 20.0232 51.0842 19.8972C51.2102 19.7081 51.4622 19.6451 51.6512 19.6451H55.6205C55.8095 19.6451 56.0615 19.7081 56.1875 19.8972C56.3135 20.0232 56.4395 20.2122 56.4395 20.4642C56.4395 20.6532 56.3765 20.9052 56.1875 21.0312C56.0615 21.1572 55.8725 21.2832 55.6205 21.2832H52.4703V22.8583H55.3054C55.4945 22.8583 55.7465 22.9214 55.8725 23.1104C55.9985 23.2364 56.1245 23.4254 56.1245 23.6774C56.1245 23.8664 56.0615 24.1184 55.8725 24.2444C55.7465 24.3704 55.5575 24.4965 55.3054 24.4965H52.4703V26.8906C52.4703 27.1426 52.4073 27.3316 52.2182 27.4576C52.0292 27.4576 51.8402 27.5837 51.6512 27.5837Z" fill="#F0F4F8"/>
<path d="M62.9919 27.6467C62.4879 27.6467 61.9209 27.5207 61.4168 27.3316C60.9128 27.0796 60.4718 26.7646 60.1567 26.2606C59.8417 25.7565 59.6527 25.1895 59.6527 24.4965V20.4012C59.6527 20.2122 59.7157 19.9602 59.9047 19.8342C60.0307 19.6452 60.2827 19.5822 60.4718 19.5822C60.7238 19.5822 60.9128 19.6452 61.0388 19.8342C61.1648 20.0232 61.2908 20.2122 61.2908 20.4012V24.4965C61.2908 24.8115 61.3538 25.1265 61.5428 25.3785C61.6688 25.6305 61.9209 25.7565 62.1729 25.8826C62.4249 26.0086 62.7399 26.0716 62.9919 26.0716C63.3069 26.0716 63.559 26.0086 63.811 25.8826C64.063 25.7565 64.252 25.5675 64.441 25.3785C64.567 25.1265 64.693 24.8745 64.693 24.4965V20.4012C64.693 20.2122 64.756 19.9602 64.945 19.8342C65.0711 19.6452 65.3231 19.5822 65.5121 19.5822C65.7641 19.5822 65.9531 19.6452 66.0791 19.8342C66.2681 20.0232 66.3311 20.2122 66.3311 20.4012V24.4335C66.3311 25.1265 66.1421 25.6935 65.8271 26.1976C65.5121 26.7016 65.0711 27.0166 64.567 27.2686C64 27.5207 63.496 27.6467 62.9919 27.6467Z" fill="#F0F4F8"/>
<path d="M75.9707 27.5837C75.7817 27.5837 75.6557 27.5207 75.4667 27.4577C75.3407 27.3947 75.2147 27.2686 75.0886 27.1426L71.7494 22.2913V26.7016C71.7494 26.9536 71.6864 27.1426 71.4974 27.2686C71.3714 27.3947 71.1194 27.5207 70.9304 27.5207C70.6784 27.5207 70.4894 27.4577 70.3633 27.2686C70.2373 27.1426 70.1113 26.8906 70.1113 26.7016V20.5902C70.1113 20.3382 70.2373 20.0862 70.4263 19.8972C70.6154 19.7082 70.8674 19.5822 71.1194 19.5822H71.2454C71.4974 19.5822 71.8124 19.6452 72.0645 20.0232L75.4037 24.8115V20.4012C75.4037 20.2122 75.4667 19.9602 75.6557 19.8342C75.7817 19.6452 76.0337 19.5822 76.2227 19.5822C76.4747 19.5822 76.6637 19.6452 76.7898 19.8342C76.9158 20.0232 77.0418 20.2122 77.0418 20.4012V26.5126C77.0418 26.7646 76.9158 27.0166 76.7267 27.2056C76.5377 27.3947 76.2857 27.5207 76.0337 27.5207H75.9707V27.5837Z" fill="#F0F4F8"/>
<path d="M46.7999 108.166C46.5479 108.166 46.3589 108.103 46.1699 107.914C45.9809 107.725 45.9178 107.536 45.9178 107.284C45.9178 106.843 46.0439 106.465 46.2959 106.087C46.5479 105.772 46.7999 105.457 47.1149 105.205C47.4299 104.953 47.808 104.701 48.312 104.386C48.753 104.134 49.068 103.882 49.3201 103.693C49.5091 103.504 49.6981 103.378 49.8871 103.126C50.0131 102.937 50.0761 102.81 50.0761 102.621C50.0761 102.306 50.0131 102.117 49.8241 101.928C49.6351 101.739 49.3201 101.676 48.816 101.676C48.249 101.676 47.682 101.802 47.1779 101.991C47.0519 102.054 46.9259 102.054 46.8629 102.054C46.6739 102.054 46.4849 101.991 46.3589 101.865C46.2329 101.739 46.1699 101.55 46.1699 101.361C46.1699 101.046 46.2959 100.794 46.5479 100.668C47.3039 100.29 48.123 100.101 49.005 100.101C49.5091 100.101 49.9501 100.227 50.3281 100.416C50.7692 100.605 51.0842 100.92 51.3362 101.298C51.5882 101.676 51.7142 102.117 51.7142 102.558C51.7142 103.063 51.5882 103.504 51.2732 103.882C51.0212 104.26 50.7062 104.575 50.3281 104.89C50.0131 105.142 49.5721 105.457 49.005 105.835C48.564 106.15 48.186 106.402 47.997 106.591H50.8322C51.0212 106.591 51.2732 106.654 51.3992 106.843C51.5252 106.969 51.6512 107.158 51.6512 107.41C51.6512 107.599 51.5882 107.851 51.3992 107.977C51.2732 108.103 51.0842 108.229 50.8322 108.229H46.7999V108.166Z" fill="#F0F4F8"/>
<path d="M56.1875 108.166C55.9355 108.166 55.7465 108.103 55.6205 107.914C55.4945 107.788 55.3685 107.536 55.3685 107.347V101.109C55.3685 100.92 55.4315 100.668 55.6205 100.542C55.7465 100.353 55.9985 100.29 56.1875 100.29H58.2667C59.0857 100.29 59.8418 100.479 60.4718 100.857C61.0388 101.235 61.5429 101.739 61.7949 102.307C62.1099 102.874 62.2359 103.504 62.2359 104.197C62.2359 104.827 62.1099 105.457 61.7949 106.087C61.4799 106.717 61.0388 107.158 60.4718 107.536C59.8418 107.914 59.1487 108.103 58.2667 108.103H56.1875V108.166ZM58.1406 106.591C58.6447 106.591 59.0857 106.465 59.4637 106.276C59.8418 106.087 60.0938 105.835 60.2828 105.457C60.4718 105.079 60.5978 104.701 60.5978 104.197C60.5978 103.756 60.4718 103.315 60.2828 102.937C60.0938 102.559 59.7788 102.307 59.4637 102.118C59.0857 101.929 58.6447 101.802 58.1406 101.802H57.0066V106.528H58.1406V106.591Z" fill="#F0F4F8"/>
<path d="M71.8125 108.166C71.6235 108.166 71.4975 108.103 71.3715 108.04C71.2455 107.977 71.1195 107.851 71.0565 107.662L70.4894 106.276H67.4653L66.8982 107.662C66.8352 107.851 66.7092 107.914 66.5832 108.04C66.4572 108.103 66.2682 108.166 66.1422 108.166C65.8902 108.166 65.7011 108.103 65.5751 107.914C65.4491 107.788 65.3231 107.536 65.3231 107.347C65.3231 107.221 65.3231 107.158 65.3861 107.032L68.0323 100.857C68.0953 100.668 68.2213 100.542 68.3473 100.416C68.5363 100.29 68.7253 100.227 68.9143 100.227H69.0404C69.2924 100.227 69.4814 100.29 69.6074 100.416C69.7334 100.542 69.8594 100.668 69.9224 100.857L72.5686 107.032C72.6316 107.158 72.6316 107.284 72.6316 107.347C72.6316 107.536 72.5686 107.788 72.3796 107.914C72.2536 108.103 72.0645 108.166 71.8125 108.166ZM69.7964 104.764L68.9143 102.684L68.0323 104.764H69.7964Z" fill="#F0F4F8"/>
<path d="M78.743 108.166C78.554 108.166 78.3019 108.103 78.1759 107.914C77.9869 107.788 77.9239 107.536 77.9239 107.347V104.827L75.5298 101.487C75.4037 101.298 75.4037 101.172 75.4037 100.983C75.4037 100.794 75.4667 100.542 75.6558 100.416C75.7818 100.227 76.0338 100.164 76.2228 100.164C76.5378 100.164 76.7898 100.29 76.9158 100.542L78.743 103.252L80.6331 100.542C80.8221 100.29 81.0741 100.164 81.3261 100.164C81.5781 100.164 81.7672 100.227 81.8932 100.416C82.0192 100.605 82.1452 100.794 82.0822 100.983C82.0822 101.109 82.0192 101.298 81.9562 101.424L79.562 104.827V107.347C79.562 107.599 79.499 107.788 79.31 107.914C79.184 108.103 78.932 108.166 78.743 108.166Z" fill="#F0F4F8"/>
<path d="M64.7561 35.6482H63.244V38.1684H64.7561V35.6482Z" fill="#F0F4F8"/>
<path d="M126.5 64C126.5 98.5262 98.5262 126.5 64 126.5C29.4738 126.5 1.5 98.5262 1.5 64C1.5 29.4738 29.4738 1.5 64 1.5C98.5262 1.5 126.5 29.4738 126.5 64ZM123.98 64C123.98 30.9229 97.0771 4.02016 64 4.02016C30.9229 4.02016 4.02016 30.9229 4.02016 64C4.02016 97.0771 30.9229 123.98 64 123.98C97.0771 123.98 123.98 97.0771 123.98 64Z" fill="#F0F4F8"/>
<path d="M64 119.002C33.6951 119.002 8.9975 94.3049 8.9975 64C8.9975 33.695 33.6951 8.99744 64 8.99744C94.305 8.99744 119.003 33.632 119.003 64C119.003 94.3679 94.305 119.002 64 119.002ZM116.482 64C116.482 35.0181 92.9189 11.5176 64 11.5176C35.0812 11.5176 11.5177 35.0811 11.5177 64C11.5177 92.9188 35.0812 116.482 64 116.482C92.9189 116.482 116.482 92.9188 116.482 64Z" fill="#F0F4F8"/>
<path d="M26.5756 89.0126C21.7873 81.8302 18.9521 73.2616 18.9521 64C18.9521 54.7385 21.7243 46.1699 26.5756 38.9874C26.5756 38.9874 27.0166 38.1054 25.2525 38.0424C24.2444 37.9794 23.6144 38.9874 23.6144 38.9874C19.0781 46.2329 16.4949 54.8015 16.4949 64C16.4949 73.1986 19.0781 81.7042 23.6144 89.0126C23.6144 89.0126 24.2444 90.1467 25.3785 90.0207C27.0796 89.8947 26.5756 89.0126 26.5756 89.0126Z" fill="#F0F4F8"/>
<path d="M101.361 89.0126C106.15 81.8302 108.985 73.2616 108.985 64C108.985 54.7385 106.213 46.1699 101.361 38.9874C101.361 38.9874 100.92 38.1054 102.685 38.0424C103.693 37.9794 104.323 38.9874 104.323 38.9874C108.859 46.2329 111.442 54.8015 111.442 64C111.442 73.1986 108.859 81.7042 104.323 89.0126C104.323 89.0126 103.693 90.1467 102.558 90.0207C100.857 89.8947 101.361 89.0126 101.361 89.0126Z" fill="#F0F4F8"/>
<path d="M58.2666 54.6123C59.2409 54.6123 60.0307 53.8225 60.0307 52.8482C60.0307 51.8739 59.2409 51.0841 58.2666 51.0841C57.2923 51.0841 56.5025 51.8739 56.5025 52.8482C56.5025 53.8225 57.2923 54.6123 58.2666 54.6123Z" fill="#F0F4F8"/>
<path d="M69.6704 54.6123C70.6447 54.6123 71.4345 53.8225 71.4345 52.8482C71.4345 51.8739 70.6447 51.0841 69.6704 51.0841C68.6961 51.0841 67.9062 51.8739 67.9062 52.8482C67.9062 53.8225 68.6961 54.6123 69.6704 54.6123Z" fill="#F0F4F8"/>
<path d="M64.441 77.5458C65.7641 76.0967 69.2923 70.7414 69.2923 67.5282C69.2923 64.63 66.8982 62.2358 64 62.2358C61.1018 62.2358 58.7076 64.63 58.7076 67.5282C58.7076 70.7414 62.2359 76.0967 63.559 77.5458C62.8029 77.7348 62.2989 78.4279 62.2989 79.2469C62.2989 80.192 63.0549 81.011 64.063 81.011C65.008 81.011 65.8271 80.255 65.8271 79.2469C65.7011 78.4279 65.1971 77.7978 64.441 77.5458ZM61.3538 67.4022C61.3538 65.9531 62.5509 64.756 64 64.756C65.4491 64.756 66.6461 65.9531 66.6461 67.4022C66.6461 68.8513 65.4491 70.0483 64 70.0483C62.5509 70.0483 61.3538 68.8513 61.3538 67.4022Z" fill="#F0F4F8"/>
<path d="M77.7349 71.0564C77.7349 78.6799 71.5605 84.7913 64 84.7913C56.3765 84.7913 50.2651 78.6169 50.2651 71.0564C50.2651 63.4329 56.4395 57.3215 64 57.3215C71.5605 57.3215 77.7349 63.4959 77.7349 71.0564ZM75.2147 71.0564C75.2147 64.882 70.1744 59.7787 63.937 59.7787C57.7626 59.7787 52.6593 64.819 52.6593 71.0564C52.6593 77.2308 57.6996 82.3341 63.937 82.3341C70.1744 82.3341 75.2147 77.2938 75.2147 71.0564Z" fill="#F0F4F8"/>
<path d="M95.439 45.9178C95.376 39.6804 90.2727 34.6401 83.9723 34.7031C80.7591 34.7661 77.8609 36.0892 75.8448 38.2943C72.2535 36.5932 68.1583 35.6482 63.937 35.6482C59.7157 35.6482 55.6835 36.5932 52.0922 38.2313C50.0761 36.0892 47.1779 34.7031 43.9647 34.7031C37.7273 34.6401 32.561 39.6174 32.498 45.9178C32.435 49.6981 34.2621 53.1003 37.0973 55.1794C36.2152 57.8886 35.7742 60.7868 35.7742 63.811C35.7742 79.373 48.375 91.9108 63.874 91.9108C79.373 91.9108 91.9738 79.31 91.9738 63.811C91.9738 60.8498 91.5328 57.9516 90.6507 55.2424C93.6119 53.1633 95.439 49.7611 95.439 45.9178ZM84.0353 37.2233C88.8866 37.1603 92.9188 41.0665 92.9818 45.9178C92.9818 48.627 91.7848 51.0842 89.8316 52.7223C89.4536 51.9032 89.0756 51.1472 88.6976 50.3281C89.8316 49.194 90.5247 47.6819 90.5247 45.9808C90.5247 42.5156 87.7525 39.7434 84.2873 39.7434C82.9012 39.7434 81.5781 40.2475 80.507 41.0035C79.751 40.4995 78.995 39.9954 78.2389 39.4914C79.688 38.1053 81.7671 37.2233 84.0353 37.2233ZM87.3115 48.123C85.9254 46.1068 84.3503 44.2797 82.5232 42.6416C83.0272 42.3896 83.5942 42.2006 84.2243 42.2006C86.3034 42.2006 88.0045 43.9017 88.0045 45.9808C87.9415 46.7999 87.6895 47.4929 87.3115 48.123ZM35.0181 45.9178C35.0811 41.0665 39.0504 37.1603 43.9647 37.2233C46.1699 37.2233 48.249 38.1053 49.7611 39.4914C49.005 39.9324 48.249 40.4365 47.4929 41.0035C46.4849 40.2475 45.1618 39.8064 43.7757 39.8064C40.3105 39.8064 37.5383 42.5786 37.5383 46.0438C37.5383 47.6819 38.1683 49.194 39.2394 50.3281C38.7984 51.0842 38.4204 51.9032 38.1053 52.7223C36.1522 51.0212 35.0181 48.627 35.0181 45.9178ZM40.6255 48.06C40.2475 47.4929 39.9955 46.7999 39.9955 46.0438C39.9955 43.9647 41.6966 42.2636 43.7757 42.2636C44.3427 42.2636 44.9098 42.3896 45.4138 42.6416C43.5867 44.2167 41.9486 46.0438 40.6255 48.06ZM63.937 89.3906C49.8241 89.3906 38.2943 77.9239 38.2943 63.748C38.2943 49.6351 49.7611 38.1053 63.937 38.1053C78.1129 38.1053 89.5796 49.5721 89.5796 63.748C89.5166 77.9239 78.0499 89.3906 63.937 89.3906Z" fill="#F0F4F8"/>
</svg>
