<svg width="50" height="50" viewBox="0 0 50 50" fill="none" xmlns="http://www.w3.org/2000/svg">
<g clip-path="url(#clip0)">
<path d="M20.0575 10.4371C20.0147 10.4374 19.9723 10.4292 19.9327 10.413C19.8931 10.3968 19.8571 10.3729 19.8269 10.3426C19.7966 10.3124 19.7727 10.2764 19.7565 10.2368C19.7403 10.1972 19.7321 10.1548 19.7324 10.112V7.59224C19.7321 7.5065 19.7656 7.42408 19.8257 7.36294C19.8555 7.33149 19.8914 7.30654 19.9313 7.28963C19.9712 7.27272 20.0142 7.26422 20.0575 7.26466H21.6701C21.7539 7.26439 21.8344 7.29696 21.8944 7.35538C21.9238 7.38477 21.947 7.41977 21.9625 7.45829C21.9781 7.49682 21.9858 7.53808 21.9851 7.57964C21.9858 7.62141 21.9778 7.66287 21.9618 7.70145C21.9458 7.74003 21.922 7.7749 21.8919 7.8039C21.8325 7.86147 21.7528 7.89319 21.6701 7.89209H20.4103V8.52204H21.5366C21.6201 8.52204 21.7002 8.55522 21.7593 8.61429C21.8184 8.67336 21.8516 8.75347 21.8516 8.83701C21.8522 8.87878 21.8443 8.92024 21.8282 8.95882C21.8122 8.9974 21.7884 9.03227 21.7583 9.06127C21.699 9.11885 21.6193 9.15056 21.5366 9.14946H20.3876V10.107C20.3878 10.1506 20.3792 10.1939 20.3623 10.2341C20.3454 10.2744 20.3206 10.3109 20.2893 10.3413C20.227 10.4016 20.1441 10.4358 20.0575 10.4371Z" fill="#121212"/>
<path d="M24.5981 10.4568C24.3848 10.4599 24.1734 10.417 23.9783 10.3308C23.7736 10.2402 23.5988 10.0934 23.4743 9.90744C23.339 9.70036 23.2704 9.45675 23.2778 9.20946V7.57665C23.2764 7.49122 23.3091 7.40875 23.3685 7.34735C23.3986 7.31559 23.435 7.29045 23.4753 7.27353C23.5156 7.25661 23.5591 7.24828 23.6028 7.24908C23.6897 7.24908 23.773 7.28359 23.8344 7.34502C23.8959 7.40645 23.9304 7.48977 23.9304 7.57665V9.21198C23.926 9.33268 23.9576 9.45195 24.0211 9.55467C24.0827 9.64765 24.1703 9.7204 24.2731 9.76382C24.3782 9.81208 24.4925 9.83701 24.6082 9.83689C24.7249 9.83892 24.8405 9.81391 24.9459 9.76382C25.0479 9.71929 25.1353 9.64678 25.1978 9.55467C25.2594 9.45122 25.29 9.33229 25.286 9.21198V7.57665C25.2856 7.49091 25.3192 7.40849 25.3793 7.34735C25.4089 7.31566 25.4448 7.29054 25.4847 7.27361C25.5247 7.25668 25.5677 7.24832 25.6111 7.24908C25.6542 7.24846 25.697 7.25663 25.7368 7.27309C25.7767 7.28955 25.8128 7.31396 25.8429 7.34483C25.8743 7.37463 25.8993 7.4106 25.9162 7.45049C25.9331 7.49038 25.9416 7.53332 25.9412 7.57665V9.19938C25.9473 9.44651 25.8788 9.68975 25.7446 9.89736C25.6189 10.0823 25.4445 10.2288 25.2407 10.3207C25.0393 10.4133 24.8198 10.4598 24.5981 10.4568Z" fill="#121212"/>
<path d="M29.804 10.4375C29.738 10.4378 29.673 10.4213 29.615 10.3896C29.5597 10.3623 29.5121 10.3216 29.4765 10.2712L28.1359 8.33854V10.1024C28.1367 10.1461 28.1284 10.1896 28.1115 10.2299C28.0946 10.2703 28.0694 10.3066 28.0377 10.3367C27.9754 10.3957 27.8929 10.4286 27.8071 10.4286C27.7213 10.4286 27.6388 10.3957 27.5765 10.3367C27.5465 10.3061 27.5228 10.2699 27.5068 10.2301C27.4908 10.1903 27.4828 10.1478 27.4833 10.1049V7.66072C27.483 7.60712 27.4932 7.55397 27.5134 7.50432C27.5336 7.45467 27.5634 7.40948 27.6011 7.37134C27.6387 7.3332 27.6836 7.30285 27.733 7.28203C27.7824 7.26122 27.8354 7.25033 27.889 7.25H27.9444C28.0103 7.25056 28.0751 7.26686 28.1334 7.29754C28.1917 7.32822 28.2418 7.3724 28.2796 7.42638L29.6125 9.34897V7.58513C29.6112 7.4997 29.6438 7.41723 29.7032 7.35583C29.7333 7.32407 29.7697 7.29893 29.81 7.28201C29.8504 7.26509 29.8938 7.25677 29.9376 7.25756C30.0244 7.25756 30.1078 7.29207 30.1692 7.3535C30.2306 7.41493 30.2651 7.49825 30.2651 7.58513V10.0394C30.2655 10.0932 30.2547 10.1465 30.2334 10.1959C30.2122 10.2453 30.1809 10.2899 30.1417 10.3266C30.1041 10.3645 30.0593 10.3945 30.01 10.4148C29.9607 10.4352 29.9078 10.4455 29.8544 10.4451L29.804 10.4375Z" fill="#121212"/>
<path d="M18.1425 42.6622C18.0959 42.663 18.0496 42.6545 18.0063 42.6372C17.963 42.6199 17.9237 42.5941 17.8905 42.5614C17.856 42.5293 17.8287 42.4902 17.8105 42.4468C17.7923 42.4033 17.7834 42.3565 17.7847 42.3094C17.7844 42.1396 17.8373 41.974 17.9358 41.8357C18.0274 41.7028 18.1397 41.5854 18.2685 41.488C18.3919 41.3922 18.5532 41.2788 18.7497 41.1528C18.9463 41.0268 19.0445 40.9588 19.1403 40.8883C19.2216 40.8267 19.2945 40.7547 19.357 40.6741C19.4018 40.6183 19.4267 40.5491 19.4276 40.4775C19.4303 40.428 19.4223 40.3785 19.404 40.3324C19.3857 40.2862 19.3576 40.2446 19.3217 40.2104C19.2034 40.1302 19.0609 40.0936 18.9186 40.1071C18.6965 40.1075 18.4768 40.1538 18.2735 40.2432C18.2312 40.2643 18.1847 40.2756 18.1374 40.276C18.0986 40.2761 18.0602 40.2687 18.0243 40.254C17.9884 40.2393 17.9558 40.2176 17.9283 40.1903C17.9006 40.162 17.8787 40.1285 17.864 40.0918C17.8493 40.055 17.842 40.0157 17.8426 39.9761C17.8415 39.9196 17.8563 39.8639 17.8852 39.8153C17.9142 39.7668 17.9562 39.7273 18.0064 39.7014C18.31 39.5502 18.6449 39.4725 18.9841 39.4747C19.1713 39.4729 19.3564 39.5134 19.5258 39.5931C19.6797 39.672 19.8108 39.7891 19.9063 39.9333C20.0064 40.0896 20.0582 40.2719 20.055 40.4575C20.0519 40.6431 19.994 40.8236 19.8887 40.9765C19.7862 41.125 19.6622 41.2575 19.5208 41.3695C19.3872 41.4754 19.2109 41.5988 18.9967 41.7399C18.7825 41.8811 18.6792 41.9592 18.5834 42.0322H19.7123C19.7541 42.0316 19.7955 42.0395 19.8341 42.0556C19.8727 42.0716 19.9076 42.0954 19.9365 42.1255C19.9959 42.185 20.0293 42.2656 20.0293 42.3497C20.0293 42.4338 19.9959 42.5145 19.9365 42.574C19.8763 42.6317 19.7957 42.6634 19.7123 42.6622H18.1425Z" fill="#121212"/>
<path d="M21.8843 42.6622C21.8412 42.6619 21.7987 42.6531 21.7591 42.6363C21.7195 42.6195 21.6836 42.5951 21.6534 42.5645C21.6232 42.5338 21.5993 42.4975 21.5832 42.4577C21.567 42.4178 21.5589 42.3751 21.5592 42.3321V39.8375C21.5587 39.751 21.5922 39.6678 21.6524 39.6057C21.6826 39.5747 21.7186 39.5501 21.7585 39.5332C21.7983 39.5163 21.841 39.5076 21.8843 39.5074H22.7108C23.0169 39.499 23.3188 39.5795 23.5801 39.7393C23.8114 39.8824 23.9988 40.0864 24.1218 40.3289C24.2403 40.5633 24.302 40.8222 24.302 41.0848C24.302 41.3474 24.2403 41.6064 24.1218 41.8408C23.9996 42.0845 23.812 42.2895 23.5801 42.4329C23.3181 42.5907 23.0165 42.6703 22.7108 42.6622H21.8843ZM22.6654 42.0323C22.8483 42.0364 23.0293 41.9948 23.192 41.9113C23.3339 41.837 23.4511 41.7232 23.5297 41.5837C23.6092 41.4304 23.6507 41.2601 23.6507 41.0873C23.6507 40.9146 23.6092 40.7443 23.5297 40.5909C23.4504 40.452 23.3334 40.3384 23.192 40.2634C23.0293 40.1798 22.8483 40.1383 22.6654 40.1424H22.2144V42.0323H22.6654Z" fill="#121212"/>
<path d="M28.1308 42.6822C28.0665 42.6825 28.0034 42.6641 27.9493 42.6293C27.8955 42.594 27.8527 42.5442 27.8259 42.4857L27.5941 41.9263H26.382L26.1527 42.4807C26.1257 42.5411 26.082 42.5927 26.0268 42.6293C25.9727 42.6641 25.9096 42.6825 25.8453 42.6822C25.8018 42.6834 25.7585 42.6754 25.7181 42.659C25.6778 42.6425 25.6413 42.6178 25.611 42.5865C25.552 42.5248 25.5195 42.4425 25.5203 42.3572C25.5214 42.31 25.5326 42.2636 25.553 42.2211L26.6013 39.7467C26.6296 39.6772 26.6756 39.6164 26.7348 39.5703C26.8011 39.519 26.8828 39.4914 26.9666 39.4922H27.0095C27.0933 39.4914 27.175 39.519 27.2413 39.5703C27.2999 39.6159 27.3459 39.6758 27.3748 39.7442L28.4231 42.2211C28.4521 42.2806 28.462 42.3476 28.4517 42.4129C28.4413 42.4783 28.4111 42.5389 28.3651 42.5865C28.3348 42.6178 28.2983 42.6425 28.258 42.659C28.2177 42.6754 28.1743 42.6834 28.1308 42.6822ZM27.3345 41.3039L26.9868 40.4749L26.6416 41.3039H27.3345Z" fill="#121212"/>
<path d="M30.9025 42.6824C30.8168 42.6825 30.7345 42.6491 30.6732 42.5892C30.6418 42.5594 30.6168 42.5234 30.5999 42.4835C30.583 42.4437 30.5745 42.4007 30.575 42.3574V41.3495L29.62 40.0089C29.5818 39.9523 29.5608 39.8858 29.5595 39.8174C29.5583 39.7325 29.5899 39.6504 29.6477 39.5881C29.6773 39.5557 29.7136 39.5299 29.754 39.5125C29.7944 39.4951 29.838 39.4866 29.882 39.4874C29.9383 39.4878 29.9935 39.5026 30.0425 39.5304C30.0915 39.5581 30.1325 39.598 30.1617 39.6461L30.9025 40.7246L31.6585 39.6436C31.6844 39.6023 31.7192 39.5675 31.7604 39.5415C31.8016 39.5156 31.8481 39.4992 31.8965 39.4936C31.9449 39.4881 31.9939 39.4934 32.0399 39.5094C32.086 39.5253 32.1278 39.5514 32.1624 39.5856C32.1931 39.6171 32.2169 39.6547 32.2321 39.6959C32.2473 39.7372 32.2536 39.7811 32.2506 39.825C32.2491 39.8875 32.2309 39.9484 32.1977 40.0014L31.2301 41.3495V42.3574C31.2306 42.4439 31.1971 42.5271 31.1369 42.5892C31.106 42.6196 31.0693 42.6435 31.0291 42.6595C30.9889 42.6755 30.9458 42.6833 30.9025 42.6824Z" fill="#121212"/>
<path d="M25.3011 13.6777H24.6989V14.6781H25.3011V13.6777Z" fill="#121212"/>
<path d="M50 24.9987C50.0005 29.9436 48.5346 34.7776 45.7877 38.8894C43.0408 43.0012 39.1364 46.206 34.568 48.0987C29.9997 49.9914 24.9727 50.4868 20.1227 49.5224C15.2728 48.558 10.8178 46.1771 7.32104 42.6807C3.8243 39.1843 1.44291 34.7295 0.478024 29.8797C-0.486859 25.0299 0.00810222 20.0028 1.90031 15.4343C3.79253 10.8657 6.997 6.96093 11.1085 4.21365C15.22 1.46636 20.0538 2.51147e-08 24.9987 0C31.629 -3.36748e-08 37.9878 2.63371 42.6764 7.32181C47.3649 12.0099 49.9993 18.3684 50 24.9987ZM48.992 24.9987C48.992 20.2518 47.5844 15.6115 44.9472 11.6646C42.3099 7.71762 38.5615 4.64137 34.1759 2.82479C29.7903 1.00822 24.9645 0.532923 20.3088 1.459C15.6531 2.38508 11.3765 4.67095 8.01994 8.02754C4.66336 11.3841 2.37749 15.6607 1.45141 20.3164C0.525331 24.9721 1.00063 29.7979 2.8172 34.1835C4.63377 38.5691 7.71003 42.3175 11.657 44.9548C15.6039 47.592 20.2442 48.9997 24.9911 48.9997C31.3558 48.995 37.4586 46.4651 41.9599 41.9652C46.4611 37.4654 48.9929 31.3634 48.9996 24.9987H48.992Z" fill="#121212"/>
<path d="M24.9987 46.9985C20.6475 46.9985 16.394 45.7082 12.7761 43.2908C9.15818 40.8734 6.33835 37.4374 4.67321 33.4174C3.00807 29.3974 2.57239 24.9739 3.42127 20.7062C4.27016 16.4386 6.36547 12.5186 9.44226 9.44177C12.519 6.36498 16.4391 4.26967 20.7067 3.42078C24.9743 2.5719 29.3979 3.00758 33.4179 4.67272C37.4379 6.33787 40.8738 9.15769 43.2913 12.7756C45.7087 16.3935 46.999 20.647 46.999 24.9983C46.993 30.8312 44.6731 36.4236 40.5486 40.5481C36.4241 44.6727 30.8317 46.9925 24.9987 46.9985ZM45.9986 24.9983C45.9986 20.8449 44.767 16.7848 42.4595 13.3314C40.152 9.87796 36.8723 7.18636 33.035 5.59693C29.1978 4.0075 24.9755 3.59163 20.9019 4.40192C16.8283 5.2122 13.0865 7.21224 10.1496 10.1491C7.21273 13.086 5.21269 16.8278 4.4024 20.9014C3.59212 24.975 4.00799 29.1973 5.59742 33.0346C7.18685 36.8718 9.87845 40.1515 13.3319 42.459C16.7853 44.7665 20.8454 45.9981 24.9987 45.9981C30.5664 45.9921 35.9043 43.7777 39.8413 39.8408C43.7782 35.9038 45.9926 30.5659 45.9986 24.9983Z" fill="#121212"/>
<path d="M10.0414 34.9997C8.05877 32.0416 7.00023 28.561 7.00023 24.9999C7.00023 21.4389 8.05877 17.9583 10.0414 15.0002C10.0414 15.0002 10.2077 14.655 9.51724 14.6172C9.38356 14.622 9.25308 14.6595 9.13714 14.7262C9.02121 14.793 8.92334 14.887 8.85202 15.0002C6.98754 18.0023 5.99951 21.4659 5.99951 24.9999C5.99951 28.5339 6.98754 31.9976 8.85202 34.9997C8.92515 35.1259 9.03085 35.2302 9.15807 35.3015C9.2853 35.3729 9.42936 35.4088 9.5752 35.4054C10.2379 35.355 10.0414 34.9997 10.0414 34.9997Z" fill="#121212"/>
<path d="M39.9587 34.9997C41.9413 32.0416 42.9999 28.561 42.9999 24.9999C42.9999 21.4389 41.9413 17.9583 39.9587 15.0002C39.9587 15.0002 39.7924 14.655 40.4803 14.6172C40.6143 14.6223 40.7451 14.6598 40.8614 14.7265C40.9777 14.7932 41.076 14.8871 41.1481 15.0002C43.0109 18.0029 43.9979 21.4663 43.9979 24.9999C43.9979 28.5336 43.0109 31.9969 41.1481 34.9997C41.0758 35.1244 40.9717 35.2277 40.8464 35.299C40.7211 35.3702 40.5791 35.407 40.435 35.4054C39.7622 35.355 39.9587 34.9997 39.9587 34.9997Z" fill="#121212"/>
<path d="M23.434 20.5589C23.434 20.6974 23.3929 20.8329 23.3159 20.9481C23.2389 21.0633 23.1295 21.1531 23.0015 21.2061C22.8735 21.2591 22.7327 21.273 22.5968 21.2459C22.4609 21.2189 22.3361 21.1522 22.2381 21.0542C22.1402 20.9563 22.0734 20.8314 22.0464 20.6956C22.0194 20.5597 22.0333 20.4188 22.0863 20.2908C22.1393 20.1628 22.2291 20.0534 22.3443 19.9765C22.4595 19.8995 22.5949 19.8584 22.7335 19.8584C22.8255 19.8584 22.9165 19.8765 23.0015 19.9117C23.0865 19.9469 23.1637 19.9985 23.2288 20.0636C23.2938 20.1286 23.3454 20.2058 23.3806 20.2908C23.4158 20.3758 23.434 20.4669 23.434 20.5589Z" fill="#121212"/>
<path d="M27.9695 20.5589C27.9695 20.6974 27.9284 20.8329 27.8514 20.9481C27.7745 21.0633 27.6651 21.1531 27.5371 21.2061C27.4091 21.2591 27.2682 21.273 27.1323 21.2459C26.9964 21.2189 26.8716 21.1522 26.7737 21.0542C26.6757 20.9563 26.609 20.8314 26.5819 20.6956C26.5549 20.5597 26.5688 20.4188 26.6218 20.2908C26.6748 20.1628 26.7646 20.0534 26.8798 19.9765C26.995 19.8995 27.1304 19.8584 27.269 19.8584C27.4548 19.8584 27.6329 19.9322 27.7643 20.0636C27.8957 20.1949 27.9695 20.3731 27.9695 20.5589Z" fill="#121212"/>
<path d="M25.1977 30.4359C25.7319 29.8438 27.1329 27.707 27.1329 26.4194C27.1427 26.1348 27.0952 25.8511 26.993 25.5853C26.8909 25.3194 26.7363 25.0769 26.5384 24.8721C26.3405 24.6673 26.1035 24.5044 25.8413 24.3932C25.5792 24.2819 25.2973 24.2246 25.0125 24.2246C24.7278 24.2246 24.4459 24.2819 24.1837 24.3932C23.9216 24.5044 23.6845 24.6673 23.4867 24.8721C23.2888 25.0769 23.1342 25.3194 23.032 25.5853C22.9299 25.8511 22.8823 26.1348 22.8921 26.4194C22.8921 27.707 24.2931 29.8438 24.8273 30.4359C24.6638 30.4807 24.522 30.5834 24.4284 30.7248C24.3348 30.8662 24.2957 31.0368 24.3183 31.2049C24.3409 31.373 24.4237 31.5272 24.5514 31.6388C24.6791 31.7504 24.8429 31.812 25.0125 31.812C25.1821 31.812 25.346 31.7504 25.4736 31.6388C25.6013 31.5272 25.6841 31.373 25.7068 31.2049C25.7294 31.0368 25.6903 30.8662 25.5967 30.7248C25.503 30.5834 25.3613 30.4807 25.1977 30.4359ZM23.9378 26.3614C23.9373 26.1524 23.9989 25.9479 24.1147 25.7739C24.2305 25.5999 24.3954 25.4642 24.5884 25.384C24.7815 25.3037 24.9939 25.2826 25.199 25.3233C25.404 25.3639 25.5924 25.4645 25.7402 25.6123C25.888 25.7601 25.9886 25.9485 26.0293 26.1535C26.0699 26.3586 26.0488 26.5711 25.9686 26.7641C25.8883 26.9571 25.7526 27.122 25.5786 27.2378C25.4046 27.3536 25.2001 27.4152 24.9911 27.4147C24.712 27.414 24.4445 27.3028 24.2471 27.1055C24.0497 26.9081 23.9385 26.6406 23.9378 26.3614Z" fill="#121212"/>
<path d="M30.4894 27.841C30.4899 28.9294 30.1674 29.9936 29.5629 30.8987C28.9583 31.8038 28.0988 32.5093 27.0931 32.9257C26.0875 33.3421 24.9809 33.4508 23.9134 33.238C22.846 33.0252 21.8656 32.5006 21.0965 31.7304C20.3273 30.9602 19.804 29.9791 19.5927 28.9113C19.3814 27.8436 19.4916 26.7371 19.9094 25.732C20.3272 24.7269 21.0338 23.8684 21.9398 23.2651C22.8457 22.6618 23.9103 22.3408 24.9988 22.3428C26.4555 22.3455 27.8516 22.9258 28.881 23.9566C29.9103 24.9873 30.4887 26.3843 30.4894 27.841ZM29.4815 27.841C29.4815 26.9509 29.2175 26.0808 28.723 25.3407C28.2285 24.6006 27.5257 24.0238 26.7034 23.6832C25.881 23.3426 24.9762 23.2534 24.1032 23.4271C23.2302 23.6007 22.4283 24.0294 21.7989 24.6587C21.1696 25.2881 20.741 26.09 20.5673 26.963C20.3937 27.836 20.4828 28.7408 20.8234 29.5632C21.164 30.3855 21.7408 31.0883 22.4809 31.5828C23.221 32.0773 24.0911 32.3413 24.9812 32.3413C25.5734 32.3429 26.1602 32.2278 26.708 32.0024C27.2557 31.7771 27.7537 31.4459 28.1733 31.0279C28.5929 30.6099 28.926 30.1133 29.1535 29.5664C29.381 29.0196 29.4985 28.4332 29.4991 27.841H29.4815Z" fill="#121212"/>
<path d="M37.5774 17.7773C37.5632 16.8755 37.2804 15.9985 36.7653 15.2582C36.2502 14.5179 35.5261 13.9479 34.6854 13.6212C33.8448 13.2945 32.9259 13.2258 32.046 13.4239C31.1662 13.622 30.3653 14.0779 29.7459 14.7334C28.2583 14.0373 26.6364 13.6752 24.994 13.6726C23.3516 13.67 21.7285 14.0269 20.2387 14.7183C19.8107 14.2449 19.2875 13.8671 18.7035 13.6098C18.1195 13.3524 17.4877 13.2212 16.8495 13.2247C16.2112 13.2282 15.5809 13.3664 14.9998 13.6302C14.4186 13.894 13.8996 14.2775 13.4768 14.7556C13.054 15.2337 12.7369 15.7957 12.5462 16.4047C12.3554 17.0138 12.2954 17.6563 12.3699 18.2901C12.4445 18.924 12.652 19.535 12.9789 20.0832C13.3058 20.6313 13.7447 21.1044 14.2669 21.4713C13.7226 23.1576 13.5845 24.9487 13.8637 26.6986C14.1429 28.4484 14.8316 30.1075 15.8737 31.5408C16.9157 32.974 18.2816 34.1407 19.8601 34.9459C21.4386 35.7512 23.1849 36.1721 24.9569 36.1744C26.7289 36.1767 28.4764 35.7603 30.0569 34.9591C31.6375 34.158 33.0064 32.9948 34.0521 31.5643C35.0979 30.1338 35.7909 28.4764 36.0746 26.7273C36.3584 24.9782 36.2249 23.1868 35.685 21.499C36.2765 21.0766 36.7574 20.5178 37.0869 19.8699C37.4163 19.222 37.5846 18.5041 37.5774 17.7773ZM33.009 14.2975C33.7328 14.2926 34.4406 14.5105 35.0364 14.9216C35.6322 15.3327 36.0871 15.9171 36.3394 16.5956C36.5917 17.274 36.6292 18.0137 36.4467 18.7141C36.2643 19.4146 35.8708 20.042 35.3196 20.5113C35.181 20.1862 35.0299 19.8687 34.861 19.5613C35.2982 19.1118 35.55 18.5142 35.5665 17.8874C35.5829 17.2607 35.3627 16.6507 34.9497 16.1789C34.5367 15.7071 33.9612 15.4082 33.3378 15.3416C32.7143 15.275 32.0887 15.4456 31.5853 15.8194C31.293 15.6078 30.9906 15.4087 30.6782 15.2248C31.3153 14.6405 32.1447 14.3106 33.009 14.2975ZM34.3142 18.6592C33.7715 17.8524 33.127 17.119 32.3967 16.4771C32.6252 16.3596 32.8801 16.3029 33.1368 16.3123C33.3936 16.3216 33.6436 16.3969 33.863 16.5307C34.0823 16.6645 34.2636 16.8525 34.3893 17.0765C34.5151 17.3005 34.5813 17.5531 34.5813 17.8101C34.5833 18.1133 34.4918 18.4098 34.3193 18.6592H34.3142ZM13.4202 17.7874C13.4289 17.1098 13.6325 16.449 14.0068 15.8841C14.3811 15.3191 14.9102 14.874 15.5308 14.6018C16.1514 14.3296 16.8373 14.242 17.5064 14.3493C18.1755 14.4567 18.7996 14.7545 19.3039 15.2071C18.9915 15.3911 18.6866 15.5901 18.3943 15.8018C17.8919 15.4336 17.27 15.2664 16.6507 15.3331C16.0314 15.3998 15.4594 15.6956 15.047 16.1623C14.6345 16.6291 14.4114 17.2331 14.4214 17.8559C14.4313 18.4787 14.6737 19.0753 15.1009 19.5285C14.9321 19.8385 14.7759 20.156 14.6373 20.481C14.2506 20.1477 13.9414 19.7339 13.7312 19.2687C13.5209 18.8034 13.4148 18.2979 13.4202 17.7874ZM15.6528 18.6214C15.4747 18.3469 15.3915 18.0215 15.4159 17.6952C15.4403 17.3689 15.571 17.0595 15.788 16.8146C16.005 16.5696 16.2962 16.4025 16.6172 16.3388C16.9382 16.2751 17.2712 16.3184 17.5653 16.462C16.8389 17.0979 16.1962 17.8235 15.6528 18.6214ZM24.9759 35.1713C22.9485 35.1713 20.9666 34.5701 19.2808 33.4437C17.5951 32.3172 16.2813 30.7162 15.5055 28.843C14.7297 26.9698 14.5269 24.9086 14.9226 22.9202C15.3183 20.9317 16.2949 19.1053 17.7287 17.6718C19.1625 16.2384 20.9892 15.2623 22.9777 14.8671C24.9663 14.4718 27.0274 14.6752 28.9004 15.4514C30.7733 16.2276 32.3741 17.5418 33.5001 19.2279C34.6261 20.9139 35.2269 22.8959 35.2264 24.9234C35.2231 27.6412 34.1416 30.2466 32.2194 32.1679C30.2971 34.0892 27.6912 35.1693 24.9734 35.1713H24.9759Z" fill="#121212"/>
</g>
<defs>
<clipPath id="clip0">
<rect width="50" height="50" fill="white"/>
</clipPath>
</defs>
</svg>
