<svg width="670" height="462" viewBox="0 0 670 462" fill="none" xmlns="http://www.w3.org/2000/svg">
<path d="M51.603 364.077C-6.97053 287.737 -26.7284 187.545 51.603 117.685C140.623 38.2925 556.213 -99.8999 636.651 113.953C673.585 212.146 694.964 315.278 613.684 381.607C563.353 422.679 515.474 407.317 451.487 418.527C354.626 435.497 296.058 467.622 200.868 442.947C137.048 426.404 91.7358 416.384 51.603 364.077Z" fill="#D3D9ED"/>
<g clip-path="url(#clip0)">
<path d="M598.515 413.507H68.1045V413.772H598.515V413.507Z" fill="#EBEBEB"/>
<path d="M502.69 430.729H485.123V430.995H502.69V430.729Z" fill="#EBEBEB"/>
<path d="M457.426 426.864H417.316V427.13H457.426V426.864Z" fill="#EBEBEB"/>
<path d="M422.504 420.738H349.223V421.004H422.504V420.738Z" fill="#EBEBEB"/>
<path d="M137.217 422.521H123.755V422.787H137.217V422.521Z" fill="#EBEBEB"/>
<path d="M185.739 422.521H146.669V422.787H185.739V422.521Z" fill="#EBEBEB"/>
<path d="M292.85 427.003H229.699V427.268H292.85V427.003Z" fill="#EBEBEB"/>
<path d="M319.519 366.15H114.685C113.081 366.147 111.543 365.507 110.409 364.371C109.275 363.234 108.639 361.693 108.639 360.087V71.8794C108.639 70.2732 109.275 68.7327 110.409 67.596C111.543 66.4592 113.081 65.8192 114.685 65.8164H319.519C321.126 65.8164 322.667 66.4552 323.802 67.5922C324.938 68.7292 325.577 70.2714 325.577 71.8794V360.087C325.577 360.883 325.42 361.672 325.116 362.407C324.811 363.143 324.365 363.811 323.802 364.374C323.24 364.937 322.572 365.384 321.837 365.689C321.102 365.993 320.315 366.15 319.519 366.15ZM114.685 66.0819C113.151 66.0847 111.681 66.6967 110.597 67.7837C109.513 68.8706 108.904 70.3436 108.904 71.8794V360.087C108.904 361.623 109.513 363.096 110.597 364.183C111.681 365.27 113.151 365.882 114.685 365.885H319.519C321.055 365.882 322.526 365.27 323.612 364.184C324.697 363.097 325.309 361.624 325.311 360.087V71.8794C325.309 70.3426 324.697 68.8696 323.612 67.783C322.526 66.6964 321.055 66.0847 319.519 66.0819H114.685Z" fill="#EBEBEB"/>
<path d="M548.986 366.15H344.141C342.536 366.147 340.997 365.508 339.861 364.371C338.726 363.235 338.087 361.694 338.084 360.087V71.8794C338.087 70.2722 338.726 68.7317 339.861 67.5953C340.997 66.4589 342.536 65.8192 344.141 65.8164H548.986C550.589 65.822 552.124 66.4633 553.255 67.5997C554.387 68.7361 555.022 70.275 555.022 71.8794V360.087C555.022 361.691 554.387 363.23 553.255 364.367C552.124 365.503 550.589 366.144 548.986 366.15ZM344.141 66.0819C342.606 66.0847 341.134 66.6964 340.049 67.783C338.963 68.8696 338.352 70.3426 338.349 71.8794V360.087C338.352 361.624 338.963 363.097 340.049 364.184C341.134 365.27 342.606 365.882 344.141 365.885H548.986C550.521 365.882 551.993 365.27 553.078 364.184C554.164 363.097 554.775 361.624 554.778 360.087V71.8794C554.775 70.3426 554.164 68.8696 553.078 67.783C551.993 66.6964 550.521 66.0847 548.986 66.0819H344.141Z" fill="#EBEBEB"/>
<path d="M191.446 266.085C191.446 266.085 190.714 283.223 162.804 283.223C134.894 283.223 134.162 266.085 134.162 266.085H191.446Z" fill="#F0F0F0"/>
<path d="M191.446 253.003C191.446 253.003 190.714 270.151 162.804 270.151C134.894 270.151 134.162 253.003 134.162 253.003H191.446Z" fill="#F0F0F0"/>
<path d="M146.362 287.768H124.35V404.1H146.362V287.768Z" fill="#F0F0F0"/>
<path d="M318.851 404.1H132.38V413.507H318.851V404.1Z" fill="#F0F0F0"/>
<path d="M146.361 404.1H326.881V287.767H146.361L146.361 404.1Z" fill="#F5F5F5"/>
<path d="M162.805 338.776H310.439V300.084H162.805V338.776Z" fill="#F0F0F0"/>
<path d="M162.805 386.346H310.439V347.653H162.805V386.346Z" fill="#F0F0F0"/>
<path d="M253.939 305.425H219.304C218.419 305.422 217.572 305.068 216.948 304.442C216.323 303.815 215.973 302.965 215.973 302.08C215.975 301.197 216.327 300.35 216.951 299.726C217.575 299.101 218.421 298.749 219.304 298.746H253.939C254.822 298.749 255.668 299.101 256.292 299.726C256.916 300.35 257.268 301.197 257.27 302.08C257.27 302.965 256.92 303.815 256.295 304.442C255.671 305.068 254.824 305.422 253.939 305.425Z" fill="#F5F5F5"/>
<path d="M253.939 352.994H219.304C218.419 352.991 217.572 352.638 216.948 352.011C216.323 351.384 215.973 350.535 215.973 349.65C215.975 348.766 216.327 347.92 216.951 347.295C217.575 346.67 218.421 346.318 219.304 346.315H253.939C254.822 346.318 255.668 346.67 256.292 347.295C256.916 347.92 257.268 348.766 257.27 349.65C257.27 350.535 256.92 351.384 256.295 352.011C255.671 352.638 254.824 352.991 253.939 352.994Z" fill="#F5F5F5"/>
<path d="M332.461 283.223H146.361V287.767H332.461V283.223Z" fill="#F0F0F0"/>
<path d="M118.504 287.768H146.361V283.223H118.504V287.768Z" fill="#E6E6E6"/>
<path d="M528.288 106.633H367.945V251.485H528.288V106.633Z" fill="#E6E6E6"/>
<path d="M536.552 106.633H370.703V251.485H536.552V106.633Z" fill="#F5F5F5"/>
<path d="M527.038 116.168H380.23V241.95H527.038V116.168Z" fill="white"/>
<path d="M519.059 296.399H506.881V413.507H519.059V296.399Z" fill="#E6E6E6"/>
<path d="M522.316 296.399H515.145V413.507H522.316V296.399Z" fill="#F0F0F0"/>
<path d="M467.227 296.399H455.049V413.507H467.227V296.399Z" fill="#E6E6E6"/>
<path d="M469.509 296.399H462.338V413.507H469.509V296.399Z" fill="#F0F0F0"/>
<path d="M417.434 319.059H524.545V296.389H417.434V319.059Z" fill="#F0F0F0"/>
<path d="M364.551 296.399H352.373V413.507H364.551V296.399Z" fill="#E6E6E6"/>
<path d="M366.843 296.399H359.672V413.507H366.843V296.399Z" fill="#F0F0F0"/>
<path d="M350.209 319.059H412.225V296.389H350.209V319.059Z" fill="#E6E6E6"/>
<path d="M416.393 296.399H404.215V413.507H416.393V296.399Z" fill="#E6E6E6"/>
<path d="M419.65 296.399H412.479V413.507H419.65V296.399Z" fill="#F0F0F0"/>
<path d="M333.31 461.458C446.905 461.458 538.992 456.077 538.992 449.439C538.992 442.8 446.905 437.419 333.31 437.419C219.714 437.419 127.627 442.8 127.627 449.439C127.627 456.077 219.714 461.458 333.31 461.458Z" fill="#F5F5F5"/>
<path d="M158.783 318.072L145.724 90.7698C145.649 89.7107 145.795 88.6477 146.151 87.6477C146.508 86.6478 147.067 85.7327 147.795 84.9604C148.523 84.188 149.403 83.5751 150.379 83.1605C151.356 82.7458 152.408 82.5384 153.468 82.5514H412.447C414.661 82.5782 416.785 83.4386 418.395 84.9614C420.005 86.4842 420.983 88.5579 421.135 90.7698L434.183 318.072C434.258 319.13 434.112 320.192 433.757 321.192C433.401 322.191 432.842 323.105 432.115 323.878C431.389 324.65 430.51 325.263 429.535 325.678C428.56 326.093 427.509 326.302 426.449 326.29H167.46C165.247 326.263 163.124 325.403 161.516 323.88C159.908 322.357 158.932 320.283 158.783 318.072Z" fill="#263238"/>
<path d="M426.45 326.789H167.461C165.121 326.757 162.877 325.847 161.176 324.238C159.474 322.63 158.439 320.44 158.274 318.103L145.226 90.8008C145.145 89.6732 145.299 88.5411 145.678 87.4762C146.057 86.4113 146.653 85.4367 147.428 84.6143C148.202 83.7918 149.139 83.1393 150.179 82.6982C151.219 82.257 152.339 82.0368 153.469 82.0515H412.447C414.79 82.0807 417.035 82.9916 418.738 84.603C420.44 86.2143 421.474 88.4081 421.634 90.7477L434.692 318.039C434.77 319.166 434.614 320.297 434.234 321.36C433.853 322.424 433.258 323.397 432.483 324.219C431.709 325.041 430.773 325.693 429.735 326.135C428.697 326.578 427.578 326.8 426.45 326.789ZM159.335 318.039C159.478 320.123 160.399 322.076 161.914 323.512C163.429 324.947 165.428 325.761 167.514 325.791H426.45C427.441 325.8 428.423 325.605 429.335 325.216C430.247 324.827 431.068 324.254 431.748 323.531C432.427 322.809 432.95 321.954 433.283 321.02C433.617 320.086 433.753 319.093 433.684 318.103L420.636 90.8008C420.493 88.7167 419.57 86.7631 418.053 85.3288C416.535 83.8945 414.534 83.0846 412.447 83.0602H153.469C152.477 83.0473 151.493 83.2408 150.58 83.6285C149.666 84.0162 148.843 84.5896 148.163 85.3124C147.483 86.0352 146.96 86.8915 146.628 87.8272C146.296 88.7629 146.162 89.7574 146.234 90.7477L159.335 318.039Z" fill="#263238"/>
<path d="M161.955 318.072L148.896 90.7698C148.821 89.7107 148.967 88.6477 149.323 87.6477C149.68 86.6478 150.239 85.7327 150.967 84.9604C151.695 84.188 152.575 83.5751 153.551 83.1605C154.528 82.7458 155.579 82.5384 156.64 82.5514H415.618C417.833 82.5782 419.957 83.4386 421.567 84.9614C423.177 86.4842 424.155 88.5579 424.306 90.7698L437.354 318.072C437.429 319.13 437.284 320.192 436.928 321.192C436.573 322.191 436.014 323.105 435.287 323.878C434.56 324.65 433.682 325.263 432.707 325.678C431.731 326.093 430.681 326.302 429.621 326.29H170.632C168.419 326.263 166.296 325.403 164.688 323.88C163.08 322.357 162.104 320.283 161.955 318.072Z" fill="white"/>
<path d="M429.622 326.789H170.633C168.294 326.755 166.054 325.843 164.355 324.235C162.655 322.626 161.621 320.438 161.457 318.103L148.398 90.8008C148.317 89.6732 148.471 88.5411 148.85 87.4762C149.229 86.4113 149.825 85.4367 150.6 84.6143C151.374 83.7918 152.311 83.1393 153.351 82.6982C154.391 82.257 155.511 82.0368 156.64 82.0515H415.619C417.961 82.0807 420.207 82.9916 421.91 84.603C423.612 86.2143 424.646 88.4081 424.805 90.7477L437.864 318.039C437.942 319.166 437.786 320.297 437.405 321.36C437.025 322.424 436.429 323.397 435.655 324.219C434.881 325.041 433.945 325.693 432.907 326.135C431.869 326.578 430.75 326.8 429.622 326.789ZM156.64 83.0602C155.649 83.0473 154.665 83.2408 153.751 83.6285C152.838 84.0162 152.015 84.5896 151.335 85.3124C150.655 86.0352 150.132 86.8915 149.8 87.8272C149.468 88.7629 149.334 89.7574 149.406 90.7477L162.454 318.039C162.597 320.123 163.518 322.076 165.033 323.512C166.548 324.947 168.547 325.761 170.633 325.791H429.622C430.613 325.8 431.595 325.605 432.507 325.216C433.419 324.827 434.24 324.254 434.92 323.531C435.599 322.809 436.122 321.954 436.455 321.02C436.789 320.086 436.925 319.093 436.856 318.103L423.808 90.8008C423.66 88.7184 422.736 86.7677 421.219 85.3343C419.703 83.901 417.704 83.0895 415.619 83.0602H156.64Z" fill="#263238"/>
<path d="M249.006 115.372H176.637C175.324 115.354 174.065 114.843 173.11 113.94C172.155 113.038 171.574 111.809 171.481 110.498C171.439 109.87 171.526 109.241 171.739 108.648C171.951 108.056 172.283 107.514 172.714 107.057C173.145 106.599 173.667 106.236 174.245 105.989C174.823 105.743 175.446 105.618 176.074 105.624H248.444C249.756 105.642 251.013 106.154 251.966 107.056C252.919 107.959 253.498 109.188 253.589 110.498C253.633 111.125 253.546 111.755 253.335 112.347C253.124 112.939 252.793 113.481 252.363 113.939C251.932 114.396 251.412 114.76 250.834 115.007C250.256 115.253 249.634 115.378 249.006 115.372Z" fill="#407BFF"/>
<path d="M235.714 132.275H177.602C176.291 132.254 175.035 131.742 174.083 130.84C173.13 129.937 172.55 128.71 172.457 127.401C172.414 126.773 172.5 126.144 172.711 125.551C172.921 124.958 173.252 124.415 173.683 123.957C174.113 123.498 174.633 123.133 175.211 122.886C175.789 122.638 176.412 122.512 177.04 122.517H235.141C236.456 122.535 237.716 123.047 238.671 123.952C239.626 124.857 240.207 126.088 240.297 127.401C240.339 128.028 240.252 128.657 240.04 129.248C239.829 129.839 239.498 130.381 239.067 130.838C238.637 131.296 238.118 131.659 237.541 131.907C236.964 132.154 236.342 132.279 235.714 132.275Z" fill="#407BFF"/>
<path d="M264.133 154.085H177.146C176.291 154.075 175.471 153.741 174.853 153.15C174.234 152.559 173.863 151.754 173.815 150.899C173.782 150.491 173.835 150.08 173.97 149.693C174.105 149.306 174.319 148.951 174.599 148.652C174.878 148.352 175.217 148.114 175.593 147.952C175.97 147.791 176.376 147.71 176.785 147.714H263.773C264.627 147.726 265.445 148.061 266.063 148.652C266.681 149.243 267.053 150.046 267.104 150.899C267.136 151.308 267.083 151.719 266.948 152.106C266.813 152.493 266.599 152.848 266.32 153.147C266.04 153.447 265.701 153.685 265.325 153.847C264.949 154.008 264.543 154.089 264.133 154.085Z" fill="#E0E0E0"/>
<path d="M279.823 164.13H187.288C186.433 164.118 185.615 163.783 184.997 163.192C184.379 162.601 184.007 161.798 183.957 160.944C183.924 160.536 183.977 160.125 184.112 159.738C184.247 159.351 184.461 158.996 184.74 158.697C185.02 158.397 185.359 158.159 185.735 157.997C186.111 157.836 186.517 157.755 186.927 157.759H279.462C280.317 157.771 281.135 158.106 281.753 158.697C282.371 159.288 282.742 160.091 282.793 160.944C282.826 161.353 282.773 161.764 282.638 162.151C282.503 162.538 282.289 162.893 282.009 163.192C281.73 163.492 281.391 163.73 281.015 163.891C280.638 164.053 280.232 164.134 279.823 164.13Z" fill="#E0E0E0"/>
<path d="M263.455 174.175H187.861C187.007 174.165 186.188 173.831 185.571 173.239C184.955 172.648 184.586 171.843 184.54 170.989C184.505 170.581 184.555 170.17 184.688 169.782C184.821 169.394 185.034 169.039 185.313 168.739C185.592 168.438 185.931 168.2 186.308 168.039C186.684 167.878 187.091 167.798 187.5 167.804H263.094C263.949 167.813 264.769 168.148 265.388 168.739C266.006 169.33 266.377 170.135 266.425 170.989C266.458 171.398 266.405 171.809 266.27 172.196C266.135 172.583 265.921 172.938 265.641 173.237C265.362 173.537 265.023 173.775 264.647 173.937C264.27 174.098 263.864 174.179 263.455 174.175Z" fill="#E0E0E0"/>
<path d="M255.499 184.219H188.445C187.589 184.209 186.77 183.875 186.151 183.284C185.533 182.692 185.162 181.888 185.114 181.033C185.08 180.625 185.131 180.214 185.265 179.828C185.399 179.441 185.612 179.086 185.89 178.786C186.169 178.486 186.507 178.248 186.883 178.086C187.259 177.925 187.664 177.843 188.073 177.848H255.138C255.993 177.86 256.811 178.195 257.429 178.786C258.047 179.376 258.419 180.179 258.469 181.033C258.502 181.442 258.449 181.853 258.314 182.24C258.179 182.627 257.965 182.981 257.686 183.281C257.406 183.581 257.067 183.819 256.691 183.98C256.315 184.142 255.909 184.223 255.499 184.219Z" fill="#E0E0E0"/>
<path d="M234.123 200.561H179.798C178.944 200.551 178.126 200.217 177.509 199.625C176.892 199.033 176.524 198.229 176.478 197.375C176.442 196.967 176.493 196.555 176.626 196.168C176.759 195.78 176.972 195.424 177.251 195.124C177.53 194.824 177.868 194.586 178.245 194.425C178.622 194.264 179.028 194.184 179.438 194.19H233.762C234.617 194.202 235.435 194.537 236.053 195.128C236.671 195.718 237.042 196.521 237.093 197.375C237.126 197.784 237.073 198.195 236.938 198.582C236.803 198.969 236.589 199.323 236.309 199.623C236.03 199.923 235.691 200.161 235.315 200.322C234.938 200.484 234.532 200.565 234.123 200.561Z" fill="#E0E0E0"/>
<path d="M249.504 224.398H190.745C190.336 224.393 189.93 224.475 189.553 224.636C189.177 224.797 188.838 225.036 188.559 225.335C188.279 225.635 188.065 225.989 187.93 226.377C187.795 226.764 187.742 227.174 187.775 227.583C187.826 228.437 188.197 229.24 188.815 229.831C189.433 230.422 190.251 230.757 191.106 230.768H249.886C250.296 230.774 250.703 230.694 251.08 230.533C251.457 230.373 251.796 230.134 252.076 229.834C252.356 229.534 252.57 229.179 252.704 228.791C252.839 228.404 252.89 227.992 252.856 227.583C252.808 226.725 252.434 225.917 251.811 225.325C251.188 224.733 250.363 224.402 249.504 224.398Z" fill="#E0E0E0"/>
<path d="M237.836 214.354H190.173C189.763 214.349 189.358 214.431 188.981 214.592C188.605 214.753 188.266 214.992 187.987 215.291C187.707 215.591 187.493 215.946 187.358 216.333C187.223 216.72 187.17 217.13 187.203 217.539C187.253 218.393 187.625 219.196 188.243 219.787C188.861 220.378 189.679 220.713 190.534 220.725H238.154C238.564 220.73 238.97 220.65 239.348 220.489C239.725 220.329 240.064 220.09 240.344 219.79C240.624 219.49 240.838 219.135 240.972 218.747C241.106 218.36 241.158 217.948 241.124 217.539C241.076 216.692 240.711 215.893 240.102 215.303C239.493 214.713 238.683 214.374 237.836 214.354Z" fill="#E0E0E0"/>
<path d="M242.683 204.309H189.642C189.233 204.304 188.827 204.386 188.451 204.547C188.075 204.709 187.737 204.947 187.459 205.247C187.18 205.547 186.967 205.901 186.833 206.288C186.7 206.675 186.648 207.086 186.682 207.494C186.73 208.347 187.1 209.15 187.716 209.741C188.332 210.332 189.149 210.668 190.002 210.68H243.097C243.506 210.684 243.912 210.603 244.288 210.441C244.665 210.28 245.004 210.042 245.283 209.742C245.562 209.442 245.776 209.088 245.911 208.701C246.046 208.314 246.099 207.903 246.067 207.494C246.015 206.631 245.636 205.821 245.007 205.229C244.378 204.636 243.546 204.307 242.683 204.309Z" fill="#E0E0E0"/>
<path d="M238.524 277.181H184.2C183.345 277.169 182.527 276.834 181.909 276.243C181.291 275.652 180.919 274.849 180.869 273.995C180.836 273.587 180.889 273.176 181.024 272.789C181.159 272.402 181.373 272.047 181.653 271.747C181.932 271.448 182.271 271.21 182.647 271.048C183.024 270.887 183.429 270.805 183.839 270.81H238.164C239.018 270.819 239.836 271.154 240.453 271.745C241.07 272.337 241.438 273.141 241.484 273.995C241.52 274.404 241.469 274.815 241.336 275.203C241.203 275.59 240.99 275.946 240.711 276.246C240.432 276.546 240.093 276.785 239.717 276.946C239.34 277.107 238.934 277.187 238.524 277.181Z" fill="#E0E0E0"/>
<path d="M253.929 301.019H195.148C194.738 301.013 194.332 301.093 193.955 301.254C193.577 301.415 193.238 301.653 192.958 301.953C192.678 302.253 192.465 302.608 192.33 302.996C192.196 303.384 192.144 303.795 192.178 304.204C192.229 305.058 192.601 305.861 193.218 306.452C193.836 307.043 194.655 307.378 195.509 307.39H254.289C254.699 307.394 255.105 307.313 255.481 307.151C255.857 306.99 256.196 306.752 256.476 306.452C256.755 306.152 256.969 305.798 257.104 305.411C257.239 305.024 257.292 304.613 257.26 304.204C257.211 303.35 256.84 302.545 256.222 301.954C255.603 301.362 254.784 301.028 253.929 301.019Z" fill="#E0E0E0"/>
<path d="M242.195 290.974H194.565C194.155 290.968 193.749 291.048 193.372 291.209C192.995 291.37 192.657 291.608 192.378 291.908C192.099 292.209 191.886 292.564 191.753 292.952C191.62 293.34 191.569 293.751 191.605 294.159C191.653 295.014 192.024 295.818 192.643 296.41C193.261 297.001 194.081 297.335 194.936 297.345H242.556C242.966 297.349 243.372 297.268 243.748 297.106C244.124 296.945 244.463 296.707 244.743 296.407C245.022 296.108 245.236 295.753 245.371 295.366C245.506 294.979 245.559 294.568 245.526 294.159C245.478 293.305 245.107 292.5 244.489 291.909C243.87 291.318 243.051 290.983 242.195 290.974Z" fill="#E0E0E0"/>
<path d="M247.086 280.929H194.045C193.635 280.923 193.228 281.003 192.851 281.164C192.474 281.325 192.135 281.563 191.855 281.863C191.575 282.163 191.361 282.518 191.227 282.906C191.092 283.294 191.041 283.706 191.075 284.114C191.125 284.968 191.497 285.771 192.115 286.362C192.733 286.953 193.551 287.288 194.406 287.3H247.5C247.909 287.304 248.315 287.223 248.692 287.062C249.068 286.9 249.407 286.662 249.686 286.362C249.966 286.063 250.18 285.708 250.315 285.321C250.449 284.934 250.502 284.523 250.47 284.114C250.421 283.251 250.043 282.439 249.413 281.846C248.783 281.253 247.95 280.925 247.086 280.929Z" fill="#E0E0E0"/>
<path d="M251.255 254.533H192.475C192.065 254.527 191.659 254.607 191.282 254.768C190.905 254.929 190.567 255.167 190.288 255.467C190.009 255.767 189.796 256.123 189.663 256.51C189.53 256.898 189.479 257.31 189.515 257.718C189.558 258.573 189.926 259.378 190.543 259.971C191.161 260.563 191.98 260.896 192.835 260.903H251.626C252.037 260.911 252.444 260.832 252.822 260.672C253.2 260.511 253.54 260.273 253.82 259.973C254.1 259.673 254.314 259.317 254.448 258.928C254.582 258.54 254.632 258.127 254.596 257.718C254.548 256.861 254.176 256.056 253.555 255.464C252.934 254.872 252.112 254.539 251.255 254.533Z" fill="#E0E0E0"/>
<path d="M239.522 244.487H191.901C191.492 244.483 191.086 244.564 190.71 244.726C190.333 244.887 189.994 245.125 189.715 245.425C189.436 245.725 189.222 246.079 189.087 246.466C188.952 246.853 188.899 247.264 188.931 247.673C188.979 248.528 189.35 249.332 189.969 249.923C190.587 250.515 191.407 250.849 192.262 250.858H239.882C240.292 250.864 240.699 250.784 241.076 250.623C241.453 250.462 241.793 250.224 242.073 249.924C242.352 249.624 242.566 249.269 242.701 248.881C242.835 248.493 242.887 248.082 242.853 247.673C242.804 246.818 242.433 246.014 241.815 245.422C241.197 244.831 240.377 244.497 239.522 244.487Z" fill="#E0E0E0"/>
<path d="M244.413 234.443H191.372C190.963 234.438 190.558 234.519 190.182 234.681C189.806 234.842 189.468 235.081 189.189 235.381C188.91 235.68 188.697 236.035 188.564 236.422C188.43 236.809 188.379 237.22 188.413 237.628C188.461 238.483 188.832 239.287 189.45 239.878C190.069 240.47 190.888 240.804 191.743 240.813H244.785C245.195 240.819 245.601 240.739 245.978 240.578C246.356 240.417 246.695 240.179 246.975 239.879C247.254 239.579 247.468 239.224 247.603 238.836C247.737 238.449 247.789 238.037 247.755 237.628C247.704 236.772 247.331 235.968 246.711 235.377C246.09 234.786 245.27 234.452 244.413 234.443Z" fill="#E0E0E0"/>
<path d="M343.982 151.983H317.748C310.67 151.898 303.884 149.147 298.741 144.279C293.598 139.411 290.476 132.782 289.997 125.714C289.757 122.33 290.222 118.934 291.36 115.739C292.499 112.545 294.287 109.621 296.612 107.153C298.937 104.686 301.748 102.727 304.867 101.402C307.987 100.077 311.347 99.4141 314.735 99.4549C321.811 99.5376 328.596 102.286 333.737 107.153C338.878 112.02 341.998 118.647 342.476 125.714L343.982 151.983Z" fill="#407BFF"/>
<path d="M317.482 147.427C311.631 147.358 306.022 145.084 301.771 141.06C297.521 137.036 294.941 131.556 294.547 125.713C294.353 122.919 294.74 120.116 295.682 117.48C296.625 114.843 298.103 112.431 300.024 110.395C301.945 108.358 304.266 106.743 306.842 105.649C309.417 104.556 312.191 104.008 314.989 104.041C320.839 104.108 326.45 106.379 330.702 110.401C334.955 114.423 337.537 119.902 337.934 125.745C338.13 128.54 337.744 131.346 336.801 133.984C335.858 136.623 334.379 139.037 332.457 141.074C330.535 143.112 328.212 144.728 325.635 145.822C323.057 146.915 320.281 147.462 317.482 147.427Z" fill="white"/>
<path d="M318.819 116.921L319.88 134.505H315.022L314.364 122.984C313.658 123.543 312.897 124.031 312.094 124.439C311.223 124.868 310.319 125.223 309.389 125.5L309.166 121.561C310.507 121.171 311.761 120.526 312.858 119.66C313.724 118.92 314.398 117.98 314.82 116.921H318.819Z" fill="#263238"/>
<path d="M360.18 204.5H386.414C389.802 204.54 393.161 203.877 396.28 202.552C399.399 201.227 402.209 199.268 404.534 196.801C406.858 194.333 408.645 191.409 409.782 188.214C410.92 185.02 411.382 181.624 411.142 178.241C410.662 171.175 407.541 164.549 402.4 159.683C397.26 154.817 390.476 152.067 383.401 151.982C380.013 151.941 376.653 152.605 373.533 153.93C370.414 155.255 367.603 157.213 365.278 159.681C362.953 162.148 361.165 165.072 360.026 168.267C358.888 171.461 358.423 174.857 358.663 178.241L360.18 204.5Z" fill="#407BFF"/>
<path d="M386.15 199.955C388.952 199.988 391.73 199.44 394.309 198.344C396.888 197.248 399.212 195.629 401.134 193.588C403.056 191.547 404.535 189.13 405.476 186.488C406.417 183.847 406.801 181.038 406.602 178.241C406.205 172.397 403.624 166.917 399.371 162.893C395.119 158.869 389.508 156.596 383.657 156.527C380.856 156.495 378.079 157.044 375.501 158.141C372.923 159.237 370.6 160.857 368.679 162.898C366.759 164.938 365.281 167.355 364.341 169.996C363.4 172.637 363.017 175.444 363.215 178.241C363.612 184.083 366.192 189.561 370.442 193.585C374.692 197.609 380.3 199.883 386.15 199.955Z" fill="white"/>
<path d="M393.077 187.033H378.681C378.759 185.611 379.193 184.23 379.944 183.02C381.164 181.296 382.671 179.794 384.399 178.581C385.356 177.905 386.216 177.101 386.956 176.192C387.29 175.749 387.469 175.208 387.465 174.653C387.451 174.394 387.385 174.141 387.27 173.909C387.155 173.677 386.994 173.471 386.797 173.304C386.39 172.929 385.854 172.727 385.301 172.741C385.03 172.728 384.76 172.772 384.507 172.871C384.255 172.97 384.027 173.121 383.837 173.315C383.396 173.902 383.161 174.619 383.169 175.353L378.342 174.971C378.376 173.858 378.666 172.768 379.19 171.786C379.667 171.005 380.375 170.392 381.217 170.034C382.417 169.577 383.699 169.371 384.983 169.428C386.332 169.376 387.68 169.57 388.961 170.002C389.885 170.365 390.687 170.983 391.273 171.786C391.849 172.564 392.184 173.494 392.239 174.461C392.296 175.523 392.033 176.577 391.485 177.488C390.641 178.746 389.56 179.828 388.303 180.673C387.369 181.342 386.754 181.809 386.446 182.075C386.139 182.34 385.768 182.701 385.386 183.136H392.886L393.077 187.033Z" fill="#263238"/>
<g opacity="0.4">
<path opacity="0.4" d="M350.018 257.028H323.762C316.686 256.943 309.901 254.194 304.759 249.328C299.616 244.462 296.493 237.836 296.011 230.769C295.77 227.386 296.233 223.989 297.371 220.794C298.508 217.599 300.295 214.674 302.619 212.206C304.943 209.737 307.753 207.778 310.872 206.451C313.991 205.125 317.35 204.46 320.739 204.5C327.817 204.585 334.603 207.335 339.746 212.204C344.888 217.072 348.01 223.7 348.49 230.769L350.018 257.028Z" fill="#407BFF"/>
</g>
<path d="M323.518 252.473C317.668 252.406 312.059 250.135 307.808 246.112C303.557 242.09 300.977 236.611 300.583 230.769C300.383 227.972 300.765 225.164 301.705 222.523C302.645 219.881 304.122 217.463 306.044 215.423C307.965 213.382 310.288 211.762 312.867 210.666C315.446 209.57 318.224 209.022 321.025 209.055C326.868 209.135 332.467 211.413 336.708 215.437C340.95 219.46 343.524 224.934 343.917 230.769C344.115 233.562 343.733 236.365 342.795 239.002C341.857 241.64 340.383 244.054 338.467 246.093C336.55 248.132 334.232 249.752 331.66 250.85C329.087 251.948 326.315 252.5 323.518 252.473Z" fill="white"/>
<path d="M319.719 227.116L315.137 226.309C315.356 224.991 316.065 223.804 317.12 222.986C318.455 222.131 320.027 221.725 321.608 221.829C323.357 221.684 325.105 222.129 326.572 223.092C327.07 223.467 327.479 223.946 327.77 224.497C328.062 225.047 328.229 225.655 328.259 226.278C328.314 226.99 328.139 227.7 327.76 228.306C327.32 228.975 326.718 229.523 326.01 229.898C326.555 230.017 327.08 230.214 327.57 230.482C328.151 230.821 328.64 231.299 328.991 231.873C329.357 232.504 329.561 233.215 329.585 233.944C329.642 234.949 329.426 235.951 328.959 236.843C328.496 237.759 327.753 238.503 326.838 238.966C325.631 239.516 324.311 239.77 322.987 239.709C321.712 239.758 320.439 239.571 319.231 239.157C318.34 238.811 317.544 238.258 316.908 237.543C316.237 236.754 315.725 235.842 315.402 234.857L320.165 234.22C320.297 234.969 320.639 235.665 321.152 236.227C321.582 236.595 322.135 236.788 322.7 236.768C322.999 236.778 323.296 236.719 323.568 236.595C323.84 236.472 324.081 236.288 324.27 236.057C324.684 235.523 324.875 234.849 324.801 234.177C324.802 233.486 324.544 232.82 324.079 232.309C323.851 232.09 323.582 231.918 323.287 231.805C322.992 231.692 322.677 231.64 322.361 231.65C321.838 231.676 321.32 231.772 320.823 231.937V228.497C321.033 228.533 321.246 228.554 321.459 228.56C321.743 228.568 322.025 228.518 322.29 228.414C322.554 228.31 322.795 228.154 322.997 227.955C323.187 227.773 323.334 227.55 323.427 227.304C323.521 227.058 323.559 226.795 323.538 226.532C323.529 226.057 323.335 225.603 322.997 225.269C322.633 224.946 322.157 224.778 321.671 224.802C321.424 224.79 321.177 224.829 320.945 224.917C320.713 225.005 320.502 225.139 320.324 225.311C319.93 225.83 319.717 226.464 319.719 227.116Z" fill="#263238"/>
<path d="M366.195 309.544H392.429C395.818 309.585 399.178 308.922 402.297 307.597C405.417 306.272 408.228 304.314 410.552 301.846C412.877 299.378 414.666 296.455 415.804 293.26C416.943 290.065 417.407 286.669 417.168 283.286C416.686 276.219 413.562 269.593 408.42 264.727C403.277 259.861 396.493 257.112 389.417 257.027C386.029 256.986 382.669 257.649 379.55 258.975C376.431 260.3 373.621 262.258 371.297 264.726C368.973 267.194 367.186 270.118 366.048 273.312C364.911 276.507 364.448 279.903 364.689 283.286L366.195 309.544Z" fill="#E0E0E0"/>
<path d="M392.186 305C394.987 305.034 397.765 304.485 400.344 303.389C402.922 302.293 405.246 300.673 407.167 298.633C409.088 296.592 410.565 294.174 411.505 291.532C412.445 288.891 412.828 286.083 412.628 283.286C412.231 277.444 409.651 271.966 405.401 267.942C401.151 263.918 395.543 261.644 389.693 261.572C386.891 261.538 384.113 262.087 381.534 263.183C378.955 264.279 376.631 265.898 374.708 267.939C372.786 269.979 371.308 272.397 370.367 275.038C369.426 277.68 369.042 280.488 369.24 283.286C369.637 289.13 372.219 294.609 376.471 298.634C380.724 302.658 386.334 304.931 392.186 305Z" fill="white"/>
<path d="M392.089 288.85H383.348L383.125 284.9L391.262 274.494H395.452L396.056 285.112H398.231L398.443 288.839H396.322L396.513 292.025H392.333L392.089 288.85ZM391.877 285.123L391.559 279.676L387.252 285.123H391.877Z" fill="#E0E0E0"/>
<path d="M356.648 258.004C356.411 258.005 356.183 257.915 356.01 257.753C355.836 257.592 355.731 257.37 355.715 257.134L349.647 152.035C349.628 151.907 349.636 151.776 349.67 151.651C349.704 151.526 349.764 151.409 349.846 151.308C349.928 151.208 350.03 151.125 350.146 151.066C350.261 151.007 350.388 150.973 350.517 150.965C350.646 150.958 350.776 150.978 350.897 151.023C351.019 151.069 351.13 151.139 351.222 151.23C351.315 151.32 351.388 151.429 351.436 151.55C351.485 151.67 351.508 151.799 351.503 151.929L357.529 256.942C357.536 257.064 357.519 257.185 357.479 257.3C357.439 257.415 357.377 257.521 357.296 257.612C357.216 257.702 357.118 257.776 357.008 257.829C356.899 257.882 356.78 257.913 356.659 257.919L356.648 258.004Z" fill="#407BFF"/>
<path d="M359.617 310.479C359.38 310.48 359.151 310.388 358.979 310.224C358.807 310.06 358.705 309.836 358.694 309.598L355.671 257.081C355.659 256.834 355.745 256.592 355.91 256.407C356.074 256.222 356.305 256.11 356.551 256.093C356.674 256.086 356.796 256.103 356.911 256.144C357.027 256.185 357.133 256.248 357.224 256.33C357.314 256.412 357.388 256.511 357.44 256.622C357.492 256.732 357.522 256.852 357.527 256.975L360.551 309.492C360.558 309.615 360.541 309.738 360.5 309.854C360.46 309.97 360.397 310.077 360.315 310.169C360.233 310.26 360.134 310.335 360.024 310.388C359.913 310.442 359.793 310.473 359.67 310.479H359.617Z" fill="#E0E0E0"/>
<path d="M352.532 151.982C352.55 152.235 352.515 152.488 352.43 152.727C352.345 152.965 352.212 153.184 352.038 153.368C351.865 153.553 351.656 153.699 351.423 153.799C351.19 153.898 350.94 153.949 350.687 153.946C350.15 153.948 349.634 153.746 349.24 153.382C348.846 153.017 348.605 152.517 348.565 151.982C348.547 151.729 348.582 151.474 348.668 151.235C348.754 150.996 348.888 150.777 349.063 150.592C349.237 150.408 349.448 150.261 349.682 150.162C349.916 150.063 350.168 150.014 350.421 150.018C350.956 150.019 351.47 150.222 351.861 150.586C352.253 150.95 352.492 151.449 352.532 151.982Z" fill="white"/>
<path d="M350.686 154.871C349.922 154.862 349.188 154.566 348.632 154.04C348.076 153.515 347.738 152.8 347.684 152.036C347.658 151.656 347.711 151.274 347.839 150.916C347.967 150.557 348.168 150.229 348.429 149.951C348.69 149.674 349.005 149.454 349.356 149.305C349.706 149.155 350.083 149.08 350.464 149.084C351.229 149.096 351.963 149.394 352.519 149.921C353.075 150.448 353.413 151.165 353.466 151.93C353.491 152.309 353.437 152.689 353.308 153.047C353.179 153.404 352.978 153.731 352.717 154.007C352.457 154.284 352.141 154.503 351.792 154.651C351.443 154.8 351.066 154.875 350.686 154.871ZM350.464 150.942C350.337 150.941 350.212 150.966 350.095 151.016C349.978 151.065 349.873 151.138 349.785 151.229C349.696 151.321 349.628 151.431 349.585 151.552C349.543 151.673 349.528 151.802 349.541 151.93C349.569 152.216 349.701 152.482 349.913 152.678C350.124 152.874 350.399 152.985 350.686 152.992C350.814 152.995 350.94 152.971 351.057 152.922C351.174 152.872 351.279 152.798 351.365 152.705C351.45 152.612 351.516 152.503 351.558 152.385C351.6 152.266 351.617 152.14 351.609 152.015C351.583 151.726 351.452 151.458 351.241 151.26C351.03 151.062 350.753 150.949 350.464 150.942Z" fill="#407BFF"/>
<path d="M355.586 204.5C355.602 204.753 355.566 205.006 355.48 205.245C355.393 205.484 355.259 205.702 355.085 205.886C354.911 206.07 354.7 206.217 354.467 206.316C354.234 206.416 353.983 206.466 353.73 206.464C353.193 206.465 352.677 206.264 352.283 205.899C351.889 205.535 351.648 205.035 351.608 204.5C351.59 204.247 351.625 203.993 351.71 203.755C351.795 203.516 351.929 203.298 352.102 203.114C352.275 202.929 352.485 202.783 352.717 202.683C352.95 202.583 353.201 202.533 353.454 202.535C353.992 202.531 354.511 202.732 354.907 203.096C355.303 203.461 355.546 203.963 355.586 204.5Z" fill="white"/>
<path d="M353.698 207.399C352.931 207.39 352.196 207.092 351.64 206.564C351.083 206.037 350.746 205.319 350.695 204.553C350.666 204.166 350.718 203.777 350.848 203.412C350.977 203.046 351.182 202.711 351.449 202.43C351.709 202.155 352.024 201.936 352.372 201.788C352.721 201.64 353.096 201.566 353.475 201.569C354.24 201.578 354.973 201.875 355.529 202.4C356.085 202.925 356.424 203.641 356.477 204.405C356.503 204.785 356.451 205.166 356.323 205.525C356.195 205.884 355.994 206.212 355.733 206.489C355.472 206.766 355.156 206.987 354.806 207.136C354.456 207.285 354.078 207.36 353.698 207.356V207.399ZM353.475 203.47C353.349 203.467 353.224 203.49 353.107 203.538C352.99 203.585 352.884 203.656 352.796 203.746C352.626 203.939 352.538 204.19 352.552 204.447C352.58 204.733 352.713 205 352.924 205.195C353.135 205.391 353.41 205.502 353.698 205.509C353.824 205.51 353.95 205.485 354.067 205.435C354.183 205.386 354.289 205.313 354.377 205.222C354.463 205.129 354.53 205.018 354.572 204.897C354.614 204.777 354.63 204.649 354.621 204.521C354.589 204.235 354.455 203.97 354.242 203.776C354.029 203.582 353.752 203.474 353.464 203.47H353.475Z" fill="#407BFF"/>
<path d="M358.568 257.028C358.586 257.281 358.551 257.536 358.465 257.775C358.379 258.014 358.245 258.233 358.071 258.418C357.896 258.602 357.685 258.749 357.451 258.848C357.217 258.947 356.966 258.996 356.712 258.992C356.185 258.981 355.681 258.773 355.299 258.41C354.916 258.047 354.682 257.554 354.643 257.028C354.626 256.775 354.66 256.522 354.745 256.283C354.83 256.045 354.964 255.826 355.137 255.642C355.31 255.457 355.52 255.311 355.753 255.211C355.985 255.112 356.236 255.061 356.489 255.064C357.018 255.073 357.524 255.279 357.909 255.643C358.293 256.006 358.529 256.5 358.568 257.028Z" fill="white"/>
<path d="M356.712 259.926C355.947 259.912 355.215 259.613 354.659 259.086C354.104 258.56 353.765 257.844 353.71 257.08C353.679 256.693 353.73 256.304 353.86 255.938C353.99 255.572 354.195 255.238 354.463 254.957C354.722 254.678 355.035 254.457 355.384 254.307C355.733 254.157 356.109 254.082 356.489 254.086C357.256 254.095 357.99 254.393 358.547 254.921C359.103 255.448 359.441 256.166 359.491 256.932C359.526 257.318 359.478 257.708 359.35 258.074C359.222 258.44 359.017 258.775 358.749 259.055C358.487 259.333 358.172 259.554 357.821 259.703C357.471 259.853 357.093 259.929 356.712 259.926ZM356.489 255.987C356.363 255.987 356.237 256.012 356.121 256.061C356.004 256.11 355.898 256.183 355.81 256.273C355.725 256.368 355.66 256.479 355.618 256.599C355.576 256.72 355.559 256.847 355.566 256.974C355.597 257.26 355.73 257.525 355.94 257.72C356.151 257.915 356.425 258.027 356.712 258.036C356.838 258.039 356.963 258.016 357.08 257.968C357.197 257.921 357.303 257.85 357.391 257.76C357.479 257.668 357.547 257.557 357.589 257.436C357.631 257.315 357.647 257.187 357.635 257.059C357.609 256.771 357.478 256.502 357.266 256.304C357.055 256.106 356.778 255.993 356.489 255.987Z" fill="#E0E0E0"/>
<path d="M361.581 309.545C361.601 309.798 361.567 310.052 361.482 310.291C361.398 310.53 361.265 310.749 361.091 310.934C360.917 311.119 360.707 311.265 360.474 311.364C360.24 311.463 359.989 311.513 359.735 311.509C359.199 311.51 358.682 311.309 358.289 310.944C357.895 310.58 357.654 310.08 357.614 309.545C357.596 309.291 357.631 309.037 357.717 308.797C357.803 308.558 357.937 308.339 358.111 308.155C358.286 307.97 358.497 307.824 358.731 307.725C358.965 307.626 359.216 307.577 359.47 307.58C360.005 307.581 360.519 307.784 360.91 308.149C361.302 308.513 361.541 309.011 361.581 309.545Z" fill="white"/>
<path d="M359.735 312.444C358.97 312.435 358.237 312.138 357.68 311.613C357.124 311.088 356.786 310.372 356.733 309.609C356.7 309.222 356.749 308.833 356.877 308.467C357.005 308.101 357.209 307.767 357.475 307.485C357.739 307.211 358.055 306.993 358.405 306.845C358.755 306.698 359.132 306.623 359.512 306.625C360.276 306.636 361.008 306.934 361.564 307.458C362.119 307.983 362.458 308.697 362.514 309.46C362.54 309.84 362.488 310.222 362.36 310.58C362.232 310.939 362.031 311.268 361.77 311.545C361.509 311.822 361.193 312.042 360.843 312.192C360.493 312.341 360.115 312.416 359.735 312.412V312.444ZM359.512 308.515C359.385 308.512 359.259 308.535 359.141 308.585C359.024 308.634 358.919 308.708 358.833 308.802C358.744 308.892 358.676 309 358.634 309.12C358.592 309.239 358.576 309.366 358.589 309.492C358.617 309.778 358.75 310.045 358.961 310.24C359.172 310.436 359.447 310.547 359.735 310.554C359.862 310.556 359.988 310.531 360.105 310.481C360.222 310.431 360.328 310.358 360.415 310.265C360.501 310.172 360.568 310.061 360.61 309.941C360.652 309.821 360.668 309.693 360.658 309.566C360.627 309.282 360.493 309.018 360.283 308.825C360.072 308.631 359.798 308.521 359.512 308.515Z" fill="#E0E0E0"/>
<path d="M517.416 171.53C518.127 172.592 518.7 173.59 519.283 174.631C519.867 175.671 520.408 176.669 520.938 177.699C521.999 179.77 522.986 181.872 523.898 184.017C525.729 188.33 527.201 192.787 528.3 197.343L528.672 199.084L528.852 199.955V200.167L528.926 200.613C528.973 200.895 529.005 201.178 529.022 201.463C529.057 203.217 528.694 204.956 527.961 206.549C526.878 208.897 525.471 211.081 523.781 213.037C520.766 216.605 517.349 219.812 513.597 222.593L510.203 219.025C512.84 215.676 515.29 212.185 517.544 208.566C518.542 206.981 519.354 205.285 519.962 203.512C520.134 203.066 520.189 202.584 520.121 202.11L520.058 201.93L519.846 201.176L519.4 199.69C518.119 195.704 516.588 191.803 514.817 188.01C513.937 186.088 512.971 184.198 512.017 182.318C511.529 181.373 511.03 180.439 510.521 179.526C510.012 178.613 509.46 177.657 509.004 176.882L517.416 171.53Z" fill="#FF8B7B"/>
<path d="M512.673 217.124L504.695 217.453L507.878 224.302C507.878 224.302 513.553 223.983 515.685 220.532L512.673 217.124Z" fill="#FF8B7B"/>
<path d="M502.723 220.532L504.696 226.67L507.91 224.302L504.696 217.453L502.723 220.532Z" fill="#FF8B7B"/>
<path d="M497.811 440.105C498.676 440.084 499.537 439.97 500.378 439.765C500.423 439.754 500.464 439.73 500.496 439.696C500.528 439.662 500.55 439.62 500.558 439.574C500.564 439.53 500.558 439.485 500.542 439.444C500.525 439.403 500.498 439.367 500.463 439.34C500.134 439.128 497.206 437.217 496.071 437.737C495.943 437.793 495.832 437.883 495.749 437.997C495.667 438.111 495.617 438.245 495.604 438.385C495.553 438.602 495.56 438.829 495.623 439.043C495.686 439.257 495.804 439.451 495.965 439.606C496.503 439.983 497.156 440.159 497.811 440.105ZM499.731 439.436C498.034 439.776 496.771 439.712 496.283 439.266C496.178 439.161 496.102 439.03 496.063 438.887C496.024 438.743 496.023 438.592 496.061 438.448C496.061 438.247 496.177 438.183 496.252 438.151C496.856 437.875 498.543 438.703 499.731 439.436Z" fill="#407BFF"/>
<path d="M500.326 439.765C500.364 439.776 500.404 439.776 500.442 439.765C500.477 439.747 500.506 439.719 500.526 439.685C500.547 439.652 500.558 439.613 500.559 439.574C500.559 439.447 500.559 436.654 499.498 435.72C499.371 435.599 499.218 435.509 499.051 435.456C498.884 435.402 498.707 435.387 498.533 435.412C498.35 435.415 498.172 435.479 498.03 435.594C497.888 435.71 497.788 435.87 497.748 436.049C497.515 437.111 499.254 439.234 500.167 439.765C500.218 439.783 500.274 439.783 500.326 439.765ZM498.734 435.826C498.921 435.825 499.1 435.898 499.233 436.028C499.859 436.591 500.05 438.151 500.092 439.086C499.18 438.353 498.098 436.782 498.246 436.113C498.246 435.996 498.331 435.869 498.628 435.837L498.734 435.826Z" fill="#407BFF"/>
<path d="M424.318 435.773C424.36 435.777 424.403 435.768 424.441 435.749C424.478 435.729 424.509 435.699 424.531 435.662C424.552 435.626 424.562 435.583 424.56 435.541C424.558 435.499 424.544 435.458 424.52 435.423C424.223 435.041 421.613 431.76 420.202 431.664H420.107C419.979 431.666 419.854 431.701 419.744 431.767C419.635 431.832 419.544 431.925 419.481 432.036C419.367 432.204 419.297 432.398 419.278 432.601C419.26 432.803 419.293 433.007 419.375 433.193C419.937 434.478 422.685 435.317 424.276 435.773H424.318ZM420.192 432.142C420.966 432.142 422.6 433.841 423.714 435.168C421.592 434.552 420.128 433.766 419.81 433.044C419.757 432.921 419.736 432.786 419.749 432.653C419.762 432.519 419.808 432.391 419.884 432.28C419.908 432.233 419.945 432.194 419.99 432.166C420.034 432.138 420.086 432.122 420.139 432.121L420.192 432.142Z" fill="#407BFF"/>
<path d="M424.318 435.773C424.358 435.769 424.396 435.753 424.427 435.729C424.459 435.705 424.484 435.672 424.499 435.635C424.499 435.54 425.464 433.151 424.785 431.717C424.685 431.508 424.544 431.32 424.371 431.165C424.198 431.01 423.996 430.891 423.777 430.815C423.162 430.592 422.844 430.815 422.716 431.016C422.069 431.898 423.279 434.733 424.127 435.699C424.151 435.726 424.181 435.746 424.214 435.759C424.247 435.772 424.283 435.777 424.318 435.773ZM423.395 431.176C423.49 431.181 423.584 431.202 423.671 431.239C423.834 431.292 423.983 431.379 424.11 431.495C424.236 431.61 424.336 431.751 424.403 431.908C424.704 432.958 424.652 434.077 424.255 435.094C423.47 433.947 422.748 431.823 423.13 431.292C423.16 431.251 423.2 431.218 423.247 431.198C423.294 431.177 423.345 431.17 423.395 431.176Z" fill="#407BFF"/>
<path d="M494.225 138.423C493.164 144.21 490.661 156.835 494.713 160.594C494.713 160.594 493.175 166.476 482.461 166.678C470.675 166.911 476.796 160.944 476.796 160.944C483.214 159.287 483.023 154.573 481.877 150.071L494.225 138.423Z" fill="#FF8B7B"/>
<path d="M496.316 155.21C496.022 154.439 495.441 153.813 494.696 153.462C493.95 153.112 493.097 153.064 492.317 153.33C488.632 154.463 484.825 155.151 480.977 155.38C480.29 155.425 479.625 155.644 479.045 156.015C478.464 156.387 477.987 156.898 477.656 157.503L473.105 165.531L499.053 162.345L496.316 155.21Z" fill="#407BFF"/>
<path d="M470.494 128.845C470.562 128.822 470.626 128.789 470.685 128.749C470.779 128.672 470.84 128.561 470.854 128.44C470.868 128.319 470.834 128.198 470.759 128.102C470.32 127.521 469.744 127.057 469.084 126.75C468.424 126.443 467.699 126.302 466.972 126.339C466.851 126.35 466.74 126.409 466.662 126.503C466.585 126.596 466.547 126.717 466.559 126.838C466.57 126.959 466.629 127.071 466.722 127.148C466.816 127.226 466.936 127.263 467.057 127.252C467.632 127.236 468.202 127.359 468.719 127.61C469.236 127.862 469.685 128.234 470.027 128.696C470.084 128.762 470.157 128.81 470.24 128.837C470.322 128.863 470.41 128.866 470.494 128.845Z" fill="#263238"/>
<path d="M468.034 134.525C467.489 136.396 466.689 138.182 465.658 139.834C466.08 140.083 466.552 140.236 467.04 140.281C467.527 140.327 468.019 140.265 468.48 140.1L468.034 134.525Z" fill="#FF5652"/>
<path d="M468.671 133.124C468.735 133.899 468.364 134.579 467.854 134.622C467.345 134.664 466.889 134.08 466.794 133.294C466.698 132.509 467.091 131.84 467.6 131.797C468.109 131.755 468.608 132.339 468.671 133.124Z" fill="#263238"/>
<path d="M467.853 131.818L465.943 131.446C465.943 131.446 467.025 132.827 467.853 131.818Z" fill="#263238"/>
<path d="M433.589 441.91L424.18 438.661L430.82 417.722L440.219 420.96L433.589 441.91Z" fill="#FF8B7B"/>
<path d="M511.187 439.829H501.47L500.59 417.329H510.307L511.187 439.829Z" fill="#FF8B7B"/>
<path d="M501.163 438.417H512.068C512.254 438.415 512.433 438.481 512.574 438.602C512.714 438.723 512.806 438.891 512.832 439.075L513.956 447.718C513.976 447.938 513.949 448.158 513.878 448.366C513.807 448.575 513.694 448.766 513.545 448.928C513.396 449.089 513.216 449.218 513.014 449.306C512.813 449.394 512.595 449.439 512.376 449.439C508.567 449.375 506.743 449.152 501.948 449.152C498.988 449.152 494.681 449.46 490.597 449.46C486.513 449.46 486.354 445.425 488.072 445.064C495.7 443.429 496.93 441.167 499.529 439.012C499.987 438.627 500.565 438.416 501.163 438.417Z" fill="#263238"/>
<path d="M425.41 434.839L435.499 439.596C435.671 439.667 435.811 439.8 435.892 439.968C435.972 440.137 435.987 440.33 435.934 440.509L433.335 448.621C433.254 448.827 433.13 449.014 432.973 449.17C432.816 449.325 432.628 449.446 432.421 449.525C432.215 449.604 431.994 449.639 431.773 449.628C431.552 449.617 431.336 449.559 431.139 449.46C427.649 447.75 426.047 446.752 421.591 444.661C418.854 443.376 413.105 440.987 409.307 439.213C405.509 437.44 407.09 433.809 408.819 434.233C416.563 436.113 420.318 435.433 423.67 434.658C424.255 434.529 424.865 434.593 425.41 434.839Z" fill="#263238"/>
<path opacity="0.2" d="M430.82 417.722L427.256 428.945L436.803 431.769L440.23 420.971L430.82 417.722Z" fill="black"/>
<path opacity="0.2" d="M510.307 417.329H500.59L501.046 428.935H510.763L510.307 417.329Z" fill="black"/>
<path d="M513.701 161.825C517.743 162.632 522.135 177.052 522.135 177.052L510.795 189.411C510.795 189.411 501.247 175.969 503.146 170.914C505.162 165.627 508.928 160.87 513.701 161.825Z" fill="#407BFF"/>
<path opacity="0.4" d="M513.701 161.825C517.743 162.632 522.135 177.052 522.135 177.052L510.795 189.411C510.795 189.411 501.247 175.969 503.146 170.914C505.162 165.627 508.928 160.87 513.701 161.825Z" fill="white"/>
<path opacity="0.4" d="M507.359 171.19C505.311 169.353 503.932 169.937 502.999 171.445C502.097 175.777 507.645 184.696 509.883 188.073C510.88 183.974 512.005 175.342 507.359 171.19Z" fill="#407BFF"/>
<path d="M461.827 165.17C461.106 169.417 460.947 182.371 467.577 221.616L507.04 220.851C506.287 204.807 506.212 194.911 513.702 161.825C508.164 160.792 502.559 160.164 496.93 159.946C490.957 159.635 484.969 159.752 479.013 160.296C473.274 160.933 466.972 162.186 464.161 162.781C463.576 162.895 463.039 163.185 462.623 163.611C462.206 164.038 461.928 164.582 461.827 165.17Z" fill="#407BFF"/>
<path opacity="0.4" d="M461.827 165.17C461.106 169.417 460.947 182.371 467.577 221.616L507.04 220.851C506.287 204.807 506.212 194.911 513.702 161.825C508.164 160.792 502.559 160.164 496.93 159.946C490.957 159.635 484.969 159.752 479.013 160.296C473.274 160.933 466.972 162.186 464.161 162.781C463.576 162.895 463.039 163.185 462.623 163.611C462.206 164.038 461.928 164.582 461.827 165.17Z" fill="white"/>
<path d="M494.651 127.953C494.831 137.616 495.118 141.693 490.684 147.066C484.011 155.167 472.162 153.437 469.107 144.071C466.348 135.641 466.508 121.253 475.567 116.549C477.539 115.492 479.752 114.963 481.989 115.015C484.226 115.067 486.412 115.698 488.333 116.846C490.254 117.994 491.846 119.621 492.953 121.567C494.06 123.513 494.645 125.713 494.651 127.953Z" fill="#FF8B7B"/>
<path d="M467.854 125.448C475.523 123.908 485.591 121.317 487.595 115.711C489.6 110.105 466.899 105.73 467.854 125.448Z" fill="#263238"/>
<path d="M473.752 127.985C472.691 127.444 470.687 124.067 471.928 118.206C473.169 112.345 482.419 107.099 489.665 111.23C482.006 114.182 473.752 127.985 473.752 127.985Z" fill="#407BFF"/>
<path d="M473.105 121.912C471.811 127.338 473.105 131.214 475.227 133.21C475.227 133.21 469.923 168.186 496.443 164.385C522.964 160.584 507.507 120.851 501.302 115.021C495.096 109.192 478.462 106.314 473.105 121.912Z" fill="#263238"/>
<path d="M473.265 130.353C472.179 132.095 471.674 134.136 471.822 136.183C472.013 138.773 474.039 138.773 475.524 137.244C477.009 135.715 478.314 132.509 477.561 130.523C476.808 128.538 474.4 128.463 473.265 130.353Z" fill="#FF8B7B"/>
<path d="M478.006 221.414C478.006 221.414 484.021 287.948 490.089 325.398C494.99 355.638 499.137 426.397 499.137 426.397H512.376C512.376 426.397 516.694 357.379 514.127 327.373C507.613 251.57 519.335 244.488 507.041 220.852L478.006 221.414Z" fill="#407BFF"/>
<path opacity="0.4" d="M491.467 243.659C488.02 248.735 483.416 254.585 481.92 260.765C483.108 271.988 484.498 284.401 486.004 296.336C489.653 286.291 495.891 266.233 491.467 243.659Z" fill="black"/>
<path d="M467.577 221.615C467.577 221.615 451.761 293.214 446.361 322.382C440.707 352.728 427.627 421.523 427.627 421.523L440.834 428.319C440.834 428.319 465.233 345.497 468.5 330.228C477.114 298.31 504.696 220.968 504.696 220.968L467.577 221.615Z" fill="#407BFF"/>
<path d="M424.891 424.327L440.941 430.719L444.06 425.123L426.885 418.264L424.891 424.327Z" fill="#263238"/>
<path d="M497.323 426.651H514.18L515.156 420.726L497.312 420.132L497.323 426.651Z" fill="#263238"/>
<path d="M507.623 218.515L509.427 222.019C509.565 222.284 509.236 222.571 508.78 222.582L467.408 223.389C467.047 223.389 466.75 223.229 466.729 223.007L466.357 219.481C466.357 219.237 466.633 219.025 467.026 219.025L506.987 218.239C507.108 218.227 507.23 218.246 507.341 218.294C507.452 218.342 507.55 218.418 507.623 218.515Z" fill="#263238"/>
<path d="M502.277 223.091H503.337C503.55 223.091 503.719 222.974 503.698 222.836L503.168 218.26C503.168 218.133 502.966 218.026 502.754 218.026H501.693C501.481 218.026 501.322 218.143 501.333 218.281L501.863 222.858C501.884 222.964 502.064 223.091 502.277 223.091Z" fill="#407BFF"/>
<path d="M476.339 223.601H477.4C477.612 223.601 477.772 223.484 477.75 223.346L477.231 218.77C477.231 218.642 477.029 218.536 476.806 218.536H475.745C475.523 218.536 475.363 218.653 475.385 218.791L475.905 223.367C475.936 223.495 476.127 223.601 476.339 223.601Z" fill="#407BFF"/>
<path d="M468.416 174.333C466.238 178.912 463.779 183.352 461.054 187.627C459.686 189.751 458.285 191.874 456.726 193.998C455.983 195.06 455.145 196.047 454.35 197.067C453.554 198.086 452.652 199.063 451.719 200.029C450.741 201.099 449.677 202.087 448.536 202.981C447.432 203.835 446.277 204.622 445.078 205.338C442.8 206.683 440.42 207.848 437.96 208.821C433.209 210.697 428.274 212.067 423.236 212.909L421.963 208.152C426.317 206.336 430.567 204.28 434.693 201.993C436.672 200.897 438.578 199.673 440.4 198.33C441.249 197.703 442.057 197.022 442.819 196.291C443.563 195.603 444.245 194.85 444.855 194.04C447.704 190.391 450.292 186.544 452.599 182.53C453.819 180.513 454.944 178.411 456.089 176.329C457.235 174.248 458.349 172.082 459.389 170.086L468.416 174.333Z" fill="#FF8B7B"/>
<path d="M464.713 162.632C455.388 164.65 452.248 178.305 452.248 178.305L464.151 188.572C464.151 188.572 476.265 176.107 475.82 168.621C475.533 163.057 469.794 161.528 464.713 162.632Z" fill="#407BFF"/>
<path opacity="0.4" d="M464.713 162.632C455.388 164.65 452.248 178.305 452.248 178.305L464.151 188.572C464.151 188.572 476.265 176.107 475.82 168.621C475.533 163.057 469.794 161.528 464.713 162.632Z" fill="white"/>
<path d="M426.842 212.124L417.411 216.912L413.91 208.843C413.91 208.843 422.259 206.91 425.844 208.705L426.842 212.124Z" fill="#FF8B7B"/>
<path d="M413.816 218.568L410.156 213.1L413.912 208.842L417.412 216.912L413.816 218.568Z" fill="#FF8B7B"/>
</g>
<defs>
<clipPath id="clip0">
<rect width="530.411" height="395.642" fill="white" transform="translate(68.1045 65.8164)"/>
</clipPath>
</defs>
</svg>
