<svg width="203" height="151" viewBox="0 0 203 151" fill="none" xmlns="http://www.w3.org/2000/svg">
<path d="M203 132.699H0V132.801H203V132.699Z" fill="#EBEBEB"/>
<path d="M31.8548 136.557H21.2988V136.658H31.8548V136.557Z" fill="#EBEBEB"/>
<path d="M81.3748 135.459H59.4102V135.56H81.3748V135.459Z" fill="#EBEBEB"/>
<path d="M42.9467 140.322H32.2607V140.424H42.9467V140.322Z" fill="#EBEBEB"/>
<path d="M182.66 139.641H174.853V139.742H182.66V139.641Z" fill="#EBEBEB"/>
<path d="M171.234 139.641H158.937V139.742H171.234V139.641Z" fill="#EBEBEB"/>
<path d="M126.992 137.927H104.841V138.028H126.992V137.927Z" fill="#EBEBEB"/>
<path d="M96.2224 114.625H17.8279C17.2137 114.624 16.6251 114.379 16.1912 113.946C15.7574 113.512 15.5137 112.924 15.5137 112.311V2.31397C15.5137 1.70097 15.7574 1.11302 16.1912 0.679179C16.6251 0.24534 17.2137 0.00107356 17.8279 0L96.2224 0C96.8373 0 97.4269 0.243793 97.8617 0.677747C98.2964 1.1117 98.5407 1.70027 98.5407 2.31397V112.311C98.5407 112.615 98.4807 112.916 98.3642 113.196C98.2477 113.477 98.077 113.732 97.8617 113.947C97.6464 114.162 97.3908 114.332 97.1096 114.449C96.8283 114.565 96.5269 114.625 96.2224 114.625ZM17.8279 0.101312C17.2407 0.102386 16.6779 0.335979 16.263 0.750817C15.8482 1.16566 15.6152 1.72784 15.6152 2.31397V112.311C15.6152 112.897 15.8482 113.459 16.263 113.874C16.6779 114.289 17.2407 114.522 17.8279 114.524H96.2224C96.81 114.522 97.3732 114.289 97.7887 113.874C98.2042 113.46 98.4381 112.897 98.4392 112.311V2.31397C98.4381 1.72747 98.2042 1.16529 97.7887 0.750569C97.3732 0.335847 96.81 0.102384 96.2224 0.101312H17.8279Z" fill="#EBEBEB"/>
<path d="M184.044 114.625H105.645C105.031 114.624 104.442 114.38 104.007 113.946C103.573 113.512 103.328 112.924 103.327 112.311V2.31397C103.328 1.7006 103.573 1.11265 104.007 0.678931C104.442 0.245209 105.031 0.0010714 105.645 0L184.044 0C184.657 0.00214467 185.245 0.246884 185.678 0.680606C186.111 1.11433 186.354 1.70167 186.354 2.31397V112.311C186.354 112.923 186.111 113.51 185.678 113.944C185.245 114.378 184.657 114.623 184.044 114.625ZM105.645 0.101312C105.058 0.102384 104.495 0.335847 104.079 0.750569C103.664 1.16529 103.43 1.72747 103.429 2.31397V112.311C103.43 112.897 103.664 113.46 104.079 113.874C104.495 114.289 105.058 114.522 105.645 114.524H184.044C184.632 114.522 185.195 114.289 185.61 113.874C186.026 113.46 186.26 112.897 186.261 112.311V2.31397C186.26 1.72747 186.026 1.16529 185.61 0.750569C185.195 0.335847 184.632 0.102384 184.044 0.101312H105.645Z" fill="#EBEBEB"/>
<path d="M179.147 90.124H167.982V132.7H179.147V90.124Z" fill="#E6E6E6"/>
<path d="M177.029 132.699H179.148V126.677H174.804L177.029 132.699Z" fill="#F0F0F0"/>
<path d="M115.437 90.124H104.272V132.7H115.437V90.124Z" fill="#E6E6E6"/>
<path d="M179.148 90.124H113.587V129.004H179.148V90.124Z" fill="#F0F0F0"/>
<path d="M115.767 92.093V121.474H135.202V92.093H115.767Z" fill="#E6E6E6"/>
<path d="M127.407 93.7784H123.562C122.735 93.7781 121.917 93.6098 121.158 93.2837C120.398 92.9577 119.713 92.4807 119.145 91.8818H131.824C131.255 92.4807 130.57 92.9577 129.811 93.2837C129.051 93.6098 128.233 93.7781 127.407 93.7784Z" fill="#F0F0F0"/>
<path d="M136.651 92.0969V121.478H156.087V92.0969H136.651Z" fill="#E6E6E6"/>
<path d="M148.487 93.7784H144.642C143.816 93.7775 142.998 93.609 142.24 93.2829C141.481 92.9569 140.797 92.4802 140.229 91.8818H152.904C152.335 92.4807 151.65 92.9577 150.891 93.2837C150.131 93.6098 149.313 93.7781 148.487 93.7784Z" fill="#F0F0F0"/>
<path d="M157.536 92.093V121.474H176.971V92.093H157.536Z" fill="#E6E6E6"/>
<path d="M169.37 93.7784H165.526C164.699 93.7781 163.881 93.6098 163.122 93.2837C162.362 92.9577 161.677 92.4807 161.108 91.8818H173.767C173.201 92.4782 172.519 92.9537 171.764 93.2797C171.008 93.6057 170.194 93.7753 169.37 93.7784Z" fill="#F0F0F0"/>
<path d="M115.706 132.699H113.587V126.677H117.931L115.706 132.699Z" fill="#F0F0F0"/>
<path d="M89.2229 7.71582H27.7139V65.2207H89.2229V7.71582Z" fill="#E6E6E6"/>
<path d="M91.4315 7.71582H28.7451V65.2207H91.4315V7.71582Z" fill="#F0F0F0"/>
<path d="M89.2229 65.2168H27.7139V69.3139H89.2229V65.2168Z" fill="#E6E6E6"/>
<path d="M95.1093 65.2168H32.4229V69.3139H95.1093V65.2168Z" fill="#F0F0F0"/>
<path d="M88.3418 62.1326V10.8037L31.8388 10.8037V62.1326H88.3418Z" fill="#FAFAFA"/>
<path d="M37.7539 62.1326L55.9062 10.8037H64.4728L46.3205 62.1326H37.7539Z" fill="white"/>
<path d="M33.2671 44.7149C33.3256 44.715 33.3818 44.692 33.4236 44.6511C33.4653 44.6102 33.4893 44.5545 33.4904 44.4961V12.8097C33.4893 12.7512 33.4653 12.6956 33.4236 12.6547C33.3818 12.6137 33.3256 12.5908 33.2671 12.5908C33.2089 12.5908 33.1532 12.6139 33.1121 12.6549C33.0709 12.696 33.0479 12.7516 33.0479 12.8097V44.4961C33.0479 44.5541 33.0709 44.6098 33.1121 44.6508C33.1532 44.6919 33.2089 44.7149 33.2671 44.7149Z" fill="#F0F0F0"/>
<path d="M48.1641 62.1326L66.3163 10.8037H69.6536L51.5054 62.1326H48.1641Z" fill="white"/>
<path d="M88.3418 62.1326V10.8037H87.948V62.1326H88.3418Z" fill="#E6E6E6"/>
<path opacity="0.5" d="M92.1623 16.1203H30.6533L30.3691 12.0029H91.8781L92.1623 16.1203Z" fill="#E6E6E6"/>
<path opacity="0.5" d="M92.1623 19.1399H30.6533L30.3691 15.0186H91.8781L92.1623 19.1399Z" fill="#E6E6E6"/>
<path opacity="0.5" d="M92.1623 22.7591H30.6533L30.3691 18.6377H91.8781L92.1623 22.7591Z" fill="#E6E6E6"/>
<path opacity="0.5" d="M92.1623 26.7833H30.6533L30.3691 22.666H91.8781L92.1623 26.7833Z" fill="#E6E6E6"/>
<path opacity="0.5" d="M92.1623 31.6097H30.6533L30.3691 27.4883H91.8781L92.1623 31.6097Z" fill="#E6E6E6"/>
<path opacity="0.5" d="M92.1623 37.0394H30.6533L30.3691 32.918H91.8781L92.1623 37.0394Z" fill="#E6E6E6"/>
<path d="M92.8242 94.5205H74.6191V132.695H92.8242V94.5205Z" fill="#E6E6E6"/>
<path d="M90.9926 132.699H92.8237V127.5H89.0723L90.9926 132.699Z" fill="#F0F0F0"/>
<path d="M48.042 94.5205H29.8369V132.695H48.042V94.5205Z" fill="#E6E6E6"/>
<path d="M92.8198 94.5205H46.4424V129.506H92.8198V94.5205Z" fill="#F0F0F0"/>
<path d="M91.4027 96.0723H47.8633V105.669H91.4027V96.0723Z" fill="#E6E6E6"/>
<path d="M71.6881 99.0556H67.5753C65.7889 99.0556 64.0837 97.8723 62.8535 95.7812H76.4139C75.1837 97.8723 73.4867 99.0556 71.6881 99.0556Z" fill="#F0F0F0"/>
<path d="M48.2734 132.699H46.4424V127.5H50.1938L48.2734 132.699Z" fill="#F0F0F0"/>
<path d="M91.4027 107.217H47.8633V116.813H91.4027V107.217Z" fill="#E6E6E6"/>
<path d="M71.6881 110.199H67.5753C65.7889 110.199 64.0837 109.016 62.8535 106.925H76.4139C75.1837 109.012 73.4867 110.199 71.6881 110.199Z" fill="#F0F0F0"/>
<path d="M91.4027 118.361H47.8633V127.958H91.4027V118.361Z" fill="#E6E6E6"/>
<path d="M71.6881 121.344H67.5753C65.7889 121.344 64.0837 120.16 62.8535 118.069H76.4139C75.1837 120.16 73.4867 121.344 71.6881 121.344Z" fill="#F0F0F0"/>
<path d="M166.326 15.6104H130.979V62.7976H166.326V15.6104Z" fill="#E6E6E6"/>
<path d="M168.624 15.6104H131.475V62.7976H168.624V15.6104Z" fill="#F0F0F0"/>
<path d="M163.479 57.6635V20.7412H136.614V57.6635H163.479Z" fill="white"/>
<path d="M163.479 57.6635V20.7412H163.078V57.6635H163.479Z" fill="#E6E6E6"/>
<path d="M150.549 31.3906H142.506C142.427 31.3906 142.35 31.4222 142.294 31.4785C142.238 31.5347 142.206 31.611 142.206 31.6905V39.7144C142.212 41.6471 142.984 43.4988 144.354 44.8653C145.723 46.2319 147.578 47.0025 149.514 47.0089H157.541C157.62 47.0089 157.697 46.9773 157.753 46.9211C157.809 46.8649 157.841 46.7886 157.841 46.7091V38.7013C157.839 36.7687 157.071 34.9153 155.705 33.5457C154.339 32.176 152.486 31.4013 150.549 31.3906ZM149.547 46.4173C147.766 46.4141 146.059 45.7071 144.799 44.451C143.539 43.1949 142.829 41.4919 142.823 39.7144V32.0147H150.537C152.318 32.0147 154.026 32.7179 155.289 33.9707C156.551 35.2235 157.266 36.9242 157.277 38.7013L149.547 46.4173Z" fill="#F0F0F0"/>
<path d="M101.5 151C144.975 151 180.219 148.946 180.219 146.413C180.219 143.879 144.975 141.825 101.5 141.825C58.0241 141.825 22.7803 143.879 22.7803 146.413C22.7803 148.946 58.0241 151 101.5 151Z" fill="#F5F5F5"/>
<path d="M100.116 13.406C99.7465 11.169 101.261 9.35352 103.502 9.35352H87.1281C84.8869 9.35352 83.3726 11.169 83.742 13.406H100.116Z" fill="#407BFF"/>
<path opacity="0.3" d="M100.116 13.406C99.7465 11.169 101.261 9.35352 103.502 9.35352H87.1281C84.8869 9.35352 83.3726 11.169 83.742 13.406H100.116Z" fill="black"/>
<path d="M103.502 9.35352H87.1279C88.2608 9.39182 89.3469 9.81402 90.2073 10.5506C91.0678 11.2872 91.6513 12.2942 91.8619 13.406L95.4469 35.0139C95.6574 36.1257 96.241 37.1327 97.1014 37.8693C97.9619 38.6059 99.0479 39.0281 100.181 39.0664H108.439C110.68 39.0664 112.194 37.2509 111.825 35.0139L108.236 13.406C108.025 12.2942 107.442 11.2872 106.581 10.5506C105.721 9.81402 104.635 9.39182 103.502 9.35352Z" fill="#407BFF"/>
<path d="M103.567 35.0137C103.936 37.2507 102.422 39.0662 100.181 39.0662H116.555C117.064 39.0834 117.571 38.9842 118.036 38.7762C118.502 38.5683 118.914 38.257 119.24 37.8661C119.567 37.4752 119.8 37.0151 119.921 36.5208C120.042 36.0265 120.049 35.511 119.941 35.0137H103.567Z" fill="#407BFF"/>
<path opacity="0.3" d="M103.567 35.0137C103.936 37.2507 102.422 39.0662 100.181 39.0662H116.555C117.064 39.0834 117.571 38.9842 118.036 38.7762C118.502 38.5683 118.914 38.257 119.24 37.8661C119.567 37.4752 119.8 37.0151 119.921 36.5208C120.042 36.0265 120.049 35.511 119.941 35.0137H103.567Z" fill="black"/>
<path d="M106.202 15.2657H94.513C94.4454 15.2641 94.3803 15.2396 94.3286 15.1961C94.2769 15.1526 94.2417 15.0928 94.2288 15.0266C94.2218 14.9967 94.2219 14.9656 94.229 14.9358C94.2361 14.906 94.2501 14.8782 94.2697 14.8547C94.2894 14.8311 94.3143 14.8124 94.3424 14.8001C94.3705 14.7877 94.4011 14.782 94.4318 14.7834H106.12C106.188 14.7859 106.254 14.8112 106.305 14.8554C106.357 14.8996 106.392 14.9599 106.405 15.0266C106.411 15.0562 106.41 15.0868 106.403 15.1161C106.395 15.1454 106.381 15.1726 106.362 15.1956C106.342 15.2187 106.318 15.237 106.29 15.2491C106.262 15.2613 106.232 15.2669 106.202 15.2657Z" fill="white"/>
<path d="M99.7261 16.9562H94.7932C94.7253 16.9538 94.6602 16.9284 94.6086 16.8842C94.5569 16.8401 94.5219 16.7797 94.509 16.7131C94.5021 16.6832 94.5022 16.6522 94.5093 16.6223C94.5164 16.5925 94.5304 16.5647 94.55 16.5412C94.5697 16.5176 94.5945 16.4989 94.6226 16.4866C94.6508 16.4742 94.6813 16.4685 94.712 16.4699H99.6449C99.7129 16.4724 99.778 16.4978 99.8296 16.5419C99.8812 16.5861 99.9163 16.6464 99.9291 16.7131C99.9352 16.7429 99.9345 16.7736 99.9271 16.8031C99.9197 16.8326 99.9057 16.86 99.8862 16.8834C99.8667 16.9067 99.8422 16.9254 99.8145 16.938C99.7868 16.9506 99.7566 16.9569 99.7261 16.9562Z" fill="white"/>
<path d="M104.289 16.9561H100.879C100.812 16.9535 100.747 16.9279 100.696 16.8837C100.645 16.8395 100.611 16.7793 100.599 16.7129C100.592 16.6834 100.592 16.6527 100.599 16.6232C100.606 16.5937 100.619 16.5662 100.639 16.5427C100.658 16.5192 100.682 16.5005 100.71 16.4878C100.737 16.4752 100.767 16.469 100.798 16.4698H104.208C104.276 16.4724 104.34 16.4979 104.391 16.5422C104.442 16.5864 104.476 16.6466 104.488 16.7129C104.495 16.7425 104.495 16.7732 104.488 16.8027C104.481 16.8322 104.468 16.8597 104.449 16.8832C104.429 16.9067 104.405 16.9254 104.377 16.9381C104.35 16.9507 104.32 16.9569 104.289 16.9561Z" fill="white"/>
<path d="M106.779 18.6416H95.0736C95.0056 18.6391 94.9405 18.6138 94.8889 18.5696C94.8373 18.5254 94.8022 18.4651 94.7894 18.3984C94.7832 18.3689 94.7838 18.3383 94.7913 18.3089C94.7987 18.2796 94.8127 18.2524 94.8323 18.2294C94.8519 18.2063 94.8765 18.188 94.9042 18.1759C94.932 18.1637 94.9621 18.1581 94.9924 18.1594H106.681C106.749 18.1609 106.814 18.1854 106.865 18.2289C106.917 18.2724 106.952 18.3322 106.965 18.3984C106.972 18.427 106.972 18.4566 106.966 18.4852C106.96 18.5138 106.947 18.5407 106.929 18.564C106.912 18.5872 106.889 18.6062 106.863 18.6196C106.837 18.6331 106.808 18.6406 106.779 18.6416Z" fill="white"/>
<path d="M105.889 20.332H95.3537C95.2858 20.3296 95.2207 20.3042 95.1691 20.26C95.1174 20.2159 95.0824 20.1555 95.0695 20.0889C95.0634 20.0591 95.0641 20.0283 95.0716 19.9989C95.079 19.9694 95.093 19.942 95.1125 19.9186C95.132 19.8953 95.1565 19.8766 95.1842 19.864C95.2119 19.8514 95.2421 19.8451 95.2725 19.8457H105.829C105.897 19.8482 105.962 19.8736 106.013 19.9177C106.065 19.9619 106.1 20.0222 106.113 20.0889C106.119 20.1205 106.119 20.1532 106.11 20.1843C106.102 20.2154 106.086 20.2441 106.064 20.2678C106.042 20.2916 106.015 20.3099 105.984 20.321C105.954 20.3322 105.922 20.336 105.889 20.332Z" fill="white"/>
<path d="M102.719 22.0176H95.634C95.5661 22.0151 95.501 21.9898 95.4493 21.9456C95.3977 21.9014 95.3626 21.8411 95.3498 21.7744C95.3437 21.7447 95.3444 21.7139 95.3518 21.6844C95.3593 21.6549 95.3733 21.6275 95.3928 21.6042C95.4122 21.5808 95.4368 21.5621 95.4645 21.5495C95.4922 21.5369 95.5224 21.5307 95.5528 21.5313H102.642C102.71 21.5337 102.775 21.5591 102.826 21.6033C102.878 21.6475 102.913 21.7078 102.926 21.7744C102.932 21.8046 102.931 21.8357 102.924 21.8655C102.916 21.8953 102.902 21.9229 102.882 21.9464C102.862 21.9698 102.837 21.9884 102.808 22.0007C102.78 22.0131 102.749 22.0188 102.719 22.0176Z" fill="white"/>
<path d="M107.591 23.704H95.9143C95.8469 23.7017 95.7822 23.6769 95.7307 23.6335C95.6792 23.5902 95.6437 23.5308 95.6301 23.4649C95.624 23.4351 95.6247 23.4043 95.6321 23.3748C95.6396 23.3454 95.6535 23.3179 95.673 23.2946C95.6925 23.2712 95.717 23.2526 95.7447 23.2399C95.7724 23.2273 95.8026 23.2211 95.8331 23.2217H107.522C107.59 23.2242 107.655 23.2496 107.706 23.2937C107.758 23.3379 107.793 23.3982 107.806 23.4649C107.813 23.4955 107.812 23.5273 107.804 23.5576C107.796 23.5879 107.78 23.6158 107.759 23.6392C107.739 23.6625 107.712 23.6805 107.683 23.6918C107.654 23.703 107.622 23.7072 107.591 23.704Z" fill="white"/>
<path d="M107.882 25.3936H96.1936C96.1256 25.3911 96.0605 25.3657 96.0089 25.3216C95.9573 25.2774 95.9222 25.2171 95.9094 25.1504C95.9033 25.1206 95.904 25.0899 95.9114 25.0604C95.9188 25.0309 95.9328 25.0035 95.9523 24.9801C95.9718 24.9568 95.9963 24.9381 96.024 24.9255C96.0517 24.9129 96.0819 24.9067 96.1124 24.9073H107.805C107.873 24.9099 107.937 24.9354 107.988 24.9796C108.039 25.0239 108.073 25.0841 108.085 25.1504C108.092 25.1803 108.092 25.2114 108.085 25.2412C108.078 25.271 108.064 25.2988 108.044 25.3223C108.025 25.3459 108 25.3646 107.972 25.3769C107.944 25.3893 107.913 25.395 107.882 25.3936Z" fill="white"/>
<path d="M103.564 27.0791H96.4748C96.4069 27.0767 96.3418 27.0513 96.2902 27.0071C96.2385 26.9629 96.2035 26.9026 96.1906 26.836C96.1845 26.8062 96.1852 26.7754 96.1927 26.7459C96.2001 26.7165 96.2141 26.689 96.2336 26.6657C96.2531 26.6423 96.2776 26.6237 96.3053 26.611C96.333 26.5984 96.3632 26.5922 96.3936 26.5928H103.482C103.55 26.5953 103.615 26.6206 103.667 26.6648C103.719 26.709 103.754 26.7693 103.767 26.836C103.773 26.8657 103.772 26.8965 103.765 26.926C103.757 26.9555 103.743 26.9829 103.724 27.0062C103.704 27.0296 103.68 27.0483 103.652 27.0609C103.624 27.0735 103.594 27.0797 103.564 27.0791Z" fill="white"/>
<path d="M110.275 31.7171L111.007 32.1699L122.227 14.114L121.496 13.6612L110.275 31.7171Z" fill="#263238"/>
<path opacity="0.3" d="M110.275 31.7171L111.007 32.1699L122.227 14.114L121.496 13.6612L110.275 31.7171Z" fill="black"/>
<path d="M108.816 30.8147L109.548 31.2676L120.768 13.2117L120.037 12.7588L108.816 30.8147Z" fill="#263238"/>
<path opacity="0.3" d="M108.816 30.8147L109.548 31.2676L120.768 13.2117L120.037 12.7588L108.816 30.8147Z" fill="black"/>
<path d="M109.545 31.2639L110.276 31.7168L121.497 13.6609L120.765 13.208L109.545 31.2639Z" fill="#263238"/>
<path d="M108.796 32.5539L109.454 32.9632L111.009 32.173L108.816 30.8154L108.796 32.5539Z" fill="#FF8B7B"/>
<path d="M108.788 33.2994L109.454 32.963L108.796 32.5537L108.788 33.2994Z" fill="#263238"/>
<path d="M108.402 33.4535H108.374C107.822 33.2315 107.334 32.8764 106.953 32.4201C106.717 32.1678 106.461 31.936 106.186 31.7271C106.145 31.6909 106.092 31.671 106.038 31.671C105.983 31.671 105.93 31.6909 105.889 31.7271C105.856 31.763 105.838 31.81 105.838 31.8588C105.838 31.9076 105.856 31.9546 105.889 31.9905C105.987 32.1364 106.096 32.2742 106.206 32.3958C106.25 32.443 106.278 32.5035 106.285 32.5679C106.291 32.6323 106.276 32.6971 106.243 32.7524C106.208 32.8022 106.157 32.8391 106.099 32.8574C106.041 32.8758 105.979 32.8744 105.922 32.8537C105.767 32.8052 105.615 32.747 105.467 32.6794C105.453 32.6719 105.437 32.6692 105.421 32.6717C105.405 32.6742 105.391 32.6818 105.38 32.6933C105.369 32.7047 105.362 32.7195 105.36 32.7353C105.358 32.7511 105.362 32.767 105.37 32.7808L105.39 32.8294C105.414 32.8824 105.425 32.9409 105.419 32.999C105.414 33.0571 105.393 33.1127 105.36 33.1604C105.326 33.208 105.28 33.246 105.227 33.2704C105.174 33.2948 105.115 33.3048 105.057 33.2995C103.271 33.2065 101.48 33.2065 99.6938 33.2995C99.6805 33.3 99.6672 33.2979 99.6546 33.2933C99.6421 33.2887 99.6306 33.2817 99.6208 33.2727C99.611 33.2637 99.6031 33.2528 99.5975 33.2407C99.5919 33.2286 99.5888 33.2155 99.5882 33.2022C99.5871 33.1888 99.5888 33.1753 99.5932 33.1625C99.5976 33.1497 99.6046 33.138 99.6137 33.1281C99.6229 33.1182 99.634 33.1103 99.6464 33.1049C99.6588 33.0996 99.6722 33.0968 99.6857 33.0968C101.479 33.0039 103.276 33.0039 105.069 33.0968C105.092 33.0998 105.116 33.0965 105.137 33.0872C105.159 33.0779 105.177 33.0631 105.191 33.0442C105.203 33.0232 105.21 32.9995 105.21 32.9753C105.21 32.9511 105.203 32.9273 105.191 32.9064L105.171 32.8618C105.144 32.8104 105.134 32.7517 105.143 32.6945C105.152 32.6372 105.18 32.5843 105.221 32.5436C105.262 32.5028 105.315 32.4763 105.373 32.4679C105.43 32.4596 105.489 32.4698 105.54 32.4971C105.68 32.5608 105.824 32.6163 105.971 32.6632C105.986 32.6705 106.003 32.6725 106.019 32.6688C106.035 32.6651 106.05 32.656 106.06 32.643C106.07 32.6239 106.074 32.602 106.07 32.5807C106.066 32.5595 106.056 32.54 106.04 32.5254C105.922 32.3877 105.812 32.2418 105.711 32.0959C105.651 32.0196 105.621 31.9246 105.625 31.828C105.63 31.7314 105.669 31.6395 105.735 31.5691C105.812 31.5037 105.91 31.4678 106.011 31.4678C106.112 31.4678 106.21 31.5037 106.287 31.5691C106.581 31.781 106.853 32.0213 107.099 32.2864C107.451 32.7075 107.898 33.0394 108.402 33.2549C108.415 33.259 108.427 33.2657 108.438 33.2745C108.448 33.2832 108.456 33.294 108.462 33.3061C108.468 33.3182 108.472 33.3313 108.473 33.3448C108.474 33.3583 108.472 33.3718 108.467 33.3846C108.463 33.4005 108.455 33.4151 108.444 33.4271C108.432 33.4391 108.418 33.4481 108.402 33.4535Z" fill="white"/>
<path d="M106.661 48.3022L109.377 43.6094H103.949L106.661 48.3022Z" fill="#407BFF"/>
<path d="M137.138 34.5313C135.984 33.5108 134.481 32.9725 132.94 33.0279C131.949 31.0462 129.919 29.8831 127.768 30.2762C124.682 30.8395 123.74 34.5395 125.884 35.893C126.594 36.3397 127.361 36.6874 128.165 36.9264V37.0236C126.905 37.4763 125.802 38.2827 124.99 39.346C124.177 40.4092 123.69 41.6841 123.586 43.0173C123.269 47.6087 128.206 50.2874 130.894 47.7384C131.267 47.3806 131.62 47.0018 131.949 46.6037C132.469 47.3332 133.029 48.0788 133.634 48.8569C140.35 45.7932 141.482 38.2718 137.138 34.5313Z" fill="#263238"/>
<path d="M123.639 52.3662C123.598 52.9335 123.55 53.4239 123.476 53.9467C123.403 54.4694 123.334 54.9679 123.249 55.4745C123.079 56.4876 122.843 57.5007 122.604 58.4936C122.109 60.5132 121.418 62.4798 120.541 64.3656L120.456 64.544C120.423 64.6128 120.415 64.6372 120.354 64.7587C120.254 64.9584 120.133 65.1472 119.993 65.322C119.736 65.6525 119.421 65.9339 119.063 66.1528C118.481 66.5039 117.835 66.7392 117.163 66.8458C116.057 67.017 114.932 67.0334 113.822 66.8944C111.766 66.6415 109.746 66.1547 107.801 65.4436L108.247 63.8226C109.185 63.9644 110.164 64.0982 111.122 64.1833C112.066 64.2845 113.015 64.3318 113.964 64.3251C114.835 64.343 115.706 64.2504 116.554 64.0495C116.861 63.9785 117.152 63.8492 117.411 63.6686C117.474 63.621 117.528 63.5619 117.569 63.4944C117.581 63.4728 117.589 63.4496 117.594 63.4255L117.707 63.1377C117.878 62.7041 118.044 62.2664 118.186 61.8166C118.328 61.3668 118.479 60.921 118.621 60.4712C118.876 59.5594 119.128 58.6476 119.335 57.7155C119.542 56.7834 119.713 55.8473 119.871 54.9071C120.03 53.9669 120.155 52.9984 120.249 52.123L123.639 52.3662Z" fill="#FFB573"/>
<path d="M121.328 48.305C119.956 48.6535 118.998 54.2824 118.998 54.2824L122.774 56.8436C122.774 56.8436 126.395 51.1701 125.34 49.6626C124.284 48.1551 123.326 47.8187 121.328 48.305Z" fill="#263238"/>
<path opacity="0.2" d="M121.45 49.5615L120.398 55.235L122.518 56.6696L121.45 49.5615Z" fill="black"/>
<path d="M106.834 63.8793L104.272 64.8762L107.167 66.6188C107.167 66.6188 109.015 65.553 108.966 64.1873L108.682 64.0252C108.404 63.8653 108.094 63.7692 107.774 63.744C107.455 63.7188 107.134 63.765 106.834 63.8793Z" fill="#FFB573"/>
<path opacity="0.1" d="M106.643 64.0049L105.376 64.4344C105.129 64.5179 104.886 64.6154 104.649 64.7262C104.649 64.7262 105.486 65.0747 105.904 64.8397C106.538 64.8874 107.176 64.8492 107.8 64.7262L106.643 64.0049Z" fill="black"/>
<path d="M102.677 66.7604L104.857 68.5719L107.163 66.6186L104.272 64.876L102.677 66.7604Z" fill="#FFB573"/>
<path d="M128.738 143.024H125.417L125.193 135.341H128.519L128.738 143.024Z" fill="#FFB573"/>
<path d="M125.304 142.648H129.035C129.1 142.646 129.163 142.668 129.212 142.71C129.261 142.752 129.294 142.81 129.303 142.875L129.709 145.821C129.717 145.895 129.709 145.971 129.686 146.042C129.663 146.113 129.625 146.179 129.575 146.235C129.525 146.291 129.463 146.335 129.395 146.366C129.326 146.396 129.252 146.412 129.177 146.412C127.878 146.412 127.248 146.315 125.604 146.315C124.597 146.315 121.694 146.421 120.298 146.421C118.901 146.421 118.828 145.043 119.408 144.917C122.015 144.358 123.874 143.588 124.731 142.85C124.891 142.716 125.094 142.643 125.304 142.648Z" fill="#263238"/>
<g opacity="0.2">
<path opacity="0.2" d="M125.193 135.341L125.307 139.3H128.632L128.518 135.341H125.193Z" fill="black"/>
</g>
<path d="M121.329 48.3051C121.329 48.3051 119.746 48.8644 122.916 68.3326H136.416C136.189 62.8455 136.184 59.4657 138.811 48.2119C136.921 47.8215 135.005 47.5696 133.079 47.4582C131.038 47.3121 128.989 47.3121 126.948 47.4582C124.313 47.6973 121.329 48.3051 121.329 48.3051Z" fill="#263238"/>
<path d="M130.626 53.6463C129.511 53.6132 128.427 53.2708 127.496 52.6575C127.485 52.6498 127.476 52.64 127.469 52.6287C127.462 52.6174 127.457 52.6048 127.455 52.5916C127.452 52.5785 127.453 52.565 127.456 52.5519C127.459 52.5389 127.464 52.5266 127.472 52.5157C127.48 52.5048 127.489 52.4955 127.501 52.4884C127.512 52.4812 127.525 52.4764 127.538 52.4741C127.551 52.4719 127.565 52.4722 127.578 52.4752C127.591 52.4782 127.603 52.4836 127.614 52.4914C128.609 53.1425 129.782 53.4696 130.972 53.4275C131.414 53.1519 134.475 51.1095 134.707 47.5838C134.708 47.5705 134.711 47.5575 134.717 47.5456C134.724 47.5337 134.732 47.5231 134.742 47.5144C134.752 47.5058 134.764 47.4992 134.777 47.4951C134.79 47.491 134.803 47.4895 134.816 47.4906C134.83 47.4911 134.842 47.4942 134.854 47.4999C134.866 47.5055 134.877 47.5135 134.886 47.5233C134.894 47.5332 134.901 47.5447 134.905 47.5572C134.909 47.5697 134.911 47.5828 134.91 47.5959C134.674 51.2108 131.662 53.2451 131.057 53.6139H131.012C130.882 53.6423 130.752 53.6463 130.626 53.6463Z" fill="white"/>
<path d="M124.881 53.0221C124.864 53.028 124.845 53.028 124.828 53.0221C124.68 52.9069 124.559 52.7609 124.474 52.5944C124.388 52.4278 124.34 52.2447 124.333 52.0576C124.142 50.8176 124.601 48.6616 125.551 47.5391C125.57 47.5203 125.596 47.5098 125.624 47.5098C125.651 47.5098 125.677 47.5203 125.697 47.5391C125.715 47.558 125.726 47.5835 125.726 47.61C125.726 47.6365 125.715 47.662 125.697 47.6809C124.795 48.7265 124.329 50.8419 124.511 52.0333C124.529 52.3415 124.664 52.6313 124.889 52.8438C125.45 52.7424 125.996 52.5695 126.513 52.3292C126.538 52.3184 126.566 52.3179 126.591 52.3278C126.616 52.3377 126.636 52.3571 126.647 52.3818C126.658 52.4065 126.658 52.4345 126.648 52.4596C126.638 52.4847 126.619 52.5048 126.594 52.5156C126.05 52.7647 125.473 52.9353 124.881 53.0221Z" fill="white"/>
<path d="M132.468 40.5645C132.083 42.534 131.697 46.1407 133.077 47.4537C133.077 47.4537 132.538 49.4475 128.871 49.4475C124.84 49.4475 126.947 47.4537 126.947 47.4537C129.143 46.9269 129.086 45.2978 128.705 43.77L132.468 40.5645Z" fill="#FFB573"/>
<path d="M133.073 47.4583C131.033 47.3082 128.984 47.3082 126.943 47.4583L126.537 47.4948C126.046 48.4228 125.924 49.8452 127.097 51.9525C127.097 51.9525 132.473 49.7925 133.873 47.5312C133.613 47.4867 133.345 47.4704 133.073 47.4583Z" fill="#FFB573"/>
<path opacity="0.2" d="M130.934 41.874L128.701 43.7665C128.797 44.1221 128.861 44.4856 128.892 44.8526C129.732 44.731 130.885 43.8111 130.975 42.9358C131.026 42.5823 131.012 42.2225 130.934 41.874Z" fill="black"/>
<path d="M134.596 37.1565C133.845 40.362 133.593 41.7318 131.669 43.1177C128.778 45.2007 124.998 43.5757 124.767 40.2121C124.564 37.1808 125.831 32.4475 129.233 31.7019C129.981 31.5335 130.76 31.5586 131.496 31.775C132.231 31.9913 132.899 32.3917 133.437 32.938C133.974 33.4844 134.362 34.1587 134.565 34.897C134.768 35.6352 134.779 36.413 134.596 37.1565Z" fill="#FFB573"/>
<path d="M122.917 68.3323C122.917 68.3323 120.294 93.8914 120.513 103.994C120.74 114.531 124.601 138.522 124.601 138.522H129.108C129.108 138.522 128.398 115.135 128.795 104.797C129.23 93.5307 132.815 68.3242 132.815 68.3242L122.917 68.3323Z" fill="#407BFF"/>
<path opacity="0.3" d="M122.917 68.3323C122.917 68.3323 120.294 93.8914 120.513 103.994C120.74 114.531 124.601 138.522 124.601 138.522H129.108C129.108 138.522 128.398 115.135 128.795 104.797C129.23 93.5307 132.815 68.3242 132.815 68.3242L122.917 68.3323Z" fill="white"/>
<path d="M129.485 138.696H124.211L123.825 137.018L129.733 136.812L129.485 138.696Z" fill="#263238"/>
<path opacity="0.2" d="M128.737 74.6917C125.425 81.35 128.072 93.4953 129.245 98.0138C129.846 91.2259 130.869 82.9305 131.653 76.8396C131.137 73.3909 130.268 71.6199 128.737 74.6917Z" fill="black"/>
<path d="M144.276 143.024H140.95L139.732 135.341H143.054L144.276 143.024Z" fill="#FFB573"/>
<path d="M140.788 142.647H144.535C144.602 142.649 144.667 142.671 144.719 142.712C144.772 142.753 144.81 142.81 144.828 142.874L145.64 145.821C145.659 145.891 145.662 145.964 145.648 146.036C145.634 146.107 145.604 146.174 145.559 146.232C145.515 146.289 145.457 146.335 145.392 146.367C145.326 146.398 145.254 146.414 145.181 146.412C143.878 146.412 143.24 146.315 141.596 146.315C140.585 146.315 137.698 146.42 136.318 146.42C134.938 146.42 134.67 145.042 135.234 144.917C137.767 144.358 139.505 143.588 140.289 142.85C140.424 142.723 140.602 142.651 140.788 142.647Z" fill="#263238"/>
<g opacity="0.2">
<path opacity="0.2" d="M139.732 135.341L140.362 139.3H143.687L143.058 135.341H139.732Z" fill="black"/>
</g>
<path d="M126.672 68.3323C126.672 68.3323 129.461 93.8914 130.996 103.994C132.591 114.531 139.575 138.522 139.575 138.522H144.049C144.049 138.522 140.297 115.135 139.351 104.797C138.32 93.5307 136.538 68.3242 136.538 68.3242L126.672 68.3323Z" fill="#407BFF"/>
<path opacity="0.3" d="M126.672 68.3323C126.672 68.3323 129.461 93.8914 130.996 103.994C132.591 114.531 139.575 138.522 139.575 138.522H144.049C144.049 138.522 140.297 115.135 139.351 104.797C138.32 93.5307 136.538 68.3242 136.538 68.3242L126.672 68.3323Z" fill="white"/>
<path d="M144.458 138.696H139.184L138.579 137.018L144.458 136.812V138.696Z" fill="#263238"/>
<path d="M139.614 143.219C139.321 143.241 139.03 143.169 138.782 143.012C138.723 142.968 138.675 142.91 138.642 142.844C138.609 142.778 138.591 142.705 138.591 142.631C138.587 142.59 138.595 142.548 138.613 142.511C138.632 142.474 138.661 142.442 138.696 142.421C139.074 142.202 140.487 142.874 140.645 142.951C140.661 142.959 140.674 142.97 140.683 142.985C140.692 142.999 140.697 143.015 140.698 143.032C140.698 143.048 140.693 143.064 140.684 143.076C140.674 143.089 140.661 143.098 140.645 143.101C140.306 143.172 139.961 143.211 139.614 143.219ZM138.932 142.53C138.883 142.529 138.834 142.538 138.79 142.558C138.775 142.568 138.763 142.581 138.756 142.597C138.749 142.613 138.746 142.63 138.749 142.647C138.75 142.696 138.761 142.743 138.782 142.787C138.803 142.83 138.833 142.868 138.871 142.899C139.098 143.077 139.646 143.109 140.369 142.988C139.917 142.76 139.432 142.605 138.932 142.53Z" fill="#407BFF"/>
<path d="M140.63 143.101H140.598C140.192 142.922 139.302 142.209 139.315 141.832C139.315 141.743 139.367 141.634 139.583 141.609C139.663 141.601 139.744 141.61 139.822 141.633C139.899 141.657 139.971 141.696 140.033 141.747C140.496 142.092 140.691 142.987 140.699 143.024C140.701 143.036 140.7 143.049 140.696 143.061C140.692 143.073 140.684 143.084 140.675 143.093C140.661 143.101 140.645 143.104 140.63 143.101ZM139.664 141.755H139.619C139.477 141.755 139.473 141.824 139.473 141.844C139.473 142.071 140.07 142.655 140.504 142.878C140.42 142.49 140.227 142.135 139.948 141.852C139.867 141.789 139.767 141.754 139.664 141.755Z" fill="#407BFF"/>
<path d="M129.274 37.1363C129.229 37.3997 129.051 37.5901 128.868 37.5415C128.685 37.4929 128.588 37.2781 128.637 37.0106C128.685 36.7432 128.856 36.5568 129.043 36.6054C129.229 36.654 129.319 36.8769 129.274 37.1363Z" fill="#263238"/>
<path d="M126.286 36.6264C126.242 36.8939 126.063 37.0803 125.88 37.052C125.697 37.0236 125.604 36.7845 125.649 36.5211C125.693 36.2577 125.868 36.0672 126.055 36.0956C126.242 36.1239 126.331 36.363 126.286 36.6264Z" fill="#263238"/>
<path d="M126.127 36.1237L125.522 35.8359C125.522 35.8359 125.766 36.383 126.127 36.1237Z" fill="#263238"/>
<path d="M127.126 37.2578C126.793 37.8195 126.383 38.3323 125.908 38.7816C126.027 38.9007 126.17 38.9926 126.328 39.0507C126.485 39.1088 126.654 39.1317 126.822 39.1179L127.126 37.2578Z" fill="#ED893E"/>
<path d="M128.073 40.3993C127.937 40.3951 127.801 40.3829 127.667 40.3628C127.646 40.3588 127.627 40.3469 127.615 40.3294C127.603 40.312 127.598 40.2905 127.602 40.2696C127.607 40.2496 127.62 40.2322 127.637 40.2204C127.654 40.2086 127.674 40.203 127.695 40.2047C128.022 40.2694 128.36 40.2553 128.681 40.1637C129.001 40.0721 129.295 39.9055 129.538 39.6779C129.554 39.664 129.574 39.6563 129.595 39.6562C129.616 39.6562 129.636 39.664 129.652 39.6779C129.667 39.6931 129.675 39.7134 129.675 39.7347C129.675 39.7559 129.667 39.7762 129.652 39.7914C129.227 40.1946 128.659 40.4131 128.073 40.3993Z" fill="#263238"/>
<path d="M136.163 32.1642C135.783 31.893 135.35 31.7039 134.893 31.609C134.523 28.4481 131.986 26.438 129.156 27.0702C125.948 27.7916 124.832 31.7671 126.988 33.1206C128.257 33.8923 129.689 34.3571 131.17 34.4782C131.226 37.0961 132.863 39.3412 134.012 39.4587C137.292 38.17 138.141 33.5502 136.163 32.1642Z" fill="#263238"/>
<path d="M134.97 40.2768C134.648 40.8257 134.121 41.225 133.504 41.3872C132.692 41.5979 132.286 40.8644 132.538 40.1026C132.753 39.4136 133.443 38.4816 134.259 38.6072C134.437 38.6395 134.603 38.7153 134.744 38.8276C134.884 38.94 134.995 39.0854 135.065 39.251C135.136 39.4165 135.164 39.5968 135.147 39.7759C135.131 39.9549 135.07 40.1271 134.97 40.2768Z" fill="#FFB573"/>
<path d="M130.577 36.7312C130.544 36.7311 130.511 36.7205 130.484 36.7009C130.457 36.6812 130.437 36.6535 130.427 36.6218C130.212 35.9248 129.322 35.629 129.314 35.6249C129.275 35.612 129.242 35.5841 129.224 35.5472C129.205 35.5103 129.202 35.4676 129.215 35.4284C129.228 35.3891 129.256 35.3566 129.293 35.338C129.33 35.3194 129.372 35.3162 129.412 35.3291C129.452 35.3291 130.467 35.6776 130.727 36.5448C130.733 36.5642 130.736 36.5847 130.734 36.605C130.732 36.6254 130.727 36.6452 130.717 36.6633C130.708 36.6814 130.695 36.6974 130.679 36.7105C130.663 36.7235 130.645 36.7334 130.626 36.7393C130.609 36.7404 130.592 36.7376 130.577 36.7312Z" fill="#263238"/>
<path d="M125.624 35.0984C125.596 35.0983 125.569 35.0908 125.544 35.0766C125.52 35.0623 125.5 35.0419 125.486 35.0173C125.467 34.9806 125.463 34.9378 125.474 34.8978C125.485 34.8579 125.512 34.8238 125.547 34.8026C125.761 34.6735 126.003 34.5976 126.253 34.5814C126.502 34.5652 126.752 34.6091 126.98 34.7094C127.012 34.731 127.035 34.7634 127.045 34.8006C127.054 34.8379 127.05 34.8773 127.033 34.9116C127.015 34.9459 126.986 34.9726 126.95 34.9869C126.914 35.0011 126.875 35.0019 126.838 34.989C126.655 34.9128 126.457 34.8812 126.259 34.8967C126.062 34.9122 125.87 34.9744 125.702 35.0781C125.678 35.0905 125.651 35.0974 125.624 35.0984Z" fill="#263238"/>
<path d="M140.362 52.0742C140.768 53.9829 141.036 55.8593 141.263 57.7761C141.503 59.7004 141.639 61.6363 141.669 63.5752C141.669 63.6725 141.669 63.871 141.669 64.0534C141.669 64.2358 141.641 64.3776 141.62 64.5275C141.572 64.8234 141.519 65.0949 141.45 65.338C141.32 65.8608 141.166 66.3431 141.003 66.8172C140.678 67.7614 140.293 68.653 139.903 69.5405C139.11 71.2917 138.228 73.0013 137.26 74.6628L135.733 73.9536L136.639 71.2911C136.943 70.4037 137.236 69.5162 137.508 68.6287C137.78 67.7412 138.044 66.8577 138.271 65.9945C138.381 65.5609 138.474 65.1314 138.539 64.7261C138.571 64.5235 138.596 64.3209 138.612 64.1588C138.612 64.0737 138.612 63.9967 138.612 63.9278L138.592 63.6968C138.519 62.789 138.413 61.8731 138.303 60.9573L137.922 58.2056C137.642 56.3739 137.329 54.5179 137.016 52.7064L140.362 52.0742Z" fill="#FFB573"/>
<path d="M138.811 48.2248C140.163 48.6301 141.787 53.2824 141.787 53.2824L136.537 57.0269C136.537 57.0269 134.625 53.1446 135.193 51.402C135.786 49.5703 137.264 47.7426 138.811 48.2248Z" fill="#263238"/>
<path d="M124.053 143.219C123.766 143.246 123.479 143.173 123.241 143.012C123.185 142.967 123.143 142.908 123.118 142.841C123.093 142.774 123.087 142.702 123.099 142.631C123.101 142.588 123.114 142.546 123.137 142.509C123.159 142.473 123.191 142.442 123.228 142.421C123.634 142.202 124.962 142.874 125.112 142.951C125.127 142.959 125.138 142.971 125.146 142.986C125.153 143.001 125.156 143.017 125.154 143.033C125.152 143.05 125.144 143.065 125.133 143.077C125.122 143.089 125.108 143.098 125.092 143.101C124.75 143.171 124.402 143.21 124.053 143.219ZM123.46 142.53C123.41 142.529 123.36 142.539 123.314 142.558C123.298 142.567 123.285 142.58 123.276 142.596C123.266 142.612 123.261 142.629 123.261 142.647C123.255 142.693 123.26 142.74 123.275 142.784C123.291 142.828 123.316 142.867 123.35 142.899C123.553 143.077 124.101 143.109 124.836 142.988C124.407 142.758 123.942 142.603 123.46 142.53Z" fill="#407BFF"/>
<path d="M125.083 143.101H125.051C124.645 142.923 123.87 142.21 123.935 141.833C123.935 141.744 124.012 141.634 124.227 141.61C124.305 141.601 124.385 141.609 124.461 141.633C124.536 141.656 124.606 141.696 124.665 141.748C125.071 142.092 125.161 142.988 125.161 143.024C125.163 143.038 125.161 143.051 125.155 143.064C125.149 143.076 125.14 143.086 125.128 143.093C125.115 143.102 125.099 143.104 125.083 143.101ZM124.292 141.756H124.235C124.093 141.756 124.085 141.825 124.081 141.845C124.044 142.072 124.576 142.656 124.978 142.878C124.951 142.503 124.809 142.145 124.572 141.853C124.494 141.787 124.394 141.752 124.292 141.756Z" fill="#407BFF"/>
<path d="M129.107 36.6336L128.502 36.3418C128.502 36.3418 128.754 36.8767 129.107 36.6336Z" fill="#263238"/>
<path d="M136.618 67.5427L136.963 68.7585C137.012 68.8517 136.898 68.949 136.744 68.949H122.846C122.724 68.949 122.627 68.8882 122.619 68.8112L122.497 67.5954C122.497 67.5103 122.595 67.4414 122.724 67.4414H136.415C136.454 67.4409 136.493 67.4499 136.529 67.4675C136.564 67.4851 136.594 67.5109 136.618 67.5427Z" fill="#407BFF"/>
<path d="M134.791 69.0665H135.157C135.23 69.0665 135.283 69.03 135.279 68.9855L135.108 67.4171C135.108 67.3685 135.039 67.332 134.966 67.332H134.601C134.528 67.332 134.471 67.3685 134.475 67.4171L134.649 68.9855C134.645 69.03 134.71 69.0665 134.791 69.0665Z" fill="#407BFF"/>
<g opacity="0.3">
<path opacity="0.3" d="M134.791 69.0665H135.157C135.23 69.0665 135.283 69.03 135.279 68.9855L135.108 67.4171C135.108 67.3685 135.039 67.332 134.966 67.332H134.601C134.528 67.332 134.471 67.3685 134.475 67.4171L134.649 68.9855C134.645 69.03 134.71 69.0665 134.791 69.0665Z" fill="white"/>
</g>
<path d="M123.878 69.0665H124.243C124.316 69.0665 124.373 69.03 124.369 68.9855L124.195 67.4171C124.195 67.3685 124.126 67.332 124.052 67.332H123.687C123.614 67.332 123.557 67.3685 123.565 67.4171L123.736 68.9855C123.74 69.03 123.805 69.0665 123.878 69.0665Z" fill="#407BFF"/>
<path opacity="0.3" d="M123.878 69.0665H124.243C124.316 69.0665 124.373 69.03 124.369 68.9855L124.195 67.4171C124.195 67.3685 124.126 67.332 124.052 67.332H123.687C123.614 67.332 123.557 67.3685 123.565 67.4171L123.736 68.9855C123.74 69.03 123.805 69.0665 123.878 69.0665Z" fill="white"/>
<path d="M129.331 69.0665H129.696C129.769 69.0665 129.826 69.03 129.818 68.9855L129.648 67.4171C129.648 67.3685 129.579 67.332 129.506 67.332H129.14C129.067 67.332 129.01 67.3685 129.018 67.4171L129.189 68.9855C129.193 69.03 129.258 69.0665 129.331 69.0665Z" fill="#407BFF"/>
<path opacity="0.3" d="M129.331 69.0665H129.696C129.769 69.0665 129.826 69.03 129.818 68.9855L129.648 67.4171C129.648 67.3685 129.579 67.332 129.506 67.332H129.14C129.067 67.332 129.01 67.3685 129.018 67.4171L129.189 68.9855C129.193 69.03 129.258 69.0665 129.331 69.0665Z" fill="white"/>
<path d="M135.794 73.6538L133.216 76.1502L136.578 76.4865C136.578 76.4865 137.796 74.7318 137.158 73.5039L135.794 73.6538Z" fill="#FFB573"/>
<path d="M132.834 78.9142L135.668 79.0438L136.577 76.4867L133.216 76.1504L132.834 78.9142Z" fill="#FFB573"/>
<path d="M67.1121 143.522C67.4323 143.56 67.7552 143.481 68.0216 143.299C68.0586 143.258 68.0823 143.207 68.0895 143.152C68.0967 143.097 68.0872 143.041 68.0622 142.991C68.0438 142.951 68.0163 142.914 67.9819 142.886C67.9474 142.857 67.9068 142.836 67.8632 142.825C67.3842 142.692 66.2392 143.283 66.2068 143.308C66.1935 143.315 66.1824 143.325 66.1746 143.338C66.1667 143.351 66.1624 143.366 66.1621 143.381C66.1625 143.395 66.1675 143.408 66.1763 143.419C66.1851 143.43 66.1972 143.438 66.2108 143.441C66.5083 143.495 66.8099 143.522 67.1121 143.522ZM67.6724 142.947C67.7168 142.94 67.762 142.94 67.8064 142.947C67.833 142.952 67.8579 142.964 67.8791 142.981C67.9003 142.998 67.9171 143.019 67.9282 143.044C67.9647 143.133 67.9282 143.174 67.9282 143.198C67.7617 143.393 67.0066 143.397 66.4625 143.32C66.8408 143.126 67.2504 142.999 67.6724 142.947Z" fill="#407BFF"/>
<path d="M66.223 143.458H66.2555C66.6371 143.3 67.4451 142.647 67.441 142.319C67.441 142.238 67.3964 142.141 67.2055 142.121C67.0595 142.107 66.9139 142.151 66.7995 142.242C66.486 142.558 66.2679 142.955 66.1702 143.389C66.1661 143.401 66.1659 143.413 66.1696 143.425C66.1732 143.437 66.1806 143.447 66.1905 143.454C66.2007 143.458 66.212 143.46 66.223 143.458ZM67.1284 142.242H67.1731C67.2949 142.242 67.2989 142.303 67.2989 142.319C67.2989 142.522 66.7427 143.028 66.3407 143.247C66.4298 142.9 66.6123 142.583 66.8686 142.331C66.9422 142.272 67.034 142.241 67.1284 142.242Z" fill="#407BFF"/>
<path d="M62.9541 143.369H65.9382L67.2496 136.476H64.2655L62.9541 143.369Z" fill="#B55B52"/>
<path d="M65.9672 143.024H62.7192C62.6565 143.026 62.5959 143.047 62.5452 143.084C62.4946 143.121 62.4562 143.172 62.435 143.231L61.4484 145.89C61.4223 145.947 61.4112 146.01 61.4162 146.073C61.4212 146.136 61.4421 146.197 61.477 146.249C61.5119 146.302 61.5597 146.345 61.6157 146.374C61.6718 146.403 61.7344 146.418 61.7976 146.416C62.9791 146.416 64.6843 146.327 66.1621 146.327C67.8876 146.327 67.7293 146.424 69.7552 146.424C70.9732 146.424 71.501 145.188 71.0057 145.075C68.7483 144.564 68.4844 144.512 66.6534 143.272C66.4561 143.12 66.2162 143.033 65.9672 143.024Z" fill="#263238"/>
<path opacity="0.2" d="M67.25 136.479L66.572 140.034H63.5879L64.2659 136.479H67.25Z" fill="black"/>
<path d="M67.4735 69.0947L69.4263 71.1412L66.2758 72.2395C66.2758 72.2395 65.1309 70.5698 66.0119 69.427L67.4735 69.0947Z" fill="#B55B52"/>
<path d="M70.0106 74.0027L66.8925 74.4565L66.2754 72.2398L69.4259 71.1416L70.0106 74.0027Z" fill="#B55B52"/>
<path d="M55.7682 86.0783L70.9851 86.7469C71.3425 86.7517 71.6906 86.6334 71.9709 86.412C72.2511 86.1905 72.4464 85.8795 72.5238 85.5312L74.3427 76.251C74.3805 76.0938 74.3823 75.9301 74.3481 75.772C74.3139 75.614 74.2445 75.4656 74.1451 75.338C74.0457 75.2104 73.9188 75.1067 73.7738 75.0346C73.6288 74.9626 73.4694 74.924 73.3074 74.9218L58.0905 74.2531C57.7334 74.2478 57.3855 74.3659 57.1058 74.5875C56.826 74.8091 56.6317 75.1205 56.5558 75.4689L54.7329 84.7491C54.6951 84.9063 54.6933 85.07 54.7275 85.228C54.7617 85.3861 54.8311 85.5344 54.9305 85.662C55.0299 85.7897 55.1568 85.8934 55.3018 85.9654C55.4468 86.0375 55.6062 86.0761 55.7682 86.0783Z" fill="#263238"/>
<path d="M56.8121 88.9312L75.6099 89.7417C76.036 89.7569 76.4517 89.6088 76.7719 89.3277C77.092 89.0466 77.2922 88.6539 77.3313 88.2301L78.326 76.7129C78.3461 76.5081 78.3239 76.3013 78.2609 76.1053C78.1979 75.9093 78.0953 75.7283 77.9595 75.5734C77.8237 75.4184 77.6576 75.2929 77.4713 75.2046C77.2851 75.1162 77.0827 75.0668 76.8766 75.0595L58.0828 74.249C57.6566 74.2347 57.2408 74.383 56.9203 74.6638C56.5997 74.9446 56.3984 75.3368 56.3573 75.7606L55.3627 87.2778C55.3426 87.4826 55.3647 87.6894 55.4278 87.8854C55.4908 88.0814 55.5934 88.2624 55.7292 88.4173C55.865 88.5722 56.0311 88.6977 56.2173 88.7861C56.4036 88.8745 56.606 88.9239 56.8121 88.9312Z" fill="#407BFF"/>
<path opacity="0.2" d="M56.8121 88.9312L75.6099 89.7417C76.036 89.7569 76.4517 89.6088 76.7719 89.3277C77.092 89.0466 77.2922 88.6539 77.3313 88.2301L78.326 76.7129C78.3461 76.5081 78.3239 76.3013 78.2609 76.1053C78.1979 75.9093 78.0953 75.7283 77.9595 75.5734C77.8237 75.4184 77.6576 75.2929 77.4713 75.2046C77.2851 75.1162 77.0827 75.0668 76.8766 75.0595L58.0828 74.249C57.6566 74.2347 57.2408 74.383 56.9203 74.6638C56.5997 74.9446 56.3984 75.3368 56.3573 75.7606L55.3627 87.2778C55.3426 87.4826 55.3647 87.6894 55.4278 87.8854C55.4908 88.0814 55.5934 88.2624 55.7292 88.4173C55.865 88.5722 56.0311 88.6977 56.2173 88.7861C56.4036 88.8745 56.606 88.9239 56.8121 88.9312Z" fill="black"/>
<path d="M70.6032 78.1111H70.5545L65.0979 77.872C64.9559 77.8665 64.8165 77.8322 64.6882 77.7713C64.5599 77.7104 64.4454 77.624 64.3516 77.5175C64.2577 77.4109 64.1866 77.2865 64.1425 77.1517C64.0984 77.0168 64.0823 76.8745 64.0951 76.7332L64.3102 74.249C64.3623 73.7404 64.605 73.2703 64.9898 72.9328C65.3746 72.5954 65.8729 72.4156 66.3849 72.4295L70.0389 72.5916C70.303 72.602 70.5621 72.666 70.8006 72.7795C71.0391 72.8931 71.252 73.0539 71.4263 73.2521C71.6006 73.4504 71.7327 73.6819 71.8146 73.9327C71.8964 74.1835 71.9263 74.4483 71.9025 74.711L71.6954 77.1182C71.6683 77.3891 71.5418 77.6404 71.3401 77.8237C71.1385 78.007 70.876 78.1094 70.6032 78.1111ZM65.3252 76.6643L70.4855 76.8913L70.6844 74.6057C70.6957 74.5056 70.6861 74.4044 70.6562 74.3082C70.6264 74.2121 70.5769 74.1231 70.5109 74.047C70.445 73.9709 70.3639 73.9092 70.2729 73.8659C70.1819 73.8225 70.0829 73.7984 69.9821 73.7952L66.3281 73.6331C66.1292 73.6315 65.9367 73.7028 65.787 73.8336C65.6373 73.9643 65.5409 74.1453 65.5161 74.3422L65.3252 76.6643Z" fill="#407BFF"/>
<path d="M77.6189 89.8432L58.8252 89.0327C58.396 89.0086 57.9914 88.8252 57.6909 88.5185C57.3904 88.2118 57.2157 87.804 57.2012 87.3752L56.9494 75.781C56.9411 75.5768 56.9758 75.3731 57.0512 75.1831C57.1266 74.9931 57.241 74.8209 57.3872 74.6778C57.5333 74.5346 57.7078 74.4236 57.8996 74.3518C58.0913 74.2801 58.296 74.2493 58.5004 74.2613L77.2982 75.0718C77.7276 75.095 78.1327 75.2781 78.4334 75.585C78.7342 75.8919 78.9086 76.3002 78.9222 76.7293L79.1698 88.3438C79.174 88.546 79.1364 88.7469 79.0593 88.9339C78.9822 89.1209 78.8673 89.2901 78.7217 89.4308C78.5762 89.5715 78.4031 89.6808 78.2134 89.7517C78.0236 89.8227 77.8212 89.8538 77.6189 89.8432Z" fill="#407BFF"/>
<path d="M72.0529 46.4295C71.854 46.8348 71.6185 47.2927 71.4074 47.7385C71.1963 48.1843 71.0014 48.6463 70.7781 49.1082C70.3721 50.0241 69.9661 50.9521 69.6169 51.8801C69.2678 52.8082 68.943 53.7443 68.6547 54.6723C68.5207 55.1343 68.3827 55.6003 68.2812 56.0583C68.2203 56.2893 68.1675 56.5203 68.1269 56.7431L68.062 57.0835C68.0376 57.197 68.0132 57.3186 68.0051 57.3956C68.0051 57.578 67.9564 57.736 67.9483 57.9751C67.9402 58.2142 67.9199 58.4128 67.9199 58.66C67.9199 59.1301 67.9199 59.6326 67.9199 60.131C67.9402 61.1401 68.0011 62.1573 68.062 63.2028C68.1797 65.2736 68.3543 67.3769 68.5167 69.4518L64.7977 70.0515C64.2943 67.9402 63.8964 65.845 63.5391 63.7053C63.3686 62.6355 63.2224 61.5535 63.1006 60.4633C63.0438 59.9041 62.987 59.3489 62.9586 58.7613C62.9342 58.4776 62.9301 58.1656 62.9261 57.8576C62.922 57.5496 62.9261 57.2011 62.9626 56.8526C62.9707 56.6938 62.987 56.5355 63.0113 56.3784L63.0682 55.9326C63.1006 55.6328 63.1453 55.341 63.1981 55.0573C63.2955 54.4737 63.4173 53.9104 63.5391 53.3471C63.803 52.2287 64.1035 51.1345 64.4608 50.0727C64.818 49.011 65.1956 47.9573 65.6178 46.928C65.829 46.4133 66.0239 45.8987 66.2756 45.3921C66.5273 44.8855 66.7262 44.3911 67.0064 43.8359L72.0529 46.4295Z" fill="#407BFF"/>
<path d="M80.1894 67.6436C80.1894 67.6436 77.319 89.8999 75.6585 98.9815C73.9289 108.424 67.7862 139.344 67.7862 139.344H62.7314C62.7314 139.344 65.3055 108.975 66.4464 99.7028C67.6928 89.5919 69.6944 67.6436 69.6944 67.6436H80.1894Z" fill="#263238"/>
<path d="M69.0521 137.335C69.0765 137.335 68.4593 139.43 68.4593 139.43H62.3125L62.4221 137.562L69.0521 137.335Z" fill="#407BFF"/>
<path d="M82.6338 30.6767C82.6338 30.9279 82.7678 31.1346 82.9342 31.1346C83.1007 31.1346 83.2306 30.9279 83.2306 30.6767C83.2306 30.4254 83.0966 30.2188 82.9342 30.2188C82.7718 30.2188 82.6338 30.4254 82.6338 30.6767Z" fill="#263238"/>
<path d="M82.7432 31.1348C83.049 31.9054 83.4588 32.6307 83.9612 33.2907C83.7866 33.4141 83.5872 33.4979 83.3768 33.5364C83.1665 33.5749 82.9502 33.5671 82.7432 33.5136V31.1348Z" fill="#A02724"/>
<path d="M81.7403 29.2791C81.7711 29.2797 81.8012 29.2697 81.8255 29.2507C81.9736 29.1375 82.1467 29.0611 82.3303 29.028C82.5138 28.9949 82.7027 29.0059 82.8811 29.0602C82.9178 29.0736 82.9582 29.0721 82.9938 29.0562C83.0294 29.0404 83.0574 29.0113 83.072 28.9751C83.0855 28.938 83.0842 28.8971 83.0683 28.8609C83.0524 28.8247 83.0232 28.7959 82.9867 28.7806C82.7616 28.7109 82.5232 28.6955 82.291 28.7357C82.0588 28.7759 81.8394 28.8704 81.651 29.0116C81.6196 29.035 81.5987 29.0698 81.5926 29.1084C81.5866 29.147 81.5958 29.1864 81.6185 29.2183C81.6323 29.2375 81.6506 29.2531 81.6719 29.2637C81.6931 29.2743 81.7166 29.2796 81.7403 29.2791Z" fill="#263238"/>
<path d="M74.6388 33.4609C75.0448 35.6412 75.4914 39.6288 73.9648 41.0837C73.9648 41.0837 74.5617 43.2923 78.6176 43.2923C83.0836 43.2923 80.745 41.0837 80.745 41.0837C78.309 40.5042 78.3781 38.7008 78.8003 37.0312L74.6388 33.4609Z" fill="#B55B52"/>
<path d="M73.3802 41.8424C73.0635 41.1454 72.7103 40.343 73.437 40.0917C74.249 39.8161 78.6216 39.5365 80.1319 40.0512C80.3312 40.1063 80.5175 40.2003 80.68 40.3278C80.8426 40.4553 80.9782 40.6137 81.079 40.7939C81.1799 40.974 81.2439 41.1724 81.2674 41.3774C81.2909 41.5824 81.2734 41.79 81.2159 41.9883L73.3802 41.8424Z" fill="#263238"/>
<path d="M68.0901 41.9395C65.4795 43.1228 63.8555 52.0951 63.8555 52.0951L68.9751 53.716C69.981 51.3468 70.8167 48.9092 71.4761 46.4216C72.4058 42.673 70.7615 40.7319 68.0901 41.9395Z" fill="#407BFF"/>
<path d="M99.8764 64.1553H103.027L102.475 67.916C102.475 67.916 100.006 67.8268 98.8857 65.9667L99.8764 64.1553Z" fill="#B55B52"/>
<path d="M105.99 65.4639L104.407 68.3696L102.458 67.9238L103.01 64.1631L105.99 65.4639Z" fill="#B55B52"/>
<path d="M74.2087 30.1425C74.3996 33.2386 74.3549 35.0622 75.9221 36.6508C78.2769 39.0418 82.1054 37.6234 82.8444 34.5314C83.5143 31.7513 83.088 27.1518 80.0511 25.9198C79.3828 25.6449 78.6552 25.5451 77.9374 25.63C77.2196 25.7148 76.5354 25.9815 75.95 26.4046C75.3645 26.8278 74.8972 27.3934 74.5924 28.0476C74.2877 28.7018 74.1556 29.423 74.2087 30.1425Z" fill="#B55B52"/>
<path d="M73.8514 34.3527C73.8514 34.3527 71.05 30.1462 71.6509 27.4026C72.2071 24.8901 77.8789 23.9985 80.2337 24.2498C82.7347 24.5213 83.7091 25.5952 82.3368 27.7593C81.5274 28.1423 80.6757 28.4293 79.7993 28.6143C79.7993 28.6143 81.1919 30.3245 81.2041 31.4511C80.7981 31.6618 79.5435 32.1643 79.5435 32.1643C79.5435 32.1643 77.7652 36.541 77.7125 36.537C77.0263 36.4519 75.4389 36.4275 74.8705 36.6423C74.4675 35.9088 74.1266 35.1429 73.8514 34.3527Z" fill="#263238"/>
<path d="M78.3132 31.7147C78.5188 32.4549 78.9606 33.108 79.5718 33.5748C80.3838 34.1827 80.9887 33.6032 80.9278 32.6954C80.875 31.8849 80.3878 30.576 79.4946 30.3207C78.6014 30.0654 78.0777 30.8232 78.3132 31.7147Z" fill="#B55B52"/>
<path opacity="0.3" d="M78.0376 75.9639C74.0466 76.8879 74.7896 91.2985 75.5569 99.513C75.5935 99.3265 75.6219 99.1523 75.6544 98.9821C76.645 93.576 78.062 83.5015 79.0485 76.2314C78.7413 76.0542 78.3924 75.9619 78.0376 75.9639Z" fill="black"/>
<path d="M81.8977 143.522C82.2794 143.522 82.6488 143.47 82.7747 143.299C82.8071 143.255 82.8245 143.201 82.8245 143.145C82.8245 143.09 82.8071 143.036 82.7747 142.991C82.7507 142.95 82.7185 142.914 82.6801 142.885C82.6417 142.857 82.5979 142.836 82.5514 142.825C82.0561 142.692 81.0126 143.283 80.968 143.308C80.9561 143.315 80.9466 143.326 80.9409 143.339C80.9351 143.352 80.9332 143.367 80.9355 143.381C80.9382 143.395 80.9449 143.408 80.955 143.419C80.9651 143.43 80.978 143.438 80.9924 143.441C81.2913 143.494 81.5942 143.521 81.8977 143.522ZM82.3727 142.947C82.4172 142.94 82.4623 142.94 82.5067 142.947C82.5353 142.953 82.5623 142.964 82.5861 142.981C82.6099 142.998 82.6299 143.019 82.6448 143.044C82.6975 143.133 82.6772 143.174 82.6448 143.198C82.5067 143.393 81.7516 143.397 81.1954 143.32C81.5598 143.12 81.9597 142.994 82.3727 142.947Z" fill="#407BFF"/>
<path d="M80.997 143.458H81.0254C81.3867 143.3 82.1013 142.648 82.0444 142.319C82.0444 142.238 81.9754 142.141 81.7805 142.121C81.7081 142.11 81.6341 142.115 81.5638 142.136C81.4936 142.157 81.429 142.193 81.3745 142.242C80.9929 142.554 80.9157 143.353 80.9117 143.389C80.9101 143.402 80.9119 143.414 80.9169 143.426C80.9219 143.437 80.9299 143.447 80.9401 143.454C80.9578 143.463 80.9782 143.464 80.997 143.458ZM81.7237 142.242H81.7683C81.8942 142.242 81.9023 142.303 81.9064 142.319C81.9389 142.522 81.4517 143.029 81.0944 143.247C81.1295 142.907 81.2716 142.586 81.5004 142.332C81.5621 142.277 81.6411 142.245 81.7237 142.242Z" fill="#407BFF"/>
<path d="M77.7168 143.369H80.7009L80.9973 136.476H78.0172L77.7168 143.369Z" fill="#B55B52"/>
<path d="M80.6801 143.024H77.4321C77.3723 143.025 77.3145 143.046 77.268 143.083C77.2215 143.121 77.1892 143.173 77.1763 143.231L76.5795 145.89C76.5654 145.953 76.566 146.02 76.5811 146.083C76.5963 146.147 76.6257 146.206 76.6671 146.257C76.7085 146.307 76.7608 146.348 76.8202 146.376C76.8795 146.403 76.9444 146.417 77.0099 146.416C78.1832 146.416 79.8803 146.327 81.3581 146.327C83.0877 146.327 84.5777 146.424 86.6036 146.424C87.8216 146.424 88.1667 145.188 87.6552 145.075C85.3207 144.564 83.4165 144.512 81.3987 143.272C81.1878 143.122 80.9384 143.037 80.6801 143.024Z" fill="#263238"/>
<path opacity="0.2" d="M80.9968 136.479L80.8425 140.034H77.8584L78.0127 136.479H80.9968Z" fill="black"/>
<path d="M85.5112 67.6436C85.5112 67.6436 85.9172 89.8999 85.5965 98.9815C85.2595 108.424 81.9425 139.344 81.9425 139.344H76.904C76.904 139.344 76.7173 108.975 76.498 99.7028C76.2504 89.5919 75.0283 67.6436 75.0283 67.6436H85.5112Z" fill="#263238"/>
<path d="M82.9295 137.335C82.9498 137.335 82.6413 139.43 82.6413 139.43H76.4985L76.332 137.562L82.9295 137.335Z" fill="#407BFF"/>
<path d="M85.3329 41.9104C85.3329 41.9104 88.9138 47.3569 85.9135 69.5119H69.0645C68.9548 67.0804 70.9889 53.2736 68.626 41.7564C70.3892 41.4175 72.1726 41.1928 73.9649 41.0837C76.2231 40.9539 78.4869 40.9539 80.7451 41.0837C82.2936 41.2394 83.8276 41.5158 85.3329 41.9104Z" fill="#407BFF"/>
<path opacity="0.2" d="M87.1113 53.2456L83.5791 47.4141C83.5791 47.4141 84.9067 55.6974 86.9408 59.4338C87.0788 57.0833 87.1275 55.0327 87.1113 53.2456Z" fill="black"/>
<path d="M88.6176 46.1738C89.1982 48.0218 89.8356 49.9224 90.4892 51.7744C91.1429 53.6264 91.825 55.4784 92.572 57.2493L92.8562 57.9058C92.8817 57.954 92.9034 58.0042 92.9212 58.0557C92.9378 58.0934 92.9567 58.1299 92.978 58.1652C93.1582 58.4335 93.3679 58.6809 93.6032 58.9027C94.2429 59.4994 94.9314 60.0416 95.6617 60.5237C96.4249 61.0546 97.2329 61.5652 98.0652 62.0474C98.8975 62.5297 99.7582 63.0241 100.578 63.4456L98.999 67.1293C97.0005 66.3972 95.061 65.5139 93.1972 64.4871C92.1999 63.9314 91.2494 63.2958 90.3553 62.5864C89.8214 62.1573 89.3379 61.6692 88.914 61.1316C88.7922 60.9614 88.6744 60.8074 88.5567 60.6129C88.4389 60.4183 88.309 60.1752 88.2725 60.0941L87.9152 59.385C86.9854 57.4965 86.1532 55.608 85.3858 53.7115C84.6185 51.8149 83.9039 49.9062 83.2178 47.9367L88.6176 46.1738Z" fill="#407BFF"/>
<path d="M81.3542 43.2518C80.3107 45.9021 86.6565 56.5723 86.6565 56.5723L90.7856 52.6333C90.7856 52.6333 89.8842 49.2778 88.6825 45.2456C87.4969 41.2782 82.3489 40.719 81.3542 43.2518Z" fill="#407BFF"/>
</svg>
