<svg width="590" height="443" viewBox="0 0 590 443" fill="none" xmlns="http://www.w3.org/2000/svg">
<path d="M26.7822 343.528C-17.2757 267.528 -8.19916 197.027 74.1925 123.624C194.703 16.261 466.021 -74.1362 552.955 91.8566C604.096 189.506 607.848 296.262 528.797 373.085C484.577 416.059 444.275 426.067 383.125 433.999C302.174 444.5 258.758 447.563 183.785 426.398C117.062 407.562 61.5579 403.516 26.7822 343.528Z" fill="#D3D9ED"/>
<path d="M65 388.883H508V389.105H65V388.883Z" fill="#EBEBEB"/>
<path d="M109.389 403.177H138.733V403.399H109.389V403.177Z" fill="#EBEBEB"/>
<path d="M175.811 400.174H227.182V400.396H175.811V400.174Z" fill="#EBEBEB"/>
<path d="M139.619 394.933H187.561V395.155H139.619V394.933Z" fill="#EBEBEB"/>
<path d="M448.311 396.425H461.521V396.647H448.311V396.425Z" fill="#EBEBEB"/>
<path d="M383.365 396.425H440.424V396.647H383.365V396.425Z" fill="#EBEBEB"/>
<path d="M308.517 400.174H346.748V400.396H308.517V400.174Z" fill="#EBEBEB"/>
<path d="M298.019 349.264H469.096C470.436 349.261 471.721 348.726 472.668 347.775C473.615 346.824 474.146 345.535 474.146 344.191V103.072C474.146 101.729 473.615 100.44 472.668 99.4888C471.721 98.5378 470.436 98.0024 469.096 98H298.019C296.677 98 295.39 98.5344 294.441 99.4857C293.492 100.437 292.959 101.727 292.959 103.072V344.191C292.959 344.857 293.09 345.517 293.345 346.132C293.599 346.748 293.971 347.307 294.441 347.778C294.911 348.249 295.469 348.623 296.083 348.878C296.696 349.132 297.354 349.264 298.019 349.264ZM469.096 98.2221C470.378 98.2244 471.606 98.7365 472.511 99.6458C473.417 100.555 473.925 101.788 473.925 103.072V344.191C473.925 345.476 473.417 346.708 472.511 347.618C471.606 348.527 470.378 349.039 469.096 349.042H298.019C296.736 349.039 295.507 348.527 294.6 347.618C293.694 346.709 293.183 345.477 293.181 344.191V103.072C293.183 101.787 293.694 100.554 294.6 99.6453C295.507 98.7362 296.736 98.2244 298.019 98.2221H469.096Z" fill="#EBEBEB"/>
<path d="M106.368 349.264H277.455C278.796 349.261 280.081 348.726 281.029 347.775C281.978 346.825 282.511 345.536 282.514 344.191V103.072C282.511 101.728 281.978 100.439 281.029 99.4883C280.081 98.5375 278.796 98.0023 277.455 98H106.368C105.029 98.0047 103.747 98.5412 102.802 99.4919C101.857 100.443 101.327 101.73 101.327 103.072V344.191C101.327 345.534 101.857 346.821 102.802 347.772C103.747 348.722 105.029 349.259 106.368 349.264ZM277.455 98.2221C278.737 98.2244 279.966 98.7362 280.873 99.6453C281.779 100.554 282.29 101.787 282.292 103.072V344.191C282.29 345.477 281.779 346.709 280.873 347.618C279.966 348.527 278.737 349.039 277.455 349.042H106.368C105.086 349.039 103.857 348.527 102.95 347.618C102.043 346.709 101.533 345.477 101.53 344.191V103.072C101.533 101.787 102.043 100.554 102.95 99.6453C103.857 98.7362 105.086 98.2244 106.368 98.2221H277.455Z" fill="#EBEBEB"/>
<path d="M310.377 113.893H450.711V194.242H310.377V113.893Z" fill="#FAFAFA"/>
<path d="M318.369 194.242L354.057 113.893H380.85L345.153 194.242H318.369Z" fill="white"/>
<path d="M390.392 194.242L426.089 113.893H435.861L400.164 194.242H390.392Z" fill="white"/>
<path d="M457.409 110.437H303.688C303.524 110.439 303.368 110.505 303.252 110.621C303.136 110.737 303.07 110.894 303.068 111.058C303.068 111.224 303.133 111.383 303.249 111.501C303.365 111.619 303.523 111.687 303.688 111.689H457.409C457.574 111.687 457.732 111.619 457.848 111.501C457.964 111.383 458.029 111.224 458.029 111.058C458.027 110.894 457.961 110.737 457.845 110.621C457.729 110.505 457.573 110.439 457.409 110.437Z" fill="#E0E0E0"/>
<path d="M379.715 113.679H381.381V194.463H379.715V113.679Z" fill="#F0F0F0"/>
<path d="M381.382 113.679H382.215V194.463H381.382V113.679Z" fill="#E0E0E0"/>
<path d="M451.686 153.227V154.897H309.412V153.227H451.686Z" fill="#F0F0F0"/>
<path d="M451.686 193.54V112.915H309.412V193.54V195.21H451.686V193.54ZM311.077 193.54V114.585H450.02V193.54H311.077Z" fill="#F0F0F0"/>
<path d="M451.687 112.915H452.52V195.21H451.687V112.915Z" fill="#E0E0E0"/>
<path opacity="0.5" d="M429.661 107.594V218.688H458.863L453.503 107.594H429.661Z" fill="#EBEBEB"/>
<path opacity="0.5" d="M332.271 107.594V218.688H303.069L308.42 107.594H332.271Z" fill="#EBEBEB"/>
<path d="M121.456 113.893H261.789V194.242H121.456V113.893Z" fill="#FAFAFA"/>
<path d="M129.439 194.242L165.136 113.893H191.92L156.223 194.242H129.439Z" fill="white"/>
<path d="M201.471 194.242L237.159 113.893H246.932L211.244 194.242H201.471Z" fill="white"/>
<path d="M268.479 110.437H114.767C114.602 110.437 114.443 110.502 114.326 110.618C114.208 110.734 114.141 110.893 114.138 111.058C114.138 111.141 114.154 111.223 114.186 111.3C114.218 111.376 114.264 111.446 114.322 111.504C114.381 111.563 114.45 111.609 114.527 111.641C114.603 111.673 114.685 111.689 114.767 111.689H268.479C268.562 111.689 268.643 111.673 268.719 111.641C268.795 111.609 268.863 111.562 268.921 111.504C268.979 111.445 269.024 111.376 269.055 111.299C269.086 111.223 269.101 111.141 269.1 111.058C269.1 110.893 269.034 110.735 268.918 110.619C268.802 110.502 268.644 110.437 268.479 110.437Z" fill="#E0E0E0"/>
<path d="M190.785 113.679H192.451V194.463H190.785V113.679Z" fill="#F0F0F0"/>
<path d="M192.451 113.679H193.284V194.463H192.451V113.679Z" fill="#E0E0E0"/>
<path d="M262.764 153.227V154.897H120.49V153.227H262.764Z" fill="#F0F0F0"/>
<path d="M262.756 193.54V112.915H120.482V193.54V195.21H262.756V193.54ZM122.148 193.54V114.585H261.099V193.54H122.148Z" fill="#F0F0F0"/>
<path d="M262.755 112.915H263.588V195.21H262.755V112.915Z" fill="#E0E0E0"/>
<path opacity="0.5" d="M240.729 107.594V218.688H269.932L264.58 107.594H240.729Z" fill="#EBEBEB"/>
<path opacity="0.5" d="M143.34 107.594V218.688H114.137L119.498 107.594H143.34Z" fill="#EBEBEB"/>
<path d="M299.844 271.57H111.055V260.377H299.844V271.57Z" fill="#EBEBEB"/>
<path d="M299.844 271.57H251.141V260.377H299.844V271.57Z" fill="#E0E0E0"/>
<path d="M127.605 388.883H111.055L111.055 271.579H127.605L127.605 388.883Z" fill="#EBEBEB"/>
<path d="M299.843 388.883H283.293V271.579H299.843V388.883Z" fill="#E0E0E0"/>
<path d="M159.758 388.883H143.207L143.207 271.579H159.758V388.883Z" fill="#E0E0E0"/>
<path d="M299.844 315.525H111.055V304.332H299.844V315.525Z" fill="#EBEBEB"/>
<path d="M299.844 315.525H251.141V304.332H299.844V315.525Z" fill="#E0E0E0"/>
<path d="M299.844 359.471H111.055V348.278H299.844V359.471Z" fill="#EBEBEB"/>
<path d="M299.844 359.471H251.141V348.278H299.844V359.471Z" fill="#E0E0E0"/>
<path d="M267.691 388.883H251.141L251.141 271.579H267.691V388.883Z" fill="#E0E0E0"/>
<path d="M442.764 269.03H457.693V384.851H442.764V269.03Z" fill="#F0F0F0"/>
<path d="M339.58 384.85H455.619V388.883H339.58V384.85Z" fill="#E6E6E6"/>
<path d="M442.755 384.85H337.516V269.029H442.755V384.85Z" fill="#FAFAFA"/>
<path d="M426.816 340.39H353.473C351.335 340.39 349.602 338.652 349.602 336.508V316.44C349.602 314.296 351.335 312.558 353.473 312.558H426.816C428.955 312.558 430.688 314.296 430.688 316.44V336.508C430.688 338.652 428.955 340.39 426.816 340.39Z" fill="white"/>
<path d="M426.816 376.216H353.473C351.335 376.216 349.602 374.478 349.602 372.334V352.266C349.602 350.122 351.335 348.384 353.473 348.384H426.816C428.955 348.384 430.688 350.122 430.688 352.266V372.334C430.688 374.478 428.955 376.216 426.816 376.216Z" fill="white"/>
<path d="M384.253 311.367H396.019C397.227 311.367 398.207 312.35 398.207 313.561V315.178C398.207 316.39 397.227 317.372 396.019 317.372H384.253C383.044 317.372 382.064 316.39 382.064 315.178V313.561C382.064 312.35 383.044 311.367 384.253 311.367Z" fill="#FAFAFA"/>
<path d="M426.816 304.572H353.473C351.335 304.572 349.602 302.834 349.602 300.69V280.623C349.602 278.479 351.335 276.741 353.473 276.741H426.816C428.955 276.741 430.688 278.479 430.688 280.623V300.69C430.688 302.834 428.955 304.572 426.816 304.572Z" fill="white"/>
<path d="M384.253 275.541H396.019C397.227 275.541 398.207 276.523 398.207 277.735V279.352C398.207 280.564 397.227 281.546 396.019 281.546H384.253C383.044 281.546 382.064 280.564 382.064 279.352V277.735C382.064 276.523 383.044 275.541 384.253 275.541Z" fill="#FAFAFA"/>
<path d="M384.253 347.185H396.019C397.227 347.185 398.207 348.167 398.207 349.379V350.995C398.207 352.207 397.227 353.19 396.019 353.19H384.253C383.044 353.19 382.064 352.207 382.064 350.995V349.379C382.064 348.167 383.044 347.185 384.253 347.185Z" fill="#FAFAFA"/>
<path d="M334.796 265.281H442.764V269.03H334.796V265.281Z" fill="#F0F0F0"/>
<path d="M460.625 269.03H442.764V265.282H460.625V269.03Z" fill="#E6E6E6"/>
<path d="M442.525 228.14H378.211L373.028 263.335H437.342L442.525 228.14Z" fill="#E6E6E6"/>
<path d="M437.342 263.336L437.315 265.281H373L373.027 263.336H437.342Z" fill="#E6E6E6"/>
<path d="M440.539 228.14H376.224L371.05 263.335H435.365L440.539 228.14Z" fill="#F0F0F0"/>
<path d="M433.815 261.728L438.52 229.748H377.775L373.071 261.728H433.815Z" fill="white"/>
<path d="M418.611 263.336L418.576 265.281H347.749L347.784 263.336H418.611Z" fill="#F0F0F0"/>
<path d="M286.501 429C191.625 429 114.714 424.498 114.714 418.945C114.714 413.391 191.625 408.889 286.501 408.889C381.376 408.889 458.287 413.391 458.287 418.945C458.287 424.498 381.376 429 286.501 429Z" fill="#F5F5F5"/>
<path d="M406.11 137.451C405.419 131.686 396.364 127.147 388.505 129.874C379.486 133.009 380.912 141.298 374.95 141.617C368.987 141.937 366.001 152.535 371.22 157.438C376.438 162.342 366.852 164.545 366.533 171.421C366.214 178.296 366.187 183.635 360.57 188.725C353.482 195.139 364.406 215.802 382.348 206.35C398.429 197.893 418.559 210.063 422.156 198.355C425.257 188.175 410 177.168 413.198 172.247C416.397 167.326 414.27 162.715 410.647 156.781C406.19 149.523 417.132 138.633 406.11 137.451Z" fill="#263238"/>
<path d="M370.333 185.332C368.145 189.774 365.903 194.322 363.556 198.719C362.368 200.913 361.163 203.09 359.932 205.186C358.779 207.2 357.485 209.13 356.06 210.96L355.768 211.307C355.716 211.374 355.653 211.431 355.582 211.476C355.349 211.63 355.095 211.75 354.828 211.831C353.964 212.074 353.067 212.179 352.17 212.142C349.898 212.043 347.643 211.695 345.446 211.102C343.116 210.534 340.776 209.788 338.437 208.979C336.098 208.171 333.75 207.256 331.5 206.314L329.445 210.063C333.853 212.995 338.572 215.429 343.514 217.321C346.152 218.338 348.904 219.024 351.71 219.364C353.352 219.552 355.014 219.483 356.636 219.16C357.613 218.956 358.554 218.606 359.427 218.12C359.909 217.869 360.366 217.572 360.791 217.232C361.011 217.051 361.221 216.858 361.42 216.654L361.846 216.219C363.715 214.162 365.404 211.948 366.896 209.601C368.375 207.389 369.713 205.16 370.998 202.868C373.585 198.337 375.942 193.78 378.086 189.019L370.333 185.332Z" fill="#CE7A63"/>
<path d="M375.534 177.106C371.99 176.982 365.62 190.049 365.62 190.049L374.941 201.393C374.941 201.393 385.821 187.722 384.323 183.28C382.773 178.679 380.753 177.293 375.534 177.106Z" fill="#407BFF"/>
<path opacity="0.2" d="M374.941 180.269L370.095 195.503L374.463 200.798L374.941 180.269Z" fill="black"/>
<path d="M325.378 203.366L333.946 207.47L334.105 210.499C331.634 212.986 326.45 211.387 326.45 211.387L320.107 210.552L319.292 206.999C319.184 206.554 319.176 206.091 319.267 205.643C319.358 205.195 319.546 204.772 319.819 204.405C320.091 204.038 320.441 203.736 320.842 203.519C321.244 203.303 321.689 203.177 322.144 203.152L323.916 203.064C324.421 203.041 324.924 203.145 325.378 203.366Z" fill="#CE7A63"/>
<path d="M392.846 411.776H384.429L383.658 392.224H392.084L392.846 411.776Z" fill="#CE7A63"/>
<path d="M383.641 410.798H393.104C393.183 410.795 393.261 410.807 393.335 410.834C393.409 410.861 393.477 410.903 393.535 410.957C393.592 411.011 393.639 411.075 393.671 411.147C393.704 411.219 393.722 411.297 393.724 411.376L394.043 418.882C394.036 419.28 393.875 419.659 393.594 419.939C393.312 420.22 392.933 420.379 392.537 420.384C389.25 420.33 387.681 420.135 383.517 420.135C380.957 420.135 375.065 420.401 371.53 420.401C367.995 420.401 368.163 416.892 369.66 416.573C376.403 415.151 379.769 413.188 382.188 411.314C382.602 410.985 383.113 410.804 383.641 410.798Z" fill="#263238"/>
<g opacity="0.2">
<path opacity="0.2" d="M383.658 392.224L384.057 402.306H392.482L392.084 392.224H383.658Z" fill="black"/>
</g>
<path d="M372.159 181.299C371.973 186.629 372.894 199.066 378.494 228.132L412.684 227.119C411.692 213.182 411.426 204.583 417.221 175.747C412.405 174.898 407.534 174.402 402.646 174.264C397.467 174.047 392.28 174.202 387.123 174.726C383.163 175.206 378.901 176.032 376.101 176.618C375.017 176.844 374.039 177.428 373.324 178.276C372.609 179.125 372.199 180.189 372.159 181.299Z" fill="#407BFF"/>
<path d="M400.591 156.781C399.758 161.818 399.058 170.995 402.646 174.264C402.646 174.264 399.324 180.482 390.792 182.747C382.915 178.741 387.124 174.752 387.124 174.752C392.652 173.251 392.387 169.111 391.306 165.247L400.591 156.781Z" fill="#CE7A63"/>
<path d="M390.791 182.747L391.81 180.739L397.285 181.983L390.791 182.747Z" fill="#E0E0E0"/>
<path d="M391.81 180.74C393.582 179.94 401.707 174.628 402.026 172.976C403.415 173.11 404.783 173.408 406.102 173.864C406.102 173.864 405.065 179.86 398.677 186.771C397.029 183.023 394.841 181.388 391.81 180.74Z" fill="white"/>
<path d="M390.791 182.747L390.33 180.739L386.972 180.988L390.791 182.747Z" fill="#E0E0E0"/>
<path d="M390.33 180.74C387.619 178.963 388.283 175.161 388.558 173.509C387.175 173.697 385.81 173.994 384.474 174.397C383.172 176.19 382.436 178.333 382.36 180.55C382.284 182.767 382.872 184.955 384.048 186.834C385.368 183.227 387.61 181.948 390.33 180.74Z" fill="white"/>
<path opacity="0.2" d="M396.808 160.228L391.306 165.22C391.571 166.117 391.758 167.035 391.864 167.965C393.99 167.592 396.843 165.167 397.003 162.928C397.101 162.023 397.035 161.108 396.808 160.228Z" fill="black"/>
<path d="M403.239 146.086C402.876 154.454 402.894 158.007 398.756 162.369C392.554 168.933 382.356 166.65 380.221 158.336C378.298 150.856 379.228 138.419 387.309 134.946C389.095 134.168 391.05 133.861 392.987 134.055C394.925 134.248 396.781 134.937 398.378 136.053C399.975 137.17 401.261 138.679 402.111 140.435C402.962 142.191 403.351 144.136 403.239 146.086Z" fill="#CE7A63"/>
<path d="M404.4 136.972C401.308 138.526 397.047 138.26 396.249 140.125C395.452 141.991 397.693 153.157 402.327 153.21C406.589 147.445 407.227 139.646 404.4 136.972Z" fill="#263238"/>
<path d="M403.975 138.366C397.152 142.692 374.666 146.734 382.011 136.971C387.592 129.563 402.273 133.285 403.975 138.366Z" fill="#263238"/>
<path d="M378.413 228.132C378.413 228.132 375.109 290.519 374.94 316.165C374.763 342.815 382.25 400.352 382.25 400.352H393.644C393.644 400.352 391.473 342.211 393.227 315.899C395.141 287.215 401.795 227.386 401.795 227.386L378.413 228.132Z" fill="#263238"/>
<path d="M394.593 400.761H381.223L380.674 396.488L395.691 395.964L394.593 400.761Z" fill="#407BFF"/>
<path opacity="0.2" d="M399.385 249.789C398.153 248.252 396.541 249.052 394.432 253.44C387.238 268.399 390.888 292.269 393.971 306.011C395.353 288.902 397.639 266.347 399.385 249.789Z" fill="black"/>
<path d="M389.408 149.257C389.408 149.941 389.072 150.501 388.629 150.51C388.186 150.519 387.813 149.968 387.805 149.284C387.796 148.6 388.141 148.049 388.584 148.04C389.027 148.031 389.399 148.582 389.408 149.257Z" fill="#263238"/>
<path d="M381.736 149.195C381.736 149.879 381.4 150.438 380.957 150.447C380.514 150.456 380.142 149.905 380.133 149.221C380.124 148.537 380.469 147.987 380.912 147.978C381.355 147.969 381.727 148.52 381.736 149.195Z" fill="#263238"/>
<path d="M381.115 148.014L379.476 147.569C379.476 147.569 380.327 148.831 381.115 148.014Z" fill="#263238"/>
<path d="M384.687 149.853C384.11 151.417 383.32 152.894 382.339 154.241C382.691 154.482 383.092 154.643 383.512 154.713C383.933 154.784 384.364 154.762 384.775 154.65L384.687 149.853Z" fill="#BA4D3C"/>
<path d="M388.522 157.252C388.191 157.309 387.857 157.341 387.521 157.35C387.491 157.356 387.46 157.356 387.431 157.348C387.401 157.341 387.374 157.328 387.35 157.309C387.327 157.289 387.308 157.265 387.295 157.238C387.282 157.21 387.275 157.18 387.275 157.15C387.275 157.119 387.282 157.089 387.295 157.062C387.308 157.034 387.327 157.01 387.35 156.991C387.374 156.972 387.401 156.958 387.431 156.951C387.46 156.944 387.491 156.944 387.521 156.95C388.367 156.959 389.203 156.766 389.96 156.386C390.717 156.005 391.372 155.45 391.871 154.765C391.885 154.742 391.903 154.722 391.924 154.707C391.945 154.691 391.97 154.681 391.995 154.675C392.021 154.669 392.047 154.668 392.073 154.673C392.099 154.678 392.124 154.688 392.146 154.702C392.168 154.716 392.188 154.734 392.203 154.755C392.219 154.777 392.23 154.801 392.235 154.827C392.241 154.853 392.242 154.879 392.237 154.905C392.232 154.931 392.222 154.956 392.208 154.978C391.776 155.584 391.228 156.098 390.594 156.489C389.961 156.879 389.257 157.139 388.522 157.252Z" fill="#263238"/>
<path d="M405.631 153.708C405.091 155.236 403.97 156.488 402.512 157.19C400.572 158.078 399.251 156.435 399.5 154.418C399.721 152.642 400.997 149.977 403.044 149.879C403.503 149.867 403.958 149.971 404.367 150.181C404.775 150.392 405.125 150.702 405.382 151.083C405.64 151.465 405.798 151.905 405.841 152.364C405.885 152.822 405.812 153.284 405.631 153.708Z" fill="#CE7A63"/>
<path d="M392.5 147.01C392.418 147.023 392.334 147.011 392.259 146.974C392.185 146.938 392.123 146.879 392.084 146.805C391.198 145.162 388.868 144.842 388.841 144.842C388.735 144.828 388.639 144.772 388.575 144.687C388.51 144.602 388.481 144.495 388.495 144.389C388.51 144.283 388.565 144.187 388.65 144.122C388.735 144.057 388.842 144.028 388.947 144.043C389.062 144.043 391.738 144.433 392.784 146.432C392.808 146.479 392.823 146.53 392.828 146.582C392.833 146.635 392.828 146.688 392.812 146.738C392.796 146.789 392.771 146.835 392.737 146.876C392.703 146.916 392.662 146.95 392.615 146.974L392.5 147.01Z" fill="#263238"/>
<path d="M379.405 145.251C379.337 145.262 379.267 145.255 379.202 145.232C379.137 145.209 379.079 145.169 379.033 145.117C378.998 145.077 378.972 145.031 378.955 144.98C378.938 144.93 378.932 144.877 378.936 144.824C378.94 144.771 378.955 144.719 378.979 144.672C379.003 144.625 379.037 144.583 379.077 144.549C379.554 144.127 380.124 143.826 380.741 143.672C381.358 143.517 382.003 143.513 382.621 143.66C382.723 143.691 382.809 143.761 382.86 143.855C382.911 143.949 382.922 144.06 382.891 144.162C382.861 144.265 382.791 144.351 382.697 144.402C382.603 144.453 382.493 144.464 382.391 144.433C381.901 144.326 381.392 144.339 380.908 144.47C380.424 144.602 379.978 144.848 379.609 145.188C379.546 145.223 379.476 145.244 379.405 145.251Z" fill="#263238"/>
<path d="M413.783 188.965C416.21 192.457 418.656 196.179 420.933 199.865C423.196 203.523 425.266 207.298 427.135 211.174L427.471 211.893L427.64 212.257C427.64 212.346 427.64 212.257 427.64 212.257C427.64 212.257 427.719 212.391 427.719 212.666C427.712 213.445 427.596 214.22 427.374 214.967C426.797 216.911 426.059 218.804 425.168 220.625C423.343 224.472 421.136 228.354 418.904 232.112L422.271 234.776C425.49 231.413 428.385 227.751 430.918 223.841C432.271 221.777 433.411 219.581 434.32 217.285C434.868 215.919 435.214 214.479 435.348 213.012C435.428 212.031 435.341 211.042 435.091 210.09C435.058 209.948 435.016 209.809 434.967 209.672L434.834 209.308L434.675 208.899L434.356 208.064C433.47 205.853 432.53 203.721 431.503 201.624C430.475 199.528 429.412 197.493 428.26 195.486C425.965 191.465 423.441 187.58 420.702 183.849L413.783 188.965Z" fill="#CE7A63"/>
<path d="M417.221 175.747C420.685 176.689 425.15 188.397 425.15 188.397L412.135 198.32C412.135 198.32 406.996 188.548 408.308 184.106C409.654 179.434 413.278 174.672 417.221 175.747Z" fill="#407BFF"/>
<path d="M380.337 412.274C379.632 412.345 378.926 412.162 378.343 411.758C378.22 411.631 378.131 411.475 378.085 411.304C378.038 411.133 378.036 410.953 378.078 410.781C378.099 410.668 378.146 410.561 378.215 410.468C378.284 410.376 378.374 410.301 378.476 410.248C379.566 409.68 382.747 411.403 383.11 411.599C383.144 411.619 383.171 411.65 383.185 411.687C383.2 411.724 383.201 411.765 383.19 411.803C383.18 411.845 383.158 411.884 383.126 411.914C383.095 411.944 383.055 411.964 383.013 411.972C382.132 412.153 381.236 412.254 380.337 412.274ZM379.008 410.497C378.876 410.492 378.745 410.52 378.627 410.577C378.585 410.596 378.549 410.626 378.523 410.663C378.496 410.701 378.48 410.744 378.476 410.79C378.445 410.901 378.444 411.019 378.472 411.131C378.499 411.243 378.556 411.346 378.636 411.43C379.105 411.892 380.479 411.972 382.383 411.661C381.336 411.08 380.192 410.694 379.008 410.524V410.497Z" fill="#407BFF"/>
<path d="M382.976 411.98H382.896C381.939 411.518 380.132 409.697 380.388 408.746C380.442 408.516 380.637 408.231 381.195 408.178C381.386 408.154 381.581 408.173 381.765 408.233C381.948 408.293 382.117 408.392 382.258 408.524C383.233 409.413 383.197 411.678 383.197 411.776C383.196 411.812 383.186 411.847 383.167 411.878C383.148 411.909 383.122 411.935 383.091 411.953C383.056 411.973 383.016 411.982 382.976 411.98ZM381.31 408.551H381.195C380.823 408.551 380.787 408.738 380.769 408.782C380.619 409.359 381.824 410.79 382.79 411.447C382.79 410.781 382.612 409.422 381.974 408.844C381.887 408.753 381.783 408.68 381.667 408.63C381.552 408.579 381.427 408.553 381.301 408.551H381.31Z" fill="#407BFF"/>
<path d="M428.154 411.776H419.728L416.929 392.224H425.355L428.154 411.776Z" fill="#CE7A63"/>
<path d="M419.4 410.799H428.88C429.044 410.797 429.203 410.854 429.328 410.96C429.453 411.066 429.536 411.214 429.562 411.376L430.731 418.883C430.756 419.071 430.739 419.263 430.683 419.445C430.627 419.626 430.533 419.794 430.407 419.936C430.281 420.078 430.126 420.192 429.953 420.269C429.78 420.346 429.592 420.385 429.402 420.384C426.107 420.331 424.512 420.135 420.348 420.135C417.787 420.135 415.696 420.402 412.161 420.402C408.626 420.402 408.395 416.893 409.866 416.573C416.449 415.152 415.82 413.188 418.017 411.314C418.405 410.987 418.893 410.805 419.4 410.799Z" fill="#263238"/>
<path d="M418.071 412.274C417.348 412.336 416.624 412.155 416.016 411.758C415.881 411.637 415.777 411.485 415.712 411.315C415.647 411.145 415.624 410.962 415.643 410.781C415.647 410.67 415.68 410.563 415.739 410.469C415.799 410.375 415.882 410.299 415.98 410.248C416.999 409.68 420.41 411.403 420.765 411.599C420.802 411.617 420.832 411.647 420.851 411.683C420.87 411.72 420.877 411.762 420.871 411.803C420.867 411.845 420.85 411.885 420.821 411.915C420.792 411.946 420.753 411.966 420.711 411.972C419.843 412.155 418.959 412.256 418.071 412.274ZM416.547 410.497C416.418 410.49 416.29 410.518 416.175 410.577C416.135 410.597 416.102 410.627 416.079 410.665C416.055 410.702 416.042 410.746 416.042 410.79C416.028 410.908 416.043 411.028 416.084 411.139C416.126 411.25 416.194 411.35 416.281 411.43C416.795 411.892 418.186 411.972 420.047 411.661C418.953 411.085 417.77 410.7 416.547 410.524V410.497Z" fill="#407BFF"/>
<path d="M420.676 411.98H420.596C419.586 411.518 417.575 409.697 417.717 408.747C417.717 408.516 417.912 408.231 418.461 408.178C418.659 408.157 418.86 408.177 419.05 408.236C419.241 408.296 419.417 408.394 419.568 408.525C420.64 409.413 420.862 411.678 420.871 411.776C420.876 411.81 420.872 411.845 420.857 411.877C420.843 411.908 420.82 411.935 420.791 411.954C420.757 411.975 420.716 411.984 420.676 411.98ZM418.629 408.551H418.514C418.151 408.551 418.133 408.738 418.124 408.782C418.036 409.36 419.4 410.79 420.437 411.447C420.344 410.486 419.957 409.577 419.329 408.844C419.14 408.663 418.891 408.558 418.629 408.551Z" fill="#407BFF"/>
<g opacity="0.2">
<path opacity="0.2" d="M416.929 392.224L418.373 402.306H426.799L425.355 392.224H416.929Z" fill="black"/>
</g>
<path d="M412.684 227.119C420.889 240.186 418.594 288.272 419.887 313.944C421.234 340.594 427.861 400.352 427.861 400.352H416.476C416.476 400.352 405.543 339.573 400.448 313.802C394.822 285.376 387.974 227.119 387.974 227.119H412.684Z" fill="#263238"/>
<path d="M428.588 400.761H415.227L414.749 396.488L429.775 395.964L428.588 400.761Z" fill="#407BFF"/>
<path d="M388.779 148.076L387.14 147.632C387.14 147.632 388 148.893 388.779 148.076Z" fill="#263238"/>
<path d="M413.135 225.093L414.083 228.131C414.207 228.362 413.933 228.62 413.543 228.629L378.351 229.677C378.041 229.677 377.784 229.544 377.757 229.348L377.358 226.292C377.358 226.079 377.589 225.893 377.926 225.884L412.55 224.844C412.661 224.831 412.773 224.847 412.876 224.891C412.978 224.934 413.068 225.004 413.135 225.093Z" fill="#407BFF"/>
<path d="M408.6 229.109H409.486C409.664 229.109 409.805 229.002 409.788 228.887L409.238 224.916C409.238 224.8 409.052 224.703 408.875 224.711H407.989C407.803 224.711 407.67 224.818 407.679 224.934L408.237 228.904C408.255 229.029 408.414 229.118 408.6 229.109Z" fill="#263238"/>
<path d="M380.984 229.935H381.914C382.1 229.935 382.233 229.828 382.215 229.713L381.666 225.733C381.666 225.618 381.48 225.529 381.303 225.538H380.372C380.186 225.538 380.053 225.644 380.062 225.76L380.62 229.731C380.638 229.846 380.798 229.935 380.984 229.935Z" fill="#263238"/>
<path d="M394.797 229.517H395.683C395.869 229.517 396.01 229.411 395.993 229.295L395.434 225.324C395.434 225.209 395.257 225.12 395.071 225.12H394.185C394.008 225.12 393.866 225.218 393.884 225.333L394.433 229.313C394.442 229.473 394.593 229.526 394.797 229.517Z" fill="#263238"/>
<path d="M421.721 229.891L412.754 231.445L419.302 236.971C419.213 237.033 424.272 235.07 424.777 231.543L421.721 229.891Z" fill="#CE7A63"/>
<path d="M410.239 238.356L412.215 239.857C412.656 240.184 413.19 240.359 413.739 240.359C414.287 240.359 414.821 240.184 415.263 239.857L419.303 236.908L412.755 231.383L409.876 234.554C409.633 234.819 409.448 235.133 409.333 235.474C409.219 235.816 409.178 236.178 409.212 236.536C409.246 236.895 409.355 237.242 409.532 237.556C409.709 237.869 409.95 238.142 410.239 238.356Z" fill="#CE7A63"/>
<path d="M153.052 210.552H369.564C373.919 210.552 377.449 214.091 377.449 218.458V347.266C377.449 351.632 373.919 355.172 369.564 355.172H153.052C148.697 355.172 145.167 351.632 145.167 347.266V218.458C145.167 214.091 148.697 210.552 153.052 210.552Z" fill="white"/>
<path d="M153.051 355.616H369.572C371.78 355.613 373.897 354.733 375.458 353.167C377.02 351.602 377.898 349.479 377.9 347.265V218.458C377.898 216.244 377.02 214.121 375.458 212.556C373.897 210.99 371.78 210.11 369.572 210.107H153.051C150.842 210.107 148.722 210.987 147.159 212.553C145.596 214.118 144.716 216.242 144.714 218.458V347.265C144.719 349.48 145.599 351.603 147.162 353.168C148.724 354.733 150.842 355.613 153.051 355.616ZM369.572 211.005C371.543 211.007 373.432 211.793 374.826 213.19C376.219 214.587 377.003 216.482 377.006 218.458V347.265C377.001 349.241 376.216 351.134 374.823 352.53C373.43 353.927 371.542 354.714 369.572 354.718H153.051C151.081 354.716 149.191 353.93 147.798 352.533C146.404 351.136 145.62 349.241 145.618 347.265V218.458C145.618 216.481 146.401 214.585 147.795 213.188C149.189 211.79 151.08 211.005 153.051 211.005H369.572Z" fill="#407BFF"/>
<path d="M148.002 355.171H374.614C375.506 355.171 376.387 355.364 377.197 355.737C378.007 356.109 378.728 356.652 379.31 357.33L387.674 367.03C388.452 367.932 388.955 369.038 389.123 370.219C389.291 371.399 389.118 372.602 388.623 373.686C388.128 374.77 387.333 375.689 386.332 376.333C385.331 376.976 384.167 377.318 382.978 377.317H139.638C138.449 377.318 137.285 376.976 136.284 376.333C135.283 375.689 134.488 374.77 133.993 373.686C133.498 372.602 133.325 371.399 133.493 370.219C133.661 369.038 134.164 367.932 134.942 367.03L143.315 357.33C143.896 356.654 144.615 356.111 145.424 355.739C146.233 355.366 147.112 355.172 148.002 355.171Z" fill="white"/>
<path d="M139.637 377.77H382.977C384.252 377.769 385.5 377.402 386.572 376.711C387.644 376.02 388.496 375.035 389.026 373.873C389.556 372.711 389.742 371.421 389.562 370.155C389.382 368.89 388.843 367.704 388.01 366.737L379.646 357.036C379.023 356.31 378.25 355.728 377.382 355.329C376.513 354.931 375.569 354.725 374.614 354.727H148.01C147.053 354.724 146.108 354.93 145.237 355.328C144.367 355.727 143.593 356.31 142.969 357.036L134.605 366.737C133.772 367.704 133.233 368.89 133.053 370.155C132.873 371.421 133.059 372.711 133.589 373.873C134.119 375.035 134.971 376.02 136.043 376.711C137.115 377.402 138.363 377.769 139.637 377.77ZM374.614 355.615C375.439 355.614 376.256 355.792 377.007 356.137C377.757 356.482 378.425 356.986 378.964 357.614L387.336 367.314C388.058 368.151 388.524 369.179 388.68 370.274C388.836 371.369 388.675 372.487 388.216 373.493C387.756 374.499 387.019 375.351 386.09 375.949C385.161 376.547 384.081 376.864 382.977 376.864H139.637C138.533 376.866 137.451 376.55 136.522 375.952C135.592 375.354 134.854 374.501 134.395 373.494C133.936 372.487 133.776 371.368 133.934 370.272C134.093 369.177 134.562 368.15 135.287 367.314L143.651 357.614C144.191 356.986 144.861 356.482 145.613 356.137C146.365 355.792 147.183 355.614 148.01 355.615H374.614Z" fill="#407BFF"/>
<path d="M385.166 371.019C385.734 371.017 386.29 371.192 386.756 371.519C387.222 371.846 387.576 372.31 387.77 372.846C387.964 373.382 387.988 373.966 387.839 374.516C387.69 375.067 387.375 375.558 386.938 375.922C385.831 376.837 384.438 377.331 383.004 377.317H139.646C138.12 377.333 136.644 376.775 135.508 375.753C135.113 375.371 134.842 374.878 134.729 374.339C134.615 373.8 134.666 373.24 134.874 372.73C135.082 372.22 135.438 371.785 135.895 371.479C136.353 371.174 136.891 371.014 137.44 371.019H385.166Z" fill="#407BFF"/>
<path d="M149.649 347.265V218.457C149.649 216.578 151.169 215.055 153.043 215.055H369.563C371.438 215.055 372.957 216.578 372.957 218.457V347.265C372.957 349.144 371.438 350.667 369.563 350.667H153.043C151.169 350.667 149.649 349.144 149.649 347.265Z" fill="#407BFF"/>
<path opacity="0.3" d="M154.762 348.233H367.854C368.559 348.233 369.235 347.952 369.733 347.453C370.232 346.953 370.512 346.275 370.512 345.568V220.172C370.512 219.465 370.232 218.787 369.733 218.287C369.235 217.788 368.559 217.507 367.854 217.507H154.762C154.057 217.507 153.381 217.788 152.882 218.287C152.384 218.787 152.104 219.465 152.104 220.172V345.55C152.102 345.902 152.169 346.25 152.301 346.576C152.434 346.901 152.629 347.197 152.876 347.446C153.123 347.696 153.417 347.894 153.741 348.029C154.064 348.164 154.411 348.233 154.762 348.233ZM367.854 217.924C368.444 217.924 369.011 218.159 369.429 218.577C369.848 218.995 370.084 219.562 370.086 220.154V345.55C370.086 345.844 370.029 346.136 369.916 346.407C369.804 346.679 369.64 346.926 369.432 347.133C369.225 347.341 368.979 347.506 368.708 347.619C368.437 347.731 368.147 347.789 367.854 347.789H154.762C154.171 347.787 153.606 347.55 153.189 347.13C152.772 346.711 152.538 346.143 152.538 345.55V220.172C152.54 219.581 152.775 219.015 153.192 218.598C153.608 218.18 154.173 217.944 154.762 217.942L367.854 217.924Z" fill="white"/>
<path d="M226.891 264.881C226.891 269.323 184.008 269.323 184.008 264.881C184.008 240.239 226.891 240.239 226.891 264.881Z" fill="#407BFF"/>
<path d="M205.449 268.675C210.396 268.713 215.342 268.435 220.254 267.84C226.633 266.952 227.342 265.735 227.342 264.882C227.342 251.859 215.974 245.916 205.422 245.916C194.861 245.916 183.502 251.85 183.502 264.882C183.529 268.488 201.79 268.675 205.449 268.675ZM226.411 264.882C226.411 266.072 219.12 267.707 205.449 267.707C191.778 267.707 184.486 266.072 184.486 264.882C184.486 252.516 195.348 246.884 205.449 246.884C215.549 246.884 226.411 252.516 226.411 264.882Z" fill="white"/>
<path d="M180.473 209.104C177.16 216.077 173.27 232.2 172.668 245.001C172.643 245.474 172.744 245.945 172.96 246.365C173.176 246.786 173.501 247.141 173.9 247.394C174.298 247.647 174.757 247.79 175.229 247.806C175.701 247.823 176.168 247.713 176.584 247.488C177.555 246.947 178.614 246.583 179.711 246.414C180.996 246.218 181.98 244.406 182.006 242.238L182.431 210.259C182.449 208.517 181.129 207.727 180.473 209.104Z" fill="white"/>
<path d="M175.334 248.261C175.846 248.26 176.349 248.129 176.796 247.879C177.723 247.371 178.73 247.025 179.773 246.857C181.297 246.626 182.431 244.681 182.431 242.247L182.848 210.267C182.848 209.085 182.334 208.144 181.554 207.957C181.238 207.903 180.912 207.962 180.635 208.125C180.358 208.287 180.147 208.542 180.039 208.845C176.752 215.757 172.809 231.942 172.189 244.912C172.162 245.465 172.283 246.016 172.54 246.506C172.797 246.997 173.181 247.409 173.651 247.701C174.147 248.045 174.731 248.239 175.334 248.261ZM181.333 208.854H181.377C181.625 208.908 181.988 209.396 181.979 210.267L181.554 242.247C181.554 244.183 180.668 245.8 179.64 245.986C178.494 246.168 177.388 246.547 176.371 247.106C176.026 247.289 175.639 247.378 175.248 247.364C174.858 247.349 174.479 247.231 174.149 247.022C173.818 246.812 173.549 246.519 173.369 246.172C173.188 245.825 173.102 245.436 173.119 245.045C173.731 232.146 177.629 216.156 180.881 209.316C180.934 209.192 181.067 208.854 181.333 208.854Z" fill="#407BFF"/>
<path d="M179.852 251.246C179.852 257.597 231.045 257.597 231.045 251.246V180.499C231.134 165.36 227.652 150.415 220.883 136.882C216.63 128.514 211.305 121.461 205.449 121.461C199.592 121.461 194.267 128.514 190.015 136.882C183.246 150.415 179.763 165.36 179.852 180.499V251.246Z" fill="white"/>
<path d="M205.449 256.46C211.378 256.521 217.302 256.12 223.169 255.261C228.804 254.328 231.542 253.022 231.542 251.246V180.499C231.614 165.291 228.114 150.279 221.326 136.678C216.01 126.284 210.694 121.008 205.493 121.008C200.293 121.008 194.941 126.284 189.661 136.678C182.873 150.279 179.373 165.291 179.445 180.499V251.246C179.401 256.318 202.782 256.46 205.449 256.46ZM205.449 121.905C210.304 121.905 215.364 127.013 220.511 137.087C227.237 150.56 230.703 165.432 230.629 180.499V251.246C230.629 253.671 219.581 255.563 205.476 255.563C191.371 255.563 180.322 253.671 180.322 251.246V180.499C180.24 165.435 183.697 150.562 190.414 137.087C195.535 127.013 200.558 121.905 205.449 121.905Z" fill="#407BFF"/>
<path d="M205.449 155.617C213.707 155.617 221.3 153.361 226.279 149.399L225.721 148.697C220.972 152.455 213.388 154.693 205.449 154.693C197.511 154.693 189.927 152.482 185.178 148.724L184.62 149.426C189.599 153.361 197.192 155.617 205.449 155.617Z" fill="#407BFF"/>
<path d="M229.363 209.103C235.087 216.263 241.767 233.088 242.529 246.031C242.56 246.493 242.47 246.955 242.269 247.372C242.067 247.789 241.761 248.146 241.38 248.407C240.999 248.669 240.556 248.827 240.096 248.865C239.636 248.903 239.174 248.821 238.755 248.625C236.207 247.415 233.465 246.666 230.657 246.413C229.614 246.313 228.645 245.833 227.933 245.063C227.22 244.293 226.815 243.288 226.794 242.238L226.094 210.258C226.092 209.876 226.209 209.502 226.428 209.19C226.648 208.877 226.959 208.641 227.319 208.514C227.678 208.387 228.068 208.375 228.435 208.481C228.801 208.587 229.126 208.804 229.363 209.103Z" fill="white"/>
<path d="M239.871 249.326C240.296 249.325 240.717 249.236 241.107 249.066C241.497 248.896 241.848 248.648 242.139 248.337C242.43 248.026 242.655 247.658 242.8 247.257C242.945 246.856 243.006 246.43 242.981 246.004C242.237 232.955 235.397 215.934 229.691 208.828C229.394 208.452 228.987 208.18 228.527 208.049C228.068 207.917 227.579 207.934 227.129 208.096C226.679 208.257 226.291 208.556 226.02 208.95C225.748 209.345 225.607 209.814 225.615 210.293L226.324 242.273C226.343 243.433 226.789 244.545 227.575 245.396C228.362 246.247 229.434 246.776 230.586 246.883C233.351 247.129 236.052 247.865 238.56 249.06C238.972 249.243 239.42 249.334 239.871 249.326ZM229.017 209.352C234.608 216.361 241.351 233.141 242.086 246.022C242.11 246.413 242.029 246.803 241.854 247.152C241.678 247.502 241.412 247.799 241.085 248.012C240.775 248.229 240.413 248.36 240.036 248.389C239.659 248.419 239.28 248.347 238.941 248.18C236.345 246.948 233.552 246.184 230.692 245.924C229.76 245.837 228.893 245.408 228.257 244.719C227.621 244.031 227.261 243.131 227.245 242.193L226.545 210.213C226.529 209.925 226.607 209.639 226.767 209.399C226.926 209.158 227.16 208.977 227.431 208.881C227.706 208.776 228.006 208.762 228.289 208.842C228.572 208.922 228.821 209.092 229 209.325L229.017 209.352Z" fill="#407BFF"/>
<path d="M197.289 210.853C189.078 210.853 182.422 201.3 182.422 189.515C182.422 177.731 189.078 168.178 197.289 168.178C205.5 168.178 212.156 177.731 212.156 189.515C212.156 201.3 205.5 210.853 197.289 210.853Z" fill="#407BFF"/>
<path d="M195.88 207.371C189.553 207.371 184.424 199.377 184.424 189.516C184.424 179.654 189.553 171.66 195.88 171.66C202.207 171.66 207.336 179.654 207.336 189.516C207.336 199.377 202.207 207.371 195.88 207.371Z" fill="white"/>
<path d="M327.256 351.174C327.384 351.174 327.507 351.124 327.598 351.034C327.689 350.944 327.741 350.822 327.744 350.694C327.744 350.223 327.744 349.655 327.744 349.006C327.894 344.005 328.205 333.612 321.816 327.642C317.927 324.009 312.132 322.561 304.593 323.325C280.91 325.723 267.717 319.15 257.546 299.864C253.027 291.301 243.228 290.092 234.572 289.062C227.954 288.254 221.707 287.49 218.89 283.581C217.171 281.182 216.799 277.745 217.747 273.054C217.76 272.992 217.76 272.927 217.748 272.865C217.736 272.802 217.711 272.743 217.675 272.69C217.64 272.637 217.594 272.592 217.541 272.556C217.488 272.521 217.428 272.497 217.366 272.486C217.305 272.473 217.242 272.472 217.18 272.484C217.119 272.496 217.061 272.52 217.009 272.555C216.957 272.589 216.912 272.634 216.878 272.686C216.843 272.739 216.819 272.797 216.808 272.859C215.798 277.833 216.223 281.52 218.11 284.141C221.176 288.396 227.626 289.177 234.457 290.012C243.317 291.087 252.416 292.198 256.695 300.317C267.088 320.011 280.547 326.736 304.69 324.302C311.946 323.556 317.493 324.933 321.17 328.362C327.23 334.029 326.929 344.138 326.787 348.989C326.787 349.655 326.743 350.232 326.743 350.712C326.746 350.776 326.762 350.839 326.79 350.897C326.817 350.955 326.856 351.007 326.904 351.05C326.952 351.093 327.007 351.126 327.068 351.147C327.128 351.168 327.192 351.177 327.256 351.174Z" fill="white"/>
<path d="M222.709 351.174C222.835 351.171 222.955 351.12 223.045 351.031C223.134 350.941 223.185 350.82 223.187 350.694V350.196C223.338 341.313 223.542 329.223 210.119 327.491C202.145 326.469 197.458 324.542 195.73 321.61C194.002 318.679 195.482 314.779 196.944 311.066C198.22 307.832 199.531 304.492 198.716 301.658C197.416 297.262 195.086 293.241 191.92 289.932C188.323 285.802 186.339 283.527 193.267 273.223C193.335 273.116 193.36 272.987 193.335 272.863C193.31 272.738 193.238 272.629 193.134 272.557C193.082 272.521 193.023 272.497 192.961 272.485C192.9 272.472 192.836 272.473 192.774 272.485C192.713 272.497 192.654 272.522 192.602 272.557C192.549 272.592 192.504 272.637 192.47 272.69C185.134 283.598 187.419 286.219 191.203 290.563C194.271 293.774 196.53 297.672 197.795 301.934C198.539 304.448 197.343 307.495 196.076 310.71C194.525 314.637 192.93 318.705 194.924 322.099C196.811 325.297 201.755 327.375 209.986 328.441C222.549 330.067 222.39 341.686 222.213 350.179V350.685C222.211 350.748 222.223 350.811 222.246 350.869C222.269 350.928 222.303 350.981 222.347 351.027C222.39 351.072 222.442 351.109 222.5 351.134C222.557 351.159 222.619 351.172 222.682 351.174H222.709Z" fill="white"/>
<path d="M321.941 255.403H322.243C322.856 253.851 323.903 252.508 325.257 251.536C326.612 250.564 328.216 250.004 329.88 249.922C330.775 249.874 331.672 249.966 332.538 250.197C333.298 248.398 334.626 246.898 336.318 245.928C338.01 244.958 339.973 244.571 341.905 244.827C343.837 245.083 345.632 245.968 347.015 247.346C348.397 248.723 349.291 250.518 349.558 252.454C351.343 252.515 353.036 253.263 354.286 254.543C355.536 255.822 356.248 257.534 356.273 259.325C356.298 261.116 355.635 262.848 354.421 264.162C353.207 265.476 351.536 266.271 349.753 266.383L322.508 267.671C321.703 267.71 320.897 267.589 320.138 267.316C319.379 267.043 318.68 266.623 318.083 266.079C317.486 265.536 317.001 264.88 316.657 264.148C316.312 263.417 316.115 262.625 316.076 261.817C316.037 261.009 316.157 260.201 316.43 259.44C316.702 258.679 317.121 257.979 317.663 257.38C318.205 256.781 318.86 256.295 319.589 255.95C320.319 255.604 321.109 255.407 321.915 255.367L321.941 255.403Z" fill="white"/>
<path d="M282.735 227.047C279.897 227.053 277.175 228.18 275.159 230.183C273.49 231.843 272.417 234.012 272.107 236.349C271.798 238.686 272.27 241.06 273.449 243.099L281.964 237.13L286.394 227.678C285.235 227.259 284.011 227.046 282.779 227.047H282.735ZM282.779 226.088C284.476 226.085 286.152 226.458 287.688 227.181L282.761 237.769L273.21 244.467C271.988 242.716 271.268 240.661 271.129 238.528C270.991 236.394 271.439 234.264 272.425 232.368C273.411 230.472 274.897 228.884 276.721 227.777C278.546 226.669 280.638 226.085 282.77 226.088H282.779Z" fill="white"/>
<path d="M282.718 237.77L273.211 244.468C273.601 245.025 274.037 245.548 274.513 246.031C276.739 248.027 279.644 249.09 282.628 249.002C285.612 248.914 288.45 247.682 290.555 245.559C292.66 243.436 293.872 240.584 293.942 237.591C294.012 234.598 292.934 231.693 290.931 229.473C289.969 228.506 288.845 227.718 287.609 227.146L282.718 237.77Z" fill="white"/>
<path d="M285.324 310.168C284.634 310.165 283.967 309.917 283.442 309.468C282.917 309.02 282.567 308.399 282.454 307.716L279.317 288.528C279.254 288.149 279.266 287.76 279.353 287.385C279.44 287.01 279.6 286.656 279.824 286.343C280.048 286.03 280.331 285.764 280.658 285.562C280.985 285.359 281.348 285.223 281.727 285.162L313.552 279.938C313.931 279.875 314.318 279.887 314.691 279.975C315.065 280.062 315.417 280.222 315.729 280.447C316.04 280.672 316.304 280.956 316.505 281.283C316.706 281.611 316.841 281.975 316.901 282.355L320.038 301.542C320.161 302.308 319.976 303.091 319.524 303.72C319.073 304.35 318.391 304.774 317.628 304.9L285.803 310.133C285.644 310.158 285.484 310.17 285.324 310.168ZM314.022 280.853C313.916 280.84 313.809 280.84 313.703 280.853L281.842 286.112C281.331 286.199 280.874 286.485 280.57 286.907C280.267 287.329 280.141 287.854 280.221 288.369L283.357 307.556C283.399 307.812 283.491 308.057 283.628 308.276C283.765 308.496 283.944 308.686 284.155 308.836C284.363 308.989 284.599 309.099 284.85 309.159C285.102 309.218 285.362 309.226 285.617 309.182L317.442 303.959C317.955 303.872 318.412 303.584 318.715 303.16C319.017 302.735 319.139 302.208 319.054 301.693L315.918 282.506C315.877 282.251 315.787 282.006 315.651 281.787C315.516 281.567 315.338 281.377 315.129 281.226C314.805 280.996 314.419 280.869 314.022 280.862V280.853Z" fill="white"/>
<path d="M304.574 294.072L293.818 289.994L295.679 301.374L304.574 294.072Z" fill="white"/>
<path d="M162.647 278.579H169.105V298.069H162.647V278.579Z" fill="white"/>
<path d="M162.647 299.438H169.105V303.106H162.647V299.438Z" fill="white"/>
<path d="M162.647 305.336H169.105V307.166H162.647V305.336Z" fill="white"/>
<path d="M162.647 310.515H169.105V311.43H162.647V310.515Z" fill="white"/>
<path d="M172.322 280.382L165.881 269.198L159.44 280.382H172.322Z" fill="white"/>
<path d="M252.833 247.23H256.908V259.534H252.833V247.23Z" fill="white"/>
<path d="M252.833 260.396H256.908V262.714H252.833V260.396Z" fill="white"/>
<path d="M252.833 264.126H256.908V265.281H252.833V264.126Z" fill="white"/>
<path d="M252.833 267.396H256.908V267.973H252.833V267.396Z" fill="white"/>
<path d="M258.938 248.358L254.871 241.296L250.795 248.358H258.938Z" fill="white"/>
<path d="M160.246 175.711H165.429V191.346H160.246V175.711Z" fill="#407BFF"/>
<path d="M160.246 192.447H165.429V195.388H160.246V192.447Z" fill="#407BFF"/>
<path d="M160.246 197.182H165.429V198.656H160.246V197.182Z" fill="#407BFF"/>
<path d="M160.246 201.34H165.429V202.077H160.246V201.34Z" fill="#407BFF"/>
<path d="M168.007 177.159L162.841 168.178L157.676 177.159H168.007Z" fill="#407BFF"/>
</svg>
