<svg width="205" height="154" viewBox="0 0 205 154" fill="none" xmlns="http://www.w3.org/2000/svg">
<path d="M195.918 119.623C211.244 93.1269 208.087 68.548 179.426 42.9575C137.506 5.52747 43.1266 -25.9878 12.8863 31.8824C-4.90342 65.9261 -6.20844 103.144 21.2898 129.927C36.6719 144.909 50.6913 148.398 71.9625 151.164C100.122 154.825 115.224 155.892 141.304 148.514C164.514 141.947 183.821 140.536 195.918 119.623Z" fill="#D3D9ED"/>
<g clip-path="url(#clip0)">
<path d="M22.3763 135.435H176.476V135.512H22.3763V135.435Z" fill="#EBEBEB"/>
<path d="M37.8168 140.418H48.0244V140.495H37.8168V140.418Z" fill="#EBEBEB"/>
<path d="M60.9226 139.371H78.792V139.448H60.9226V139.371Z" fill="#EBEBEB"/>
<path d="M48.3326 137.544H65.0093V137.622H48.3326V137.544Z" fill="#EBEBEB"/>
<path d="M155.713 138.064H160.308V138.142H155.713V138.064Z" fill="#EBEBEB"/>
<path d="M133.122 138.064H152.97V138.142H133.122V138.064Z" fill="#EBEBEB"/>
<path d="M107.085 139.371H120.384V139.448H107.085V139.371Z" fill="#EBEBEB"/>
<path d="M103.433 121.623H162.943C163.409 121.622 163.856 121.435 164.185 121.104C164.515 120.772 164.7 120.323 164.7 119.854V35.7928C164.7 35.3243 164.515 34.875 164.185 34.5435C163.856 34.2119 163.409 34.0252 162.943 34.0244H103.433C102.966 34.0244 102.518 34.2107 102.188 34.5424C101.858 34.874 101.673 35.3238 101.673 35.7928V119.854C101.673 120.086 101.718 120.316 101.807 120.531C101.895 120.745 102.025 120.94 102.188 121.105C102.352 121.269 102.546 121.399 102.759 121.488C102.973 121.577 103.202 121.623 103.433 121.623ZM162.943 34.1018C163.389 34.1027 163.816 34.2812 164.131 34.5982C164.446 34.9152 164.623 35.3449 164.623 35.7928V119.854C164.623 120.302 164.446 120.732 164.131 121.049C163.816 121.366 163.389 121.544 162.943 121.545H103.433C102.987 121.544 102.559 121.366 102.244 121.049C101.928 120.732 101.751 120.302 101.75 119.854V35.7928C101.751 35.3446 101.928 34.9149 102.244 34.598C102.559 34.2811 102.987 34.1027 103.433 34.1018H162.943Z" fill="#EBEBEB"/>
<path d="M36.7659 121.623H96.2792C96.7457 121.622 97.1929 121.435 97.5227 121.104C97.8526 120.772 98.0382 120.323 98.0391 119.854V35.7928C98.0382 35.324 97.8526 34.8747 97.5227 34.5433C97.1929 34.2118 96.7457 34.0252 96.2792 34.0244H36.7659C36.3002 34.0261 35.8542 34.2131 35.5255 34.5445C35.1968 34.876 35.0122 35.3249 35.0122 35.7928V119.854C35.0122 120.322 35.1968 120.771 35.5255 121.102C35.8542 121.434 36.3002 121.621 36.7659 121.623ZM96.2792 34.1018C96.7253 34.1027 97.1528 34.2811 97.4682 34.598C97.7836 34.9149 97.9612 35.3446 97.962 35.7928V119.854C97.9612 120.302 97.7836 120.732 97.4682 121.049C97.1528 121.366 96.7253 121.544 96.2792 121.545H36.7659C36.3199 121.544 35.8923 121.366 35.5769 121.049C35.2615 120.732 35.084 120.302 35.0831 119.854V35.7928C35.084 35.3446 35.2615 34.9149 35.5769 34.598C35.8923 34.2811 36.3199 34.1027 36.7659 34.1018H96.2792Z" fill="#EBEBEB"/>
<path d="M107.732 39.5649H156.548V67.5771H107.732V39.5649Z" fill="#FAFAFA"/>
<path d="M110.512 67.5771L122.927 39.5649H132.247L119.829 67.5771H110.512Z" fill="white"/>
<path d="M135.566 67.5771L147.983 39.5649H151.382L138.965 67.5771H135.566Z" fill="white"/>
<path d="M158.878 38.3604H105.405C105.348 38.3612 105.294 38.3842 105.254 38.4246C105.213 38.4651 105.19 38.5196 105.19 38.5768C105.19 38.6345 105.212 38.6899 105.253 38.731C105.293 38.772 105.348 38.7955 105.405 38.7963H158.878C158.936 38.7955 158.99 38.772 159.031 38.731C159.071 38.6899 159.094 38.6345 159.094 38.5768C159.093 38.5196 159.07 38.4651 159.03 38.4246C158.989 38.3842 158.935 38.3612 158.878 38.3604Z" fill="#E0E0E0"/>
<path d="M131.851 39.4907H132.431V67.6547H131.851V39.4907Z" fill="#F0F0F0"/>
<path d="M132.431 39.4907H132.721V67.6547H132.431V39.4907Z" fill="#E0E0E0"/>
<path d="M156.887 53.279V53.8604H107.396V53.279H156.887Z" fill="#F0F0F0"/>
<path d="M156.887 67.3323V39.2241H107.396V67.3323V67.9146H156.887V67.3323ZM107.975 67.3323V39.8064H156.307V67.3323H107.975Z" fill="#F0F0F0"/>
<path d="M156.887 39.2241H157.177V67.9146H156.887V39.2241Z" fill="#E0E0E0"/>
<path opacity="0.5" d="M149.226 37.3691V76.1H159.384L157.519 37.3691H149.226Z" fill="#EBEBEB"/>
<path opacity="0.5" d="M115.348 37.3691V76.1H105.19L107.051 37.3691H115.348Z" fill="#EBEBEB"/>
<path d="M42.0148 39.5649H90.8306V67.5771H42.0148V39.5649Z" fill="#FAFAFA"/>
<path d="M44.7916 67.5771L57.209 39.5649H66.5259L54.1085 67.5771H44.7916Z" fill="white"/>
<path d="M69.8484 67.5771L82.2627 39.5649H85.6621L73.2478 67.5771H69.8484Z" fill="white"/>
<path d="M93.1573 38.3604H39.6878C39.6303 38.3603 39.5751 38.3831 39.5341 38.4236C39.4932 38.4641 39.4698 38.5191 39.469 38.5768C39.469 38.6056 39.4746 38.6342 39.4856 38.6608C39.4966 38.6875 39.5127 38.7117 39.5331 38.732C39.5534 38.7524 39.5775 38.7686 39.604 38.7796C39.6306 38.7907 39.659 38.7963 39.6878 38.7963H93.1573C93.1859 38.7963 93.2142 38.7906 93.2406 38.7796C93.2669 38.7685 93.2909 38.7523 93.3109 38.7319C93.331 38.7114 93.3468 38.6872 93.3575 38.6606C93.3682 38.634 93.3734 38.6055 93.373 38.5768C93.373 38.5194 93.3503 38.4643 93.3098 38.4237C93.2694 38.3832 93.2145 38.3604 93.1573 38.3604Z" fill="#E0E0E0"/>
<path d="M66.1311 39.4907H66.7109V67.6547H66.1311V39.4907Z" fill="#F0F0F0"/>
<path d="M66.7106 39.4907H67.0005V67.6547H66.7106V39.4907Z" fill="#E0E0E0"/>
<path d="M91.1694 53.279V53.8604H41.6788V53.279H91.1694Z" fill="#F0F0F0"/>
<path d="M91.1665 67.3323V39.2241H41.6758V67.3323V67.9146H91.1665V67.3323ZM42.2552 67.3323V39.8064H90.5902V67.3323H42.2552Z" fill="#F0F0F0"/>
<path d="M91.1662 39.2241H91.4561V67.9146H91.1662V39.2241Z" fill="#E0E0E0"/>
<path opacity="0.5" d="M83.5044 37.3691V76.1H93.6626L91.8011 37.3691H83.5044Z" fill="#EBEBEB"/>
<path opacity="0.5" d="M49.627 37.3691V76.1H39.4687L41.3333 37.3691H49.627Z" fill="#EBEBEB"/>
<path d="M104.068 94.5366L38.3965 94.5366V90.6344L104.068 90.6344V94.5366Z" fill="#EBEBEB"/>
<path d="M104.068 94.5366H87.126V90.6344H104.068V94.5366Z" fill="#E0E0E0"/>
<path d="M44.1537 135.435H38.3965L38.3965 94.5394H44.1537L44.1537 135.435Z" fill="#EBEBEB"/>
<path d="M104.068 135.435H98.3105V94.5394H104.068V135.435Z" fill="#E0E0E0"/>
<path d="M55.3382 135.435H49.5811L49.5811 94.5394H55.3382L55.3382 135.435Z" fill="#E0E0E0"/>
<path d="M104.068 109.86L38.3965 109.86V105.958L104.068 105.958V109.86Z" fill="#EBEBEB"/>
<path d="M104.068 109.86H87.126V105.958H104.068V109.86Z" fill="#E0E0E0"/>
<path d="M104.068 125.181L38.3965 125.181V121.278L104.068 121.278V125.181Z" fill="#EBEBEB"/>
<path d="M104.068 125.181H87.126V121.278H104.068V125.181Z" fill="#E0E0E0"/>
<path d="M92.8831 135.435H87.126V94.5394H92.8831V135.435Z" fill="#E0E0E0"/>
<path d="M153.783 93.6509H158.977V134.029H153.783V93.6509Z" fill="#F0F0F0"/>
<path d="M117.89 134.029H158.255V135.435H117.89V134.029Z" fill="#E6E6E6"/>
<path d="M153.78 134.029H117.172V93.6508H153.78V134.029Z" fill="#FAFAFA"/>
<path d="M148.236 118.529H122.723C121.979 118.529 121.376 117.923 121.376 117.175V110.179C121.376 109.432 121.979 108.826 122.723 108.826H148.236C148.98 108.826 149.583 109.432 149.583 110.179V117.175C149.583 117.923 148.98 118.529 148.236 118.529Z" fill="white"/>
<path d="M148.236 131.019H122.723C121.979 131.019 121.376 130.413 121.376 129.665V122.669C121.376 121.922 121.979 121.316 122.723 121.316H148.236C148.98 121.316 149.583 121.922 149.583 122.669V129.665C149.583 130.413 148.98 131.019 148.236 131.019Z" fill="white"/>
<path d="M133.43 108.411H137.522C137.943 108.411 138.284 108.753 138.284 109.176V109.739C138.284 110.162 137.943 110.504 137.522 110.504H133.43C133.009 110.504 132.668 110.162 132.668 109.739V109.176C132.668 108.753 133.009 108.411 133.43 108.411Z" fill="#FAFAFA"/>
<path d="M148.236 106.042H122.723C121.979 106.042 121.376 105.436 121.376 104.688V97.692C121.376 96.9446 121.979 96.3387 122.723 96.3387H148.236C148.98 96.3387 149.583 96.9446 149.583 97.692V104.688C149.583 105.436 148.98 106.042 148.236 106.042Z" fill="white"/>
<path d="M133.43 95.9209H137.522C137.943 95.9209 138.284 96.2634 138.284 96.6859V97.2495C138.284 97.672 137.943 98.0145 137.522 98.0145H133.43C133.009 98.0145 132.668 97.672 132.668 97.2495V96.6859C132.668 96.2634 133.009 95.9209 133.43 95.9209Z" fill="#FAFAFA"/>
<path d="M133.43 120.898H137.522C137.943 120.898 138.284 121.24 138.284 121.663V122.227C138.284 122.649 137.943 122.991 137.522 122.991H133.43C133.009 122.991 132.668 122.649 132.668 122.227V121.663C132.668 121.24 133.009 120.898 133.43 120.898Z" fill="#FAFAFA"/>
<path d="M116.226 92.3438H153.784V93.6507H116.226V92.3438Z" fill="#F0F0F0"/>
<path d="M159.997 93.6509H153.784V92.344H159.997V93.6509Z" fill="#E6E6E6"/>
<path d="M153.7 79.395H131.328L129.525 91.6653H151.897L153.7 79.395Z" fill="#E6E6E6"/>
<path d="M151.897 91.6655L151.888 92.3438H129.516L129.525 91.6655H151.897Z" fill="#E6E6E6"/>
<path d="M153.01 79.395H130.638L128.838 91.6653H151.21L153.01 79.395Z" fill="#F0F0F0"/>
<path d="M150.671 91.1047L152.307 79.9556H131.177L129.54 91.1047H150.671Z" fill="white"/>
<path d="M145.382 91.6655L145.37 92.3438H120.732L120.744 91.6655H145.382Z" fill="#F0F0F0"/>
<path d="M99.4258 149.421C66.423 149.421 39.669 147.852 39.669 145.915C39.669 143.979 66.423 142.41 99.4258 142.41C132.429 142.41 159.183 143.979 159.183 145.915C159.183 147.852 132.429 149.421 99.4258 149.421Z" fill="#F5F5F5"/>
<path d="M141.033 47.7782C140.793 45.7683 137.643 44.1857 134.909 45.1365C131.772 46.2297 132.268 49.1192 130.194 49.2307C128.12 49.3422 127.081 53.0369 128.896 54.7464C130.712 56.456 127.377 57.224 127.266 59.6211C127.155 62.0182 127.146 63.8794 125.192 65.654C122.726 67.89 126.526 75.0936 132.767 71.7984C138.361 68.8501 145.363 73.093 146.615 69.0111C147.693 65.462 142.386 61.6248 143.499 59.9091C144.611 58.1934 143.872 56.5861 142.611 54.5173C141.061 51.987 144.867 48.1901 141.033 47.7782Z" fill="#263238"/>
<path d="M128.588 64.4707C127.827 66.0192 127.047 67.6048 126.231 69.1379C125.818 69.9028 125.399 70.6616 124.97 71.3925C124.569 72.0947 124.119 72.7674 123.623 73.4055L123.522 73.5263C123.504 73.5496 123.482 73.5695 123.457 73.5851C123.376 73.639 123.288 73.6808 123.195 73.709C122.894 73.7939 122.582 73.8305 122.27 73.8174C121.48 73.783 120.695 73.6615 119.931 73.455C119.121 73.2568 118.307 72.9967 117.493 72.7149C116.68 72.433 115.863 72.1141 115.08 71.7858L114.365 73.0927C115.899 74.1148 117.54 74.9634 119.259 75.6229C120.177 75.9776 121.134 76.2168 122.11 76.3352C122.681 76.4009 123.26 76.3769 123.824 76.264C124.164 76.1932 124.491 76.071 124.794 75.9017C124.962 75.8141 125.121 75.7104 125.269 75.592C125.346 75.529 125.419 75.4618 125.488 75.3907L125.636 75.2389C126.286 74.5217 126.874 73.7498 127.393 72.9317C127.907 72.1605 128.373 71.3832 128.82 70.5841C129.72 69.0047 130.539 67.4159 131.285 65.756L128.588 64.4707Z" fill="#CE7A63"/>
<path d="M130.397 61.6028C129.164 61.5595 126.948 66.1151 126.948 66.1151L130.19 70.07C130.19 70.07 133.975 65.3037 133.454 63.7552C132.915 62.151 132.212 61.6679 130.397 61.6028Z" fill="#407BFF"/>
<path opacity="0.2" d="M130.191 62.7056L128.505 68.0169L130.024 69.8627L130.191 62.7056Z" fill="black"/>
<path d="M112.95 70.7577L115.93 72.1885L115.986 73.2446C115.126 74.1117 113.323 73.5543 113.323 73.5543L111.116 73.2632L110.833 72.0244C110.795 71.8694 110.793 71.708 110.824 71.5517C110.856 71.3954 110.921 71.2481 111.016 71.1201C111.111 70.9921 111.232 70.8867 111.372 70.8112C111.512 70.7357 111.667 70.6921 111.825 70.6834L112.442 70.6524C112.617 70.6446 112.792 70.6808 112.95 70.7577Z" fill="#CE7A63"/>
<path d="M136.419 143.416H133.492L133.223 136.6H136.154L136.419 143.416Z" fill="#CE7A63"/>
<path d="M133.217 143.075H136.509C136.536 143.074 136.563 143.078 136.589 143.088C136.615 143.097 136.639 143.112 136.659 143.131C136.679 143.149 136.695 143.172 136.706 143.197C136.717 143.222 136.724 143.249 136.724 143.277L136.835 145.894C136.833 146.032 136.777 146.164 136.679 146.262C136.581 146.36 136.449 146.415 136.312 146.417C135.168 146.398 134.623 146.33 133.174 146.33C132.283 146.33 130.234 146.423 129.004 146.423C127.774 146.423 127.833 145.2 128.354 145.088C130.699 144.593 131.87 143.909 132.712 143.255C132.856 143.141 133.034 143.077 133.217 143.075Z" fill="#263238"/>
<g opacity="0.2">
<path opacity="0.2" d="M133.223 136.6L133.362 140.115H136.293L136.154 136.6H133.223Z" fill="black"/>
</g>
<path d="M129.223 63.065C129.158 64.9232 129.479 69.259 131.427 79.3923L143.32 79.0393C142.975 74.1801 142.882 71.1822 144.898 61.1294C143.223 60.8332 141.528 60.6604 139.828 60.6122C138.027 60.5366 136.222 60.5905 134.428 60.7733C133.051 60.9405 131.568 61.2285 130.594 61.4329C130.217 61.5116 129.877 61.7152 129.628 62.0111C129.38 62.3069 129.237 62.678 129.223 63.065Z" fill="#407BFF"/>
<path d="M139.113 54.5171C138.823 56.2731 138.58 59.4723 139.828 60.612C139.828 60.612 138.672 62.7798 135.704 63.5696C132.965 62.1728 134.428 60.7823 134.428 60.7823C136.352 60.2589 136.259 58.8157 135.883 57.4685L139.113 54.5171Z" fill="#CE7A63"/>
<path d="M135.704 63.5695L136.059 62.8696L137.963 63.3032L135.704 63.5695Z" fill="#E0E0E0"/>
<path d="M136.059 62.8698C136.675 62.5911 139.502 60.7391 139.613 60.1631C140.096 60.2099 140.571 60.3138 141.03 60.4728C141.03 60.4728 140.67 62.5632 138.448 64.9727C137.874 63.6658 137.113 63.0959 136.059 62.8698Z" fill="white"/>
<path d="M135.704 63.5695L135.544 62.8696L134.375 62.9563L135.704 63.5695Z" fill="#E0E0E0"/>
<path d="M135.544 62.8701C134.601 62.2507 134.832 60.9252 134.928 60.3491C134.447 60.4147 133.972 60.5183 133.507 60.6588C133.054 61.284 132.798 62.0312 132.772 62.8039C132.745 63.5767 132.95 64.3397 133.359 64.9946C133.818 63.7372 134.598 63.2913 135.544 62.8701Z" fill="white"/>
<path opacity="0.2" d="M137.797 55.7188L135.883 57.4593C135.976 57.7719 136.041 58.0921 136.077 58.4162C136.817 58.2862 137.809 57.4407 137.865 56.6602C137.899 56.3449 137.876 56.0259 137.797 55.7188Z" fill="black"/>
<path d="M140.035 50.7883C139.909 53.7057 139.915 54.9445 138.476 56.4651C136.318 58.7538 132.771 57.9578 132.028 55.0591C131.359 52.4514 131.683 48.1156 134.494 46.9047C135.115 46.6333 135.795 46.5263 136.469 46.5939C137.143 46.6615 137.788 46.9014 138.344 47.2908C138.9 47.6802 139.347 48.2061 139.643 48.8183C139.939 49.4305 140.074 50.1088 140.035 50.7883Z" fill="#CE7A63"/>
<path d="M140.438 47.6113C139.363 48.1533 137.88 48.0604 137.603 48.7108C137.325 49.3611 138.105 53.254 139.717 53.2726C141.2 51.2627 141.421 48.5435 140.438 47.6113Z" fill="#263238"/>
<path d="M140.291 48.0975C137.917 49.6057 130.095 51.0148 132.65 47.6113C134.592 45.0284 139.699 46.326 140.291 48.0975Z" fill="#263238"/>
<path d="M131.399 79.3925C131.399 79.3925 130.249 101.143 130.191 110.084C130.129 119.375 132.733 139.434 132.733 139.434H136.697C136.697 139.434 135.942 119.164 136.552 109.991C137.218 99.9905 139.532 79.1323 139.532 79.1323L131.399 79.3925Z" fill="#263238"/>
<path d="M137.027 139.576H132.376L132.185 138.086L137.409 137.903L137.027 139.576Z" fill="#407BFF"/>
<path opacity="0.2" d="M138.694 86.9429C138.265 86.4071 137.705 86.6859 136.971 88.2158C134.468 93.4311 135.738 101.753 136.811 106.544C137.292 100.579 138.087 92.7157 138.694 86.9429Z" fill="black"/>
<path d="M135.224 51.894C135.224 52.1325 135.106 52.3276 134.952 52.3307C134.798 52.3338 134.669 52.1418 134.665 51.9033C134.662 51.6649 134.783 51.4729 134.937 51.4698C135.091 51.4667 135.221 51.6587 135.224 51.894Z" fill="#263238"/>
<path d="M132.555 51.8726C132.555 52.111 132.437 52.3061 132.283 52.3092C132.129 52.3123 132 52.1203 131.996 51.8819C131.993 51.6434 132.114 51.4514 132.268 51.4483C132.422 51.4452 132.552 51.6372 132.555 51.8726Z" fill="#263238"/>
<path d="M132.339 51.4603L131.768 51.3057C131.768 51.3057 132.064 51.7447 132.339 51.4603Z" fill="#263238"/>
<path d="M133.581 52.1016C133.38 52.6469 133.105 53.1618 132.764 53.6315C132.886 53.7154 133.026 53.7715 133.172 53.7961C133.319 53.8207 133.469 53.8131 133.612 53.7739L133.581 52.1016Z" fill="#BA4D3C"/>
<path d="M134.916 54.6814C134.8 54.7012 134.684 54.7126 134.567 54.7155C134.557 54.7177 134.546 54.7175 134.536 54.7151C134.526 54.7126 134.516 54.7078 134.508 54.7011C134.5 54.6945 134.493 54.686 134.489 54.6765C134.484 54.6669 134.482 54.6564 134.482 54.6458C134.482 54.6352 134.484 54.6247 134.489 54.6151C134.493 54.6056 134.5 54.5971 134.508 54.5905C134.516 54.5838 134.526 54.579 134.536 54.5765C134.546 54.5741 134.557 54.5739 134.567 54.5761C134.862 54.5793 135.153 54.5119 135.416 54.3794C135.679 54.2469 135.907 54.0531 136.081 53.8143C136.085 53.8064 136.092 53.7995 136.099 53.7942C136.106 53.7888 136.115 53.7849 136.124 53.7829C136.133 53.7809 136.142 53.7807 136.151 53.7824C136.16 53.784 136.169 53.7875 136.176 53.7926C136.184 53.7973 136.191 53.8036 136.196 53.8111C136.202 53.8185 136.205 53.827 136.207 53.836C136.209 53.8449 136.21 53.8542 136.208 53.8633C136.206 53.8723 136.203 53.8809 136.198 53.8886C136.048 54.1001 135.857 54.2792 135.637 54.4154C135.416 54.5516 135.171 54.642 134.916 54.6814Z" fill="#263238"/>
<path d="M140.867 53.4455C140.679 53.9784 140.289 54.4149 139.782 54.6595C139.107 54.9692 138.648 54.3963 138.734 53.6932C138.811 53.0738 139.255 52.1448 139.967 52.1107C140.127 52.1064 140.285 52.1427 140.427 52.2161C140.569 52.2894 140.691 52.3976 140.78 52.5306C140.87 52.6635 140.925 52.817 140.94 52.9769C140.955 53.1368 140.93 53.2979 140.867 53.4455Z" fill="#CE7A63"/>
<path d="M136.299 51.1103C136.27 51.1151 136.241 51.1108 136.215 51.098C136.189 51.0853 136.168 51.0647 136.154 51.0391C135.846 50.4662 135.035 50.3547 135.026 50.3547C134.989 50.3497 134.956 50.3303 134.933 50.3007C134.911 50.2711 134.901 50.2337 134.906 50.1967C134.911 50.1598 134.93 50.1263 134.959 50.1036C134.989 50.081 135.026 50.071 135.063 50.0759C135.103 50.0759 136.034 50.2122 136.397 50.909C136.406 50.9253 136.411 50.9431 136.413 50.9614C136.415 50.9797 136.413 50.9982 136.407 51.0157C136.402 51.0333 136.393 51.0496 136.381 51.0637C136.37 51.0778 136.355 51.0895 136.339 51.0979L136.299 51.1103Z" fill="#263238"/>
<path d="M131.743 50.4963C131.719 50.5002 131.695 50.498 131.672 50.4899C131.65 50.4818 131.629 50.468 131.613 50.4499C131.601 50.4359 131.592 50.4197 131.586 50.4022C131.581 50.3846 131.578 50.3661 131.58 50.3477C131.581 50.3293 131.586 50.3113 131.595 50.2949C131.603 50.2785 131.615 50.2639 131.629 50.252C131.795 50.1052 131.993 50.0004 132.208 49.9466C132.423 49.8928 132.647 49.8915 132.862 49.9428C132.898 49.9534 132.928 49.9778 132.946 50.0106C132.963 50.0434 132.967 50.0818 132.957 50.1175C132.946 50.1532 132.922 50.1831 132.889 50.2008C132.856 50.2185 132.818 50.2225 132.782 50.2118C132.612 50.1745 132.435 50.179 132.266 50.2247C132.098 50.2704 131.942 50.3562 131.814 50.4746C131.792 50.4867 131.768 50.4941 131.743 50.4963Z" fill="#263238"/>
<path d="M143.702 65.7375C144.547 66.9546 145.397 68.2522 146.189 69.5375C146.977 70.8128 147.697 72.1288 148.347 73.4799L148.464 73.7308L148.522 73.8578C148.522 73.8887 148.522 73.8578 148.522 73.8578C148.522 73.8578 148.55 73.9042 148.55 74.0002C148.548 74.2719 148.507 74.5419 148.43 74.8023C148.229 75.4803 147.973 76.1402 147.663 76.7751C147.028 78.1161 146.26 79.4695 145.484 80.7795L146.655 81.7086C147.775 80.5359 148.782 79.2594 149.663 77.8962C150.133 77.1767 150.53 76.4109 150.846 75.6106C151.037 75.1342 151.157 74.6324 151.204 74.121C151.232 73.7787 151.202 73.4342 151.114 73.1021C151.103 73.0528 151.088 73.0042 151.071 72.9565L151.025 72.8296L150.97 72.6871L150.859 72.396C150.55 71.6248 150.224 70.8816 149.866 70.1507C149.509 69.4198 149.139 68.7106 148.738 68.0107C147.94 66.6089 147.062 65.2544 146.109 63.9536L143.702 65.7375Z" fill="#CE7A63"/>
<path d="M144.898 61.1297C146.103 61.458 147.657 65.5398 147.657 65.5398L143.129 68.9991C143.129 68.9991 141.342 65.5924 141.798 64.0439C142.266 62.4149 143.527 60.7549 144.898 61.1297Z" fill="#407BFF"/>
<path d="M132.067 143.59C131.822 143.615 131.577 143.551 131.374 143.41C131.331 143.366 131.3 143.311 131.284 143.252C131.268 143.192 131.267 143.129 131.282 143.069C131.289 143.03 131.305 142.993 131.329 142.96C131.353 142.928 131.385 142.902 131.42 142.884C131.799 142.685 132.906 143.286 133.032 143.354C133.044 143.361 133.053 143.372 133.058 143.385C133.063 143.398 133.064 143.412 133.06 143.426C133.056 143.44 133.049 143.454 133.038 143.464C133.027 143.475 133.013 143.482 132.998 143.484C132.692 143.548 132.38 143.583 132.067 143.59ZM131.605 142.97C131.559 142.969 131.514 142.978 131.473 142.998C131.458 143.005 131.446 143.015 131.436 143.028C131.427 143.041 131.422 143.057 131.42 143.073C131.409 143.111 131.409 143.152 131.419 143.191C131.428 143.231 131.448 143.266 131.476 143.296C131.639 143.457 132.117 143.484 132.779 143.376C132.415 143.173 132.017 143.039 131.605 142.98V142.97Z" fill="#407BFF"/>
<path d="M132.986 143.487H132.958C132.625 143.326 131.996 142.691 132.085 142.36C132.104 142.279 132.172 142.18 132.366 142.162C132.433 142.153 132.5 142.16 132.564 142.181C132.628 142.202 132.687 142.236 132.736 142.282C133.075 142.592 133.063 143.382 133.063 143.416C133.063 143.429 133.059 143.441 133.052 143.452C133.046 143.463 133.037 143.472 133.026 143.478C133.014 143.485 133 143.488 132.986 143.487ZM132.406 142.292H132.366C132.236 142.292 132.224 142.357 132.218 142.372C132.165 142.574 132.585 143.072 132.921 143.301C132.921 143.069 132.859 142.595 132.637 142.394C132.607 142.362 132.571 142.337 132.53 142.319C132.49 142.302 132.447 142.292 132.403 142.292H132.406Z" fill="#407BFF"/>
<path d="M148.701 143.416H145.77L144.796 136.6H147.727L148.701 143.416Z" fill="#CE7A63"/>
<path d="M145.656 143.075H148.954C149.011 143.075 149.066 143.094 149.11 143.131C149.153 143.168 149.182 143.22 149.191 143.277L149.598 145.893C149.606 145.959 149.6 146.026 149.581 146.089C149.562 146.153 149.529 146.211 149.485 146.261C149.441 146.31 149.387 146.35 149.327 146.377C149.267 146.404 149.202 146.417 149.136 146.417C147.989 146.398 147.434 146.33 145.986 146.33C145.095 146.33 144.368 146.423 143.138 146.423C141.908 146.423 141.828 145.2 142.34 145.088C144.63 144.593 144.411 143.908 145.175 143.255C145.31 143.141 145.48 143.077 145.656 143.075Z" fill="#263238"/>
<path d="M145.194 143.59C144.942 143.612 144.691 143.548 144.479 143.41C144.432 143.368 144.396 143.315 144.373 143.256C144.351 143.196 144.342 143.133 144.349 143.069C144.351 143.031 144.362 142.993 144.383 142.961C144.403 142.928 144.432 142.901 144.466 142.884C144.821 142.685 146.007 143.286 146.131 143.354C146.144 143.361 146.154 143.371 146.161 143.384C146.167 143.397 146.17 143.411 146.168 143.426C146.166 143.44 146.16 143.454 146.15 143.465C146.14 143.475 146.127 143.482 146.112 143.484C145.81 143.548 145.503 143.583 145.194 143.59ZM144.664 142.97C144.619 142.968 144.574 142.978 144.534 142.998C144.52 143.005 144.509 143.016 144.501 143.029C144.492 143.042 144.488 143.057 144.488 143.073C144.483 143.114 144.488 143.155 144.503 143.194C144.517 143.233 144.541 143.268 144.571 143.296C144.75 143.457 145.234 143.484 145.881 143.376C145.501 143.175 145.089 143.041 144.664 142.98V142.97Z" fill="#407BFF"/>
<path d="M146.1 143.488H146.072C145.721 143.327 145.02 142.692 145.07 142.36C145.07 142.28 145.138 142.181 145.329 142.162C145.398 142.155 145.468 142.162 145.534 142.182C145.6 142.203 145.662 142.237 145.714 142.283C146.088 142.593 146.165 143.382 146.168 143.416C146.17 143.428 146.168 143.44 146.163 143.451C146.158 143.462 146.15 143.472 146.14 143.478C146.128 143.486 146.114 143.489 146.1 143.488ZM145.387 142.292H145.347C145.221 142.292 145.215 142.357 145.212 142.373C145.181 142.574 145.656 143.073 146.017 143.302C145.984 142.967 145.85 142.65 145.631 142.394C145.565 142.331 145.478 142.295 145.387 142.292Z" fill="#407BFF"/>
<g opacity="0.2">
<path opacity="0.2" d="M144.796 136.6L145.299 140.115H148.229L147.727 136.6H144.796Z" fill="black"/>
</g>
<path d="M143.32 79.0391C146.174 83.5947 145.375 100.359 145.825 109.309C146.294 118.6 148.599 139.433 148.599 139.433H144.639C144.639 139.433 140.836 118.244 139.063 109.259C137.106 99.3491 134.724 79.0391 134.724 79.0391H143.32Z" fill="#263238"/>
<path d="M148.852 139.576H144.204L144.038 138.086L149.265 137.903L148.852 139.576Z" fill="#407BFF"/>
<path d="M135.005 51.4822L134.434 51.3276C134.434 51.3276 134.733 51.7667 135.005 51.4822Z" fill="#263238"/>
<path d="M143.477 78.333L143.807 79.3921C143.85 79.4726 143.755 79.5625 143.619 79.5655L131.377 79.931C131.269 79.931 131.18 79.8845 131.171 79.8164L131.032 78.751C131.032 78.6767 131.112 78.6117 131.229 78.6086L143.274 78.2462C143.312 78.2416 143.351 78.2471 143.387 78.2623C143.423 78.2776 143.454 78.3019 143.477 78.333Z" fill="#407BFF"/>
<path d="M141.899 79.7329H142.208C142.269 79.7329 142.319 79.6958 142.312 79.6555L142.121 78.2711C142.121 78.2309 142.056 78.1968 141.995 78.1999H141.686C141.622 78.1999 141.575 78.2371 141.578 78.2773L141.773 79.6617C141.779 79.705 141.834 79.736 141.899 79.7329Z" fill="#263238"/>
<path d="M132.292 80.021H132.616C132.681 80.021 132.727 79.9838 132.721 79.9436L132.53 78.5561C132.53 78.5159 132.465 78.4849 132.403 78.488H132.08C132.015 78.488 131.969 78.5252 131.972 78.5654L132.166 79.9498C132.172 79.99 132.228 80.021 132.292 80.021Z" fill="#263238"/>
<path d="M137.097 79.8753H137.406C137.47 79.8753 137.52 79.8381 137.514 79.7979L137.319 78.4135C137.319 78.3733 137.258 78.3423 137.193 78.3423H136.885C136.823 78.3423 136.773 78.3763 136.78 78.4166L136.971 79.8041C136.974 79.8598 137.026 79.8784 137.097 79.8753Z" fill="#263238"/>
<path d="M146.464 80.0054L143.345 80.5473L145.622 82.4737C145.591 82.4953 147.351 81.8109 147.527 80.5814L146.464 80.0054Z" fill="#CE7A63"/>
<path d="M142.47 82.957L143.157 83.4804C143.311 83.5941 143.496 83.6554 143.687 83.6554C143.878 83.6554 144.064 83.5941 144.217 83.4804L145.623 82.4522L143.345 80.5259L142.343 81.6315C142.259 81.724 142.194 81.8333 142.155 81.9523C142.115 82.0714 142.1 82.1975 142.112 82.3226C142.124 82.4476 142.162 82.5687 142.224 82.678C142.285 82.7873 142.369 82.8824 142.47 82.957Z" fill="#CE7A63"/>
<path d="M53.0053 73.2632H128.32C129.835 73.2632 131.063 74.4972 131.063 76.0195V120.926C131.063 122.448 129.835 123.682 128.32 123.682H53.0053C51.4904 123.682 50.2623 122.448 50.2623 120.926V76.0195C50.2623 74.4972 51.4904 73.2632 53.0053 73.2632Z" fill="white"/>
<path d="M53.0048 123.837H128.323C129.091 123.836 129.827 123.529 130.37 122.983C130.913 122.438 131.219 121.698 131.22 120.926V76.0196C131.219 75.2477 130.913 74.5077 130.37 73.962C129.827 73.4162 129.091 73.1092 128.323 73.1084H53.0048C52.2362 73.1084 51.499 73.415 50.9552 73.9609C50.4114 74.5067 50.1055 75.2472 50.1047 76.0196V120.926C50.1063 121.698 50.4125 122.438 50.9561 122.984C51.4997 123.529 52.2364 123.836 53.0048 123.837ZM128.323 73.4212C129.008 73.422 129.665 73.696 130.15 74.1831C130.635 74.6703 130.908 75.3307 130.908 76.0196V120.926C130.907 121.614 130.634 122.274 130.149 122.761C129.665 123.248 129.008 123.523 128.323 123.524H53.0048C52.3193 123.523 51.662 123.249 51.1773 122.762C50.6925 122.275 50.4198 121.615 50.419 120.926V76.0196C50.419 75.3304 50.6915 74.6695 51.1764 74.1822C51.6613 73.695 52.319 73.4212 53.0048 73.4212H128.323Z" fill="#407BFF"/>
<path d="M51.2486 123.682H130.077C130.387 123.682 130.693 123.75 130.975 123.879C131.257 124.009 131.508 124.199 131.71 124.435L134.62 127.817C134.89 128.131 135.065 128.517 135.124 128.928C135.182 129.34 135.122 129.759 134.95 130.137C134.778 130.515 134.501 130.835 134.153 131.06C133.805 131.284 133.4 131.403 132.986 131.403H48.3392C47.9256 131.403 47.5206 131.284 47.1724 131.06C46.8243 130.835 46.5477 130.515 46.3755 130.137C46.2034 129.759 46.143 129.34 46.2016 128.928C46.2601 128.517 46.4351 128.131 46.7057 127.817L49.6182 124.435C49.8203 124.199 50.0705 124.01 50.3518 123.88C50.6332 123.75 50.939 123.683 51.2486 123.682Z" fill="white"/>
<path d="M48.339 131.56H132.986C133.429 131.56 133.863 131.432 134.236 131.191C134.609 130.951 134.906 130.607 135.09 130.202C135.275 129.797 135.339 129.347 135.277 128.906C135.214 128.465 135.026 128.051 134.737 127.714L131.827 124.332C131.61 124.079 131.342 123.876 131.04 123.737C130.737 123.598 130.409 123.526 130.077 123.527H51.2515C50.9187 123.526 50.5897 123.598 50.287 123.737C49.9843 123.876 49.7151 124.079 49.4978 124.332L46.5884 127.714C46.2985 128.051 46.1111 128.465 46.0485 128.906C45.9858 129.347 46.0505 129.797 46.2349 130.202C46.4193 130.607 46.7156 130.951 47.0886 131.191C47.4616 131.432 47.8956 131.56 48.339 131.56ZM130.077 123.837C130.364 123.836 130.648 123.898 130.909 124.019C131.17 124.139 131.402 124.315 131.59 124.533L134.502 127.915C134.753 128.207 134.916 128.565 134.97 128.947C135.024 129.329 134.968 129.719 134.808 130.069C134.648 130.42 134.392 130.717 134.069 130.926C133.746 131.134 133.37 131.245 132.986 131.245H48.339C47.9548 131.245 47.5786 131.135 47.2552 130.927C46.9318 130.718 46.6749 130.421 46.5153 130.07C46.3557 129.719 46.3001 129.329 46.3552 128.947C46.4102 128.565 46.5736 128.207 46.8257 127.915L49.7351 124.533C49.9231 124.314 50.1559 124.139 50.4176 124.019C50.6793 123.898 50.9637 123.836 51.2515 123.837H130.077Z" fill="#407BFF"/>
<path d="M133.747 129.207C133.945 129.207 134.138 129.268 134.3 129.382C134.462 129.496 134.586 129.657 134.653 129.844C134.72 130.031 134.729 130.234 134.677 130.426C134.625 130.618 134.516 130.79 134.363 130.917C133.978 131.236 133.494 131.408 132.995 131.403H48.3417C47.8109 131.409 47.2973 131.214 46.9024 130.858C46.7649 130.724 46.6704 130.553 46.6311 130.365C46.5917 130.177 46.6094 129.981 46.6817 129.804C46.754 129.626 46.8778 129.474 47.0369 129.368C47.196 129.261 47.3832 129.205 47.5743 129.207H133.747Z" fill="#407BFF"/>
<path d="M51.8218 120.925V76.0191C51.8218 75.3641 52.3503 74.833 53.0022 74.833H128.32C128.972 74.833 129.5 75.3641 129.5 76.0191V120.925C129.5 121.58 128.972 122.112 128.32 122.112H53.0022C52.3503 122.112 51.8218 121.58 51.8218 120.925Z" fill="#407BFF"/>
<path opacity="0.3" d="M53.6002 121.263H127.725C127.971 121.263 128.206 121.165 128.379 120.991C128.552 120.817 128.65 120.581 128.65 120.334V76.6171C128.65 76.3707 128.552 76.1344 128.379 75.9601C128.206 75.7859 127.971 75.688 127.725 75.688H53.6002C53.355 75.688 53.1198 75.7859 52.9464 75.9601C52.773 76.1344 52.6756 76.3707 52.6756 76.6171V120.328C52.6748 120.45 52.6981 120.572 52.7442 120.685C52.7903 120.799 52.8583 120.902 52.9442 120.989C53.0302 121.076 53.1324 121.145 53.2449 121.192C53.3575 121.239 53.4783 121.263 53.6002 121.263ZM127.725 75.8335C127.931 75.8335 128.128 75.9153 128.273 76.061C128.419 76.2067 128.501 76.4044 128.502 76.6109V120.328C128.502 120.43 128.482 120.532 128.443 120.627C128.404 120.721 128.347 120.807 128.274 120.88C128.202 120.952 128.117 121.01 128.023 121.049C127.928 121.088 127.827 121.108 127.725 121.108H53.6002C53.3948 121.108 53.198 121.025 53.053 120.879C52.908 120.732 52.8266 120.534 52.8266 120.328V76.6171C52.8274 76.4112 52.9092 76.2139 53.0541 76.0683C53.199 75.9227 53.3953 75.8406 53.6002 75.8397L127.725 75.8335Z" fill="white"/>
<path d="M78.6904 92.204C78.6904 93.7525 63.7736 93.7525 63.7736 92.204C63.7736 83.613 78.6904 83.613 78.6904 92.204Z" fill="#407BFF"/>
<path d="M71.232 93.5268C72.9531 93.5402 74.6733 93.4429 76.3821 93.2356C78.6011 92.9259 78.8477 92.5017 78.8477 92.2043C78.8477 87.6642 74.8934 85.5923 71.2228 85.5923C67.549 85.5923 63.5979 87.6611 63.5979 92.2043C63.6072 93.4617 69.9592 93.5268 71.232 93.5268ZM78.524 92.2043C78.524 92.6193 75.9876 93.1892 71.232 93.1892C66.4765 93.1892 63.94 92.6193 63.94 92.2043C63.94 87.8933 67.7186 85.9299 71.232 85.9299C74.7455 85.9299 78.524 87.8933 78.524 92.2043Z" fill="white"/>
<path d="M62.5439 72.7582C61.3913 75.1893 60.0383 80.8104 59.8287 85.2731C59.8199 85.4379 59.855 85.602 59.9304 85.7486C60.0057 85.8953 60.1185 86.0191 60.2572 86.1074C60.3959 86.1957 60.5555 86.2453 60.7196 86.2511C60.8837 86.2568 61.0464 86.2186 61.1909 86.1403C61.5286 85.9515 61.897 85.8246 62.2789 85.7655C62.7258 85.6974 63.0679 85.0656 63.0771 84.3099L63.225 73.1608C63.2312 72.5538 62.772 72.2782 62.5439 72.7582Z" fill="white"/>
<path d="M60.7566 86.4099C60.9346 86.4098 61.1097 86.3639 61.2651 86.2767C61.5876 86.0997 61.9378 85.9792 62.3007 85.9206C62.8308 85.84 63.2253 85.1618 63.2253 84.3132L63.3701 73.1641C63.3701 72.7522 63.1914 72.4239 62.9201 72.3589C62.8101 72.34 62.6969 72.3606 62.6005 72.4173C62.5041 72.4739 62.4307 72.5629 62.3931 72.6686C61.2497 75.078 59.8782 80.7207 59.6625 85.2423C59.653 85.4353 59.6952 85.6273 59.7846 85.7983C59.8741 85.9693 60.0075 86.1132 60.171 86.2148C60.3436 86.3348 60.5468 86.4025 60.7566 86.4099ZM62.8431 72.6717H62.8585C62.9448 72.6903 63.0712 72.8606 63.0681 73.1641L62.9201 84.3132C62.9201 84.9884 62.6119 85.552 62.2544 85.6171C61.8558 85.6804 61.4711 85.8124 61.1172 86.0073C60.9972 86.0713 60.8625 86.1023 60.7267 86.0972C60.5909 86.092 60.4589 86.0509 60.3441 85.9779C60.2293 85.905 60.1356 85.8028 60.0728 85.6818C60.0099 85.5607 59.98 85.4252 59.9861 85.2888C60.1987 80.792 61.5548 75.2174 62.6859 72.8327C62.7044 72.7894 62.7506 72.6717 62.8431 72.6717Z" fill="#407BFF"/>
<path d="M62.3284 87.45C62.3284 89.6644 80.1361 89.6644 80.1361 87.45V62.7857C80.167 57.5078 78.9557 52.2974 76.6011 47.5795C75.1217 44.6621 73.2695 42.2031 71.2323 42.2031C69.1951 42.2031 67.3428 44.6621 65.8634 47.5795C63.5088 52.2974 62.2975 57.5078 62.3284 62.7857V87.45Z" fill="white"/>
<path d="M71.2317 89.2682C73.2941 89.2894 75.3549 89.1496 77.3957 88.8501C79.3559 88.5249 80.3082 88.0697 80.3082 87.4503V62.7859C80.3332 57.4838 79.1159 52.2502 76.7547 47.5085C74.9055 43.885 73.0563 42.0454 71.2472 42.0454C69.438 42.0454 67.5765 43.885 65.7396 47.5085C63.3784 52.2502 62.1611 57.4838 62.1861 62.7859V87.4503C62.1707 89.2187 70.3041 89.2682 71.2317 89.2682ZM71.2317 42.3582C72.9207 42.3582 74.6805 44.139 76.4711 47.6509C78.8108 52.3482 80.0165 57.5332 79.9908 62.7859V87.4503C79.9908 88.2958 76.1475 88.9554 71.241 88.9554C66.3344 88.9554 62.4912 88.2958 62.4912 87.4503V62.7859C62.4626 57.5339 63.6652 52.349 66.0016 47.6509C67.783 44.139 69.5305 42.3582 71.2317 42.3582Z" fill="#407BFF"/>
<path d="M71.2323 54.1113C74.1047 54.1113 76.7459 53.3246 78.478 51.9434L78.2839 51.6987C76.6319 53.0088 73.9937 53.7892 71.2323 53.7892C68.4708 53.7892 65.8326 53.018 64.1807 51.708L63.9865 51.9527C65.7186 53.3246 68.3598 54.1113 71.2323 54.1113Z" fill="#407BFF"/>
<path d="M79.5504 72.7581C81.5414 75.2543 83.8652 81.12 84.1303 85.6323C84.141 85.7934 84.1098 85.9545 84.0397 86.0998C83.9696 86.245 83.863 86.3694 83.7305 86.4607C83.5979 86.552 83.444 86.607 83.2839 86.6203C83.1238 86.6336 82.963 86.6048 82.8173 86.5366C81.9309 86.1147 80.9773 85.8537 80.0004 85.7654C79.6378 85.7306 79.3005 85.563 79.0528 85.2947C78.805 85.0263 78.6641 84.6758 78.6566 84.3099L78.4132 73.1607C78.4124 73.0274 78.4531 72.8972 78.5294 72.7882C78.6058 72.6792 78.714 72.5968 78.8392 72.5525C78.9643 72.5082 79.1 72.5042 79.2275 72.5411C79.355 72.5779 79.4679 72.6538 79.5504 72.7581Z" fill="white"/>
<path d="M83.2058 86.7811C83.3538 86.7805 83.5001 86.7496 83.6358 86.6903C83.7714 86.631 83.8936 86.5444 83.9949 86.436C84.0962 86.3276 84.1743 86.1996 84.2247 86.0598C84.275 85.9199 84.2964 85.7713 84.2876 85.6228C84.0287 81.0734 81.6494 75.1396 79.6646 72.662C79.5613 72.5312 79.4197 72.4362 79.2599 72.3905C79.1 72.3447 78.9299 72.3504 78.7735 72.4068C78.617 72.4632 78.4821 72.5674 78.3876 72.7048C78.2932 72.8423 78.244 73.006 78.2469 73.173L78.4935 84.3221C78.5001 84.7265 78.6551 85.1142 78.9287 85.4108C79.2022 85.7074 79.5752 85.8921 79.9759 85.9295C80.938 86.0149 81.8773 86.2718 82.7497 86.6882C82.8932 86.7521 83.0489 86.7838 83.2058 86.7811ZM79.4304 72.8447C81.3751 75.2882 83.7205 81.1384 83.9763 85.629C83.9846 85.7653 83.9567 85.9013 83.8955 86.0232C83.8343 86.1451 83.742 86.2485 83.6281 86.3228C83.5203 86.3986 83.3943 86.4441 83.2631 86.4544C83.132 86.4648 83.0005 86.4396 82.8822 86.3816C81.9793 85.9519 81.0079 85.6856 80.0129 85.595C79.6888 85.5645 79.3872 85.415 79.166 85.1749C78.9447 84.9349 78.8194 84.6213 78.814 84.2942L78.5705 73.1451C78.5648 73.0446 78.5918 72.9449 78.6474 72.8611C78.703 72.7773 78.7842 72.714 78.8787 72.6806C78.9741 72.644 79.0787 72.6393 79.177 72.6672C79.2753 72.6951 79.362 72.7541 79.4242 72.8354L79.4304 72.8447Z" fill="#407BFF"/>
<path d="M68.3938 73.3681C65.5377 73.3681 63.2223 70.0376 63.2223 65.9292C63.2223 61.8208 65.5377 58.4902 68.3938 58.4902C71.25 58.4902 73.5654 61.8208 73.5654 65.9292C73.5654 70.0376 71.25 73.3681 68.3938 73.3681Z" fill="#407BFF"/>
<path d="M67.9032 72.1545C65.7023 72.1545 63.9182 69.3675 63.9182 65.9295C63.9182 62.4916 65.7023 59.7046 67.9032 59.7046C70.104 59.7046 71.8882 62.4916 71.8882 65.9295C71.8882 69.3675 70.104 72.1545 67.9032 72.1545Z" fill="white"/>
<path d="M113.603 122.288C113.648 122.288 113.69 122.271 113.722 122.239C113.754 122.208 113.772 122.166 113.773 122.121C113.773 121.957 113.773 121.759 113.773 121.532C113.825 119.789 113.933 116.165 111.711 114.084C110.358 112.818 108.342 112.313 105.719 112.579C97.4812 113.415 92.8921 111.124 89.354 104.4C87.7822 101.414 84.3735 100.993 81.3624 100.634C79.0601 100.352 76.8873 100.086 75.9072 98.7232C75.3093 97.887 75.1799 96.6885 75.5097 95.0533C75.5141 95.0315 75.5142 95.0091 75.51 94.9873C75.5057 94.9654 75.4972 94.9447 75.4848 94.9262C75.4725 94.9078 75.4566 94.892 75.4381 94.8798C75.4196 94.8675 75.3989 94.8592 75.3771 94.8551C75.3559 94.8506 75.3339 94.8504 75.3126 94.8545C75.2912 94.8586 75.2709 94.867 75.2528 94.8791C75.2348 94.8912 75.2193 94.9069 75.2073 94.9251C75.1953 94.9433 75.187 94.9637 75.183 94.9852C74.8316 96.7195 74.9796 98.0047 75.636 98.9183C76.7024 100.402 78.9461 100.674 81.3223 100.965C84.4043 101.34 87.5695 101.727 89.0581 104.558C92.6733 111.424 97.3549 113.768 105.753 112.92C108.277 112.66 110.207 113.14 111.486 114.335C113.594 116.311 113.489 119.835 113.44 121.526C113.44 121.759 113.424 121.96 113.424 122.127C113.426 122.149 113.431 122.171 113.441 122.192C113.45 122.212 113.464 122.23 113.481 122.245C113.497 122.26 113.516 122.271 113.538 122.279C113.559 122.286 113.581 122.289 113.603 122.288Z" fill="white"/>
<path d="M77.236 122.288C77.2799 122.287 77.3218 122.269 77.3528 122.238C77.3839 122.207 77.4016 122.165 77.4024 122.121V121.947C77.4548 118.85 77.5257 114.635 72.8565 114.032C70.0827 113.675 68.4523 113.003 67.8513 111.981C67.2503 110.959 67.765 109.6 68.2736 108.305C68.7174 107.178 69.1735 106.013 68.89 105.025C68.4378 103.493 67.6273 102.091 66.5261 100.937C65.2748 99.4974 64.5844 98.7046 66.9945 95.1121C67.0183 95.0749 67.0268 95.0299 67.0182 94.9865C67.0096 94.9432 66.9845 94.9049 66.9483 94.8798C66.9301 94.8676 66.9097 94.8591 66.8882 94.8548C66.8667 94.8505 66.8446 94.8505 66.8231 94.8548C66.8017 94.8591 66.7812 94.8677 66.7631 94.8799C66.7449 94.8922 66.7293 94.9079 66.7172 94.9262C64.1653 98.7293 64.9604 99.643 66.2764 101.157C67.3436 102.277 68.1297 103.636 68.5694 105.122C68.8283 105.998 68.4123 107.06 67.9715 108.181C67.4322 109.55 66.8774 110.969 67.5709 112.152C68.2273 113.267 69.9471 113.991 72.8103 114.363C77.1805 114.93 77.1251 118.98 77.0634 121.941V122.118C77.063 122.14 77.0669 122.162 77.0749 122.182C77.0829 122.202 77.0948 122.221 77.11 122.237C77.1251 122.253 77.1433 122.265 77.1633 122.274C77.1833 122.283 77.2049 122.288 77.2268 122.288H77.236Z" fill="white"/>
<path d="M111.754 88.8995H111.859C112.073 88.3583 112.437 87.8904 112.908 87.5515C113.379 87.2127 113.937 87.0173 114.516 86.9887C114.827 86.9718 115.139 87.0042 115.44 87.0847C115.705 86.4573 116.166 85.9343 116.755 85.5961C117.344 85.2579 118.026 85.1231 118.699 85.2124C119.371 85.3017 119.995 85.6102 120.476 86.0905C120.957 86.5708 121.268 87.1964 121.361 87.8713C121.982 87.8928 122.571 88.1536 123.006 88.5996C123.44 89.0456 123.688 89.6426 123.697 90.2669C123.705 90.8912 123.475 91.495 123.052 91.953C122.63 92.4111 122.049 92.6884 121.429 92.7274L111.951 93.1765C111.671 93.1901 111.391 93.1481 111.127 93.0529C110.863 92.9577 110.62 92.8112 110.412 92.6217C110.204 92.4321 110.036 92.2034 109.916 91.9484C109.796 91.6934 109.727 91.4172 109.714 91.1355C109.7 90.8539 109.742 90.5723 109.837 90.3069C109.932 90.0415 110.077 89.7974 110.266 89.5886C110.455 89.3799 110.682 89.2104 110.936 89.0901C111.19 88.9697 111.465 88.9007 111.745 88.8871L111.754 88.8995Z" fill="white"/>
<path d="M98.116 79.0137C97.1288 79.0157 96.1821 79.4085 95.4809 80.1069C94.9002 80.6857 94.5268 81.4417 94.4192 82.2565C94.3115 83.0713 94.4758 83.8989 94.8861 84.6099L97.8479 82.5288L99.3889 79.2336C98.9856 79.0876 98.5601 79.0132 98.1314 79.0137H98.116ZM98.1314 78.6792C98.7216 78.6783 99.3046 78.8084 99.8389 79.0601L98.1253 82.7517L94.8029 85.0869C94.3776 84.4762 94.1272 83.7599 94.079 83.0161C94.0309 82.2723 94.1868 81.5295 94.5298 80.8686C94.8728 80.2077 95.3897 79.654 96.0243 79.268C96.6588 78.8819 97.3866 78.6783 98.1284 78.6792H98.1314Z" fill="white"/>
<path d="M98.1101 82.7523L94.8031 85.0875C94.9387 85.2815 95.0903 85.4639 95.2562 85.6325C96.0304 86.3282 97.0407 86.6989 98.0788 86.6683C99.117 86.6376 100.104 86.2079 100.836 85.4678C101.568 84.7276 101.99 83.7334 102.015 82.69C102.039 81.6466 101.664 80.6336 100.967 79.8597C100.633 79.5228 100.241 79.248 99.8113 79.0483L98.1101 82.7523Z" fill="white"/>
<path d="M99.017 107.992C98.777 107.991 98.545 107.905 98.3623 107.748C98.1795 107.592 98.0577 107.376 98.0185 107.138L96.9274 100.448C96.9054 100.316 96.9097 100.18 96.9399 100.049C96.9702 99.9187 97.0259 99.7952 97.1038 99.6861C97.1817 99.5771 97.2803 99.4845 97.3939 99.4139C97.5075 99.3432 97.6338 99.2958 97.7657 99.2744L108.836 97.4534C108.968 97.4312 109.103 97.4355 109.232 97.466C109.362 97.4964 109.485 97.5524 109.593 97.6307C109.702 97.709 109.793 97.8081 109.863 97.9223C109.933 98.0364 109.98 98.1633 110.001 98.2957L111.092 104.985C111.135 105.252 111.071 105.525 110.914 105.744C110.757 105.964 110.519 106.112 110.254 106.156L99.1835 107.98C99.1284 107.989 99.0727 107.993 99.017 107.992ZM109 97.7723C108.963 97.7677 108.926 97.7677 108.889 97.7723L97.8058 99.6058C97.6278 99.6362 97.4689 99.7357 97.3633 99.8829C97.2578 100.03 97.2141 100.213 97.2418 100.392L98.3328 107.082C98.3474 107.171 98.3794 107.256 98.427 107.333C98.4746 107.409 98.5369 107.476 98.6102 107.528C98.6825 107.581 98.7648 107.62 98.8522 107.64C98.9396 107.661 99.0302 107.664 99.1187 107.649L110.189 105.828C110.368 105.797 110.527 105.697 110.632 105.549C110.737 105.401 110.78 105.217 110.75 105.038L109.659 98.3484C109.645 98.2595 109.613 98.1744 109.566 98.0978C109.519 98.0213 109.458 97.9549 109.385 97.9024C109.272 97.8219 109.138 97.7777 109 97.7754V97.7723Z" fill="white"/>
<path d="M105.713 102.38L101.972 100.959L102.619 104.926L105.713 102.38Z" fill="white"/>
<path d="M56.3426 96.9795H58.5894V103.774H56.3426V96.9795Z" fill="white"/>
<path d="M56.3426 104.251H58.5894V105.53H56.3426V104.251Z" fill="white"/>
<path d="M56.3426 106.308H58.5894V106.945H56.3426V106.308Z" fill="white"/>
<path d="M56.3426 108.114H58.5894V108.432H56.3426V108.114Z" fill="white"/>
<path d="M59.7085 97.6086L57.4679 93.7095L55.2273 97.6086H59.7085Z" fill="white"/>
<path d="M87.7136 86.0503H89.1323V90.3396H87.7136V86.0503Z" fill="white"/>
<path d="M87.7136 90.6401H89.1323V91.4485H87.7136V90.6401Z" fill="white"/>
<path d="M87.7136 91.9409H89.1323V92.3429H87.7136V91.9409Z" fill="white"/>
<path d="M87.7136 93.0806H89.1323V93.2815H87.7136V93.0806Z" fill="white"/>
<path d="M89.8379 86.4435L88.4232 83.9814L87.0055 86.4435H89.8379Z" fill="white"/>
<path d="M55.5076 61.1167H57.3105V66.5674H55.5076V61.1167Z" fill="#407BFF"/>
<path d="M55.5076 66.9512H57.3105V67.9763H55.5076V66.9512Z" fill="#407BFF"/>
<path d="M55.5076 68.6021H57.3105V69.1154H55.5076V68.6021Z" fill="#407BFF"/>
<path d="M55.5076 70.0513H57.3105V70.3079H55.5076V70.0513Z" fill="#407BFF"/>
<path d="M58.2075 61.6213L56.4107 58.4902L54.6139 61.6213H58.2075Z" fill="#407BFF"/>
</g>
<defs>
<clipPath id="clip0">
<rect width="154.1" height="115.397" fill="white" transform="matrix(-1 0 0 1 176.476 34.0244)"/>
</clipPath>
</defs>
</svg>
