<svg width="203" height="151" viewBox="0 0 203 151" fill="none" xmlns="http://www.w3.org/2000/svg">
<path d="M203 132.699H0V132.801H203V132.699Z" fill="#E6E6E6"/>
<path d="M43.3766 136.541H29.4102V136.642H43.3766V136.541Z" fill="#E6E6E6"/>
<path d="M121.077 137.262H116.903V137.363H121.077V137.262Z" fill="#E6E6E6"/>
<path d="M55.4842 137.983H47.624V138.085H55.4842V137.983Z" fill="#E6E6E6"/>
<path d="M170.435 137.748H160.009V137.849H170.435V137.748Z" fill="#E6E6E6"/>
<path d="M152.9 136.306H145.778V136.407H152.9V136.306Z" fill="#E6E6E6"/>
<path d="M111.037 136.147H73.0029V136.249H111.037V136.147Z" fill="#E6E6E6"/>
<path d="M96.2224 114.625H17.8279C17.2137 114.624 16.6251 114.379 16.1912 113.946C15.7574 113.512 15.5137 112.924 15.5137 112.311V2.31397C15.5137 1.70097 15.7574 1.11302 16.1912 0.679178C16.6251 0.24534 17.2137 0.00107356 17.8279 0L96.2224 0C96.8372 0 97.4269 0.243793 97.8617 0.677747C98.2964 1.1117 98.5407 1.70027 98.5407 2.31397V112.311C98.5407 112.615 98.4807 112.916 98.3642 113.196C98.2477 113.477 98.0769 113.732 97.8617 113.947C97.6464 114.162 97.3908 114.332 97.1096 114.449C96.8283 114.565 96.5268 114.625 96.2224 114.625ZM17.8279 0.101312C17.2407 0.102386 16.6779 0.335979 16.263 0.750817C15.8482 1.16566 15.6152 1.72784 15.6152 2.31397V112.311C15.6152 112.897 15.8482 113.459 16.263 113.874C16.6779 114.289 17.2407 114.522 17.8279 114.523H96.2224C96.81 114.522 97.3732 114.289 97.7887 113.874C98.2042 113.46 98.4381 112.897 98.4392 112.311V2.31397C98.4381 1.72747 98.2042 1.16529 97.7887 0.750569C97.3732 0.335847 96.81 0.102384 96.2224 0.101312H17.8279Z" fill="#E6E6E6"/>
<path d="M184.044 114.625H105.645C105.031 114.624 104.442 114.38 104.007 113.946C103.573 113.512 103.328 112.924 103.327 112.311V2.31397C103.328 1.7006 103.573 1.11265 104.007 0.678931C104.442 0.245208 105.031 0.0010714 105.645 0L184.044 0C184.657 0.00214467 185.245 0.246884 185.678 0.680606C186.111 1.11433 186.354 1.70167 186.354 2.31397V112.311C186.354 112.923 186.111 113.51 185.678 113.944C185.245 114.378 184.657 114.623 184.044 114.625ZM105.645 0.101312C105.058 0.102384 104.495 0.335847 104.079 0.750569C103.664 1.16529 103.43 1.72747 103.429 2.31397V112.311C103.43 112.897 103.664 113.46 104.079 113.874C104.495 114.289 105.058 114.522 105.645 114.523H184.044C184.632 114.522 185.195 114.289 185.61 113.874C186.026 113.46 186.26 112.897 186.261 112.311V2.31397C186.26 1.72747 186.026 1.16529 185.61 0.750569C185.195 0.335847 184.632 0.102384 184.044 0.101312H105.645Z" fill="#E6E6E6"/>
<path d="M139.591 93.0693C139.368 93.0693 139.144 93.0693 138.917 93.0896C137.504 93.1921 136.13 93.6052 134.895 94.2991C133.661 94.9931 132.595 95.9509 131.774 97.104C130.953 98.2571 130.398 99.577 130.147 100.969C129.897 102.362 129.958 103.792 130.326 105.158C131.375 109.24 131.882 113.442 131.832 117.656V129.923C131.832 130.353 132.003 130.765 132.308 131.069C132.613 131.373 133.026 131.544 133.456 131.544H172.477V93.0693H139.591Z" fill="#F0F0F0"/>
<path d="M182.062 102.662C182.064 100.171 181.095 97.7779 179.36 95.9878C177.625 94.1977 175.261 93.1512 172.767 93.0696C170.273 92.988 167.846 93.8777 165.997 95.5506C164.149 97.2235 163.025 99.5484 162.863 102.034C162.791 103.085 162.895 104.141 163.171 105.158C164.22 109.24 164.727 113.442 164.678 117.656V129.923C164.678 130.353 164.849 130.765 165.153 131.069C165.458 131.373 165.871 131.544 166.302 131.544H178.624C179.054 131.544 179.467 131.373 179.772 131.069C180.076 130.765 180.248 130.353 180.248 129.923V116.935C180.212 112.983 180.712 109.045 181.734 105.227C181.959 104.391 182.069 103.528 182.062 102.662Z" fill="#FAFAFA"/>
<path d="M159.209 108.182H90.5908V131.536H159.209V108.182Z" fill="#F0F0F0"/>
<path d="M68.9181 80.2031H134.84C136.767 80.2074 138.613 80.9744 139.974 82.3359C141.335 83.6973 142.1 85.542 142.1 87.4652V113.47H61.6426V87.4652C61.6426 85.5392 62.4091 83.692 63.7735 82.3301C65.138 80.9682 66.9885 80.2031 68.9181 80.2031Z" fill="#E6E6E6"/>
<path d="M77.7251 80.2031H144.35C145.26 80.2031 146.162 80.3824 147.002 80.7306C147.843 81.0789 148.607 81.5893 149.25 82.2326C149.893 82.8759 150.403 83.6395 150.75 84.4797C151.097 85.3199 151.274 86.2201 151.272 87.1288V113.47H70.8028V87.1288C70.8006 86.2201 70.9781 85.3199 71.325 84.4797C71.6719 83.6395 72.1815 82.8759 72.8245 82.2326C73.4675 81.5893 74.2313 81.0789 75.0722 80.7306C75.9132 80.3824 76.8146 80.2031 77.7251 80.2031Z" fill="#FAFAFA"/>
<path d="M92.8852 106.046H158.746C159.306 106.046 159.843 106.268 160.239 106.663C160.635 107.058 160.858 107.594 160.858 108.153V113.47C160.858 114.029 160.635 114.565 160.239 114.96C159.843 115.355 159.306 115.577 158.746 115.577H92.8852C92.8025 115.577 92.7207 115.561 92.6444 115.53C92.568 115.498 92.4986 115.452 92.4402 115.393C92.3818 115.335 92.3354 115.266 92.3038 115.19C92.2722 115.113 92.2559 115.032 92.2559 114.949V106.678C92.2553 106.595 92.2712 106.513 92.3026 106.436C92.334 106.36 92.3803 106.29 92.4388 106.231C92.4972 106.173 92.5668 106.126 92.6434 106.094C92.72 106.062 92.8022 106.046 92.8852 106.046Z" fill="#E6E6E6"/>
<path d="M58.188 93.0693C57.9647 93.0693 57.7414 93.0693 57.514 93.0896C56.0992 93.1899 54.7241 93.6013 53.4872 94.2943C52.2504 94.9873 51.1824 95.9448 50.3598 97.0982C49.5372 98.2516 48.9804 99.5723 48.7292 100.966C48.478 102.359 48.5387 103.791 48.9068 105.158C49.956 109.24 50.4624 113.442 50.4131 117.656V129.923C50.4131 130.353 50.5842 130.765 50.8888 131.069C51.1933 131.373 51.6064 131.544 52.0371 131.544H91.0578V93.0693H58.188Z" fill="#F0F0F0"/>
<path d="M100.659 102.662C100.66 100.171 99.6913 97.7779 97.9566 95.9878C96.2219 94.1977 93.8577 93.1512 91.3639 93.0696C88.8702 92.988 86.4424 93.8777 84.594 95.5506C82.7456 97.2235 81.6215 99.5484 81.4594 102.034C81.3878 103.085 81.4921 104.141 81.7679 105.158C82.8171 109.24 83.3235 113.442 83.2742 117.656V129.923C83.2742 130.353 83.4453 130.765 83.7499 131.069C84.0544 131.373 84.4675 131.544 84.8982 131.544H97.2203C97.651 131.544 98.0641 131.373 98.3686 131.069C98.6732 130.765 98.8443 130.353 98.8443 129.923V116.935C98.8088 112.983 99.3086 109.045 100.33 105.227C100.555 104.391 100.666 103.528 100.659 102.662Z" fill="#FAFAFA"/>
<path d="M171.767 132.703H58.8705C58.5603 132.703 58.2629 132.58 58.0436 132.361C57.8244 132.143 57.7012 131.846 57.7012 131.536H172.956C172.956 131.691 172.926 131.845 172.866 131.988C172.806 132.13 172.718 132.26 172.607 132.369C172.496 132.477 172.365 132.563 172.221 132.62C172.076 132.678 171.922 132.706 171.767 132.703Z" fill="#E0E0E0"/>
<path d="M118.167 23.2529H48.6797V57.0264H118.167V23.2529Z" fill="#E0E0E0"/>
<path d="M121.504 23.2529H51.002V57.0264H121.504V23.2529Z" fill="#F5F5F5"/>
<path d="M118.832 54.3686V25.916L53.665 25.916V54.3686H118.832Z" fill="white"/>
<path d="M112.409 42.6805V37.5946C112.409 34.9514 110.262 32.8086 107.614 32.8086H64.8828C62.2347 32.8086 60.0879 34.9514 60.0879 37.5946V42.6805C60.0879 45.3237 62.2347 47.4665 64.8828 47.4665H107.614C110.262 47.4665 112.409 45.3237 112.409 42.6805Z" fill="#F5F5F5"/>
<path d="M151.349 43.7422H134.796V60.8599H151.349V43.7422Z" fill="#E0E0E0"/>
<path d="M153.038 43.7422H136.903V60.8599H153.038V43.7422Z" fill="#F5F5F5"/>
<path d="M151.686 59.5146V45.0918H138.255V59.5146H151.686Z" fill="white"/>
<path d="M144.97 48.6543L141.296 55.0046H148.644L144.97 48.6543Z" fill="#F5F5F5"/>
<path d="M173.407 32.5215H156.854V49.6392H173.407V32.5215Z" fill="#E0E0E0"/>
<path d="M175.099 32.5215H158.965V49.6392H175.099V32.5215Z" fill="#F5F5F5"/>
<path d="M173.743 48.289V33.8662H160.313V48.289H173.743Z" fill="white"/>
<path d="M168.673 43.6499L170.269 40.8983C170.435 40.6105 170.522 40.2841 170.521 39.952C170.521 39.6199 170.433 39.2937 170.267 39.0063C170.1 38.7188 169.86 38.4802 169.572 38.3144C169.284 38.1485 168.957 38.0613 168.624 38.0615H165.437C165.104 38.0613 164.778 38.1485 164.489 38.3144C164.201 38.4802 163.962 38.7188 163.795 39.0063C163.628 39.2937 163.54 39.6199 163.54 39.952C163.54 40.2841 163.627 40.6105 163.793 40.8983L165.388 43.6499C165.555 43.9377 165.794 44.1768 166.082 44.343C166.371 44.5091 166.698 44.5966 167.031 44.5966C167.364 44.5966 167.691 44.5091 167.979 44.343C168.267 44.1768 168.507 43.9377 168.673 43.6499Z" fill="#F5F5F5"/>
<path d="M23.3939 102.549H14.2305V130.904H23.3939V102.549Z" fill="#E6E6E6"/>
<path d="M61.168 130.899H15.9883V132.695H61.168V130.899Z" fill="#E6E6E6"/>
<path d="M23.3934 130.899H62.9297V102.544H23.3934V130.899Z" fill="#FAFAFA"/>
<path d="M26.9953 115.334H59.3291V106.034H26.9953V115.334Z" fill="#F0F0F0"/>
<path d="M26.9953 127.41H59.3291V118.11H26.9953V127.41Z" fill="#F0F0F0"/>
<path d="M47.0469 111.326H39.2761C39.1067 111.325 38.9445 111.257 38.8251 111.137C38.7057 111.017 38.6387 110.855 38.6387 110.686C38.6397 110.518 38.7072 110.356 38.8265 110.237C38.9459 110.118 39.1074 110.051 39.2761 110.05H47.0469C47.2157 110.051 47.3772 110.118 47.4965 110.237C47.6158 110.356 47.6833 110.518 47.6844 110.686C47.6844 110.855 47.6173 111.017 47.4979 111.137C47.3785 111.257 47.2164 111.325 47.0469 111.326Z" fill="#FAFAFA"/>
<path d="M47.0469 123.399H39.2761C39.1074 123.398 38.9459 123.33 38.8265 123.211C38.7072 123.092 38.6397 122.931 38.6387 122.762C38.6387 122.593 38.7057 122.431 38.8251 122.311C38.9445 122.191 39.1067 122.123 39.2761 122.122H47.0469C47.2164 122.123 47.3785 122.191 47.4979 122.311C47.6173 122.431 47.6844 122.593 47.6844 122.762C47.6833 122.931 47.6158 123.092 47.4965 123.211C47.3772 123.33 47.2157 123.398 47.0469 123.399Z" fill="#FAFAFA"/>
<path d="M35.6713 81.7432H30.3933C30.5435 86.8534 28.209 89.7387 28.209 95.7486C28.209 101.151 29.5325 102.164 33.0363 102.164C36.5401 102.164 37.8637 101.151 37.8637 95.7486C37.8555 89.7387 35.517 86.8534 35.6713 81.7432Z" fill="#FAFAFA"/>
<path d="M31.1113 101.973H34.944V102.297C34.944 102.363 34.9174 102.427 34.8702 102.475C34.823 102.522 34.759 102.548 34.6922 102.548H31.363C31.2963 102.548 31.2323 102.522 31.1851 102.475C31.1378 102.427 31.1113 102.363 31.1113 102.297V101.973Z" fill="#F3F7FF"/>
<path d="M27.2136 83.6074H26.8076V91.3599H27.2136V83.6074Z" fill="#E0E0E0"/>
<path d="M41.4157 86.0432H24.6357L27.5143 68.8809H38.5412L41.4157 86.0432Z" fill="#EBEBEB"/>
<path d="M101.5 151C144.975 151 180.219 148.946 180.219 146.413C180.219 143.879 144.975 141.825 101.5 141.825C58.0241 141.825 22.7803 143.879 22.7803 146.413C22.7803 148.946 58.0241 151 101.5 151Z" fill="#F5F5F5"/>
<path d="M98.3932 134.405C98.0116 121.182 97.5244 57.558 98.2877 50.9241L99.8102 49.2666C99.8102 49.2666 99.7737 51.1672 99.7371 56.2288C99.5788 78.8822 98.9901 131.026 99.12 134.389L98.3932 134.405Z" fill="#407BFF"/>
<path opacity="0.6" d="M98.3932 134.405C98.0116 121.182 97.5244 57.558 98.2877 50.9241L99.8102 49.2666C99.8102 49.2666 99.7737 51.1672 99.7371 56.2288C99.5788 78.8822 98.9901 131.026 99.12 134.389L98.3932 134.405Z" fill="white"/>
<path d="M104.61 96.794C108.35 93.0531 112.661 89.9277 117.382 87.5341C120.886 85.8239 111.698 96.9926 108.101 101.154C104.504 105.316 100.079 109.932 98.6578 113.819C98.3736 105.904 100.176 101.195 104.61 96.794Z" fill="#407BFF"/>
<path opacity="0.6" d="M104.61 96.794C108.35 93.0531 112.661 89.9277 117.382 87.5341C120.886 85.8239 111.698 96.9926 108.101 101.154C104.504 105.316 100.079 109.932 98.6578 113.819C98.3736 105.904 100.176 101.195 104.61 96.794Z" fill="white"/>
<path d="M98.6215 62.9921C95.8851 50.9359 96.7295 44.0102 99.8111 36.582C102.694 29.6319 104.943 26.5277 108.292 23.9017C109.157 23.2249 107.212 32.9347 104.232 40.1684C102.129 45.2746 101.086 51.9207 99.6324 55.7462C98.6215 58.3925 98.6215 62.9921 98.6215 62.9921Z" fill="#407BFF"/>
<path opacity="0.6" d="M98.6215 62.9921C95.8851 50.9359 96.7295 44.0102 99.8111 36.582C102.694 29.6319 104.943 26.5277 108.292 23.9017C109.157 23.2249 107.212 32.9347 104.232 40.1684C102.129 45.2746 101.086 51.9207 99.6324 55.7462C98.6215 58.3925 98.6215 62.9921 98.6215 62.9921Z" fill="white"/>
<path d="M98.7672 89.4022C98.4668 82.1847 98.1054 75.2185 103.599 66.0558C104.934 63.8229 116.753 44.9828 120.833 43.8441C122.835 43.297 119.278 57.8738 113.814 66.5705C109.713 73.095 107.821 74.8173 103.335 82.4279C101.569 85.4308 98.7672 89.4022 98.7672 89.4022Z" fill="#407BFF"/>
<path opacity="0.6" d="M98.7672 89.4022C98.4668 82.1847 98.1054 75.2185 103.599 66.0558C104.934 63.8229 116.753 44.9828 120.833 43.8441C122.835 43.297 119.278 57.8738 113.814 66.5705C109.713 73.095 107.821 74.8173 103.335 82.4279C101.569 85.4308 98.7672 89.4022 98.7672 89.4022Z" fill="white"/>
<path d="M91.7111 59.6129C86.8878 54.9688 82.1579 51.9132 78.6541 50.3651C75.1503 48.8171 84.3747 60.3748 88.8041 65.3958C93.2336 70.4169 97.2936 74.7611 99.0313 79.231C98.5319 69.6631 96.5384 64.2571 91.7111 59.6129Z" fill="#407BFF"/>
<path opacity="0.6" d="M91.7111 59.6129C86.8878 54.9688 82.1579 51.9132 78.6541 50.3651C75.1503 48.8171 84.3747 60.3748 88.8041 65.3958C93.2336 70.4169 97.2936 74.7611 99.0313 79.231C98.5319 69.6631 96.5384 64.2571 91.7111 59.6129Z" fill="white"/>
<path d="M99.0348 103.084C98.2512 97.6658 96.4648 91.4452 93.7243 87.1617C90.9838 82.8782 86.7655 76.3132 83.2739 74.5422C82.4375 74.1167 87.0538 87.3886 89.2908 91.0643C91.122 94.099 93.3487 96.8776 95.9127 99.3273C96.5054 99.9271 99.0348 103.084 99.0348 103.084Z" fill="#407BFF"/>
<path opacity="0.6" d="M99.0348 103.084C98.2512 97.6658 96.4648 91.4452 93.7243 87.1617C90.9838 82.8782 86.7655 76.3132 83.2739 74.5422C82.4375 74.1167 87.0538 87.3886 89.2908 91.0643C91.122 94.099 93.3487 96.8776 95.9127 99.3273C96.5054 99.9271 99.0348 103.084 99.0348 103.084Z" fill="white"/>
<path d="M104.902 137.838H92.6249L91.6992 124.635H105.828L104.902 137.838Z" fill="#407BFF"/>
<path d="M106.741 126.86H90.785L90.3262 123.419H107.2L106.741 126.86Z" fill="#407BFF"/>
<g opacity="0.4">
<path opacity="0.4" d="M104.901 137.838H92.6239L91.6982 124.635H105.827L104.901 137.838Z" fill="black"/>
<path opacity="0.4" d="M106.741 126.86H90.785L90.3262 123.419H107.2L106.741 126.86Z" fill="black"/>
</g>
<path d="M118.178 88.4949C114.402 89.1717 102.084 81.5206 97.9146 76.4833C100.907 73.8981 103.647 71.0365 106.1 67.9366C103.396 71.0287 99.0514 73.7722 96.4733 75.2311C95.3081 74.2302 94.626 73.6101 94.626 73.6101C94.626 73.6101 105.182 70.0763 110.793 57.6676C115.068 48.2172 121.28 43.1516 127.845 48.0065C140.61 51.1269 127.078 84.6086 118.178 88.4949Z" fill="#263238"/>
<path d="M121.983 68.082C121.881 68.2319 121.82 68.317 121.739 68.4264L121.516 68.7263C121.361 68.9208 121.207 69.1032 121.049 69.2856C120.728 69.6462 120.403 69.9988 120.062 70.3311C119.374 70.9894 118.641 71.6 117.87 72.1588C117.094 72.7081 116.28 73.2011 115.434 73.6339C115.003 73.8406 114.577 74.0391 114.135 74.2215L113.473 74.4809L113.298 74.5457C113.196 74.5835 113.091 74.616 112.986 74.643C112.72 74.7086 112.446 74.7291 112.174 74.7037C111.838 74.6668 111.516 74.5531 111.232 74.3714C110.993 74.208 110.787 74.0002 110.627 73.7595C110.419 73.4378 110.271 73.0806 110.192 72.7059C110.081 72.173 110.033 71.6289 110.05 71.0849C110.08 70.1476 110.183 69.214 110.359 68.2927C110.525 67.3971 110.72 66.5218 110.939 65.6545C111.159 64.7873 111.41 63.9363 111.707 63.0771L113.229 63.4459C113.12 64.2929 112.998 65.1601 112.917 66.0193C112.835 66.8784 112.734 67.7294 112.685 68.5764C112.629 69.3857 112.622 70.1977 112.665 71.0079C112.68 71.344 112.735 71.6772 112.827 72.0007C112.864 72.1183 112.917 72.1912 112.9 72.1507C112.867 72.0893 112.818 72.0376 112.758 72.0007C112.662 71.9334 112.55 71.8916 112.433 71.8792C112.38 71.8708 112.325 71.8708 112.271 71.8792L112.401 71.8184L112.945 71.559C113.31 71.3848 113.66 71.1821 114.013 70.9917C114.707 70.5809 115.378 70.1317 116.022 69.6462C116.659 69.1556 117.263 68.6236 117.829 68.0536C118.117 67.778 118.389 67.4822 118.641 67.1864C118.767 67.0405 118.897 66.8905 119.015 66.7406L119.193 66.5177L119.339 66.3313L121.983 68.082Z" fill="#E4897B"/>
<path d="M113.091 63.8387L114.402 61.4883L111.178 61.6828C111.178 61.6828 110.975 63.2106 111.86 64.1427L113.091 63.8387Z" fill="#E4897B"/>
<path d="M122.815 64.2074C119.632 64.3331 117.212 67.3522 117.212 67.3522L121.272 72.4583C121.272 72.4583 124.317 69.3946 124.593 67.7088C124.889 65.9581 124.731 64.1304 122.815 64.2074Z" fill="#407BFF"/>
<path opacity="0.3" d="M122.815 64.2074C119.632 64.3331 117.212 67.3522 117.212 67.3522L121.272 72.4583C121.272 72.4583 124.317 69.3946 124.593 67.7088C124.889 65.9581 124.731 64.1304 122.815 64.2074Z" fill="black"/>
<path d="M113.801 60.0781L111.439 60.6698L111.179 61.687L114.402 61.4884L113.801 60.0781Z" fill="#E4897B"/>
<path d="M113.579 57.2617L113.997 57.4765L113.806 60.4308L112.872 60.4956L113.579 57.2617Z" fill="#E4897B"/>
<path d="M112.868 57.1445L112.458 57.2458L112.068 60.7877L112.99 60.5527L112.868 57.1445Z" fill="#E4897B"/>
<path d="M119.864 65.168C119.864 65.168 118.617 66.1041 126.896 82.4722L138.852 78.6912C137.111 73.893 136.152 70.8982 135.32 60.1875C133.54 60.372 131.776 60.6849 130.042 61.1236C128.192 61.566 126.377 62.1402 124.61 62.8419C122.34 63.7902 119.864 65.168 119.864 65.168Z" fill="#407BFF"/>
<path opacity="0.3" d="M119.864 65.168C119.864 65.168 118.617 66.1041 126.896 82.4722L138.852 78.6912C137.111 73.893 136.152 70.8982 135.32 60.1875C133.54 60.372 131.776 60.6849 130.042 61.1236C128.192 61.566 126.377 62.1402 124.61 62.8419C122.34 63.7902 119.864 65.168 119.864 65.168Z" fill="black"/>
<path d="M147.82 143.041L144.836 143.333L141.73 136.241L144.715 135.949L147.82 143.041Z" fill="#E4897B"/>
<path d="M141.73 136.245L143.33 139.9H146.444L144.719 135.953L141.73 136.245Z" fill="#CE6F64"/>
<path d="M174.746 128.407L173.045 130.98L166.524 127.876L168.23 125.299L174.746 128.407Z" fill="#E4897B"/>
<path d="M168.23 125.299L166.529 127.876L169.891 129.477L171.592 126.9L168.23 125.299Z" fill="#CE6F64"/>
<path d="M126.895 82.472C126.895 82.472 126.294 107.083 129.331 115.99C132.486 125.254 141.779 138.834 141.779 138.834L147.573 138.554C147.573 138.554 139.217 121.485 138.275 114.114C136.984 103.954 135.661 79.7041 135.661 79.7041L126.895 82.472Z" fill="#407BFF"/>
<path opacity="0.6" d="M126.895 82.472C126.895 82.472 126.294 107.083 129.331 115.99C132.486 125.254 141.779 138.834 141.779 138.834L147.573 138.554C147.573 138.554 139.217 121.485 138.275 114.114C136.984 103.954 135.661 79.7041 135.661 79.7041L126.895 82.472Z" fill="black"/>
<path opacity="0.3" d="M136.652 95.5541L132.389 85.8281C132.389 85.8281 132.88 97.0414 136.968 99.9268C136.859 98.476 136.753 96.9968 136.652 95.5541Z" fill="black"/>
<path d="M130.058 81.4547C130.058 81.4547 138.178 101.101 143.545 111.913C147.889 120.65 168.636 129.623 168.636 129.623L170.812 125.975C170.812 125.975 154.941 115.925 151.941 110.005C142.339 91.0429 144.385 82.8001 138.864 78.6787L130.058 81.4547Z" fill="#407BFF"/>
<path opacity="0.6" d="M130.058 81.4547C130.058 81.4547 138.178 101.101 143.545 111.913C147.889 120.65 168.636 129.623 168.636 129.623L170.812 125.975C170.812 125.975 154.941 115.925 151.941 110.005C142.339 91.0429 144.385 82.8001 138.864 78.6787L130.058 81.4547Z" fill="black"/>
<path d="M172.327 130.705L172.55 127.248C172.554 127.189 172.579 127.133 172.62 127.09C172.662 127.048 172.718 127.022 172.777 127.017L175.546 126.802C175.616 126.799 175.685 126.811 175.75 126.836C175.815 126.862 175.873 126.901 175.922 126.951C175.971 127 176.008 127.06 176.032 127.125C176.056 127.19 176.066 127.26 176.062 127.329C175.96 128.545 175.855 129.108 175.753 130.632C175.696 131.568 175.7 133.643 175.615 134.936C175.53 136.228 174.247 136.216 174.166 135.669C173.8 133.238 173.114 132.091 172.485 131.236C172.371 131.083 172.315 130.895 172.327 130.705Z" fill="#263238"/>
<path d="M144.438 142.413H148.092C148.158 142.414 148.223 142.436 148.275 142.476C148.328 142.516 148.366 142.572 148.385 142.636L149.197 145.529C149.216 145.598 149.22 145.67 149.206 145.74C149.193 145.81 149.163 145.876 149.12 145.932C149.077 145.988 149.02 146.034 148.956 146.065C148.892 146.095 148.821 146.11 148.75 146.109C147.467 146.089 146.842 146.012 145.23 146.012C144.239 146.012 141.673 146.117 140.305 146.117C138.937 146.117 138.681 144.764 139.241 144.642C141.726 144.091 143.159 143.337 143.923 142.616C144.063 142.485 144.247 142.413 144.438 142.413Z" fill="#263238"/>
<path d="M127.565 55.1865C127.776 57.0426 128.446 60.3454 130.037 61.1234C130.037 61.1234 130.122 63.0443 126.874 64.0696C123.302 65.2002 124.605 62.8538 124.605 62.8538C126.408 61.7718 125.9 60.3454 125.129 59.0972L127.565 55.1865Z" fill="#E4897B"/>
<path d="M121.519 64.2892C122.405 63.8394 123.529 63.2923 124.605 62.8384C126.373 62.1387 128.188 61.5659 130.037 61.1242C131.085 60.8487 132.14 60.6379 133.03 60.4961C133.22 61.0837 133.842 65.3307 127.492 66.899C121.93 68.2728 121.227 65.2091 121.519 64.2892Z" fill="#E4897B"/>
<path d="M124.374 62.9598C124.32 62.9595 124.268 62.9393 124.228 62.9031C124.191 62.8635 124.17 62.8113 124.171 62.7572C124.171 62.7043 124.191 62.6534 124.228 62.6153C124.267 62.5789 124.318 62.5586 124.372 62.5586C124.425 62.5586 124.477 62.5789 124.516 62.6153C124.554 62.653 124.576 62.7038 124.577 62.7572C124.576 62.8118 124.554 62.8639 124.516 62.9031C124.478 62.9398 124.427 62.9601 124.374 62.9598Z" fill="#F0F0F0"/>
<path d="M125.779 65.3791C125.724 65.373 125.675 65.3457 125.641 65.3032C125.606 65.2607 125.59 65.2064 125.596 65.1522C125.602 65.0991 125.629 65.0505 125.671 65.0171C125.713 64.9837 125.766 64.9682 125.819 64.9739C125.846 64.9764 125.872 64.9842 125.896 64.9968C125.919 65.0094 125.94 65.0265 125.957 65.0473C125.974 65.068 125.987 65.0919 125.995 65.1175C126.002 65.1432 126.005 65.1701 126.002 65.1968C125.996 65.2466 125.972 65.2925 125.935 65.3261C125.898 65.3596 125.849 65.3785 125.799 65.3791H125.779ZM126.408 65.1846C126.402 65.131 126.418 65.0772 126.451 65.0348C126.484 64.9924 126.533 64.9647 126.587 64.9576C126.64 64.952 126.693 64.9675 126.735 65.0009C126.777 65.0343 126.804 65.0828 126.81 65.136C126.814 65.1627 126.812 65.1899 126.805 65.2161C126.799 65.2422 126.786 65.2666 126.77 65.2878C126.753 65.3091 126.732 65.3267 126.708 65.3396C126.684 65.3525 126.658 65.3604 126.631 65.3629C126.578 65.3675 126.525 65.3516 126.484 65.3184C126.442 65.2852 126.415 65.2373 126.408 65.1846ZM127.22 65.063C127.206 65.0114 127.214 64.9565 127.24 64.9103C127.267 64.864 127.311 64.83 127.362 64.8158C127.388 64.8085 127.415 64.8066 127.442 64.81C127.468 64.8135 127.494 64.8223 127.517 64.8359C127.54 64.8496 127.56 64.8677 127.576 64.8894C127.592 64.911 127.604 64.9356 127.61 64.9617C127.623 65.0133 127.616 65.0682 127.59 65.1145C127.563 65.1607 127.519 65.1947 127.468 65.2089H127.415C127.37 65.2107 127.325 65.1973 127.288 65.1709C127.251 65.1444 127.225 65.1065 127.212 65.063H127.22ZM124.934 65.1116C124.911 65.0986 124.891 65.0811 124.874 65.0601C124.858 65.0391 124.846 65.015 124.839 64.9893C124.832 64.9636 124.831 64.9368 124.835 64.9105C124.838 64.8842 124.847 64.8589 124.861 64.8361C124.889 64.7898 124.934 64.7562 124.986 64.7426C125.039 64.729 125.094 64.7363 125.141 64.7631C125.164 64.7769 125.184 64.795 125.2 64.8166C125.216 64.8381 125.228 64.8626 125.234 64.8886C125.241 64.9146 125.242 64.9416 125.238 64.9681C125.234 64.9945 125.224 65.0199 125.21 65.0428C125.192 65.0729 125.167 65.0978 125.136 65.1149C125.106 65.1319 125.071 65.1406 125.036 65.14C124.997 65.1418 124.959 65.132 124.926 65.1116H124.934ZM127.995 64.828C127.985 64.8035 127.979 64.7772 127.978 64.7504C127.978 64.7237 127.983 64.6972 127.993 64.6723C128.002 64.6475 128.017 64.6248 128.036 64.6056C128.054 64.5864 128.076 64.5711 128.101 64.5605C128.126 64.5498 128.152 64.544 128.179 64.5435C128.205 64.543 128.232 64.5478 128.257 64.5575C128.282 64.5673 128.305 64.5819 128.324 64.6005C128.343 64.6191 128.358 64.6413 128.369 64.6659C128.39 64.7154 128.39 64.771 128.37 64.8209C128.351 64.8708 128.312 64.9111 128.263 64.9333C128.237 64.9394 128.209 64.9394 128.182 64.9333C128.144 64.9377 128.106 64.9313 128.071 64.9148C128.037 64.8983 128.008 64.8724 127.987 64.8401L127.995 64.828ZM128.722 64.4673C128.707 64.4453 128.696 64.4204 128.69 64.3942C128.685 64.3679 128.684 64.3408 128.689 64.3144C128.694 64.2881 128.704 64.2629 128.719 64.2404C128.734 64.218 128.753 64.1987 128.775 64.1836C128.819 64.1539 128.873 64.1428 128.926 64.1526C128.978 64.1625 129.025 64.1925 129.055 64.2363C129.071 64.2578 129.082 64.2821 129.088 64.3078C129.094 64.3336 129.094 64.3603 129.09 64.3863C129.085 64.4124 129.075 64.4373 129.061 64.4595C129.047 64.4818 129.028 64.5009 129.006 64.5159C128.972 64.5395 128.931 64.5522 128.889 64.5524C128.853 64.5565 128.816 64.5507 128.783 64.5358C128.751 64.5208 128.722 64.4971 128.702 64.4673H128.722ZM124.309 64.4349C124.297 64.4107 124.291 64.3844 124.289 64.3577C124.288 64.3309 124.292 64.3041 124.301 64.2788C124.31 64.2535 124.324 64.2303 124.342 64.2105C124.36 64.1907 124.382 64.1747 124.406 64.1634C124.43 64.1517 124.456 64.1448 124.482 64.1432C124.509 64.1416 124.535 64.1452 124.56 64.1539C124.585 64.1626 124.608 64.1761 124.628 64.1937C124.647 64.2114 124.663 64.2327 124.674 64.2566C124.686 64.2805 124.693 64.3065 124.695 64.3332C124.696 64.3598 124.693 64.3865 124.684 64.4117C124.676 64.4369 124.662 64.4602 124.644 64.4801C124.627 64.5001 124.605 64.5164 124.581 64.5281C124.553 64.5337 124.524 64.5337 124.496 64.5281C124.459 64.5309 124.422 64.5237 124.389 64.5073C124.357 64.4909 124.329 64.4658 124.309 64.4349ZM129.356 63.9648C129.337 63.9463 129.322 63.9242 129.311 63.8999C129.301 63.8755 129.296 63.8494 129.296 63.823C129.296 63.7965 129.301 63.7704 129.311 63.746C129.322 63.7217 129.337 63.6996 129.356 63.6811C129.374 63.6617 129.396 63.6463 129.42 63.6357C129.445 63.6252 129.471 63.6197 129.498 63.6197C129.524 63.6197 129.551 63.6252 129.575 63.6357C129.6 63.6463 129.622 63.6617 129.64 63.6811C129.659 63.7 129.674 63.7224 129.684 63.7471C129.695 63.7717 129.7 63.7982 129.7 63.825C129.7 63.8517 129.695 63.8782 129.684 63.9029C129.674 63.9276 129.659 63.95 129.64 63.9688C129.621 63.9895 129.597 64.0059 129.572 64.017C129.546 64.0282 129.518 64.0339 129.49 64.0337C129.438 64.0294 129.391 64.0063 129.356 63.9688V63.9648ZM124.102 63.5595C124.1 63.5329 124.104 63.5062 124.113 63.481C124.121 63.4558 124.135 63.4326 124.153 63.4126C124.17 63.3926 124.192 63.3764 124.216 63.3647C124.24 63.3531 124.266 63.3463 124.293 63.3448C124.347 63.3425 124.4 63.3617 124.44 63.3981C124.48 63.4345 124.505 63.4852 124.508 63.5393C124.509 63.5659 124.505 63.5925 124.496 63.6175C124.486 63.6425 124.472 63.6654 124.454 63.685C124.436 63.7045 124.414 63.7204 124.39 63.7315C124.366 63.7427 124.34 63.749 124.313 63.75C124.262 63.7525 124.213 63.736 124.174 63.7038C124.135 63.6715 124.109 63.6259 124.102 63.5758V63.5595ZM129.879 63.3326C129.856 63.3189 129.836 63.3007 129.82 63.2792C129.804 63.2576 129.793 63.2332 129.786 63.2072C129.78 63.1812 129.779 63.1541 129.783 63.1277C129.787 63.1012 129.796 63.0758 129.81 63.053C129.839 63.0081 129.885 62.9762 129.937 62.9641C129.99 62.952 130.044 62.9606 130.09 62.9881C130.136 63.0166 130.169 63.0618 130.182 63.114C130.195 63.1662 130.187 63.2213 130.159 63.2678C130.141 63.2971 130.115 63.3214 130.084 63.3383C130.054 63.3553 130.02 63.3645 129.985 63.365C129.949 63.3691 129.912 63.3635 129.879 63.3488V63.3326ZM130.285 62.6194C130.26 62.6104 130.237 62.5964 130.218 62.5784C130.198 62.5604 130.183 62.5387 130.172 62.5145C130.161 62.4903 130.155 62.4642 130.154 62.4377C130.153 62.4111 130.158 62.3847 130.168 62.36C130.177 62.335 130.191 62.3121 130.209 62.2926C130.227 62.2731 130.248 62.2574 130.273 62.2465C130.297 62.2355 130.323 62.2295 130.35 62.2288C130.376 62.2281 130.403 62.2328 130.427 62.2425C130.453 62.2519 130.476 62.2662 130.495 62.2846C130.515 62.303 130.531 62.3251 130.541 62.3496C130.552 62.3741 130.558 62.4006 130.559 62.4274C130.56 62.4542 130.555 62.4809 130.545 62.5059C130.531 62.5446 130.505 62.5779 130.471 62.6012C130.436 62.6244 130.396 62.6364 130.354 62.6356C130.326 62.6436 130.297 62.6436 130.269 62.6356L130.285 62.6194ZM130.541 61.8534C130.489 61.8408 130.443 61.8086 130.413 61.7634C130.384 61.7181 130.373 61.6633 130.383 61.6103C130.389 61.5842 130.399 61.5594 130.415 61.5375C130.43 61.5156 130.45 61.4969 130.472 61.4826C130.495 61.4683 130.52 61.4586 130.547 61.4541C130.573 61.4496 130.6 61.4503 130.626 61.4563C130.652 61.4616 130.677 61.472 130.699 61.4869C130.721 61.5019 130.74 61.5211 130.754 61.5434C130.768 61.5657 130.778 61.5906 130.783 61.6167C130.787 61.6428 130.787 61.6696 130.781 61.6954C130.771 61.7408 130.745 61.7815 130.709 61.8109C130.673 61.8404 130.628 61.8568 130.582 61.8575H130.541V61.8534Z" fill="#F0F0F0"/>
<path d="M130.688 61.0552C130.661 61.0563 130.634 61.0519 130.609 61.0421C130.583 61.0323 130.561 61.0174 130.541 60.9984C130.522 60.9793 130.507 60.9565 130.498 60.9314C130.488 60.9063 130.483 60.8795 130.485 60.8525C130.484 60.7997 130.505 60.7488 130.541 60.7107C130.56 60.6922 130.582 60.6772 130.606 60.6661C130.644 60.652 130.685 60.6486 130.724 60.6565C130.764 60.6644 130.8 60.6832 130.83 60.7107C130.868 60.7484 130.889 60.7992 130.891 60.8525C130.889 60.907 130.867 60.9589 130.83 60.9984C130.811 61.0156 130.789 61.0294 130.765 61.039C130.74 61.0498 130.714 61.0553 130.688 61.0552Z" fill="#F0F0F0"/>
<path d="M126.57 56.7754L125.129 59.0813C125.316 59.3695 125.475 59.6748 125.604 59.9931C126.314 59.6486 127.228 58.6274 127.057 57.825C126.958 57.4493 126.793 57.094 126.57 56.7754Z" fill="#CE6F64"/>
<path d="M126.72 51.0611C127.739 53.9506 128.235 55.1501 127.423 57.1966C126.205 60.2724 122.429 60.8925 120.565 58.3718C118.889 56.0984 117.5 51.7622 119.782 49.4563C120.284 48.9505 120.908 48.5812 121.594 48.3836C122.279 48.1861 123.004 48.1668 123.699 48.3276C124.395 48.4884 125.037 48.8239 125.566 49.3024C126.095 49.7808 126.492 50.3862 126.72 51.0611Z" fill="#E4897B"/>
<path d="M122.506 48.0098C121.869 48.9864 124.463 54.664 128.268 53.5333C130.172 52.966 129.53 51.6975 128.41 50.5669C127.056 49.2334 125.302 48.3793 123.416 48.1354L122.506 48.0098Z" fill="#263238"/>
<path d="M122.652 48.1715C121.532 48.058 117.809 48.7469 117.971 52.5198C117.971 52.5198 119.518 51.1339 123.83 50.8988L122.652 48.1715Z" fill="#263238"/>
<path d="M128.235 53.4121C128.32 53.693 128.349 53.988 128.32 54.2801C128.291 54.5722 128.204 54.8556 128.064 55.1141C127.691 55.8031 126.94 55.6004 126.574 54.952C126.246 54.3685 126.047 53.331 126.648 52.8366C126.782 52.7368 126.939 52.6718 127.104 52.6475C127.27 52.6231 127.439 52.6403 127.597 52.6973C127.754 52.7544 127.895 52.8496 128.006 52.9743C128.118 53.0991 128.196 53.2495 128.235 53.4121Z" fill="#E4897B"/>
<path d="M138.819 77.9332L139.696 78.8329C139.765 78.9018 139.696 79.0193 139.558 79.0598L127.008 83.0231C126.899 83.0596 126.793 83.0231 126.765 82.9705L126.318 81.933C126.286 81.8601 126.363 81.7709 126.48 81.7304L138.595 77.9048C138.632 77.8898 138.672 77.8845 138.711 77.8895C138.75 77.8945 138.787 77.9095 138.819 77.9332Z" fill="#407BFF"/>
<path d="M122.778 53.6556C122.876 53.8826 122.831 54.1217 122.685 54.1825C122.539 54.2433 122.332 54.1136 122.234 53.8826C122.137 53.6516 122.182 53.4165 122.332 53.3558C122.482 53.295 122.681 53.4246 122.778 53.6556Z" fill="#263238"/>
<path d="M120.176 54.7533C120.273 54.9802 120.233 55.2193 120.082 55.2801C119.932 55.3409 119.729 55.2112 119.632 54.9802C119.534 54.7492 119.579 54.5142 119.729 54.4534C119.879 54.3926 120.086 54.5223 120.176 54.7533Z" fill="#263238"/>
<path d="M119.811 54.4375L119.189 54.5104C119.189 54.5104 119.656 54.8225 119.811 54.4375Z" fill="#263238"/>
<path d="M121.037 54.8545C121.054 55.463 120.988 56.071 120.842 56.6619C120.994 56.6962 121.151 56.6969 121.303 56.664C121.456 56.6311 121.599 56.5654 121.723 56.4714L121.037 54.8545Z" fill="#DE5753"/>
<path d="M122.884 57.0346C122.868 57.0335 122.853 57.0273 122.841 57.0168C122.828 57.0063 122.82 56.9921 122.817 56.9765C122.814 56.9608 122.816 56.9445 122.823 56.9301C122.83 56.9158 122.841 56.904 122.855 56.8968C123.144 56.7826 123.401 56.6019 123.607 56.3695C123.812 56.1371 123.959 55.8595 124.037 55.5595C124.041 55.5405 124.052 55.5237 124.067 55.5124C124.083 55.5011 124.103 55.4962 124.122 55.4987C124.141 55.5026 124.158 55.5135 124.169 55.5293C124.18 55.5451 124.185 55.5645 124.183 55.5838C124.102 55.9086 123.944 56.2093 123.723 56.461C123.502 56.7127 123.224 56.9079 122.912 57.0305L122.884 57.0346Z" fill="#263238"/>
<path d="M123.148 52.5004C123.122 52.4994 123.097 52.4924 123.075 52.4801C122.919 52.3841 122.742 52.3267 122.559 52.3126C122.376 52.2985 122.192 52.3281 122.023 52.3991C121.988 52.4162 121.948 52.419 121.911 52.4069C121.873 52.3948 121.842 52.3688 121.824 52.3343C121.815 52.317 121.81 52.2981 121.808 52.2787C121.807 52.2593 121.809 52.2398 121.815 52.2213C121.821 52.2028 121.831 52.1857 121.843 52.171C121.856 52.1563 121.872 52.1443 121.889 52.1357C122.102 52.0435 122.335 52.0039 122.566 52.0201C122.798 52.0364 123.023 52.108 123.221 52.2289C123.254 52.2484 123.278 52.2801 123.288 52.3173C123.298 52.3545 123.293 52.3941 123.274 52.4275C123.261 52.4498 123.243 52.4684 123.221 52.4812C123.199 52.4941 123.173 52.5007 123.148 52.5004Z" fill="#263238"/>
<path d="M118.442 54.068H118.418C118.399 54.0651 118.38 54.0583 118.364 54.0481C118.347 54.0378 118.333 54.0243 118.322 54.0083C118.311 53.9924 118.303 53.9744 118.3 53.9553C118.296 53.9363 118.296 53.9168 118.3 53.8978C118.34 53.6676 118.434 53.4503 118.576 53.2641C118.717 53.078 118.901 52.9284 119.112 52.8279C119.148 52.8144 119.188 52.8152 119.224 52.8303C119.259 52.8454 119.288 52.8736 119.303 52.909C119.318 52.9445 119.318 52.9844 119.304 53.0201C119.289 53.0558 119.261 53.0843 119.226 53.0995C119.062 53.1827 118.92 53.3036 118.812 53.4523C118.704 53.6009 118.633 53.7731 118.605 53.9545C118.596 53.9899 118.575 54.0209 118.545 54.0418C118.515 54.0627 118.478 54.072 118.442 54.068Z" fill="#263238"/>
<path d="M137.633 62.9473C137.926 63.2877 138.283 63.6808 138.616 64.0495C138.949 64.4183 139.31 64.783 139.667 65.1397C140.378 65.861 141.109 66.558 141.876 67.2105C142.643 67.8629 143.419 68.4992 144.231 69.0706C144.43 69.2205 144.637 69.3462 144.848 69.4758C145.059 69.6055 145.254 69.7514 145.469 69.8811C145.684 70.0108 145.904 70.1445 146.094 70.2458L146.354 70.3795L146.638 70.493C147.049 70.6395 147.472 70.7507 147.901 70.8253C148.365 70.8979 148.833 70.9412 149.302 70.955C150.291 70.9809 151.28 70.9308 152.262 70.8051C153.275 70.6834 154.282 70.5103 155.278 70.2863C156.281 70.0756 157.308 69.8081 158.266 69.5285L158.847 70.9793C157.86 71.4378 156.849 71.8436 155.818 72.1951C154.787 72.5355 153.735 72.8394 152.655 73.0826C151.557 73.3322 150.439 73.4841 149.314 73.5364C148.105 73.6058 146.892 73.4687 145.729 73.1312L145.27 72.9691L144.816 72.7705C144.531 72.6327 144.304 72.5071 144.048 72.3653C143.792 72.2234 143.549 72.0978 143.309 71.96C143.07 71.8222 142.818 71.6804 142.587 71.5264C141.643 70.9368 140.738 70.2871 139.879 69.5812C139.021 68.8842 138.2 68.1507 137.418 67.3807C137.028 66.9917 136.647 66.5945 136.273 66.1893C135.896 65.784 135.547 65.3788 135.169 64.9087L137.633 62.9473Z" fill="#E4897B"/>
<path d="M172.323 132.476H172.205C172.161 132.469 172.12 132.451 172.086 132.423C172.052 132.396 172.025 132.359 172.01 132.318C171.868 131.949 172.534 131.054 172.611 130.952C172.619 130.941 172.63 130.933 172.643 130.928C172.657 130.924 172.671 130.924 172.684 130.928C172.698 130.93 172.711 130.937 172.722 130.947C172.732 130.957 172.739 130.97 172.741 130.985C172.81 131.39 172.883 132.107 172.599 132.383C172.521 132.447 172.423 132.48 172.323 132.476ZM172.623 131.171C172.367 131.54 172.071 132.059 172.144 132.253C172.151 132.272 172.163 132.288 172.179 132.3C172.195 132.313 172.213 132.32 172.233 132.322C172.279 132.336 172.327 132.338 172.373 132.328C172.419 132.318 172.462 132.296 172.497 132.265C172.652 132.111 172.696 131.706 172.623 131.171Z" fill="#407BFF"/>
<path d="M171.588 131.742H171.498C171.443 131.726 171.394 131.692 171.36 131.645C171.326 131.598 171.309 131.541 171.312 131.483C171.307 131.427 171.316 131.37 171.336 131.318C171.356 131.265 171.388 131.218 171.429 131.179C171.746 130.863 172.647 130.916 172.672 130.92C172.685 130.92 172.698 130.923 172.708 130.931C172.719 130.938 172.728 130.948 172.733 130.96C172.74 130.971 172.743 130.984 172.743 130.997C172.743 131.01 172.74 131.022 172.733 131.033C172.448 131.398 172.042 131.65 171.588 131.742ZM172.497 131.053C172.16 131.025 171.822 131.103 171.531 131.276C171.505 131.301 171.485 131.33 171.473 131.363C171.46 131.396 171.455 131.432 171.458 131.467C171.458 131.56 171.503 131.58 171.535 131.592C171.746 131.645 172.27 131.329 172.522 131.053H172.497Z" fill="#407BFF"/>
<path d="M142.814 143.017C142.564 143.035 142.315 142.975 142.1 142.846C142.044 142.806 141.998 142.753 141.965 142.692C141.933 142.631 141.915 142.563 141.913 142.494C141.908 142.456 141.914 142.417 141.929 142.382C141.945 142.347 141.97 142.317 142.002 142.295C142.339 142.068 143.586 142.636 143.833 142.753C143.847 142.759 143.859 142.77 143.866 142.783C143.873 142.796 143.876 142.811 143.874 142.826C143.872 142.841 143.866 142.856 143.855 142.867C143.845 142.879 143.832 142.887 143.817 142.891C143.488 142.966 143.152 143.008 142.814 143.017ZM142.23 142.384C142.18 142.382 142.131 142.393 142.088 142.417C142.088 142.417 142.055 142.441 142.059 142.486C142.059 142.533 142.07 142.58 142.092 142.623C142.114 142.665 142.146 142.701 142.185 142.729C142.473 142.948 143.163 142.863 143.561 142.79C143.141 142.587 142.692 142.45 142.23 142.384Z" fill="#407BFF"/>
<path d="M143.801 142.891H143.772C143.366 142.721 142.526 142.052 142.554 141.708C142.554 141.631 142.615 141.538 142.806 141.517C143.533 141.424 143.841 142.733 143.858 142.806C143.86 142.819 143.859 142.833 143.855 142.846C143.85 142.858 143.843 142.87 143.833 142.879C143.824 142.886 143.812 142.89 143.801 142.891ZM142.887 141.655H142.839C142.761 141.655 142.721 141.688 142.717 141.724C142.688 141.923 143.265 142.454 143.687 142.685C143.59 142.364 143.318 141.655 142.887 141.655Z" fill="#407BFF"/>
<path d="M159.018 68.9571L158.141 66.7891L156.671 69.561C156.671 69.561 157.572 71.0928 158.851 70.9793L159.05 70.416C159.216 69.9418 159.205 69.4236 159.018 68.9571Z" fill="#E4897B"/>
<path d="M122.4 53.3389L121.783 53.4118C121.783 53.4118 122.25 53.7239 122.4 53.3389Z" fill="#263238"/>
<path d="M147.983 138.729L141.069 139.094L140.07 137.181L147.573 136.934L147.983 138.729Z" fill="#407BFF"/>
<path opacity="0.7" d="M147.983 138.729L141.069 139.094L140.07 137.181L147.573 136.934L147.983 138.729Z" fill="white"/>
<path d="M171.312 125.509L168.522 130.076L167.053 129.776L169.667 124.415L171.312 125.509Z" fill="#407BFF"/>
<path opacity="0.7" d="M171.312 125.509L168.522 130.076L167.053 129.776L169.667 124.415L171.312 125.509Z" fill="white"/>
<path d="M137.634 79.8014L137.958 79.696C138.023 79.696 138.06 79.6271 138.044 79.5907L137.451 78.2493C137.451 78.2088 137.366 78.1926 137.301 78.2128L136.976 78.3182C136.911 78.3384 136.874 78.3871 136.891 78.4236L137.483 79.7649C137.487 79.8054 137.556 79.8338 137.634 79.8014Z" fill="#407BFF"/>
<path d="M127.955 82.8535L128.279 82.7522C128.344 82.7522 128.385 82.6793 128.369 82.6428L127.776 81.3014C127.759 81.2795 127.734 81.2641 127.707 81.2575C127.68 81.2509 127.651 81.2535 127.626 81.265L127.301 81.3703C127.236 81.3906 127.2 81.4392 127.216 81.4797L127.809 82.8171C127.825 82.8576 127.89 82.8738 127.955 82.8535Z" fill="#407BFF"/>
<path d="M132.791 81.3258L133.116 81.2245C133.176 81.2042 133.217 81.1556 133.201 81.1151L132.608 79.7737C132.608 79.7372 132.523 79.721 132.458 79.7412L132.133 79.8426C132.068 79.8426 132.032 79.9114 132.048 79.952L132.641 81.2934C132.657 81.3339 132.726 81.346 132.791 81.3258Z" fill="#407BFF"/>
<path opacity="0.6" d="M137.634 79.8014L137.958 79.696C138.023 79.696 138.06 79.6271 138.044 79.5907L137.451 78.2493C137.451 78.2088 137.366 78.1926 137.301 78.2128L136.976 78.3182C136.911 78.3384 136.874 78.3871 136.891 78.4236L137.483 79.7649C137.487 79.8054 137.556 79.8338 137.634 79.8014Z" fill="black"/>
<path opacity="0.6" d="M127.955 82.8535L128.279 82.7522C128.344 82.7522 128.385 82.6793 128.369 82.6428L127.776 81.3014C127.759 81.2795 127.734 81.2641 127.707 81.2575C127.68 81.2509 127.651 81.2535 127.626 81.265L127.301 81.3703C127.236 81.3906 127.2 81.4392 127.216 81.4797L127.809 82.8171C127.825 82.8576 127.89 82.8738 127.955 82.8535Z" fill="black"/>
<path opacity="0.6" d="M132.791 81.3258L133.116 81.2245C133.176 81.2042 133.217 81.1556 133.201 81.1151L132.608 79.7737C132.608 79.7372 132.523 79.721 132.458 79.7412L132.133 79.8426C132.068 79.8426 132.032 79.9114 132.048 79.952L132.641 81.2934C132.657 81.3339 132.726 81.346 132.791 81.3258Z" fill="black"/>
<path d="M135.332 60.1875C136.643 60.1875 139.392 63.8347 139.392 63.8347L135.791 68.6207C135.791 68.6207 133.493 65.6341 133.505 63.928C133.521 62.157 133.83 60.2037 135.332 60.1875Z" fill="#407BFF"/>
<path opacity="0.3" d="M135.332 60.1875C136.643 60.1875 139.392 63.8347 139.392 63.8347L135.791 68.6207C135.791 68.6207 133.493 65.6341 133.505 63.928C133.521 62.157 133.83 60.2037 135.332 60.1875Z" fill="black"/>
<path d="M87.1562 35.6621V133.732H147.61V35.6621H87.1562ZM142.372 129.802H88.8412V39.5768H142.364L142.372 129.802Z" fill="#407BFF"/>
<path opacity="0.6" d="M87.1562 35.6621V133.732H147.61V35.6621H87.1562ZM142.372 129.802H88.8412V39.5768H142.364L142.372 129.802Z" fill="white"/>
<path d="M88.8407 39.5771H88.2764V129.79H88.8407V39.5771Z" fill="white"/>
<path d="M88.8407 39.5771H88.2764V129.79H88.8407V39.5771Z" fill="#F0F0F0"/>
<path d="M153.947 12.6924H44.8341C43.8911 12.6945 42.9873 13.0691 42.3201 13.7343C41.653 14.3994 41.2767 15.3011 41.2734 16.2424V142.567C41.2767 143.508 41.653 144.41 42.3201 145.075C42.9873 145.74 43.8911 146.115 44.8341 146.117H153.947C154.889 146.115 155.793 145.74 156.459 145.075C157.126 144.409 157.501 143.508 157.503 142.567V16.2424C157.501 15.3015 157.126 14.3998 156.459 13.7345C155.793 13.0692 154.889 12.6945 153.947 12.6924ZM88.8404 39.5766H142.363V129.789H88.8404V39.5766Z" fill="#407BFF"/>
<path opacity="0.5" d="M153.947 12.6924H44.8341C43.8911 12.6945 42.9873 13.0691 42.3201 13.7343C41.653 14.3994 41.2767 15.3011 41.2734 16.2424V142.567C41.2767 143.508 41.653 144.41 42.3201 145.075C42.9873 145.74 43.8911 146.115 44.8341 146.117H153.947C154.889 146.115 155.793 145.74 156.459 145.075C157.126 144.409 157.501 143.508 157.503 142.567V16.2424C157.501 15.3015 157.126 14.3998 156.459 13.7345C155.793 13.0692 154.889 12.6945 153.947 12.6924ZM88.8404 39.5766H142.363V129.789H88.8404V39.5766Z" fill="black"/>
<path d="M153.001 12.6924H43.8887C42.9458 12.6945 42.042 13.0691 41.3748 13.7343C40.7076 14.3994 40.3313 15.3011 40.3281 16.2424V142.567C40.3313 143.508 40.7076 144.41 41.3748 145.075C42.042 145.74 42.9458 146.115 43.8887 146.117H153.001C153.944 146.114 154.846 145.738 155.513 145.073C156.179 144.408 156.555 143.507 156.558 142.567V16.2424C156.555 15.3018 156.179 14.4007 155.513 13.7357C154.846 13.0706 153.944 12.6956 153.001 12.6924ZM88.8532 39.5766H142.364V129.789H88.8411L88.8532 39.5766Z" fill="#407BFF"/>
<path opacity="0.2" d="M153.001 12.6924H43.8887C42.9458 12.6945 42.042 13.0691 41.3748 13.7343C40.7076 14.3994 40.3313 15.3011 40.3281 16.2424V142.567C40.3313 143.508 40.7076 144.41 41.3748 145.075C42.042 145.74 42.9458 146.115 43.8887 146.117H153.001C153.944 146.114 154.846 145.738 155.513 145.073C156.179 144.408 156.555 143.507 156.558 142.567V16.2424C156.555 15.3018 156.179 14.4007 155.513 13.7357C154.846 13.0706 153.944 12.6956 153.001 12.6924ZM88.8532 39.5766H142.364V129.789H88.8411L88.8532 39.5766Z" fill="black"/>
<path d="M40.3281 21.8838V142.567C40.3313 143.508 40.7076 144.41 41.3748 145.075C42.042 145.74 42.9458 146.115 43.8887 146.117H153.001C153.944 146.114 154.846 145.739 155.513 145.074C156.179 144.409 156.555 143.508 156.558 142.567V21.8838H40.3281ZM88.8411 39.577H142.364V129.79H88.8411V39.577Z" fill="#407BFF"/>
<path opacity="0.6" d="M40.3281 21.8838V142.567C40.3313 143.508 40.7076 144.41 41.3748 145.075C42.042 145.74 42.9458 146.115 43.8887 146.117H153.001C153.944 146.114 154.846 145.739 155.513 145.074C156.179 144.409 156.555 143.508 156.558 142.567V21.8838H40.3281ZM88.8411 39.577H142.364V129.79H88.8411V39.577Z" fill="white"/>
<path d="M41.0059 26.5967V141.396H155.904V26.5967H41.0059ZM142.384 129.789H88.8408V39.5768H142.364L142.384 129.789Z" fill="white"/>
<path opacity="0.76" d="M148.749 19.1968C149.794 19.1968 150.641 18.3514 150.641 17.3084C150.641 16.2654 149.794 15.4199 148.749 15.4199C147.704 15.4199 146.857 16.2654 146.857 17.3084C146.857 18.3514 147.704 19.1968 148.749 19.1968Z" fill="#407BFF"/>
<path opacity="0.76" d="M142.047 19.1968C143.092 19.1968 143.939 18.3514 143.939 17.3084C143.939 16.2654 143.092 15.4199 142.047 15.4199C141.002 15.4199 140.155 16.2654 140.155 17.3084C140.155 18.3514 141.002 19.1968 142.047 19.1968Z" fill="#407BFF"/>
<path opacity="0.76" d="M133.452 17.3084C133.452 17.6819 133.563 18.047 133.771 18.3576C133.979 18.6681 134.274 18.9102 134.62 19.0531C134.966 19.196 135.346 19.2334 135.713 19.1606C136.08 19.0877 136.417 18.9078 136.682 18.6437C136.947 18.3796 137.127 18.0431 137.2 17.6768C137.273 17.3105 137.235 16.9308 137.092 16.5857C136.949 16.2406 136.706 15.9457 136.395 15.7382C136.084 15.5307 135.718 15.4199 135.344 15.4199C135.096 15.4199 134.85 15.4688 134.62 15.5637C134.391 15.6586 134.182 15.7977 134.006 15.973C133.831 16.1484 133.691 16.3566 133.596 16.5857C133.501 16.8148 133.452 17.0604 133.452 17.3084Z" fill="#407BFF"/>
<path d="M40.332 22.1064L156.558 22.1064V21.6323L40.332 21.6323V22.1064Z" fill="#407BFF"/>
<path d="M158.925 35.6615H158.519V32.8247H158.925V35.6615ZM158.925 30.3568H158.519V21.0928H158.925V30.3568Z" fill="#407BFF"/>
<path opacity="0.4" d="M158.925 35.6615H158.519V32.8247H158.925V35.6615ZM158.925 30.3568H158.519V21.0928H158.925V30.3568Z" fill="black"/>
<path d="M60.0998 64.7666H71.5449V59.0891H60.0998V64.7666Z" fill="#407BFF"/>
<path opacity="0.6" d="M60.0998 64.7666H71.5449V59.0891H60.0998V64.7666Z" fill="white"/>
<path d="M51.9236 102.253H73.1006V96.5754H51.9236V102.253Z" fill="#407BFF"/>
<path opacity="0.6" d="M51.9236 102.253H73.1006V96.5754H51.9236V102.253Z" fill="white"/>
<path d="M32.8855 36.6592L76.6807 36.6592V30.9816L32.8855 30.9816V36.6592Z" fill="#407BFF"/>
<path opacity="0.6" d="M32.8855 36.6592L76.6807 36.6592V30.9816L32.8855 30.9816V36.6592Z" fill="white"/>
<path d="M32.8855 46.0283L68.2725 46.0283V40.3508L32.8855 40.3508V46.0283Z" fill="#407BFF"/>
<path opacity="0.6" d="M32.8855 46.0283L68.2725 46.0283V40.3508L32.8855 40.3508V46.0283Z" fill="white"/>
<path d="M32.8863 55.3975L73.1006 55.3975V49.7199L32.8863 49.7199V55.3975Z" fill="#407BFF"/>
<path opacity="0.6" d="M32.8863 55.3975L73.1006 55.3975V49.7199L32.8863 49.7199V55.3975Z" fill="white"/>
<path d="M32.8858 64.7666H55.3457V59.0891H32.8858V64.7666Z" fill="#407BFF"/>
<path opacity="0.6" d="M32.8858 64.7666H55.3457V59.0891H32.8858V64.7666Z" fill="white"/>
<path d="M32.8863 74.1406H73.1006V68.4631H32.8863V74.1406Z" fill="#407BFF"/>
<path opacity="0.6" d="M32.8863 74.1406H73.1006V68.4631H32.8863V74.1406Z" fill="white"/>
<path d="M32.8855 83.5137H76.6807V77.8361H32.8855V83.5137Z" fill="#407BFF"/>
<path opacity="0.6" d="M32.8855 83.5137H76.6807V77.8361H32.8855V83.5137Z" fill="white"/>
<path d="M32.8856 92.8789H63.7578V87.2014H32.8856V92.8789Z" fill="#407BFF"/>
<path opacity="0.6" d="M32.8856 92.8789H63.7578V87.2014H32.8856V92.8789Z" fill="white"/>
<path d="M32.8857 102.253H47.1729V96.5754H32.8857V102.253Z" fill="#407BFF"/>
<path opacity="0.6" d="M32.8857 102.253H47.1729V96.5754H32.8857V102.253Z" fill="white"/>
<path d="M50.8079 121.549C51.6942 116.274 48.1282 111.28 42.843 110.395C37.5577 109.51 32.5547 113.07 31.6683 118.345C30.782 123.621 34.348 128.615 39.6332 129.499C44.9185 130.384 49.9215 126.825 50.8079 121.549Z" fill="#407BFF"/>
<path opacity="0.6" d="M50.8079 121.549C51.6942 116.274 48.1282 111.28 42.843 110.395C37.5577 109.51 32.5547 113.07 31.6683 118.345C30.782 123.621 34.348 128.615 39.6332 129.499C44.9185 130.384 49.9215 126.825 50.8079 121.549Z" fill="white"/>
<path d="M42.2244 118.264C39.9183 117.563 38.4892 115.058 38.4892 115.058C38.4892 115.058 37.7624 115.018 37.7259 115.674C37.7118 116.117 37.7896 116.558 37.9545 116.97C38.1194 117.381 38.3678 117.754 38.684 118.065L37.5757 118.004C37.1805 117.982 36.7843 118.023 36.4023 118.126L36.0329 118.227C35.7283 118.312 35.4687 118.511 35.3088 118.784C35.1489 119.056 35.1014 119.379 35.1762 119.686L35.704 121.838C35.8576 122.489 36.2503 123.058 36.8045 123.433C37.3587 123.808 38.0338 123.962 38.6962 123.864C39.8249 123.702 41.5829 123.459 41.8874 123.39L42.6994 123.325L42.9714 118.499L42.2244 118.264Z" fill="white"/>
<path d="M45.8373 117.6H42.7314C42.4893 117.6 42.293 117.796 42.293 118.037V123.516C42.293 123.758 42.4893 123.954 42.7314 123.954H45.8373C46.0795 123.954 46.2758 123.758 46.2758 123.516V118.037C46.2758 117.796 46.0795 117.6 45.8373 117.6Z" fill="#407BFF"/>
<path d="M72.6973 126.803C76.4867 123.02 76.4867 116.888 72.6973 113.105C68.9079 109.323 62.764 109.323 58.9746 113.105C55.1852 116.888 55.1852 123.02 58.9746 126.803C62.764 130.585 68.9079 130.585 72.6973 126.803Z" fill="#407BFF"/>
<path opacity="0.6" d="M72.6973 126.803C76.4867 123.02 76.4867 116.888 72.6973 113.105C68.9079 109.323 62.764 109.323 58.9746 113.105C55.1852 116.888 55.1852 123.02 58.9746 126.803C62.764 130.585 68.9079 130.585 72.6973 126.803Z" fill="white"/>
<path d="M70.6724 116.489C70.3549 116.172 69.978 115.921 69.5632 115.749C69.1483 115.578 68.7037 115.489 68.2547 115.489C67.8056 115.489 67.361 115.578 66.9461 115.749C66.5313 115.921 66.1544 116.172 65.8369 116.489C65.1957 115.849 64.326 115.49 63.4192 115.49C62.5124 115.49 61.6427 115.849 61.0015 116.489C60.3602 117.129 60 117.997 60 118.902C60 119.808 60.3602 120.676 61.0015 121.316L65.8369 126.138L70.6724 121.316C71.3118 120.675 71.6708 119.807 71.6708 118.902C71.6708 117.998 71.3118 117.13 70.6724 116.489Z" fill="#407BFF"/>
<path d="M156.935 66.6755L156.902 68.8598C156.903 68.9598 156.934 69.0572 156.992 69.1394L157.783 70.2457L158.141 66.7889L157.735 66.3837C157.672 66.3194 157.592 66.2747 157.504 66.2548C157.416 66.2349 157.325 66.2407 157.24 66.2715C157.156 66.3023 157.082 66.3568 157.028 66.4285C156.974 66.5002 156.941 66.5859 156.935 66.6755Z" fill="#E4897B"/>
<path d="M84.3467 35.6621V133.732H146.294V35.6621H84.3467ZM142.364 129.802H88.8411V39.5768H142.364V129.802Z" fill="#407BFF"/>
<path opacity="0.8" d="M84.3467 35.6621V133.732H146.294V35.6621H84.3467ZM142.364 129.802H88.8411V39.5768H142.364V129.802Z" fill="white"/>
</svg>
