<svg width="20" height="20" viewBox="0 0 20 20" fill="none" xmlns="http://www.w3.org/2000/svg">
<path d="M18.5021 3.44824H1.49785C0.670586 3.44824 0 4.11883 0 4.94609V15.0539C0 15.8811 0.670586 16.5518 1.49785 16.5518H18.5021C19.3294 16.5518 20 15.8812 20 15.0539V4.94609C20 4.11883 19.3294 3.44824 18.5021 3.44824Z" fill="#FF4B55"/>
<path d="M3.32048 5.49708L3.64922 6.48278L4.68829 6.49083C4.82282 6.49184 4.8786 6.66356 4.77036 6.74344L3.9345 7.36067L4.2479 8.35137C4.28844 8.47965 4.14243 8.58571 4.03298 8.5075L3.18766 7.90325L2.34235 8.50746C2.2329 8.58571 2.08688 8.47957 2.12743 8.35133L2.44083 7.36063L1.60497 6.74344C1.49673 6.66352 1.55251 6.49184 1.68704 6.49083L2.7261 6.48278L3.05485 5.49708C3.09743 5.36946 3.27794 5.36946 3.32048 5.49708Z" fill="#FFE15A"/>
<path d="M7.0938 5.73983L7.32954 6.06124L7.70997 5.94225C7.75923 5.92686 7.79974 5.98303 7.76958 6.02487L7.53669 6.34835L7.76739 6.67339C7.79728 6.71546 7.75638 6.77135 7.70724 6.75561L7.32759 6.63409L7.08974 6.95397C7.05896 6.99538 6.99314 6.97374 6.99294 6.92217L6.99119 6.52354L6.61345 6.39616C6.56455 6.37964 6.56478 6.31042 6.6138 6.29424L6.99232 6.1694L6.99677 5.77081C6.99732 5.71936 7.06329 5.69823 7.0938 5.73983Z" fill="#FFE15A"/>
<path d="M5.65831 4.78148L6.05456 4.82453L6.22362 4.46356C6.24553 4.41684 6.31432 4.42484 6.32483 4.47535L6.40631 4.86551L6.80186 4.91473C6.85307 4.92109 6.86671 4.98898 6.8219 5.01465L6.476 5.21269L6.55143 5.6041C6.5612 5.6548 6.50085 5.68871 6.4626 5.65406L6.16733 5.38629L5.81842 5.57894C5.77327 5.6039 5.72229 5.55695 5.74346 5.50988L5.90686 5.14629L5.61577 4.87395C5.57815 4.83887 5.60702 4.77594 5.65831 4.78148Z" fill="#FFE15A"/>
<path d="M6.28473 8.64512L6.04903 8.9666L5.6686 8.84762C5.61934 8.83223 5.57883 8.88836 5.60899 8.93024L5.84188 9.25371L5.61118 9.57876C5.5813 9.62083 5.62219 9.67672 5.67133 9.66098L6.05094 9.53946L6.28879 9.85934C6.31957 9.90075 6.3854 9.87911 6.38559 9.82755L6.38735 9.42891L6.76508 9.30153C6.81399 9.285 6.81375 9.21578 6.76473 9.19961L6.38622 9.07477L6.38176 8.67617C6.38114 8.62465 6.31524 8.60348 6.28473 8.64512Z" fill="#FFE15A"/>
<path d="M7.72004 7.74438L7.32376 7.78742L7.15469 7.42645C7.13278 7.37973 7.06403 7.38774 7.05348 7.43824L6.97196 7.8284L6.57642 7.87762C6.5252 7.88399 6.51157 7.95188 6.55638 7.97754L6.90227 8.17559L6.82684 8.56699C6.81708 8.6177 6.87743 8.6516 6.91567 8.61695L7.21094 8.34918L7.55985 8.54184C7.60501 8.5668 7.65598 8.51984 7.63481 8.47277L7.47141 8.10918L7.76251 7.83684C7.80028 7.80176 7.77141 7.73883 7.72004 7.74438Z" fill="#FFE15A"/>
</svg>
