<?xml version="1.0" standalone="no"?>
<!DOCTYPE svg PUBLIC "-//W3C//DTD SVG 20010904//EN"
 "http://www.w3.org/TR/2001/REC-SVG-20010904/DTD/svg10.dtd">
<svg version="1.0" xmlns="http://www.w3.org/2000/svg"
 width="700.000000pt" height="700.000000pt" viewBox="0 0 700.000000 700.000000"
 preserveAspectRatio="xMidYMid meet">
<metadata>
Created by potrace 1.11, written by Peter Selinger 2001-2013
</metadata>
<g transform="translate(0.000000,700.000000) scale(0.100000,-0.100000)"
fill="#000000" stroke="none">
<path d="M3123 6985 c-816 -93 -1568 -459 -2128 -1036 -540 -556 -855 -1206
-972 -2004 -14 -96 -18 -185 -17 -450 0 -292 2 -347 22 -475 77 -493 226 -913
466 -1317 470 -791 1246 -1369 2147 -1598 547 -140 1138 -142 1696 -5 680 166
1324 553 1779 1070 494 562 791 1236 869 1975 19 180 19 530 0 710 -124 1171
-808 2188 -1845 2742 -345 185 -732 310 -1160 375 -178 26 -671 34 -857 13z
m727 -155 c798 -91 1500 -432 2050 -996 539 -552 860 -1243 941 -2019 6 -60
11 -204 11 -320 0 -115 -5 -259 -11 -320 -82 -787 -416 -1499 -961 -2045 -261
-262 -517 -451 -832 -615 -336 -174 -683 -286 -1075 -345 -177 -28 -582 -38
-770 -21 -1159 109 -2171 792 -2692 1820 -534 1052 -483 2284 136 3289 132
215 259 376 448 571 375 386 812 663 1315 836 286 98 593 159 895 179 98 6
443 -3 545 -14z"/>
<path d="M3235 6573 c-731 -66 -1405 -381 -1920 -897 -537 -539 -846 -1231
-895 -2006 -37 -579 118 -1223 414 -1724 512 -863 1380 -1418 2375 -1516 133
-13 450 -13 582 0 505 51 992 223 1406 500 190 126 287 205 451 365 424 413
712 919 851 1495 99 412 106 897 21 1321 -94 467 -316 941 -616 1319 -94 118
-380 402 -494 490 -480 370 -1030 591 -1619 650 -95 9 -463 11 -556 3z m481
-143 c652 -52 1236 -298 1724 -726 675 -592 1046 -1481 989 -2374 -37 -592
-237 -1132 -597 -1610 -102 -135 -366 -405 -502 -512 -456 -360 -991 -575
-1564 -629 -178 -16 -533 -7 -696 20 -666 107 -1214 389 -1675 862 -759 779
-1025 1922 -685 2949 152 462 384 838 724 1175 325 322 702 556 1126 698 246
83 464 126 755 150 92 8 281 6 401 -3z"/>
<path d="M3272 5978 c-8 -8 -12 -60 -12 -168 0 -188 8 -210 90 -252 77 -40
159 -33 227 18 52 40 64 88 61 254 l-3 145 -29 10 c-24 8 -31 6 -47 -14 -17
-20 -19 -41 -19 -161 0 -138 0 -139 -26 -159 -50 -39 -135 -21 -154 32 -5 16
-10 85 -10 153 0 116 -1 124 -22 138 -27 19 -40 20 -56 4z"/>
<path d="M3872 5974 c-21 -15 -22 -20 -22 -213 0 -217 2 -225 57 -219 l28 3 3
139 3 139 100 -147 c55 -80 103 -146 107 -146 28 0 84 24 92 40 13 24 13 350
1 383 -11 28 -46 41 -72 26 -16 -8 -19 -26 -21 -140 l-3 -131 -85 123 c-47 68
-93 131 -102 141 -22 22 -56 23 -86 2z"/>
<path d="M2770 5961 c-6 -12 -10 -98 -10 -210 0 -204 4 -221 54 -221 37 0 46
19 46 102 l0 78 88 0 c96 0 112 7 112 52 0 38 -24 48 -119 48 l-81 0 0 40 0
40 99 0 c77 0 103 4 115 16 20 19 20 24 0 52 -14 21 -22 22 -154 22 -127 0
-140 -2 -150 -19z"/>
<path d="M2202 5130 c-221 -58 -405 -244 -457 -461 -19 -84 -19 -235 1 -313
27 -104 90 -213 172 -295 l73 -73 -25 -107 c-89 -373 -43 -757 130 -1091 206
-396 570 -691 994 -803 159 -43 235 -52 415 -51 190 0 321 20 487 75 548 179
960 656 1058 1225 38 217 24 518 -33 703 l-13 43 76 77 c123 123 181 267 181
445 0 117 -12 168 -67 283 -73 153 -213 273 -379 326 -93 29 -282 31 -365 4
-92 -31 -175 -76 -232 -127 l-54 -48 -43 19 c-82 36 -219 78 -327 99 -282 55
-582 29 -859 -75 l-96 -36 -62 51 c-161 132 -377 182 -575 130z m299 -156 c62
-19 133 -53 168 -81 l24 -20 -57 -39 -58 -40 -61 31 c-54 26 -72 30 -147 30
-72 0 -94 -4 -145 -28 -205 -96 -275 -331 -155 -520 l30 -48 -30 -60 c-18 -34
-35 -57 -41 -53 -6 3 -30 33 -54 65 -103 140 -123 293 -61 466 35 99 130 209
221 256 110 57 257 73 366 41z m2270 -4 c136 -42 253 -152 311 -291 32 -79 33
-258 0 -344 -21 -56 -114 -195 -131 -195 -4 0 -21 28 -38 63 l-31 63 20 24
c11 14 32 47 47 75 23 44 26 62 26 145 0 115 -19 163 -95 244 -106 112 -272
141 -412 70 l-50 -25 -60 39 -61 40 54 35 c50 32 117 60 164 70 59 13 197 6
256 -13z m-944 -64 c426 -108 760 -372 951 -752 216 -431 199 -955 -43 -1363
-218 -366 -556 -603 -980 -687 -124 -25 -395 -25 -518 -1 -571 114 -1006 537
-1139 1107 -28 122 -36 383 -15 515 51 319 181 573 410 801 180 177 349 280
582 353 166 52 237 61 455 57 170 -3 208 -7 297 -30z m-1399 -202 c21 -6 17
-13 -61 -93 -46 -47 -103 -112 -126 -143 -24 -32 -47 -58 -51 -58 -16 0 -32
72 -27 117 14 126 140 210 265 177z m2288 -13 c99 -45 144 -167 99 -273 -11
-26 -17 -23 -55 34 -19 29 -74 93 -122 144 -49 50 -88 94 -88 97 0 21 118 20
166 -2z"/>
<path d="M3121 4204 c-60 -50 -46 -140 26 -170 70 -30 133 12 133 88 0 50 -13
74 -50 93 -42 22 -74 19 -109 -11z"/>
<path d="M3763 4211 c-38 -24 -50 -59 -37 -109 19 -75 122 -105 170 -49 76 88
-35 219 -133 158z"/>
<path d="M3410 3868 c-95 -10 -183 -38 -285 -91 -117 -60 -244 -190 -307 -312
-65 -126 -89 -223 -89 -360 -1 -450 358 -794 806 -772 328 16 597 224 701 542
38 117 44 277 15 400 -92 385 -448 637 -841 593z m237 -163 c226 -53 412 -243
464 -473 14 -63 13 -206 -1 -267 -7 -27 -30 -88 -53 -135 -56 -120 -167 -230
-287 -288 -108 -52 -184 -66 -308 -59 -165 9 -294 69 -410 192 -113 119 -172
265 -172 425 0 283 193 532 470 604 72 19 219 20 297 1z"/>
<path d="M3413 3596 c-126 -41 -213 -159 -213 -289 0 -104 96 -327 209 -484
53 -74 57 -83 40 -88 -22 -7 -49 -54 -49 -85 0 -29 27 -77 49 -90 11 -5 36
-10 56 -10 86 0 129 110 65 170 l-30 28 34 43 c91 121 195 326 217 429 43 200
-81 376 -271 386 -38 2 -83 -2 -107 -10z m127 -146 c30 0 89 -58 101 -99 24
-79 -30 -167 -109 -178 -88 -12 -145 28 -162 113 -13 61 -4 98 30 129 23 21
91 46 108 40 8 -3 22 -5 32 -5z"/>
<path d="M1284 4946 c-36 -16 -53 -38 -119 -155 -386 -684 -438 -1558 -138
-2291 71 -173 196 -405 236 -438 27 -23 93 -27 122 -8 14 9 25 22 25 29 0 6
-21 43 -46 82 -55 86 -162 294 -203 397 -72 181 -127 385 -158 588 -25 161
-25 539 0 700 55 353 166 666 341 953 36 59 63 114 60 122 -5 13 -55 35 -78
35 -6 -1 -25 -7 -42 -14z"/>
<path d="M5628 4949 c-14 -6 -29 -17 -32 -25 -3 -8 17 -51 46 -97 178 -283
300 -620 355 -977 25 -162 25 -539 0 -700 -33 -207 -86 -407 -158 -588 -41
-103 -148 -311 -203 -397 -25 -39 -46 -76 -46 -82 0 -25 48 -46 93 -40 55 7
86 43 163 189 157 300 246 569 295 889 32 204 32 552 1 754 -41 264 -109 497
-215 730 -67 149 -156 303 -188 327 -31 23 -77 30 -111 17z"/>
<path d="M2578 1466 c-75 -20 -95 -48 -64 -91 13 -18 18 -18 85 -5 84 16 121
6 121 -34 0 -26 -21 -46 -128 -122 -34 -24 -71 -59 -82 -77 -26 -42 -26 -93
-1 -106 23 -13 270 -3 289 12 15 12 16 49 0 65 -7 7 -44 12 -96 12 l-84 0 73
53 c92 65 119 104 119 168 0 40 -6 55 -31 83 -46 54 -110 67 -201 42z"/>
<path d="M3032 1458 c-17 -17 -17 -409 0 -426 15 -15 169 -16 223 -1 25 7 58
29 86 58 38 37 49 57 60 104 26 121 -38 235 -152 267 -49 14 -202 13 -217 -2z
m197 -94 c67 -26 96 -99 67 -167 -20 -50 -68 -77 -133 -77 l-53 0 0 130 0 130
40 0 c22 0 57 -7 79 -16z"/>
<path d="M3726 1448 c-26 -41 -156 -359 -156 -381 0 -31 18 -47 53 -47 24 0
31 7 50 50 l22 50 82 0 82 0 20 -45 c21 -49 44 -64 70 -48 32 20 23 62 -50
236 -40 95 -79 180 -87 190 -22 25 -68 22 -86 -5z m72 -165 c5 -16 13 -36 17
-45 6 -15 1 -18 -34 -18 -23 0 -41 2 -41 5 0 14 33 85 40 85 4 0 13 -12 18
-27z"/>
<path d="M4140 1451 c-5 -11 -10 -24 -10 -30 0 -5 34 -55 75 -110 l75 -101 0
-85 c0 -82 1 -86 26 -97 46 -21 59 -2 62 92 l3 83 69 95 c70 94 84 134 58 160
-34 34 -72 3 -159 -127 l-15 -24 -57 81 c-50 71 -61 82 -87 82 -19 0 -33 -7
-40 -19z"/>
</g>
</svg>
