<svg width="80" height="80" viewBox="0 0 80 80" fill="none" xmlns="http://www.w3.org/2000/svg"><circle cx="40" cy="40" r="40" fill="#fff"/><path d="M67.871 37.862l-.032-.138c-.47-1.981-1.653-3.753-3.328-4.99a9.278 9.278 0 00-6.795-1.703c-1.008.145-2.032.28-3.061.402a16.253 16.253 0 001.64-7.137c0-4.315-1.669-8.382-4.7-11.45A16.212 16.212 0 0040.202 8h-.17l-.248.001a16.197 16.197 0 00-11.377 4.844 16.193 16.193 0 00-4.704 11.451c0 2.492.564 4.927 1.642 7.137-1.03-.122-2.055-.257-3.064-.402a9.277 9.277 0 00-6.771 1.688c-1.667 1.224-2.852 2.98-3.333 4.935l-.014.054a.842.842 0 00-.008.035l-.03.141a7.912 7.912 0 00-.157 2.545l.003.04.005.037.007.056c.03.261.073.516.125.752.742 3.466 3.613 6.154 7.313 6.847 1.554.294 3.16.56 4.772.791a20.444 20.444 0 01-2.106 8.844l-.629 1.272a8.898 8.898 0 00-.456 6.841 8.892 8.892 0 004.514 5.16 8.87 8.87 0 003.967.931 8.908 8.908 0 008.034-4.99L40 61.993l2.482 5.018A8.913 8.913 0 0050.517 72a8.877 8.877 0 003.967-.931A8.9 8.9 0 0059 65.909a8.929 8.929 0 00-.245-6.38.938.938 0 00-1.724.737 7.056 7.056 0 01.193 5.042 7.038 7.038 0 01-3.57 4.08 7.019 7.019 0 01-3.135.737 7.049 7.049 0 01-6.355-3.946l-2.811-5.683a1.48 1.48 0 00-1.352-.84c-.584 0-1.088.313-1.352.84l-2.811 5.684a7.045 7.045 0 01-6.354 3.945 7.009 7.009 0 01-3.136-.737 7.03 7.03 0 01-3.57-4.08 7.036 7.036 0 01.362-5.409l.629-1.272a22.325 22.325 0 002.3-9.842c0-.818-.63-1.549-1.438-1.664-1.643-.234-3.28-.503-4.863-.802-2.955-.555-5.242-2.673-5.827-5.405a5.521 5.521 0 01-.095-.573l-.002-.02-.01-.074a6.068 6.068 0 01.122-1.957l.04-.178a6.88 6.88 0 012.625-3.882 7.389 7.389 0 015.394-1.343c1.622.233 3.286.44 4.945.613a.938.938 0 00.887-1.438 14.36 14.36 0 01-2.267-7.766 14.33 14.33 0 014.162-10.133A14.328 14.328 0 0139.8 9.876h.379c3.82.05 7.4 1.573 10.08 4.287a14.334 14.334 0 014.161 10.133c0 2.769-.783 5.454-2.266 7.765a.937.937 0 00.886 1.439 128.48 128.48 0 004.942-.613 7.391 7.391 0 015.414 1.356c1.32.974 2.25 2.364 2.618 3.912l.03.129c.145.634.187 1.281.127 1.913l-.015.135a6.029 6.029 0 01-.096.587c-.583 2.726-2.871 4.846-5.831 5.401-1.61.302-3.244.572-4.86.8a1.708 1.708 0 00-1.437 1.665c0 2.72.523 5.503 1.512 8.05a.937.937 0 101.748-.68 20.575 20.575 0 01-1.385-7.203c1.586-.227 3.19-.493 4.768-.79 3.705-.694 6.577-3.383 7.319-6.851.055-.262.098-.521.126-.774l.016-.15a7.943 7.943 0 00-.166-2.525z" fill="#FFE000"/><path d="M25.684 61.158a4.22 4.22 0 00-.216 3.24 4.213 4.213 0 002.137 2.444 4.19 4.19 0 001.878.442 4.22 4.22 0 003.808-2.364l2.811-5.684A4.321 4.321 0 0140 56.816c1.665 0 3.159.928 3.898 2.42l2.81 5.684a4.22 4.22 0 003.809 2.364c.654 0 1.285-.149 1.877-.441a4.212 4.212 0 002.137-2.444 4.214 4.214 0 00-.215-3.241l-.629-1.272a25.161 25.161 0 01-2.595-11.101 4.54 4.54 0 013.88-4.477 107.64 107.64 0 004.735-.78c2.079-.39 3.294-1.893 3.576-3.209a3.161 3.161 0 00.051-.31l.007-.066c.034-.343.011-.69-.066-1.026l-.023-.1c-.437-1.834-2.212-3.165-4.221-3.165-.214 0-.43.016-.643.046-2.006.289-4.036.532-6.037.725a3.322 3.322 0 01-3.297-1.82 3.302 3.302 0 01.286-3.46 11.478 11.478 0 002.24-6.847c0-3.067-1.186-5.957-3.341-8.137a11.503 11.503 0 00-8.082-3.443l-.121-.001-.191.001c-2.36.03-4.619.764-6.532 2.122a.937.937 0 101.085 1.529 9.613 9.613 0 015.466-1.776l.172-.001h.094a9.642 9.642 0 016.775 2.886 9.644 9.644 0 012.8 6.82 9.616 9.616 0 01-1.876 5.737 5.168 5.168 0 00-.447 5.418 5.188 5.188 0 005.152 2.838 132.13 132.13 0 006.12-.735c.125-.018.252-.027.377-.027 1.151 0 2.16.726 2.395 1.714l.021.092c.033.142.042.286.029.422l-.006.053a1.328 1.328 0 01-.02.117c-.152.71-.856 1.529-2.089 1.76-1.53.288-3.096.546-4.652.767-3.13.443-5.492 3.166-5.492 6.333 0 4.119.965 8.246 2.79 11.933l.628 1.271c.28.567.323 1.21.12 1.81a2.35 2.35 0 01-1.192 1.363 2.34 2.34 0 01-1.046.247c-.91 0-1.725-.506-2.127-1.32l-2.812-5.684A6.189 6.189 0 0040 54.941a6.185 6.185 0 00-5.577 3.465L31.61 64.09a2.356 2.356 0 01-2.127 1.319c-.364 0-.715-.083-1.046-.247a2.35 2.35 0 01-1.193-1.363c-.203-.6-.16-1.243.12-1.81l.63-1.271a27.063 27.063 0 002.79-11.933c0-3.167-2.362-5.89-5.494-6.333-1.535-.217-3.1-.475-4.65-.767-1.233-.23-1.938-1.047-2.089-1.753l-.004-.016-.001-.007a1.677 1.677 0 01-.02-.122l-.002-.022a1.374 1.374 0 01.031-.441l.021-.096c.249-.986 1.252-1.7 2.39-1.7.127 0 .255.009.38.026 2.03.293 4.09.54 6.124.736a5.187 5.187 0 005.147-2.84 5.171 5.171 0 00-.447-5.418 9.622 9.622 0 01-1.876-5.736c0-1.983.59-3.886 1.708-5.503a.938.938 0 00-1.543-1.066 11.504 11.504 0 00-2.04 6.569c0 2.485.775 4.852 2.24 6.846a3.305 3.305 0 01.286 3.462 3.32 3.32 0 01-3.3 1.819c-2-.193-4.03-.437-6.035-.725a4.627 4.627 0 00-.643-.046c-1.994 0-3.766 1.32-4.214 3.139a.698.698 0 00-.006.024l-.021.099a3.226 3.226 0 00-.065 1.063l.005.037c.014.112.03.209.048.296l.004.015.002.009c.285 1.312 1.5 2.805 3.575 3.193 1.576.298 3.17.56 4.733.781a4.54 4.54 0 013.88 4.477c0 3.83-.897 7.669-2.595 11.102l-.629 1.27z" fill="#FFE000"/><path d="M40 36.002A4.003 4.003 0 0036.002 40 4.003 4.003 0 0040 44a4.003 4.003 0 004-4 4.003 4.003 0 00-4-3.998zm0 6.122A2.126 2.126 0 0137.877 40c0-1.17.952-2.123 2.123-2.123 1.171 0 2.124.952 2.124 2.123A2.126 2.126 0 0140 42.124zm2.124-16.8A2.126 2.126 0 0140 27.448a2.126 2.126 0 01-2.123-2.124.938.938 0 00-1.876 0 4.003 4.003 0 004 3.999 4.003 4.003 0 003.998-3.999.938.938 0 00-1.875 0zM40 45.002A4.003 4.003 0 0036.002 49 4.003 4.003 0 0040 53a4.003 4.003 0 004-4 4.003 4.003 0 00-4-3.998zm0 6.122A2.126 2.126 0 0137.877 49c0-1.17.952-2.123 2.123-2.123 1.171 0 2.124.952 2.124 2.123A2.126 2.126 0 0140 51.124zm4.543-27.897c.518 0 .937-.42.937-.938v-1.306a.938.938 0 00-1.875 0v1.306c0 .518.42.938.938.938zm-9.086-3.182a.938.938 0 00-.937.938v1.306a.938.938 0 001.875 0v-1.306a.938.938 0 00-.938-.938z" fill="#FFE000"/></svg>