<svg width="1920" height="925" viewBox="0 0 1920 925" fill="none" xmlns="http://www.w3.org/2000/svg">
<path d="M1920 0H0V924H1920V0Z" fill="url(#paint0_linear)"/>
<path d="M0 466.37C0 466.37 230.752 423.609 607.321 537.853C1069.92 678.211 1399.35 367.196 1919.71 474.935V864.292H0V466.37Z" fill="#E4E6F8"/>
<path d="M0 781.926C0 781.926 219.998 710.314 855.812 710.314C1491.63 710.314 1919.71 796.062 1919.71 796.062V924.129H0V781.926Z" fill="white"/>
<path d="M1355 134.65H1498.43C1498.43 134.65 1493.7 119.742 1465.95 122.801C1447.69 93.3703 1420.62 116.908 1420.62 122.382C1402.36 85.9322 1355 111.016 1355 134.65Z" fill="white"/>
<path d="M370 155.016H612.664C612.664 155.016 604.164 131.478 567.589 138.916C542.122 86.7209 483.879 71.1041 449.911 117.729C389.414 109.615 370 155.016 370 155.016Z" fill="white"/>
<path d="M217.937 290.401C183.874 206.811 74.0517 234.663 64.7148 296.583C39.9235 283.156 18.1266 282.512 0 287.567V330.65H299.974C299.974 330.65 278.306 284.186 217.937 290.401Z" fill="white"/>
<path d="M1891.73 210.94C1863.21 140.906 1771.16 164.218 1763.4 216.124C1701.16 182.411 1660.98 244.717 1660.98 244.717H1920V212.872C1910.77 210.509 1901.19 209.854 1891.73 210.94Z" fill="white"/>
<path d="M925 620.262C913.262 616.918 904.906 620.456 899 628.089L919.976 649L925 620.262Z" fill="#4C60A5"/>
<path d="M898 794L913.974 789.113C913.974 789.113 923.256 767.66 932 740L906.769 743.225L898 794Z" fill="#4C60A5"/>
<path d="M889 736V797L895.097 795.104L904 743.437L889 736Z" fill="#4C60A5"/>
<path d="M914.511 684L920 652.091L898.116 630C893.365 638.149 890.267 647.158 889 656.509V664.756L914.511 684Z" fill="#4C60A5"/>
<path d="M907 741L932.656 737.669C935.275 729.169 937.797 720.147 940 711L911.431 714.977L907 741Z" fill="#4C60A5"/>
<path d="M914 686.411L889 668V700.766L909.475 712L914 686.411Z" fill="#4C60A5"/>
<path d="M944 641.155C941.289 631.545 936.152 624.376 927.757 621L923 650L944 641.155Z" fill="#4C60A5"/>
<path d="M917 684L945.983 677.85C947.61 666.261 947.283 654.478 945.017 643L922.434 652.274L917 684Z" fill="#4C60A5"/>
<path d="M866.498 769L887 751.269V715L859 738.674L866.498 769Z" fill="#4C60A5"/>
<path d="M912 713L940.717 709.097C942.994 699.834 944.758 690.454 946 681L916.501 687.061L912 713Z" fill="#4C60A5"/>
<path d="M909 715.262L889 704V733.296L904.556 741L909 715.262Z" fill="#4C60A5"/>
<path d="M849.281 709.486L792 706C794.394 717.16 797.423 728.177 801.073 739L856 736.797L849.281 709.486Z" fill="#4C60A5"/>
<path d="M840.701 672.338L787 665C787.778 677.93 789.475 690.789 792.077 703.478L849 707L840.701 672.338Z" fill="#4C60A5"/>
<path d="M819.101 583C803.903 586.711 794.496 600.847 790 620.72L831 632L819.101 583Z" fill="#4C60A5"/>
<path d="M842.263 669L880 628.756C877.032 619.537 872.68 610.847 867.101 603L834 634.143L842.263 669Z" fill="#4C60A5"/>
<path d="M856.565 739L802 741.258C805.514 751.755 809.663 762.022 814.424 772L864 770.065L856.565 739Z" fill="#4C60A5"/>
<path d="M816 773.907C822.542 787.653 830.838 800.461 840.675 812L872 802.241L864.692 772L816 773.907Z" fill="#4C60A5"/>
<path d="M858.67 736L887 711.757V679L852 708.748L858.67 736Z" fill="#4C60A5"/>
<path d="M851.427 706L887 675.603V651.633C885.708 644.651 883.968 637.759 881.792 631L843 671.334L851.427 706Z" fill="#4C60A5"/>
<path d="M867 771.113L874.462 801L887 797.27V754L867 771.113Z" fill="#4C60A5"/>
<path d="M866 601.219C857.892 590.942 846.028 584.207 832.951 582.457C828.991 581.848 824.96 581.848 821 582.457L832.975 631L866 601.219Z" fill="#4C60A5"/>
<path d="M831.381 634.682L788.755 623C786.332 636.101 785.503 649.446 786.285 662.745L840 670L831.381 634.682Z" fill="#4C60A5"/>
<path d="M866.332 771.79L865 771.84L871.796 802L874 801.284L867.181 771L866.332 771.79Z" fill="#637ABE"/>
<path d="M831.998 632L833 631.086L821.385 583C820.598 583.12 819.811 583.289 819 583.481L830.615 631.736L831.998 632Z" fill="#637ABE"/>
<path d="M866 768.879L859.159 738L858.318 738.772L857 738.822L863.909 770L864.886 769.95L866 768.879Z" fill="#637ABE"/>
<path d="M858 735.959L852.077 709L851.246 709.799L850 709.702L855.989 737L856.929 736.952L858 735.959Z" fill="#637ABE"/>
<path d="M842 668.82L833.439 634L832.369 634.934L831 634.565L839.685 669.828L840.855 670L842 668.82Z" fill="#637ABE"/>
<path d="M851 706.033L842.405 671L841.478 671.967L840 671.769L848.645 706.95L849.822 707L851 706.033Z" fill="#637ABE"/>
<path d="M913.592 686L909 712.357L910.167 713L911.433 712.852L916 686.495L914.635 686.791L913.592 686Z" fill="#637ABE"/>
<path d="M908.9 715L905 740.442L906.007 741L907.121 740.83L911 715.437L909.886 715.606L908.9 715Z" fill="#637ABE"/>
<path d="M921.235 650L922.631 649.488L928 620.781C927.195 620.488 926.362 620.244 925.503 620L920 648.927L921.235 650Z" fill="#637ABE"/>
<path d="M905.687 743.563L904.476 743L895 795L897.755 794.217L907 743.416L905.687 743.563Z" fill="#637ABE"/>
<path d="M919.565 652L914 684.132L915.168 685L916.41 684.752L922 652.471L920.584 653.041L919.565 652Z" fill="#637ABE"/>
<path d="M830.343 632.249L789.511 621C789.316 621.803 789.17 622.583 789 623.435L831 635L830.343 632.249Z" fill="#637ABE"/>
<path d="M833.653 634L867 602.938C866.516 602.276 866.008 601.638 865.5 601L833 631.277L833.653 634Z" fill="#637ABE"/>
<path d="M834 633.987L833.352 631L832.344 632.04L831 631.64L831.648 634.6L832.968 635L834 633.987Z" fill="#637ABE"/>
<path d="M840.266 669.35L787 662L787.147 664.5L841 672L840.266 669.35Z" fill="#637ABE"/>
<path d="M842.727 671L881 631.567C880.733 630.703 880.443 629.84 880.127 629L842 668.242L842.727 671Z" fill="#637ABE"/>
<path d="M843 671.24L842.306 669L841.165 669.935L840 669.799L840.62 671.844L842.083 672L843 671.24Z" fill="#637ABE"/>
<path d="M851.646 709L887 679.231V676L851 706.332L851.646 709Z" fill="#637ABE"/>
<path d="M848.491 706.527L792 703L792.509 705.449L849 709L848.491 706.527Z" fill="#637ABE"/>
<path d="M852 708.303L851.35 706L850.175 706.824L849 706.782L849.625 708.915L851.05 709L852 708.303Z" fill="#637ABE"/>
<path d="M887.56 734.988L888.44 732.788L889 733.13V704.033L887.52 703.03L888.48 700.879L889 701.245V667.771L887.4 666.304L888.6 664.348L889 664.715V656.499C888.76 658.211 888.54 659.996 888.34 661.781C887.94 658.504 887.5 655.228 887 652V675.889L887.36 675.522L888.66 677.381L887 679.117V711.857L887.34 711.491L888.66 713.349L887 715.085V751.347L887.34 750.98L888.66 752.814L887 754.599V798L889 797.266V735.82L887.56 734.988Z" fill="#637ABE"/>
<path d="M889 677.068L887.41 675L887 675.408V679L889 677.068Z" fill="#637ABE"/>
<path d="M922.493 649.331L922 652L945 643.301C944.778 642.542 944.581 641.805 944.335 641L922.493 649.331Z" fill="#637ABE"/>
<path d="M920 649.07L899.396 628C898.915 628.659 898.457 629.318 898 630.026L919.494 652L920 649.07Z" fill="#637ABE"/>
<path d="M920.534 649L920 651.969L921.042 653L922.492 652.436L923 649.589L921.678 650.104L920.534 649Z" fill="#637ABE"/>
<path d="M916 687L945.704 680.542L946 678L916.443 684.407L916 687Z" fill="#637ABE"/>
<path d="M914 683.387L889 665V667.943L913.544 686L914 683.387Z" fill="#637ABE"/>
<path d="M914.491 684L914 686.329L915.086 687L916.509 686.748L917 684.524L915.707 684.734L914.491 684Z" fill="#637ABE"/>
<path d="M888.5 664L887 666.286L889 668V664.429L888.5 664Z" fill="#637ABE"/>
<path d="M909 712.435L889 701V703.785L908.57 715L909 712.435Z" fill="#637ABE"/>
<path d="M911 715L939.392 711.308C939.611 710.523 939.805 709.715 940 709L911.438 712.715L911 715Z" fill="#637ABE"/>
<path d="M909.465 712L909 715.231L910.19 716L911.535 715.785L912 712.615L910.681 712.8L909.465 712Z" fill="#637ABE"/>
<path d="M888.297 701L887 703.046L889 704V701.349L888.297 701Z" fill="#637ABE"/>
<path d="M907 743L932.195 740.215L933 738L907.439 740.827L907 743Z" fill="#637ABE"/>
<path d="M889 733V735.662L904.573 743L905 740.53L889 733Z" fill="#637ABE"/>
<path d="M904.44 741L904 743.452L905.216 744L906.535 743.857L907 741.381L905.655 741.548L904.44 741Z" fill="#637ABE"/>
<path d="M888.222 733L887 735.16L889 736V733.336L888.222 733Z" fill="#637ABE"/>
<path d="M856.417 737L802 739.382L802.802 742L857 739.618L856.417 737Z" fill="#637ABE"/>
<path d="M858.68 738L887 715.12V712L858 735.424L858.68 738Z" fill="#637ABE"/>
<path d="M859 738.303L858.319 736L857.084 736.866L856 736.908L856.605 739L858.067 738.958L859 738.303Z" fill="#637ABE"/>
<path d="M889 713.068L887.41 711L887 711.408V715L889 713.068Z" fill="#637ABE"/>
<path d="M866.689 771L887 754.186V751L866 768.365L866.689 771Z" fill="#637ABE"/>
<path d="M864.487 770L815 771.753L816.172 774L865 772.27L864.487 770Z" fill="#637ABE"/>
<path d="M865.084 769.896L864 769.938L864.605 772L866.067 771.958L867 771.292L866.319 769L865.084 769.896Z" fill="#637ABE"/>
<path d="M889 752.52L887.41 751L887 751.304V754L889 752.52Z" fill="#637ABE"/>
<path d="M1053 859C1053 859 1035.89 742.942 931.596 725.087C827.297 707.232 840.005 560.27 697.633 566.173C555.261 572.076 584.61 708.72 527.965 739.357C471.319 769.993 445 858.878 445 858.878L1053 859Z" fill="#82A7F7"/>
<path d="M1035 859C1035 859 1035 764.653 1146.59 731.419C1258.19 698.185 1231.63 525.143 1371.15 551.774C1510.67 578.406 1442.89 755.434 1497.37 794.048C1551.85 832.662 1539.89 859 1539.89 859H1035Z" fill="#82A7F7"/>
<path d="M487.792 859H492L415.796 585C392.008 594.59 487.792 859 487.792 859Z" fill="#A0ABE9"/>
<path d="M515.91 860L589 651.184C570.054 650.254 545.552 731.883 534.146 774.238C530.303 789.522 527.781 799.011 527.781 799.011C527.781 799.011 530.229 789.033 534.146 774.238C549.493 713.102 585.72 558.648 564.057 544L507 859.829L515.91 860Z" fill="#A0ABE9"/>
<path d="M498 860L491.472 487C464.994 504.849 488.135 810.853 488.135 810.853C488.135 810.853 443.129 590.99 418 585.122L494.933 859.951L498 860Z" fill="#A0ABE9"/>
<path d="M534 774C530.238 788.931 528 799 528 799C528 799 530.377 789.424 534 774Z" fill="#A0ABE9"/>
<path d="M504.605 860L562 543.296C531.977 538.087 504.531 810.75 504.531 810.75C504.531 810.75 524.416 486 494 486L500.53 859.927L504.605 860Z" fill="#A0ABE9"/>
<path d="M527.021 860C527.021 860 616.819 666.057 591.501 652.244L590.969 652L519 859.854L527.021 860Z" fill="#A0ABE9"/>
<path d="M495 859L418.584 585.189C417.791 584.937 416.939 584.937 416.146 585.189H416L492.367 858.781L495 859Z" fill="#697DD1"/>
<path d="M500 860L494.186 486C493.4 486.029 492.639 486.319 492 486.832L497.814 859.951L500 860Z" fill="#697DD1"/>
<path d="M507.45 860L564 543.93C563.598 543.654 563.167 543.424 562.714 543.245C562.391 543.131 562.058 543.05 561.72 543L505 859.951L507.45 860Z" fill="#697DD1"/>
<path d="M518.6 860L591 651.563C590.234 651.218 589.408 651.026 588.57 651L516 859.976L518.6 860Z" fill="#697DD1"/>
<path d="M1480.51 860L1538 543.296C1507.98 538.087 1480.53 810.75 1480.53 810.75C1480.53 810.75 1500.42 486 1470 486L1476.53 859.927L1480.51 860Z" fill="#A0ABE9"/>
<path d="M1491.91 860L1565 651.184C1546.05 650.254 1521.55 731.883 1510.15 774.238C1506.3 789.522 1503.78 799.011 1503.78 799.011C1503.78 799.011 1506.23 789.033 1510.15 774.238C1525.49 713.102 1561.74 558.648 1540.06 544L1483 859.829L1491.91 860Z" fill="#A0ABE9"/>
<path d="M1510 774C1506.24 788.931 1504 799 1504 799C1504 799 1506.38 789.424 1510 774Z" fill="#A0ABE9"/>
<path d="M1503.02 860C1503.02 860 1592.82 666.057 1567.5 652.244L1566.97 652L1495 859.854L1503.02 860Z" fill="#A0ABE9"/>
<path d="M1464.74 859H1469L1391.84 585C1367.76 594.59 1464.74 859 1464.74 859Z" fill="#A0ABE9"/>
<path d="M1474 860L1467.55 487C1441.41 504.849 1464.26 810.853 1464.26 810.853C1464.26 810.853 1419.81 590.99 1395 585.122L1470.97 859.951L1474 860Z" fill="#A0ABE9"/>
<path d="M1471 859L1394.58 585.189C1393.79 584.937 1392.94 584.937 1392.15 585.189H1392L1468.46 858.951L1471 859Z" fill="#697DD1"/>
<path d="M1477 860L1470.46 486C1469.57 486.029 1468.72 486.319 1468 486.832L1474.54 859.951L1477 860Z" fill="#697DD1"/>
<path d="M1483.45 860L1540 543.93C1539.6 543.654 1539.17 543.424 1538.71 543.245C1538.39 543.131 1538.06 543.05 1537.72 543L1481 859.951L1483.45 860Z" fill="#697DD1"/>
<path d="M1494.6 860L1567 651.563C1566.23 651.218 1565.41 651.026 1564.57 651L1492 859.976L1494.6 860Z" fill="#697DD1"/>
<path d="M578 609L637.607 857H642.369L656.95 784.267C657.616 754.808 652.682 669.745 578 609Z" fill="#617FC8"/>
<path d="M576.95 858L603 857.781L495 736C522 832.182 576.95 858 576.95 858Z" fill="#617FC8"/>
<path d="M496 733L607.099 858H614L579.74 787.834C566.771 768.034 539.436 736.149 496 733Z" fill="#617FC8"/>
<path d="M579.678 782.611L616.33 857L635 856.854L576.042 611C548.798 678.549 567.469 749.116 579.678 782.611Z" fill="#617FC8"/>
<path d="M685.323 856.781C685.323 856.781 768.536 824.645 770 698L660 857L685.323 856.781Z" fill="#617FC8"/>
<path d="M658.087 786.353L644 857H656.498L769 695C689.466 728.033 665.131 768.984 658.087 786.353Z" fill="#617FC8"/>
<path d="M494 732L494.884 735.145L603.734 858H607L495.498 732.197L494 732Z" fill="#7AA2F7"/>
<path d="M577.074 608C576.708 608.878 576.342 609.78 576 610.659L634.56 857H637L578.172 608.805L577.074 608Z" fill="#7AA2F7"/>
<path d="M769.244 694.391L657 857H659.977L770 697.423C770 696.274 770 695.149 770 694L769.244 694.391Z" fill="#7AA2F7"/>
<path d="M587 801L588 803C588 803 587.667 802.268 587 801Z" fill="#637ABE"/>
<path d="M586.964 801.357C587.503 802.462 587.772 803.1 587.772 803.1L586.964 801.357C584.588 796.572 581.929 791.934 579 787.467L613.305 858H616L579.441 783C582.823 792.08 585.64 798.486 586.964 801.357Z" fill="#637ABE"/>
<path d="M655.515 794.512C655.515 794.512 655.965 790.674 656.13 784L642 857H644.367L658 786.102C656.923 788.821 656.091 791.636 655.515 794.512Z" fill="#637ABE"/>
<path d="M1371.89 803.954L1384.84 861H1391.28L1429 605C1362.76 671.521 1365.98 762.546 1371.89 803.954Z" fill="#4C60A5"/>
<path d="M1283 687L1378.99 861H1382L1367.76 798.134C1356.51 765.509 1331.63 712.862 1283 687Z" fill="#4C60A5"/>
<path d="M1361.65 861H1376L1281 688C1281.99 821.962 1361.65 861 1361.65 861Z" fill="#4C60A5"/>
<path d="M1437.81 861C1437.81 861 1503.84 830.272 1534 728L1427 861H1437.81Z" fill="#4C60A5"/>
<path d="M1439.01 807.546L1419 861H1423.57L1533 725C1481.01 741.217 1452.37 781.941 1439.01 807.546Z" fill="#4C60A5"/>
<path d="M1431.33 607L1394 861H1416.85L1436.87 807.228C1447.93 767.779 1464.66 682.232 1431.33 607Z" fill="#4C60A5"/>
<path d="M1280 685C1280 685.832 1280 686.639 1280 687.446L1376.18 861H1379L1282.06 686.076L1280 685Z" fill="#637ABE"/>
<path d="M1429.45 604L1428.94 604.537L1391 861H1393.45L1431 607.416C1430.51 606.196 1429.99 605.147 1429.45 604Z" fill="#637ABE"/>
<path d="M1533.29 725.462L1424 861H1427.12L1533.88 728.743C1534.24 727.503 1534.63 726.312 1535 725C1534.44 725.073 1533.9 725.292 1533.29 725.462Z" fill="#637ABE"/>
<path d="M1374.73 820.113C1375.7 823.966 1376.12 826.135 1376.12 826.135C1376.12 826.135 1375.55 824.014 1374.73 820.113C1373.47 815.237 1371.32 807.411 1368 798L1382.53 861H1385L1372.03 803.9C1372.87 810.776 1373.91 816.31 1374.73 820.113Z" fill="#637ABE"/>
<path d="M1375 820C1375.59 823.887 1376 826 1376 826C1376 826 1375.7 823.838 1375 820Z" fill="#637ABE"/>
<path d="M1430.75 825.659C1429.76 828.429 1429.16 829.899 1429.16 829.899C1429.16 829.899 1429.69 828.333 1430.75 825.659C1432.07 821.949 1434.11 815.902 1436.37 808L1416 861H1418.66L1439 808.193C1435.91 813.857 1433.16 819.688 1430.75 825.659Z" fill="#637ABE"/>
<path d="M1431 825C1429.66 828.153 1429 830 1429 830C1429 830 1429.75 828.267 1431 825Z" fill="#637ABE"/>
<path d="M999.5 789C586.755 789 413 857.325 413 857.325C413 857.325 586.755 886 999.5 886C1412.24 886 1586 857.325 1586 857.325C1586 857.325 1412.27 789 999.5 789Z" fill="#D5E5FC"/>
<path d="M1220.22 624L1206 847H1220.37L1257.78 660.231L1279.76 847H1293.22L1294 624H1220.22Z" fill="#FB6F6E"/>
<path d="M1137.43 558.019L1137.24 559.628L1127.75 638H1311L1293.4 560.603L1264.34 465.631L1196.91 477.77L1195.52 478.038L1194.13 477.746L1105 459L1136.95 556.508L1137.43 558.019Z" fill="#E0EEFB"/>
<path d="M1320 646L1300.32 559.033L1269.28 457.089L1195.49 470.448L1094 449L1129.85 559.033L1119.37 646H1320ZM1193.9 477.581L1195.29 477.875L1196.68 477.605L1264.15 465.349L1293.24 560.945L1310.84 638.769H1127.55L1137.05 559.964L1137.25 558.346L1136.76 556.827L1104.79 458.78L1193.9 477.581Z" fill="white"/>
<path d="M1257.5 522C1254.45 522 1251.52 520.775 1249.37 518.595C1247.21 516.415 1246 513.458 1246 510.375V491H1269V510.375C1269 513.458 1267.79 516.415 1265.63 518.595C1263.48 520.775 1260.55 522 1257.5 522Z" fill="#F3A9B8"/>
<g style="mix-blend-mode:multiply" opacity="0.7">
<path d="M1297.3 549L1209.52 554.235L1129.5 558.806L1119 646H1320L1297.3 549Z" fill="#E0EEFB"/>
</g>
<path d="M1189.49 492C1187.41 492 1185.15 493.687 1183 496H1196C1193.85 493.687 1191.59 492 1189.49 492Z" fill="white"/>
<path d="M1205 512C1202.59 506.344 1199.59 500.979 1196.06 496H1182.94C1179.4 500.956 1176.4 506.306 1174 511.95L1205 512Z" fill="#A0ABE9"/>
<path d="M1172.49 498C1171.57 498.248 1170.69 498.73 1169.92 499.418C1169.15 500.105 1168.5 500.984 1168 502H1177C1176.5 500.98 1175.84 500.1 1175.07 499.412C1174.29 498.724 1173.41 498.244 1172.49 498Z" fill="white"/>
<path d="M1183 512C1181.37 508.463 1179.34 505.11 1176.95 502H1168.05C1165.66 505.11 1163.63 508.463 1162 512H1183Z" fill="#A0ABE9"/>
<path d="M1205.5 498C1204.05 498 1202.5 499.687 1201 502H1210C1209.5 500.985 1208.84 500.108 1208.07 499.421C1207.3 498.734 1206.42 498.251 1205.5 498Z" fill="white"/>
<path d="M1216 512C1214.37 508.463 1212.35 505.11 1209.96 502H1201.04C1198.65 505.11 1196.63 508.463 1195 512H1216Z" fill="#A0ABE9"/>
<path d="M1208.68 523.165C1202.4 526.466 1197.34 531.658 1194.21 537.998C1156.43 514.658 1125.32 519.287 1124 519.529L1125.39 523.819C1125.71 523.819 1155.95 518.463 1192.62 541.27C1191.57 543.631 1190.68 546.06 1189.97 548.541C1180.8 579.686 1134.31 583.757 1133.92 583.806L1133.38 587.417C1135.04 587.296 1167.04 584.533 1184.36 565.604C1190.55 570.33 1215.87 593.089 1200.15 638H1204.03C1220.18 591.95 1193.74 568.173 1186.68 562.865C1189.72 558.881 1191.98 554.357 1193.33 549.535C1196.72 538.022 1202.25 530.46 1210.24 526.364C1221.55 520.571 1237.92 521.735 1261.81 530.048L1263 526.631C1238.24 518.002 1220.94 516.887 1208.68 523.165Z" fill="#FB6F6E"/>
<path d="M1130.57 609.087C1130.57 609.087 1145.51 594.427 1161.51 604.584C1177.5 614.74 1181.46 607.65 1188.58 614.62C1198.14 623.963 1189.21 638 1189.21 638H1127L1130.57 609.087Z" fill="#82A7F7"/>
<g style="mix-blend-mode:multiply" opacity="0.5">
<path d="M1195.09 470.448L1210.27 560.209L1220 646H1119.28L1129.71 559.033L1094 449L1195.09 470.448Z" fill="#E0EEFB"/>
</g>
<path d="M1266 535.22L1288.39 582.427C1289.14 584.004 1290.22 585.387 1291.56 586.473C1292.9 587.559 1294.46 588.319 1296.13 588.697C1297.88 589.115 1299.7 589.1 1301.44 588.654C1303.18 588.207 1304.79 587.341 1306.14 586.128C1307.49 584.914 1308.54 583.388 1309.2 581.676C1309.86 579.964 1310.12 578.114 1309.95 576.28C1307.34 552.357 1286.98 520 1286.98 520L1266 535.22Z" fill="#F3A9B8"/>
<path d="M1219 622C1218.81 621.664 1218.48 621.33 1218 621" stroke="#2E3154" stroke-width="0.5" stroke-miterlimit="10"/>
<path d="M1218 619C1216.02 611.972 1208.79 596.882 1183.47 594.695C1161.99 592.828 1151.43 576.755 1168.45 551.615C1184.84 527.433 1190.74 532.152 1191.18 512" stroke="#2E3154" stroke-width="0.5" stroke-miterlimit="10" stroke-dasharray="1 1"/>
<path d="M1191 511C1191 510.68 1191 510.34 1191 510" stroke="#2E3154" stroke-width="0.5" stroke-miterlimit="10"/>
<path d="M1186 513.5C1186 514.588 1186.29 515.651 1186.84 516.556C1187.39 517.46 1188.17 518.165 1189.09 518.581C1190 518.998 1191.01 519.107 1191.98 518.894C1192.95 518.682 1193.84 518.158 1194.54 517.389C1195.23 516.62 1195.71 515.64 1195.9 514.573C1196.1 513.506 1196 512.4 1195.62 511.395C1195.24 510.39 1194.6 509.531 1193.78 508.927C1192.96 508.323 1191.99 508 1191 508C1189.67 508 1188.4 508.579 1187.46 509.611C1186.53 510.642 1186 512.041 1186 513.5Z" fill="#FB6F6E"/>
<path d="M1248.91 446.708C1248.91 446.708 1232 449.925 1232 477.275C1232 504.624 1246.81 503.82 1257.34 496.995C1267.88 490.169 1272.81 473.253 1265.58 457.555C1258.36 441.857 1248.91 446.708 1248.91 446.708Z" fill="#F3A9B8"/>
<path d="M1255.87 506.018C1255.87 506.018 1230.12 504.335 1225.52 533.099C1221.78 556.568 1229.73 565.961 1229.07 585.795C1228.75 595.261 1220 612.631 1220 624H1293.92C1293.92 624 1291.84 612.143 1285.83 585.795C1284.27 578.94 1287.84 570.767 1290.6 561.667C1303.67 518.29 1276.28 506.018 1255.87 506.018Z" fill="#A0ABE9"/>
<path d="M1247.66 473.427C1247.66 473.427 1230.06 475.015 1228.1 454.614C1226.14 434.214 1253.26 427.935 1269.99 444.39C1274.63 428.873 1298.35 433.035 1293.98 454.23C1303.76 468.207 1293.32 472.008 1287.81 472.008C1287.81 493.948 1273.46 501.887 1261.16 498.086C1248.86 494.285 1247.66 473.427 1247.66 473.427Z" fill="#FB6F6E"/>
<path d="M1226.62 526.923L1200.92 570.305L1144.52 562.105L1143 570.428C1143 570.428 1175.52 591.051 1206.76 587.614C1224.51 585.674 1240.75 554.077 1247.93 537.947C1249.09 535.38 1249.31 532.487 1248.56 529.772C1247.81 527.058 1246.13 524.694 1243.81 523.093C1242.45 522.165 1240.91 521.526 1239.29 521.215C1237.67 520.905 1236 520.93 1234.39 521.289C1232.78 521.648 1231.26 522.333 1229.93 523.302C1228.59 524.271 1227.47 525.503 1226.62 526.923Z" fill="#F3A9B8"/>
<path d="M1327.17 556.936C1328.21 556.794 1329.26 556.886 1330.26 557.205C1331.26 557.525 1332.18 558.065 1332.94 558.784C1333.7 559.504 1334.29 560.386 1334.67 561.364C1335.05 562.343 1335.2 563.393 1335.12 564.439C1335.12 572.811 1324.85 573.648 1324.85 573.648L1327.17 556.936Z" fill="#F3A9B8"/>
<path d="M1221.87 615.048C1221.87 615.048 1208 642.602 1208 687.639C1227.3 696.791 1254.03 694.401 1254.03 694.401L1257.78 670.494L1259.88 694.642C1259.88 694.642 1284 700.341 1304.91 688.388C1306.23 642.505 1292.22 615 1292.22 615C1292.22 615 1265.87 624.152 1221.87 615.048Z" fill="#2E3154"/>
<path d="M1203.69 850.254V819H1231L1225.56 858H1185C1185 858 1189.18 850.254 1203.69 850.254Z" fill="#2E3154"/>
<path d="M1300.93 850.254V819H1273L1278.48 858H1320C1320 858 1315.95 850.254 1300.93 850.254Z" fill="#2E3154"/>
<path d="M1261.01 516C1261.01 516 1239 554.6 1239 597.244C1239 639.889 1328 639.28 1328 597.244C1328 555.209 1311.08 516 1311.08 516H1261.01Z" fill="#5A75C2"/>
<path d="M1253.26 533H1311.79C1315.82 532.987 1319.68 531.403 1322.53 528.592C1325.38 525.782 1326.99 521.974 1327 518C1326.99 514.026 1325.38 510.218 1322.53 507.408C1319.68 504.597 1315.82 503.013 1311.79 503H1253.97C1250.54 503.013 1247.24 504.365 1244.81 506.762C1242.38 509.158 1241.01 512.405 1241 515.795V520.908C1241.01 524.113 1242.3 527.185 1244.6 529.451C1246.9 531.718 1250.01 532.994 1253.26 533Z" fill="#4C60A5"/>
<path d="M1241.45 573C1241.45 573 1222.08 614 1250.48 614C1278.89 614 1266.15 573 1266.15 573H1241.45Z" fill="#4C60A5"/>
<path d="M1283.94 573C1283.94 573 1266.28 614 1297.75 614C1329.23 614 1335 612.563 1335 593.902C1335 575.241 1326.93 573 1326.93 573H1283.94Z" fill="#4C60A5"/>
<path d="M1241 518C1241 526.278 1245.92 533 1252.01 533C1258.11 533 1263 526.278 1263 518C1263 509.722 1258.08 503 1252.01 503C1245.94 503 1241 509.722 1241 518Z" fill="#354B87"/>
<path d="M1269 503C1269 503 1283.43 519.26 1269 533H1276.33C1276.33 533 1291.59 517.879 1275.95 503" fill="#5A75C2"/>
<path d="M1302 503C1302 503 1316.43 519.26 1302 533H1309.34C1309.34 533 1324.57 517.879 1308.96 503" fill="#5A75C2"/>
<path d="M1147.33 563.099C1147.33 563.099 1139.34 553.382 1137.46 554.031C1135.59 554.681 1139.34 559.481 1139.34 559.481C1139.34 559.481 1128.28 557.858 1126.71 557.858C1125.15 557.858 1126.28 560.757 1128.93 561.383C1126.52 563.702 1129.48 569.198 1137.58 569.825C1145.69 570.451 1148 569.198 1148 569.198L1147.33 563.099Z" fill="#F3A9B8"/>
<path d="M1356.92 521.162C1356.92 521.162 1348.93 534.042 1364.19 541.061C1360.43 549.143 1369.15 557.837 1378.59 554.553" stroke="#2E3154" stroke-width="0.5" stroke-miterlimit="10"/>
<defs>
<linearGradient id="paint0_linear" x1="960.016" y1="687.561" x2="960.016" y2="36.0966" gradientUnits="userSpaceOnUse">
<stop stop-color="#D0CBF0"/>
<stop offset="1" stop-color="#BCD3F6"/>
</linearGradient>
</defs>
</svg>
