<svg width="375" height="597" viewBox="0 0 375 597" fill="none" xmlns="http://www.w3.org/2000/svg">
<path d="M375 0H0V569H375V0Z" fill="url(#paint0_linear)"/>
<path d="M4.46958e-06 430.195C12.7316 433.323 26.0184 436.947 39.8305 441.135C162.166 478.235 259.566 430.858 375 414.31C375 524 375 505.5 375 563H4.46958e-06C0.00012654 521 -3.8147e-05 455.5 4.46958e-06 430.195Z" fill="#E4E6F8"/>
<path d="M5.16545e-06 509.198C37.4869 507.245 81.4563 506 132.641 506C227.581 506 310.121 511.128 375 517.284C375 552 375 576 375 597H5.16545e-06C-2.584e-05 566.5 9.67182e-05 531.5 5.16545e-06 509.198Z" fill="white"/>
<path d="M152 50.582H192.109C192.109 50.582 190.786 46.4077 183.025 47.2642C177.92 39.0237 170.349 45.6143 170.349 47.147C165.244 36.941 152 43.9644 152 50.582Z" fill="white"/>
<path d="M166 476.421C161.937 475.306 159.044 476.485 157 479.03L164.261 486L166 476.421Z" fill="#4C60A5"/>
<path d="M156 530L161.638 528.552C161.638 528.552 164.914 522.195 168 514L159.095 514.956L156 530Z" fill="#4C60A5"/>
<path d="M154 512V531L156.032 530.41L159 514.316L154 512Z" fill="#4C60A5"/>
<path d="M162.229 497L164 486.955L156.941 480C155.408 482.566 154.409 485.402 154 488.345V490.942L162.229 497Z" fill="#4C60A5"/>
<path d="M159 514L167.552 512.89C168.425 510.056 169.266 507.049 170 504L160.477 505.326L159 514Z" fill="#4C60A5"/>
<path d="M162 497.44L154 492V501.681L160.552 505L162 497.44Z" fill="#4C60A5"/>
<path d="M172 483.255C171.096 480.273 169.384 478.048 166.586 477L165 486L172 483.255Z" fill="#4C60A5"/>
<path d="M162 497L171.661 495.05C172.203 491.376 172.094 487.639 171.339 484L163.811 486.94L162 497Z" fill="#4C60A5"/>
<path d="M147.41 523L154 517.09V505L145 512.891L147.41 523Z" fill="#4C60A5"/>
<path d="M162 505L170.446 503.902C171.116 501.297 171.635 498.659 172 496L163.324 497.705L162 505Z" fill="#4C60A5"/>
<path d="M160 506.348L154 503V511.71L158.667 514L160 506.348Z" fill="#4C60A5"/>
<path d="M142.005 504.162L125 503C125.711 506.72 126.61 510.392 127.693 514L144 513.266L142.005 504.162Z" fill="#4C60A5"/>
<path d="M139.457 493.097L123 491C123.238 494.694 123.758 498.368 124.556 501.994L142 503L139.457 493.097Z" fill="#4C60A5"/>
<path d="M132.517 465C128.069 466.136 125.316 470.463 124 476.547L136 480L132.517 465Z" fill="#4C60A5"/>
<path d="M140.515 492L152 479.805C151.097 477.011 149.772 474.378 148.074 472L138 481.437L140.515 492Z" fill="#4C60A5"/>
<path d="M144.722 514L128 514.616C129.077 517.479 130.348 520.279 131.807 523L147 522.472L144.722 514Z" fill="#4C60A5"/>
<path d="M132 523.62C134.103 528.087 136.769 532.25 139.931 536L150 532.828L147.651 523L132 523.62Z" fill="#4C60A5"/>
<path d="M145.096 512L154 504.77V495L143 503.872L145.096 512Z" fill="#4C60A5"/>
<path d="M142.681 503L154 493.678V486.327C153.589 484.186 153.035 482.073 152.343 480L140 492.369L142.681 503Z" fill="#4C60A5"/>
<path d="M147 523.462L149.612 533L154 531.81V518L147 523.462Z" fill="#4C60A5"/>
<path d="M147 470.883C144.477 467.737 140.787 465.676 136.718 465.14C135.486 464.953 134.232 464.953 133 465.14L136.726 480L147 470.883Z" fill="#4C60A5"/>
<path d="M136.446 481.48L123.816 478C123.098 481.903 122.853 485.877 123.084 489.839L139 492L136.446 481.48Z" fill="#4C60A5"/>
<path d="M147.444 523.255L147 523.271L149.265 533L150 532.769L147.727 523L147.444 523.255Z" fill="#637ABE"/>
<path d="M136.642 480L137 479.72L132.852 465C132.571 465.037 132.29 465.088 132 465.147L136.148 479.919L136.642 480Z" fill="#637ABE"/>
<path d="M147 522.65L144.72 513L144.439 513.241L144 513.257L146.303 523L146.629 522.984L147 522.65Z" fill="#637ABE"/>
<path d="M144 512.628L142.519 503L142.311 503.285L142 503.251L143.497 513L143.732 512.983L144 512.628Z" fill="#637ABE"/>
<path d="M140 491.64L136.887 481L136.498 481.285L136 481.173L139.158 491.947L139.584 492L140 491.64Z" fill="#637ABE"/>
<path d="M143 502.705L139.875 492L139.538 492.295L139 492.235L142.144 502.985L142.572 503L143 502.705Z" fill="#637ABE"/>
<path d="M161.312 497L160 504.81L160.333 505L160.695 504.956L162 497.147L161.61 497.234L161.312 497Z" fill="#637ABE"/>
<path d="M160.3 505L159 513.807L159.336 514L159.707 513.941L161 505.151L160.629 505.21L160.3 505Z" fill="#637ABE"/>
<path d="M164.309 486L164.658 485.846L166 477.234C165.799 477.146 165.591 477.073 165.376 477L164 485.678L164.309 486Z" fill="#637ABE"/>
<path d="M158.562 515.162L158.159 515L155 530L155.918 529.774L159 515.12L158.562 515.162Z" fill="#637ABE"/>
<path d="M164.087 486L162 496.711L162.438 497L162.904 496.917L165 486.157L164.469 486.347L164.087 486Z" fill="#637ABE"/>
<path d="M135.797 480.214L123.158 477C123.098 477.23 123.053 477.452 123 477.696L136 481L135.797 480.214Z" fill="#637ABE"/>
<path d="M137.192 481L147 471.587C146.858 471.387 146.708 471.193 146.559 471L137 480.175L137.192 481Z" fill="#637ABE"/>
<path d="M138 480.747L137.568 480L136.896 480.26L136 480.16L136.432 480.9L137.312 481L138 480.747Z" fill="#637ABE"/>
<path d="M138.782 492.205L123 490L123.044 490.75L139 493L138.782 492.205Z" fill="#637ABE"/>
<path d="M140.224 492L152 479.794C151.918 479.527 151.828 479.26 151.732 479L140 491.146L140.224 492Z" fill="#637ABE"/>
<path d="M140 492.747L139.769 492L139.388 492.312L139 492.266L139.207 492.948L139.694 493L140 492.747Z" fill="#637ABE"/>
<path d="M143.198 503L154 494.881V494L143 502.272L143.198 503Z" fill="#637ABE"/>
<path d="M141.848 502.588L125 502L125.152 502.408L142 503L141.848 502.588Z" fill="#637ABE"/>
<path d="M165.15 485.272L165 486L172 483.628C171.933 483.421 171.873 483.22 171.798 483L165.15 485.272Z" fill="#637ABE"/>
<path d="M164 485.145L156.508 479C156.333 479.192 156.166 479.385 156 479.591L163.816 486L164 485.145Z" fill="#637ABE"/>
<path d="M164.178 486L164 486.742L164.347 487L164.831 486.859L165 486.147L164.559 486.276L164.178 486Z" fill="#637ABE"/>
<path d="M162 498L171.901 495.847L172 495L162.148 497.136L162 498Z" fill="#637ABE"/>
<path d="M162 496.253L154 491V491.841L161.854 497L162 496.253Z" fill="#637ABE"/>
<path d="M160 504.267L154 501V501.796L159.871 505L160 504.267Z" fill="#637ABE"/>
<path d="M161 505L169.811 503.769C169.879 503.508 169.94 503.238 170 503L161.136 504.238L161 505Z" fill="#637ABE"/>
<path d="M160.31 505L160 505.808L160.793 506L161.69 505.946L162 505.154L161.121 505.2L160.31 505Z" fill="#637ABE"/>
<path d="M159 515L167.721 513.886L168 513L159.152 514.131L159 515Z" fill="#637ABE"/>
<path d="M154 512V512.799L158.867 515L159 514.259L154 512Z" fill="#637ABE"/>
<path d="M143.83 513L128 513.953L128.233 515L144 514.047L143.83 513Z" fill="#637ABE"/>
<path d="M144.235 513L154 505.96V505L144 512.207L144.235 513Z" fill="#637ABE"/>
<path d="M145 513.535L144.773 512L144.361 512.577L144 512.606L144.202 514L144.689 513.972L145 513.535Z" fill="#637ABE"/>
<path d="M147.23 523L154 517.956V517L147 522.21L147.23 523Z" fill="#637ABE"/>
<path d="M146.846 523L132 523.438L132.352 524L147 523.567L146.846 523Z" fill="#637ABE"/>
<path d="M205 550C205 550 199.739 514.351 167.66 508.866C135.582 503.382 139.49 458.24 95.7012 460.053C51.9125 461.866 60.9394 503.839 43.5171 513.25C26.0948 522.66 18 549.963 18 549.963L205 550Z" fill="#82A7F7"/>
<path d="M199 550C199 550 199 521.087 233.405 510.903C267.81 500.718 259.622 447.689 302.636 455.85C345.649 464.011 324.752 518.262 341.548 530.095C358.344 541.929 354.657 550 354.657 550H199Z" fill="#82A7F7"/>
<path d="M30.685 550H32L8.18632 466C0.752626 468.94 30.685 550 30.685 550Z" fill="#A0ABE9"/>
<path d="M39.8251 550L63 486.562C56.9928 486.28 49.2239 511.078 45.6072 523.946C44.3887 528.589 43.5893 531.472 43.5893 531.472C43.5893 531.472 44.3654 528.44 45.6072 523.946C50.4734 505.373 61.96 458.45 55.0913 454L37 549.948L39.8251 550Z" fill="#A0ABE9"/>
<path d="M34 550L32.0417 435C24.0982 440.503 31.0405 534.848 31.0405 534.848C31.0405 534.848 17.5387 467.061 10 465.252L33.0798 549.985L34 550Z" fill="#A0ABE9"/>
<path d="M45 524C43.7462 528.778 43 532 43 532C43 532 43.7923 528.936 45 524Z" fill="#A0ABE9"/>
<path d="M36.2751 550L54 452.618C44.7282 451.016 36.2523 534.856 36.2523 534.856C36.2523 534.856 42.3931 435 33 435L35.0166 549.977L36.2751 550Z" fill="#A0ABE9"/>
<path d="M43.3958 550C43.3958 550 70.2188 490.325 62.6561 486.075L62.4973 486L41 549.955L43.3958 550Z" fill="#A0ABE9"/>
<path d="M33 550L9.78494 466.058C9.54405 465.981 9.28532 465.981 9.04443 466.058H9L32.2002 549.933L33 550Z" fill="#697DD1"/>
<path d="M35 550L32.8197 435C32.5249 435.009 32.2397 435.098 32 435.256L34.1803 549.985L35 550Z" fill="#697DD1"/>
<path d="M37.7475 550L55 453.285C54.8774 453.2 54.7458 453.13 54.6077 453.075C54.5092 453.04 54.4075 453.015 54.3043 453L37 549.985L37.7475 550Z" fill="#697DD1"/>
<path d="M40.7975 550L63 486.172C62.7651 486.067 62.5119 486.008 62.2547 486L40 549.993L40.7975 550Z" fill="#697DD1"/>
<path d="M336.399 550L355 452.618C345.287 451.016 336.407 534.856 336.407 534.856C336.407 534.856 342.84 435 333 435L335.113 549.977L336.399 550Z" fill="#A0ABE9"/>
<path d="M338.825 550L362 486.562C355.993 486.28 348.224 511.078 344.607 523.946C343.389 528.589 342.589 531.472 342.589 531.472C342.589 531.472 343.365 528.44 344.607 523.946C349.473 505.373 360.968 458.45 354.091 454L336 549.948L338.825 550Z" fill="#A0ABE9"/>
<path d="M345 524C343.746 528.778 343 532 343 532C343 532 343.792 528.936 345 524Z" fill="#A0ABE9"/>
<path d="M343.396 550C343.396 550 370.219 490.325 362.656 486.075L362.497 486L341 549.955L343.396 550Z" fill="#A0ABE9"/>
<path d="M331.685 550H333L309.186 466C301.753 468.94 331.685 550 331.685 550Z" fill="#A0ABE9"/>
<path d="M335 550L332.96 435C324.686 440.503 331.917 534.848 331.917 534.848C331.917 534.848 317.853 467.061 310 465.252L334.041 549.985L335 550Z" fill="#A0ABE9"/>
<path d="M333 550L309.785 466.058C309.544 465.981 309.285 465.981 309.044 466.058H309L332.23 549.985L333 550Z" fill="#697DD1"/>
<path d="M335 550L333.546 435C333.35 435.009 333.16 435.098 333 435.256L334.454 549.985L335 550Z" fill="#697DD1"/>
<path d="M336.789 550L355 453.285C354.871 453.2 354.732 453.13 354.586 453.075C354.482 453.04 354.375 453.015 354.266 453L336 549.985L336.789 550Z" fill="#697DD1"/>
<path d="M339.832 550L363 486.172C362.755 486.067 362.491 486.008 362.222 486L339 549.993L339.832 550Z" fill="#697DD1"/>
<path d="M59 474L77.863 550H79.3699L83.9841 527.711C84.1949 518.683 82.6334 492.615 59 474Z" fill="#617FC8"/>
<path d="M58.0404 550L66 549.932L33 512C41.25 541.958 58.0404 550 58.0404 550Z" fill="#617FC8"/>
<path d="M33 512L66.8947 550H69L58.5479 528.67C54.591 522.65 46.2518 512.957 33 512Z" fill="#617FC8"/>
<path d="M59.3275 527.32L70.3734 550L76 549.955L58.2318 475C50.0214 495.594 55.648 517.109 59.3275 527.32Z" fill="#617FC8"/>
<path d="M91.5968 549.931C91.5968 549.931 116.561 539.825 117 500L84 550L91.5968 549.931Z" fill="#617FC8"/>
<path d="M84.1698 528.195L80 550H83.6993L117 500C93.4578 510.195 86.2548 522.835 84.1698 528.195Z" fill="#617FC8"/>
<path d="M33 511L33.2739 511.973L66.9883 550H68L33.464 511.061L33 511Z" fill="#7AA2F7"/>
<path d="M58.3344 473C58.2204 473.272 58.1064 473.551 58 473.822L76.24 550H77L58.6764 473.249L58.3344 473Z" fill="#7AA2F7"/>
<path d="M116.779 500.12L84 550H84.8694L117 501.05C117 500.698 117 500.353 117 500L116.779 500.12Z" fill="#7AA2F7"/>
<path d="M61.3676 532.63C61.5278 532.968 61.6079 533.164 61.6079 533.164L61.3676 532.63C60.6613 531.162 59.8707 529.74 59 528.37L69.1987 550H70L59.1311 527C60.1364 529.785 60.9742 531.749 61.3676 532.63Z" fill="#637ABE"/>
<path d="M83.2234 530.312C83.2234 530.312 83.3639 529.103 83.4157 527L79 550H79.7396L84 527.662C83.6635 528.519 83.4036 529.406 83.2234 530.312Z" fill="#637ABE"/>
<path d="M302.866 533.619L306.753 551H308.685L320 473C300.129 493.268 301.095 521.002 302.866 533.619Z" fill="#4C60A5"/>
<path d="M275 498L305.058 551H306L301.542 531.851C298.018 521.914 290.227 505.877 275 498Z" fill="#4C60A5"/>
<path d="M299.621 551H304L275 498C275.303 539.04 299.621 551 299.621 551Z" fill="#4C60A5"/>
<path d="M322.435 551C322.435 551 343.418 541.296 353 509L319 551H322.435Z" fill="#4C60A5"/>
<path d="M323.319 534.492L317 551H318.443L353 509C336.582 514.008 327.539 526.585 323.319 534.492Z" fill="#4C60A5"/>
<path d="M321.134 473L310 551H316.816L322.787 534.487C326.086 522.373 331.074 496.103 321.134 473Z" fill="#4C60A5"/>
<path d="M275 497C275 497.255 275 497.503 275 497.751L305.118 551H306L275.644 497.33L275 497Z" fill="#637ABE"/>
<path d="M319.536 472L319.382 472.165L308 551H308.736L320 473.05C319.853 472.675 319.698 472.353 319.536 472Z" fill="#637ABE"/>
<path d="M353.462 509.143L319 551H319.984L353.646 510.156C353.762 509.773 353.885 509.405 354 509C353.823 509.023 353.654 509.09 353.462 509.143Z" fill="#637ABE"/>
<path d="M303.98 538.669C304.263 539.831 304.387 540.485 304.387 540.485C304.387 540.485 304.22 539.846 303.98 538.669C303.608 537.199 302.975 534.838 302 532L306.272 551H307L303.186 533.779C303.434 535.853 303.739 537.522 303.98 538.669Z" fill="#637ABE"/>
<path d="M321.132 539.664C320.786 540.553 320.579 541.024 320.579 541.024C320.579 541.024 320.76 540.522 321.132 539.664C321.59 538.474 322.298 536.535 323.084 534L316 551H316.924L324 534.062C322.925 535.879 321.967 537.749 321.132 539.664Z" fill="#637ABE"/>
<path d="M188.5 528C61.4745 528 8 549.132 8 549.132C8 549.132 61.4745 558 188.5 558C315.525 558 369 549.132 369 549.132C369 549.132 315.533 528 188.5 528Z" fill="#D5E5FC"/>
<path d="M255.524 478L251 546H255.571L267.476 489.048L274.468 546H278.752L279 478H255.524Z" fill="#FB6F6E"/>
<path d="M231.077 457.425L231.016 457.919L228.066 482H285L279.533 458.219L270.503 429.037L249.554 432.767L249.122 432.85L248.69 432.76L221 427L230.925 456.961L231.077 457.425Z" fill="#E0EEFB"/>
<path d="M287 485L280.904 458.071L271.291 426.505L248.434 430.641L217 424L228.103 458.071L224.858 485H287ZM247.942 432.85L248.373 432.941L248.804 432.857L269.702 429.062L278.71 458.663L284.164 482.761H227.392L230.334 458.359L230.395 457.859L230.244 457.388L220.343 427.028L247.942 432.85Z" fill="white"/>
<path d="M267.5 446C266.572 446 265.681 445.644 265.025 445.011C264.369 444.379 264 443.52 264 442.625V437H271V442.625C271 443.52 270.631 444.379 269.975 445.011C269.319 445.644 268.428 446 267.5 446Z" fill="#F3A9B8"/>
<g style="mix-blend-mode:multiply" opacity="0.7">
<path d="M279.997 455L252.921 456.619L228.237 458.033L225 485H287L279.997 455Z" fill="#E0EEFB"/>
</g>
<path d="M246.996 437C246.358 437 245.661 437.844 245 439H249C248.339 437.844 247.642 437 246.996 437Z" fill="white"/>
<path d="M251 444C250.301 442.232 249.431 440.556 248.406 439H244.594C243.567 440.549 242.697 442.22 242 443.984L251 444Z" fill="#A0ABE9"/>
<path d="M241.994 439C241.585 439.062 241.196 439.183 240.854 439.354C240.511 439.526 240.22 439.746 240 440H244C243.778 439.745 243.486 439.525 243.141 439.353C242.797 439.181 242.406 439.061 241.994 439Z" fill="white"/>
<path d="M245 444C244.457 442.585 243.781 441.244 242.984 440H240.016C239.219 441.244 238.543 442.585 238 444H245Z" fill="#A0ABE9"/>
<path d="M251.5 439C251.016 439 250.5 439.422 250 440H253C252.833 439.746 252.614 439.527 252.356 439.355C252.099 439.183 251.807 439.063 251.5 439Z" fill="white"/>
<path d="M255 444C254.458 442.585 253.783 441.244 252.986 440H250.014C249.217 441.244 248.542 442.585 248 444H255Z" fill="#A0ABE9"/>
<path d="M251.587 446.295C249.69 447.321 248.159 448.936 247.214 450.907C235.8 443.65 226.398 445.089 226 445.165L226.42 446.498C226.515 446.498 235.653 444.833 246.735 451.924C246.417 452.658 246.149 453.414 245.932 454.185C243.164 463.869 229.115 465.135 228.997 465.15L228.835 466.273C229.336 466.235 239.004 465.376 244.239 459.49C246.109 460.96 253.759 468.036 249.01 482H250.181C255.063 467.682 247.074 460.289 244.938 458.639C245.859 457.4 246.541 455.993 246.948 454.494C247.972 450.914 249.643 448.563 252.059 447.29C255.475 445.489 260.423 445.85 267.639 448.435L268 447.373C260.519 444.69 255.291 444.343 251.587 446.295Z" fill="#FB6F6E"/>
<path d="M228.082 473.404C228.082 473.404 232.61 469.046 237.457 472.065C242.303 475.085 243.504 472.977 245.66 475.049C248.558 477.827 245.853 482 245.853 482H227L228.082 473.404Z" fill="#82A7F7"/>
<g style="mix-blend-mode:multiply" opacity="0.5">
<path d="M248.289 430.641L252.988 458.435L256 485H224.824L228.055 458.071L217 424L248.289 430.641Z" fill="#E0EEFB"/>
</g>
<path d="M270 449.853L277.634 464.904C277.888 465.407 278.257 465.848 278.714 466.194C279.17 466.541 279.703 466.783 280.271 466.903C280.867 467.037 281.487 467.032 282.081 466.89C282.674 466.747 283.224 466.471 283.684 466.084C284.145 465.697 284.503 465.211 284.728 464.665C284.954 464.119 285.041 463.529 284.982 462.944C284.092 455.317 277.152 445 277.152 445L270 449.853Z" fill="#F3A9B8"/>
<path d="M256 478C255.809 477.664 255.475 477.33 255 477" stroke="#2E3154" stroke-width="0.5" stroke-miterlimit="10"/>
<path d="M255 476C254.419 473.898 252.301 469.385 244.878 468.731C238.583 468.173 235.489 463.366 240.478 455.847C245.28 448.616 247.01 450.027 247.14 444" stroke="#2E3154" stroke-width="0.5" stroke-miterlimit="10" stroke-dasharray="1 1"/>
<path d="M245 443.5C245 443.797 245.117 444.087 245.337 444.333C245.557 444.58 245.869 444.772 246.235 444.886C246.6 444.999 247.002 445.029 247.39 444.971C247.778 444.913 248.135 444.77 248.414 444.561C248.694 444.351 248.884 444.084 248.962 443.793C249.039 443.502 248.999 443.2 248.848 442.926C248.696 442.652 248.44 442.418 248.111 442.253C247.782 442.088 247.396 442 247 442C246.47 442 245.961 442.158 245.586 442.439C245.211 442.721 245 443.102 245 443.5Z" fill="#FB6F6E"/>
<path d="M265.028 423.206C265.028 423.206 260 424.142 260 432.098C260 440.054 264.403 439.82 267.535 437.835C270.666 435.849 272.132 430.928 269.984 426.361C267.836 421.795 265.028 423.206 265.028 423.206Z" fill="#F3A9B8"/>
<path d="M267.15 442.006C267.15 442.006 259.144 441.492 257.717 450.267C256.554 457.428 259.023 460.293 258.818 466.344C258.719 469.232 256 474.532 256 478H278.975C278.975 478 278.33 474.383 276.461 466.344C275.975 464.253 277.084 461.759 277.942 458.983C282.006 445.749 273.492 442.006 267.15 442.006Z" fill="#A0ABE9"/>
<path d="M264.899 431.408C264.899 431.408 259.617 431.88 259.03 425.823C258.443 419.767 266.579 417.902 271.597 422.788C272.99 418.181 280.106 419.417 278.793 425.709C281.728 429.858 278.595 430.987 276.944 430.987C276.944 437.5 272.638 439.857 268.948 438.729C265.258 437.6 264.899 431.408 264.899 431.408Z" fill="#FB6F6E"/>
<path d="M258.822 447.857L250.579 461.454L232.488 458.884L232 461.492C232 461.492 242.43 467.956 252.451 466.879C258.146 466.271 263.353 456.367 265.658 451.312C266.03 450.507 266.101 449.6 265.859 448.75C265.618 447.899 265.079 447.158 264.336 446.656C263.899 446.365 263.405 446.165 262.885 446.068C262.365 445.97 261.831 445.978 261.314 446.091C260.798 446.203 260.31 446.418 259.882 446.721C259.453 447.025 259.093 447.411 258.822 447.857Z" fill="#F3A9B8"/>
<path d="M289.45 456.027C289.652 455.968 289.858 456.006 290.052 456.139C290.246 456.273 290.424 456.498 290.572 456.798C290.72 457.099 290.835 457.466 290.909 457.875C290.982 458.283 291.012 458.721 290.996 459.158C290.996 462.651 289 463 289 463L289.45 456.027Z" fill="#F3A9B8"/>
<path d="M256.288 475.015C256.288 475.015 252 483.519 252 497.419C257.969 500.244 266.237 499.506 266.237 499.506L267.397 492.128L268.045 499.581C268.045 499.581 275.507 501.34 281.973 497.651C282.38 483.489 278.046 475 278.046 475C278.046 475 269.899 477.825 256.288 475.015Z" fill="#2E3154"/>
<path d="M251.093 547.815V539H260L258.226 550H245C245 550 246.364 547.815 251.093 547.815Z" fill="#2E3154"/>
<path d="M280.915 547.815V539H272L273.75 550H287C287 550 285.707 547.815 280.915 547.815Z" fill="#2E3154"/>
<path d="M268.923 445C268.923 445 262 456.614 262 469.445C262 482.276 290 482.093 290 469.445C290 456.797 284.677 445 284.677 445H268.923Z" fill="#5A75C2"/>
<path d="M266.849 451H285.225C286.49 450.995 287.702 450.414 288.597 449.384C289.492 448.353 289.996 446.957 290 445.5C289.996 444.043 289.492 442.647 288.597 441.616C287.702 440.586 286.49 440.005 285.225 440H267.073C265.994 440.005 264.96 440.5 264.197 441.379C263.435 442.258 263.004 443.449 263 444.691V446.566C263.002 447.741 263.408 448.868 264.13 449.699C264.851 450.53 265.829 450.998 266.849 451Z" fill="#4C60A5"/>
<path d="M262.897 463C262.897 463 257.199 475 265.554 475C273.909 475 270.162 463 270.162 463H262.897Z" fill="#4C60A5"/>
<path d="M275.499 463C275.499 463 270.138 475 279.693 475C289.248 475 291 474.579 291 469.118C291 463.656 288.55 463 288.55 463H275.499Z" fill="#4C60A5"/>
<path d="M263 445.5C263 448.535 264.118 451 265.503 451C266.888 451 268 448.535 268 445.5C268 442.465 266.882 440 265.503 440C264.123 440 263 442.465 263 445.5Z" fill="#354B87"/>
<path d="M271 440C271 440 275.124 445.962 271 451H273.095C273.095 451 277.454 445.456 272.985 440" fill="#5A75C2"/>
<path d="M281 440C281 440 286.154 445.962 281 451H283.623C283.623 451 289.062 445.456 283.485 440" fill="#5A75C2"/>
<path d="M233.755 458.843C233.755 458.843 230.851 455.807 230.169 456.01C229.487 456.213 230.851 457.713 230.851 457.713C230.851 457.713 226.828 457.206 226.259 457.206C225.691 457.206 226.102 458.111 227.064 458.307C226.189 459.032 227.265 460.75 230.213 460.945C233.16 461.141 234 460.75 234 460.75L233.755 458.843Z" fill="#F3A9B8"/>
<path d="M297.703 446C297.703 446 295.014 449.777 300.153 451.835C298.885 454.205 301.823 456.754 305 455.791" stroke="#2E3154" stroke-width="0.5" stroke-miterlimit="10"/>
<defs>
<linearGradient id="paint0_linear" x1="187.503" y1="423.401" x2="187.503" y2="22.2283" gradientUnits="userSpaceOnUse">
<stop stop-color="#D0CBF0"/>
<stop offset="1" stop-color="#BCD3F6"/>
</linearGradient>
</defs>
</svg>
